<?xml version="1.0" encoding="utf-8"?>
<!-- Generator: Adobe Illustrator 26.5.0, SVG Export Plug-In . SVG Version: 6.00 Build 0)  -->
<svg version="1.1" id="图层_1" xmlns="http://www.w3.org/2000/svg" xmlns:xlink="http://www.w3.org/1999/xlink" x="0px" y="0px"
	 viewBox="0 0 700 521" style="enable-background:new 0 0 700 521;" xml:space="preserve">
<style type="text/css">
	.st0{fill:none;}
	.st1{fill:#D2D2D2;}
	.st2{fill:url(#SVGID_1_);}
	.st3{fill:url(#region-1-1_00000117666334112902376240000002666214888411412142_);}
	.st4{fill:url(#region-1-2_00000173853863951042084490000000547498342106022560_);}
	.st5{fill:url(#region-2-1_00000124153048355880268000000003154376824405694396_);}
	.st6{fill:url(#region-2-2_00000155848037493901998830000016780076070084034197_);}
	.st7{fill:url(#region-3-1_00000088851385539252263590000007611273379217154480_);}
	.st8{fill:url(#region-3-2_00000091704605071517589160000009973875248827261060_);}
	.st9{fill:url(#region-3-3_00000114760831181831861300000012526009895250111649_);}
	.st10{fill:url(#region-4-1_00000172416932229015388350000002365771430934162851_);}
	.st11{fill:url(#region-5-1_00000067915127837057738470000008211243725688753035_);}
	.st12{fill:url(#region-6-1_00000155853836768574953070000010794826486468800146_);}
	.st13{fill:url(#region-7-1_00000100384624168956655160000007427745516525348246_);}
	.st14{fill:url(#region-7-2_00000106830801982100671170000000658308730237972104_);}
	.st15{fill:url(#region-7-3_00000036960253114470377130000009867991591254100354_);}
	.st16{fill:url(#region-7-4_00000034804929434767745180000009048956027730627504_);}
	.st17{fill:url(#region-7-5_00000125582891944399811030000001101282177495400851_);}
	.st18{fill:url(#fc7c96f0-b6cc-4d56-aa3d-350486f6a5ae_00000176011538956011900300000016498368727842622142_);}
	.st19{fill:url(#b842a16c-9eaa-41ec-9b6b-d1ec208a339c_00000073003004713779439770000013474365321141218725_);}
	.st20{fill:url(#f6e1cd75-a570-440d-add5-80b5a706e40b_00000088847310314809334330000001571905365612179647_);}
	.st21{fill:url(#f9cf8be1-d119-4737-831e-f692272d210e_00000061440657843103024270000014012571248536368515_);}
	.st22{fill:url(#SVGID_00000011749924604711643170000009827174816620785587_);}
	.st23{fill:#040000;}
	
		.st24{fill:url(#fc7c96f0-b6cc-4d56-aa3d-350486f6a5ae_00000085943346019778100590000006312273768125130938_);stroke:#000000;stroke-width:0.1;stroke-miterlimit:10;}
	.st25{fill:url(#f67d6cf3-a3f1-4a02-8e3b-7b7e5a15ec3c_00000060750124462835145030000016415536613264475310_);}
	.st26{fill:url(#e48a4b58-f6c5-40ea-92ba-3148515b4a8b_00000009559977772887410780000017724174910538611852_);}
	.st27{fill:url(#bdaa4870-1cc4-44aa-a54c-691d09e891e3_00000163771900909494423730000000339044912776141196_);}
	.st28{fill:url(#SVGID_00000074403719609896730450000005686816329420829625_);}
	.st29{fill:url(#SVGID_00000183954145272296581180000004576299930951694254_);}
	.st30{fill:url(#SVGID_00000075159171670554661170000002565915657132799159_);}
	.st31{fill:url(#SVGID_00000159432012103563137360000011977883541129385636_);}
	.st32{fill:url(#SVGID_00000140000743350418205460000010938149393735720073_);}
	.st33{fill:none;stroke:#040000;stroke-miterlimit:10;}
	.st34{fill:url(#region-1-1_00000002343679690601272760000018283705432292833698_);}
	.st35{fill:url(#region-2-2_00000065775189705357080300000009750145766105551003_);}
	.st36{fill:url(#region-2-1_00000061453491911408317370000008912795617720891547_);stroke:#000000;stroke-miterlimit:10;}
</style>
<pattern  y="521" width="40" height="40" patternUnits="userSpaceOnUse" id="SVGID_0000017099289059505759562" viewBox="0 -40 40 40" style="overflow:visible;">
	<g>
		<rect y="-40" class="st0" width="40" height="40"/>
		<g>
			<rect y="-40" class="st0" width="40" height="40"/>
			<g>
				<rect y="-40" class="st0" width="40" height="40"/>
				<g>
					<rect y="-40" class="st0" width="40" height="40"/>
					<g>
						<rect y="-40" class="st0" width="40" height="40"/>
						<rect y="-40" class="st0" width="40" height="40"/>
						<rect y="-40" class="st1" width="20" height="20"/>
						<rect x="20" y="-20" class="st1" width="20" height="20"/>
					</g>
				</g>
			</g>
		</g>
	</g>
</pattern>
<pattern  id="SVGID_1_" xlink:href="#SVGID_0000017099289059505759562" patternTransform="matrix(1 0 0 1 122 34645)">
</pattern>
<rect x="-1.3" class="st2" width="700" height="521"/>
<g id="layer-1">
	
		<linearGradient id="region-1-1_00000132797940477104765000000009127004517203231649_" gradientUnits="userSpaceOnUse" x1="-2426.625" y1="-1.148" x2="-2426.5164" y2="-1.6783" gradientTransform="matrix(294.0503 0 0 -548.702 713905.75 -465.0831)">
		<stop  offset="0" style="stop-color:#747474;stop-opacity:0.993"/>
		<stop  offset="1" style="stop-color:#1A1A19;stop-opacity:0.993"/>
	</linearGradient>
	<path id="region-1-1" style="fill:url(#region-1-1_00000132797940477104765000000009127004517203231649_);" d="M355.8,186
		c-14,1.7-22.9,4.4-29.7,9c-5.7,3.9-8.4,7.1-11.9,14c-4.8,9.6-7.9,20-9.8,32.4c-2.7,17.8-3.1,33.6-1.7,62.1c0.2,4.7,0.4,14,0.4,20.8
		c0,6.7,0.2,16.4,0.5,21.3c0.2,5,0.7,13.8,0.9,19.7c1.2,24.6,4.2,40,10.2,52.5c6.7,13.8,19.5,22.8,38,26.6c6.1,1.3,7.3,1.2,9.5-0.1
		c4.2-2.6,5.7-2.9,11.7-2.9c5.5,0,5.8,0.1,9.1,1.6c1.8,0.9,3.4,1.8,3.4,2.1c0,1.1,12.8-1.8,19.5-4.4c8.3-3.3,17-9.6,21.7-15.8
		c2.1-2.8,5.4-9.2,7-13.6c1.3-3.6,3.5-12.1,4-15.7c0.2-1.9,0.7-4.6,0.9-6c0.9-5.4,1.4-25.6,1.5-73.3c0.1-51.8,0-55.4-2-68.3
		c-3.1-19.3-6.6-30.9-13.3-43.1c-4.4-8-15.6-14.6-28-16.6c-2.7-0.4-5.8-0.9-7-1.2C382,185.3,366.6,184.8,355.8,186z"/>
	
		<linearGradient id="region-1-2_00000067236105837585379360000000706195169974292657_" gradientUnits="userSpaceOnUse" x1="-2386.5039" y1="-88.5995" x2="-2386.3838" y2="-90.3781" gradientTransform="matrix(53.5 0 0 -10.2113 128050.5 -463.4919)">
		<stop  offset="0" style="stop-color:#5776A9"/>
		<stop  offset="1" style="stop-color:#6C7CA2"/>
	</linearGradient>
	<path id="region-1-2" style="fill:url(#region-1-2_00000067236105837585379360000000706195169974292657_);" d="M368.4,441.7
		c-2,0.5-7.1,3.1-7.1,3.6c0,0.2,2.1,0.6,4.7,0.8c7,0.5,20.6-0.2,20.6-1c0-0.2-1.6-1.1-3.4-1.9c-3.1-1.4-4-1.6-8.4-1.7
		C372,441.3,369.2,441.4,368.4,441.7z"/>
</g>
<linearGradient id="region-2-1_00000039131672158179892850000010372734363228128692_" gradientUnits="userSpaceOnUse" x1="-2424.6348" y1="-1.9811" x2="-2424.6348" y2="-2.4553" gradientTransform="matrix(241.6391 0 0 -401.925 586258 -610.0848)">
	<stop  offset="0" style="stop-color:#5B5C5C;stop-opacity:0.914"/>
	<stop  offset="1" style="stop-color:#FFFFFF;stop-opacity:0.375"/>
</linearGradient>
<path id="region-2-1" style="fill:url(#region-2-1_00000039131672158179892850000010372734363228128692_);" d="M358.4,186.8
	c-1.6,0.2-5,0.6-7.6,0.9l-4.7,0.6l-3.5,3.4c-6.8,6.5-15.8,18.9-20,27.3c-2.1,4.1-5.1,12.1-6.3,16.4c-2.7,9.9-2.9,27.3-0.5,42.4
	c1,6.6,3.3,16.2,4.4,18.7c0.6,1.1,1,2.3,1,2.5c0,1.1,5.3,14.2,7.8,19.4c1.7,3.4,4,8.5,5.3,11.4c2.6,5.9,4.2,9.6,5.5,12.3
	c0.5,1,0.9,2.2,0.9,2.7c0,0.4,0.2,0.9,0.4,1.2c1.6,1.7,5.4,17.2,5.8,24.1c0.1,1.8,0.2,1.8,2.5,2.5c1.3,0.4,3.6,1.1,5.2,1.6
	s4.6,1.1,6.9,1.4c2.2,0.3,4.9,0.8,6,1c2.5,0.5,17.7,0.5,20.3,0c1-0.2,3.9-0.7,6.3-1l4.4-0.6v-4.3c0-9.9,1.9-18.4,6.6-30
	c5-12.3,5.3-13,6.7-16.1c0.7-1.6,2-4.5,2.8-6.4c0.9-1.9,2-4.5,2.5-5.7c2.7-6,7.1-18.7,8.2-23.3c1.6-6.8,3-18.3,3.4-28.3
	c0.8-17.8-3.7-33.9-14-49.3c-3.8-5.7-6-8.4-12.8-15.3c-6.6-6.8-7.3-7.3-10.6-7.9c-4.8-0.9-13.4-1.9-16.1-1.9h-2.7v6.6v6.6h-2.6h-2.6
	v-6.6v-6.6h-2.9C362.6,186.3,360,186.5,358.4,186.8z"/>
<linearGradient id="region-2-2_00000101810399627446385620000008886866856519956367_" gradientUnits="userSpaceOnUse" x1="-2421.9062" y1="-5.4082" x2="-2421.8774" y2="-5.9731" gradientTransform="matrix(192.6382 0 0 -154.5021 466921.6562 -464.9774)">
	<stop  offset="0" style="stop-color:#282828;stop-opacity:0.577"/>
	<stop  offset="1" style="stop-color:#777878;stop-opacity:0.888"/>
</linearGradient>
<path id="region-2-2" style="fill:url(#region-2-2_00000101810399627446385620000008886866856519956367_);" d="M347.2,378.3
	c-0.3,6.1-0.6,9.3-1,10.8c-0.1,0.4-0.3,1.6-0.5,2.6c-0.4,2.7-2.8,11.8-4,15.1c-2.7,7.4-8.2,18.7-12.1,24.4c-0.7,0.9-1.2,2.1-1.2,2.5
	c0,0.7,4.4,3.6,8.8,5.8c5,2.5,17.9,6,22,6c0.8,0,2.2-0.5,3.2-1.1c4.2-2.6,5.7-2.9,11.7-2.9c5.5,0,5.8,0.1,9.1,1.6
	c1.8,0.9,3.4,1.8,3.4,2.1c0,1.1,12.8-1.8,19.5-4.4c4.2-1.7,12.8-6.5,13.5-7.6c0.1-0.3-0.6-1.6-1.6-2.9c-7.3-9.7-14.3-24.7-17.4-37.7
	c-0.7-2.7-1.4-7.7-1.8-11.2c-0.5-5.2-0.8-6.4-1.4-6.4c-0.4,0-2.6,0.4-5,0.8c-5.5,1-20.8,1.4-24.9,0.7c-9.1-1.5-11.5-2-14.7-2.9
	C346.7,371.7,347.5,371,347.2,378.3z"/>
<linearGradient id="region-3-1_00000062175728999909268910000017519542855133927865_" gradientUnits="userSpaceOnUse" x1="-2397.8076" y1="-5.4839" x2="-2397.2185" y2="-5.426" gradientTransform="matrix(69.234 0 0 -190.2201 166361.6562 -793.8307)">
	<stop  offset="0" style="stop-color:#AFAFAF;stop-opacity:0.855"/>
	<stop  offset="1" style="stop-color:#727272;stop-opacity:0.742"/>
</linearGradient>
<path id="region-3-1" style="fill:url(#region-3-1_00000062175728999909268910000017519542855133927865_);" d="M366.2,200.4
	c-10.1,4.8-15.4,32.1-11.8,61c0.5,4.1,3,14.6,3.9,16.2c3.5,6.4,7.3,10.8,10.2,11.8c0.8,0.3,1.5,0.3,1.5,0.1s0.5-0.4,1.2-0.4
	c5,0,10-8.2,12.8-20.4c0.4-1.9,1-4.5,1.3-5.6c0.8-3.2,1.1-24.1,0.4-30.4c-1.4-13.4-5.2-24.3-10.7-30.1c-2.7-2.8-2.8-3-5-3
	C368.9,199.5,367.2,199.9,366.2,200.4z"/>
<linearGradient id="region-3-2_00000011731810815669516180000011298244894380126625_" gradientUnits="userSpaceOnUse" x1="-1997.9166" y1="-26.1025" x2="-1997.9166" y2="-26.5764" gradientTransform="matrix(6 0 0 -40 12359 -755)">
	<stop  offset="0" style="stop-color:#484848;stop-opacity:0.81"/>
	<stop  offset="1" style="stop-color:#595A5A;stop-opacity:0.777"/>
</linearGradient>
<path id="region-3-2" style="fill:url(#region-3-2_00000011731810815669516180000011298244894380126625_);" d="M370.1,298.6v9.5h1.4
	h1.4v-9.5v-9.5h-1.4h-1.4V298.6z"/>
<linearGradient id="region-3-3_00000118394570803157941000000011798820489381440932_" gradientUnits="userSpaceOnUse" x1="-2426.0276" y1="-7.0287" x2="-2426.0271" y2="-7.5094" gradientTransform="matrix(277.1 0 0 -121.364 672624.5 -465.1716)">
	<stop  offset="0" style="stop-color:#2B2B2C;stop-opacity:9.100000e-02"/>
	<stop  offset="1" style="stop-color:#000000;stop-opacity:0"/>
</linearGradient>
<path id="region-3-3" style="fill:url(#region-3-3_00000118394570803157941000000011798820489381440932_);" d="M306.8,390.1
	c1.2,8.9,4.6,20.5,8.1,27.8c6.7,13.8,19.5,22.8,38,26.6c6.1,1.3,7.3,1.2,9.5-0.1c4.2-2.6,5.7-2.9,11.7-2.9c5.5,0,5.8,0.1,9.1,1.6
	c1.8,0.9,3.4,1.8,3.4,2.1c0,1.1,12.8-1.8,19.5-4.4c8.3-3.3,17-9.6,21.7-15.8c2.1-2.8,5.4-9.3,7-13.6c0.7-1.8,3.1-9.9,3.1-10.3
	c0,0-2,2.3-4.6,5.4c-5.3,6.4-8.3,8.8-17.2,13.7c-6.9,3.8-10.7,5.5-15.5,7c-10.9,3.4-28.2,4.5-39.5,2.5c-6.1-1-14.6-4.4-20.2-8.1
	c-1.5-0.9-3.9-2.4-5.4-3.2c-10.9-5.9-21.4-16.6-27.9-28.5l-1-1.9L306.8,390.1z"/>
<g id="layer-4">
	
		<linearGradient id="region-4-1_00000087383875446171471320000001931263276653353606_" gradientUnits="userSpaceOnUse" x1="-2387.3413" y1="-7.3346" x2="-2386.7324" y2="-7.4157" gradientTransform="matrix(54.2594 0 0 -144.0282 129891.1797 -816.9757)">
		<stop  offset="0" style="stop-color:#4E4F4F;stop-opacity:0.84"/>
		<stop  offset="1" style="stop-color:#818181;stop-opacity:0.765"/>
	</linearGradient>
	<path id="region-4-1" style="fill:url(#region-4-1_00000087383875446171471320000001931263276653353606_);" d="M365.5,211.9
		c-4.6,4.1-7.4,13-8.5,27.9c-0.6,7.7,1.4,21.7,4,28.7c3.3,8.5,8.1,12,12.6,9.3c1.9-1.2,5.5-8.3,6.8-13.8c1.7-7,2.6-17.3,1.9-23.7
		c-1.2-12.3-2.2-16.6-5.3-23c-2.5-5.1-4.4-6.8-7.6-6.8C367.6,210.4,367,210.6,365.5,211.9z"/>
</g>
<g id="layer-5">
	
		<linearGradient id="region-5-1_00000119804472278355524370000006398624598928362652_" gradientUnits="userSpaceOnUse" x1="-2372.8503" y1="-12.3184" x2="-2372.8503" y2="-12.7926" gradientTransform="matrix(41.9242 0 0 -86.9264 99850.2734 -848.0167)">
		<stop  offset="0" style="stop-color:#020101;stop-opacity:0.778"/>
		<stop  offset="1" style="stop-color:#0D0C0C;stop-opacity:0.804"/>
	</linearGradient>
	<path id="region-5-1" style="fill:url(#region-5-1_00000119804472278355524370000006398624598928362652_);" d="M366.7,223.3
		c-1.7,0.7-4.2,3.2-5.3,5.4c-0.9,1.8-1,2.4-0.8,14.5c0.3,13.9,0.6,15.3,3.5,18.1c1.5,1.4,4.8,2.7,6.8,2.7s6.3-2.4,7.8-4.4l1.5-1.8
		l0.1-13.3c0.1-9.7,0-13.8-0.4-15.2c-0.6-1.9-3.9-5.3-5.9-6C372.5,222.6,368.3,222.6,366.7,223.3z"/>
</g>
<g id="layer-6">
	
		<linearGradient id="region-6-1_00000148630751431461486090000003315705528977381776_" gradientUnits="userSpaceOnUse" x1="-2360.9834" y1="-14.1333" x2="-2360.4321" y2="-14.0746" gradientTransform="matrix(35.1222 0 0 -77.6808 83284.5391 -852.3304)">
		<stop  offset="0" style="stop-color:#181817;stop-opacity:0.722"/>
		<stop  offset="1" style="stop-color:#363635;stop-opacity:0.816"/>
	</linearGradient>
	<path id="region-6-1" style="fill:url(#region-6-1_00000148630751431461486090000003315705528977381776_);" d="M367,225.7
		c-1.6,0.9-3.1,2.4-3.9,3.9c-0.6,1.1-0.7,3.5-0.7,13.7c0.1,11.8,0.1,12.4,1.1,14.2c2.7,4.8,8.5,5.8,12.7,2.3
		c2.6-2.2,2.8-3.2,2.8-15.4c0-6.1-0.2-11.9-0.5-12.9c-0.9-4-4-6.4-8-6.4C369.1,225.1,367.5,225.4,367,225.7z"/>
</g>
<g id="layer-7">
	
		<linearGradient id="region-7-1_00000094599279292985883980000017709385668682891418_" gradientUnits="userSpaceOnUse" x1="-2353.4399" y1="-127.0152" x2="-2352.9626" y2="-126.672" gradientTransform="matrix(31.9029 0 0 -9 75443.5391 -908)">
		<stop  offset="0" style="stop-color:#F3F3F3;stop-opacity:0"/>
		<stop  offset="1" style="stop-color:#FFFFFF;stop-opacity:6.700000e-02"/>
	</linearGradient>
	<path id="region-7-1" style="fill:url(#region-7-1_00000094599279292985883980000017709385668682891418_);" d="M363.4,232.2
		c-0.7,1.3-0.6,1.8,0.3,2.6c0.6,0.6,1.9,0.8,6.8,0.8s6.3-0.1,6.8-0.8c0.9-0.9,0.9-1.3,0.3-2.6c-0.5-0.8-1.1-0.9-7.1-0.9
		C364.5,231.3,363.9,231.4,363.4,232.2z"/>
	
		<linearGradient id="region-7-2_00000005246294465796102560000010081730644144336769_" gradientUnits="userSpaceOnUse" x1="-2353.3726" y1="-126.4429" x2="-2352.9055" y2="-125.8192" gradientTransform="matrix(31.9029 0 0 -9 75443.5391 -897)">
		<stop  offset="0" style="stop-color:#F2F2F2;stop-opacity:0"/>
		<stop  offset="1" style="stop-color:#FFFFFF;stop-opacity:6.800000e-02"/>
	</linearGradient>
	<path id="region-7-2" style="fill:url(#region-7-2_00000005246294465796102560000010081730644144336769_);" d="M363.4,237.4
		c-0.7,1.3-0.6,1.8,0.3,2.6c0.6,0.6,1.9,0.8,6.8,0.8s6.3-0.1,6.8-0.8c0.9-0.9,0.9-1.3,0.3-2.6c-0.5-0.8-1.1-0.9-7.1-0.9
		C364.5,236.5,363.9,236.6,363.4,237.4z"/>
	
		<linearGradient id="region-7-3_00000029754192953816634380000002805355812364260758_" gradientUnits="userSpaceOnUse" x1="-2353.439" y1="-125.6729" x2="-2352.9617" y2="-125.3247" gradientTransform="matrix(31.9029 0 0 -9 75443.5391 -885)">
		<stop  offset="0" style="stop-color:#F1F1F1;stop-opacity:0"/>
		<stop  offset="1" style="stop-color:#FFFFFF;stop-opacity:7.200000e-02"/>
	</linearGradient>
	<path id="region-7-3" style="fill:url(#region-7-3_00000029754192953816634380000002805355812364260758_);" d="M363.4,243.1
		c-0.7,1.3-0.6,1.8,0.3,2.6c0.6,0.6,1.9,0.8,6.8,0.8s6.3-0.1,6.8-0.8c0.9-0.9,0.9-1.3,0.3-2.6c-0.5-0.8-1.1-0.9-7.1-0.9
		C364.5,242.2,363.9,242.3,363.4,243.1z"/>
	
		<linearGradient id="region-7-4_00000052812337564366291830000006329667529633824695_" gradientUnits="userSpaceOnUse" x1="-2353.325" y1="-125.1188" x2="-2352.8853" y2="-124.1862" gradientTransform="matrix(31.9029 0 0 -9 75444.5391 -874)">
		<stop  offset="0" style="stop-color:#F3F3F3;stop-opacity:0"/>
		<stop  offset="1" style="stop-color:#FFFFFF;stop-opacity:6.900000e-02"/>
	</linearGradient>
	<path id="region-7-4" style="fill:url(#region-7-4_00000052812337564366291830000006329667529633824695_);" d="M363.9,248.3
		c-0.7,1.3-0.6,1.8,0.3,2.6c0.6,0.6,1.9,0.8,6.8,0.8s6.3-0.1,6.8-0.8c0.9-0.9,0.9-1.3,0.3-2.6c-0.5-0.8-1.1-0.9-7.1-0.9
		S364.4,247.5,363.9,248.3z"/>
	
		<linearGradient id="region-7-5_00000145748093991566559450000003974108293754352575_" gradientUnits="userSpaceOnUse" x1="-2353.395" y1="-124.3938" x2="-2352.9265" y2="-123.8004" gradientTransform="matrix(31.9029 0 0 -9 75444.5391 -862)">
		<stop  offset="0" style="stop-color:#F3F3F3;stop-opacity:0"/>
		<stop  offset="1" style="stop-color:#FFFFFF;stop-opacity:6.800000e-02"/>
	</linearGradient>
	<path id="region-7-5" style="fill:url(#region-7-5_00000145748093991566559450000003974108293754352575_);" d="M363.9,254
		c-0.7,1.3-0.6,1.8,0.3,2.6c0.6,0.6,1.9,0.8,6.8,0.8s6.3-0.1,6.8-0.8c0.9-0.9,0.9-1.3,0.3-2.6c-0.5-0.8-1.1-0.9-7.1-0.9
		S364.4,253.2,363.9,254z"/>
</g>
<linearGradient id="fc7c96f0-b6cc-4d56-aa3d-350486f6a5ae_00000048465744632077171980000017766898111866320575_" gradientUnits="userSpaceOnUse" x1="-2981.9985" y1="250.0458" x2="-2981.9985" y2="250.5159" gradientTransform="matrix(277.05 0 0 121.36 826538.4375 -29950.7285)">
	<stop  offset="0" style="stop-color:#2B2B2B;stop-opacity:9.000000e-02"/>
	<stop  offset="1" style="stop-color:#040000;stop-opacity:0"/>
</linearGradient>
<path id="fc7c96f0-b6cc-4d56-aa3d-350486f6a5ae" style="fill:url(#fc7c96f0-b6cc-4d56-aa3d-350486f6a5ae_00000048465744632077171980000017766898111866320575_);" d="
	M314.4,403.5c6.3,8.9,14.6,16.3,24.2,21.5c1.5,0.8,3.9,2.2,5.4,3.1c6.3,3.8,13.3,6.4,20.5,7.9c11.5,1.9,28.9,0.9,40-2.5
	c4.9-1.5,8.8-3.2,15.8-6.9c9-4.8,12-7.1,17.4-13.4c2.5-3,4.6-5.3,4.6-5.2c0,0.4-2.5,8.3-3.1,10.1c-1.9,4.7-4.2,9.1-7.1,13.3
	c-4.7,6.1-13.5,12.3-21.9,15.5c-6.8,2.6-19.7,5.4-19.7,4.3c0-0.2-1.6-1.1-3.5-2c-3.3-1.5-3.7-1.6-9.2-1.6c-6.1,0-7.6,0.4-11.9,2.9
	c-2.2,1.3-3.5,1.3-9.6,0.1c-18.7-3.8-31.7-12.6-38.5-26.1c-4-8.6-6.8-17.8-8.2-27.2l-0.3-2.1l1,1.9
	C310.8,398.1,312.7,401.1,314.4,403.5"/>
<linearGradient id="b842a16c-9eaa-41ec-9b6b-d1ec208a339c_00000181056812208459188700000006787221313859671219_" gradientUnits="userSpaceOnUse" x1="-2932.0681" y1="353.5884" x2="-2932.3381" y2="353.1185" gradientTransform="matrix(53.5 0 0 10.2 157345.5 -3161.6799)">
	<stop  offset="0" style="stop-color:#415988;stop-opacity:0.79"/>
	<stop  offset="1" style="stop-color:#33568D;stop-opacity:0.8"/>
</linearGradient>
<path id="b842a16c-9eaa-41ec-9b6b-d1ec208a339c" style="fill:url(#b842a16c-9eaa-41ec-9b6b-d1ec208a339c_00000181056812208459188700000006787221313859671219_);" d="
	M488.6,443.1c1.2,0.5,2.4,1.1,3.5,1.9c0,0.8-13.8,1.4-20.9,1c-2.6-0.2-4.8-0.5-4.8-0.7c0-0.5,5.1-3.1,7.2-3.6
	c2.2-0.3,4.3-0.3,6.5-0.2C484.6,441.6,485.5,441.7,488.6,443.1"/>
<linearGradient id="f6e1cd75-a570-440d-add5-80b5a706e40b_00000179614529913691184740000011456307325657477516_" gradientUnits="userSpaceOnUse" x1="-2946.2048" y1="246.7851" x2="-2945.7246" y2="246.7151" gradientTransform="matrix(69.21 0 0 190.2 204364.5156 -46868.668)">
	<stop  offset="0" style="stop-color:#A9A8A8;stop-opacity:0.84"/>
	<stop  offset="1" style="stop-color:#777778;stop-opacity:0.75"/>
</linearGradient>
<path id="f6e1cd75-a570-440d-add5-80b5a706e40b" style="fill:url(#f6e1cd75-a570-440d-add5-80b5a706e40b_00000179614529913691184740000011456307325657477516_);" d="
	M479.5,22.2c5.5,5.7,9.4,16.4,10.8,29.5c0.6,6.2,0.3,26.7-0.5,29.8c-0.3,1.2-0.9,3.6-1.3,5.5c-2.7,12-7.9,20-12.9,20
	c-0.7,0-1.2,0.2-1.2,0.4s-0.7,0.2-1.6-0.1c-2.9-1-6.8-5.4-10.3-11.6c-0.9-1.6-3.5-11.8-4-15.9c-2.2-17.7-1-36.7,3-47.2
	c3.7-9.4,7.5-13.4,12.9-13.4C476.6,19.3,476.8,19.4,479.5,22.2"/>
<linearGradient id="f9cf8be1-d119-4737-831e-f692272d210e_00000036939866593481836040000011700606221123231150_" gradientUnits="userSpaceOnUse" x1="-2486.6584" y1="272.605" x2="-2486.6584" y2="272.145" gradientTransform="matrix(6 0 0 40 15149 -10633)">
	<stop  offset="0" style="stop-color:#585A5A;stop-opacity:0.78"/>
	<stop  offset="1" style="stop-color:#484949;stop-opacity:0.81"/>
</linearGradient>
<path id="f9cf8be1-d119-4737-831e-f692272d210e" style="fill:url(#f9cf8be1-d119-4737-831e-f692272d210e_00000036939866593481836040000011700606221123231150_);" d="
	M230.5,261.9v9.3h-2.9v-18.6h2.9V261.9"/>
<g id="e82ff96f-fe41-410d-8824-07b88b1dec90">
	
		<linearGradient id="SVGID_00000142898383787921937540000012499039530995024304_" gradientUnits="userSpaceOnUse" x1="-2981.1863" y1="250.1171" x2="-2981.1863" y2="250.577" gradientTransform="matrix(277.05 0 0 121.36 826538.4375 -29950.7285)">
		<stop  offset="0" style="stop-color:#2B2B2B;stop-opacity:9.000000e-02"/>
		<stop  offset="1" style="stop-color:#040000;stop-opacity:0"/>
	</linearGradient>
	<path style="fill:url(#SVGID_00000142898383787921937540000012499039530995024304_);" d="M539.5,411.2c6.3,8.9,14.6,16.3,24.1,21.5
		c1.5,0.8,3.9,2.2,5.5,3.1c6.3,3.8,13.3,6.4,20.5,7.9c11.5,1.9,28.9,0.9,39.9-2.5c4.9-1.5,8.8-3.2,15.8-6.9c9-4.8,12-7.1,17.4-13.4
		c2.5-3,4.6-5.3,4.6-5.2c0,0.4-2.4,8.3-3.1,10.1c-1.8,4.7-4.2,9.1-7.1,13.3c-4.7,6.1-13.5,12.3-21.9,15.5
		c-6.8,2.6-19.7,5.4-19.7,4.3c0-0.2-1.6-1.2-3.5-2c-3.4-1.5-3.7-1.6-9.3-1.6c-6.1,0-7.6,0.4-11.9,2.9c-2.2,1.3-3.5,1.3-9.6,0.1
		c-18.7-3.7-31.7-12.6-38.5-26.1c-4-8.6-6.8-17.8-8.2-27.2l-0.2-2.1l1,1.9C536,405.8,537.8,408.7,539.5,411.2"/>
	<path class="st23" d="M587.5,459.8c-1.4,0-3.3-0.3-6.4-0.9c-18.9-3.8-32-12.7-38.8-26.4c-4-8.7-6.8-17.9-8.2-27.4l-0.5-4.7l2.2,4.2
		c0.5,0.9,2.3,3.8,4.1,6.4c6.2,8.8,14.5,16.2,24,21.4c1.4,0.8,3.9,2.2,5.5,3.1c6.3,3.8,13.1,6.4,20.3,7.8
		c11.3,1.9,28.8,0.8,39.7-2.4c4.9-1.5,8.7-3.1,15.7-6.9c8.9-4.8,11.8-7,17.3-13.3c4.7-5.6,4.8-5.5,5.2-5.4l0.3,0.1v0.4
		c0,0.5-2.6,8.8-3.2,10.3c-1.8,4.7-4.2,9.2-7.1,13.4c-4.7,6.2-13.6,12.5-22.1,15.7c-5.8,2.2-18.7,5.3-20.1,4.4
		c-0.1-0.1-0.2-0.2-0.3-0.4c-0.3-0.3-1.5-1-3.2-1.7c-3.3-1.5-3.5-1.5-9.1-1.5c-6,0-7.4,0.3-11.6,2.8
		C590,459.4,589,459.8,587.5,459.8z M615.1,459.2L615.1,459.2L615.1,459.2z M615,459L615,459L615,459z M535.2,405.4
		c1.4,9.2,4.1,18.2,8,26.6c6.7,13.4,19.5,22.1,38.1,25.8c6.1,1.2,7.2,1.2,9.3,0c4.3-2.6,5.9-3,12.1-3c5.6,0,6.1,0.1,9.5,1.6
		c2.7,1.2,3.5,1.8,3.7,2.2c1.5,0.4,12.5-2,19.1-4.5c8.4-3.2,17.1-9.4,21.7-15.4c2.8-4.1,5.2-8.5,7-13.1c0.5-1.3,1.8-5.6,2.6-8.1
		c-0.8,0.9-2,2.2-3.2,3.7c-5.5,6.3-8.6,8.7-17.5,13.5c-7,3.8-10.9,5.4-15.9,6.9c-11,3.3-28.7,4.4-40.2,2.5c-7.3-1.5-14.3-4.1-20.7-8
		c-1.6-1-4-2.3-5.4-3.1c-9.6-5.3-18-12.8-24.3-21.7l0,0C537.5,409.2,535.9,406.6,535.2,405.4z"/>
</g>
<linearGradient id="fc7c96f0-b6cc-4d56-aa3d-350486f6a5ae_00000088848002055166204130000007743795345280029861_" gradientUnits="userSpaceOnUse" x1="-2375.2056" y1="553.3079" x2="-2375.2056" y2="552.8377" gradientTransform="matrix(277.05 0 0 -121.36 658424 67537.6328)">
	<stop  offset="0" style="stop-color:#2B2B2B;stop-opacity:9.000000e-02"/>
	<stop  offset="1" style="stop-color:#040000;stop-opacity:0"/>
</linearGradient>
<path id="fc7c96f0-b6cc-4d56-aa3d-350486f6a5ae_00000005254335771676707450000002299102071933526934_" style="fill:url(#fc7c96f0-b6cc-4d56-aa3d-350486f6a5ae_00000088848002055166204130000007743795345280029861_);stroke:#000000;stroke-width:0.1;stroke-miterlimit:10;" d="
	M311.9,396.9c6.3,8.9,14.6,16.3,24.2,21.5c1.5,0.8,3.9,2.2,5.4,3.1c6.3,3.8,13.3,6.4,20.5,7.9c11.5,1.9,28.9,0.9,40-2.5
	c4.9-1.5,8.8-3.2,15.8-6.9c9-4.8,12-7.1,17.4-13.4c2.5-3,4.6-5.3,4.6-5.2c0,0.4-2.5,8.3-3.1,10.1c-1.9,4.7-4.2,9.1-7.1,13.3
	c-4.7,6.1-13.5,12.3-21.9,15.5c-6.8,2.6-19.7,5.4-19.7,4.3c0-0.2-1.6-1.1-3.5-2c-3.3-1.5-3.7-1.6-9.2-1.6c-6.1,0-7.6,0.4-11.9,2.9
	c-2.2,1.3-3.5,1.3-9.6,0.1c-18.7-3.8-31.7-12.6-38.5-26.1c-4-8.6-6.8-17.8-8.2-27.2l-0.3-2.1l1,1.9
	C308.3,391.5,310.2,394.5,311.9,396.9"/>
<linearGradient id="f67d6cf3-a3f1-4a02-8e3b-7b7e5a15ec3c_00000094585138966664903500000002354531738676356241_" gradientUnits="userSpaceOnUse" x1="-2933.8057" y1="248.8037" x2="-2934.2856" y2="248.7038" gradientTransform="matrix(54.17 0 0 143.99 159342.2812 -35754.8086)">
	<stop  offset="0" style="stop-color:#7C7C7C;stop-opacity:0.77"/>
	<stop  offset="1" style="stop-color:#555555;stop-opacity:0.83"/>
</linearGradient>
<path id="f67d6cf3-a3f1-4a02-8e3b-7b7e5a15ec3c" style="fill:url(#f67d6cf3-a3f1-4a02-8e3b-7b7e5a15ec3c_00000094585138966664903500000002354531738676356241_);" d="
	M409,31.5c3.1,2.7,6.8,11.5,7.9,19c1.4,10.1,1.6,14,0.8,21.1c-1,8.9-2.2,13.8-4.9,19.2c-2.4,4.8-3.9,6.1-6.9,6.1
	c-6.6,0-11.7-10.8-13.5-28.6c-1.1-11.6,1.4-27.2,5.6-33.7c0.8-1.2,1.7-2.2,2.8-3.1C403.2,29.6,406.6,29.6,409,31.5"/>
<linearGradient id="e48a4b58-f6c5-40ea-92ba-3148515b4a8b_00000047768002603304109380000013319527068284392354_" gradientUnits="userSpaceOnUse" x1="-2918.2576" y1="254.4603" x2="-2918.2576" y2="253.9904" gradientTransform="matrix(41.92 0 0 86.91 122673.2656 -22033.8809)">
	<stop  offset="0" style="stop-color:#0C0B0A;stop-opacity:0.8"/>
	<stop  offset="1" style="stop-color:#060202;stop-opacity:0.79"/>
</linearGradient>
<path id="e48a4b58-f6c5-40ea-92ba-3148515b4a8b" style="fill:url(#e48a4b58-f6c5-40ea-92ba-3148515b4a8b_00000047768002603304109380000013319527068284392354_);" d="
	M343.5,43.7c2,0.7,5.4,4,6,5.9c0.4,1.3,0.5,5.3,0.4,14.8l-0.1,13.1l-1.5,1.8c-1.6,2-5.9,4.3-7.9,4.3c-2.5-0.2-4.9-1.1-6.9-2.7
	c-3-2.7-3.3-4.1-3.5-17.7c-0.2-11.8-0.2-12.4,0.7-14.2c1.1-2.2,3.7-4.6,5.4-5.3C338.6,43.1,341.1,43.1,343.5,43.7"/>
<linearGradient id="bdaa4870-1cc4-44aa-a54c-691d09e891e3_00000000197238866205332600000007920791668057426568_" gradientUnits="userSpaceOnUse" x1="-2905.2881" y1="255.8279" x2="-2905.7681" y2="255.8879" gradientTransform="matrix(35.08 0 0 77.67 102198.4375 -19809.0391)">
	<stop  offset="0" style="stop-color:#333233;stop-opacity:0.81"/>
	<stop  offset="1" style="stop-color:#1A1A1A;stop-opacity:0.74"/>
</linearGradient>
<path id="bdaa4870-1cc4-44aa-a54c-691d09e891e3" style="fill:url(#bdaa4870-1cc4-44aa-a54c-691d09e891e3_00000000197238866205332600000007920791668057426568_);" d="
	M276.7,46.5c1.9,1.2,3.3,3.1,3.9,5.3c0.4,4.2,0.5,8.4,0.4,12.6c0,11.9-0.2,12.9-2.8,15.1c-3.5,3-8.8,2.7-11.9-0.8
	c-0.4-0.4-0.7-0.9-1-1.4c-1-1.8-1.1-2.4-1.1-14c-0.1-13,0-13.6,2.5-15.8c1.9-1.6,2.9-2,5.7-2C273.9,45.2,275.4,45.6,276.7,46.5"/>
<g id="b10f45b6-a1d8-41f1-9968-fdf4bfd3a68e">
	
		<linearGradient id="SVGID_00000108992620927172079120000012790021091649868434_" gradientUnits="userSpaceOnUse" x1="-2897.6824" y1="384.3798" x2="-2898.1624" y2="384.4398" gradientTransform="matrix(31.85 0 0 9.16 92528.7969 -3356.0999)">
		<stop  offset="0" style="stop-color:#FFFFFF;stop-opacity:6.000000e-02"/>
		<stop  offset="1" style="stop-color:#F2F3F3;stop-opacity:0"/>
	</linearGradient>
	<path style="fill:url(#SVGID_00000108992620927172079120000012790021091649868434_);" d="M236.3,163.9c0.7,1.2,0.6,1.7-0.3,2.6
		c-1.1,1.1-12.7,1.1-13.9,0c-0.9-0.9-0.9-1.3-0.3-2.6c0.5-0.8,1.1-0.9,7.2-0.9S235.8,163.1,236.3,163.9"/>
	<path class="st23" d="M229.1,167.8c-3.3,0-6.6-0.3-7.3-0.9c-1-1-1.1-1.7-0.4-3.2c0.6-1.1,1.4-1.2,7.6-1.2c6.2,0,7,0,7.6,1.2l0,0
		c0.8,1.4,0.7,2.2-0.4,3.2C235.7,167.5,232.4,167.8,229.1,167.8z M229.1,163.5c-5.9,0-6.4,0.1-6.8,0.6c-0.6,1.1-0.5,1.3,0.2,1.9
		c1,0.9,12.2,0.9,13.2,0c0.7-0.6,0.8-0.9,0.2-1.9C235.5,163.6,235,163.5,229.1,163.5z"/>
</g>
<g id="fae66e95-65e7-43cd-944c-1d32f02a02d2">
	
		<linearGradient id="SVGID_00000183967597616831127250000001475654683044653245_" gradientUnits="userSpaceOnUse" x1="-2897.6484" y1="385.1306" x2="-2898.1284" y2="385.2506" gradientTransform="matrix(31.85 0 0 9.16 92528.7969 -3345.0999)">
		<stop  offset="0" style="stop-color:#FFFFFF;stop-opacity:7.000000e-02"/>
		<stop  offset="1" style="stop-color:#F2F2F2;stop-opacity:0"/>
	</linearGradient>
	<path style="fill:url(#SVGID_00000183967597616831127250000001475654683044653245_);" d="M236.3,182.2c0.7,1.2,0.6,1.7-0.3,2.6
		c-1.1,1.1-12.7,1.1-13.9,0c-0.9-0.9-0.9-1.3-0.3-2.6c0.5-0.8,1.1-0.9,7.2-0.9S235.8,181.4,236.3,182.2"/>
	<path class="st23" d="M229.1,186.1c-3.3,0-6.6-0.3-7.3-0.9c-1-1-1.1-1.7-0.4-3.2c0.6-1.1,1.4-1.2,7.6-1.2c6.2,0,7,0,7.6,1.2l0,0
		c0.8,1.4,0.7,2.2-0.4,3.2C235.7,185.8,232.4,186.1,229.1,186.1z M229.1,181.8c-5.9,0-6.4,0.1-6.8,0.6c-0.6,1.1-0.5,1.3,0.2,1.9
		c1,0.9,12.2,0.9,13.2,0c0.7-0.6,0.8-0.9,0.2-1.9C235.5,181.9,235,181.8,229.1,181.8z"/>
</g>
<g id="e0cfb5a7-7cc5-4632-b2b8-ee7fd56c0e63">
	
		<linearGradient id="SVGID_00000165916439448295484930000009133711946407250305_" gradientUnits="userSpaceOnUse" x1="-2897.675" y1="385.868" x2="-2898.1555" y2="385.938" gradientTransform="matrix(31.85 0 0 9.16 92528.7969 -3333.0999)">
		<stop  offset="0" style="stop-color:#FFFFFF;stop-opacity:7.000000e-02"/>
		<stop  offset="1" style="stop-color:#F0F0F0;stop-opacity:0"/>
	</linearGradient>
	<path style="fill:url(#SVGID_00000165916439448295484930000009133711946407250305_);" d="M236.3,200.6c0.7,1.2,0.6,1.7-0.3,2.6
		c-1.1,1.1-12.7,1.1-13.9,0c-0.9-0.9-0.9-1.3-0.3-2.6c0.5-0.8,1.1-0.9,7.2-0.9S235.8,199.7,236.3,200.6"/>
	<path class="st23" d="M229.1,204.4c-3.3,0-6.6-0.3-7.3-0.9c-1-1-1.1-1.7-0.4-3.2c0.6-1.1,1.4-1.2,7.6-1.2c6.2,0,7,0,7.6,1.2l0,0
		c0.8,1.4,0.7,2.2-0.4,3.2C235.7,204.1,232.4,204.4,229.1,204.4z M229.1,200.2c-5.9,0-6.4,0.1-6.8,0.6c-0.6,1.1-0.5,1.3,0.2,1.9
		c1,0.9,12.2,0.9,13.2,0c0.7-0.6,0.8-0.9,0.2-1.9C235.5,200.3,235,200.2,229.1,200.2z"/>
</g>
<g id="b7567299-4e43-44e0-8541-1f67f7a1a830">
	
		<linearGradient id="SVGID_00000012454400500267256400000012691106602748121486_" gradientUnits="userSpaceOnUse" x1="-2897.3025" y1="386.4196" x2="-2898.4727" y2="386.8997" gradientTransform="matrix(31.85 0 0 9.16 92529.7969 -3322.0999)">
		<stop  offset="0" style="stop-color:#FFFFFF;stop-opacity:0.13"/>
		<stop  offset="1" style="stop-color:#EAEBEA;stop-opacity:0"/>
	</linearGradient>
	<path style="fill:url(#SVGID_00000012454400500267256400000012691106602748121486_);" d="M236.3,218.9c0.7,1.2,0.6,1.7-0.3,2.6
		c-1.1,1.1-12.7,1.1-13.9,0c-0.9-0.9-0.9-1.3-0.3-2.6c0.5-0.8,1.1-0.9,7.2-0.9S235.8,218.1,236.3,218.9"/>
	<path class="st23" d="M229.1,222.7c-3.3,0-6.6-0.3-7.3-0.9c-1-1-1.1-1.7-0.4-3.2c0.6-1.1,1.4-1.2,7.6-1.2c6.2,0,7,0,7.6,1.2l0,0
		c0.8,1.4,0.7,2.2-0.4,3.2C235.7,222.4,232.4,222.7,229.1,222.7z M229.1,218.5c-5.9,0-6.4,0.1-6.8,0.6c-0.6,1.1-0.5,1.3,0.2,1.9
		c1,0.9,12.2,0.9,13.2,0c0.7-0.6,0.8-0.9,0.2-1.9C235.5,218.6,235,218.5,229.1,218.5z"/>
</g>
<g id="a1eba78c-0ad8-432c-a0c5-69b12a9fc44f">
	
		<linearGradient id="SVGID_00000055695305688967081200000000496840071047914681_" gradientUnits="userSpaceOnUse" x1="-2897.6841" y1="387.3217" x2="-2898.1641" y2="387.432" gradientTransform="matrix(31.85 0 0 9.16 92529.7969 -3310.0999)">
		<stop  offset="0" style="stop-color:#FFFFFF;stop-opacity:6.000000e-02"/>
		<stop  offset="1" style="stop-color:#F2F2F2;stop-opacity:0"/>
	</linearGradient>
	<path style="fill:url(#SVGID_00000055695305688967081200000000496840071047914681_);" d="M236.3,237.2c0.7,1.2,0.6,1.7-0.3,2.6
		c-1.1,1.1-12.7,1.1-13.9,0c-0.9-0.9-0.9-1.3-0.3-2.6c0.5-0.8,1.1-0.9,7.2-0.9S235.8,236.4,236.3,237.2"/>
	<path class="st23" d="M229.1,241c-3.3,0-6.6-0.3-7.3-0.9c-1-1-1.1-1.7-0.4-3.2c0.6-1.1,1.4-1.2,7.6-1.2c6.2,0,7,0,7.6,1.2l0,0
		c0.8,1.4,0.7,2.2-0.4,3.2C235.7,240.7,232.4,241,229.1,241z M229.1,236.8c-5.9,0-6.4,0.1-6.8,0.6c-0.6,1.1-0.5,1.3,0.2,1.9
		c1,0.9,12.2,0.9,13.2,0c0.7-0.6,0.8-0.9,0.2-1.9C235.5,236.9,235,236.8,229.1,236.8z"/>
</g>
<line class="st33" x1="245.7" y1="265.3" x2="373.3" y2="301.6"/>
<line class="st33" x1="252.7" y1="221.4" x2="367.8" y2="251.2"/>
<line class="st33" x1="254.4" y1="199.9" x2="367.5" y2="246.4"/>
<line class="st33" x1="254.4" y1="185.6" x2="368.1" y2="240.5"/>
<line class="st33" x1="254.4" y1="165.1" x2="368.1" y2="235.4"/>
<line class="st33" x1="254.4" y1="240.6" x2="367.9" y2="256.6"/>
<line class="st33" x1="281" y1="83.6" x2="371.9" y2="230.4"/>
<line class="st33" x1="340.8" y1="89" x2="373.7" y2="226.4"/>
<line class="st33" x1="400.1" y1="101" x2="373" y2="214.4"/>
<line class="st33" x1="461.3" y1="105" x2="375.7" y2="207.1"/>
<line class="st33" x1="536.1" y1="164.3" x2="405" y2="227.3"/>
<line class="st33" x1="522.4" y1="430.1" x2="413.3" y2="430.1"/>
<line class="st33" x1="555.1" y1="361" x2="397.5" y2="416.7"/>
<line class="st33" x1="458" y1="447.5" x2="381.3" y2="445.2"/>
<linearGradient id="region-1-1_00000124161984304144052590000012248894208881412540_" gradientUnits="userSpaceOnUse" x1="-2427.5439" y1="-1.1494" x2="-2427.4353" y2="-1.6798" gradientTransform="matrix(294.0503 0 0 -548.702 713905.75 -465.0831)">
	<stop  offset="0" style="stop-color:#747474;stop-opacity:0.993"/>
	<stop  offset="1" style="stop-color:#1A1A19;stop-opacity:0.993"/>
</linearGradient>
<path id="region-1-1_00000168828705210079120740000005622603581152599963_" style="fill:url(#region-1-1_00000124161984304144052590000012248894208881412540_);" d="
	M85.6,186.9c-14,1.7-22.9,4.4-29.7,9c-5.7,3.9-8.4,7.1-11.9,14c-4.8,9.6-7.9,20-9.8,32.4c-2.7,17.8-3.1,33.6-1.7,62.1
	c0.2,4.7,0.4,14,0.4,20.8c0,6.7,0.2,16.4,0.5,21.3c0.2,5,0.7,13.8,0.9,19.7c1.2,24.6,4.2,40,10.2,52.5c6.7,13.8,19.5,22.8,38,26.6
	c6.1,1.3,7.3,1.2,9.5-0.1c4.2-2.6,5.7-2.9,11.7-2.9c5.5,0,5.8,0.1,9.1,1.6c1.8,0.9,3.4,1.8,3.4,2.1c0,1.1,12.8-1.8,19.5-4.4
	c8.3-3.3,17-9.6,21.7-15.8c2.1-2.8,5.4-9.2,7-13.6c1.3-3.6,3.5-12.1,4-15.7c0.2-1.9,0.7-4.6,0.9-6c0.9-5.4,1.4-25.6,1.5-73.3
	c0.1-51.8,0-55.4-2-68.3c-3.1-19.3-6.6-30.9-13.3-43.1c-4.4-8-15.6-14.6-28-16.6c-2.7-0.4-5.8-0.9-7-1.2
	C111.8,186.2,96.3,185.7,85.6,186.9z"/>
<linearGradient id="region-2-2_00000067957434747145901290000014504567258419408048_" gradientUnits="userSpaceOnUse" x1="-2420.7295" y1="-5.0401" x2="-2420.7007" y2="-5.605" gradientTransform="matrix(192.6382 0 0 -154.5021 466921.6562 -464.9774)">
	<stop  offset="0" style="stop-color:#282828;stop-opacity:0.577"/>
	<stop  offset="1" style="stop-color:#777878;stop-opacity:0.888"/>
</linearGradient>
<path id="region-2-2_00000174563899994736160790000002708320843529771696_" style="fill:url(#region-2-2_00000067957434747145901290000014504567258419408048_);" d="
	M573.9,321.4c-0.3,6.1-0.6,9.3-1,10.8c-0.1,0.4-0.3,1.6-0.5,2.6c-0.4,2.7-2.8,11.8-4,15.1c-2.7,7.4-8.2,18.7-12.1,24.4
	c-0.7,0.9-1.2,2.1-1.2,2.5c0,0.7,4.4,3.6,8.8,5.8c5,2.5,17.9,6,22,6c0.8,0,2.2-0.5,3.2-1.1c4.2-2.6,5.7-2.9,11.7-2.9
	c5.5,0,5.8,0.1,9.1,1.6c1.8,0.9,3.4,1.8,3.4,2.1c0,1.1,12.8-1.8,19.5-4.4c4.2-1.7,12.8-6.5,13.5-7.6c0.1-0.3-0.6-1.6-1.6-2.9
	c-7.3-9.7-14.3-24.7-17.4-37.7c-0.7-2.7-1.4-7.7-1.8-11.2c-0.5-5.2-0.8-6.4-1.4-6.4c-0.4,0-2.6,0.4-5,0.8c-5.5,1-20.8,1.4-24.9,0.7
	c-9.1-1.5-11.5-2-14.7-2.9C573.5,314.8,574.2,314.2,573.9,321.4z"/>
<linearGradient id="region-2-1_00000156583575849318357380000004127674509100393641_" gradientUnits="userSpaceOnUse" x1="-2423.6858" y1="-1.5925" x2="-2423.6858" y2="-2.0665" gradientTransform="matrix(241.6391 0 0 -401.925 586258 -610.0848)">
	<stop  offset="0" style="stop-color:#5B5C5C;stop-opacity:0.914"/>
	<stop  offset="1" style="stop-color:#FFFFFF;stop-opacity:0.375"/>
</linearGradient>
<path id="region-2-1_00000035503213927840216950000003385760525581849246_" style="fill:url(#region-2-1_00000156583575849318357380000004127674509100393641_);stroke:#000000;stroke-miterlimit:10;" d="
	M587.7,30.6c-1.6,0.2-5,0.6-7.6,0.9l-4.7,0.6l-3.5,3.4c-6.8,6.5-15.8,18.9-20,27.3c-2.1,4.1-5.1,12.1-6.3,16.4
	c-2.7,9.9-2.9,27.3-0.5,42.4c1,6.6,3.3,16.2,4.4,18.7c0.6,1.1,1,2.3,1,2.5c0,1.1,5.3,14.2,7.8,19.4c1.7,3.4,4,8.5,5.3,11.4
	c2.6,5.9,4.2,9.6,5.5,12.3c0.5,1,0.9,2.2,0.9,2.7s0.2,0.9,0.4,1.2c1.6,1.7,5.4,17.2,5.8,24.1c0.1,1.8,0.2,1.8,2.5,2.5
	c1.3,0.4,3.6,1.1,5.2,1.6c1.6,0.5,4.6,1.1,6.9,1.4c2.2,0.3,4.9,0.8,6,1c2.5,0.5,17.7,0.5,20.3,0c1-0.2,3.9-0.7,6.3-1l4.4-0.6v-4.3
	c0-9.9,1.9-18.4,6.6-30c5-12.3,5.3-13,6.7-16.1c0.7-1.6,2-4.5,2.8-6.4c0.9-1.9,2-4.5,2.5-5.7c2.7-6,7.1-18.7,8.2-23.3
	c1.6-6.8,3-18.3,3.4-28.3c0.8-17.8-3.7-33.9-14-49.3c-3.8-5.7-6-8.4-12.8-15.3c-6.6-6.8-7.3-7.3-10.6-7.9
	c-4.8-0.9-13.4-1.9-16.1-1.9h-2.7v6.6v6.6h-2.6h-2.6v-6.6v-6.6h-2.9C591.9,30.2,589.3,30.4,587.7,30.6z"/>
<line class="st33" x1="178.8" y1="341.2" x2="314.2" y2="341.3"/>
</svg>
