<?xml version="1.0" encoding="utf-8"?>
<!-- Generator: Adobe Illustrator 26.5.0, SVG Export Plug-In . SVG Version: 6.00 Build 0)  -->
<svg version="1.1" id="图层_1" xmlns="http://www.w3.org/2000/svg" xmlns:xlink="http://www.w3.org/1999/xlink" x="0px" y="0px"
	 viewBox="0 0 700 520" style="enable-background:new 0 0 700 520;" xml:space="preserve">
<style type="text/css">
	.st0{fill:none;}
	.st1{fill:#D2D2D2;}
	.st2{fill:url(#SVGID_00000044870706751444797400000006418249586784943799_);}
	.st3{fill:url(#SVGID_00000112613736533671299880000006146270654909628326_);}
	.st4{fill:url(#SVGID_00000179640633760898658410000003807270191147019701_);}
	.st5{fill:url(#SVGID_00000123439879207276208970000012242354350771496104_);}
	.st6{fill:url(#SVGID_00000160189838134068824560000014766083731989747091_);}
	.st7{fill:url(#SVGID_00000019660667043093879570000017611904922222656413_);}
	.st8{fill:url(#SVGID_00000079453905712818510080000016560879424084525959_);}
	.st9{fill:url(#SVGID_00000039109569198359359810000011822569068562315711_);}
	.st10{fill:url(#SVGID_00000154400655599376396030000017248812304781861548_);}
	.st11{fill:url(#SVGID_00000166643955539706714450000003183966890868252073_);}
	.st12{fill:url(#SVGID_00000101801888702390946720000005905628267031377030_);}
	.st13{fill:url(#SVGID_00000061429736643068234180000014085811334730646684_);}
	.st14{fill:url(#SVGID_00000067954115656911472110000010676014517196481446_);}
	.st15{fill:url(#SVGID_00000173839531278630470010000008337275752648030904_);}
	.st16{fill:url(#SVGID_00000097499942444954935080000015488796630412286111_);}
	.st17{fill:url(#SVGID_00000181807755192219427570000003293601778322720170_);}
	.st18{fill:url(#SVGID_00000145057955133481657520000011628472883306007743_);}
	.st19{fill:url(#SVGID_00000039133133673143487140000006055696533385070504_);}
	.st20{fill:url(#SVGID_00000097480512089524279210000014994552270590765984_);}
	.st21{fill:url(#SVGID_00000044869089622716019790000008506116219504987814_);}
	.st22{fill:url(#SVGID_00000052814423931766605960000002795722423176742550_);}
	.st23{fill:url(#SVGID_00000151541209126257135790000006038321883000394654_);}
	.st24{fill:url(#SVGID_00000055666829612420794510000005279388725330970540_);}
	.st25{fill:url(#SVGID_00000110430458192276559790000005765344910937682566_);}
	.st26{fill:url(#SVGID_00000026133033184724605910000004283371591868334000_);}
	.st27{fill:url(#SVGID_00000066480201997211462080000015731663092307433867_);}
	.st28{fill:url(#SVGID_00000042720231127951068460000016007826984557035917_);stroke:#000000;stroke-miterlimit:10;}
	.st29{fill:url(#SVGID_00000122722946768282591400000003019991272602476184_);}
	.st30{fill:url(#SVGID_00000180342875839891347340000007648666209647326878_);}
	.st31{fill:url(#SVGID_00000044898286718785316430000015319621849326403503_);}
	.st32{fill:url(#SVGID_00000031176585657018623490000015137596286125447828_);}
	.st33{fill:url(#SVGID_00000109006675534590024730000005164436374857524901_);}
	.st34{fill:url(#SVGID_00000178177424630791583200000007743437113571735436_);}
	.st35{fill:url(#SVGID_00000078030687175585200010000012233207330399575943_);}
	.st36{fill:url(#SVGID_00000051342037518490937960000003837888231101310399_);}
	.st37{fill:none;stroke:#000000;stroke-miterlimit:10;}
</style>
<pattern  y="600.2" width="40" height="40" patternUnits="userSpaceOnUse" id="SVGID_1_" viewBox="0 -40 40 40" style="overflow:visible;">
	<g>
		<rect y="-40" class="st0" width="40" height="40"/>
		<g>
			<rect y="-40" class="st0" width="40" height="40"/>
			<rect y="-40" class="st0" width="40" height="40"/>
			<rect y="-20" class="st1" width="20" height="20"/>
			<rect x="20" y="-40" class="st1" width="20" height="20"/>
		</g>
	</g>
</pattern>
<pattern  id="SVGID_00000011742619955730963230000010022422519572759189_" xlink:href="#SVGID_1_" patternTransform="matrix(1 0 0 -1 95 -17263.5)">
</pattern>
<rect x="-1.9" y="4.8" style="fill:url(#SVGID_00000011742619955730963230000010022422519572759189_);" width="700" height="515.2"/>
<linearGradient id="SVGID_00000178169247743981853710000016026604764840078236_" gradientUnits="userSpaceOnUse" x1="-1688.2179" y1="601.7128" x2="-1687.7377" y2="601.7128" gradientTransform="matrix(294.05 0 0 517.46 496755.0938 -311057.7188)">
	<stop  offset="0" style="stop-color:#000000"/>
	<stop  offset="1" style="stop-color:#000000"/>
</linearGradient>
<path style="fill:url(#SVGID_00000178169247743981853710000016026604764840078236_);" d="M390.1,185.1c-14.2,1.6-23.2,4.3-30.1,8.8
	c-5.8,3.8-8.5,6.9-12,13.7c-4.9,9.4-8,19.6-9.9,31.8c-2.7,17.4-3.2,32.9-1.7,60.8c0.2,4.6,0.4,13.8,0.4,20.4s0.2,16,0.5,20.9
	s0.7,13.6,1,19.3c0.7,14,1.6,21.3,2.9,23.8c5.8,11,17.2,22.3,28.3,28.1c1.4,0.8,3.9,2.2,5.4,3.1c6.3,3.8,13.3,6.5,20.5,7.9
	c14.2,2.4,33.5,0.5,46.1-4.6c6.7-3,13.1-6.5,19.2-10.5c3.3-2.4,11.6-11.5,12.4-13.6c0.5-1.5,0.8-3,1-4.6c0.2-1.9,0.7-4.5,1-5.9
	c1-5.3,1.4-25.1,1.5-71.8c0.1-50.7,0-54.3-2-66.9c-3.1-18.9-6.7-30.2-13.5-42.2c-4.4-7.8-15.8-14.4-28.4-16.3
	c-2.7-0.4-5.9-0.9-7.1-1.2C416.6,184.4,401,183.9,390.1,185.1z"/>
<linearGradient id="SVGID_00000124843920248611932880000007387657290625637793_" gradientUnits="userSpaceOnUse" x1="-1686.5797" y1="601.8293" x2="-1686.5197" y2="602.2993" gradientTransform="matrix(241.64 0 0 401.93 407945.5312 -241708.2344)">
	<stop  offset="0" style="stop-color:#080808"/>
	<stop  offset="1" style="stop-color:#FFFFFF"/>
</linearGradient>
<path style="fill:url(#SVGID_00000124843920248611932880000007387657290625637793_);" d="M392.7,185.9c-1.6,0.2-5,0.6-7.7,0.9
	l-4.8,0.6l-3.5,3.3c-6.9,6.4-16,18.5-20.3,26.8c-2.5,5.2-4.7,10.5-6.4,16c-2.7,9.7-2.9,26.8-0.5,41.6c1,6.5,3.4,15.9,4.5,18.3
	c0.4,0.8,0.8,1.6,1,2.4c0,1.1,5.3,13.9,7.9,19c1.7,3.3,4.1,8.3,5.3,11.1c2.6,5.8,4.2,9.4,5.5,12c0.4,0.8,0.8,1.7,0.9,2.6
	c0,0.4,0.2,0.8,0.4,1.2c1.6,1.6,5.4,16.8,5.9,23.6c0.1,1.7,0.2,1.8,2.5,2.5c1.3,0.4,3.7,1.1,5.3,1.5c2.3,0.6,4.6,1.1,7,1.4
	c2.2,0.3,5,0.8,6.1,1c2.5,0.5,18,0.5,20.5,0c1-0.2,3.9-0.6,6.4-1l4.4-0.6v-4.2c0-9.7,1.9-18.1,6.7-29.4c5.1-12.1,5.4-12.8,6.8-15.8
	c0.7-1.5,2-4.4,2.8-6.3s2-4.4,2.5-5.6c3.3-7.4,6-15.1,8.3-22.9c1.6-6.7,3-17.9,3.5-27.8c0.8-17.5-3.8-33.2-14.2-48.3
	c-3.8-5.6-6.1-8.2-13-15c-6.7-6.7-7.4-7.2-10.7-7.7c-5.4-0.9-10.8-1.6-16.3-1.9h-2.8v13.1l2.8,2.9c5.4,5.7,9.3,16.4,10.7,29.4
	c0.7,6.2,0.3,26.7-0.4,29.8c-0.3,1.2-0.9,3.6-1.3,5.5c-1.8,8.1-5,14.8-8.2,17.7c-0.7,0.7-1.6,1.4-2.5,1.8c-0.3,0-0.5,3.4-0.5,9.5
	v9.5h-2.9v-17.7l-2.2-1c-3.1-1.4-6.1-5-9.7-11.2c-0.9-1.6-3.5-11.8-4-15.9c-2.3-17.6-1.1-36.7,3-47.2c2.6-6.7,6.4-12.1,9.1-12.7
	c1.1-0.3,1.1-0.3,1-7l-0.1-6.7h-3C397,185.4,394.3,185.6,392.7,185.9z"/>
<linearGradient id="SVGID_00000126314162662416854330000017329513535549365922_" gradientUnits="userSpaceOnUse" x1="-1666.5165" y1="603.1984" x2="-1666.9966" y2="603.2084" gradientTransform="matrix(69.23 0 0 229 115795.3906 -137882)">
	<stop  offset="0" style="stop-color:#2A2A2A"/>
	<stop  offset="1" style="stop-color:#DBDCDB"/>
</linearGradient>
<path style="fill:url(#SVGID_00000126314162662416854330000017329513535549365922_);" d="M400.6,199.2c-10.2,4.7-15.6,31.4-12,59.8
	c0.5,4,3.1,14.3,4,15.9c3.5,6.3,6.6,9.9,9.7,11.2l2.2,1v17.6h2.9v-9.5c0-6.2,0.2-9.5,0.5-9.5c0.9-0.5,1.8-1.1,2.5-1.8
	c3.3-2.9,6.4-9.7,8.2-17.7c0.4-1.9,1-4.4,1.3-5.5c0.8-3.1,1.1-23.6,0.4-29.8c-1.4-13.2-5.3-23.8-10.8-29.6c-2.7-2.8-2.9-2.9-5-2.9
	C403.2,198.4,401.9,198.6,400.6,199.2z"/>
<linearGradient id="SVGID_00000150792417825838013880000005117278895054853513_" gradientUnits="userSpaceOnUse" x1="-1659.3427" y1="604.7206" x2="-1658.8628" y2="604.7106" gradientTransform="matrix(54.26 0 0 144.03 90426.6875 -86854.6797)">
	<stop  offset="0" style="stop-color:#2E2E2D"/>
	<stop  offset="1" style="stop-color:#CCCDCD"/>
</linearGradient>
<path style="fill:url(#SVGID_00000150792417825838013880000005117278895054853513_);" d="M399.9,210.6c-4.7,4-7.5,12.7-8.6,27.3
	c-0.6,7.6,1.4,21.2,4.1,28.1c3.3,8.3,8.2,11.8,12.8,9.1c2-1.2,5.5-8.1,6.9-13.5c1.8-7.6,2.5-15.4,2-23.2
	c-1.2-12.1-2.2-16.3-5.3-22.6c-2.5-5-4.5-6.7-7.7-6.7C402.5,208.9,401,209.4,399.9,210.6z"/>
<linearGradient id="SVGID_00000149357969603974805310000014742653807366676649_" gradientUnits="userSpaceOnUse" x1="-1658.7823" y1="606.3005" x2="-1658.5323" y2="606.4905" gradientTransform="matrix(51.94 0 0 66.6 86612.3594 -39976.7773)">
	<stop  offset="0" style="stop-color:#070706"/>
	<stop  offset="1" style="stop-color:#2F2F2E"/>
</linearGradient>
<path style="fill:url(#SVGID_00000149357969603974805310000014742653807366676649_);" d="M468.4,401.1c-5,5.9-8.5,8.6-15.7,12.5
	c-4.7,2.4-4.9,2.6-4.4,3.6c1.7,2.9,3.7,5.7,5.8,8.4l1.1,1.3l3-2.6c6.1-5.4,10.5-13,13.8-24.3c0.4-1.3,0.8-2.6,1-4
	C472.9,396,470.9,398.2,468.4,401.1z"/>
<linearGradient id="SVGID_00000158030102850830663550000005090251777321608833_" gradientUnits="userSpaceOnUse" x1="-1686.4506" y1="603.8201" x2="-1686.7405" y2="604.39" gradientTransform="matrix(238.74 0 0 122.84 403013.3438 -73760.9375)">
	<stop  offset="0" style="stop-color:#000000"/>
	<stop  offset="1" style="stop-color:#363736"/>
</linearGradient>
<path style="fill:url(#SVGID_00000158030102850830663550000005090251777321608833_);" d="M340.4,385c0.2,1.2,0.7,4.1,1.2,6.5
	c4.2,19.3,11.1,30.9,22.9,38.2c9.6,6,20.1,9.1,34.5,10c8.4,0.4,16.9,0.2,25.3-0.7c5.7-0.9,11.3-2.4,16.8-4.4
	c4.3-1.6,12.9-6.4,13.6-7.5c0.1-0.3-0.6-1.5-1.6-2.9s-2.6-3.6-3.5-5s-1.7-2.6-1.7-2.7c-1.6,0.5-3.2,1-4.7,1.7
	c-8.6,3.7-16.3,5.4-27.9,6.2c-6.6,0.5-13.3,0.2-19.9-0.8c-7.2-1.4-14.2-4.1-20.5-7.9c-1.5-0.9-4-2.3-5.4-3.1
	c-11-5.8-21.7-16.3-28.3-28l-1.1-1.9L340.4,385z"/>
<linearGradient id="SVGID_00000135686368011301530500000006291862071915016634_" gradientUnits="userSpaceOnUse" x1="-1688.1057" y1="601.5384" x2="-1687.8557" y2="601.9884" gradientTransform="matrix(294.05 0 0 498.18 496755.0938 -299485.5)">
	<stop  offset="0" style="stop-color:#7F7F7F;stop-opacity:0.43"/>
	<stop  offset="1" style="stop-color:#7F7F7F;stop-opacity:0.88"/>
</linearGradient>
<path style="fill:url(#SVGID_00000135686368011301530500000006291862071915016634_);" d="M390.1,185.1c-14.2,1.6-23.2,4.3-30.1,8.8
	c-5.8,3.8-8.5,6.9-12,13.7c-4.9,9.4-8,19.6-9.9,31.8c-2.7,17.4-3.2,32.9-1.7,60.8c0.2,4.6,0.4,13.8,0.4,20.4s0.2,16,0.5,20.9
	s0.7,13.6,1,19.3c0.7,14,1.6,21.3,2.9,23.8c5.6,10.1,13.5,18.7,23.2,25c4.7,3,5.9,3.6,6.3,3.1c0.6-0.6,3.3-6.7,5-11.4
	c1.7-4.9,3-9.9,4.1-15c0.1-0.8,0.3-1.6,0.5-2.4c0.5-0.8,0.9-7.3,0.9-13.4c0-8-1.3-16-3.8-23.7c-0.6-1.8-1.3-3.6-2.2-5.3
	c-0.3-0.3-0.4-0.7-0.4-1.2c-0.2-0.9-0.5-1.8-0.9-2.6c-1.3-2.6-2.9-6.2-5.5-12c-1.2-2.8-3.6-7.9-5.3-11.1c-2.6-5.1-7.9-17.9-7.9-19
	c-0.2-0.8-0.6-1.6-1-2.4c-1.1-2.4-3.4-11.8-4.5-18.3c-2.4-14.8-2.2-31.9,0.5-41.6c1.7-5.5,3.8-10.8,6.4-16
	c4.2-8.3,13.4-20.3,20.3-26.8l3.5-3.3l4.8-0.6l8.3-1c1.9-0.2,4.6-0.4,5.9-0.4h2.4v13h5.3v-13h2.8c5.4,0.3,10.9,0.9,16.2,1.8
	c3.3,0.6,4,1.1,10.7,7.8c6.9,6.8,9.1,9.4,13,15c10.4,15.1,15,30.8,14.2,48.3c-0.4,9.9-1.8,21.1-3.5,27.8c-2.2,7.8-5,15.4-8.3,22.9
	c-0.5,1.2-1.6,3.7-2.5,5.6s-2.1,4.7-2.8,6.3c-1.4,3-1.7,3.7-6.8,15.8c-5,11.9-6.7,19.5-6.7,31.2c-0.1,10.2,1.7,20.4,5.4,30
	c1.7,4.6,7.1,16.2,8.5,18.1c0.4,0.5,1.4,0.1,5.4-2c2.8-1.5,5.5-3.1,8.1-4.9c3.3-2.4,11.6-11.5,12.4-13.6c0.5-1.5,0.8-3,1-4.6
	c0.2-1.9,0.7-4.5,1-5.9c1-5.3,1.4-25.1,1.5-71.8c0.1-50.7,0-54.3-2-66.9c-3.1-18.9-6.7-30.2-13.5-42.2c-4.4-7.8-15.8-14.4-28.4-16.3
	c-2.7-0.4-5.9-0.9-7.1-1.2C416.6,184.4,401,183.9,390.1,185.1z"/>
<linearGradient id="SVGID_00000062896467887153874480000015302255705035673222_" gradientUnits="userSpaceOnUse" x1="-1684.6666" y1="606.9353" x2="-1684.4166" y2="607.3853" gradientTransform="matrix(192.64 0 0 56 324919.9375 -33575.75)">
	<stop  offset="0" style="stop-color:#7F7F7F;stop-opacity:0.43"/>
	<stop  offset="1" style="stop-color:#7F7F7F;stop-opacity:0.88"/>
</linearGradient>
<path style="fill:url(#SVGID_00000062896467887153874480000015302255705035673222_);" d="M368.2,417.5c-1.2,2.3-3.1,5.3-4.1,6.9
	c-0.8,1.1-1.4,2.2-1.8,3.5c0,0.7,4.5,3.6,8.9,5.7c5.1,2.5,18.1,5.9,22.3,5.9c1.2-0.1,2.3-0.5,3.3-1.1c4.2-2.5,5.8-2.9,11.9-2.9
	c5.5,0,5.9,0.1,9.3,1.6c1.9,0.9,3.5,1.8,3.5,2c0,1.1,13-1.7,19.8-4.3c4.3-1.6,12.9-6.4,13.6-7.5c0.1-0.3-0.6-1.5-1.6-2.9
	s-2.6-3.6-3.5-5s-1.7-2.6-1.7-2.7c-1.6,0.5-3.2,1-4.7,1.7c-8.6,3.7-16.3,5.4-27.9,6.2c-6.6,0.5-13.3,0.2-19.9-0.8
	c-7.5-1.5-14.6-4.3-21.1-8.3c-1.2-0.8-2.4-1.5-3.6-2.1C369.8,414.6,368.9,416,368.2,417.5z"/>
<linearGradient id="SVGID_00000020390663276481547820000003238734497346904212_" gradientUnits="userSpaceOnUse" x1="-1686.7994" y1="601.7197" x2="-1686.3196" y2="601.7197" gradientTransform="matrix(241.64 0 0 515.6 407945.5312 -309941.8438)">
	<stop  offset="0" style="stop-color:#FFFEFE;stop-opacity:0.21"/>
	<stop  offset="1" style="stop-color:#FFFEFE;stop-opacity:0.21"/>
</linearGradient>
<path style="fill:url(#SVGID_00000020390663276481547820000003238734497346904212_);" d="M392.7,185.9c-1.6,0.2-5,0.6-7.7,0.9
	l-4.8,0.6l-3.5,3.3c-6.9,6.4-16,18.5-20.3,26.8c-2.5,5.2-4.7,10.5-6.4,16c-2.7,9.7-2.9,26.8-0.5,41.6c1,6.5,3.4,15.9,4.5,18.3
	c0.4,0.8,0.8,1.6,1,2.4c0,1.1,5.3,13.9,7.9,19c1.7,3.3,4.1,8.3,5.3,11.1c2.6,5.8,4.2,9.4,5.5,12c0.4,0.8,0.8,1.7,0.9,2.6
	c0,0.4,0.2,0.8,0.4,1.2c0.8,1.7,1.6,3.5,2.2,5.3c2.5,7.6,3.8,15.6,3.8,23.7c0,6.1-0.4,12.6-0.9,13.4c-0.3,0.8-0.5,1.6-0.5,2.4
	c-1.1,5.1-2.4,10.1-4.1,15c-1.4,3.8-3,7.6-4.9,11.2c-0.5,0.6,5.9,4.5,11.1,6.9c9.3,4.2,20.2,5.9,33.4,5c11.6-0.8,19.3-2.5,27.8-6.1
	l4.4-1.9l-3.4-6.6c-7.5-14.8-10.8-27.6-10.8-42.4c0-11.6,1.6-19.2,6.7-31.2c5.1-12.1,5.4-12.8,6.8-15.8c0.7-1.5,2-4.4,2.8-6.3
	s2-4.4,2.5-5.6c3.3-7.4,6-15.1,8.3-22.9c1.6-6.7,3-17.9,3.5-27.8c0.8-17.5-3.8-33.2-14.2-48.3c-3.8-5.6-6.1-8.2-13-15
	c-6.6-6.7-7.4-7.2-10.6-7.7c-5.4-0.9-10.8-1.6-16.3-1.9h-2.8v13.1l2.8,2.9c5.4,5.7,9.3,16.4,10.7,29.4c0.7,6.2,0.3,26.7-0.4,29.8
	c-0.3,1.2-0.9,3.6-1.3,5.5c-1.8,8.1-5,14.8-8.2,17.7c-0.7,0.7-1.6,1.4-2.5,1.8c-0.3,0-0.5,3.4-0.5,9.5v9.5h-2.9v-17.7l-2.2-1
	c-3.1-1.4-6.1-5-9.7-11.2c-0.9-1.6-3.5-11.8-4-15.9c-2.3-17.6-1.1-36.7,3-47.2c2.6-6.7,6.4-12.1,9.1-12.7c1.1-0.3,1.1-0.3,1-7
	l-0.1-6.7h-3C397,185.4,394.3,185.6,392.7,185.9z"/>
<linearGradient id="SVGID_00000132061753116469608180000018025320270777266355_" gradientUnits="userSpaceOnUse" x1="-1658.9233" y1="634.8185" x2="-1658.443" y2="634.8185" gradientTransform="matrix(53.5 0 0 10.21 89148 -6043.7822)">
	<stop  offset="0" style="stop-color:#9DBDFE;stop-opacity:0.66"/>
	<stop  offset="1" style="stop-color:#9DBDFE;stop-opacity:0.66"/>
</linearGradient>
<path style="fill:url(#SVGID_00000132061753116469608180000018025320270777266355_);" d="M402.8,435.6c-2.1,0.5-7.2,3.1-7.2,3.6
	c0,0.2,2.2,0.5,4.8,0.7c7.1,0.5,20.9-0.2,20.9-1c-1.1-0.8-2.2-1.4-3.5-1.9c-3.2-1.4-4-1.6-8.5-1.7
	C407.1,435.2,405,435.4,402.8,435.6z"/>
<linearGradient id="SVGID_00000109717888204143440830000015851341745066063492_" gradientUnits="userSpaceOnUse" x1="-1374.9199" y1="613.53" x2="-1374.4399" y2="613.53" gradientTransform="matrix(6 0 0 40 8654 -24245.75)">
	<stop  offset="0" style="stop-color:#000000;stop-opacity:0.39"/>
	<stop  offset="1" style="stop-color:#000000;stop-opacity:0.39"/>
</linearGradient>
<path style="fill:url(#SVGID_00000109717888204143440830000015851341745066063492_);" d="M404.5,295.5v9.3h2.9v-18.6h-2.9V295.5z"/>
<linearGradient id="SVGID_00000129906441415405696920000017733902218285192327_" gradientUnits="userSpaceOnUse" x1="-1648.8943" y1="607.1578" x2="-1648.5243" y2="607.5479" gradientTransform="matrix(41.92 0 0 86.93 69520.3359 -52553.2617)">
	<stop  offset="0" style="stop-color:#1F1F1F;stop-opacity:0.98"/>
	<stop  offset="1" style="stop-color:#1F1F1F"/>
</linearGradient>
<path style="fill:url(#SVGID_00000129906441415405696920000017733902218285192327_);" d="M401.1,221.6c-1.7,0.6-4.2,3.2-5.4,5.3
	c-1,1.8-1,2.4-0.8,14.2c0.3,13.6,0.6,15,3.6,17.7c2,1.6,4.4,2.5,6.9,2.7c2,0,6.3-2.4,7.9-4.3l1.5-1.8l0.2-13.1
	c0.1-9.5,0-13.6-0.4-14.9c-0.6-1.9-4-5.2-6-5.9C406.1,220.9,403.6,221.1,401.1,221.6z M412.1,230.4c0.7,1.3,0.6,1.7-0.3,2.6
	c-0.6,0.6-1.9,0.7-6.9,0.7s-6.3-0.1-6.9-0.7c-0.9-0.8-1-1.3-0.3-2.6c0.5-0.8,1.1-0.9,7.2-0.9S411.7,229.6,412.1,230.4L412.1,230.4z
	 M412.1,235.4c0.7,1.3,0.6,1.7-0.3,2.6c-0.6,0.6-1.9,0.7-6.9,0.7s-6.3-0.1-6.9-0.7c-0.9-0.8-1-1.3-0.3-2.6c0.5-0.8,1.1-0.9,7.2-0.9
	S411.7,234.6,412.1,235.4L412.1,235.4z M412.1,241.1c0.7,1.2,0.6,1.7-0.3,2.6c-0.6,0.6-1.9,0.7-6.9,0.7s-6.3-0.1-6.9-0.7
	c-0.9-0.8-1-1.3-0.3-2.6c0.5-0.8,1.1-0.9,7.2-0.9S411.7,240.2,412.1,241.1L412.1,241.1z M412.6,246.1c0.7,1.3,0.6,1.7-0.3,2.6
	c-0.6,0.6-1.9,0.7-6.9,0.7s-6.3-0.1-6.9-0.7c-0.9-0.8-1-1.3-0.3-2.6c0.5-0.8,1.1-0.9,7.2-0.9S412.2,245.4,412.6,246.1L412.6,246.1z
	 M412.6,251.8c0.7,1.2,0.6,1.7-0.3,2.6c-0.6,0.6-1.9,0.7-6.9,0.7s-6.3-0.1-6.9-0.7c-0.9-0.8-1-1.3-0.3-2.6c0.5-0.8,1.1-0.9,7.2-0.9
	S412.2,250.9,412.6,251.8L412.6,251.8z"/>
<linearGradient id="SVGID_00000149346740839716560890000004638546772750485416_" gradientUnits="userSpaceOnUse" x1="-1634.5681" y1="662.9944" x2="-1634.0879" y2="662.9944" gradientTransform="matrix(31.9 0 0 9 52541.9531 -5714)">
	<stop  offset="0" style="stop-color:#000000;stop-opacity:0.67"/>
	<stop  offset="1" style="stop-color:#000000;stop-opacity:0.67"/>
</linearGradient>
<path style="fill:url(#SVGID_00000149346740839716560890000004638546772750485416_);" d="M398.3,251.8c-0.7,1.2-0.6,1.7,0.3,2.6
	c0.6,0.6,1.9,0.7,6.9,0.7s6.3-0.1,6.9-0.7c0.9-0.8,1-1.3,0.3-2.6c-0.5-0.8-1.1-0.9-7.2-0.9S398.7,250.9,398.3,251.8z"/>
<linearGradient id="SVGID_00000173856169612543981050000001968030284011093388_" gradientUnits="userSpaceOnUse" x1="-1634.5681" y1="663.7056" x2="-1634.0879" y2="663.7056" gradientTransform="matrix(31.9 0 0 9 52541.9531 -5726)">
	<stop  offset="0" style="stop-color:#000000;stop-opacity:0.67"/>
	<stop  offset="1" style="stop-color:#000000;stop-opacity:0.67"/>
</linearGradient>
<path style="fill:url(#SVGID_00000173856169612543981050000001968030284011093388_);" d="M398.3,246.1c-0.7,1.3-0.6,1.7,0.3,2.6
	c0.6,0.6,1.9,0.7,6.9,0.7s6.3-0.1,6.9-0.7c0.9-0.8,1-1.3,0.3-2.6c-0.5-0.8-1.1-0.9-7.2-0.9S398.7,245.4,398.3,246.1z"/>
<linearGradient id="SVGID_00000176760111933988621790000008342977990610995587_" gradientUnits="userSpaceOnUse" x1="-1634.5581" y1="665.0722" x2="-1634.0779" y2="665.0722" gradientTransform="matrix(31.9 0 0 9 52540.9531 -5749)">
	<stop  offset="0" style="stop-color:#000000;stop-opacity:0.66"/>
	<stop  offset="1" style="stop-color:#000000;stop-opacity:0.66"/>
</linearGradient>
<path style="fill:url(#SVGID_00000176760111933988621790000008342977990610995587_);" d="M397.8,235.4c-0.7,1.3-0.6,1.7,0.3,2.6
	c0.6,0.6,1.9,0.7,6.9,0.7s6.3-0.1,6.9-0.7c0.9-0.8,1-1.3,0.3-2.6c-0.5-0.8-1.1-0.9-7.2-0.9S398.3,234.6,397.8,235.4z"/>
<linearGradient id="SVGID_00000096754071656631578680000013151329876633104008_" gradientUnits="userSpaceOnUse" x1="-1634.5581" y1="664.3611" x2="-1634.0779" y2="664.3611" gradientTransform="matrix(31.9 0 0 9 52540.9531 -5737)">
	<stop  offset="0" style="stop-color:#000000;stop-opacity:0.66"/>
	<stop  offset="1" style="stop-color:#000000;stop-opacity:0.66"/>
</linearGradient>
<path style="fill:url(#SVGID_00000096754071656631578680000013151329876633104008_);" d="M397.8,241.1c-0.7,1.2-0.6,1.7,0.3,2.6
	c0.6,0.6,1.9,0.7,6.9,0.7s6.3-0.1,6.9-0.7c0.9-0.8,1-1.3,0.3-2.6c-0.5-0.8-1.1-0.9-7.2-0.9S398.3,240.2,397.8,241.1z"/>
<linearGradient id="SVGID_00000106138294002526597580000011934514948415036566_" gradientUnits="userSpaceOnUse" x1="-1634.5581" y1="665.7278" x2="-1634.0779" y2="665.7278" gradientTransform="matrix(31.9 0 0 9 52540.9531 -5760)">
	<stop  offset="0" style="stop-color:#000000;stop-opacity:0.67"/>
	<stop  offset="1" style="stop-color:#000000;stop-opacity:0.67"/>
</linearGradient>
<path style="fill:url(#SVGID_00000106138294002526597580000011934514948415036566_);" d="M397.8,230.4c-0.7,1.3-0.6,1.7,0.3,2.6
	c0.6,0.6,1.9,0.7,6.9,0.7s6.3-0.1,6.9-0.7c0.9-0.8,1-1.3,0.3-2.6c-0.5-0.8-1.1-0.9-7.2-0.9S398.3,229.6,397.8,230.4z"/>
<linearGradient id="SVGID_00000076589900893721843530000015952354356264811937_" gradientUnits="userSpaceOnUse" x1="-1689.1542" y1="601.6771" x2="-1688.674" y2="601.6771" gradientTransform="matrix(294.05 0 0 517.46 496755.0938 -311057.7188)">
	<stop  offset="0" style="stop-color:#000000"/>
	<stop  offset="1" style="stop-color:#000000"/>
</linearGradient>
<path style="fill:url(#SVGID_00000076589900893721843530000015952354356264811937_);" d="M113.3,166.7c-14.2,1.6-23.2,4.3-30.1,8.8
	c-5.8,3.8-8.5,6.9-12,13.7c-4.8,9.4-8,19.5-9.9,31.8c-2.7,17.4-3.2,32.9-1.7,60.8c0.2,4.6,0.4,13.8,0.4,20.4s0.2,16,0.5,20.9
	s0.7,13.6,1,19.3c0.7,14,1.6,21.3,2.9,23.8c5.8,11,17.2,22.3,28.3,28.1c1.4,0.8,3.9,2.2,5.4,3.1c6.3,3.8,13.3,6.5,20.5,7.9
	c14.2,2.4,33.5,0.5,46.1-4.6c6.7-3,13.1-6.5,19.2-10.5c3.3-2.4,11.6-11.5,12.4-13.6c0.5-1.5,0.8-3,1-4.6c0.2-1.9,0.7-4.5,1-5.9
	c1-5.3,1.4-25.1,1.5-71.8c0.1-50.7,0-54.3-2-66.9c-3.1-18.9-6.7-30.2-13.5-42.2c-4.4-7.8-15.8-14.4-28.4-16.3
	c-2.7-0.4-5.9-0.9-7.1-1.2C139.8,165.9,124.2,165.5,113.3,166.7z"/>
<linearGradient id="SVGID_00000076563033203226854530000001186743361380860829_" gradientUnits="userSpaceOnUse" x1="-1687.0787" y1="601.3892" x2="-1687.0188" y2="601.8492" gradientTransform="matrix(241.64 0 0 401.93 407945.5312 -241708.2344)">
	<stop  offset="0" style="stop-color:#080808"/>
	<stop  offset="1" style="stop-color:#FFFFFF"/>
</linearGradient>
<path style="fill:url(#SVGID_00000076563033203226854530000001186743361380860829_);" d="M272,5.9c-1.6,0.2-5,0.6-7.7,0.9l-4.8,0.6
	l-3.5,3.3c-6.9,6.4-16,18.5-20.3,26.8c-2.5,5.2-4.7,10.5-6.4,16c-2.7,9.7-2.9,26.8-0.5,41.6c1.1,6.5,3.4,15.9,4.5,18.3
	c0.4,0.8,0.8,1.6,1,2.4c0,1.1,5.3,13.9,7.9,19c1.7,3.3,4.1,8.3,5.3,11.1c2.6,5.8,4.2,9.4,5.5,12c0.4,0.8,0.8,1.7,0.9,2.6
	c0,0.4,0.2,0.8,0.4,1.2c1.6,1.6,5.4,16.8,5.9,23.6c0.1,1.7,0.2,1.8,2.5,2.5c1.4,0.4,3.7,1.1,5.3,1.5c2.3,0.6,4.6,1.1,7,1.4
	c2.3,0.3,5,0.7,6.1,1c2.5,0.5,18,0.5,20.5,0c1.1-0.2,3.9-0.6,6.4-1l4.4-0.6V186c0-9.7,1.9-18.1,6.7-29.4c5.1-12.1,5.4-12.8,6.8-15.8
	c0.7-1.5,2-4.4,2.8-6.3s2-4.4,2.5-5.6c3.3-7.4,6-15.1,8.3-22.8c1.6-6.7,3-17.9,3.5-27.8c0.8-17.5-3.8-33.2-14.2-48.3
	c-3.8-5.6-6.1-8.2-13-15s-7.4-7.2-10.7-7.8c-5.4-0.9-10.8-1.6-16.3-1.8H286v13.1l2.8,2.9c5.4,5.7,9.3,16.4,10.7,29.4
	c0.7,6.2,0.3,26.7-0.4,29.8c-0.3,1.2-0.9,3.6-1.4,5.5c-1.9,8-5,14.8-8.2,17.7c-0.7,0.7-1.6,1.4-2.5,1.8c-0.3,0-0.5,3.3-0.5,9.5v9.5
	h-2.9V107l-2.2-1c-3.1-1.4-6.1-5-9.7-11.2c-0.9-1.6-3.5-11.8-4-15.9c-2.2-17.7-1-36.7,3-47.2c2.6-6.7,6.4-12.1,9.1-12.7
	c1.1-0.3,1.1-0.3,1-7l-0.1-6.7h-3C276.2,5.6,273.6,5.8,272,5.9z"/>
<linearGradient id="SVGID_00000178886392044171453390000014451520416087956413_" gradientUnits="userSpaceOnUse" x1="-1664.7865" y1="602.4666" x2="-1665.2661" y2="602.4666" gradientTransform="matrix(69.23 0 0 229 115795.3906 -137882)">
	<stop  offset="0" style="stop-color:#2A2A2A"/>
	<stop  offset="1" style="stop-color:#DBDCDB"/>
</linearGradient>
<path style="fill:url(#SVGID_00000178886392044171453390000014451520416087956413_);" d="M520.4,30.5c-10.2,4.7-15.6,31.4-12,59.8
	c0.5,4,3.1,14.2,4,15.9c3.5,6.3,6.6,9.8,9.7,11.2l2.2,1v17.6h2.9v-9.5c0-6.2,0.2-9.5,0.5-9.5c0.9-0.5,1.8-1.1,2.5-1.8
	c3.3-2.9,6.4-9.7,8.2-17.7c0.4-1.9,1-4.4,1.3-5.5c0.8-3.1,1.1-23.6,0.4-29.8c-1.4-13.1-5.3-23.8-10.8-29.5c-2.7-2.8-2.9-2.9-5-2.9
	C523,29.6,521.7,30,520.4,30.5z"/>
<linearGradient id="SVGID_00000168075042232642398140000009429932150919804571_" gradientUnits="userSpaceOnUse" x1="-1658.3827" y1="603.597" x2="-1657.9028" y2="603.587" gradientTransform="matrix(54.26 0 0 144.03 90426.6875 -86854.6797)">
	<stop  offset="0" style="stop-color:#2E2E2D"/>
	<stop  offset="1" style="stop-color:#CCCDCD"/>
</linearGradient>
<path style="fill:url(#SVGID_00000168075042232642398140000009429932150919804571_);" d="M451.6,48.8c-4.7,4-7.5,12.7-8.6,27.3
	c-0.6,7.6,1.4,21.2,4.1,28.1c3.3,8.3,8.2,11.8,12.8,9.1c2-1.2,5.5-8.1,6.9-13.5c1.8-7.6,2.5-15.4,2-23.2
	c-1.2-12.1-2.2-16.2-5.3-22.6c-2.5-5-4.5-6.7-7.7-6.7C454.2,47,452.7,47.7,451.6,48.8z"/>
<linearGradient id="SVGID_00000050653456965648902820000000980082279543886260_" gradientUnits="userSpaceOnUse" x1="-1664.1072" y1="607.0116" x2="-1663.8572" y2="607.2016" gradientTransform="matrix(51.94 0 0 66.6 86612.3594 -39976.7773)">
	<stop  offset="0" style="stop-color:#070706"/>
	<stop  offset="1" style="stop-color:#2F2F2E"/>
</linearGradient>
<path style="fill:url(#SVGID_00000050653456965648902820000000980082279543886260_);" d="M191.8,448.5c-5,5.9-8.5,8.6-15.7,12.5
	c-4.7,2.4-4.9,2.7-4.4,3.6c1.7,2.9,3.7,5.7,5.8,8.4l1.1,1.3l3-2.6c6.1-5.4,10.5-13,13.8-24.3c0.4-1.3,0.8-2.6,1-4
	C196.4,443.3,194.3,445.6,191.8,448.5z"/>
<linearGradient id="SVGID_00000160161298980374023220000008095989283214899885_" gradientUnits="userSpaceOnUse" x1="-1687.6279" y1="604.2218" x2="-1687.9178" y2="604.7919" gradientTransform="matrix(238.74 0 0 122.84 403013.3438 -73760.9375)">
	<stop  offset="0" style="stop-color:#000000"/>
	<stop  offset="1" style="stop-color:#363736"/>
</linearGradient>
<path style="fill:url(#SVGID_00000160161298980374023220000008095989283214899885_);" d="M58.9,434.7c0.2,1.2,0.7,4.1,1.2,6.5
	c4.2,19.3,11.1,30.9,22.8,38.2c9.6,6,20.1,9.1,34.5,10c8.4,0.4,16.9,0.2,25.3-0.7c5.7-0.9,11.3-2.4,16.8-4.4
	c4.3-1.6,12.9-6.4,13.6-7.5c0.1-0.3-0.6-1.5-1.6-2.9s-2.6-3.6-3.5-5s-1.7-2.7-1.7-2.7c-1.6,0.4-3.1,1-4.6,1.7
	c-8.6,3.7-16.3,5.4-27.9,6.2c-6.6,0.5-13.3,0.2-19.9-0.8c-7.2-1.4-14.2-4.1-20.5-7.9c-1.5-0.9-4-2.3-5.4-3.1
	c-11-5.8-21.7-16.3-28.3-28l-1-1.8L58.9,434.7z"/>
<linearGradient id="SVGID_00000030480138067964848040000001295433688421152904_" gradientUnits="userSpaceOnUse" x1="-1687.3997" y1="601.7168" x2="-1687.1396" y2="602.1667" gradientTransform="matrix(294.05 0 0 498.18 496755.0938 -299485.5)">
	<stop  offset="0" style="stop-color:#7F7F7F;stop-opacity:0.43"/>
	<stop  offset="1" style="stop-color:#7F7F7F;stop-opacity:0.88"/>
</linearGradient>
<path style="fill:url(#SVGID_00000030480138067964848040000001295433688421152904_);" d="M600.1,276.6c-14.2,1.6-23.2,4.3-30.1,8.8
	c-5.8,3.8-8.6,6.9-12,13.7c-4.8,9.4-8,19.5-9.9,31.8c-2.7,17.4-3.2,32.9-1.7,60.8c0.2,4.6,0.4,13.7,0.4,20.4s0.2,16,0.5,20.9
	c0.3,4.9,0.7,13.6,1,19.3c0.7,14,1.6,21.3,2.9,23.8c5.6,10.1,13.5,18.7,23.2,25c4.7,3,5.9,3.6,6.3,3.1c0.6-0.7,3.3-6.7,5-11.4
	c1.7-4.9,3-9.9,4.1-15c0.1-0.8,0.3-1.6,0.5-2.4c0.5-0.8,0.9-7.3,0.9-13.4c0-8-1.3-16-3.8-23.7c-0.6-1.8-1.4-3.6-2.2-5.3
	c-0.3-0.3-0.4-0.7-0.4-1.2c-0.2-0.9-0.5-1.8-0.9-2.6c-1.3-2.6-2.9-6.2-5.5-12c-1.2-2.8-3.7-7.9-5.3-11.1c-2.6-5.1-7.9-17.9-7.9-19
	c-0.2-0.8-0.6-1.7-1-2.4c-1.1-2.4-3.4-11.8-4.5-18.3c-2.4-14.8-2.2-31.9,0.5-41.6c1.7-5.5,3.8-10.8,6.4-16
	c4.2-8.3,13.4-20.3,20.3-26.7l3.5-3.3l4.8-0.6l8.3-1c1.9-0.2,4.6-0.4,5.9-0.4h2.3v13h5.3v-13h2.8c5.5,0.3,10.9,0.9,16.3,1.9
	c3.3,0.6,4,1.1,10.7,7.8c6.9,6.8,9.1,9.4,13,15c10.4,15.1,15,30.8,14.2,48.3c-0.4,9.8-1.8,21.1-3.4,27.8c-2.2,7.8-5,15.4-8.3,22.9
	c-0.5,1.2-1.6,3.7-2.5,5.6c-0.9,1.9-2.1,4.7-2.8,6.3c-1.4,3-1.7,3.7-6.8,15.7c-5.1,12-6.7,19.5-6.7,31.2c-0.1,10.2,1.7,20.4,5.4,30
	c1.7,4.7,7.1,16.2,8.4,18.1c0.4,0.5,1.4,0.1,5.4-2c2.7-1.4,6.4-3.7,8.1-4.9c3.3-2.4,11.6-11.5,12.4-13.7c0.5-1.5,0.8-3,1-4.6
	c0.2-1.9,0.7-4.5,1-5.9c1-5.3,1.4-25.1,1.5-71.8c0.1-50.7,0.1-54.3-2-66.9c-3.1-18.9-6.7-30.2-13.5-42.2
	c-4.4-7.8-15.8-14.4-28.4-16.3c-2.7-0.4-5.9-0.9-7.1-1.2C626.6,275.8,611,275.4,600.1,276.6z"/>
<linearGradient id="SVGID_00000001657451366382939330000017996765455538196615_" gradientUnits="userSpaceOnUse" x1="-1684.634" y1="607.9489" x2="-1684.4125" y2="608.3477" gradientTransform="matrix(192.64 0 0 56 324919.9375 -33575.75)">
	<stop  offset="0" style="stop-color:#7F7F7F;stop-opacity:0.43"/>
	<stop  offset="1" style="stop-color:#7F7F7F;stop-opacity:0.88"/>
</linearGradient>
<path style="fill:url(#SVGID_00000001657451366382939330000017996765455538196615_);" d="M372.2,474c-1.2,1.9-3.1,4.5-4.1,5.8
	c-0.8,0.9-1.4,1.9-1.8,3c0,0.6,4.5,3,8.9,4.8c5.1,2.1,18.1,5,22.3,5c1.2-0.1,2.3-0.4,3.3-0.9c4.2-2.1,5.8-2.5,11.9-2.5
	c5.5,0,5.9,0.1,9.3,1.4c1.9,0.8,3.5,1.5,3.5,1.7c0,0.9,13-1.4,19.8-3.6c4.3-1.4,12.9-5.4,13.6-6.4c0.1-0.3-0.6-1.3-1.6-2.5
	s-2.6-3-3.5-4.2s-1.7-2.3-1.7-2.3c-1.6,0.4-3.2,0.8-4.7,1.4c-8.6,3.1-16.3,4.6-27.9,5.2c-6.6,0.4-13.3,0.2-19.9-0.7
	c-7.5-1.3-14.6-3.6-21.1-7c-1.2-0.7-2.4-1.3-3.6-1.8C373.7,471.6,372.9,472.8,372.2,474z"/>
<linearGradient id="SVGID_00000168815250224123606000000002275069621834558600_" gradientUnits="userSpaceOnUse" x1="-1685.9294" y1="601.4052" x2="-1685.4491" y2="601.4052" gradientTransform="matrix(241.64 0 0 515.6 407945.5312 -309941.8438)">
	<stop  offset="0" style="stop-color:#FFFEFE;stop-opacity:0.21"/>
	<stop  offset="1" style="stop-color:#FFFEFE;stop-opacity:0.21"/>
</linearGradient>
<path style="fill:url(#SVGID_00000168815250224123606000000002275069621834558600_);stroke:#000000;stroke-miterlimit:10;" d="
	M603,23.8c-1.6,0.2-5,0.6-7.7,0.9l-4.8,0.5l-3.5,3.3c-6.9,6.4-16.1,18.5-20.3,26.7c-2.5,5.2-4.7,10.5-6.4,16
	c-2.7,9.7-2.9,26.8-0.5,41.6c1.1,6.5,3.4,15.9,4.5,18.3c0.4,0.8,0.8,1.6,1,2.4c0,1.1,5.3,13.9,7.9,19c1.7,3.3,4.1,8.3,5.3,11.1
	c2.6,5.8,4.2,9.4,5.5,12c0.4,0.8,0.8,1.7,0.9,2.6c0,0.4,0.2,0.8,0.4,1.2c0.8,1.7,1.6,3.5,2.2,5.3c2.5,7.6,3.8,15.6,3.8,23.7
	c0,6.1-0.4,12.6-0.9,13.4c-0.3,0.8-0.4,1.6-0.5,2.4c-1.1,5.1-2.4,10.1-4.1,15c-1.4,3.8-3,7.6-4.8,11.2c-0.5,0.6,5.9,4.6,11.1,6.9
	c9.3,4.2,20.3,5.9,33.4,5c11.6-0.8,19.3-2.5,27.8-6.1l4.4-1.9l-3.4-6.6c-7.5-14.8-10.8-27.6-10.8-42.4c0-11.6,1.6-19.2,6.7-31.2
	c5.1-12.1,5.4-12.8,6.8-15.8c0.7-1.5,2-4.4,2.8-6.3s2-4.4,2.5-5.6c3.3-7.4,6-15,8.3-22.8c1.6-6.7,3-17.9,3.5-27.8
	c0.9-17.4-3.8-33.2-14.1-48.2c-3.8-5.6-6.1-8.2-13-15s-7.4-7.2-10.7-7.8c-5.4-0.9-10.8-1.6-16.3-1.9h-2.8v13.1l2.8,3.3
	c5.4,5.7,9.3,16.4,10.7,29.4c0.7,6.2,0.3,26.7-0.4,29.8c-0.3,1.2-0.9,3.6-1.3,5.5c-1.8,8.1-4.9,14.8-8.2,17.7
	c-0.7,0.7-1.6,1.4-2.5,1.8c-0.3,0-0.5,3.3-0.5,9.5v9.5h-2.9v-17.7l-2.2-1c-3.1-1.4-6.1-5-9.7-11.2c-0.9-1.6-3.5-11.8-4-15.9
	c-2.2-17.6-1-36.7,3-47.2c2.6-6.7,6.4-12.1,9.1-12.7c1.1-0.3,1.1-0.3,1-7l-0.2-6.7h-3C607.3,23.4,604.6,23.5,603,23.8z"/>
<linearGradient id="SVGID_00000070089319487914156410000011847178067821841077_" gradientUnits="userSpaceOnUse" x1="-1660.7955" y1="637.344" x2="-1660.3157" y2="637.344" gradientTransform="matrix(53.5 0 0 10.21 89148 -6043.7822)">
	<stop  offset="0" style="stop-color:#9DBDFE;stop-opacity:0.66"/>
	<stop  offset="1" style="stop-color:#9DBDFE;stop-opacity:0.66"/>
</linearGradient>
<path style="fill:url(#SVGID_00000070089319487914156410000011847178067821841077_);" d="M302.8,461.4c-2.1,0.5-7.2,3.1-7.2,3.6
	c0,0.2,2.2,0.6,4.8,0.8c7.1,0.5,20.9-0.2,20.9-1c-1-0.8-2.2-1.4-3.5-1.9c-3.2-1.4-4-1.6-8.5-1.7C307.1,461,305,461.1,302.8,461.4z"
	/>
<linearGradient id="SVGID_00000046324625145588033860000014377655229558996916_" gradientUnits="userSpaceOnUse" x1="-1400.35" y1="613.53" x2="-1399.87" y2="613.53" gradientTransform="matrix(6 0 0 40 8654 -24245.75)">
	<stop  offset="0" style="stop-color:#000000;stop-opacity:0.39"/>
	<stop  offset="1" style="stop-color:#000000;stop-opacity:0.39"/>
</linearGradient>
<path style="fill:url(#SVGID_00000046324625145588033860000014377655229558996916_);" d="M251.9,295.5v9.3h2.9v-18.6h-2.9V295.5z"/>
<linearGradient id="SVGID_00000062874692512454360390000016316609895721910406_" gradientUnits="userSpaceOnUse" x1="-1649.1173" y1="605.291" x2="-1648.7473" y2="605.6709" gradientTransform="matrix(41.92 0 0 86.93 69520.3359 -52553.2617)">
	<stop  offset="0" style="stop-color:#1F1F1F;stop-opacity:0.98"/>
	<stop  offset="1" style="stop-color:#1F1F1F"/>
</linearGradient>
<path style="fill:url(#SVGID_00000062874692512454360390000016316609895721910406_);" d="M391.8,58.8c-1.7,0.7-4.2,3.2-5.4,5.3
	c-1,1.8-1,2.4-0.8,14.2c0.3,13.6,0.6,15,3.5,17.7c2,1.6,4.4,2.5,6.9,2.7c2,0,6.3-2.4,7.9-4.3l1.5-1.8l0.1-13.1
	c0.1-9.5,0-13.6-0.4-14.9c-0.6-1.9-4-5.2-6-5.9C396.8,58.2,394.2,58.2,391.8,58.8z M402.8,67.7c0.7,1.2,0.6,1.7-0.3,2.6
	c-0.6,0.6-1.9,0.8-6.9,0.8s-6.3-0.1-6.9-0.8c-0.9-0.8-1-1.3-0.3-2.6c0.5-0.8,1.1-0.9,7.2-0.9S402.4,66.8,402.8,67.7L402.8,67.7z
	 M402.8,72.8c0.7,1.2,0.6,1.7-0.3,2.6c-0.6,0.6-1.9,0.8-6.9,0.8s-6.3-0.1-6.9-0.8c-0.9-0.8-1-1.3-0.3-2.6c0.5-0.8,1.1-0.9,7.2-0.9
	S402.4,71.9,402.8,72.8L402.8,72.8z M402.8,78.2c0.7,1.2,0.6,1.7-0.3,2.6c-0.6,0.6-1.9,0.7-6.9,0.7s-6.3-0.1-6.9-0.7
	c-0.9-0.8-1-1.3-0.3-2.6c0.5-0.8,1.1-0.9,7.2-0.9S402.4,77.6,402.8,78.2L402.8,78.2z M403.3,83.4c0.7,1.2,0.6,1.7-0.3,2.6
	c-0.6,0.6-1.9,0.8-6.9,0.8s-6.3-0.1-6.9-0.8c-0.9-0.8-1-1.3-0.3-2.6c0.5-0.8,1.1-0.9,7.2-0.9S402.9,82.7,403.3,83.4L403.3,83.4z
	 M403.3,88.9c0.7,1.3,0.6,1.7-0.3,2.6c-0.6,0.6-1.9,0.7-6.9,0.7s-6.3-0.1-6.9-0.7c-0.9-0.8-1-1.3-0.3-2.6c0.5-0.8,1.1-0.9,7.2-0.9
	S402.9,88.2,403.3,88.9L403.3,88.9z"/>
<linearGradient id="SVGID_00000095335465859145760200000006787942464766200456_" gradientUnits="userSpaceOnUse" x1="-1639.3381" y1="665.1166" x2="-1638.8579" y2="665.1166" gradientTransform="matrix(31.9 0 0 9 52541.9531 -5714)">
	<stop  offset="0" style="stop-color:#000000;stop-opacity:0.67"/>
	<stop  offset="1" style="stop-color:#000000;stop-opacity:0.67"/>
</linearGradient>
<path style="fill:url(#SVGID_00000095335465859145760200000006787942464766200456_);" d="M246.2,270.9c-0.7,1.2-0.6,1.7,0.3,2.5
	c0.6,0.6,1.9,0.8,6.9,0.8s6.3-0.1,6.9-0.8c0.9-0.8,1-1.3,0.3-2.5c-0.5-0.8-1.1-0.9-7.2-0.9S246.6,270,246.2,270.9z"/>
<linearGradient id="SVGID_00000093861218145246610880000015505354885696561831_" gradientUnits="userSpaceOnUse" x1="-1639.3381" y1="664.4833" x2="-1638.8579" y2="664.4833" gradientTransform="matrix(31.9 0 0 9 52541.9531 -5726)">
	<stop  offset="0" style="stop-color:#000000;stop-opacity:0.67"/>
	<stop  offset="1" style="stop-color:#000000;stop-opacity:0.67"/>
</linearGradient>
<path style="fill:url(#SVGID_00000093861218145246610880000015505354885696561831_);" d="M246.2,253.1c-0.7,1.2-0.6,1.7,0.3,2.6
	c0.6,0.6,1.9,0.7,6.9,0.7s6.3-0.1,6.9-0.7c0.9-0.8,1-1.3,0.3-2.6c-0.5-0.8-1.1-0.9-7.2-0.9S246.6,252.4,246.2,253.1z"/>
<linearGradient id="SVGID_00000000213202438853469810000015505408514695878038_" gradientUnits="userSpaceOnUse" x1="-1639.3081" y1="663.3389" x2="-1638.8279" y2="663.3389" gradientTransform="matrix(31.9 0 0 9 52540.9531 -5749)">
	<stop  offset="0" style="stop-color:#000000;stop-opacity:0.66"/>
	<stop  offset="1" style="stop-color:#000000;stop-opacity:0.66"/>
</linearGradient>
<path style="fill:url(#SVGID_00000000213202438853469810000015505408514695878038_);" d="M246.2,219.9c-0.7,1.2-0.6,1.7,0.3,2.6
	c0.6,0.6,1.9,0.7,6.9,0.7s6.3-0.1,6.9-0.7c0.9-0.8,1-1.3,0.3-2.6c-0.5-0.8-1.1-0.9-7.2-0.9S246.6,219.1,246.2,219.9z"/>
<linearGradient id="SVGID_00000156584777833853717360000004364186311544945797_" gradientUnits="userSpaceOnUse" x1="-1639.3181" y1="663.8722" x2="-1638.8379" y2="663.8722" gradientTransform="matrix(31.9 0 0 9 52540.9531 -5737)">
	<stop  offset="0" style="stop-color:#000000;stop-opacity:0.66"/>
	<stop  offset="1" style="stop-color:#000000;stop-opacity:0.66"/>
</linearGradient>
<path style="fill:url(#SVGID_00000156584777833853717360000004364186311544945797_);" d="M245.7,236.6c-0.7,1.3-0.6,1.7,0.3,2.6
	c0.6,0.6,1.9,0.7,6.9,0.7s6.3-0.1,6.9-0.7c0.9-0.8,1-1.3,0.3-2.6c-0.5-0.8-1.1-0.9-7.2-0.9S246.2,235.9,245.7,236.6z"/>
<linearGradient id="SVGID_00000098213316869651658290000001565736362585929151_" gradientUnits="userSpaceOnUse" x1="-1639.2982" y1="662.5944" x2="-1638.818" y2="662.5944" gradientTransform="matrix(31.9 0 0 9 52540.9531 -5760)">
	<stop  offset="0" style="stop-color:#000000;stop-opacity:0.67"/>
	<stop  offset="1" style="stop-color:#000000;stop-opacity:0.67"/>
</linearGradient>
<path style="fill:url(#SVGID_00000098213316869651658290000001565736362585929151_);" d="M246.3,202.1c-0.7,1.3-0.6,1.7,0.3,2.6
	c0.6,0.6,1.9,0.7,6.9,0.7s6.3-0.1,6.9-0.7c0.9-0.8,1-1.3,0.3-2.6c-0.5-0.8-1.1-0.9-7.2-0.9S246.8,201.4,246.3,202.1z"/>
<line class="st37" x1="405.5" y1="439.4" x2="328" y2="463.5"/>
<line class="st37" x1="435" y1="427.6" x2="569.9" y2="424.8"/>
<line class="st37" x1="355" y1="407.1" x2="197.3" y2="444.1"/>
<line class="st37" x1="404.5" y1="295.5" x2="261.2" y2="295.5"/>
<line class="st37" x1="405.5" y1="252.9" x2="265.8" y2="270"/>
<line class="st37" x1="405" y1="247.4" x2="266" y2="254.4"/>
<line class="st37" x1="405.5" y1="242.2" x2="265.1" y2="237.9"/>
<line class="st37" x1="405.5" y1="236.6" x2="265.3" y2="221.1"/>
<line class="st37" x1="405.5" y1="231.6" x2="266" y2="204.4"/>
<line class="st37" x1="403.4" y1="223.9" x2="399.8" y2="102.8"/>
<line class="st37" x1="404.5" y1="212.9" x2="448.1" y2="115.8"/>
<line class="st37" x1="410.7" y1="207.6" x2="523.2" y2="130.2"/>
<line class="st37" x1="448.1" y1="237.9" x2="566.6" y2="170.9"/>
<line class="st37" x1="343.1" y1="352.1" x2="184" y2="303.8"/>
<line class="st37" x1="471.3" y1="352.1" x2="542.4" y2="380.1"/>
<line class="st37" x1="377.3" y1="210.6" x2="332.8" y2="135.9"/>
<line class="st37" x1="426.3" y1="432.5" x2="426.3" y2="479.5"/>
</svg>
