<?xml version="1.0" standalone="no"?><!DOCTYPE svg PUBLIC "-//W3C//DTD SVG 20010904//EN" "http://www.w3.org/TR/2001/REC-SVG-20010904/DTD/svg10.dtd"><svg version="1.0" xmlns="http://www.w3.org/2000/svg" width="372pt" height="600pt" viewBox="0 0 372 600" preserveAspectRatio="xMidYMid meet"><defs><linearGradient id="linear-gradient-1-1" x1="0.00%" y1="100.00%" x2="22.91%" y2="-11.89%"><stop offset="0%" style="stop-color:rgb(116,116,116);stop-opacity:0.993" /><stop offset="100%" style="stop-color:rgb(26,26,25);stop-opacity:0.993" /></linearGradient><linearGradient id="linear-gradient-1-2" x1="0.00%" y1="100.00%" x2="25.30%" y2="-275.25%"><stop offset="0%" style="stop-color:rgb(87,118,169);stop-opacity:1.000" /><stop offset="100%" style="stop-color:rgb(108,124,162);stop-opacity:1.000" /></linearGradient><linearGradient id="linear-gradient-2-1" x1="0.00%" y1="100.00%" x2="0.00%" y2="-0.00%"><stop offset="0%" style="stop-color:rgb(91,92,92);stop-opacity:0.914" /><stop offset="100%" style="stop-color:rgb(255,255,255);stop-opacity:0.375" /></linearGradient><linearGradient id="linear-gradient-2-2" x1="0.00%" y1="100.00%" x2="6.05%" y2="-19.19%"><stop offset="0%" style="stop-color:rgb(40,40,40);stop-opacity:0.577" /><stop offset="100%" style="stop-color:rgb(119,120,120);stop-opacity:0.888" /></linearGradient><linearGradient id="linear-gradient-3-1" x1="0.00%" y1="0.00%" x2="124.29%" y2="12.24%"><stop offset="0%" style="stop-color:rgb(175,175,175);stop-opacity:0.855" /><stop offset="100%" style="stop-color:rgb(114,114,114);stop-opacity:0.742" /></linearGradient><linearGradient id="linear-gradient-3-2" x1="0.00%" y1="100.00%" x2="0.00%" y2="-0.00%"><stop offset="0%" style="stop-color:rgb(72,72,72);stop-opacity:0.810" /><stop offset="100%" style="stop-color:rgb(89,90,90);stop-opacity:0.777" /></linearGradient><linearGradient id="linear-gradient-3-3" x1="0.00%" y1="100.00%" x2="0.11%" y2="-1.43%"><stop offset="0%" style="stop-color:rgb(43,43,44);stop-opacity:0.091" /><stop offset="100%" style="stop-color:rgb(0,0,0);stop-opacity:0.000" /></linearGradient><linearGradient id="linear-gradient-4-1" x1="0.00%" y1="100.00%" x2="128.46%" y2="82.89%"><stop offset="0%" style="stop-color:rgb(78,79,79);stop-opacity:0.840" /><stop offset="100%" style="stop-color:rgb(129,129,129);stop-opacity:0.765" /></linearGradient><linearGradient id="linear-gradient-5-1" x1="0.00%" y1="100.00%" x2="0.00%" y2="0.00%"><stop offset="0%" style="stop-color:rgb(2,1,1);stop-opacity:0.778" /><stop offset="100%" style="stop-color:rgb(13,12,12);stop-opacity:0.804" /></linearGradient><linearGradient id="linear-gradient-6-1" x1="0.00%" y1="0.00%" x2="116.33%" y2="12.37%"><stop offset="0%" style="stop-color:rgb(24,24,23);stop-opacity:0.722" /><stop offset="100%" style="stop-color:rgb(54,54,53);stop-opacity:0.816" /></linearGradient><linearGradient id="linear-gradient-7-1" x1="0.00%" y1="0.00%" x2="100.70%" y2="72.41%"><stop offset="0%" style="stop-color:rgb(243,243,243);stop-opacity:0.000" /><stop offset="100%" style="stop-color:rgb(255,255,255);stop-opacity:0.067" /></linearGradient><linearGradient id="linear-gradient-7-2" x1="0.00%" y1="0.00%" x2="98.51%" y2="131.59%"><stop offset="0%" style="stop-color:rgb(242,242,242);stop-opacity:0.000" /><stop offset="100%" style="stop-color:rgb(255,255,255);stop-opacity:0.068" /></linearGradient><linearGradient id="linear-gradient-7-3" x1="0.00%" y1="0.00%" x2="100.68%" y2="73.45%"><stop offset="0%" style="stop-color:rgb(241,241,241);stop-opacity:0.000" /><stop offset="100%" style="stop-color:rgb(255,255,255);stop-opacity:0.072" /></linearGradient><linearGradient id="linear-gradient-7-4" x1="0.00%" y1="0.00%" x2="92.75%" y2="196.77%"><stop offset="0%" style="stop-color:rgb(243,243,243);stop-opacity:0.000" /><stop offset="100%" style="stop-color:rgb(255,255,255);stop-opacity:0.069" /></linearGradient><linearGradient id="linear-gradient-7-5" x1="0.00%" y1="0.00%" x2="98.87%" y2="125.21%"><stop offset="0%" style="stop-color:rgb(243,243,243);stop-opacity:0.000" /><stop offset="100%" style="stop-color:rgb(255,255,255);stop-opacity:0.068" /></linearGradient></defs><g id="layer-1"><path d="M1490 5764 c-295 -35 -483 -92 -627 -190 -121 -82 -178 -149 -251 -295 -101 -202 -167 -421 -207 -684 -57 -375 -66 -708 -35 -1310 5 -99 9 -296 9 -439 1 -142 5 -345 11 -450 5 -105 14 -292 20 -416 25 -520 88 -843 215 -1107 141 -291 412 -481 802 -562 129 -27 155 -26 201 2 88 54 120 62 247 62 115 0 123 -2 193 -34 39 -19 72 -38 72 -44 0 -24 270 37 411 93 176 69 359 203 457 334 44 59 113 194 147 286 28 76 74 255 85 332 5 40 14 97 20 127 20 114 29 540 32 1546 3 1092 1 1169 -42 1440 -65 407 -140 651 -281 909 -92 168 -330 309 -591 351 -57 9 -123 20 -148 25 -188 40 -513 50 -740 24z" fill="url(#linear-gradient-1-1)" id="region-1-1" transform="translate(0.000000,600.000000) scale(0.100000,-0.100000)"/><path d="M1755 371 c-43 -11 -150 -66 -150 -77 0 -5 45 -12 100 -16 148 -10 435 4 435 21 0 4 -33 23 -72 41 -66 30 -84 34 -178 36 -58 2 -119 0 -135 -5z" fill="url(#linear-gradient-1-2)" id="region-1-2" transform="translate(0.000000,600.000000) scale(0.100000,-0.100000)"/></g><g id="layer-2"><path d="M1545 5749 c-33 -4 -105 -13 -160 -20 l-100 -12 -73 -71 c-143 -138 -334 -398 -422 -576 -44 -87 -108 -255 -133 -345 -56 -209 -61 -577 -11 -895 22 -140 70 -342 93 -394 12 -24 21 -48 21 -52 0 -24 111 -300 165 -409 35 -71 85 -179 111 -240 54 -125 88 -202 115 -259 11 -22 19 -47 19 -56 0 -9 4 -20 9 -25 34 -35 113 -362 123 -509 3 -37 5 -39 53 -53 28 -8 77 -23 110 -33 33 -10 98 -23 145 -30 47 -6 104 -16 127 -21 53 -11 374 -11 428 0 22 5 82 14 133 21 l92 13 0 91 c0 209 40 389 139 632 106 260 112 275 142 339 15 33 42 94 59 135 18 41 42 95 52 120 57 127 150 394 172 492 34 144 63 386 72 598 17 376 -79 715 -295 1040 -80 121 -127 177 -270 323 -140 144 -155 155 -223 167 -101 19 -283 40 -340 40 l-58 0 0 -140 0 -140 -55 0 -55 0 0 140 0 140 -62 -1 c-35 -1 -90 -5 -123 -10z" fill="url(#linear-gradient-2-1)" id="region-2-1" transform="translate(0.000000,600.000000) scale(0.100000,-0.100000)"/><path d="M1307 1708 c-6 -128 -12 -196 -22 -228 -3 -8 -7 -33 -11 -55 -9 -57 -60 -249 -84 -318 -56 -157 -174 -395 -255 -515 -14 -20 -25 -44 -25 -52 0 -15 92 -76 185 -123 106 -53 377 -127 465 -127 17 0 47 10 68 23 88 54 120 62 247 62 115 0 123 -2 193 -34 39 -19 72 -38 72 -44 0 -24 270 37 412 93 89 35 269 137 284 161 3 6 -12 33 -33 62 -155 205 -301 521 -367 795 -14 56 -30 163 -37 237 -11 110 -16 135 -29 135 -8 -1 -55 -8 -105 -16 -117 -21 -439 -30 -525 -15 -193 32 -242 42 -310 62 -132 37 -116 50 -123 -103z" fill="url(#linear-gradient-2-2)" id="region-2-2" transform="translate(0.000000,600.000000) scale(0.100000,-0.100000)"/></g><g id="layer-3"><path d="M1709 5462 c-213 -102 -325 -677 -249 -1287 10 -87 64 -307 83 -342 73 -134 154 -228 215 -250 17 -6 32 -7 32 -2 0 5 11 9 25 9 105 0 212 172 269 431 9 41 22 94 28 119 16 67 23 509 9 642 -29 282 -110 512 -225 635 -56 60 -60 63 -105 63 -25 0 -62 -8 -82 -18z" fill="url(#linear-gradient-3-1)" id="region-3-1" transform="translate(0.000000,600.000000) scale(0.100000,-0.100000)"/><path d="M1790 3390 l0 -200 30 0 30 0 0 200 0 200 -30 0 -30 0 0 -200z" fill="url(#linear-gradient-3-2)" id="region-3-2" transform="translate(0.000000,600.000000) scale(0.100000,-0.100000)"/><path d="M455 1460 c25 -187 96 -433 170 -587 141 -291 412 -481 802 -562 129 -27 155 -26 201 2 88 54 120 62 247 62 115 0 123 -2 193 -34 39 -19 72 -38 72 -44 0 -24 270 37 411 93 176 69 359 203 457 334 44 60 114 196 147 286 14 39 65 209 65 218 0 1 -43 -49 -97 -113 -112 -135 -175 -185 -362 -288 -145 -80 -226 -117 -328 -148 -231 -72 -594 -95 -833 -53 -129 22 -307 93 -427 170 -32 20 -83 50 -113 67 -230 124 -452 351 -589 602 l-22 40 6 -45z" fill="url(#linear-gradient-3-3)" id="region-3-3" transform="translate(0.000000,600.000000) scale(0.100000,-0.100000)"/></g><g id="layer-4"><path d="M1694 5218 c-98 -87 -156 -274 -179 -588 -13 -163 29 -457 85 -605 69 -179 171 -254 266 -196 41 25 115 175 144 291 36 147 54 366 41 500 -26 260 -46 350 -111 486 -52 107 -93 144 -160 144 -41 0 -55 -5 -86 -32z" fill="url(#linear-gradient-4-1)" id="region-4-1" transform="translate(0.000000,600.000000) scale(0.100000,-0.100000)"/></g><g id="layer-5"><path d="M1720 4979 c-36 -14 -88 -68 -112 -114 -20 -38 -21 -51 -16 -306 6 -293 12 -323 74 -381 32 -30 102 -58 143 -58 42 0 132 51 165 93 l31 39 3 281 c2 205 0 292 -9 320 -13 40 -83 111 -125 127 -32 13 -121 12 -154 -1z" fill="url(#linear-gradient-5-1)" id="region-5-1" transform="translate(0.000000,600.000000) scale(0.100000,-0.100000)"/></g><g id="layer-6"><path d="M1725 4928 c-33 -18 -66 -51 -82 -82 -13 -24 -15 -74 -14 -290 2 -248 3 -262 24 -300 56 -101 179 -123 268 -49 55 47 59 68 59 325 0 128 -5 251 -10 272 -19 85 -84 136 -169 136 -31 0 -65 -6 -76 -12z" fill="url(#linear-gradient-6-1)" id="region-6-1" transform="translate(0.000000,600.000000) scale(0.100000,-0.100000)"/></g><g id="layer-7"><path d="M1650 4791 c-14 -27 -13 -37 6 -55 12 -13 40 -16 144 -16 104 0 132 3 144 16 19 18 20 28 6 55 -10 17 -23 19 -150 19 -127 0 -140 -2 -150 -19z" fill="url(#linear-gradient-7-1)" id="region-7-1" transform="translate(0.000000,600.000000) scale(0.100000,-0.100000)"/><path d="M1650 4681 c-14 -27 -13 -37 6 -55 12 -13 40 -16 144 -16 104 0 132 3 144 16 19 18 20 28 6 55 -10 17 -23 19 -150 19 -127 0 -140 -2 -150 -19z" fill="url(#linear-gradient-7-2)" id="region-7-2" transform="translate(0.000000,600.000000) scale(0.100000,-0.100000)"/><path d="M1650 4561 c-14 -27 -13 -37 6 -55 12 -13 40 -16 144 -16 104 0 132 3 144 16 19 18 20 28 6 55 -10 17 -23 19 -150 19 -127 0 -140 -2 -150 -19z" fill="url(#linear-gradient-7-3)" id="region-7-3" transform="translate(0.000000,600.000000) scale(0.100000,-0.100000)"/><path d="M1660 4451 c-14 -27 -13 -37 6 -55 12 -13 40 -16 144 -16 104 0 132 3 144 16 19 18 20 28 6 55 -10 17 -23 19 -150 19 -127 0 -140 -2 -150 -19z" fill="url(#linear-gradient-7-4)" id="region-7-4" transform="translate(0.000000,600.000000) scale(0.100000,-0.100000)"/><path d="M1660 4331 c-14 -27 -13 -37 6 -55 12 -13 40 -16 144 -16 104 0 132 3 144 16 19 18 20 28 6 55 -10 17 -23 19 -150 19 -127 0 -140 -2 -150 -19z" fill="url(#linear-gradient-7-5)" id="region-7-5" transform="translate(0.000000,600.000000) scale(0.100000,-0.100000)"/></g></svg>