<?xml version="1.0" standalone="no"?>
<!DOCTYPE svg PUBLIC "-//W3C//DTD SVG 20010904//EN"
 "http://www.w3.org/TR/2001/REC-SVG-20010904/DTD/svg10.dtd">
<svg version="1.0" xmlns="http://www.w3.org/2000/svg"
 width="372.000000pt" height="600.000000pt" viewBox="0 0 372.000000 600.000000"
 preserveAspectRatio="xMidYMid meet">
<defs>
<linearGradient id="grad_0" x1="100%" y1="0%" x2="-11%" y2="85%">
<stop offset="0%" style="stop-color:rgb(244, 243, 242); stop-opacity:1"/>
<stop offset="100%" style="stop-color:rgb(245, 243, 242); stop-opacity:1"/>
</linearGradient>
<linearGradient id="grad_1" x1="0%" y1="66%" x2="100%" y2="66%">
<stop offset="0%" style="stop-color:rgb(0, 0, 0); stop-opacity:1"/>
<stop offset="100%" style="stop-color:rgb(0, 0, 0); stop-opacity:1"/>
</linearGradient>
<linearGradient id="grad_2" x1="100%" y1="67%" x2="0%" y2="66%">
<stop offset="0%" style="stop-color:rgb(42, 42, 42); stop-opacity:1"/>
<stop offset="100%" style="stop-color:rgb(219, 220, 219); stop-opacity:1"/>
</linearGradient>
<linearGradient id="grad_3" x1="0%" y1="46%" x2="100%" y2="48%">
<stop offset="0%" style="stop-color:rgb(46, 46, 45); stop-opacity:1"/>
<stop offset="100%" style="stop-color:rgb(204, 205, 205); stop-opacity:1"/>
</linearGradient>
<linearGradient id="grad_4" x1="0%" y1="37%" x2="90%" y2="230%">
<stop offset="0%" style="stop-color:rgb(19, 21, 20); stop-opacity:1"/>
<stop offset="100%" style="stop-color:rgb(68, 71, 70); stop-opacity:1"/>
</linearGradient>
<linearGradient id="grad_5" x1="28%" y1="99%" x2="41%" y2="-2%">
<stop offset="0%" style="stop-color:rgb(8, 8, 8); stop-opacity:1"/>
<stop offset="100%" style="stop-color:rgb(255, 255, 255); stop-opacity:1"/>
</linearGradient>
<linearGradient id="grad_6" x1="0%" y1="19%" x2="100%" y2="19%">
<stop offset="0%" style="stop-color:rgb(103, 123, 166); stop-opacity:1"/>
<stop offset="100%" style="stop-color:rgb(103, 123, 166); stop-opacity:1"/>
</linearGradient>
<linearGradient id="grad_7" x1="0%" y1="33%" x2="51%" y2="-7%">
<stop offset="0%" style="stop-color:rgb(7, 7, 6); stop-opacity:1"/>
<stop offset="100%" style="stop-color:rgb(47, 47, 46); stop-opacity:1"/>
</linearGradient>
<linearGradient id="grad_8" x1="100%" y1="22%" x2="37%" y2="-104%">
<stop offset="0%" style="stop-color:rgb(0, 0, 0); stop-opacity:1"/>
<stop offset="100%" style="stop-color:rgb(54, 55, 54); stop-opacity:1"/>
</linearGradient>
<linearGradient id="grad_9" x1="14%" y1="95%" x2="68%" y2="-1%">
<stop offset="0%" style="stop-color:rgb(127, 127, 127); stop-opacity:0.428471"/>
<stop offset="100%" style="stop-color:rgb(127, 127, 127); stop-opacity:0.878061"/>
</linearGradient>
<linearGradient id="grad_10" x1="0%" y1="74%" x2="100%" y2="74%">
<stop offset="0%" style="stop-color:rgb(255, 254, 254); stop-opacity:0.207993"/>
<stop offset="100%" style="stop-color:rgb(255, 254, 254); stop-opacity:0.207993"/>
</linearGradient>
<linearGradient id="grad_11" x1="0%" y1="100%" x2="100%" y2="100%">
<stop offset="0%" style="stop-color:rgb(0, 0, 0); stop-opacity:0.390271"/>
<stop offset="100%" style="stop-color:rgb(0, 0, 0); stop-opacity:0.390271"/>
</linearGradient>
<linearGradient id="grad_12" x1="7%" y1="89%" x2="86%" y2="7%">
<stop offset="0%" style="stop-color:rgb(31, 31, 31); stop-opacity:0.98283"/>
<stop offset="100%" style="stop-color:rgb(31, 31, 31); stop-opacity:1.01874"/>
</linearGradient>
<linearGradient id="grad_13" x1="0%" y1="62%" x2="100%" y2="62%">
<stop offset="0%" style="stop-color:rgb(0, 0, 0); stop-opacity:0.667616"/>
<stop offset="100%" style="stop-color:rgb(0, 0, 0); stop-opacity:0.667616"/>
</linearGradient>
<linearGradient id="grad_14" x1="0%" y1="62%" x2="100%" y2="62%">
<stop offset="0%" style="stop-color:rgb(0, 0, 0); stop-opacity:0.665513"/>
<stop offset="100%" style="stop-color:rgb(0, 0, 0); stop-opacity:0.665513"/>
</linearGradient>
<linearGradient id="grad_15" x1="0%" y1="62%" x2="100%" y2="62%">
<stop offset="0%" style="stop-color:rgb(0, 0, 0); stop-opacity:0.660574"/>
<stop offset="100%" style="stop-color:rgb(0, 0, 0); stop-opacity:0.660574"/>
</linearGradient>
<linearGradient id="grad_16" x1="0%" y1="62%" x2="100%" y2="62%">
<stop offset="0%" style="stop-color:rgb(0, 0, 0); stop-opacity:0.662103"/>
<stop offset="100%" style="stop-color:rgb(0, 0, 0); stop-opacity:0.662103"/>
</linearGradient>
</defs>
<g transform="translate(0.000000,600.000000) scale(0.100000,-0.100000)"
fill="url(#grad_0)" stroke="none">
<g>
<path d="M0 3000 l0 -3000 1860 0 1860 0 0 3000 0 3000 -1860 0 -1860 0 0
-3000z"/>
</g>
</g>
<g transform="translate(0.000000,600.000000) scale(0.100000,-0.100000)"
fill="url(#grad_1)" stroke="none">
<g>
<path d="M1490 5764 c-295 -35 -483 -92 -627 -190 -121 -82 -178 -149 -251
-295 -101 -202 -167 -421 -207 -684 -57 -375 -66 -708 -35 -1310 5 -99 9 -296
9 -439 1 -142 5 -345 11 -450 5 -105 14 -292 20 -416 15 -301 33 -458 61 -512
121 -237 358 -481 589 -605 30 -17 81 -47 113 -67 120 -77 298 -148 427 -170
296 -52 699 -10 961 99 95 40 327 170 400 225 68 51 241 247 258 293 6 15 15
59 21 99 5 40 14 97 20 127 20 114 29 540 32 1546 3 1092 1 1169 -42 1440 -65
407 -140 651 -281 909 -92 168 -330 309 -591 351 -57 9 -123 20 -148 25 -188
40 -513 50 -740 24z"/>
</g>
</g>
<g transform="translate(0.000000,600.000000) scale(0.100000,-0.100000)"
fill="url(#grad_2)" stroke="none">
<g>
<path d="M1709 5462 c-213 -102 -325 -677 -249 -1287 10 -87 64 -307 83 -342
74 -135 138 -212 202 -242 l45 -21 0 -190 0 -190 30 0 30 0 0 205 c0 133 4
205 10 205 6 0 30 18 53 39 68 63 133 208 171 382 9 41 22 94 28 119 16 67 23
509 9 642 -29 282 -110 512 -225 635 -56 60 -60 63 -105 63 -25 0 -62 -8 -82
-18z"/>
</g>
</g>
<g transform="translate(0.000000,600.000000) scale(0.100000,-0.100000)"
fill="url(#grad_3)" stroke="none">
<g>
<path d="M1694 5218 c-98 -87 -156 -274 -179 -588 -13 -163 29 -457 85 -605
69 -179 171 -254 266 -196 41 25 115 175 144 291 36 147 54 366 41 500 -26
260 -46 350 -111 486 -52 107 -93 144 -160 144 -41 0 -55 -5 -86 -32z"/>
</g>
</g>
<g transform="translate(0.000000,600.000000) scale(0.100000,-0.100000)"
fill="url(#grad_4)" stroke="none">
<g>
<path d="M1650 4791 c-14 -27 -13 -37 6 -55 12 -13 40 -16 144 -16 104 0 132
3 144 16 19 18 20 28 6 55 -10 17 -23 19 -150 19 -127 0 -140 -2 -150 -19z"/>
</g>
</g>
<g transform="translate(0.000000,600.000000) scale(0.100000,-0.100000)"
fill="url(#grad_5)" stroke="none">
<g>
<path d="M1545 5749 c-33 -4 -105 -13 -160 -20 l-100 -12 -73 -71 c-143 -138
-334 -398 -422 -576 -44 -87 -108 -255 -133 -345 -56 -209 -61 -577 -11 -895
22 -140 70 -342 93 -394 12 -24 21 -48 21 -52 0 -24 111 -300 165 -409 35 -71
85 -179 111 -240 54 -125 88 -202 115 -259 11 -22 19 -47 19 -56 0 -9 4 -20 9
-25 34 -35 113 -362 123 -509 3 -37 5 -39 53 -53 28 -8 77 -23 110 -33 33 -10
98 -23 145 -30 47 -6 104 -16 127 -21 53 -11 374 -11 428 0 22 5 82 14 133 21
l92 13 0 91 c0 209 40 389 139 632 106 260 112 275 142 339 15 33 42 94 59
135 18 41 42 95 52 120 57 127 150 394 172 492 34 144 63 386 72 598 17 376
-79 715 -295 1040 -80 121 -127 177 -270 323 -140 144 -155 155 -223 167 -101
19 -283 40 -340 40 l-58 0 0 -141 0 -141 58 -62 c113 -122 194 -354 223 -634
14 -133 7 -575 -9 -642 -6 -25 -19 -78 -28 -119 -38 -174 -103 -319 -171 -382
-23 -21 -47 -39 -53 -39 -6 0 -10 -72 -10 -205 l0 -205 -30 0 -30 0 0 190 0
190 -45 21 c-64 30 -128 107 -202 242 -19 35 -73 255 -83 342 -47 380 -22 790
63 1016 55 145 134 260 189 274 23 6 23 6 20 150 l-3 145 -62 -1 c-34 -1 -89
-5 -122 -10z"/>
</g>
</g>
<g transform="translate(0.000000,600.000000) scale(0.100000,-0.100000)"
fill="url(#grad_6)" stroke="none">
<g>
<path d="M1755 371 c-43 -11 -150 -66 -150 -77 0 -5 45 -12 100 -16 148 -10
435 4 435 21 0 4 -33 23 -72 41 -66 30 -84 34 -178 36 -58 2 -119 0 -135 -5z"/>
</g>
</g>
<g transform="translate(0.000000,600.000000) scale(0.100000,-0.100000)"
fill="url(#grad_7)" stroke="none">
<g>
<path d="M3121 1113 c-105 -127 -176 -185 -328 -269 -97 -52 -102 -57 -91 -77
19 -37 95 -151 120 -180 l23 -28 63 56 c127 116 218 280 288 524 13 47 23 85
21 86 -1 1 -44 -49 -96 -112z"/>
</g>
</g>
<g transform="translate(0.000000,600.000000) scale(0.100000,-0.100000)"
fill="url(#grad_8)" stroke="none">
<g>
<path d="M455 1460 c25 -187 96 -433 170 -587 141 -291 412 -481 802 -562 129
-27 155 -26 201 2 88 54 120 62 247 62 115 0 123 -2 193 -34 39 -19 72 -38 72
-44 0 -24 270 37 412 93 89 35 269 137 284 161 3 6 -12 33 -33 62 -22 29 -55
77 -73 107 -19 30 -35 57 -36 59 -2 2 -45 -15 -97 -37 -180 -79 -340 -116
-582 -133 -140 -10 -299 -3 -415 17 -129 22 -307 93 -427 170 -32 20 -83 50
-113 67 -230 124 -452 351 -589 602 l-22 40 6 -45z"/>
</g>
</g>
<g transform="translate(0.000000,600.000000) scale(0.100000,-0.100000)"
fill="url(#grad_9)" stroke="none">
<g>
<path d="M1490 5764 c-295 -35 -483 -92 -627 -190 -121 -82 -178 -149 -251
-295 -101 -202 -167 -421 -207 -684 -57 -375 -66 -708 -35 -1310 5 -99 9 -296
9 -439 1 -142 5 -345 11 -450 5 -105 14 -292 20 -416 15 -301 33 -458 61 -512
103 -202 289 -410 483 -539 97 -64 122 -77 132 -67 13 14 68 144 104 245 26
72 76 265 85 323 4 25 8 48 11 51 10 17 19 157 18 289 -1 177 -30 359 -80 510
-20 58 -40 109 -45 115 -5 5 -9 16 -9 25 0 9 -8 34 -19 56 -27 57 -61 134
-115 259 -26 61 -76 169 -111 240 -54 109 -165 385 -165 409 0 4 -9 28 -21 52
-23 52 -71 254 -93 394 -50 318 -45 686 11 895 25 90 89 258 133 345 88 178
279 438 422 576 l73 71 100 12 c55 7 133 17 173 22 40 5 96 9 123 9 l49 0 0
-140 0 -140 55 0 55 0 0 140 0 140 58 0 c57 0 239 -21 340 -40 68 -12 83 -23
223 -167 143 -146 190 -202 270 -323 216 -325 312 -664 295 -1040 -9 -212 -38
-454 -72 -598 -22 -98 -115 -365 -172 -492 -10 -25 -34 -79 -52 -120 -17 -41
-44 -102 -59 -135 -30 -64 -36 -79 -142 -339 -105 -257 -139 -421 -139 -671 0
-235 32 -417 112 -645 35 -100 148 -348 176 -389 8 -11 29 -3 113 43 57 31
133 79 169 105 68 51 242 248 259 294 6 15 15 59 21 99 5 40 14 97 20 127 20
114 29 540 32 1546 3 1092 1 1169 -42 1440 -65 407 -140 651 -281 909 -92 168
-330 309 -591 351 -57 9 -123 20 -148 25 -188 40 -513 50 -740 24z"/>
</g>
<g>
<path d="M1034 763 c-26 -49 -65 -115 -86 -149 -21 -34 -38 -68 -38 -75 0 -15
94 -77 185 -122 106 -53 377 -127 465 -127 17 0 47 10 68 23 88 54 120 62 247
62 115 0 123 -2 193 -34 39 -19 72 -38 72 -44 0 -24 270 37 412 93 89 35 269
137 284 161 3 6 -12 33 -33 62 -22 29 -55 77 -73 107 -19 30 -35 57 -36 59 -2
2 -45 -15 -97 -37 -180 -79 -340 -116 -582 -133 -140 -10 -299 -3 -415 17
-135 23 -311 95 -440 179 -39 25 -72 45 -75 45 -2 0 -25 -39 -51 -87z"/>
</g>
</g>
<g transform="translate(0.000000,600.000000) scale(0.100000,-0.100000)"
fill="url(#grad_10)" stroke="none">
<g>
<path d="M1545 5749 c-33 -4 -105 -13 -160 -20 l-100 -12 -73 -71 c-143 -138
-334 -398 -422 -576 -44 -87 -108 -255 -133 -345 -56 -209 -61 -577 -11 -895
22 -140 70 -342 93 -394 12 -24 21 -48 21 -52 0 -24 111 -300 165 -409 35 -71
85 -179 111 -240 54 -125 88 -202 115 -259 11 -22 19 -47 19 -56 0 -9 4 -20 9
-25 5 -6 25 -57 45 -115 50 -151 79 -333 80 -510 1 -132 -8 -272 -18 -289 -3
-3 -7 -26 -11 -51 -9 -58 -59 -251 -85 -323 -29 -81 -91 -230 -101 -242 -10
-13 122 -98 231 -149 193 -91 422 -126 695 -107 241 17 402 54 580 131 l91 40
-71 143 c-157 319 -225 595 -225 912 0 250 34 414 139 671 106 260 112 275
142 339 15 33 42 94 59 135 18 41 42 95 52 120 57 127 150 394 172 492 34 144
63 386 72 598 17 376 -79 715 -295 1040 -80 121 -127 177 -270 323 -140 144
-155 155 -223 167 -101 19 -283 40 -340 40 l-58 0 0 -141 0 -141 58 -62 c113
-122 194 -354 223 -634 14 -133 7 -575 -9 -642 -6 -25 -19 -78 -28 -119 -38
-174 -103 -319 -171 -382 -23 -21 -47 -39 -53 -39 -6 0 -10 -72 -10 -205 l0
-205 -30 0 -30 0 0 190 0 190 -45 21 c-64 30 -128 107 -202 242 -19 35 -73
255 -83 342 -47 380 -22 790 63 1016 55 145 134 260 189 274 23 6 23 6 20 150
l-3 145 -62 -1 c-34 -1 -89 -5 -122 -10z"/>
</g>
</g>
<g transform="translate(0.000000,600.000000) scale(0.100000,-0.100000)"
fill="url(#grad_11)" stroke="none">
<g>
<path d="M1790 3390 l0 -200 30 0 30 0 0 200 0 200 -30 0 -30 0 0 -200z"/>
</g>
</g>
<g transform="translate(0.000000,600.000000) scale(0.100000,-0.100000)"
fill="url(#grad_12)" stroke="none">
<g>
<path d="M1720 4979 c-36 -14 -88 -68 -112 -114 -20 -38 -21 -51 -16 -306 6
-293 12 -323 74 -381 32 -30 102 -58 143 -58 42 0 132 51 165 93 l31 39 3 281
c2 205 0 292 -9 320 -13 40 -83 111 -125 127 -32 13 -121 12 -154 -1z m230
-188 c14 -27 13 -37 -6 -55 -12 -13 -40 -16 -144 -16 -104 0 -132 3 -144 16
-19 18 -20 28 -6 55 10 17 23 19 150 19 127 0 140 -2 150 -19z m0 -110 c14
-27 13 -37 -6 -55 -12 -13 -40 -16 -144 -16 -104 0 -132 3 -144 16 -19 18 -20
28 -6 55 10 17 23 19 150 19 127 0 140 -2 150 -19z m0 -120 c14 -27 13 -37 -6
-55 -12 -13 -40 -16 -144 -16 -104 0 -132 3 -144 16 -19 18 -20 28 -6 55 10
17 23 19 150 19 127 0 140 -2 150 -19z m10 -110 c14 -27 13 -37 -6 -55 -12
-13 -40 -16 -144 -16 -104 0 -132 3 -144 16 -19 18 -20 28 -6 55 10 17 23 19
150 19 127 0 140 -2 150 -19z m0 -120 c14 -27 13 -37 -6 -55 -12 -13 -40 -16
-144 -16 -104 0 -132 3 -144 16 -19 18 -20 28 -6 55 10 17 23 19 150 19 127 0
140 -2 150 -19z"/>
</g>
</g>
<g transform="translate(0.000000,600.000000) scale(0.100000,-0.100000)"
fill="url(#grad_13)" stroke="none">
<g>
<path d="M1660 4331 c-14 -27 -13 -37 6 -55 12 -13 40 -16 144 -16 104 0 132
3 144 16 19 18 20 28 6 55 -10 17 -23 19 -150 19 -127 0 -140 -2 -150 -19z"/>
</g>
</g>
<g transform="translate(0.000000,600.000000) scale(0.100000,-0.100000)"
fill="url(#grad_14)" stroke="none">
<g>
<path d="M1660 4451 c-14 -27 -13 -37 6 -55 12 -13 40 -16 144 -16 104 0 132
3 144 16 19 18 20 28 6 55 -10 17 -23 19 -150 19 -127 0 -140 -2 -150 -19z"/>
</g>
</g>
<g transform="translate(0.000000,600.000000) scale(0.100000,-0.100000)"
fill="url(#grad_15)" stroke="none">
<g>
<path d="M1650 4681 c-14 -27 -13 -37 6 -55 12 -13 40 -16 144 -16 104 0 132
3 144 16 19 18 20 28 6 55 -10 17 -23 19 -150 19 -127 0 -140 -2 -150 -19z"/>
</g>
</g>
<g transform="translate(0.000000,600.000000) scale(0.100000,-0.100000)"
fill="url(#grad_16)" stroke="none">
<g>
<path d="M1650 4561 c-14 -27 -13 -37 6 -55 12 -13 40 -16 144 -16 104 0 132
3 144 16 19 18 20 28 6 55 -10 17 -23 19 -150 19 -127 0 -140 -2 -150 -19z"/>
</g>
</g>
</svg>
