<?xml version="1.0" encoding="utf-8"?>
<!-- Generator: Adobe Illustrator 26.5.0, SVG Export Plug-In . SVG Version: 6.00 Build 0)  -->
<svg version="1.1" id="图层_1" xmlns="http://www.w3.org/2000/svg" xmlns:xlink="http://www.w3.org/1999/xlink" x="0px" y="0px"
	 viewBox="0 0 800 360" style="enable-background:new 0 0 800 360;" xml:space="preserve">
<style type="text/css">
	.st0{fill:none;}
	.st1{fill:#D3D3D3;}
	.st2{fill:url(#SVGID_00000135667886512980844460000003283353126046117519_);}
	.st3{fill:url(#region-1-1_00000054257304923203578630000015687159377721898427_);}
	.st4{fill:url(#region-1-2_00000160876138475176698040000012567237756350101414_);}
	.st5{fill:url(#region-1-3_00000082358572054497941100000007947335789590396092_);}
	.st6{fill:url(#region-1-4_00000062177813735792672760000001190118970355496120_);}
	.st7{fill:url(#region-2-1_00000165944482124879330710000014959112026061212585_);}
	.st8{fill:url(#region-2-2_00000158019540808405185010000001772321958133694124_);}
	.st9{fill:url(#region-2-3_00000032641156137053762070000012191768737809399686_);}
	.st10{fill:url(#region-2-4_00000145742979922076299290000014497321538282829205_);}
	.st11{fill:url(#region-2-5_00000001622436421115265100000011957506094463049357_);}
	.st12{fill:url(#region-2-6_00000133492165747068111600000013720293078765473167_);}
	.st13{fill:url(#region-3-1_00000062876636219573043990000002862637006809423019_);}
	.st14{fill:url(#region-3-2_00000163790746153053795640000013601075383420074410_);}
	.st15{fill:url(#region-3-3_00000100367380133267514390000005070700721843879084_);}
	.st16{fill:url(#region-1-3_00000022557279709740021930000018031297024396835481_);}
	.st17{fill:url(#region-2-3_00000100367396627377261890000013437791541365042860_);}
	.st18{fill:url(#region-2-4_00000167371921250463827890000002329894576106954685_);}
	.st19{fill:url(#region-3-2_00000154388745121737475440000016385338333134063753_);stroke:#000000;stroke-miterlimit:10;}
	.st20{fill:none;stroke:#0000FF;stroke-width:3;stroke-miterlimit:10;}
	.st21{fill:none;stroke:#3FA9F5;stroke-width:4;stroke-linecap:round;stroke-miterlimit:10;}
	.st22{fill:#3FA9F5;}
</style>
<pattern  y="360" width="40" height="40" patternUnits="userSpaceOnUse" id="SVGID_1_" viewBox="0 -40 40 40" style="overflow:visible;">
	<g>
		<rect y="-40" class="st0" width="40" height="40"/>
		<g>
			<rect y="-40" class="st0" width="40" height="40"/>
			<g>
				<rect y="-40" class="st0" width="40" height="40"/>
				<g>
					<rect y="-40" class="st0" width="40" height="40"/>
					<rect y="-40" class="st0" width="40" height="40"/>
					<rect y="-20" class="st1" width="20" height="20"/>
					<rect x="20" y="-40" class="st1" width="20" height="20"/>
				</g>
			</g>
		</g>
	</g>
</pattern>
<g id="图层_1_00000162321299983841449250000014464619041503499705_">
	
		<pattern  id="SVGID_00000177465516669414167550000004389759302973148039_" xlink:href="#SVGID_1_" patternTransform="matrix(0.8889 0 0 -1 -2553.396 -32636.2402)">
	</pattern>
	<rect style="fill:url(#SVGID_00000177465516669414167550000004389759302973148039_);" width="800" height="360"/>
</g>
<g id="图层_2_00000042729397137786818850000000189885605906590879_">
	<g id="layer-1">
		
			<linearGradient id="region-1-1_00000013189894602473181040000009421132784180235918_" gradientUnits="userSpaceOnUse" x1="-1607.4052" y1="114.2552" x2="-1606.6414" y2="114.0497" gradientTransform="matrix(82.9492 0 0 -131.62 133928.2031 15085.0713)">
			<stop  offset="0" style="stop-color:#FAEFD8;stop-opacity:0.993"/>
			<stop  offset="1" style="stop-color:#FAEFD8;stop-opacity:0.994"/>
		</linearGradient>
		<path id="region-1-1" style="fill:url(#region-1-1_00000013189894602473181040000009421132784180235918_);" d="M613.7,20.4
			c-0.8,0.1-3,0.7-5,1.2c-4.6,1.2-8.1,4.4-8.6,7.7c-0.7,3.9-0.4,7.7,0.7,10c0.9,2,6.1,8.1,6.9,8.1c0.5,0,8.3,8.2,9.1,9.6
			c3.5,6.4,4.1,8.7,3.6,13.1c-0.4,3.2-0.8,4.8-2.2,9.5c-0.8,2.5-4.6,10.4-6.3,12.7c-1.3,1.9-0.8,2,3.2,0.2
			c3.7-1.6,10.1-7.5,11.3-10.4c0.5-1.1,1.6-2.9,2.5-4s1.6-2.2,1.6-2.4c0-0.2,0.9-2.1,2-4.3c2.5-5,2.6-8.2,0.5-12.6
			c-0.8-1.7-1.7-3-2-3s-2.5-1.8-4.8-4c-2.4-2.2-5-4.4-5.8-4.9s-2.1-1.6-2.9-2.4c-0.8-0.8-2.1-1.8-2.9-2.4c-1.6-1.1-2.5-4.9-1.6-6.8
			c0.3-0.6,0.7-1.6,0.9-2.1c0.3-1.2,3.6-2.6,7.3-3.1c3.6-0.6,9.8,0.6,12.5,2.2c1.1,0.7,3,1.7,4,2.2c1.1,0.5,3,1.7,4.3,2.7
			c2.5,1.9,4.1,1.9,4.1-0.1c0-2.1-6.4-9.8-10.9-13.2C631.9,21.8,619,19.5,613.7,20.4z"/>
		
			<linearGradient id="region-1-2_00000010999559788885249890000013275518190635725458_" gradientUnits="userSpaceOnUse" x1="-1625.8245" y1="109.71" x2="-1625.8149" y2="108.9539" gradientTransform="matrix(416.5085 0 0 -83.7131 677784.375 9279.7285)">
			<stop  offset="0" style="stop-color:#EFEFEE;stop-opacity:0.992"/>
			<stop  offset="1" style="stop-color:#E3E3E2;stop-opacity:0.994"/>
		</linearGradient>
		<path id="region-1-2" style="fill:url(#region-1-2_00000010999559788885249890000013275518190635725458_);" d="M588.8,96.6
			c-43.5,2.4-70.1,7.3-82.7,15.4c-3.4,2.2-6.6,5.9-6.6,7.6c0,1.6,3.7,5.7,7.2,8c11.3,7.2,37.4,12.5,71.8,14.6
			c14.4,0.9,63.1,0.7,78.2-0.3c34.6-2.2,59.4-7.6,70.3-15.1c3-2,5.2-4.5,5.8-6.8c0.5-1.6-2.2-5.1-5.9-7.7
			c-9.5-6.5-30.5-11.5-59.2-14.1C640.2,95.8,613.6,95.2,588.8,96.6z"/>
		
			<linearGradient id="region-1-3_00000107562544986286596040000004831735910723627150_" gradientUnits="userSpaceOnUse" x1="-1626.8923" y1="120.6267" x2="-1626.8923" y2="120.0667" gradientTransform="matrix(540 0 0 -349.0544 879139 42225.4961)">
			<stop  offset="0" style="stop-color:#E0E0E0;stop-opacity:0.993"/>
			<stop  offset="1" style="stop-color:#A8A8A8;stop-opacity:0.998"/>
		</linearGradient>
		<path id="region-1-3" style="fill:url(#region-1-3_00000107562544986286596040000004831735910723627150_);" d="M732.6,120.4
			c-0.2,1.5-2.6,4.3-5.7,6.4c-10.9,7.4-35.8,12.8-70.3,15.1c-15.1,1-63.7,1.2-78.2,0.3c-20.9-1.3-37.7-3.6-51.6-7
			c-12.6-3.1-20.5-6.8-25.1-11.9l-2.4-2.6l0.3,6.4c0.5,9,1.8,19.5,4.4,35.8c2.3,14.7,8.6,35.7,15.2,51.1c1.6,3.6,2.6,6.8,2.5,7.1
			c-0.2,0.3-1.3,0.7-2.5,1c-4.9,0.9-22.2,7.6-29.1,11.2c-11.3,6-18.4,12.3-22.1,19.7c-2,4-2.1,4.5-2.1,9.6c0,3,0.3,6.3,0.7,7.3
			c2,5.8,7.7,12.4,14.8,17c1.8,1.2,4,2.6,4.9,3.2c4.1,2.8,20.8,10,27.4,11.9c1.6,0.4,5.3,1.5,8,2.2c18,5.1,37.7,8.3,63,10.5
			c11.5,1,44.2,1.3,55.2,0.6c22.5-1.5,23.7-1.6,45.3-4.9c7.3-1.1,26.3-5.5,34.3-8c26-8.1,44.4-20.4,48.2-32.6
			c0.3-1.1,0.6-4.3,0.7-7.3c0-5.2-0.1-5.5-2.2-9.8c-3.7-7.2-9.2-12.2-20.1-18.3c-7.6-4.4-22.2-10.1-31.8-12.5
			c-2.1-0.6-3.8-1.2-3.9-1.6c-0.4-1.1,2.4-4.4,3.5-4.3c0.6,0.1,5,0.3,10,0.5c9.6,0.3,11.7,0,19.3-3.1c5.3-2.1,11.1-8,13.1-13.3
			c2.6-6.8,2.9-8.6,2.9-16.8c-0.1-20.4-6.6-30.1-21.1-31.6c-2.5-0.2-5.3-0.3-6.1-0.2c-0.9,0.2-1.6,0.2-1.6,0.1
			c0-0.1,0.3-3.4,0.8-7.2c1.5-12.7,2.1-20.9,1.9-23C732.7,120.4,732.6,119.9,732.6,120.4z M738.2,168.2c3.1,1.5,4.8,4.6,5.4,10.5
			c0.5,5,0,9.6-1.3,12.2c-3,5.7-10.5,9.5-20.3,10.2c-2.6,0.2-3.5,0.1-3.5-0.4c0-0.4,0.6-2.6,1.5-4.9c0.8-2.3,1.7-5.4,2.2-6.9
			c0.4-1.6,1.4-5.2,2.2-8.1c0.8-2.9,1.8-7.1,2.3-9.2c0.4-2.1,1.1-4.1,1.5-4.4C729.2,166.5,735.9,167.1,738.2,168.2z"/>
		
			<linearGradient id="region-1-4_00000168101188605625009260000000128290140250162110_" gradientUnits="userSpaceOnUse" x1="-1626.6449" y1="108.8077" x2="-1626.6199" y2="109.9988" gradientTransform="matrix(503.7986 0 0 -71.7383 820112.5625 8129.5776)">
			<stop  offset="0" style="stop-color:#333333;stop-opacity:0.998"/>
			<stop  offset="1" style="stop-color:#6E6E6E;stop-opacity:0.998"/>
		</linearGradient>
		<path id="region-1-4" style="fill:url(#region-1-4_00000168101188605625009260000000128290140250162110_);" d="M476,283.7
			c0,0.7,6.2,7,9.5,9.7c13.3,10.8,41.2,20.7,71.4,25.4c16,2.5,22.1,3.1,37.8,4c40,2.3,81.9-1.7,113.4-10.8
			c16.9-4.9,32.4-12,40.5-18.5c4.8-3.9,10.6-10.2,9.4-10.2c-0.2,0-1.8,1.2-3.8,2.7c-7.6,5.9-20.6,12-34.7,16.4
			c-8.1,2.5-27,6.9-34.3,8c-21.6,3.2-22.8,3.4-45.3,4.9c-11,0.7-43.7,0.4-55.2-0.6c-25.3-2.1-45-5.4-63-10.5c-2.7-0.8-6.4-1.8-8-2.2
			c-6.6-1.8-23.3-9.1-27.4-11.9c-0.9-0.6-3-2.1-4.8-3.2c-1.8-1.2-3.7-2.5-4.3-3C476.5,283.5,476,283.4,476,283.7z"/>
	</g>
	<g id="layer-2">
		
			<linearGradient id="region-2-1_00000023272628996292747390000002223673984835651209_" gradientUnits="userSpaceOnUse" x1="-1625.6031" y1="98.5737" x2="-1625.6031" y2="98.0134" gradientTransform="matrix(398 0 0 -46.8856 647606 4723.1631)">
			<stop  offset="0" style="stop-color:#101010;stop-opacity:1.800000e-02"/>
			<stop  offset="1" style="stop-color:#000000;stop-opacity:9.300000e-02"/>
		</linearGradient>
		<path id="region-2-1" style="fill:url(#region-2-1_00000023272628996292747390000002223673984835651209_);" d="M579,102.4
			c-36.2,2.2-55,5.3-66.2,10.5c-4.4,2.1-8.3,5.4-8.3,7c0,1.3,4.9,5.3,8.4,6.7c3.5,1.4,3.7,1.5,4.5,0.4c2.4-2.9,9.2-5.4,22.4-8.3
			c3.2-0.7,20.3-2.6,29.9-3.4c9.4-0.7,84.8-0.7,93.6,0c11,1,26.4,2.8,30.7,3.6c10.6,2.2,18.3,5.2,20.4,7.7c0.8,1,1.3,1.2,2.4,1
			c4.7-1.3,10.6-5.7,10.6-7.8c0-1.5-2-3.8-4.6-5.3c-8.9-5.2-28.2-9.2-53.3-11c-4.6-0.3-11.4-0.9-15.1-1.2
			c-3.7-0.3-18.4-0.7-32.8-0.8C601.1,101.4,592,101.6,579,102.4z"/>
		
			<linearGradient id="region-2-2_00000010997546779660506030000001704192511757605774_" gradientUnits="userSpaceOnUse" x1="-1624.9795" y1="94.2091" x2="-1624.9795" y2="93.6491" gradientTransform="matrix(353 0 0 -39.6654 574234 3851.6411)">
			<stop  offset="0" style="stop-color:#4B1D00;stop-opacity:0.809"/>
			<stop  offset="1" style="stop-color:#4B1E00;stop-opacity:0.82"/>
		</linearGradient>
		<path id="region-2-2" style="fill:url(#region-2-2_00000010997546779660506030000001704192511757605774_);" d="M568.4,115.4
			c-24.1,2-39.9,5-47.2,9.1c-2.1,1.2-3.8,2.5-3.8,2.9c0,1.6,19.1,5.7,33.2,7.1c19.9,2,28.7,2.4,56.7,2.6c50.8,0.5,83-2,104.6-8.1
			c1.7-0.5,3.2-1.1,3.2-1.3c0-0.7-2.5-2.6-4.8-3.8c-7.3-3.7-22.5-6.4-47-8.5C655.2,114.6,576.9,114.7,568.4,115.4z"/>
		
			<linearGradient id="region-2-3_00000137113870656921795740000017801147436396480149_" gradientUnits="userSpaceOnUse" x1="-1625.699" y1="92.1219" x2="-1625.699" y2="91.5619" gradientTransform="matrix(405.9611 0 0 -36.2488 660586.5 3487.3718)">
			<stop  offset="0" style="stop-color:#070707;stop-opacity:0.79"/>
			<stop  offset="1" style="stop-color:#000000;stop-opacity:0.849"/>
		</linearGradient>
		<path id="region-2-3" style="fill:url(#region-2-3_00000137113870656921795740000017801147436396480149_);" d="M502.3,148.2
			c0,0.9,5.2,4.9,8.3,6.5c11.1,5.5,28.3,9.4,53.8,11.8c13,1.3,46,2.1,67.2,1.7c20.3-0.4,36-1.5,48.7-3.2c4.5-0.6,9.7-1.3,11.8-1.6
			s4.1-0.6,4.8-0.8c0.6-0.2,4.2-1.1,8-2c9.7-2.4,18-5.9,22.7-9.6c2.5-2,2.9-3.3,0.4-1.6c-3.4,2.4-7.7,4.4-14.3,6.6
			c-6.5,2.2-8.2,2.6-17.1,4.3c-18.1,3.5-51,5.9-79.4,5.9c-26.2,0-64.9-2.5-76.8-5c-1.4-0.3-5.3-1.1-8.6-1.7
			c-11.1-2.1-24.4-7.2-28.2-10.8C502.8,148.1,502.3,147.9,502.3,148.2z"/>
		
			<linearGradient id="region-2-4_00000154387526181037119620000018330747391292707498_" gradientUnits="userSpaceOnUse" x1="-1625.6917" y1="92.0925" x2="-1625.6917" y2="91.533" gradientTransform="matrix(405.3416 0 0 -36.1 659576.6875 3477.2981)">
			<stop  offset="0" style="stop-color:#000000;stop-opacity:0.832"/>
			<stop  offset="1" style="stop-color:#000000;stop-opacity:0.831"/>
		</linearGradient>
		<path id="region-2-4" style="fill:url(#region-2-4_00000154387526181037119620000018330747391292707498_);" d="M505.4,155.3
			c3.1,2.9,9.9,6.3,16.4,8.4c9.6,3,15.5,4.1,36.2,6.7c10.8,1.4,37.1,2.5,58,2.5c51.5,0,86-4.4,104.2-13.1c2.8-1.3,8.6-5.5,9.4-6.7
			c0.4-0.6-0.7-0.1-2.1,1.1c-1.7,1.4-9.9,5.2-14.8,6.8c-8.5,2.9-26.3,6-40.9,7.4c-16.3,1.5-23.4,1.8-48.3,2.1
			c-25.4,0.3-43.4-0.2-56.1-1.5c-2.6-0.3-8-0.8-11.9-1.1c-9-0.8-27.9-4.5-35.9-7.1c-6.4-2.1-8.8-3.1-13.8-6.2l-3.1-1.9L505.4,155.3z
			"/>
		
			<linearGradient id="region-2-5_00000090986014636232542370000003528199764217098148_" gradientUnits="userSpaceOnUse" x1="-1626.8932" y1="117.5242" x2="-1626.8911" y2="116.9407" gradientTransform="matrix(540 0 0 -169.6032 879139 20152.9824)">
			<stop  offset="0" style="stop-color:#A2A2A2;stop-opacity:0.301"/>
			<stop  offset="1" style="stop-color:#E8E8E8;stop-opacity:0.575"/>
		</linearGradient>
		<path id="region-2-5" style="fill:url(#region-2-5_00000090986014636232542370000003528199764217098148_);" d="M520.8,221.5
			c-0.8,0.4-1.8,0.7-2.4,0.7c-1.3,0-11.3,3.5-18.6,6.6c-17,7.1-27.1,14.7-31.8,24.1c-2,4-2.1,4.5-2.1,9.6c0,3,0.3,6.3,0.7,7.3
			c2,5.8,7.7,12.4,14.8,17c1.8,1.2,4,2.6,4.9,3.2c4.1,2.8,20.8,10,27.4,11.9c1.6,0.4,5.3,1.5,8,2.2c18,5.1,37.7,8.3,63,10.5
			c11.5,1,44.2,1.3,55.2,0.6c22.5-1.5,23.7-1.6,45.3-4.9c7.3-1.1,26.3-5.5,34.3-8c26-8.1,44.4-20.4,48.2-32.6
			c0.3-1.1,0.6-4.3,0.7-7.3c0-5.2-0.1-5.5-2.2-9.8c-3.7-7.2-9.2-12.2-20.1-18.3c-7.7-4.4-21.8-10-32-12.6l-4-1.1l-0.5,1.3
			c-0.3,0.7-2.1,4-4,7.2c-2,3.3-4,6.7-4.5,7.6c-0.5,0.9-2.6,3.8-4.6,6.4c-2,2.6-3.7,5-3.7,5.3s1.1,1.1,2.5,1.7
			c3,1.5,7.1,4.9,8.7,7.5c1.6,2.6,1.6,7.4,0.1,9.9c-4.5,7.3-20,14.2-40.1,17.8c-18.1,3.2-22.7,3.6-47.1,3.6
			c-23.9,0-27.2-0.3-45.1-3.3c-28.8-5-45.8-15.1-42.6-25.5c0.9-3,5-7.4,8.7-9.3c1.7-0.9,3.1-1.8,3.1-2s-0.4-0.7-1.1-1.1
			c-1-0.7-1.7-1.6-7.5-10c-2.9-4.2-7.7-12.2-7.7-12.8c0-0.2-0.6-1.2-1.3-2.4C522.2,220.9,522,220.8,520.8,221.5z"/>
		
			<linearGradient id="region-2-6_00000137125122153455914500000010345970293640115381_" gradientUnits="userSpaceOnUse" x1="-1624.3162" y1="109.0737" x2="-1624.3071" y2="108.3626" gradientTransform="matrix(314.9648 0 0 -72.1 512218.875 8112.6968)">
			<stop  offset="0" style="stop-color:#1C1C1C;stop-opacity:9.500000e-02"/>
			<stop  offset="1" style="stop-color:#000000;stop-opacity:0.24"/>
		</linearGradient>
		<path id="region-2-6" style="fill:url(#region-2-6_00000137125122153455914500000010345970293640115381_);" d="M686.5,254.4
			c-3.2,3.1-6.6,6.2-7.5,6.9c-5.9,4.4-8.8,6.4-12.3,8.3c-4.1,2.3-14,6.9-14.8,6.9c-0.3,0-1.2,0.3-2.1,0.7c-0.8,0.3-1.8,0.7-2.1,0.7
			c-0.3,0.1-2,0.6-3.7,1.1c-2.9,0.8-10.8,2.3-15.6,2.8c-2.3,0.3-21.9,0.3-24.4,0.1c-0.9-0.1-2.6-0.3-3.6-0.5c-1.1-0.2-3.4-0.6-5-0.8
			s-3.8-0.7-4.5-0.9c-0.8-0.2-1.8-0.4-2.2-0.5s-1.5-0.4-2.4-0.8c-0.9-0.3-2-0.7-2.5-0.8c-0.5-0.1-1.4-0.3-2-0.6
			c-0.6-0.3-2-0.8-3.1-1.2c-6.7-2.5-19.1-9.6-24.5-14.1c-4.6-3.9-7.6-6.5-10.2-9.2l-2.8-3l-3.1,1.6c-3.6,1.9-7.8,6.3-8.7,9.3
			c-3.1,10.4,13.8,20.5,42.6,25.5c17.9,3,21.2,3.3,45.1,3.3c24.4,0,29-0.3,47.1-3.6c20.1-3.6,35.6-10.5,40.1-17.8
			c1.5-2.5,1.5-7.3-0.1-9.9s-5.4-5.8-8.8-7.6l-2.9-1.5L686.5,254.4z"/>
	</g>
	<g id="layer-3">
		
			<linearGradient id="region-3-1_00000059294436906897653380000009942302746273522317_" gradientUnits="userSpaceOnUse" x1="-1616.845" y1="90.8753" x2="-1616.845" y2="90.3153" gradientTransform="matrix(142.7398 0 0 -35.6682 231403.8438 3356.4138)">
			<stop  offset="0" style="stop-color:#FFFFE9;stop-opacity:0.232"/>
			<stop  offset="1" style="stop-color:#FFFFE5;stop-opacity:0.174"/>
		</linearGradient>
		<path id="region-3-1" style="fill:url(#region-3-1_00000059294436906897653380000009942302746273522317_);" d="M589.8,115.2
			c-11.3,0.3-12,0.4-13.1,1.6c-1.1,1.1-1.2,1.4-0.5,3c1,2.4,4.8,6.1,8.5,8.3c7.7,4.5,18,6.9,30.4,6.9c12.5,0.1,20.2-1.5,29.3-5.8
			c6.8-3.2,12.6-9.7,11-12.2c-0.2-0.3-1.3-0.8-2.4-1.1C650.5,115.2,605.9,114.7,589.8,115.2z"/>
		
			<linearGradient id="region-3-2_00000134937694927259151160000013875419534869853365_" gradientUnits="userSpaceOnUse" x1="-1610.5055" y1="118.6652" x2="-1610.2952" y2="118.0737" gradientTransform="matrix(99.7372 0 0 -215.3959 161158.0625 25688.8223)">
			<stop  offset="0" style="stop-color:#E9E9E9;stop-opacity:0.31"/>
			<stop  offset="1" style="stop-color:#E1E1E1;stop-opacity:0.669"/>
		</linearGradient>
		<path id="region-3-2" style="fill:url(#region-3-2_00000134937694927259151160000013875419534869853365_);" d="M515.3,142.8
			c0.2,1.1,0.6,4.6,1,8.1c0.3,3.4,1,7.3,1.3,8.7c0.4,1.4,1.3,5.2,2,8.4c0.6,3.2,2.2,9.5,3.5,14c2.1,7.4,3.2,10.9,6.8,20.2
			c2.1,5.7,7.6,16.8,11.1,22.7c2,3.2,4,6.7,4.6,7.7s1.2,1.9,1.4,2.1c0.2,0.2,1.2,1.5,2.2,2.9c3.4,5,9.8,12.5,16,18.6
			c3.4,3.4,5.9,5.8,5.7,5.3c-0.2-0.4-1-1.8-1.7-2.9c-1.3-2.1-3.6-6.4-7.6-13.9c-2.7-5.2-7-14.6-8-17.6c-0.4-1.2-1.3-3.8-2-5.6
			c-2.7-7.2-5.3-18.7-6.5-27.7c-1.3-10.4-1.9-27.8-1.3-37.7c0.3-4.9,0.4-9,0.4-9c-0.1-0.1-1.8-0.4-3.8-0.8s-4.6-1-5.9-1.2
			c-1.2-0.3-5.3-1.2-9-1.9s-7.6-1.5-8.6-1.7l-1.9-0.4L515.3,142.8z"/>
		
			<linearGradient id="region-3-3_00000108290622900418057290000005950940871235543689_" gradientUnits="userSpaceOnUse" x1="-1626.8926" y1="111.87" x2="-1626.8771" y2="110.9303" gradientTransform="matrix(540.0109 0 0 -87.5494 879156.8125 10060.4062)">
			<stop  offset="0" style="stop-color:#FCFCFC;stop-opacity:0.817"/>
			<stop  offset="1" style="stop-color:#FBFBFB;stop-opacity:0.755"/>
		</linearGradient>
		<path id="region-3-3" style="fill:url(#region-3-3_00000108290622900418057290000005950940871235543689_);" d="M465.9,266.9
			c0,5.4,7.1,14.5,15.5,20c1.8,1.2,4,2.6,4.9,3.2c4.1,2.8,20.8,10,27.4,11.9c1.6,0.4,5.3,1.5,8,2.2c18,5.1,37.7,8.3,63,10.5
			c11.5,1,44.2,1.3,55.2,0.6c22.5-1.5,23.7-1.6,45.3-4.9c7.3-1.1,26.3-5.5,34.3-8c26-8,43.9-20.1,48.2-32.5c1.1-3.2,0.8-4.5-0.5-1.7
			c-3,6.6-7.8,11.8-15.9,17c-14.4,9.4-36.3,16.9-63.6,21.8c-43.3,7.9-97.8,7.9-141.1,0c-16.2-3-36.3-8.5-45.9-12.7
			c-17.4-7.5-28.3-15.7-32.6-24.5C466.8,267.7,465.9,266.3,465.9,266.9z"/>
	</g>
</g>
<linearGradient id="region-1-3_00000075136545925929071660000006961127544519548824_" gradientUnits="userSpaceOnUse" x1="-1627.5977" y1="120.5998" x2="-1627.5977" y2="120.0398" gradientTransform="matrix(540 0 0 -349.0544 879139 42225.4961)">
	<stop  offset="0" style="stop-color:#E0E0E0;stop-opacity:0.993"/>
	<stop  offset="1" style="stop-color:#A8A8A8;stop-opacity:0.998"/>
</linearGradient>
<path id="region-1-3_00000059993650831934832620000016880553511279213215_" style="fill:url(#region-1-3_00000075136545925929071660000006961127544519548824_);" d="
	M351.7,129.8c-0.2,1.5-2.6,4.3-5.7,6.4c-10.9,7.4-35.8,12.8-70.3,15.1c-15.1,1-63.7,1.2-78.2,0.3c-20.9-1.3-37.7-3.6-51.6-7
	c-12.6-3.1-20.5-6.8-25.1-11.9l-2.4-2.6l0.3,6.4c0.5,9,1.8,19.5,4.4,35.8c2.3,14.7,8.6,35.7,15.2,51.1c1.6,3.6,2.6,6.8,2.5,7.1
	c-0.2,0.3-1.3,0.7-2.5,1c-4.9,0.9-22.2,7.6-29.1,11.2c-11.3,6-18.4,12.3-22.1,19.7c-2,4-2.1,4.5-2.1,9.6c0,3,0.3,6.3,0.7,7.3
	c2,5.8,7.7,12.4,14.8,17c1.8,1.2,4,2.6,4.9,3.2c4.1,2.8,20.8,10,27.4,11.9c1.6,0.4,5.3,1.5,8,2.2c18,5.1,37.7,8.3,63,10.5
	c11.5,1,44.2,1.3,55.2,0.6c22.5-1.5,23.7-1.6,45.3-4.9c7.3-1.1,26.3-5.5,34.3-8c26-8.1,44.4-20.4,48.2-32.6c0.3-1.1,0.6-4.3,0.7-7.3
	c0-5.2-0.1-5.5-2.2-9.8c-3.7-7.2-9.2-12.2-20.1-18.3c-7.6-4.4-22.2-10.1-31.8-12.5c-2.1-0.6-3.8-1.2-3.9-1.6
	c-0.4-1.1,2.4-4.4,3.5-4.3c0.6,0.1,5,0.3,10,0.5c9.6,0.3,11.7,0,19.3-3.1c5.3-2.1,11.1-8,13.1-13.3c2.6-6.8,2.9-8.6,2.9-16.8
	c-0.1-20.4-6.6-30.1-21.1-31.6c-2.5-0.2-5.3-0.3-6.1-0.2c-0.9,0.2-1.6,0.2-1.6,0.1s0.3-3.4,0.8-7.2c1.5-12.7,2.1-20.9,1.9-23
	C351.9,129.8,351.7,129.3,351.7,129.8z M357.4,177.6c3.1,1.5,4.8,4.6,5.4,10.5c0.5,5,0,9.6-1.3,12.2c-3,5.7-10.5,9.5-20.3,10.2
	c-2.6,0.2-3.5,0.1-3.5-0.4c0-0.4,0.6-2.6,1.5-4.9c0.8-2.3,1.7-5.4,2.2-6.9c0.4-1.6,1.4-5.2,2.2-8.1s1.8-7.1,2.3-9.2
	c0.4-2.1,1.1-4.1,1.5-4.4C348.4,175.8,355.1,176.5,357.4,177.6z"/>
<linearGradient id="region-2-3_00000029767426578919695220000005173264196338107273_" gradientUnits="userSpaceOnUse" x1="-1626.6469" y1="93.767" x2="-1626.6469" y2="93.207" gradientTransform="matrix(405.9611 0 0 -36.2488 660586.5 3487.3718)">
	<stop  offset="0" style="stop-color:#070707;stop-opacity:0.79"/>
	<stop  offset="1" style="stop-color:#000000;stop-opacity:0.849"/>
</linearGradient>
<path id="region-2-3_00000044875813417254657880000015911553605071066045_" style="fill:url(#region-2-3_00000029767426578919695220000005173264196338107273_);" d="
	M117.5,88.6c0,0.9,5.2,4.9,8.3,6.5c11.1,5.5,28.3,9.4,53.8,11.8c13,1.3,46,2.1,67.2,1.7c20.3-0.4,36-1.5,48.7-3.2
	c4.5-0.6,9.7-1.3,11.8-1.6c2-0.3,4.1-0.6,4.8-0.8s4.2-1.1,8-2c9.7-2.4,18-5.9,22.7-9.6c2.5-2,2.9-3.3,0.4-1.6
	c-3.4,2.4-7.7,4.4-14.3,6.6c-6.5,2.2-8.2,2.6-17.1,4.3c-18.1,3.5-51,5.9-79.4,5.9c-26.2,0-64.9-2.5-76.8-5c-1.4-0.3-5.3-1.1-8.6-1.7
	c-11.1-2.1-24.4-7.2-28.2-10.8C118,88.5,117.5,88.3,117.5,88.6z"/>
<linearGradient id="region-2-4_00000157267397738645712110000010172378066550605710_" gradientUnits="userSpaceOnUse" x1="-1626.6412" y1="94.4099" x2="-1626.6412" y2="93.8504" gradientTransform="matrix(405.3416 0 0 -36.1 659576.6875 3477.2981)">
	<stop  offset="0" style="stop-color:#000000;stop-opacity:0.832"/>
	<stop  offset="1" style="stop-color:#000000;stop-opacity:0.831"/>
</linearGradient>
<path id="region-2-4_00000003088145897230102730000007140698633034593160_" style="fill:url(#region-2-4_00000157267397738645712110000010172378066550605710_);" d="
	M120.5,71.7c3.1,2.9,9.9,6.3,16.4,8.4c9.6,3,15.5,4.1,36.2,6.7c10.8,1.4,37.1,2.5,58,2.5c51.5,0,86-4.4,104.2-13.1
	c2.8-1.3,8.6-5.5,9.4-6.7c0.4-0.6-0.7-0.1-2.1,1.1c-1.7,1.4-9.9,5.2-14.8,6.8c-8.5,2.9-26.3,6-40.9,7.4c-16.3,1.5-23.4,1.8-48.3,2.1
	c-25.4,0.3-43.4-0.2-56.1-1.5c-2.6-0.3-8-0.8-11.9-1.1c-9-0.8-27.9-4.5-35.9-7.1c-6.4-2.1-8.8-3.1-13.8-6.2l-3.1-1.9L120.5,71.7z"/>
<linearGradient id="region-3-2_00000049936237739403193120000018355550891485976199_" gradientUnits="userSpaceOnUse" x1="-1615.3765" y1="118.7379" x2="-1615.166" y2="118.1464" gradientTransform="matrix(99.7372 0 0 -215.3959 161158.0625 25688.8223)">
	<stop  offset="0" style="stop-color:#E9E9E9;stop-opacity:0.31"/>
	<stop  offset="1" style="stop-color:#E1E1E1;stop-opacity:0.669"/>
</linearGradient>
<path id="region-3-2_00000091731978776332599320000003747740291464077470_" style="fill:url(#region-3-2_00000049936237739403193120000018355550891485976199_);stroke:#000000;stroke-miterlimit:10;" d="
	M29.5,127.2c0.2,1.1,0.6,4.6,1,8.1c0.3,3.4,1,7.3,1.3,8.7c0.4,1.4,1.3,5.2,2,8.4c0.6,3.2,2.2,9.5,3.5,14c2.1,7.4,3.2,10.9,6.8,20.2
	c2.1,5.7,7.6,16.8,11.1,22.7c2,3.2,4,6.7,4.6,7.7s1.2,1.9,1.4,2.1s1.2,1.5,2.2,2.9c3.4,5,9.8,12.5,16,18.6c3.4,3.4,5.9,5.8,5.7,5.3
	c-0.2-0.4-1-1.8-1.7-2.9c-1.3-2.1-3.6-6.4-7.6-13.9c-2.7-5.2-7-14.6-8-17.6c-0.4-1.2-1.3-3.8-2-5.6c-2.7-7.2-5.3-18.7-6.5-27.7
	c-1.3-10.4-1.9-27.8-1.3-37.7c0.3-4.9,0.4-9,0.4-9c-0.1-0.1-1.8-0.4-3.8-0.8s-4.6-1-5.9-1.2c-1.2-0.3-5.3-1.2-9-1.9
	s-7.6-1.5-8.6-1.7l-1.9-0.4L29.5,127.2z"/>
<rect x="511.5" y="148.5" class="st20" width="46" height="36"/>
<g>
	<g>
		<line class="st21" x1="424.2" y1="163" x2="499" y2="163"/>
		<g>
			<polygon class="st22" points="396,163 435.8,179.3 426.4,163 435.8,146.7 			"/>
		</g>
	</g>
</g>
</svg>
