<?xml version="1.0" standalone="no"?><!DOCTYPE svg PUBLIC "-//W3C//DTD SVG 20010904//EN" "http://www.w3.org/TR/2001/REC-SVG-20010904/DTD/svg10.dtd"><svg version="1.0" xmlns="http://www.w3.org/2000/svg" width="600pt" height="650pt" viewBox="0 0 600 650" preserveAspectRatio="xMidYMid meet"><defs><linearGradient id="linear-gradient-1-1" x1="0.00%" y1="100.00%" x2="136.38%" y2="63.31%"><stop offset="0%" style="stop-color:rgb(250,239,216);stop-opacity:0.993" /><stop offset="100%" style="stop-color:rgb(250,239,216);stop-opacity:0.994" /></linearGradient><linearGradient id="linear-gradient-1-2" x1="0.00%" y1="100.00%" x2="1.70%" y2="-35.03%"><stop offset="0%" style="stop-color:rgb(239,239,238);stop-opacity:0.992" /><stop offset="100%" style="stop-color:rgb(227,227,226);stop-opacity:0.994" /></linearGradient><linearGradient id="linear-gradient-1-3" x1="0.00%" y1="100.00%" x2="0.00%" y2="-0.00%"><stop offset="0%" style="stop-color:rgb(224,224,224);stop-opacity:0.993" /><stop offset="100%" style="stop-color:rgb(168,168,168);stop-opacity:0.998" /></linearGradient><linearGradient id="linear-gradient-1-4" x1="0.00%" y1="0.00%" x2="4.47%" y2="212.71%"><stop offset="0%" style="stop-color:rgb(51,51,51);stop-opacity:0.998" /><stop offset="100%" style="stop-color:rgb(110,110,110);stop-opacity:0.998" /></linearGradient><linearGradient id="linear-gradient-2-1" x1="0.00%" y1="100.00%" x2="0.00%" y2="-0.00%"><stop offset="0%" style="stop-color:rgb(16,16,16);stop-opacity:0.018" /><stop offset="100%" style="stop-color:rgb(0,0,0);stop-opacity:0.093" /></linearGradient><linearGradient id="linear-gradient-2-2" x1="0.00%" y1="100.00%" x2="0.00%" y2="0.00%"><stop offset="0%" style="stop-color:rgb(75,29,0);stop-opacity:0.809" /><stop offset="100%" style="stop-color:rgb(75,30,0);stop-opacity:0.820" /></linearGradient><linearGradient id="linear-gradient-2-3" x1="0.00%" y1="100.00%" x2="0.00%" y2="-0.00%"><stop offset="0%" style="stop-color:rgb(7,7,7);stop-opacity:0.790" /><stop offset="100%" style="stop-color:rgb(0,0,0);stop-opacity:0.849" /></linearGradient><linearGradient id="linear-gradient-2-4" x1="0.00%" y1="100.00%" x2="0.00%" y2="0.00%"><stop offset="0%" style="stop-color:rgb(0,0,0);stop-opacity:0.832" /><stop offset="100%" style="stop-color:rgb(0,0,0);stop-opacity:0.831" /></linearGradient><linearGradient id="linear-gradient-2-5" x1="0.00%" y1="100.00%" x2="0.37%" y2="-4.20%"><stop offset="0%" style="stop-color:rgb(162,162,162);stop-opacity:0.301" /><stop offset="100%" style="stop-color:rgb(232,232,232);stop-opacity:0.575" /></linearGradient><linearGradient id="linear-gradient-2-6" x1="0.00%" y1="100.00%" x2="1.62%" y2="-26.98%"><stop offset="0%" style="stop-color:rgb(28,28,28);stop-opacity:0.095" /><stop offset="100%" style="stop-color:rgb(0,0,0);stop-opacity:0.240" /></linearGradient><linearGradient id="linear-gradient-3-1" x1="0.00%" y1="100.00%" x2="0.00%" y2="-0.00%"><stop offset="0%" style="stop-color:rgb(255,255,233);stop-opacity:0.232" /><stop offset="100%" style="stop-color:rgb(255,255,229);stop-opacity:0.174" /></linearGradient><linearGradient id="linear-gradient-3-2" x1="0.00%" y1="100.00%" x2="37.57%" y2="-5.64%"><stop offset="0%" style="stop-color:rgb(233,233,233);stop-opacity:0.310" /><stop offset="100%" style="stop-color:rgb(225,225,225);stop-opacity:0.669" /></linearGradient><linearGradient id="linear-gradient-3-3" x1="0.00%" y1="100.00%" x2="2.76%" y2="-67.79%"><stop offset="0%" style="stop-color:rgb(252,252,252);stop-opacity:0.817" /><stop offset="100%" style="stop-color:rgb(251,251,251);stop-opacity:0.755" /></linearGradient></defs><g id="layer-1"><path d="M2940 6334 c-14 -2 -54 -12 -89 -22 -82 -22 -144 -78 -154 -138 -12 -69 -7 -138 12 -179 16 -36 109 -145 124 -145 9 0 148 -146 162 -171 63 -115 74 -155 64 -234 -8 -58 -14 -85 -39 -170 -14 -44 -83 -185 -112 -227 -24 -34 -14 -35 58 -3 66 29 180 134 201 185 9 19 28 51 44 71 16 20 29 40 29 43 0 4 16 38 35 77 44 89 46 146 9 225 -14 30 -30 54 -35 54 -5 0 -44 32 -86 71 -43 39 -89 79 -103 87 -14 9 -37 28 -51 42 -14 14 -38 33 -52 42 -29 20 -45 87 -29 122 6 11 13 29 16 38 6 22 64 46 131 56 64 10 175 -10 223 -40 20 -13 53 -31 72 -40 19 -9 54 -31 77 -49 45 -34 73 -34 73 1 0 38 -114 175 -195 235 -61 45 -291 86 -385 69z" fill="url(#linear-gradient-1-1)" id="region-1-1" transform="translate(0.000000,650.000000) scale(0.100000,-0.100000)"/><path d="M2495 4974 c-777 -42 -1252 -131 -1477 -275 -61 -39 -118 -105 -118 -136 0 -29 66 -102 128 -142 202 -128 668 -223 1282 -261 258 -16 1126 -13 1396 5 617 40 1060 136 1255 270 53 36 92 81 103 121 9 29 -39 91 -106 137 -170 116 -545 205 -1058 251 -487 44 -963 54 -1405 30z" fill="url(#linear-gradient-1-2)" id="region-1-2" transform="translate(0.000000,650.000000) scale(0.100000,-0.100000)"/><path d="M5062 4549 c-3 -27 -47 -77 -101 -115 -195 -133 -639 -229 -1255 -269 -270 -18 -1138 -21 -1396 -5 -373 23 -673 64 -922 125 -225 56 -366 122 -449 212 l-42 46 6 -114 c9 -160 32 -348 78 -639 41 -263 153 -638 271 -912 28 -64 47 -121 44 -127 -4 -6 -23 -13 -44 -17 -87 -16 -397 -135 -520 -200 -202 -107 -329 -220 -394 -352 -36 -71 -38 -80 -38 -172 0 -53 5 -112 12 -131 36 -103 138 -221 264 -303 32 -21 71 -47 87 -58 73 -50 371 -179 489 -212 29 -8 94 -26 143 -40 322 -91 673 -149 1125 -187 205 -17 789 -23 985 -10 401 26 424 29 809 87 130 19 469 99 613 143 465 144 793 365 861 582 6 19 11 77 12 131 0 93 -1 99 -40 175 -66 128 -164 217 -359 327 -136 78 -397 180 -568 224 -37 10 -68 22 -70 28 -7 20 42 79 63 76 10 -2 90 -6 178 -9 171 -6 209 0 344 55 95 38 199 143 234 237 46 121 52 154 51 300 -1 364 -117 538 -376 565 -45 4 -94 6 -109 3 -16 -3 -28 -4 -28 -2 0 2 6 60 14 129 26 226 38 374 34 410 -3 19 -6 28 -6 19z m101 -854 c56 -26 85 -83 96 -188 9 -90 0 -171 -24 -217 -54 -101 -188 -169 -362 -183 -46 -4 -63 -2 -63 7 0 7 11 46 26 87 14 41 31 97 39 124 7 28 25 93 40 145 15 52 33 126 41 164 7 38 19 74 26 78 20 14 140 3 181 -17z" fill="url(#linear-gradient-1-3)" id="region-1-3" transform="translate(0.000000,650.000000) scale(0.100000,-0.100000)"/><path d="M480 1632 c0 -12 111 -125 170 -173 238 -192 736 -369 1275 -453 285 -44 395 -56 675 -72 714 -41 1462 30 2025 193 302 87 579 214 723 330 85 70 189 183 167 183 -3 0 -33 -22 -68 -48 -135 -105 -368 -215 -620 -293 -144 -44 -483 -124 -613 -143 -385 -58 -408 -61 -809 -87 -196 -13 -780 -7 -985 10 -452 38 -803 96 -1125 187 -49 14 -114 32 -143 40 -118 33 -416 162 -489 212 -16 11 -54 37 -86 58 -32 21 -66 45 -77 53 -11 7 -20 9 -20 3z" fill="url(#linear-gradient-1-4)" id="region-1-4" transform="translate(0.000000,650.000000) scale(0.100000,-0.100000)"/></g><g id="layer-2"><path d="M2320 4870 c-646 -40 -982 -94 -1182 -187 -78 -37 -148 -96 -148 -125 0 -24 88 -94 150 -120 63 -25 66 -26 80 -8 42 51 165 97 400 149 57 13 362 47 534 61 167 13 1515 13 1671 0 197 -17 472 -50 548 -65 189 -40 327 -92 364 -138 14 -18 24 -22 43 -17 84 23 190 101 190 139 0 27 -36 68 -83 95 -159 93 -504 164 -952 196 -83 6 -204 16 -270 22 -66 6 -329 12 -585 14 -366 2 -528 -1 -760 -16z" fill="url(#linear-gradient-2-1)" id="region-2-1" transform="translate(0.000000,650.000000) scale(0.100000,-0.100000)"/><path d="M2130 4639 c-430 -35 -712 -89 -843 -162 -37 -21 -67 -44 -67 -51 0 -29 341 -102 592 -126 355 -35 513 -42 1013 -47 907 -9 1483 35 1868 144 31 9 57 19 57 23 0 12 -44 47 -86 68 -131 66 -402 115 -839 152 -144 12 -1543 11 -1695 -1z" fill="url(#linear-gradient-2-2)" id="region-2-2" transform="translate(0.000000,650.000000) scale(0.100000,-0.100000)"/><path d="M950 4052 c0 -16 93 -88 149 -116 198 -99 506 -167 961 -211 232 -23 822 -38 1200 -31 363 7 642 26 870 57 80 11 174 24 210 29 36 5 74 11 85 14 11 3 75 19 142 36 173 42 321 105 405 172 45 35 52 59 8 28 -60 -43 -137 -78 -255 -118 -116 -39 -146 -46 -305 -76 -324 -62 -911 -106 -1418 -106 -467 0 -1159 45 -1372 90 -25 5 -94 19 -153 30 -199 38 -436 129 -504 192 -13 12 -23 16 -23 10z" fill="url(#linear-gradient-2-3)" id="region-2-3" transform="translate(0.000000,650.000000) scale(0.100000,-0.100000)"/><path d="M1005 3925 c56 -51 177 -113 293 -150 172 -54 277 -74 647 -120 193 -25 663 -45 1035 -45 920 0 1536 78 1860 234 50 24 154 98 167 119 7 11 -13 1 -37 -19 -30 -25 -177 -93 -265 -122 -151 -51 -469 -108 -730 -132 -291 -26 -418 -32 -863 -37 -454 -5 -775 3 -1002 27 -47 5 -143 14 -213 20 -161 14 -498 80 -641 126 -115 37 -157 56 -246 111 l-55 34 50 -46z" fill="url(#linear-gradient-2-4)" id="region-2-4" transform="translate(0.000000,650.000000) scale(0.100000,-0.100000)"/><path d="M1280 2743 c-14 -7 -33 -13 -42 -13 -23 0 -201 -63 -333 -117 -303 -126 -484 -263 -567 -431 -36 -71 -38 -80 -38 -172 0 -53 5 -112 12 -131 36 -103 138 -221 264 -303 32 -21 71 -47 87 -58 73 -50 371 -179 489 -212 29 -8 94 -26 143 -40 322 -91 673 -149 1125 -187 205 -17 789 -23 985 -10 401 26 424 29 809 87 130 19 469 99 613 143 465 144 793 365 861 582 6 19 11 77 12 131 0 93 -1 99 -40 175 -66 128 -164 217 -359 327 -137 78 -390 178 -571 225 l-71 19 -9 -24 c-5 -13 -37 -71 -72 -129 -35 -59 -71 -119 -80 -135 -9 -16 -46 -67 -82 -115 -36 -47 -66 -90 -66 -95 0 -6 20 -19 45 -31 54 -26 126 -88 155 -134 29 -46 29 -132 2 -177 -81 -130 -357 -253 -716 -318 -324 -58 -406 -64 -841 -64 -426 0 -486 5 -805 59 -515 89 -817 269 -761 455 16 53 90 132 156 166 30 16 55 32 55 36 0 4 -8 13 -19 20 -18 13 -30 29 -134 178 -52 75 -137 217 -137 229 0 3 -10 22 -23 42 -21 33 -24 35 -47 22z" fill="url(#linear-gradient-2-5)" id="region-2-5" transform="translate(0.000000,650.000000) scale(0.100000,-0.100000)"/><path d="M4239 2156 c-58 -56 -118 -111 -134 -123 -106 -78 -158 -114 -220 -149 -74 -41 -250 -124 -265 -124 -5 0 -21 -5 -37 -12 -15 -6 -32 -12 -38 -13 -5 -2 -35 -10 -66 -19 -51 -15 -192 -41 -279 -50 -41 -5 -391 -5 -435 -1 -16 2 -46 6 -65 9 -19 4 -60 10 -90 15 -30 5 -67 12 -81 16 -14 3 -32 7 -40 9 -8 2 -27 8 -43 15 -16 6 -36 13 -45 15 -9 2 -25 6 -36 10 -11 5 -36 14 -55 21 -119 44 -341 172 -438 252 -83 69 -135 116 -182 165 l-50 53 -56 -29 c-65 -34 -139 -113 -155 -166 -56 -186 246 -366 761 -455 319 -54 379 -59 805 -59 435 0 517 6 841 64 359 65 635 188 716 318 27 45 27 131 -2 177 -28 46 -96 104 -157 136 l-51 26 -103 -101z" fill="url(#linear-gradient-2-6)" id="region-2-6" transform="translate(0.000000,650.000000) scale(0.100000,-0.100000)"/></g><g id="layer-3"><path d="M2513 4641 c-201 -6 -214 -7 -234 -28 -20 -20 -21 -25 -9 -53 18 -43 85 -109 152 -148 137 -81 322 -123 543 -124 223 -1 361 27 523 103 121 58 225 173 197 218 -3 6 -23 15 -43 20 -46 12 -841 21 -1129 12z" fill="url(#linear-gradient-3-1)" id="region-3-1" transform="translate(0.000000,650.000000) scale(0.100000,-0.100000)"/><path d="M1183 4149 c4 -19 11 -83 18 -144 6 -60 17 -130 24 -155 8 -25 23 -92 35 -150 11 -58 39 -170 62 -250 37 -132 58 -195 121 -360 38 -101 135 -300 199 -406 35 -58 71 -120 82 -137 10 -18 21 -34 25 -37 4 -3 22 -26 39 -52 61 -89 175 -223 285 -333 60 -60 106 -103 101 -95 -4 8 -18 32 -31 52 -23 38 -65 115 -135 248 -49 92 -125 261 -143 315 -7 22 -23 67 -35 100 -48 129 -95 334 -116 495 -23 186 -34 496 -23 674 5 87 8 160 7 161 -2 1 -32 7 -68 14 -36 7 -83 17 -105 22 -22 6 -94 21 -160 34 -66 13 -135 27 -154 31 l-34 7 6 -34z" fill="url(#linear-gradient-3-2)" id="region-3-2" transform="translate(0.000000,650.000000) scale(0.100000,-0.100000)"/><path d="M300 1933 c0 -96 126 -259 276 -357 32 -21 71 -47 87 -58 73 -50 371 -179 489 -212 29 -8 94 -26 143 -40 322 -91 673 -149 1125 -187 205 -17 789 -23 985 -10 401 26 424 29 809 87 130 19 469 99 613 143 464 143 784 359 861 580 20 58 14 81 -9 31 -54 -118 -140 -211 -284 -304 -258 -167 -648 -301 -1135 -390 -773 -141 -1747 -141 -2520 0 -289 53 -649 152 -820 226 -311 134 -505 280 -583 437 -21 40 -37 65 -37 54z" fill="url(#linear-gradient-3-3)" id="region-3-3" transform="translate(0.000000,650.000000) scale(0.100000,-0.100000)"/></g></svg>