<?xml version="1.0" standalone="no"?>
<!DOCTYPE svg PUBLIC "-//W3C//DTD SVG 20010904//EN"
 "http://www.w3.org/TR/2001/REC-SVG-20010904/DTD/svg10.dtd">
<svg version="1.0" xmlns="http://www.w3.org/2000/svg"
 width="600.000000pt" height="650.000000pt" viewBox="0 0 600.000000 650.000000"
 preserveAspectRatio="xMidYMid meet">
<defs>
<linearGradient id="grad_0" x1="100%" y1="0%" x2="96%" y2="102%">
<stop offset="0%" style="stop-color:rgb(245, 245, 245); stop-opacity:1"/>
<stop offset="100%" style="stop-color:rgb(255, 255, 255); stop-opacity:1"/>
</linearGradient>
<linearGradient id="grad_1" x1="73%" y1="96%" x2="-2%" y2="10%">
<stop offset="0%" style="stop-color:rgb(251, 239, 216); stop-opacity:1"/>
<stop offset="100%" style="stop-color:rgb(251, 240, 217); stop-opacity:1"/>
</linearGradient>
<linearGradient id="grad_2" x1="54%" y1="100%" x2="53%" y2="0%">
<stop offset="0%" style="stop-color:rgb(127, 127, 127); stop-opacity:1"/>
<stop offset="100%" style="stop-color:rgb(202, 202, 202); stop-opacity:1"/>
</linearGradient>
<linearGradient id="grad_3" x1="54%" y1="0%" x2="54%" y2="100%">
<stop offset="0%" style="stop-color:rgb(122, 88, 59); stop-opacity:1"/>
<stop offset="100%" style="stop-color:rgb(145, 117, 92); stop-opacity:1"/>
</linearGradient>
<linearGradient id="grad_4" x1="48%" y1="0%" x2="48%" y2="89%">
<stop offset="0%" style="stop-color:rgb(14, 14, 14); stop-opacity:1"/>
<stop offset="100%" style="stop-color:rgb(46, 46, 46); stop-opacity:1"/>
</linearGradient>
<linearGradient id="grad_5" x1="94%" y1="0%" x2="94%" y2="100%">
<stop offset="0%" style="stop-color:rgb(193, 192, 191); stop-opacity:1"/>
<stop offset="100%" style="stop-color:rgb(237, 237, 237); stop-opacity:1"/>
</linearGradient>
<linearGradient id="grad_6" x1="42%" y1="0%" x2="42%" y2="101%">
<stop offset="0%" style="stop-color:rgb(107, 107, 107); stop-opacity:1"/>
<stop offset="100%" style="stop-color:rgb(182, 182, 182); stop-opacity:1"/>
</linearGradient>
<linearGradient id="grad_7" x1="71%" y1="100%" x2="71%" y2="-2%">
<stop offset="0%" style="stop-color:rgb(92, 52, 18); stop-opacity:1"/>
<stop offset="100%" style="stop-color:rgb(97, 58, 25); stop-opacity:1"/>
</linearGradient>
<linearGradient id="grad_8" x1="46%" y1="0%" x2="46%" y2="101%">
<stop offset="0%" style="stop-color:rgb(51, 51, 51); stop-opacity:1"/>
<stop offset="100%" style="stop-color:rgb(172, 172, 172); stop-opacity:1"/>
</linearGradient>
<linearGradient id="grad_9" x1="0%" y1="100%" x2="100%" y2="100%">
<stop offset="0%" style="stop-color:rgb(255, 255, 255); stop-opacity:0.914562"/>
<stop offset="100%" style="stop-color:rgb(255, 255, 255); stop-opacity:0.914562"/>
</linearGradient>
<linearGradient id="grad_10" x1="0%" y1="99%" x2="100%" y2="99%">
<stop offset="0%" style="stop-color:rgb(255, 255, 255); stop-opacity:0.564842"/>
<stop offset="100%" style="stop-color:rgb(255, 255, 255); stop-opacity:0.564842"/>
</linearGradient>
<linearGradient id="grad_11" x1="0%" y1="31%" x2="100%" y2="31%">
<stop offset="0%" style="stop-color:rgb(0, 0, 0); stop-opacity:0.906107"/>
<stop offset="100%" style="stop-color:rgb(0, 0, 0); stop-opacity:0.906107"/>
</linearGradient>
<linearGradient id="grad_12" x1="0%" y1="100%" x2="100%" y2="100%">
<stop offset="0%" style="stop-color:rgb(0, 0, 0); stop-opacity:0.336736"/>
<stop offset="100%" style="stop-color:rgb(0, 0, 0); stop-opacity:0.336736"/>
</linearGradient>
<linearGradient id="grad_13" x1="0%" y1="51%" x2="100%" y2="51%">
<stop offset="0%" style="stop-color:rgb(255, 255, 255); stop-opacity:0.801983"/>
<stop offset="100%" style="stop-color:rgb(255, 255, 255); stop-opacity:0.801983"/>
</linearGradient>
<linearGradient id="grad_14" x1="0%" y1="100%" x2="100%" y2="100%">
<stop offset="0%" style="stop-color:rgb(0, 0, 0); stop-opacity:0.801697"/>
<stop offset="100%" style="stop-color:rgb(0, 0, 0); stop-opacity:0.801697"/>
</linearGradient>
<linearGradient id="grad_15" x1="0%" y1="4%" x2="100%" y2="4%">
<stop offset="0%" style="stop-color:rgb(255, 255, 255); stop-opacity:0.989722"/>
<stop offset="100%" style="stop-color:rgb(255, 255, 255); stop-opacity:0.989722"/>
</linearGradient>
<linearGradient id="grad_16" x1="0%" y1="100%" x2="100%" y2="100%">
<stop offset="0%" style="stop-color:rgb(0, 0, 0); stop-opacity:0.766831"/>
<stop offset="100%" style="stop-color:rgb(0, 0, 0); stop-opacity:0.766831"/>
</linearGradient>
<linearGradient id="grad_17" x1="0%" y1="100%" x2="100%" y2="100%">
<stop offset="0%" style="stop-color:rgb(0, 0, 0); stop-opacity:0.314309"/>
<stop offset="100%" style="stop-color:rgb(0, 0, 0); stop-opacity:0.314309"/>
</linearGradient>
<linearGradient id="grad_18" x1="0%" y1="100%" x2="100%" y2="100%">
<stop offset="0%" style="stop-color:rgb(255, 255, 255); stop-opacity:0.672441"/>
<stop offset="100%" style="stop-color:rgb(255, 255, 255); stop-opacity:0.672441"/>
</linearGradient>
</defs>
<g transform="translate(0.000000,650.000000) scale(0.100000,-0.100000)"
fill="url(#grad_0)" stroke="none">
<g>
<path d="M0 3250 l0 -3250 3000 0 3000 0 0 3250 0 3250 -3000 0 -3000 0 0
-3250z"/>
</g>
</g>
<g transform="translate(0.000000,650.000000) scale(0.100000,-0.100000)"
fill="url(#grad_1)" stroke="none">
<g>
<path d="M2940 6334 c-14 -2 -54 -12 -89 -22 -82 -22 -144 -78 -154 -138 -12
-69 -7 -138 12 -179 16 -36 109 -145 124 -145 9 0 148 -146 162 -171 63 -115
74 -155 64 -234 -8 -58 -14 -85 -39 -170 -14 -44 -83 -185 -112 -227 -24 -34
-14 -35 58 -3 66 29 180 134 201 185 9 19 28 51 44 71 16 20 29 40 29 43 0 4
16 38 35 77 44 89 46 146 9 225 -14 30 -30 54 -35 54 -5 0 -44 32 -86 71 -43
39 -89 79 -103 87 -14 9 -37 28 -51 42 -14 14 -38 33 -52 42 -29 20 -45 87
-29 122 6 11 13 29 16 38 6 22 64 46 131 56 64 10 175 -10 223 -40 20 -13 53
-31 72 -40 19 -9 54 -31 77 -49 45 -34 73 -34 73 1 0 38 -114 175 -195 235
-61 45 -291 86 -385 69z"/>
</g>
</g>
<g transform="translate(0.000000,650.000000) scale(0.100000,-0.100000)"
fill="url(#grad_2)" stroke="none">
<g>
<path d="M2495 4974 c-898 -49 -1399 -160 -1561 -348 l-36 -41 5 -135 c7 -169
28 -341 78 -660 41 -263 153 -638 271 -912 28 -64 47 -121 44 -127 -4 -6 -23
-13 -44 -17 -87 -16 -397 -135 -520 -200 -202 -107 -329 -220 -395 -352 -33
-67 -37 -83 -37 -152 0 -69 4 -85 37 -151 78 -157 272 -303 583 -437 171 -74
531 -173 820 -226 773 -141 1747 -141 2520 0 487 89 877 223 1135 390 203 131
301 268 304 425 2 70 -1 81 -39 155 -66 129 -163 217 -359 328 -136 78 -397
180 -568 224 -37 10 -68 22 -70 28 -7 20 42 79 63 76 10 -2 90 -6 178 -9 171
-6 209 0 344 55 95 38 199 143 234 237 46 121 52 154 51 300 -1 364 -117 538
-376 565 -45 4 -95 6 -110 3 l-29 -6 6 47 c24 188 46 424 46 487 0 46 -5 63
-28 95 -114 156 -519 273 -1142 328 -487 44 -963 54 -1405 30z"/>
</g>
</g>
<g transform="translate(0.000000,650.000000) scale(0.100000,-0.100000)"
fill="url(#grad_3)" stroke="none">
<g>
<path d="M2513 4641 c-201 -6 -214 -7 -234 -28 -20 -20 -21 -25 -9 -53 18 -43
85 -109 152 -148 137 -81 322 -123 543 -124 223 -1 361 27 523 103 121 58 225
173 197 218 -3 6 -23 15 -43 20 -46 12 -841 21 -1129 12z"/>
</g>
</g>
<g transform="translate(0.000000,650.000000) scale(0.100000,-0.100000)"
fill="url(#grad_4)" stroke="none">
<g>
<path d="M4978 4029 c-55 -40 -137 -78 -253 -117 -116 -39 -146 -46 -305 -76
-323 -62 -911 -106 -1416 -106 -418 0 -1064 38 -1291 77 -28 4 -33 2 -33 -15
0 -17 11 -21 78 -31 337 -50 596 -64 1237 -64 615 -1 809 9 1135 54 80 11 174
24 210 29 36 5 74 11 85 14 11 3 76 19 145 36 173 43 330 111 410 179 40 33
39 49 -2 20z"/>
</g>
</g>
<g transform="translate(0.000000,650.000000) scale(0.100000,-0.100000)"
fill="url(#grad_5)" stroke="none">
<g>
<path d="M2320 4870 c-646 -40 -982 -94 -1182 -187 -78 -37 -148 -96 -148
-125 0 -24 88 -94 150 -120 63 -25 66 -26 80 -8 42 51 165 97 400 149 57 13
362 47 534 61 167 13 1515 13 1671 0 197 -17 472 -50 548 -65 189 -40 327 -92
364 -138 14 -18 24 -22 43 -17 84 23 190 101 190 139 0 27 -36 68 -83 95 -159
93 -504 164 -952 196 -83 6 -204 16 -270 22 -66 6 -329 12 -585 14 -366 2
-528 -1 -760 -16z"/>
</g>
</g>
<g transform="translate(0.000000,650.000000) scale(0.100000,-0.100000)"
fill="url(#grad_6)" stroke="none">
<g>
<path d="M4239 2156 c-58 -56 -118 -111 -134 -123 -106 -78 -158 -114 -220
-149 -74 -41 -250 -124 -265 -124 -5 0 -21 -5 -37 -12 -15 -6 -32 -12 -38 -13
-5 -2 -35 -10 -66 -19 -51 -15 -192 -41 -279 -50 -41 -5 -391 -5 -435 -1 -16
2 -46 6 -65 9 -19 4 -60 10 -90 15 -30 5 -67 12 -81 16 -14 3 -32 7 -40 9 -8
2 -27 8 -43 15 -16 6 -36 13 -45 15 -9 2 -25 6 -36 10 -11 5 -36 14 -55 21
-119 44 -341 172 -438 252 -83 69 -135 116 -182 165 l-50 53 -56 -29 c-65 -34
-139 -113 -155 -166 -56 -186 246 -366 761 -455 319 -54 379 -59 805 -59 435
0 517 6 841 64 359 65 635 188 716 318 27 45 27 131 -2 177 -28 46 -96 104
-157 136 l-51 26 -103 -101z"/>
</g>
</g>
<g transform="translate(0.000000,650.000000) scale(0.100000,-0.100000)"
fill="url(#grad_7)" stroke="none">
<g>
<path d="M2130 4639 c-430 -35 -712 -89 -843 -162 -37 -21 -67 -44 -67 -51 0
-29 341 -102 592 -126 355 -35 513 -42 1013 -47 907 -9 1483 35 1868 144 31 9
57 19 57 23 0 4 -10 16 -22 27 -76 69 -292 127 -605 162 -302 35 -410 41 -653
39 l-235 -2 205 -5 c207 -6 250 -14 250 -46 0 -58 -92 -151 -203 -204 -161
-76 -299 -104 -522 -103 -221 1 -406 43 -543 124 -67 39 -134 105 -152 148
-12 28 -11 33 9 53 20 21 33 22 234 28 l212 5 -245 1 c-135 0 -292 -4 -350 -8z"/>
</g>
</g>
<g transform="translate(0.000000,650.000000) scale(0.100000,-0.100000)"
fill="url(#grad_8)" stroke="none">
<g>
<path d="M300 1933 c0 -56 67 -176 135 -243 25 -24 45 -49 45 -56 0 -14 107
-124 170 -175 238 -192 736 -369 1275 -453 285 -44 395 -56 675 -72 714 -41
1462 30 2025 193 302 87 579 214 723 330 87 71 171 163 160 176 -1 1 21 24 49
50 73 69 143 192 143 251 0 14 -7 6 -21 -24 -54 -118 -140 -211 -284 -304
-258 -167 -648 -301 -1135 -390 -773 -141 -1747 -141 -2520 0 -289 53 -649
152 -820 226 -311 134 -505 280 -583 437 -21 40 -37 65 -37 54z"/>
</g>
</g>
<g transform="translate(0.000000,650.000000) scale(0.100000,-0.100000)"
fill="url(#grad_9)" stroke="none">
<g>
<path d="M300 1933 c0 -96 126 -259 276 -357 32 -21 71 -47 87 -58 73 -50 371
-179 489 -212 29 -8 94 -26 143 -40 322 -91 673 -149 1125 -187 205 -17 789
-23 985 -10 401 26 424 29 809 87 130 19 469 99 613 143 464 143 784 359 861
580 20 58 14 81 -9 31 -54 -118 -140 -211 -284 -304 -258 -167 -648 -301
-1135 -390 -773 -141 -1747 -141 -2520 0 -289 53 -649 152 -820 226 -311 134
-505 280 -583 437 -21 40 -37 65 -37 54z"/>
</g>
</g>
<g transform="translate(0.000000,650.000000) scale(0.100000,-0.100000)"
fill="url(#grad_10)" stroke="none">
<g>
<path d="M5062 4549 c-3 -27 -47 -77 -101 -115 -195 -133 -639 -229 -1255
-269 -270 -18 -1138 -21 -1396 -5 -373 23 -673 64 -922 125 -225 56 -366 122
-449 212 l-42 46 6 -114 c9 -160 32 -348 78 -639 14 -93 74 -347 111 -470 99
-337 240 -647 395 -870 93 -133 109 -155 134 -182 13 -14 44 -47 69 -74 41
-45 99 -98 182 -167 96 -79 319 -208 438 -252 19 -7 44 -16 55 -21 11 -4 27
-8 36 -10 9 -2 29 -9 45 -15 16 -7 35 -13 43 -15 8 -2 26 -6 40 -9 14 -4 51
-11 81 -16 30 -5 71 -11 90 -15 19 -3 49 -7 65 -9 44 -4 394 -4 435 1 87 9
228 35 279 50 31 9 61 17 66 19 6 1 23 7 38 13 16 7 32 12 37 12 15 0 191 83
265 124 62 35 117 72 220 149 107 80 327 327 402 452 95 159 137 234 153 279
28 75 44 86 100 76 79 -16 307 -12 369 6 131 38 181 65 255 138 60 59 77 83
98 141 46 121 52 154 51 300 -1 364 -117 538 -376 565 -45 4 -94 6 -109 3 -16
-3 -28 -4 -28 -2 0 2 6 60 14 129 26 226 38 374 34 410 -3 19 -6 28 -6 19z
m-3697 -404 c66 -13 140 -29 165 -35 25 -6 73 -16 107 -22 l62 -12 -6 -132 -6
-132 29 -5 c184 -36 871 -77 1288 -77 505 0 1093 44 1416 106 159 30 189 37
305 76 118 40 195 75 255 118 44 31 37 7 -8 -28 -84 -67 -232 -130 -405 -172
-67 -17 -131 -33 -142 -36 -11 -3 -49 -9 -85 -14 -36 -5 -130 -18 -210 -29
-365 -51 -956 -70 -1560 -52 -721 22 -1194 98 -1471 237 -54 27 -149 100 -149
115 0 6 14 -1 31 -15 55 -46 229 -125 229 -103 0 1 -7 57 -15 122 -8 66 -15
122 -15 124 0 2 15 0 33 -3 17 -4 86 -18 152 -31z m-259 -263 c128 -65 547
-161 791 -182 70 -6 166 -15 213 -20 227 -24 548 -32 1002 -27 445 5 572 11
863 37 261 24 579 81 730 132 88 29 235 97 265 122 24 20 44 30 37 19 -13 -21
-117 -95 -167 -119 -244 -118 -648 -190 -1225 -219 -371 -19 -901 -19 -1265 0
-277 14 -372 23 -667 65 -306 42 -565 132 -678 235 l-50 46 55 -34 c30 -19 73
-44 96 -55z m4057 -187 c56 -26 85 -83 96 -188 9 -90 0 -171 -24 -217 -54
-101 -188 -169 -362 -183 -46 -4 -63 -2 -63 7 0 7 11 46 26 87 14 41 31 97 39
124 7 28 25 93 40 145 15 52 33 126 41 164 7 38 19 74 26 78 20 14 140 3 181
-17z"/>
</g>
</g>
<g transform="translate(0.000000,650.000000) scale(0.100000,-0.100000)"
fill="url(#grad_11)" stroke="none">
<g>
<path d="M4978 3951 c-41 -32 -178 -97 -273 -129 -91 -31 -384 -92 -530 -111
-91 -11 -258 -27 -455 -42 -218 -17 -1061 -23 -1297 -10 -289 16 -690 53 -728
67 -10 4 -15 0 -15 -14 0 -23 1 -24 225 -52 370 -47 1148 -63 1710 -35 577 29
981 101 1225 219 64 31 190 126 167 126 -2 0 -15 -9 -29 -19z"/>
</g>
</g>
<g transform="translate(0.000000,650.000000) scale(0.100000,-0.100000)"
fill="url(#grad_12)" stroke="none">
<g>
<path d="M1210 3902 c0 -13 15 -23 53 -35 86 -29 288 -77 355 -86 55 -7 62 -6
62 10 0 19 -15 23 -203 59 -60 11 -143 32 -184 45 -90 30 -83 29 -83 7z"/>
</g>
</g>
<g transform="translate(0.000000,650.000000) scale(0.100000,-0.100000)"
fill="url(#grad_13)" stroke="none">
<g>
<path d="M2495 4974 c-777 -42 -1252 -131 -1477 -275 -61 -39 -118 -105 -118
-136 0 -29 66 -102 128 -142 202 -128 668 -223 1282 -261 258 -16 1126 -13
1396 5 617 40 1060 136 1255 270 53 36 92 81 103 121 9 29 -39 91 -106 137
-170 116 -545 205 -1058 251 -487 44 -963 54 -1405 30z m1170 -102 c66 -6 187
-16 270 -22 532 -38 925 -133 1014 -246 29 -37 26 -58 -15 -98 -44 -43 -104
-71 -214 -102 -224 -61 -378 -87 -675 -114 -390 -35 -658 -43 -1220 -37 -783
8 -1219 48 -1544 143 -29 9 -64 18 -78 20 -75 14 -213 107 -213 144 0 5 15 26
32 46 88 101 400 186 838 229 396 39 739 54 1220 51 256 -2 519 -8 585 -14z"/>
</g>
</g>
<g transform="translate(0.000000,650.000000) scale(0.100000,-0.100000)"
fill="url(#grad_14)" stroke="none">
<g>
<path d="M975 3950 c34 -37 107 -85 183 -120 40 -18 75 -31 77 -28 13 12 -9
37 -38 44 -39 8 -112 44 -187 92 -40 25 -50 29 -35 12z"/>
</g>
</g>
<g transform="translate(0.000000,650.000000) scale(0.100000,-0.100000)"
fill="url(#grad_15)" stroke="none">
<g>
<path d="M4982 3712 c-7 -4 -19 -40 -26 -78 -8 -38 -26 -112 -41 -164 -15 -52
-33 -117 -40 -145 -8 -27 -25 -83 -39 -124 -15 -41 -26 -80 -26 -87 0 -29 203
7 292 52 128 65 174 166 157 341 -11 105 -40 162 -96 188 -41 20 -161 31 -181
17z"/>
</g>
</g>
<g transform="translate(0.000000,650.000000) scale(0.100000,-0.100000)"
fill="url(#grad_16)" stroke="none">
<g>
<path d="M950 4051 c0 -19 103 -93 177 -128 39 -18 74 -33 77 -33 3 0 6 9 6
20 0 13 -7 20 -18 20 -26 0 -174 74 -211 106 -17 14 -31 21 -31 15z"/>
</g>
</g>
<g transform="translate(0.000000,650.000000) scale(0.100000,-0.100000)"
fill="url(#grad_17)" stroke="none">
<g>
<path d="M1237 3811 c4 -14 25 -26 72 -40 87 -27 262 -68 324 -76 43 -6 47 -4
47 14 0 12 -3 21 -7 21 -26 1 -346 71 -382 84 -56 20 -60 20 -54 -3z"/>
</g>
</g>
<g transform="translate(0.000000,650.000000) scale(0.100000,-0.100000)"
fill="url(#grad_18)" stroke="none">
<g>
<path d="M1180 4179 c0 -2 7 -58 15 -124 8 -65 15 -122 15 -126 0 -12 155 -58
267 -79 60 -12 130 -26 156 -32 26 -5 49 -9 51 -7 2 2 6 63 9 135 l6 130 -62
12 c-34 6 -82 16 -107 22 -25 6 -99 22 -165 35 -66 13 -135 27 -152 31 -18 3
-33 5 -33 3z"/>
</g>
</g>
</svg>
