<?xml version="1.0" standalone="no"?>
<!DOCTYPE svg PUBLIC "-//W3C//DTD SVG 20010904//EN"
 "http://www.w3.org/TR/2001/REC-SVG-20010904/DTD/svg10.dtd">
<svg version="1.0" xmlns="http://www.w3.org/2000/svg"
 width="434.000000pt" height="701.000000pt" viewBox="0 0 434.000000 701.000000"
 preserveAspectRatio="xMidYMid meet">
<defs>
<linearGradient id="grad_0" x1="0%" y1="0%" x2="115%" y2="24%">
<stop offset="0%" style="stop-color:rgb(234, 225, 172); stop-opacity:1"/>
<stop offset="100%" style="stop-color:rgb(238, 228, 177); stop-opacity:1"/>
</linearGradient>
<linearGradient id="grad_1" x1="0%" y1="9%" x2="109%" y2="72%">
<stop offset="0%" style="stop-color:rgb(51, 139, 54); stop-opacity:1"/>
<stop offset="100%" style="stop-color:rgb(54, 144, 57); stop-opacity:1"/>
</linearGradient>
<linearGradient id="grad_2" x1="0%" y1="63%" x2="100%" y2="63%">
<stop offset="0%" style="stop-color:rgb(212, 65, 41); stop-opacity:1"/>
<stop offset="100%" style="stop-color:rgb(212, 65, 41); stop-opacity:1"/>
</linearGradient>
<linearGradient id="grad_3" x1="0%" y1="70%" x2="100%" y2="70%">
<stop offset="0%" style="stop-color:rgb(160, 216, 231); stop-opacity:1"/>
<stop offset="100%" style="stop-color:rgb(160, 216, 231); stop-opacity:1"/>
</linearGradient>
<linearGradient id="grad_4" x1="59%" y1="0%" x2="59%" y2="100%">
<stop offset="0%" style="stop-color:rgb(160, 165, 164); stop-opacity:1"/>
<stop offset="100%" style="stop-color:rgb(170, 171, 173); stop-opacity:1"/>
</linearGradient>
<linearGradient id="grad_5" x1="4%" y1="76%" x2="7%" y2="-120%">
<stop offset="0%" style="stop-color:rgb(202, 203, 205); stop-opacity:1"/>
<stop offset="100%" style="stop-color:rgb(255, 255, 255); stop-opacity:1"/>
</linearGradient>
<linearGradient id="grad_6" x1="0%" y1="61%" x2="100%" y2="61%">
<stop offset="0%" style="stop-color:rgb(114, 147, 189); stop-opacity:1"/>
<stop offset="100%" style="stop-color:rgb(114, 147, 189); stop-opacity:1"/>
</linearGradient>
<linearGradient id="grad_7" x1="0%" y1="76%" x2="100%" y2="76%">
<stop offset="0%" style="stop-color:rgb(165, 52, 33); stop-opacity:1"/>
<stop offset="100%" style="stop-color:rgb(165, 52, 33); stop-opacity:1"/>
</linearGradient>
<linearGradient id="grad_8" x1="0%" y1="66%" x2="100%" y2="66%">
<stop offset="0%" style="stop-color:rgb(121, 148, 186); stop-opacity:1"/>
<stop offset="100%" style="stop-color:rgb(121, 148, 186); stop-opacity:1"/>
</linearGradient>
<linearGradient id="grad_9" x1="0%" y1="31%" x2="100%" y2="31%">
<stop offset="0%" style="stop-color:rgb(212, 65, 41); stop-opacity:1"/>
<stop offset="100%" style="stop-color:rgb(212, 65, 41); stop-opacity:1"/>
</linearGradient>
<linearGradient id="grad_10" x1="81%" y1="98%" x2="-8%" y2="28%">
<stop offset="0%" style="stop-color:rgb(165, 52, 32); stop-opacity:1"/>
<stop offset="100%" style="stop-color:rgb(165, 53, 33); stop-opacity:1"/>
</linearGradient>
<linearGradient id="grad_11" x1="0%" y1="52%" x2="100%" y2="52%">
<stop offset="0%" style="stop-color:rgb(115, 146, 188); stop-opacity:1"/>
<stop offset="100%" style="stop-color:rgb(115, 146, 188); stop-opacity:1"/>
</linearGradient>
<linearGradient id="grad_12" x1="0%" y1="84%" x2="0%" y2="-66%">
<stop offset="0%" style="stop-color:rgb(115, 183, 150); stop-opacity:1"/>
<stop offset="100%" style="stop-color:rgb(138, 196, 187); stop-opacity:1"/>
</linearGradient>
<linearGradient id="grad_13" x1="0%" y1="30%" x2="100%" y2="30%">
<stop offset="0%" style="stop-color:rgb(155, 216, 232); stop-opacity:1"/>
<stop offset="100%" style="stop-color:rgb(155, 216, 232); stop-opacity:1"/>
</linearGradient>
<linearGradient id="grad_14" x1="100%" y1="100%" x2="100%" y2="2%">
<stop offset="0%" style="stop-color:rgb(118, 132, 124); stop-opacity:1"/>
<stop offset="100%" style="stop-color:rgb(169, 171, 173); stop-opacity:1"/>
</linearGradient>
<linearGradient id="grad_15" x1="0%" y1="87%" x2="100%" y2="87%">
<stop offset="0%" style="stop-color:rgb(248, 254, 254); stop-opacity:0.627529"/>
<stop offset="100%" style="stop-color:rgb(248, 254, 254); stop-opacity:0.627529"/>
</linearGradient>
<linearGradient id="grad_16" x1="0%" y1="100%" x2="100%" y2="100%">
<stop offset="0%" style="stop-color:rgb(0, 0, 0); stop-opacity:0.208259"/>
<stop offset="100%" style="stop-color:rgb(0, 0, 0); stop-opacity:0.208259"/>
</linearGradient>
<linearGradient id="grad_17" x1="0%" y1="100%" x2="100%" y2="100%">
<stop offset="0%" style="stop-color:rgb(171, 255, 229); stop-opacity:1.00961"/>
<stop offset="100%" style="stop-color:rgb(171, 255, 229); stop-opacity:1.00961"/>
</linearGradient>
<linearGradient id="grad_18" x1="0%" y1="9%" x2="100%" y2="9%">
<stop offset="0%" style="stop-color:rgb(95, 255, 100); stop-opacity:0.368261"/>
<stop offset="100%" style="stop-color:rgb(95, 255, 100); stop-opacity:0.368261"/>
</linearGradient>
<linearGradient id="grad_19" x1="0%" y1="97%" x2="100%" y2="97%">
<stop offset="0%" style="stop-color:rgb(248, 255, 254); stop-opacity:0.641339"/>
<stop offset="100%" style="stop-color:rgb(248, 255, 254); stop-opacity:0.641339"/>
</linearGradient>
<linearGradient id="grad_20" x1="99%" y1="58%" x2="62%" y2="-335%">
<stop offset="0%" style="stop-color:rgb(255, 255, 255); stop-opacity:0.546165"/>
<stop offset="100%" style="stop-color:rgb(255, 255, 255); stop-opacity:0.743103"/>
</linearGradient>
<linearGradient id="grad_21" x1="0%" y1="50%" x2="100%" y2="50%">
<stop offset="0%" style="stop-color:rgb(249, 253, 255); stop-opacity:0.606223"/>
<stop offset="100%" style="stop-color:rgb(249, 253, 255); stop-opacity:0.606223"/>
</linearGradient>
<linearGradient id="grad_22" x1="21%" y1="94%" x2="25%" y2="-24%">
<stop offset="0%" style="stop-color:rgb(127, 127, 127); stop-opacity:0.413306"/>
<stop offset="100%" style="stop-color:rgb(127, 127, 127); stop-opacity:0.542538"/>
</linearGradient>
<linearGradient id="grad_23" x1="0%" y1="100%" x2="100%" y2="100%">
<stop offset="0%" style="stop-color:rgb(249, 254, 255); stop-opacity:0.628976"/>
<stop offset="100%" style="stop-color:rgb(249, 254, 255); stop-opacity:0.628976"/>
</linearGradient>
<linearGradient id="grad_24" x1="12%" y1="20%" x2="16%" y2="194%">
<stop offset="0%" style="stop-color:rgb(127, 127, 127); stop-opacity:0.182316"/>
<stop offset="100%" style="stop-color:rgb(127, 127, 127); stop-opacity:0.339963"/>
</linearGradient>
</defs>
<g transform="translate(0.000000,701.000000) scale(0.100000,-0.100000)"
fill="url(#grad_0)" stroke="none">
<g>
<path d="M0 3505 l0 -3505 2170 0 2170 0 0 3505 0 3505 -2170 0 -2170 0 0
-3505z"/>
</g>
</g>
<g transform="translate(0.000000,701.000000) scale(0.100000,-0.100000)"
fill="url(#grad_1)" stroke="none">
<g>
<path d="M3734 6372 c-127 -115 -475 -210 -944 -257 -214 -22 -757 -31 -995
-16 -565 35 -987 134 -1153 268 -24 20 -44 34 -46 32 -11 -15 -228 -409 -258
-469 -74 -146 -68 79 -66 -2676 l3 -2479 30 -54 c16 -29 60 -82 98 -117 111
-102 333 -203 584 -264 48 -12 95 -24 103 -27 8 -3 24 -7 35 -8 49 -6 356 -56
464 -76 30 -5 109 -14 175 -19 67 -6 157 -14 201 -19 130 -15 600 -13 795 4
412 36 707 105 955 225 202 97 329 203 383 317 l27 58 3 2440 c2 1740 0 2459
-8 2505 -18 101 -41 157 -143 337 -53 92 -115 204 -139 247 -24 44 -47 81 -53
82 -5 2 -29 -14 -51 -34z"/>
</g>
</g>
<g transform="translate(0.000000,701.000000) scale(0.100000,-0.100000)"
fill="url(#grad_2)" stroke="none">
<g>
<path d="M2215 3252 c-104 -49 -175 -196 -175 -363 0 -101 14 -170 51 -249 99
-212 297 -241 407 -60 49 81 66 150 66 265 0 122 -25 212 -83 302 -67 104
-176 147 -266 105z"/>
</g>
</g>
<g transform="translate(0.000000,701.000000) scale(0.100000,-0.100000)"
fill="url(#grad_3)" stroke="none">
<g>
<path d="M2260 3025 c-52 -55 -31 -196 33 -219 84 -30 130 132 61 214 -31 37
-63 38 -94 5z"/>
</g>
</g>
<g transform="translate(0.000000,701.000000) scale(0.100000,-0.100000)"
fill="url(#grad_4)" stroke="none">
<g>
<path d="M1865 6900 c-712 -42 -1137 -132 -1256 -268 -31 -35 -31 -36 -27
-128 4 -102 2 -98 100 -166 166 -114 598 -207 1113 -239 238 -15 781 -6 995
16 285 29 505 70 688 130 127 42 196 76 262 130 53 44 61 70 56 172 -2 45 -7
58 -36 89 -116 122 -521 216 -1095 254 -222 15 -629 20 -800 10z"/>
</g>
</g>
<g transform="translate(0.000000,701.000000) scale(0.100000,-0.100000)"
fill="url(#grad_5)" stroke="none">
<g>
<path d="M1730 6730 c-63 -4 -191 -8 -283 -9 -121 -1 -177 -5 -202 -16 -19 -7
-63 -17 -98 -21 -51 -6 -107 -23 -126 -40 -12 -10 63 -61 124 -85 168 -65 352
-83 809 -76 365 5 435 13 519 59 33 18 43 30 45 53 5 48 -34 95 -98 121 -53
22 -66 23 -315 22 -143 -1 -312 -5 -375 -8z"/>
</g>
</g>
<g transform="translate(0.000000,701.000000) scale(0.100000,-0.100000)"
fill="url(#grad_6)" stroke="none">
<g>
<path d="M4035 5188 c-169 -56 -295 -150 -415 -309 -113 -151 -191 -307 -290
-579 -96 -264 -189 -434 -282 -515 -114 -99 -259 -127 -453 -86 -55 12 -110
24 -122 27 l-23 6 0 -268 1 -269 35 -55 c111 -174 106 -443 -11 -596 l-25 -33
0 -565 c0 -311 3 -566 7 -566 12 0 98 54 153 96 30 23 87 75 126 115 127 133
201 246 399 610 186 342 236 418 340 524 112 113 171 146 270 153 58 4 81 0
118 -16 68 -30 115 -69 164 -136 l43 -58 0 1266 c0 696 -1 1266 -2 1265 -2 0
-16 -5 -33 -11z"/>
</g>
</g>
<g transform="translate(0.000000,701.000000) scale(0.100000,-0.100000)"
fill="url(#grad_7)" stroke="none">
<g>
<path d="M3462 3860 c-62 -38 -122 -157 -122 -245 0 -101 78 -116 118 -23 6
15 23 35 37 44 25 16 27 16 53 -3 35 -26 51 -60 59 -123 l6 -50 -32 16 c-65
32 -137 1 -180 -76 -21 -37 -25 -61 -29 -149 -5 -120 6 -176 44 -221 37 -43
75 -60 137 -60 64 0 95 20 122 76 l18 38 14 -30 c29 -56 68 -69 103 -34 15 15
20 33 20 78 0 59 -9 81 -56 132 -33 37 -52 116 -69 296 -18 198 -41 280 -90
323 -43 38 -102 42 -153 11z"/>
</g>
</g>
<g transform="translate(0.000000,701.000000) scale(0.100000,-0.100000)"
fill="url(#grad_8)" stroke="none">
<g>
<path d="M3490 3308 c-36 -59 -16 -141 37 -154 50 -13 86 34 80 104 -9 83 -79
113 -117 50z"/>
</g>
</g>
<g transform="translate(0.000000,701.000000) scale(0.100000,-0.100000)"
fill="url(#grad_9)" stroke="none">
<g>
<path d="M1349 3515 c-73 -27 -118 -56 -162 -105 -61 -68 -89 -142 -95 -253
-4 -83 -3 -91 27 -152 51 -104 131 -164 315 -239 127 -52 187 -87 247 -143
182 -171 167 -510 -28 -604 -93 -45 -226 -20 -288 53 -57 67 -54 146 9 278 39
82 44 116 21 160 -47 92 -226 84 -298 -12 -69 -92 -97 -210 -77 -328 22 -128
114 -285 213 -359 220 -167 502 -158 679 21 184 187 240 583 118 830 -42 85
-82 139 -145 197 -72 65 -123 95 -236 137 -141 52 -205 109 -216 192 -6 47 9
80 41 88 34 8 62 -10 69 -46 10 -47 49 -80 94 -80 73 0 113 52 113 145 0 99
-44 168 -135 211 -41 20 -65 24 -140 23 -49 0 -106 -6 -126 -14z"/>
</g>
</g>
<g transform="translate(0.000000,701.000000) scale(0.100000,-0.100000)"
fill="url(#grad_10)" stroke="none">
<g>
<path d="M3074 3749 c-17 -19 -19 -37 -19 -178 0 -86 3 -177 7 -204 l8 -47
-40 20 c-211 107 -443 -206 -379 -512 23 -111 102 -239 170 -274 16 -8 50 -14
77 -14 83 0 166 68 214 177 l20 46 19 -30 c21 -33 66 -57 95 -51 34 6 64 66
64 128 0 149 -91 865 -117 918 -16 33 -23 37 -59 40 -31 2 -45 -2 -60 -19z"/>
</g>
</g>
<g transform="translate(0.000000,701.000000) scale(0.100000,-0.100000)"
fill="url(#grad_11)" stroke="none">
<g>
<path d="M2850 3094 c-46 -39 -62 -79 -62 -150 0 -167 155 -239 230 -106 27
48 31 156 7 201 -23 45 -72 81 -110 81 -22 0 -45 -9 -65 -26z"/>
</g>
</g>
<g transform="translate(0.000000,701.000000) scale(0.100000,-0.100000)"
fill="url(#grad_12)" stroke="none">
<g>
<path d="M3630 5694 c-181 -59 -447 -111 -755 -146 -176 -21 -905 -17 -1125 5
-224 23 -544 69 -732 105 -82 16 -148 25 -148 21 0 -10 36 -20 250 -69 442
-100 807 -142 1225 -142 363 0 668 32 956 103 215 52 449 130 449 150 0 12 1
12 -120 -27z"/>
</g>
</g>
<g transform="translate(0.000000,701.000000) scale(0.100000,-0.100000)"
fill="url(#grad_13)" stroke="none">
<g>
<path d="M1710 3845 c-294 -60 -546 -266 -774 -634 -146 -237 -278 -565 -400
-998 l-46 -161 0 -343 c0 -189 4 -339 8 -333 5 5 19 36 32 69 70 180 170 345
260 428 128 119 249 113 374 -17 28 -30 56 -55 61 -57 6 -2 51 -51 101 -109
215 -247 364 -354 552 -396 142 -32 393 -3 522 59 l45 22 3 567 2 568 -46 -25
c-117 -62 -240 -1 -313 155 -108 231 -38 550 135 616 57 22 112 14 175 -25
l49 -30 0 267 0 267 -155 48 c-84 27 -189 55 -232 62 -97 18 -267 17 -353 0z
m-95 -339 c91 -43 135 -112 135 -211 0 -93 -40 -145 -113 -145 -45 0 -84 33
-94 80 -7 36 -35 54 -69 46 -32 -8 -47 -41 -41 -88 11 -83 75 -140 216 -192
113 -42 164 -72 236 -137 159 -146 231 -356 204 -594 -36 -325 -191 -526 -437
-567 -185 -31 -401 56 -512 207 -150 204 -167 428 -43 593 72 96 251 104 298
12 23 -44 18 -78 -21 -160 -63 -132 -66 -211 -9 -278 62 -73 195 -98 288 -53
195 94 210 433 28 604 -60 56 -120 91 -247 143 -184 75 -264 135 -315 239 -30
61 -31 69 -27 152 6 111 34 185 95 253 75 84 159 118 288 119 75 1 99 -3 140
-23z"/>
</g>
</g>
<g transform="translate(0.000000,701.000000) scale(0.100000,-0.100000)"
fill="url(#grad_14)" stroke="none">
<g>
<path d="M3860 498 c-342 -214 -853 -319 -1545 -317 -148 0 -306 5 -350 10
-44 5 -134 13 -201 19 -66 5 -145 14 -175 19 -108 20 -415 70 -464 76 -11 1
-27 5 -35 8 -8 3 -55 15 -103 27 -120 29 -257 75 -346 116 -41 19 -76 32 -79
29 -9 -9 64 -118 101 -150 42 -36 148 -83 272 -121 177 -54 214 -63 305 -83
325 -68 559 -85 1094 -78 350 4 446 9 571 26 278 38 538 98 705 163 165 65
220 109 284 231 20 37 35 67 33 67 -1 -1 -31 -19 -67 -42z"/>
</g>
</g>
<g transform="translate(0.000000,701.000000) scale(0.100000,-0.100000)"
fill="url(#grad_15)" stroke="none">
<g>
<path d="M1116 234 c-14 -36 -5 -41 122 -67 317 -67 550 -87 988 -87 277 0
391 4 545 20 277 28 654 101 654 126 0 19 -86 14 -230 -15 -263 -52 -483 -71
-821 -71 -415 0 -957 45 -1155 96 -73 18 -95 18 -103 -2z"/>
</g>
</g>
<g transform="translate(0.000000,701.000000) scale(0.100000,-0.100000)"
fill="url(#grad_16)" stroke="none">
<g>
<path d="M2451 2855 l0 -340 21 25 c38 45 77 143 88 220 19 134 -9 277 -74
380 l-35 55 0 -340z"/>
</g>
</g>
<g transform="translate(0.000000,701.000000) scale(0.100000,-0.100000)"
fill="url(#grad_17)" stroke="none">
<g>
<path d="M870 5679 c0 -10 36 -20 250 -69 404 -91 766 -136 1145 -142 l170 -3
1 31 1 31 -266 6 c-374 8 -767 50 -1153 125 -82 16 -148 25 -148 21z"/>
</g>
</g>
<g transform="translate(0.000000,701.000000) scale(0.100000,-0.100000)"
fill="url(#grad_18)" stroke="none">
<g>
<path d="M640 6034 c-68 -92 -134 -188 -147 -214 -55 -114 -53 -26 -53 -2542
l0 -2320 24 -53 c65 -142 223 -242 522 -329 287 -83 480 -111 749 -110 193 0
218 3 307 27 183 49 319 145 381 267 l27 55 0 281 0 281 -47 -23 c-134 -64
-381 -92 -525 -60 -188 42 -337 149 -552 396 -50 58 -95 107 -101 109 -5 2
-33 27 -61 57 -125 130 -246 136 -374 17 -90 -83 -190 -248 -260 -428 -13 -33
-27 -64 -32 -70 -4 -5 -8 145 -8 334 l0 343 46 161 c122 433 254 761 400 998
173 279 363 468 569 565 121 56 197 75 340 81 150 7 249 -10 442 -72 77 -25
146 -45 152 -45 8 0 11 225 11 863 l-1 862 -177 2 c-378 6 -745 51 -1152 143
-214 49 -250 59 -250 69 0 4 66 -5 148 -21 189 -37 512 -83 722 -103 189 -19
690 -32 690 -19 -1 46 -76 210 -137 297 -75 107 -75 107 -177 107 -438 1 -949
91 -1248 220 -51 22 -95 40 -98 40 -3 0 -61 -75 -130 -166z"/>
</g>
</g>
<g transform="translate(0.000000,701.000000) scale(0.100000,-0.100000)"
fill="url(#grad_19)" stroke="none">
<g>
<path d="M3736 6451 c-9 -10 -45 -32 -79 -49 -173 -85 -465 -147 -886 -189
-218 -21 -901 -25 -1111 -5 -500 46 -817 116 -985 217 -32 20 -60 33 -63 30
-3 -3 17 -27 44 -53 233 -225 1323 -343 2219 -242 311 36 577 97 731 169 80
38 154 98 154 126 0 19 -3 19 -24 -4z"/>
</g>
</g>
<g transform="translate(0.000000,701.000000) scale(0.100000,-0.100000)"
fill="url(#grad_20)" stroke="none">
<g>
<path d="M1765 6860 c-578 -33 -1065 -141 -1134 -254 -27 -44 -26 -68 4 -104
100 -119 534 -225 1078 -263 232 -16 943 -7 1137 15 445 50 756 132 865 228
79 70 58 131 -68 192 -165 81 -475 142 -892 176 -177 15 -794 21 -990 10z
m1000 -30 c505 -41 847 -129 905 -233 14 -25 13 -30 -5 -64 -57 -108 -427
-194 -995 -233 -190 -13 -773 -13 -975 0 -444 29 -768 93 -930 183 -33 19 -67
46 -75 60 -13 24 -13 30 0 55 20 35 141 108 205 122 28 7 88 20 135 31 186 42
439 73 715 88 196 12 843 6 1020 -9z"/>
</g>
</g>
<g transform="translate(0.000000,701.000000) scale(0.100000,-0.100000)"
fill="url(#grad_21)" stroke="none">
<g>
<path d="M2499 6715 c51 -38 66 -136 31 -206 -86 -168 -441 -208 -1155 -130
-89 10 -215 39 -215 51 0 4 -20 15 -44 24 -68 26 -131 79 -150 125 -9 23 -17
41 -19 41 -28 0 -191 -72 -201 -88 -9 -15 83 -59 179 -87 100 -29 331 -71 470
-86 50 -5 128 -14 175 -19 152 -17 740 -23 980 -11 384 20 695 61 883 116 94
27 187 69 187 85 0 17 -123 68 -226 94 -188 48 -498 87 -789 102 -125 6 -129
5 -106 -11z"/>
</g>
</g>
<g transform="translate(0.000000,701.000000) scale(0.100000,-0.100000)"
fill="url(#grad_22)" stroke="none">
<g>
<path d="M2062 6715 c-88 -24 -122 -57 -107 -105 16 -49 156 -86 293 -77 130
9 222 49 222 98 0 21 -52 67 -86 75 -13 3 -24 10 -24 15 0 15 -239 9 -298 -6z"/>
</g>
</g>
<g transform="translate(0.000000,701.000000) scale(0.100000,-0.100000)"
fill="url(#grad_23)" stroke="none">
<g>
<path d="M1000 6582 c0 -15 57 -60 109 -86 154 -79 438 -116 877 -116 205 0
327 16 409 55 54 26 113 77 70 61 -98 -36 -295 -56 -560 -56 -450 0 -708 38
-862 127 -24 14 -43 20 -43 15z"/>
</g>
</g>
<g transform="translate(0.000000,701.000000) scale(0.100000,-0.100000)"
fill="url(#grad_24)" stroke="none">
<g>
<path d="M1355 6669 c-70 -10 -125 -27 -125 -39 0 -17 84 -41 177 -50 63 -7
131 -7 198 0 98 9 185 33 185 50 0 37 -280 61 -435 39z"/>
</g>
</g>
</svg>
