<?xml version="1.0" standalone="no"?>
<!DOCTYPE svg PUBLIC "-//W3C//DTD SVG 20010904//EN"
 "http://www.w3.org/TR/2001/REC-SVG-20010904/DTD/svg10.dtd">
<svg version="1.0" xmlns="http://www.w3.org/2000/svg"
 width="679.000000pt" height="607.000000pt" viewBox="0 0 679.000000 607.000000"
 preserveAspectRatio="xMidYMid meet">
<defs>
<linearGradient id="grad_0" x1="0%" y1="100%" x2="100%" y2="100%">
<stop offset="0%" style="stop-color:rgb(254, 254, 254); stop-opacity:1"/>
<stop offset="100%" style="stop-color:rgb(254, 254, 254); stop-opacity:1"/>
</linearGradient>
<linearGradient id="grad_1" x1="0%" y1="11%" x2="100%" y2="11%">
<stop offset="0%" style="stop-color:rgb(174, 70, 77); stop-opacity:1"/>
<stop offset="100%" style="stop-color:rgb(174, 70, 77); stop-opacity:1"/>
</linearGradient>
<linearGradient id="grad_2" x1="100%" y1="100%" x2="53%" y2="108%">
<stop offset="0%" style="stop-color:rgb(253, 240, 233); stop-opacity:1"/>
<stop offset="100%" style="stop-color:rgb(255, 255, 255); stop-opacity:1"/>
</linearGradient>
<linearGradient id="grad_3" x1="0%" y1="100%" x2="100%" y2="100%">
<stop offset="0%" style="stop-color:rgb(135, 51, 69); stop-opacity:1"/>
<stop offset="100%" style="stop-color:rgb(135, 51, 69); stop-opacity:1"/>
</linearGradient>
<linearGradient id="grad_4" x1="0%" y1="3%" x2="100%" y2="3%">
<stop offset="0%" style="stop-color:rgb(161, 61, 71); stop-opacity:1"/>
<stop offset="100%" style="stop-color:rgb(161, 61, 71); stop-opacity:1"/>
</linearGradient>
<linearGradient id="grad_5" x1="0%" y1="100%" x2="100%" y2="100%">
<stop offset="0%" style="stop-color:rgb(77, 36, 73); stop-opacity:1"/>
<stop offset="100%" style="stop-color:rgb(77, 36, 73); stop-opacity:1"/>
</linearGradient>
<linearGradient id="grad_6" x1="0%" y1="7%" x2="100%" y2="7%">
<stop offset="0%" style="stop-color:rgb(234, 98, 136); stop-opacity:1"/>
<stop offset="100%" style="stop-color:rgb(234, 98, 136); stop-opacity:1"/>
</linearGradient>
<linearGradient id="grad_7" x1="0%" y1="3%" x2="100%" y2="3%">
<stop offset="0%" style="stop-color:rgb(224, 86, 127); stop-opacity:1"/>
<stop offset="100%" style="stop-color:rgb(224, 86, 127); stop-opacity:1"/>
</linearGradient>
<linearGradient id="grad_8" x1="0%" y1="71%" x2="100%" y2="71%">
<stop offset="0%" style="stop-color:rgb(191, 69, 70); stop-opacity:1"/>
<stop offset="100%" style="stop-color:rgb(191, 69, 70); stop-opacity:1"/>
</linearGradient>
<linearGradient id="grad_9" x1="0%" y1="100%" x2="100%" y2="100%">
<stop offset="0%" style="stop-color:rgb(90, 42, 84); stop-opacity:1"/>
<stop offset="100%" style="stop-color:rgb(90, 42, 84); stop-opacity:1"/>
</linearGradient>
<linearGradient id="grad_10" x1="0%" y1="45%" x2="100%" y2="45%">
<stop offset="0%" style="stop-color:rgb(165, 77, 84); stop-opacity:1"/>
<stop offset="100%" style="stop-color:rgb(165, 77, 84); stop-opacity:1"/>
</linearGradient>
<linearGradient id="grad_11" x1="0%" y1="45%" x2="100%" y2="45%">
<stop offset="0%" style="stop-color:rgb(225, 115, 114); stop-opacity:1"/>
<stop offset="100%" style="stop-color:rgb(225, 115, 114); stop-opacity:1"/>
</linearGradient>
<linearGradient id="grad_12" x1="49%" y1="0%" x2="69%" y2="104%">
<stop offset="0%" style="stop-color:rgb(224, 111, 109); stop-opacity:1"/>
<stop offset="100%" style="stop-color:rgb(238, 133, 133); stop-opacity:1"/>
</linearGradient>
<linearGradient id="grad_13" x1="0%" y1="100%" x2="100%" y2="100%">
<stop offset="0%" style="stop-color:rgb(161, 59, 79); stop-opacity:1"/>
<stop offset="100%" style="stop-color:rgb(161, 59, 79); stop-opacity:1"/>
</linearGradient>
<linearGradient id="grad_14" x1="0%" y1="100%" x2="100%" y2="100%">
<stop offset="0%" style="stop-color:rgb(120, 27, 55); stop-opacity:1"/>
<stop offset="100%" style="stop-color:rgb(120, 27, 55); stop-opacity:1"/>
</linearGradient>
<linearGradient id="grad_15" x1="0%" y1="6%" x2="100%" y2="6%">
<stop offset="0%" style="stop-color:rgb(205, 90, 79); stop-opacity:1"/>
<stop offset="100%" style="stop-color:rgb(205, 90, 79); stop-opacity:1"/>
</linearGradient>
<linearGradient id="grad_16" x1="0%" y1="83%" x2="100%" y2="83%">
<stop offset="0%" style="stop-color:rgb(216, 107, 82); stop-opacity:1"/>
<stop offset="100%" style="stop-color:rgb(216, 107, 82); stop-opacity:1"/>
</linearGradient>
<linearGradient id="grad_17" x1="0%" y1="72%" x2="100%" y2="72%">
<stop offset="0%" style="stop-color:rgb(242, 159, 119); stop-opacity:1"/>
<stop offset="100%" style="stop-color:rgb(242, 159, 119); stop-opacity:1"/>
</linearGradient>
<linearGradient id="grad_18" x1="83%" y1="0%" x2="98%" y2="79%">
<stop offset="0%" style="stop-color:rgb(155, 51, 58); stop-opacity:1"/>
<stop offset="100%" style="stop-color:rgb(217, 92, 69); stop-opacity:1"/>
</linearGradient>
<linearGradient id="grad_19" x1="100%" y1="0%" x2="85%" y2="108%">
<stop offset="0%" style="stop-color:rgb(120, 37, 86); stop-opacity:1"/>
<stop offset="100%" style="stop-color:rgb(143, 54, 105); stop-opacity:1"/>
</linearGradient>
<linearGradient id="grad_20" x1="0%" y1="100%" x2="100%" y2="100%">
<stop offset="0%" style="stop-color:rgb(162, 83, 101); stop-opacity:1"/>
<stop offset="100%" style="stop-color:rgb(162, 83, 101); stop-opacity:1"/>
</linearGradient>
<linearGradient id="grad_21" x1="0%" y1="100%" x2="100%" y2="100%">
<stop offset="0%" style="stop-color:rgb(124, 42, 66); stop-opacity:1"/>
<stop offset="100%" style="stop-color:rgb(124, 42, 66); stop-opacity:1"/>
</linearGradient>
<linearGradient id="grad_22" x1="0%" y1="83%" x2="100%" y2="83%">
<stop offset="0%" style="stop-color:rgb(224, 109, 85); stop-opacity:1"/>
<stop offset="100%" style="stop-color:rgb(224, 109, 85); stop-opacity:1"/>
</linearGradient>
<linearGradient id="grad_23" x1="0%" y1="81%" x2="100%" y2="81%">
<stop offset="0%" style="stop-color:rgb(142, 42, 78); stop-opacity:1"/>
<stop offset="100%" style="stop-color:rgb(142, 42, 78); stop-opacity:1"/>
</linearGradient>
<linearGradient id="grad_24" x1="23%" y1="100%" x2="22%" y2="0%">
<stop offset="0%" style="stop-color:rgb(116, 31, 84); stop-opacity:1"/>
<stop offset="100%" style="stop-color:rgb(124, 40, 91); stop-opacity:1"/>
</linearGradient>
<linearGradient id="grad_25" x1="0%" y1="100%" x2="100%" y2="100%">
<stop offset="0%" style="stop-color:rgb(83, 35, 75); stop-opacity:1"/>
<stop offset="100%" style="stop-color:rgb(83, 35, 75); stop-opacity:1"/>
</linearGradient>
<linearGradient id="grad_26" x1="0%" y1="15%" x2="100%" y2="15%">
<stop offset="0%" style="stop-color:rgb(91, 41, 84); stop-opacity:1"/>
<stop offset="100%" style="stop-color:rgb(91, 41, 84); stop-opacity:1"/>
</linearGradient>
<linearGradient id="grad_27" x1="0%" y1="100%" x2="100%" y2="100%">
<stop offset="0%" style="stop-color:rgb(144, 47, 71); stop-opacity:1"/>
<stop offset="100%" style="stop-color:rgb(144, 47, 71); stop-opacity:1"/>
</linearGradient>
<linearGradient id="grad_28" x1="0%" y1="80%" x2="100%" y2="80%">
<stop offset="0%" style="stop-color:rgb(255, 255, 255); stop-opacity:1"/>
<stop offset="100%" style="stop-color:rgb(255, 255, 255); stop-opacity:1"/>
</linearGradient>
<linearGradient id="grad_29" x1="0%" y1="47%" x2="100%" y2="47%">
<stop offset="0%" style="stop-color:rgb(230, 122, 122); stop-opacity:1"/>
<stop offset="100%" style="stop-color:rgb(230, 122, 122); stop-opacity:1"/>
</linearGradient>
<linearGradient id="grad_30" x1="0%" y1="40%" x2="100%" y2="40%">
<stop offset="0%" style="stop-color:rgb(254, 254, 254); stop-opacity:1"/>
<stop offset="100%" style="stop-color:rgb(254, 254, 254); stop-opacity:1"/>
</linearGradient>
<linearGradient id="grad_31" x1="0%" y1="7%" x2="100%" y2="7%">
<stop offset="0%" style="stop-color:rgb(175, 66, 85); stop-opacity:1"/>
<stop offset="100%" style="stop-color:rgb(175, 66, 85); stop-opacity:1"/>
</linearGradient>
<linearGradient id="grad_32" x1="0%" y1="97%" x2="100%" y2="97%">
<stop offset="0%" style="stop-color:rgb(240, 142, 95); stop-opacity:1"/>
<stop offset="100%" style="stop-color:rgb(240, 142, 95); stop-opacity:1"/>
</linearGradient>
<linearGradient id="grad_33" x1="0%" y1="1%" x2="100%" y2="1%">
<stop offset="0%" style="stop-color:rgb(206, 85, 74); stop-opacity:1"/>
<stop offset="100%" style="stop-color:rgb(206, 85, 74); stop-opacity:1"/>
</linearGradient>
<linearGradient id="grad_34" x1="0%" y1="57%" x2="100%" y2="57%">
<stop offset="0%" style="stop-color:rgb(142, 42, 78); stop-opacity:1"/>
<stop offset="100%" style="stop-color:rgb(142, 42, 78); stop-opacity:1"/>
</linearGradient>
<linearGradient id="grad_35" x1="0%" y1="76%" x2="100%" y2="76%">
<stop offset="0%" style="stop-color:rgb(215, 100, 82); stop-opacity:1"/>
<stop offset="100%" style="stop-color:rgb(215, 100, 82); stop-opacity:1"/>
</linearGradient>
<linearGradient id="grad_36" x1="0%" y1="3%" x2="92%" y2="74%">
<stop offset="0%" style="stop-color:rgb(198, 71, 72); stop-opacity:1"/>
<stop offset="100%" style="stop-color:rgb(211, 97, 76); stop-opacity:1"/>
</linearGradient>
<linearGradient id="grad_37" x1="0%" y1="100%" x2="100%" y2="100%">
<stop offset="0%" style="stop-color:rgb(208, 95, 79); stop-opacity:1"/>
<stop offset="100%" style="stop-color:rgb(208, 95, 79); stop-opacity:1"/>
</linearGradient>
<linearGradient id="grad_38" x1="100%" y1="4%" x2="5%" y2="94%">
<stop offset="0%" style="stop-color:rgb(170, 59, 66); stop-opacity:1"/>
<stop offset="100%" style="stop-color:rgb(245, 133, 93); stop-opacity:1"/>
</linearGradient>
<linearGradient id="grad_39" x1="0%" y1="16%" x2="100%" y2="16%">
<stop offset="0%" style="stop-color:rgb(245, 165, 99); stop-opacity:1"/>
<stop offset="100%" style="stop-color:rgb(245, 165, 99); stop-opacity:1"/>
</linearGradient>
<linearGradient id="grad_40" x1="30%" y1="0%" x2="104%" y2="72%">
<stop offset="0%" style="stop-color:rgb(207, 83, 76); stop-opacity:1"/>
<stop offset="100%" style="stop-color:rgb(253, 164, 99); stop-opacity:1"/>
</linearGradient>
<linearGradient id="grad_41" x1="0%" y1="33%" x2="100%" y2="33%">
<stop offset="0%" style="stop-color:rgb(213, 131, 94); stop-opacity:1"/>
<stop offset="100%" style="stop-color:rgb(213, 131, 94); stop-opacity:1"/>
</linearGradient>
<linearGradient id="grad_42" x1="0%" y1="87%" x2="100%" y2="87%">
<stop offset="0%" style="stop-color:rgb(242, 161, 119); stop-opacity:1"/>
<stop offset="100%" style="stop-color:rgb(242, 161, 119); stop-opacity:1"/>
</linearGradient>
<linearGradient id="grad_43" x1="0%" y1="42%" x2="100%" y2="42%">
<stop offset="0%" style="stop-color:rgb(179, 65, 68); stop-opacity:1"/>
<stop offset="100%" style="stop-color:rgb(179, 65, 68); stop-opacity:1"/>
</linearGradient>
<linearGradient id="grad_44" x1="89%" y1="63%" x2="11%" y2="107%">
<stop offset="0%" style="stop-color:rgb(172, 54, 58); stop-opacity:1"/>
<stop offset="100%" style="stop-color:rgb(184, 106, 118); stop-opacity:1"/>
</linearGradient>
<linearGradient id="grad_45" x1="0%" y1="75%" x2="99%" y2="68%">
<stop offset="0%" style="stop-color:rgb(170, 59, 80); stop-opacity:1"/>
<stop offset="100%" style="stop-color:rgb(234, 126, 109); stop-opacity:1"/>
</linearGradient>
<linearGradient id="grad_46" x1="13%" y1="9%" x2="40%" y2="107%">
<stop offset="0%" style="stop-color:rgb(218, 105, 83); stop-opacity:1"/>
<stop offset="100%" style="stop-color:rgb(159, 78, 86); stop-opacity:1"/>
</linearGradient>
<linearGradient id="grad_47" x1="0%" y1="100%" x2="100%" y2="100%">
<stop offset="0%" style="stop-color:rgb(117, 61, 88); stop-opacity:1"/>
<stop offset="100%" style="stop-color:rgb(117, 61, 88); stop-opacity:1"/>
</linearGradient>
<linearGradient id="grad_48" x1="0%" y1="50%" x2="100%" y2="50%">
<stop offset="0%" style="stop-color:rgb(116, 61, 88); stop-opacity:1"/>
<stop offset="100%" style="stop-color:rgb(116, 61, 88); stop-opacity:1"/>
</linearGradient>
<linearGradient id="grad_49" x1="96%" y1="12%" x2="27%" y2="131%">
<stop offset="0%" style="stop-color:rgb(234, 139, 112); stop-opacity:1"/>
<stop offset="100%" style="stop-color:rgb(248, 171, 123); stop-opacity:1"/>
</linearGradient>
<linearGradient id="grad_50" x1="19%" y1="100%" x2="115%" y2="11%">
<stop offset="0%" style="stop-color:rgb(255, 255, 255); stop-opacity:0.999162"/>
<stop offset="100%" style="stop-color:rgb(255, 255, 255); stop-opacity:1.00195"/>
</linearGradient>
<linearGradient id="grad_51" x1="98%" y1="100%" x2="166%" y2="34%">
<stop offset="0%" style="stop-color:rgb(255, 0, 0); stop-opacity:0.0619184"/>
<stop offset="100%" style="stop-color:rgb(255, 0, 0); stop-opacity:0.0681969"/>
</linearGradient>
</defs>
<g transform="translate(0.000000,607.000000) scale(0.100000,-0.100000)"
fill="url(#grad_0)" stroke="none">
<g>
<path d="M0 3035 l0 -3035 3395 0 3395 0 0 3035 0 3035 -3395 0 -3395 0 0
-3035z"/>
</g>
</g>
<g transform="translate(0.000000,607.000000) scale(0.100000,-0.100000)"
fill="url(#grad_1)" stroke="none">
<g>
<path d="M1025 6046 c-64 -18 -267 -122 -310 -159 -22 -18 -56 -43 -76 -55
-19 -12 -81 -68 -137 -126 -96 -99 -102 -107 -102 -147 0 -41 30 -112 83 -196
63 -100 107 -212 107 -274 0 -32 -25 -119 -50 -174 -25 -56 -93 -150 -259
-359 -238 -300 -271 -356 -271 -470 0 -72 1 -75 35 -105 126 -111 546 -86 945
57 41 15 67 28 58 30 -16 3 -16 6 2 42 11 22 20 44 20 49 0 5 -51 -14 -112
-44 -136 -65 -291 -118 -413 -140 -121 -23 -264 -17 -321 13 -42 22 -74 70
-74 112 0 125 145 385 379 678 323 406 491 665 491 759 0 76 86 248 203 406
32 43 57 86 55 95 -3 15 -19 17 -108 18 -58 1 -123 -3 -145 -10z"/>
</g>
</g>
<g transform="translate(0.000000,607.000000) scale(0.100000,-0.100000)"
fill="url(#grad_2)" stroke="none">
<g>
<path d="M820 5906 c-99 -72 -135 -133 -155 -261 -6 -36 -3 -33 33 37 44 85
86 150 139 216 19 23 33 42 31 42 -2 0 -23 -15 -48 -34z"/>
</g>
</g>
<g transform="translate(0.000000,607.000000) scale(0.100000,-0.100000)"
fill="url(#grad_3)" stroke="none">
<g>
<path d="M4542 3678 c25 -196 95 -426 179 -588 73 -144 69 -140 111 -99 40 40
106 68 118 49 8 -13 26 -139 36 -252 5 -63 11 -81 30 -99 29 -28 34 -23 64 61
56 161 115 233 224 270 78 28 216 37 307 21 77 -14 67 3 94 -156 l13 -80 1 76
c1 42 -2 104 -5 138 l-7 61 -79 0 c-61 0 -88 5 -120 21 -57 29 -142 112 -251
244 -184 224 -213 247 -387 303 -107 35 -311 92 -326 92 -7 0 -8 -21 -2 -62z"/>
</g>
</g>
<g transform="translate(0.000000,607.000000) scale(0.100000,-0.100000)"
fill="url(#grad_4)" stroke="none">
<g>
<path d="M4737 2305 c19 -113 0 -326 -43 -482 -12 -45 12 -22 56 51 24 41 47
73 52 70 4 -3 8 5 8 18 0 34 -67 378 -75 386 -4 4 -3 -15 2 -43z"/>
</g>
</g>
<g transform="translate(0.000000,607.000000) scale(0.100000,-0.100000)"
fill="url(#grad_5)" stroke="none">
<g>
<path d="M5113 453 c3 -16 15 -110 28 -211 l23 -182 83 0 c46 0 83 4 83 9 0
17 -52 155 -77 206 -35 69 -125 205 -136 205 -5 0 -7 -12 -4 -27z"/>
</g>
</g>
<g transform="translate(0.000000,607.000000) scale(0.100000,-0.100000)"
fill="url(#grad_6)" stroke="none">
<g>
<path d="M6254 3971 c-54 -24 -70 -75 -84 -278 -13 -187 -34 -262 -90 -326
-50 -57 -150 -124 -196 -133 -50 -9 -37 -26 37 -48 46 -13 100 -19 190 -20
l127 -1 93 48 c169 86 344 248 418 386 39 74 44 173 11 226 -33 54 -113 101
-225 132 -62 17 -252 27 -281 14z"/>
</g>
</g>
<g transform="translate(0.000000,607.000000) scale(0.100000,-0.100000)"
fill="url(#grad_7)" stroke="none">
<g>
<path d="M6550 3913 c0 -3 15 -24 33 -47 50 -61 57 -79 57 -145 0 -62 -30
-161 -76 -253 -31 -62 -31 -72 4 -54 44 23 111 102 143 169 54 115 33 214 -59
282 -46 33 -102 60 -102 48z"/>
</g>
</g>
<g transform="translate(0.000000,607.000000) scale(0.100000,-0.100000)"
fill="url(#grad_8)" stroke="none">
<g>
<path d="M4882 3028 c-23 -11 -52 -34 -63 -50 l-21 -29 55 -72 c30 -40 73 -92
96 -117 l42 -45 -6 80 c-6 80 -21 190 -30 233 -6 27 -18 27 -73 0z"/>
</g>
</g>
<g transform="translate(0.000000,607.000000) scale(0.100000,-0.100000)"
fill="url(#grad_9)" stroke="none">
<g>
<path d="M2533 533 c3 -21 16 -133 28 -249 l22 -211 60 -7 c33 -3 77 -6 99 -6
37 0 38 1 32 28 -14 56 -67 199 -96 257 -35 70 -134 225 -144 225 -4 0 -4 -17
-1 -37z"/>
</g>
</g>
<g transform="translate(0.000000,607.000000) scale(0.100000,-0.100000)"
fill="url(#grad_10)" stroke="none">
<g>
<path d="M2853 4833 c9 -9 -211 -91 -296 -110 l-69 -16 94 -39 c51 -22 117
-48 145 -59 67 -24 166 -25 212 -1 55 27 57 40 18 105 -47 77 -86 127 -99 127
-6 0 -8 -3 -5 -7z"/>
</g>
</g>
<g transform="translate(0.000000,607.000000) scale(0.100000,-0.100000)"
fill="url(#grad_11)" stroke="none">
<g>
<path d="M2386 1668 c-28 -155 -48 -316 -44 -363 6 -70 34 -102 107 -121 131
-34 148 37 81 317 l-33 137 -46 23 c-25 13 -49 25 -53 27 -4 2 -9 -7 -12 -20z"/>
</g>
</g>
<g transform="translate(0.000000,607.000000) scale(0.100000,-0.100000)"
fill="url(#grad_12)" stroke="none">
<g>
<path d="M6270 4314 c-14 -10 -52 -42 -85 -72 -71 -65 -124 -92 -185 -92 -57
0 -299 42 -410 71 -115 30 -267 32 -329 5 -36 -17 -48 -30 -78 -90 -33 -66
-35 -75 -36 -175 0 -58 5 -126 12 -151 37 -139 139 -325 201 -366 19 -14 57
-42 83 -63 55 -43 188 -100 292 -125 102 -25 103 -25 108 -44 4 -15 5 -15 6
-1 1 11 14 19 35 23 46 9 146 77 196 133 56 64 77 139 90 326 12 174 21 216
55 254 23 28 25 28 137 27 62 0 133 -6 157 -13 23 -7 46 -10 49 -7 9 10 -47
205 -78 272 -17 35 -43 72 -57 81 -38 25 -132 29 -163 7z"/>
</g>
</g>
<g transform="translate(0.000000,607.000000) scale(0.100000,-0.100000)"
fill="url(#grad_13)" stroke="none">
<g>
<path d="M5440 3994 c0 -4 8 -13 18 -20 14 -10 18 -35 23 -158 6 -166 13 -183
89 -223 52 -28 134 -32 144 -7 18 48 -8 195 -51 277 -23 45 -85 109 -120 124
-33 13 -103 18 -103 7z"/>
</g>
</g>
<g transform="translate(0.000000,607.000000) scale(0.100000,-0.100000)"
fill="url(#grad_14)" stroke="none">
<g>
<path d="M5349 3421 c25 -46 133 -181 183 -228 67 -63 117 -80 176 -60 42 15
131 68 132 78 0 4 -42 17 -92 29 -154 37 -336 125 -376 181 -17 25 -36 25 -23
0z"/>
</g>
</g>
<g transform="translate(0.000000,607.000000) scale(0.100000,-0.100000)"
fill="url(#grad_15)" stroke="none">
<g>
<path d="M5697 2702 c-21 -106 -113 -239 -194 -281 l-38 -19 -63 29 c-87 39
-215 118 -289 178 -34 28 -64 47 -67 43 -27 -44 -159 -732 -144 -748 4 -3 19
3 35 13 37 26 201 117 343 190 63 33 147 77 185 98 39 21 84 45 101 53 72 34
152 276 142 432 l-3 55 -8 -43z"/>
</g>
</g>
<g transform="translate(0.000000,607.000000) scale(0.100000,-0.100000)"
fill="url(#grad_16)" stroke="none">
<g>
<path d="M4555 5699 c-34 -10 -65 -53 -96 -132 -11 -28 -29 -61 -39 -72 -10
-11 -21 -31 -25 -45 -4 -13 -14 -30 -21 -38 -8 -7 -14 -19 -14 -26 0 -18 -243
-50 -375 -50 -109 0 -181 15 -298 60 -20 8 -43 14 -50 13 -21 -1 74 -39 153
-62 98 -27 267 -28 443 -2 116 16 130 21 140 42 5 12 14 23 18 23 4 0 10 13
14 29 3 16 15 37 27 47 20 19 20 19 15 -11 -4 -16 -18 -97 -32 -180 -33 -192
-65 -347 -75 -360 -4 -5 -11 -26 -15 -45 -4 -19 -36 -141 -72 -270 -94 -343
-132 -540 -104 -540 6 0 27 -18 47 -40 44 -48 113 -83 218 -110 183 -47 425
-10 664 100 67 31 70 34 103 102 47 98 77 113 219 112 76 0 129 -7 190 -23
110 -29 352 -71 410 -71 57 0 112 26 173 80 l49 43 -56 24 c-150 63 -525 322
-541 373 -4 11 1 30 9 42 11 15 16 44 16 88 -1 59 -2 63 -15 46 -8 -11 -15
-41 -15 -67 0 -65 -23 -83 -38 -30 -18 58 -15 76 19 112 l30 32 -19 26 c-10
14 -28 30 -39 35 -26 12 -31 45 -38 266 -7 214 -23 399 -38 430 -23 47 -56 48
-176 7 -140 -48 -180 -47 -429 2 -226 45 -295 53 -337 40z m944 -1070 c20 -6
61 -19 91 -29 30 -10 67 -21 82 -24 40 -9 169 -99 221 -155 62 -66 64 -99 6
-140 -103 -75 -286 -65 -483 27 -113 54 -248 144 -287 193 l-32 41 24 19 c66
53 145 76 263 78 44 1 96 -4 115 -10z"/>
</g>
</g>
<g transform="translate(0.000000,607.000000) scale(0.100000,-0.100000)"
fill="url(#grad_17)" stroke="none">
<g>
<path d="M5350 5654 c-19 -8 -49 -26 -67 -40 -39 -29 -42 -57 -18 -168 17 -79
20 -85 40 -65 11 11 102 169 154 267 11 21 10 22 -31 22 -24 -1 -59 -8 -78
-16z"/>
</g>
</g>
<g transform="translate(0.000000,607.000000) scale(0.100000,-0.100000)"
fill="url(#grad_18)" stroke="none">
<g>
<path d="M4142 4028 c2 -29 11 -66 19 -83 16 -33 110 -101 179 -129 25 -10 64
-27 88 -37 24 -11 71 -23 105 -28 110 -16 403 -104 487 -147 53 -26 120 -95
252 -254 236 -286 320 -317 521 -188 26 17 45 33 43 36 -3 3 -23 -7 -45 -22
-106 -74 -170 -68 -267 26 -65 62 -189 227 -178 237 3 3 13 -3 22 -14 26 -32
106 -84 187 -121 71 -33 272 -90 282 -81 5 6 -7 10 -102 33 -104 25 -237 82
-292 125 -26 21 -64 49 -83 63 -40 27 -125 158 -163 252 -39 96 -51 162 -50
267 0 53 0 97 -2 97 -1 0 -35 -15 -76 -34 -235 -107 -473 -142 -655 -96 -105
27 -174 62 -218 110 -49 54 -59 52 -54 -12z"/>
</g>
</g>
<g transform="translate(0.000000,607.000000) scale(0.100000,-0.100000)"
fill="url(#grad_19)" stroke="none">
<g>
<path d="M2355 666 c-82 -16 -206 -62 -290 -109 -75 -43 -77 -50 -69 -289 l6
-176 122 -6 c66 -3 196 -7 289 -9 146 -2 167 -1 167 13 0 9 -11 119 -25 244
-14 126 -23 231 -21 234 7 6 107 -151 145 -226 18 -35 47 -109 66 -165 l34
-102 56 -9 c31 -4 58 -6 61 -4 14 14 -113 306 -183 421 -43 72 -116 153 -154
173 -41 21 -126 25 -204 10z"/>
</g>
</g>
<g transform="translate(0.000000,607.000000) scale(0.100000,-0.100000)"
fill="url(#grad_20)" stroke="none">
<g>
<path d="M3470 5307 c0 -53 44 -179 90 -257 75 -128 230 -257 337 -281 51 -12
57 -11 115 17 64 30 89 49 197 151 36 35 75 63 86 63 21 0 45 17 45 31 0 15
-64 29 -104 22 -22 -3 -54 -16 -69 -27 -24 -18 -43 -21 -115 -21 -82 0 -91 2
-172 43 -47 23 -105 54 -130 69 -63 37 -220 159 -252 197 l-27 31 -1 -38z"/>
</g>
</g>
<g transform="translate(0.000000,607.000000) scale(0.100000,-0.100000)"
fill="url(#grad_21)" stroke="none">
<g>
<path d="M3720 5094 c98 -162 209 -284 259 -284 39 0 81 19 104 47 10 13 23
23 28 23 6 0 36 26 67 59 62 63 96 86 117 77 8 -3 17 -1 20 4 9 15 -36 28 -75
22 -19 -3 -48 -14 -63 -26 -25 -18 -43 -21 -125 -21 -94 0 -99 1 -182 43 -47
23 -105 54 -129 69 l-45 27 24 -40z"/>
</g>
</g>
<g transform="translate(0.000000,607.000000) scale(0.100000,-0.100000)"
fill="url(#grad_22)" stroke="none">
<g>
<path d="M4773 2903 c-9 -21 -19 -70 -21 -108 -3 -61 0 -82 27 -150 18 -48 31
-98 31 -126 0 -100 42 -143 98 -102 46 33 72 100 79 201 l6 90 -59 68 c-33 38
-75 90 -93 117 -19 26 -38 47 -43 47 -5 0 -16 -17 -25 -37z"/>
</g>
</g>
<g transform="translate(0.000000,607.000000) scale(0.100000,-0.100000)"
fill="url(#grad_23)" stroke="none">
<g>
<path d="M5135 2016 c-60 -34 -140 -78 -176 -98 l-66 -37 -50 34 -50 33 -51
-86 -51 -87 20 -211 c18 -194 19 -218 5 -310 l-15 -99 35 -51 36 -51 -11 -279
c-5 -153 -9 -280 -7 -282 2 -2 21 5 43 16 21 11 65 28 98 38 33 10 61 19 63
20 2 1 -8 35 -23 76 -52 144 -41 259 40 436 19 41 35 83 35 92 0 10 -9 48 -21
86 -20 66 -20 69 -4 138 20 85 121 344 210 538 36 78 65 143 65 145 0 8 -22
-3 -125 -61z"/>
</g>
</g>
<g transform="translate(0.000000,607.000000) scale(0.100000,-0.100000)"
fill="url(#grad_24)" stroke="none">
<g>
<path d="M3794 590 c-78 -20 -188 -67 -234 -100 l-30 -21 0 -183 0 -183 222
-6 c121 -4 223 -9 226 -12 3 -2 -3 -16 -12 -29 -9 -14 -16 -30 -16 -36 0 -6
58 -10 165 -10 l165 0 0 28 c0 52 30 143 87 264 41 87 59 115 63 101 4 -10 15
-102 25 -205 l18 -188 194 0 c188 0 193 1 183 19 -5 11 -10 22 -10 25 0 3 72
6 160 6 149 0 160 1 160 18 0 11 -11 104 -25 208 -29 221 -27 194 -17 194 13
0 111 -154 146 -232 19 -40 42 -99 52 -130 l18 -58 53 0 53 0 -16 42 c-9 24
-44 101 -79 173 -67 135 -136 233 -194 272 -81 55 -298 10 -468 -97 -20 -13
-25 -12 -45 6 -33 30 -107 63 -171 76 -105 22 -231 -16 -273 -84 l-25 -39 -38
58 c-40 62 -98 119 -138 134 -38 14 -121 10 -199 -11z"/>
</g>
</g>
<g transform="translate(0.000000,607.000000) scale(0.100000,-0.100000)"
fill="url(#grad_25)" stroke="none">
<g>
<path d="M3993 463 c4 -27 12 -103 18 -170 7 -68 15 -123 18 -123 9 0 86 144
85 158 -3 19 -107 182 -118 182 -5 0 -6 -21 -3 -47z"/>
</g>
</g>
<g transform="translate(0.000000,607.000000) scale(0.100000,-0.100000)"
fill="url(#grad_26)" stroke="none">
<g>
<path d="M4367 301 c-57 -120 -87 -211 -87 -263 l0 -28 95 0 95 0 0 28 c-1 44
-37 373 -42 378 -3 2 -30 -50 -61 -115z"/>
</g>
</g>
<g transform="translate(0.000000,607.000000) scale(0.100000,-0.100000)"
fill="url(#grad_27)" stroke="none">
<g>
<path d="M5535 5203 l6 -128 47 -44 47 -44 6 96 c5 82 10 105 40 164 19 37 36
71 37 76 2 4 -40 7 -93 7 l-97 0 7 -127z"/>
</g>
</g>
<g transform="translate(0.000000,607.000000) scale(0.100000,-0.100000)"
fill="url(#grad_28)" stroke="none">
<g>
<path d="M4676 4824 c-11 -58 4 -125 35 -156 23 -24 36 -28 83 -28 31 0 56 2
56 5 0 12 -50 104 -60 110 -6 3 -10 -4 -10 -18 0 -29 -31 -60 -53 -52 -25 10
-40 61 -34 115 7 57 -8 77 -17 24z"/>
</g>
</g>
<g transform="translate(0.000000,607.000000) scale(0.100000,-0.100000)"
fill="url(#grad_29)" stroke="none">
<g>
<path d="M2884 1608 l-41 -10 -6 -213 c-8 -291 6 -365 74 -380 48 -11 88 3
105 38 23 43 14 120 -36 314 -22 87 -41 181 -43 210 -1 29 -4 52 -7 52 -3 -1
-23 -6 -46 -11z"/>
</g>
</g>
<g transform="translate(0.000000,607.000000) scale(0.100000,-0.100000)"
fill="url(#grad_30)" stroke="none">
<g>
<path d="M4628 1668 c-124 -227 -125 -228 -77 -346 65 -161 64 -138 7 -254
l-50 -103 5 -110 c9 -170 62 -338 123 -396 24 -22 24 -22 60 -3 19 10 40 24
45 31 6 6 15 136 20 288 l11 278 -36 51 -35 51 15 95 c13 85 13 115 -2 280
-23 268 -18 260 -86 138z"/>
</g>
</g>
<g transform="translate(0.000000,607.000000) scale(0.100000,-0.100000)"
fill="url(#grad_31)" stroke="none">
<g>
<path d="M6434 4087 c-14 -19 -32 -48 -40 -65 -12 -29 -11 -32 5 -32 10 0 32
-3 49 -6 l30 -6 -1 71 c-1 39 -5 71 -9 71 -4 0 -19 -15 -34 -33z"/>
</g>
</g>
<g transform="translate(0.000000,607.000000) scale(0.100000,-0.100000)"
fill="url(#grad_32)" stroke="none">
<g>
<path d="M3447 5493 c-11 -11 -8 -62 6 -96 8 -18 34 -52 58 -77 50 -51 209
-173 216 -166 3 2 -20 35 -50 73 -30 37 -74 100 -97 138 -23 39 -53 85 -67
103 -22 30 -51 41 -66 25z"/>
</g>
</g>
<g transform="translate(0.000000,607.000000) scale(0.100000,-0.100000)"
fill="url(#grad_33)" stroke="none">
<g>
<path d="M3895 2760 c3 -14 19 -74 35 -135 43 -163 53 -248 47 -387 -5 -141
-21 -196 -73 -256 -39 -46 -41 -52 -16 -52 22 0 115 31 122 40 3 4 16 13 28
19 21 11 23 18 18 54 -4 23 -10 112 -14 197 -8 154 -8 156 -66 325 -32 94 -65
181 -73 195 l-14 25 6 -25z"/>
</g>
</g>
<g transform="translate(0.000000,607.000000) scale(0.100000,-0.100000)"
fill="url(#grad_34)" stroke="none">
<g>
<path d="M3415 1882 c-55 -50 -182 -136 -261 -175 l-51 -26 -6 -93 c-3 -51
-13 -140 -22 -198 -9 -58 -13 -115 -10 -126 3 -13 55 -60 122 -110 143 -108
252 -209 292 -272 40 -64 59 -136 73 -273 l11 -115 51 27 c69 37 189 76 264
86 l62 8 -67 85 c-36 47 -89 121 -118 165 -38 57 -87 110 -169 185 -170 153
-241 240 -252 307 -10 67 36 274 111 492 14 41 24 75 22 77 -1 1 -24 -19 -52
-44z"/>
</g>
</g>
<g transform="translate(0.000000,607.000000) scale(0.100000,-0.100000)"
fill="url(#grad_35)" stroke="none">
<g>
<path d="M2725 4804 c-60 -19 -158 -46 -217 -61 -124 -30 -129 -36 -80 -114
126 -198 484 -319 949 -319 117 0 153 8 254 55 49 23 51 25 19 20 -178 -26
-267 -15 -392 47 -79 40 -191 137 -261 228 -15 19 -22 25 -15 13 37 -67 -131
-109 -255 -64 -28 11 -94 37 -145 59 l-94 39 69 16 c85 19 305 101 296 110 -9
9 -4 10 -128 -29z"/>
</g>
</g>
<g transform="translate(0.000000,607.000000) scale(0.100000,-0.100000)"
fill="url(#grad_36)" stroke="none">
<g>
<path d="M2251 2688 c-84 -132 -85 -133 -82 -194 2 -63 -18 -164 -119 -579
-28 -115 -49 -216 -47 -225 2 -8 9 5 16 30 31 118 60 218 70 244 l11 28 93
-89 c137 -132 267 -214 399 -249 55 -14 218 -19 218 -6 0 4 -21 18 -47 32 -27
13 -87 63 -134 110 -71 71 -93 101 -132 180 -68 137 -79 189 -78 354 1 143
-21 288 -67 439 l-17 57 -84 -132z"/>
</g>
</g>
<g transform="translate(0.000000,607.000000) scale(0.100000,-0.100000)"
fill="url(#grad_37)" stroke="none">
<g>
<path d="M4710 4915 c0 -3 17 -24 38 -45 21 -22 57 -76 81 -121 24 -44 48 -78
54 -76 7 2 13 25 15 50 2 36 -3 59 -24 98 -45 81 -66 99 -119 99 -25 0 -45 -2
-45 -5z"/>
</g>
</g>
<g transform="translate(0.000000,607.000000) scale(0.100000,-0.100000)"
fill="url(#grad_38)" stroke="none">
<g>
<path d="M3503 1968 c-62 -66 -185 -511 -169 -611 11 -67 82 -154 252 -307 78
-70 131 -128 162 -175 25 -38 78 -113 119 -167 61 -78 81 -97 107 -102 44 -8
111 -68 157 -139 l38 -58 25 39 c58 93 241 118 372 52 21 -11 39 -18 41 -16 2
2 -8 26 -22 54 -39 77 -65 194 -72 317 l-5 110 50 103 c57 116 58 93 -7 254
-17 42 -31 88 -31 103 0 20 -26 51 -119 141 -142 137 -209 218 -281 339 -29
50 -54 91 -56 93 -3 5 -47 -19 -54 -28 -3 -4 -43 -19 -88 -35 -101 -33 -125
-31 -264 25 -54 22 -104 40 -111 40 -7 0 -27 -15 -44 -32z"/>
</g>
</g>
<g transform="translate(0.000000,607.000000) scale(0.100000,-0.100000)"
fill="url(#grad_39)" stroke="none">
<g>
<path d="M4858 4625 c-6 -14 -16 -25 -22 -25 -6 0 -3 -5 7 -11 28 -16 47 -3
47 31 0 36 -16 39 -32 5z"/>
</g>
</g>
<g transform="translate(0.000000,607.000000) scale(0.100000,-0.100000)"
fill="url(#grad_40)" stroke="none">
<g>
<path d="M1240 3429 c0 -74 -7 -206 -15 -294 -24 -264 -27 -246 59 -366 59
-83 86 -112 137 -146 77 -50 198 -170 251 -248 34 -52 68 -137 68 -174 0 -8
-11 -48 -25 -88 -22 -64 -26 -95 -30 -236 -2 -89 -9 -207 -14 -262 -6 -55 -14
-142 -17 -193 l-7 -92 161 -155 c162 -157 245 -256 282 -336 24 -54 27 -167 5
-229 -11 -31 -12 -41 -2 -36 113 51 207 82 289 95 l96 15 -62 70 c-172 194
-344 429 -401 547 -38 80 -42 117 -24 229 15 98 91 390 106 409 1 2 44 -36 95
-85 141 -136 269 -214 408 -250 235 -60 604 76 854 316 46 44 88 80 94 80 7 0
56 -18 109 -39 54 -21 113 -42 131 -46 41 -9 112 3 92 15 -10 6 -5 18 23 50
53 62 69 116 74 258 6 139 -4 224 -47 387 -16 61 -32 121 -35 135 l-6 25 14
-25 c8 -14 41 -101 73 -195 l58 -170 7 -160 c8 -181 6 -168 18 -161 30 19 15
518 -19 608 -42 113 -234 355 -350 441 -94 71 -104 69 -225 -58 -62 -64 -109
-105 -121 -105 -34 0 -60 27 -147 148 -131 181 -238 271 -322 272 -38 0 -115
-44 -183 -105 -64 -58 -200 -225 -289 -356 l-65 -97 30 -123 c46 -183 52 -231
51 -379 -1 -160 11 -213 78 -350 39 -79 61 -109 132 -180 47 -47 107 -97 134
-110 26 -14 47 -28 47 -32 0 -13 -163 -8 -218 6 -132 35 -262 117 -399 249
l-93 89 -11 -28 c-10 -26 -39 -126 -70 -244 -7 -25 -14 -38 -16 -30 -2 9 19
110 47 225 118 486 138 602 110 620 -5 3 -10 2 -10 -4 0 -17 -67 -33 -107 -25
-55 10 -168 51 -245 90 -100 50 -112 71 -258 418 -129 309 -215 472 -279 530
l-21 19 0 -134z"/>
</g>
</g>
<g transform="translate(0.000000,607.000000) scale(0.100000,-0.100000)"
fill="url(#grad_41)" stroke="none">
<g>
<path d="M3110 3069 c0 -81 -12 -103 -54 -95 -59 11 -78 -35 -91 -219 l-7
-100 41 -46 c48 -55 79 -66 126 -43 56 26 127 146 140 238 12 77 -38 197 -128
309 -23 28 -27 21 -27 -44z"/>
</g>
</g>
<g transform="translate(0.000000,607.000000) scale(0.100000,-0.100000)"
fill="url(#grad_42)" stroke="none">
<g>
<path d="M4602 5673 c-32 -7 -46 -47 -31 -92 37 -112 322 -305 471 -319 l58
-5 16 38 c20 49 12 114 -26 192 -46 96 -101 134 -245 166 -77 17 -207 28 -243
20z"/>
</g>
</g>
<g transform="translate(0.000000,607.000000) scale(0.100000,-0.100000)"
fill="url(#grad_43)" stroke="none">
<g>
<path d="M5350 3034 c-151 -40 -204 -97 -275 -294 l-27 -75 43 -38 c62 -55
171 -125 278 -179 l93 -47 40 20 c111 57 208 236 208 385 0 43 -25 213 -32
219 -2 2 -27 8 -56 14 -73 15 -206 13 -272 -5z"/>
</g>
</g>
<g transform="translate(0.000000,607.000000) scale(0.100000,-0.100000)"
fill="url(#grad_44)" stroke="none">
<g>
<path d="M6045 5402 c-164 -48 -247 -62 -385 -64 -123 -2 -126 -2 -37 -5 54
-2 97 -7 95 -11 -2 -4 -18 -38 -37 -75 -30 -59 -35 -82 -40 -164 l-6 -96 -52
48 c-29 26 -53 42 -53 37 0 -22 87 -85 135 -98 105 -28 166 -10 249 72 86 85
222 317 214 363 -3 16 -10 15 -83 -7z"/>
</g>
</g>
<g transform="translate(0.000000,607.000000) scale(0.100000,-0.100000)"
fill="url(#grad_45)" stroke="none">
<g>
<path d="M4427 5483 c-8 -10 -19 -30 -22 -45 -4 -16 -10 -28 -14 -28 -4 0 -13
-11 -18 -23 -10 -21 -24 -26 -140 -42 -268 -40 -432 -22 -613 68 -47 23 -88
43 -93 45 -14 7 96 -164 150 -231 30 -38 53 -71 50 -73 -7 -7 -166 114 -214
164 -47 48 -58 45 -15 -4 32 -38 189 -160 252 -197 25 -15 83 -46 130 -69 81
-41 90 -43 172 -43 72 0 91 3 115 21 36 26 101 37 142 23 35 -12 37 -16 18
-38 -11 -13 -11 -23 -1 -51 8 -24 14 -30 18 -20 16 43 110 550 103 557 -2 2
-11 -5 -20 -14z"/>
</g>
</g>
<g transform="translate(0.000000,607.000000) scale(0.100000,-0.100000)"
fill="url(#grad_46)" stroke="none">
<g>
<path d="M1752 4863 c-71 -101 -271 -349 -346 -430 -68 -74 -168 -153 -267
-214 -48 -29 -60 -43 -82 -91 -23 -53 -24 -58 -7 -58 9 0 33 7 52 15 l35 14
32 -142 c17 -78 38 -180 46 -227 19 -109 19 -388 0 -580 -8 -80 -15 -207 -15
-283 0 -164 -15 -126 195 -477 179 -299 263 -466 272 -538 11 -95 21 -65 21
60 -1 108 2 132 26 199 14 41 26 82 26 90 0 37 -34 122 -68 174 -53 78 -174
198 -251 248 -51 34 -78 63 -137 146 -84 118 -84 116 -63 312 6 57 14 190 17
294 l7 190 47 -59 c64 -81 139 -230 248 -490 101 -244 131 -306 167 -354 27
-35 117 -85 228 -124 167 -60 188 -53 274 84 197 313 379 560 483 653 68 61
145 105 183 105 84 -1 191 -91 322 -272 87 -121 113 -148 147 -148 12 0 59 41
121 105 121 127 131 129 225 58 116 -86 307 -328 350 -441 27 -72 45 -397 29
-553 l-11 -120 57 -97 c32 -53 74 -117 93 -142 46 -58 226 -243 274 -281 l37
-30 42 83 c23 46 62 119 88 163 25 44 46 91 47 105 0 14 11 72 23 130 24 113
32 278 18 365 -5 28 -6 47 -2 43 8 -8 75 -352 75 -388 0 -19 11 -32 41 -50 22
-14 44 -24 49 -23 4 1 84 44 176 96 93 51 185 99 204 107 19 8 37 17 40 21 3
4 21 14 40 23 19 8 71 36 115 61 44 25 92 51 106 57 45 20 101 142 124 273 19
111 29 337 20 477 l-7 116 -34 -14 c-49 -20 -118 -17 -166 7 -58 29 -135 104
-246 239 -132 159 -199 228 -252 254 -84 43 -377 131 -487 147 -34 5 -81 17
-105 28 -24 10 -63 27 -88 37 -68 28 -163 96 -180 129 -22 43 -19 217 4 330
11 50 45 184 77 300 32 115 56 211 54 213 -5 6 -77 -44 -255 -178 -232 -173
-283 -198 -453 -221 -87 -12 -99 -11 -252 16 -25 4 -23 3 10 -11 44 -19 204
-25 290 -11 l50 7 -54 -25 c-101 -47 -137 -55 -254 -55 -465 0 -823 121 -949
319 -49 78 -44 85 74 112 56 13 97 24 92 26 -5 2 -50 -6 -99 -18 -50 -11 -102
-23 -118 -26 -58 -11 -216 36 -337 100 -191 101 -203 107 -222 107 -11 0 -36
-26 -66 -67z m2913 -1154 c161 -45 294 -89 345 -115 52 -26 120 -94 247 -249
109 -132 194 -215 251 -244 32 -16 59 -21 120 -21 l79 0 7 -70 c9 -84 -1 -358
-15 -450 -22 -143 -81 -277 -133 -302 -17 -8 -62 -32 -101 -53 -38 -21 -122
-65 -185 -98 -142 -73 -306 -164 -343 -190 -16 -10 -31 -16 -35 -13 -10 11 65
440 106 605 l39 154 -26 23 -26 22 -7 -90 c-8 -102 -35 -169 -80 -201 -56 -41
-98 2 -98 102 0 28 -13 78 -31 126 -26 68 -30 89 -27 150 2 46 11 85 25 114
l22 43 -24 37 c-80 128 -168 353 -205 528 -29 139 -39 223 -26 223 5 0 60 -14
121 -31z"/>
</g>
</g>
<g transform="translate(0.000000,607.000000) scale(0.100000,-0.100000)"
fill="url(#grad_47)" stroke="none">
<g>
<path d="M4555 4923 c22 -10 63 -29 90 -44 l50 -27 -3 -52 c-4 -56 11 -105 35
-115 22 -8 53 23 53 52 0 34 16 20 46 -39 14 -27 28 -48 31 -45 3 3 -13 40
-36 82 -80 149 -135 194 -245 201 l-61 4 40 -17z"/>
</g>
</g>
<g transform="translate(0.000000,607.000000) scale(0.100000,-0.100000)"
fill="url(#grad_48)" stroke="none">
<g>
<path d="M5673 4909 c-62 -30 -103 -71 -103 -104 0 -10 5 -35 12 -56 15 -53
38 -35 38 30 0 26 7 56 15 68 18 26 74 61 124 79 l36 13 -30 0 c-16 0 -58 -13
-92 -30z"/>
</g>
</g>
<g transform="translate(0.000000,607.000000) scale(0.100000,-0.100000)"
fill="url(#grad_49)" stroke="none">
<g>
<path d="M5255 4625 c-53 -13 -95 -33 -134 -64 l-24 -19 32 -41 c39 -49 174
-139 287 -193 197 -92 380 -102 483 -27 58 41 56 74 -6 140 -52 56 -181 146
-221 155 -15 3 -52 14 -82 24 -30 10 -71 23 -91 29 -45 14 -179 12 -244 -4z"/>
</g>
</g>
<g transform="translate(0.000000,607.000000) scale(0.100000,-0.100000)"
fill="url(#grad_50)" stroke="none">
<g>
<path d="M3503 1968 c-62 -66 -185 -511 -169 -611 11 -67 82 -154 252 -307 78
-70 131 -128 162 -175 25 -38 78 -113 119 -167 61 -78 81 -97 107 -102 44 -8
111 -68 157 -139 l38 -59 22 36 c12 20 30 41 41 47 44 24 87 165 109 355 12
110 -3 188 -50 265 l-28 45 15 97 16 97 -32 42 c-79 107 -198 288 -224 343
-24 51 -28 73 -28 143 0 45 -4 82 -8 82 -5 0 -42 -12 -83 -26 -92 -32 -126
-28 -260 26 -55 22 -105 40 -112 40 -7 0 -27 -15 -44 -32z"/>
</g>
</g>
<g transform="translate(0.000000,607.000000) scale(0.100000,-0.100000)"
fill="url(#grad_51)" stroke="none">
<g>
<path d="M960 6007 c-19 -13 -66 -36 -104 -52 -98 -41 -198 -109 -300 -206
-108 -101 -146 -152 -146 -192 0 -29 37 -111 83 -184 97 -153 125 -268 91
-369 -8 -25 -13 -48 -10 -51 2 -3 21 0 41 7 30 10 47 28 92 96 73 113 139 255
164 355 26 102 23 230 -8 299 l-20 45 37 75 c21 41 59 103 84 138 25 34 43 62
38 62 -4 0 -23 -10 -42 -23z m-123 -109 c-53 -66 -95 -131 -139 -216 -36 -70
-39 -73 -33 -37 14 88 37 147 73 187 31 34 119 107 130 108 2 0 -12 -19 -31
-42z"/>
</g>
</g>
</svg>
