<?xml version="1.0" encoding="utf-8"?>
<!-- Generator: Adobe Illustrator 16.0.0, SVG Export Plug-In . SVG Version: 6.00 Build 0)  -->
<!DOCTYPE svg PUBLIC "-//W3C//DTD SVG 1.1//EN" "http://www.w3.org/Graphics/SVG/1.1/DTD/svg11.dtd">
<svg version="1.1" id="图层_1" xmlns="http://www.w3.org/2000/svg" xmlns:xlink="http://www.w3.org/1999/xlink" x="0px" y="0px"
	 width="800px" height="800px" viewBox="0 0 800 800" enable-background="new 0 0 800 800" xml:space="preserve">
<pattern  y="800" width="40" height="40" patternUnits="userSpaceOnUse" id="Unnamed_Pattern" viewBox="0 -40 40 40" overflow="visible">
	<g>
		<polygon fill="none" points="0,-40 40,-40 40,0 0,0 		"/>
		<polygon fill="#D3D3D3" points="0,-20 20,-20 20,0 0,0 		"/>
		<polygon fill="#D3D3D3" points="20,-40 40,-40 40,-20 20,-20 		"/>
	</g>
</pattern>
<g>
	<defs>
		<rect id="SVGID_1_" width="800" height="800"/>
	</defs>
	<clipPath id="SVGID_2_">
		<use xlink:href="#SVGID_1_"  overflow="visible"/>
	</clipPath>
	<pattern  id="SVGID_3_" xlink:href="#Unnamed_Pattern" patternTransform="matrix(1 0 0 -1 17118.5 -291.8086)">
	</pattern>
	<rect clip-path="url(#SVGID_2_)" fill="url(#SVGID_3_)" width="799.5" height="799.5"/>
	<g clip-path="url(#SVGID_2_)">
		<defs>
			<path id="SVGID_4_" d="M310.587,532.145c0.54,1.08,1.2,2.521,1.56,3.181c0.42,0.66,1.08,1.979,1.62,3
				c1.14,2.34,4.5,6.54,7.56,9.479c9.06,8.641,23.28,14.7,43.501,18.48c9.9,1.859,13.199,2.04,39.6,2.04c28.62,0,29.999-0.12,42.6-3
				c19.979-4.62,35.76-13.62,42.6-24.3c3.12-4.86,2.101-5.101-5.939-1.141c-9,4.38-14.881,6.42-27.12,9.54
				c-18.36,4.62-40.979,6.96-61.44,6.36c-12.6-0.3-15.42-0.48-24.3-1.26c-13.32-1.261-29.399-5.46-39.6-10.381
				c-3.72-1.8-11.579-7.079-12.6-8.52c-0.54-0.72-7.74-5.4-8.339-5.4C309.987,530.225,310.108,531.125,310.587,532.145"/>
		</defs>
		<clipPath id="SVGID_5_">
			<use xlink:href="#SVGID_4_"  overflow="visible"/>
		</clipPath>
		
			<linearGradient id="SVGID_6_" gradientUnits="userSpaceOnUse" x1="0" y1="800.0742" x2="1" y2="800.0742" gradientTransform="matrix(-175.703 51.435 244.5351 36.957 -195188.5313 -29035.5488)">
			<stop  offset="0" style="stop-color:#797C7E"/>
			<stop  offset="1" style="stop-color:#CECED3"/>
		</linearGradient>
		<polygon clip-path="url(#SVGID_5_)" fill="url(#SVGID_6_)" points="578.583,543.197 430.52,586.541 224.151,555.353 
			372.214,512.009 		"/>
	</g>
	<g clip-path="url(#SVGID_2_)">
		<defs>
			<path id="SVGID_7_" d="M374.728,168.125c-14.76,1.5-36.54,5.22-39.841,6.84c-0.54,0.24-2.76,0.96-5.04,1.56
				c-2.22,0.54-4.2,1.26-4.38,1.56c-0.18,0.3-0.72,0.54-1.2,0.54c-0.54,0-2.7,0.78-4.86,1.8c-2.099,0.96-3.96,1.8-4.079,1.8
				c-0.54,0-8.521,5.22-9.841,6.42c-0.779,0.78-1.679,1.38-1.92,1.38c-0.299,0-0.54,0.36-0.54,0.78c0,0.48-0.479,1.32-1.14,1.86
				c-1.62,1.5-3.24,6.12-2.88,8.34c0.42,3,2.461,8.22,3.12,8.22c0.36,0,1.74,1.08,3,2.46c1.32,1.38,3.84,3.24,5.58,4.26
				c1.68,0.96,3.12,2.04,3.12,2.34c0,0.54,4.26,2.7,12,6.18c11.22,4.98,28.8,8.94,47.101,10.56c9.18,0.84,32.819,0.84,42.779,0
				c12.18-1.02,29.16-3.42,40.741-5.76c1.858-0.36,1.919-0.3,2.52,2.22c0.36,1.44,0.959,3.42,1.319,4.44c0.36,0.96,0.78,2.34,0.96,3
				c0.18,0.66,0.66,2.04,1.141,3.12c0.479,1.02,0.839,2.52,0.839,3.36c0,0.84,0.301,1.74,0.602,1.92
				c0.359,0.18,0.599,1.14,0.599,2.04c0,0.9,0.24,1.86,0.54,2.16c0.36,0.36,0.661,2.34,0.78,4.44l0.18,3.84l-8.398,2.34
				c-22.081,6-42.602,8.88-64.201,8.88c-23.819,0-44.28-3.36-65.82-10.74c-4.86-1.68-9.299-3.06-9.839-3.06
				c-1.26,0-20.401-9.42-24.84-12.24c-4.441-2.82-3.901-4.62-6.061,19.44c-0.36,4.02-0.779,36.6-0.959,77.4
				c-0.301,72.42,0.18,107.939,1.919,131.7c0.48,6.6,1.02,14.399,1.26,17.399c0.72,11.641,3.24,19.44,8.58,26.7
				c2.821,3.9,9.9,10.32,15.36,13.98c2.941,1.979,5.52,3.779,5.7,4.02c1.021,1.38,8.82,6.72,12.6,8.52
				c10.201,4.921,26.28,9.12,39.6,10.381c8.88,0.779,11.7,0.96,24.3,1.26c20.461,0.6,43.08-1.74,61.44-6.36
				c12.239-3.12,18.12-5.16,27.12-9.54c5.939-2.939,7.141-3.3,7.439-2.52c0.3,0.72,0.9,0.12,2.34-2.16
				c1.08-1.68,3.301-4.14,4.921-5.46c5.94-4.74,11.64-12.3,14.58-19.32c0.779-1.8,1.679-3.66,2.039-4.14
				c0.601-0.72,1.021-4.08,2.821-24.66c0.959-11.22,1.739-28.32,1.8-39.72v-10.62l-2.821,3c-4.979,5.34-16.14,9.78-28.619,11.34
				c-18.301,2.28-41.4,0.84-70.561-4.5c-14.58-2.64-17.76-2.94-31.199-3c-8.82,0-14.76,0.24-17.1,0.78
				c-16.441,3.54-25.92,8.22-34.38,17.16c-7.501,7.92-11.34,15.239-14.461,27.779c-2.76,10.98-3.179,25.62-1.199,36.54
				c1.739,9.12,2.039,12.24,1.199,12.24c-2.58,0-12.12-7.2-18.42-13.86c-2.7-2.88-3.119-3.659-3.479-6.54
				c-0.54-4.8-1.44-31.979-1.681-51c-0.299-24.72,0.061-171.06,0.48-191.459l0.36-17.76l-1.92-2.22c-1.08-1.2-1.86-2.28-1.739-2.34
				c0.119-0.06,7.139,3.3,15.539,7.56l15.3,7.62l-5.16-0.18l-5.159-0.18l-0.36,31.8c-0.481,36.54-0.54,157.56-0.121,157.56
				c0.121,0,3.001-2.28,6.3-5.04c13.74-11.52,29.821-20.7,45.301-25.979c10.98-3.721,27.479-7.381,41.099-9.181
				c2.821-0.359,8.1-1.02,11.7-1.5c17.041-2.22,21.42-2.819,26.699-3.66c26.94-4.319,44.04-11.76,56.16-24.36
				c10.261-10.74,14.521-21.3,17.4-43.62c0.9-7.32,0.96-10.02,0.301-30c-1.08-32.52-2.641-57.9-3.78-63.06
				c-0.899-4.08-7.02-21.78-9.18-26.7c-3.24-7.26-4.021-9.96-3.6-12.18c0.238-1.2,0.479-4.02,0.479-6.24
				c0.062-3.54-0.119-4.26-1.919-6.9c-2.581-3.72-6.961-7.26-12.78-10.26c-5.22-2.7-13.98-6.06-19.681-7.62
				c-2.16-0.54-4.56-1.26-5.4-1.5c-3.119-1.02-14.339-3.06-26.398-4.8c-7.957-1.121-23.437-1.741-37.762-1.741
				C389.626,167.284,380.686,167.553,374.728,168.125"/>
		</defs>
		<clipPath id="SVGID_8_">
			<use xlink:href="#SVGID_7_"  overflow="visible"/>
		</clipPath>
		
			<linearGradient id="SVGID_9_" gradientUnits="userSpaceOnUse" x1="0" y1="799.999" x2="1" y2="799.999" gradientTransform="matrix(-9.3561 384.7076 231.5643 15.5437 -184843.8125 -12265.5518)">
			<stop  offset="0" style="stop-color:#D7E100"/>
			<stop  offset="1" style="stop-color:#D50000"/>
		</linearGradient>
		<polygon clip-path="url(#SVGID_8_)" fill="url(#SVGID_9_)" points="529.194,167.918 519.365,572.083 276.06,555.751 
			285.889,151.586 		"/>
	</g>
	<g clip-path="url(#SVGID_2_)">
		<defs>
			<path id="SVGID_10_" d="M425.427,184.625c-3.479,0.96-9.72,2.64-13.92,3.66c-6.96,1.74-7.68,2.04-7.68,3.24
				c0,1.8,0.899,2.46,6.06,4.32c5.4,1.92,14.221,2.46,21.66,1.44c5.76-0.84,23.58-4.98,27.36-6.42c1.439-0.54,2.46-1.26,2.34-1.68
				c-0.72-2.28-13.619-5.7-22.92-6.06c-1.431-0.058-2.592-0.095-3.607-0.095C431.521,183.03,429.754,183.395,425.427,184.625"/>
		</defs>
		<clipPath id="SVGID_11_">
			<use xlink:href="#SVGID_10_"  overflow="visible"/>
		</clipPath>
		
			<linearGradient id="SVGID_12_" gradientUnits="userSpaceOnUse" x1="0" y1="799.9824" x2="1" y2="799.9824" gradientTransform="matrix(57.4296 0 0 -14.7615 403.824 11999.625)">
			<stop  offset="0" style="stop-color:#636768"/>
			<stop  offset="1" style="stop-color:#636768"/>
		</linearGradient>
		<rect x="403.827" y="183.03" clip-path="url(#SVGID_11_)" fill="url(#SVGID_12_)" width="57.54" height="15.275"/>
	</g>
	<g clip-path="url(#SVGID_2_)">
		<defs>
			<path id="SVGID_13_" d="M302.487,196.805c-0.96,3.24-0.36,6.24,1.861,9.9c1.559,2.58,7.56,6.72,13.079,9.06
				c2.46,1.08,5.04,2.16,5.7,2.46c2.76,1.26,13.261,4.08,22.2,5.94c10.02,2.16,29.88,3.66,46.8,3.6
				c20.521-0.12,22.021-0.84,2.7-1.32c-15.12-0.36-23.82-1.08-36.6-3.12c-5.52-0.84-7.02-1.14-14.7-2.94
				c-14.159-3.3-27.299-9.3-34.44-15.72c-3.42-3.06-4.86-5.4-5.459-8.64l-0.36-2.1L302.487,196.805z"/>
		</defs>
		<clipPath id="SVGID_14_">
			<use xlink:href="#SVGID_13_"  overflow="visible"/>
		</clipPath>
		
			<linearGradient id="SVGID_15_" gradientUnits="userSpaceOnUse" x1="0" y1="800.0303" x2="1" y2="800.0303" gradientTransform="matrix(-3.1924 23.6892 74.489 1.0153 -59237.7227 -585.5275)">
			<stop  offset="0" style="stop-color:#C0C5C2"/>
			<stop  offset="1" style="stop-color:#FAFAFA"/>
		</linearGradient>
		<polygon clip-path="url(#SVGID_14_)" fill="url(#SVGID_15_)" points="418.708,193.987 413.941,229.357 296.967,227.763 
			301.733,192.393 		"/>
	</g>
	<g clip-path="url(#SVGID_2_)">
		<defs>
			<path id="SVGID_16_" d="M384.988,187.145c-4.32,0-8.82,0.18-9.961,0.3c-29.94,3-50.1,9.12-54.42,16.56l-1.26,2.1l2.76,1.2
				c4.44,1.92,11.28,4.02,18.12,5.7c10.86,2.64,12.12,2.82,30.6,5.22c9.301,1.2,15.781,1.5,33,1.5c29.94,0,52.5-3.06,73.321-9.96
				c6.119-2.04,7.679-3,7.679-4.74c0-1.74-3.179-5.1-6.6-6.96c-1.141-0.66-2.221-1.2-2.34-1.26c-0.121-0.06,0.36-0.6,1.08-1.2
				c0.839-0.72,1.379-2.1,1.68-4.08c0.359-2.88,0.301-2.94-0.779-2.04c-3.061,2.64-10.562,5.22-28.44,9.72
				c-15.78,4.02-22.859,5.22-30.121,5.22c-14.04,0-26.88-6-26.88-12.6c0-1.26,0.301-2.4,0.661-2.52
				c0.299-0.12,0.419-0.66,0.239-1.26c-0.287-0.717-0.954-0.939-4.763-0.939C387.591,187.106,386.415,187.121,384.988,187.145"/>
		</defs>
		<clipPath id="SVGID_17_">
			<use xlink:href="#SVGID_16_"  overflow="visible"/>
		</clipPath>
		
			<linearGradient id="SVGID_18_" gradientUnits="userSpaceOnUse" x1="0" y1="799.998" x2="1" y2="799.998" gradientTransform="matrix(-162.1704 44.0355 223.398 31.9665 -178287.4688 -25377.498)">
			<stop  offset="0" style="stop-color:#737677"/>
			<stop  offset="1" style="stop-color:#F0F0ED"/>
		</linearGradient>
		<polygon clip-path="url(#SVGID_17_)" fill="url(#SVGID_18_)" points="563.497,198.363 427.719,235.232 240.677,208.468 
			376.456,171.599 		"/>
	</g>
	<g clip-path="url(#SVGID_2_)">
		<defs>
			<path id="SVGID_19_" d="M300.568,210.845c-0.301,0.96-2.34,6-4.441,11.28c-3.839,9.78-5.819,15.36-6.539,18.66
				c-0.421,1.8-0.241,1.98,3.359,4.26c4.86,3.06,23.4,12.18,24.721,12.18c0.54,0,4.979,1.38,9.839,3.06
				c40.08,13.74,84.121,14.4,130.021,1.86l8.398-2.34l-0.18-3.84c-0.119-2.1-0.42-4.08-0.78-4.44c-0.3-0.3-0.54-1.26-0.54-2.16
				c0-0.9-0.239-1.86-0.599-2.04c-0.301-0.18-0.602-1.08-0.602-1.92c0-0.84-0.359-2.34-0.779-3.36c-1.021-2.4-2.22-5.76-2.641-7.32
				c-0.18-0.66-0.54-2.22-0.899-3.54c-0.54-2.16-0.659-2.28-2.459-1.92c-11.581,2.34-28.562,4.74-40.741,5.76
				c-9.96,0.84-33.599,0.84-42.779,0c-18.301-1.62-35.881-5.58-47.101-10.56c-7.74-3.48-12-5.64-12-6.18c0-0.3-1.44-1.38-3.12-2.34
				c-1.74-1.02-4.26-2.88-5.58-4.26c-1.518-1.584-2.492-2.351-3.2-2.351C301.347,209.334,300.945,209.846,300.568,210.845"/>
		</defs>
		<clipPath id="SVGID_20_">
			<use xlink:href="#SVGID_19_"  overflow="visible"/>
		</clipPath>
		
			<linearGradient id="SVGID_21_" gradientUnits="userSpaceOnUse" x1="0" y1="799.998" x2="1" y2="799.998" gradientTransform="matrix(-1.765 53.7306 153.5552 0.6176 -122465.1875 -284.4375)">
			<stop  offset="0" style="stop-color:#FBF529"/>
			<stop  offset="1" style="stop-color:#FFD92B"/>
		</linearGradient>
		<polygon clip-path="url(#SVGID_20_)" fill="url(#SVGID_21_)" points="468.073,209.343 465.903,275.396 287.021,274.676 
			289.19,208.623 		"/>
	</g>
	<g clip-path="url(#SVGID_2_)">
		<defs>
			<path id="SVGID_22_" d="M294.027,247.505c0,0.12,0.84,1.2,1.861,2.4l1.859,2.1l-0.36,17.76
				c-0.419,20.4-0.779,166.74-0.48,191.459c0.241,18.36,1.141,45.9,1.681,51c0.36,3.24,0.419,3.36,6.599,9.42
				c3.42,3.36,6.78,6.421,7.441,6.78l1.199,0.66v-100.68c0-55.38,0.18-115.44,0.421-133.44l0.36-32.7l5.159,0.24
				c2.82,0.12,5.04,0.12,4.86-0.06c-0.476-0.476-30.113-14.942-30.594-14.943C294.029,247.502,294.027,247.503,294.027,247.505"/>
		</defs>
		<clipPath id="SVGID_23_">
			<use xlink:href="#SVGID_22_"  overflow="visible"/>
		</clipPath>
		
			<linearGradient id="SVGID_24_" gradientUnits="userSpaceOnUse" x1="0" y1="799.9082" x2="1" y2="799.9082" gradientTransform="matrix(30.3041 -264.6879 -28.7736 -278.7671 23320.2676 223424)">
			<stop  offset="0" style="stop-color:#FE6949"/>
			<stop  offset="1" style="stop-color:#FEE853"/>
		</linearGradient>
		<polygon clip-path="url(#SVGID_23_)" fill="url(#SVGID_24_)" points="278.742,381.003 310.214,106.12 340.092,395.583 
			308.62,670.468 		"/>
	</g>
	<g clip-path="url(#SVGID_2_)">
		<defs>
			<path id="SVGID_25_" d="M518.487,340.145c-2.341,19.68-7.08,31.38-17.101,41.76c-12.12,12.6-29.22,20.041-56.16,24.36
				c-5.279,0.841-9.658,1.44-26.699,3.66c-3.601,0.48-8.879,1.141-11.7,1.5c-13.62,1.8-30.119,5.46-41.099,9.181
				c-15.66,5.34-30.901,14.1-45.54,26.22l-6.66,5.46l0.18,38.58l0.119,38.52l3,1.62c1.62,0.9,3.3,1.62,3.66,1.62
				c0.84,0,0.54-3.12-1.199-12.24c-1.98-10.92-1.561-25.56,1.199-36.54c3.121-12.54,6.96-19.859,14.461-27.779
				c8.46-8.94,17.939-13.62,34.38-17.16c2.34-0.54,8.28-0.78,17.1-0.78c13.439,0.06,16.619,0.36,31.199,3
				c29.16,5.34,52.26,6.78,70.561,4.5c12.479-1.56,23.64-6,28.619-11.34l2.821-3v-48.66c0-26.7-0.121-48.6-0.18-48.6
				C519.327,334.025,518.908,336.785,518.487,340.145"/>
		</defs>
		<clipPath id="SVGID_26_">
			<use xlink:href="#SVGID_25_"  overflow="visible"/>
		</clipPath>
		
			<linearGradient id="SVGID_27_" gradientUnits="userSpaceOnUse" x1="4.882813e-004" y1="800" x2="1.0005" y2="800" gradientTransform="matrix(206.1 0 0 -198.6 313.4976 159313.375)">
			<stop  offset="0" style="stop-color:#D69C6D"/>
			<stop  offset="1" style="stop-color:#D69C6D"/>
		</linearGradient>
		<rect x="313.528" y="334.025" clip-path="url(#SVGID_26_)" fill="url(#SVGID_27_)" width="206.1" height="198.6"/>
	</g>
	<g clip-path="url(#SVGID_2_)">
		<defs>
			<path id="SVGID_28_" d="M308.848,457.565c-5.821,6.119-12.841,15.6-15.781,21.3c-1.319,2.52-2.7,4.56-3.06,4.56
				c-1.56,0-0.3,14.04,1.561,17.76c0.659,1.32,1.379,3.12,1.559,4.021c0.241,0.9,0.66,1.62,0.9,1.62c0.241,0,0.601,0.84,0.84,1.859
				c0.18,1.021,1.741,3.601,3.42,5.7c3.001,3.78,12.541,13.08,14.521,14.101c0.959,0.54,1.019-1.44,1.019-37.561
				c0-20.939-0.119-38.1-0.24-38.1C313.467,452.825,311.368,454.985,308.848,457.565"/>
		</defs>
		<clipPath id="SVGID_29_">
			<use xlink:href="#SVGID_28_"  overflow="visible"/>
		</clipPath>
		<defs>
			<filter id="Adobe_OpacityMaskFilter" filterUnits="userSpaceOnUse" x="288.447" y="452.825" width="25.38" height="76.2">
				<feColorMatrix  type="matrix" values="1 0 0 0 0  0 1 0 0 0  0 0 1 0 0  0 0 0 1 0"/>
			</filter>
		</defs>
		<mask maskUnits="userSpaceOnUse" x="288.447" y="452.825" width="25.38" height="76.2" id="SVGID_30_">
			<g filter="url(#Adobe_OpacityMaskFilter)">
				
					<linearGradient id="SVGID_31_" gradientUnits="userSpaceOnUse" x1="0" y1="799.9961" x2="1" y2="799.9961" gradientTransform="matrix(24.5242 0 0 -75.7257 289.3076 61071.2109)">
					<stop  offset="0" style="stop-color:#848484"/>
					<stop  offset="1" style="stop-color:#848484"/>
				</linearGradient>
				<rect x="288.447" y="452.825" clip-path="url(#SVGID_29_)" fill="url(#SVGID_31_)" width="25.38" height="76.2"/>
			</g>
		</mask>
		
			<linearGradient id="SVGID_32_" gradientUnits="userSpaceOnUse" x1="0" y1="799.9961" x2="1" y2="799.9961" gradientTransform="matrix(24.5242 0 0 -75.7257 289.3076 61071.2109)">
			<stop  offset="0" style="stop-color:#FFFFFB"/>
			<stop  offset="1" style="stop-color:#FFFFFB"/>
		</linearGradient>
		
			<rect x="288.447" y="452.825" clip-path="url(#SVGID_29_)" mask="url(#SVGID_30_)" fill="url(#SVGID_32_)" width="25.38" height="76.2"/>
	</g>
	<g clip-path="url(#SVGID_2_)">
		<defs>
			<path id="SVGID_33_" d="M472.767,399.665c-0.479,0.479-10.979,3.42-16.439,4.56c-8.82,1.86-14.04,2.641-37.8,5.7
				c-3.601,0.48-8.879,1.141-11.7,1.5c-13.62,1.8-30.119,5.46-41.099,9.181c-15.66,5.34-30.901,14.1-45.54,26.22l-6.66,5.46
				l0.18,38.58l0.119,38.52l3,1.62c1.62,0.9,3.3,1.62,3.66,1.62c0.84,0,0.54-3.12-1.199-12.24c-1.98-10.92-1.561-25.56,1.199-36.54
				c3.121-12.54,6.96-19.859,14.461-27.779c8.46-8.94,17.939-13.62,34.38-17.16c2.34-0.54,8.28-0.78,17.1-0.78
				c13.439,0.06,16.619,0.36,31.199,3c14.46,2.64,25.98,4.14,38.7,5.1c13.2,0.96,12.78,1.021,13.44-1.68
				c1.859-7.38,5.1-45.12,3.84-45.12C473.307,399.425,472.887,399.545,472.767,399.665"/>
		</defs>
		<clipPath id="SVGID_34_">
			<use xlink:href="#SVGID_33_"  overflow="visible"/>
		</clipPath>
		<defs>
			<filter id="Adobe_OpacityMaskFilter_1_" filterUnits="userSpaceOnUse" x="313.528" y="399.425" width="161.339" height="133.2">
				<feColorMatrix  type="matrix" values="1 0 0 0 0  0 1 0 0 0  0 0 1 0 0  0 0 0 1 0"/>
			</filter>
		</defs>
		<mask maskUnits="userSpaceOnUse" x="313.528" y="399.425" width="161.339" height="133.2" id="SVGID_35_">
			<g filter="url(#Adobe_OpacityMaskFilter_1_)">
				
					<linearGradient id="SVGID_36_" gradientUnits="userSpaceOnUse" x1="9.765625e-004" y1="800" x2="1.001" y2="800" gradientTransform="matrix(160.3635 0 0 -133.2 313.4893 107026)">
					<stop  offset="0" style="stop-color:#E7E7E7"/>
					<stop  offset="1" style="stop-color:#E7E7E7"/>
				</linearGradient>
				<rect x="313.528" y="399.424" clip-path="url(#SVGID_34_)" fill="url(#SVGID_36_)" width="161.339" height="133.2"/>
			</g>
		</mask>
		
			<linearGradient id="SVGID_37_" gradientUnits="userSpaceOnUse" x1="4.882813e-004" y1="800" x2="1.0005" y2="800" gradientTransform="matrix(160.3635 0 0 -133.2 313.4893 107026.0078)">
			<stop  offset="0" style="stop-color:#FFBA81"/>
			<stop  offset="1" style="stop-color:#FFBA81"/>
		</linearGradient>
		
			<rect x="313.528" y="399.425" clip-path="url(#SVGID_34_)" mask="url(#SVGID_35_)" fill="url(#SVGID_37_)" width="161.339" height="133.2"/>
	</g>
	<g clip-path="url(#SVGID_2_)">
		<defs>
			<path id="SVGID_38_" d="M345.327,224.165c-8.939-1.86-19.44-4.68-22.2-5.94c-0.66-0.3-3.24-1.38-5.7-2.46
				c-11.58-4.86-16.98-11.76-14.94-18.96l0.781-2.88l0.36,2.1c0.239,1.14,0.839,2.94,1.379,3.96c3.06,5.88,16.2,13.74,30,18.06
				c4.5,1.38,7.141,2.04,14.82,3.78c10.98,2.52,27.48,4.2,45,4.62c19.321,0.48,17.82,1.2-2.7,1.32
				c-0.328,0.001-0.659,0.001-0.989,0.001C374.439,227.767,355.153,226.283,345.327,224.165 M370.827,218.225
				c-18.48-2.4-19.74-2.58-30.6-5.22c-23.639-5.7-35.1-13.62-31.14-21.36c0.78-1.5,5.881-6.42,6.66-6.42c0.301,0,1.5-0.66,2.76-1.44
				c1.2-0.72,2.88-1.56,3.72-1.8c0.841-0.24,2.16-0.72,3.001-1.08c2.88-1.26,3.899-1.561,8.1-2.58c2.34-0.54,4.86-1.2,5.699-1.5
				c0.84-0.24,4.08-0.96,7.2-1.5c3.121-0.54,6.901-1.2,8.4-1.5c3.181-0.66,13.981-1.8,22.801-2.4c9.479-0.6,40.019-0.6,48.899,0
				c8.04,0.54,21.121,2.04,26.399,2.94c5.342,0.96,12.541,2.4,14.882,3.06c1.198,0.3,3.179,0.84,4.379,1.14
				c2.28,0.6,4.801,1.5,7.86,2.82c1.02,0.48,2.16,0.84,2.459,0.84c1.142,0,8.221,4.26,10.142,6.12
				c3.659,3.48,4.019,8.28,0.959,11.88c-2.641,3.18-9.9,7.44-16.141,9.48c-20.939,6.96-43.439,10.02-73.439,10.02
				C386.608,219.725,380.128,219.425,370.827,218.225 M374.728,168.125c-14.76,1.5-36.54,5.22-39.841,6.84
				c-0.54,0.24-2.76,0.96-5.04,1.56c-2.22,0.54-4.2,1.26-4.38,1.56c-0.18,0.3-0.72,0.54-1.2,0.54c-0.54,0-2.7,0.78-4.86,1.8
				c-2.099,0.96-3.96,1.8-4.079,1.8c-0.54,0-8.521,5.22-9.841,6.42c-0.779,0.78-1.679,1.38-1.92,1.38c-0.299,0-0.54,0.36-0.54,0.78
				c0,0.48-0.479,1.32-1.14,1.86c-1.62,1.5-3.24,6.12-2.88,8.34c0.42,2.82,2.461,8.22,3.06,8.22c0.301,0,1.98,1.38,3.78,3.06
				c1.741,1.62,4.441,3.54,6,4.2c1.62,0.66,3.96,1.74,5.281,2.34c5.459,2.64,10.919,4.5,18.599,6.36c7.141,1.8,8.46,2.1,13.5,3
				c15.48,2.82,24.3,3.42,49.801,3.42c22.08,0,32.4-0.42,45.599-2.04c2.821-0.3,7.38-0.84,10.201-1.14
				c2.819-0.3,6.3-0.78,7.799-1.14c5.04-1.08,19.08-5.94,23.4-8.1c2.34-1.2,4.56-2.16,4.92-2.16c0.961,0,7.14-4.68,8.46-6.36
				c0.601-0.78,1.501-1.44,1.92-1.44c0.96,0,1.62-3.6,1.68-9.12c0.062-3.6-0.119-4.26-1.919-6.9c-2.581-3.72-6.961-7.26-12.78-10.26
				c-5.22-2.7-13.98-6.06-19.681-7.62c-2.16-0.54-4.56-1.26-5.4-1.5c-3.119-1.02-14.339-3.06-26.398-4.8
				c-7.957-1.121-23.437-1.741-37.762-1.741C389.626,167.284,380.686,167.553,374.728,168.125"/>
		</defs>
		<clipPath id="SVGID_39_">
			<use xlink:href="#SVGID_38_"  overflow="visible"/>
		</clipPath>
		<defs>
			<filter id="Adobe_OpacityMaskFilter_2_" filterUnits="userSpaceOnUse" x="298.647" y="167.284" width="204.421" height="64.321">
				<feColorMatrix  type="matrix" values="1 0 0 0 0  0 1 0 0 0  0 0 1 0 0  0 0 0 1 0"/>
			</filter>
		</defs>
		<mask maskUnits="userSpaceOnUse" x="298.647" y="167.284" width="204.421" height="64.321" id="SVGID_40_">
			<g filter="url(#Adobe_OpacityMaskFilter_2_)">
				
					<linearGradient id="SVGID_41_" gradientUnits="userSpaceOnUse" x1="0" y1="800" x2="1" y2="800" gradientTransform="matrix(204.0602 0 0 -64.321 298.9399 51656.2773)">
					<stop  offset="0" style="stop-color:#D3D3D3"/>
					<stop  offset="1" style="stop-color:#D3D3D3"/>
				</linearGradient>
				<rect x="298.647" y="167.284" clip-path="url(#SVGID_39_)" fill="url(#SVGID_41_)" width="204.421" height="64.321"/>
			</g>
		</mask>
		
			<linearGradient id="SVGID_42_" gradientUnits="userSpaceOnUse" x1="0" y1="800.001" x2="1" y2="800.001" gradientTransform="matrix(204.0601 0 0 -64.321 298.9521 51656.2734)">
			<stop  offset="0" style="stop-color:#C0C9F3"/>
			<stop  offset="1" style="stop-color:#C0C9F3"/>
		</linearGradient>
		
			<rect x="298.647" y="167.284" clip-path="url(#SVGID_39_)" mask="url(#SVGID_40_)" fill="url(#SVGID_42_)" width="204.421" height="64.321"/>
	</g>
	<g clip-path="url(#SVGID_2_)">
		<defs>
			<path id="SVGID_43_" d="M348.027,268.025c0,0.9,2.1,1.8,4.14,1.8c2.28,0,2.401-0.78,0.36-1.68
				c-0.996-0.45-2.216-0.693-3.134-0.693C348.597,267.452,348.027,267.635,348.027,268.025"/>
		</defs>
		<clipPath id="SVGID_44_">
			<use xlink:href="#SVGID_43_"  overflow="visible"/>
		</clipPath>
		<defs>
			<filter id="Adobe_OpacityMaskFilter_3_" filterUnits="userSpaceOnUse" x="348.027" y="267.452" width="6.541" height="2.373">
				<feColorMatrix  type="matrix" values="1 0 0 0 0  0 1 0 0 0  0 0 1 0 0  0 0 0 1 0"/>
			</filter>
		</defs>
		<mask maskUnits="userSpaceOnUse" x="348.027" y="267.452" width="6.541" height="2.373" id="SVGID_45_">
			<g filter="url(#Adobe_OpacityMaskFilter_3_)">
				
					<linearGradient id="SVGID_46_" gradientUnits="userSpaceOnUse" x1="-4.882813e-004" y1="800" x2="0.9995" y2="800" gradientTransform="matrix(5.945 0 0 -2.3732 348.0273 2167.1929)">
					<stop  offset="0" style="stop-color:#E0E0E0"/>
					<stop  offset="1" style="stop-color:#E0E0E0"/>
				</linearGradient>
				<rect x="348.027" y="267.452" clip-path="url(#SVGID_44_)" fill="url(#SVGID_46_)" width="6.541" height="2.373"/>
			</g>
		</mask>
		
			<linearGradient id="SVGID_47_" gradientUnits="userSpaceOnUse" x1="-4.882813e-004" y1="800" x2="0.9995" y2="800" gradientTransform="matrix(5.945 0 0 -2.3732 348.0271 2167.1929)">
			<stop  offset="0" style="stop-color:#FFFFF1"/>
			<stop  offset="1" style="stop-color:#FFFFF1"/>
		</linearGradient>
		
			<rect x="348.027" y="267.452" clip-path="url(#SVGID_44_)" mask="url(#SVGID_45_)" fill="url(#SVGID_47_)" width="6.541" height="2.373"/>
	</g>
	<g clip-path="url(#SVGID_2_)">
		<defs>
			<path id="SVGID_48_" d="M377.428,171.425c-8.82,0.6-19.62,1.74-22.801,2.4c-1.499,0.3-5.279,0.96-8.4,1.5
				c-3.12,0.54-6.36,1.26-7.2,1.5c-0.839,0.3-3.359,0.96-5.699,1.5c-4.201,1.02-5.22,1.32-8.1,2.58
				c-0.841,0.36-2.16,0.84-3.001,1.08c-0.84,0.24-2.52,1.08-3.72,1.8c-1.26,0.78-2.459,1.44-2.76,1.44c-0.779,0-5.88,4.92-6.66,6.42
				c-2.28,4.44,0.96,9.36,9.36,14.22c0.481,0.24,1.32-0.54,2.281-2.04c4.079-6.48,18.659-11.58,43.2-15.06
				c11.039-1.62,28.44-2.22,29.099-1.14c0.421,0.66,4.14-0.36,17.94-4.98l17.46-5.82h6.181c14.159,0,36.479,5.64,42.541,10.68
				c1.679,1.44,1.8,1.74,1.439,4.26c-0.241,1.74-0.841,3.12-1.62,3.84c-0.72,0.6-1.201,1.14-1.08,1.2
				c0.119,0.06,1.199,0.6,2.34,1.26c3.18,1.74,6.6,5.22,6.6,6.78c0,0.78,0.12,1.38,0.3,1.38c0.841,0,6.961-4.38,8.28-6
				c3.06-3.6,2.7-8.4-0.959-11.88c-1.921-1.86-9-6.12-10.142-6.12c-0.299,0-1.439-0.36-2.459-0.84c-3.06-1.32-5.58-2.22-7.86-2.82
				c-1.2-0.3-3.181-0.84-4.379-1.14c-2.341-0.66-9.54-2.1-14.882-3.06c-5.278-0.9-18.359-2.4-26.399-2.94
				c-4.44-0.3-14.295-0.45-24.226-0.45C392.172,170.975,382.167,171.125,377.428,171.425"/>
		</defs>
		<clipPath id="SVGID_49_">
			<use xlink:href="#SVGID_48_"  overflow="visible"/>
		</clipPath>
		<defs>
			<filter id="Adobe_OpacityMaskFilter_4_" filterUnits="userSpaceOnUse" x="306.807" y="170.975" width="189.66" height="35.25">
				<feColorMatrix  type="matrix" values="1 0 0 0 0  0 1 0 0 0  0 0 1 0 0  0 0 0 1 0"/>
			</filter>
		</defs>
		<mask maskUnits="userSpaceOnUse" x="306.807" y="170.975" width="189.66" height="35.25" id="SVGID_50_">
			<g filter="url(#Adobe_OpacityMaskFilter_4_)">
				
					<linearGradient id="SVGID_51_" gradientUnits="userSpaceOnUse" x1="0" y1="799.999" x2="1" y2="799.999" gradientTransform="matrix(187.0938 0 0 -35.25 308.3506 28388.5918)">
					<stop  offset="0" style="stop-color:#B5B5B5"/>
					<stop  offset="1" style="stop-color:#B5B5B5"/>
				</linearGradient>
				<rect x="306.807" y="170.974" clip-path="url(#SVGID_49_)" fill="url(#SVGID_51_)" width="189.66" height="35.25"/>
			</g>
		</mask>
		
			<linearGradient id="SVGID_52_" gradientUnits="userSpaceOnUse" x1="0" y1="800" x2="1" y2="800" gradientTransform="matrix(187.0938 0 0 -35.25 308.3506 28388.5938)">
			<stop  offset="0" style="stop-color:#969BF5"/>
			<stop  offset="1" style="stop-color:#969BF5"/>
		</linearGradient>
		
			<rect x="306.807" y="170.975" clip-path="url(#SVGID_49_)" mask="url(#SVGID_50_)" fill="url(#SVGID_52_)" width="189.66" height="35.25"/>
	</g>
	<g clip-path="url(#SVGID_2_)">
		<defs>
			<path id="SVGID_53_" d="M294.027,247.505c0,1.02,7.56,8.76,10.321,10.56c4.259,2.76,11.52,4.68,16.679,4.44l3.661-0.18l-15.3-7.5
				c-8.31-4.066-15.115-7.323-15.354-7.323C294.029,247.502,294.027,247.503,294.027,247.505"/>
		</defs>
		<clipPath id="SVGID_54_">
			<use xlink:href="#SVGID_53_"  overflow="visible"/>
		</clipPath>
		<defs>
			<filter id="Adobe_OpacityMaskFilter_5_" filterUnits="userSpaceOnUse" x="286.486" y="243.86" width="45.743" height="22.526">
				<feColorMatrix  type="matrix" values="1 0 0 0 0  0 1 0 0 0  0 0 1 0 0  0 0 0 1 0"/>
			</filter>
		</defs>
		<mask maskUnits="userSpaceOnUse" x="286.486" y="243.86" width="45.743" height="22.526" id="SVGID_55_">
			<g filter="url(#Adobe_OpacityMaskFilter_5_)">
				
					<linearGradient id="SVGID_56_" gradientUnits="userSpaceOnUse" x1="0" y1="799.9971" x2="1" y2="799.9971" gradientTransform="matrix(9.198 -17.4272 -35.5656 -4.507 28764.252 3855.967)">
					<stop  offset="0" style="stop-color:#838383"/>
					<stop  offset="1" style="stop-color:#B8B8B8"/>
				</linearGradient>
				<polygon clip-path="url(#SVGID_54_)" fill="url(#SVGID_56_)" points="286.486,261.79 295.949,243.86 332.229,248.458 
					322.766,266.387 				"/>
			</g>
		</mask>
		
			<linearGradient id="SVGID_57_" gradientUnits="userSpaceOnUse" x1="0" y1="799.9971" x2="1" y2="799.9971" gradientTransform="matrix(9.198 -17.4272 -35.5656 -4.507 28764.252 3855.967)">
			<stop  offset="0" style="stop-color:#FFFFFF"/>
			<stop  offset="1" style="stop-color:#FFFFFF"/>
		</linearGradient>
		<polygon clip-path="url(#SVGID_54_)" mask="url(#SVGID_55_)" fill="url(#SVGID_57_)" points="286.486,261.79 295.949,243.86 
			332.229,248.458 322.766,266.387 		"/>
	</g>
	<g clip-path="url(#SVGID_2_)">
		<defs>
			<path id="SVGID_58_" d="M313.708,217.985c0.54,1.08,3.06,2.4,12.119,6.42c7.861,3.54,21.96,7.32,33.9,9.12
				c20.16,3,47.1,3,70.801-0.06c8.759-1.08,23.939-3.66,26.398-4.44c2.101-0.72-4.92-0.36-12.6,0.6c-17.16,2.1-61.2,2.82-75.3,1.32
				c-11.399-1.26-20.939-2.76-27.3-4.26c-14.76-3.54-19.08-5.04-28.08-9.54c-0.038-0.016-0.071-0.023-0.098-0.023
				C313.367,217.122,313.446,217.462,313.708,217.985"/>
		</defs>
		<clipPath id="SVGID_59_">
			<use xlink:href="#SVGID_58_"  overflow="visible"/>
		</clipPath>
		<defs>
			<filter id="Adobe_OpacityMaskFilter_6_" filterUnits="userSpaceOnUse" x="313.367" y="217.122" width="145.66" height="19.403">
				<feColorMatrix  type="matrix" values="1 0 0 0 0  0 1 0 0 0  0 0 1 0 0  0 0 0 1 0"/>
			</filter>
		</defs>
		<mask maskUnits="userSpaceOnUse" x="313.367" y="217.122" width="145.66" height="19.403" id="SVGID_60_">
			<g filter="url(#Adobe_OpacityMaskFilter_6_)">
				
					<linearGradient id="SVGID_61_" gradientUnits="userSpaceOnUse" x1="-4.882813e-004" y1="799.9805" x2="0.9995" y2="799.9805" gradientTransform="matrix(143.854 0 0 -18.6455 313.4106 15142.8672)">
					<stop  offset="0" style="stop-color:#757575"/>
					<stop  offset="1" style="stop-color:#757575"/>
				</linearGradient>
				<rect x="313.367" y="217.121" clip-path="url(#SVGID_59_)" fill="url(#SVGID_61_)" width="145.66" height="19.403"/>
			</g>
		</mask>
		
			<linearGradient id="SVGID_62_" gradientUnits="userSpaceOnUse" x1="-4.882813e-004" y1="799.9805" x2="0.9995" y2="799.9805" gradientTransform="matrix(143.854 0 0 -18.6455 313.4106 15142.8682)">
			<stop  offset="0" style="stop-color:#0023FE"/>
			<stop  offset="1" style="stop-color:#0023FE"/>
		</linearGradient>
		
			<rect x="313.367" y="217.122" clip-path="url(#SVGID_59_)" mask="url(#SVGID_60_)" fill="url(#SVGID_62_)" width="145.66" height="19.403"/>
	</g>
	<g clip-path="url(#SVGID_2_)">
		<defs>
			<path id="SVGID_63_" d="M306.148,230.945c-2.101,5.7-4.441,12.06-5.22,14.1l-1.381,3.66l8.041,4.08
				c4.439,2.22,8.159,3.9,8.28,3.78c0.18-0.24,9.059-25.92,9.72-28.14c0.239-0.66-1.8-1.8-7.38-4.38
				c-4.201-1.86-7.801-3.42-7.981-3.42S308.187,225.305,306.148,230.945"/>
		</defs>
		<clipPath id="SVGID_64_">
			<use xlink:href="#SVGID_63_"  overflow="visible"/>
		</clipPath>
		<defs>
			<filter id="Adobe_OpacityMaskFilter_7_" filterUnits="userSpaceOnUse" x="298.748" y="219.517" width="27.879" height="38.277">
				<feColorMatrix  type="matrix" values="1 0 0 0 0  0 1 0 0 0  0 0 1 0 0  0 0 0 1 0"/>
			</filter>
		</defs>
		<mask maskUnits="userSpaceOnUse" x="298.748" y="219.517" width="27.879" height="38.277" id="SVGID_65_">
			<g filter="url(#Adobe_OpacityMaskFilter_7_)">
				
					<linearGradient id="SVGID_66_" gradientUnits="userSpaceOnUse" x1="0" y1="799.9961" x2="1" y2="799.9961" gradientTransform="matrix(0.7818 -35.2271 -25.5376 -1.0784 20742.2578 1119.1105)">
					<stop  offset="0" style="stop-color:#565656"/>
					<stop  offset="1" style="stop-color:#595959"/>
				</linearGradient>
				<polygon clip-path="url(#SVGID_64_)" fill="url(#SVGID_66_)" points="298.748,256.651 299.572,219.517 326.626,220.659 
					325.802,257.794 				"/>
			</g>
		</mask>
		
			<linearGradient id="SVGID_67_" gradientUnits="userSpaceOnUse" x1="0" y1="799.9951" x2="1" y2="799.9951" gradientTransform="matrix(0.7818 -35.2271 -25.5376 -1.0784 20742.2539 1119.1105)">
			<stop  offset="0" style="stop-color:#FFFFFF"/>
			<stop  offset="1" style="stop-color:#FFFFFF"/>
		</linearGradient>
		<polygon clip-path="url(#SVGID_64_)" mask="url(#SVGID_65_)" fill="url(#SVGID_67_)" points="298.748,256.651 299.572,219.517 
			326.626,220.659 325.802,257.794 		"/>
	</g>
	<g clip-path="url(#SVGID_2_)">
		<defs>
			<path id="SVGID_68_" d="M412.227,202.265c-8.76-1.14-15.839-4.86-17.459-9.18c-0.84-2.1-0.12-3.42,2.34-4.5
				c3.42-1.38,4.02-1.2,2.22,0.96c-3.48,4.08,0.061,7.98,10.439,11.4c3.092,1.015,4.125,1.427,3.483,1.427
				C413.057,202.372,412.713,202.334,412.227,202.265 M409.887,195.845c-5.16-1.86-6.06-2.52-6.06-4.32c0-1.2,0.72-1.5,7.68-3.24
				c4.2-1.02,10.44-2.7,13.92-3.66c5.7-1.62,6.96-1.74,12.9-1.5c4.2,0.18,8.7,0.78,12.3,1.68c6.12,1.56,10.26,3.3,10.62,4.38
				c0.12,0.42-0.9,1.14-2.34,1.68c-3.78,1.44-21.601,5.58-27.36,6.42c-2.479,0.34-5.113,0.507-7.721,0.507
				C418.607,197.792,413.487,197.125,409.887,195.845 M434.128,176.885l-6.601,0.06l-16.439,5.58
				c-9.061,3.06-16.92,5.94-17.581,6.36c-0.72,0.54-1.08,1.56-1.08,3.06c0,4.74,7.74,9.9,17.46,11.58
				c10.62,1.86,18.42,1.02,39.541-4.32c18-4.56,27.239-7.74,28.56-9.84c1.141-1.92-7.38-6.06-18.601-9
				c-9.125-2.34-17.108-3.482-24.676-3.482C434.516,176.883,434.322,176.883,434.128,176.885"/>
		</defs>
		<clipPath id="SVGID_69_">
			<use xlink:href="#SVGID_68_"  overflow="visible"/>
		</clipPath>
		<defs>
			<filter id="Adobe_OpacityMaskFilter_8_" filterUnits="userSpaceOnUse" x="392.427" y="176.883" width="86.701" height="28.502">
				<feColorMatrix  type="matrix" values="1 0 0 0 0  0 1 0 0 0  0 0 1 0 0  0 0 0 1 0"/>
			</filter>
		</defs>
		<mask maskUnits="userSpaceOnUse" x="392.427" y="176.883" width="86.701" height="28.502" id="SVGID_70_">
			<g filter="url(#Adobe_OpacityMaskFilter_8_)">
				
					<linearGradient id="SVGID_71_" gradientUnits="userSpaceOnUse" x1="4.882813e-004" y1="799.9824" x2="1.0005" y2="799.9824" gradientTransform="matrix(85.6624 0 0 -27.5401 392.4214 22222.6953)">
					<stop  offset="0" style="stop-color:#D3D3D3"/>
					<stop  offset="1" style="stop-color:#D3D3D3"/>
				</linearGradient>
				<rect x="392.427" y="176.883" clip-path="url(#SVGID_69_)" fill="url(#SVGID_71_)" width="86.701" height="28.502"/>
			</g>
		</mask>
		
			<linearGradient id="SVGID_72_" gradientUnits="userSpaceOnUse" x1="4.882813e-004" y1="799.9824" x2="1.0005" y2="799.9824" gradientTransform="matrix(85.6624 0 0 -27.5401 392.4214 22222.6953)">
			<stop  offset="0" style="stop-color:#BFC5F3"/>
			<stop  offset="1" style="stop-color:#BFC5F3"/>
		</linearGradient>
		
			<rect x="392.427" y="176.883" clip-path="url(#SVGID_69_)" mask="url(#SVGID_70_)" fill="url(#SVGID_72_)" width="86.701" height="28.502"/>
	</g>
	<g clip-path="url(#SVGID_2_)">
		<defs>
			<path id="SVGID_73_" d="M397.107,188.585c-2.46,1.08-3.18,2.4-2.34,4.5c1.62,4.32,8.7,8.04,17.459,9.18
				c2.102,0.3,1.562,0-2.46-1.32c-10.378-3.42-13.919-7.32-10.439-11.4c1.047-1.255,1.282-1.842,0.624-1.842
				C399.477,187.703,398.539,188.007,397.107,188.585"/>
		</defs>
		<clipPath id="SVGID_74_">
			<use xlink:href="#SVGID_73_"  overflow="visible"/>
		</clipPath>
		<defs>
			<filter id="Adobe_OpacityMaskFilter_9_" filterUnits="userSpaceOnUse" x="393.927" y="187.703" width="20.401" height="14.862">
				<feColorMatrix  type="matrix" values="1 0 0 0 0  0 1 0 0 0  0 0 1 0 0  0 0 0 1 0"/>
			</filter>
		</defs>
		<mask maskUnits="userSpaceOnUse" x="393.927" y="187.703" width="20.401" height="14.862" id="SVGID_75_">
			<g filter="url(#Adobe_OpacityMaskFilter_9_)">
				
					<linearGradient id="SVGID_76_" gradientUnits="userSpaceOnUse" x1="0" y1="799.9932" x2="1" y2="799.9932" gradientTransform="matrix(19.0003 0 0 -14.6688 394.4305 11930.0938)">
					<stop  offset="0" style="stop-color:#FAFAFA"/>
					<stop  offset="1" style="stop-color:#FAFAFA"/>
				</linearGradient>
				<rect x="393.927" y="187.703" clip-path="url(#SVGID_74_)" fill="url(#SVGID_76_)" width="20.401" height="14.862"/>
			</g>
		</mask>
		
			<linearGradient id="SVGID_77_" gradientUnits="userSpaceOnUse" x1="0" y1="799.9932" x2="1" y2="799.9932" gradientTransform="matrix(19.0003 0 0 -14.6688 394.4305 11930.1016)">
			<stop  offset="0" style="stop-color:#EBEDF0"/>
			<stop  offset="1" style="stop-color:#EBEDF0"/>
		</linearGradient>
		
			<rect x="393.927" y="187.703" clip-path="url(#SVGID_74_)" mask="url(#SVGID_75_)" fill="url(#SVGID_77_)" width="20.401" height="14.862"/>
	</g>
	<g clip-path="url(#SVGID_2_)">
		<defs>
			<path id="SVGID_78_" d="M478.048,189.305c-1.439,2.16-10.501,5.34-28.62,9.9c-10.439,2.64-16.081,3.84-21.42,4.62
				c-13.621,1.92-27.421-1.08-33.3-7.26c-1.921-1.98-2.281-2.82-2.281-4.92c0-2.28-0.059-2.4-0.959-1.5
				c-0.54,0.54-1.08,2.16-1.26,3.54c-0.72,6.84,6.48,12.96,17.82,15.06c5.099,0.96,21.42,0.24,28.198-1.2
				c16.802-3.66,33.722-8.52,39.421-11.34c1.619-0.78,2.34-1.62,2.761-3.12c0.497-1.99,0.417-4.063-0.035-4.063
				C478.28,189.022,478.171,189.11,478.048,189.305"/>
		</defs>
		<clipPath id="SVGID_79_">
			<use xlink:href="#SVGID_78_"  overflow="visible"/>
		</clipPath>
		<defs>
			<filter id="Adobe_OpacityMaskFilter_10_" filterUnits="userSpaceOnUse" x="387.555" y="188.589" width="93.283" height="21.548">
				<feColorMatrix  type="matrix" values="1 0 0 0 0  0 1 0 0 0  0 0 1 0 0  0 0 0 1 0"/>
			</filter>
		</defs>
		<mask maskUnits="userSpaceOnUse" x="387.555" y="188.589" width="93.283" height="21.548" id="SVGID_80_">
			<g filter="url(#Adobe_OpacityMaskFilter_10_)">
				
					<linearGradient id="SVGID_81_" gradientUnits="userSpaceOnUse" x1="0" y1="800.002" x2="1" y2="800.002" gradientTransform="matrix(-3.5436 37.9004 166.5483 0.8064 -132803.8594 -456.2885)">
					<stop  offset="0" style="stop-color:#1D1D1D"/>
					<stop  offset="1" style="stop-color:#717171"/>
				</linearGradient>
				<polygon clip-path="url(#SVGID_79_)" fill="url(#SVGID_81_)" points="480.838,189.031 478.864,210.138 387.555,209.696 
					389.528,188.589 				"/>
			</g>
		</mask>
		
			<linearGradient id="SVGID_82_" gradientUnits="userSpaceOnUse" x1="4.882813e-004" y1="800.002" x2="1.0005" y2="800.002" gradientTransform="matrix(-3.5436 37.9004 166.5483 0.8064 -132803.8594 -456.3187)">
			<stop  offset="0" style="stop-color:#000000"/>
			<stop  offset="1" style="stop-color:#000000"/>
		</linearGradient>
		<polygon clip-path="url(#SVGID_79_)" mask="url(#SVGID_80_)" fill="url(#SVGID_82_)" points="480.838,189.031 478.864,210.138 
			387.555,209.696 389.528,188.589 		"/>
	</g>
	<g clip-path="url(#SVGID_2_)">
		<defs>
			<path id="SVGID_83_" d="M290.427,501.425c0,3.24,3.481,11.28,7.14,16.2c2.821,3.9,9.9,10.32,15.36,13.98
				c2.941,1.979,5.52,3.779,5.7,4.02c1.021,1.38,8.82,6.72,12.6,8.52c10.201,4.921,26.28,9.12,39.6,10.381
				c8.88,0.779,11.7,0.96,24.3,1.26c20.461,0.6,43.08-1.74,61.44-6.36c12.239-3.12,18.12-5.16,27.12-9.54
				c5.939-2.939,7.141-3.3,7.439-2.52c0.3,0.72,0.9,0.12,2.34-2.16c1.08-1.68,3.301-4.14,4.921-5.46
				c5.52-4.38,11.22-11.7,14.221-18.3c1.62-3.54,0.118-2.58-2.341,1.5c-2.88,4.739-11.28,13.14-16.739,16.739
				c-12.96,8.521-27.241,13.74-47.102,17.341c-12.479,2.22-19.139,2.64-40.199,2.64c-22.92,0.06-28.741-0.42-44.4-3.6
				c-8.22-1.681-8.1-1.62-18-4.62c-3.78-1.141-9.599-2.88-12.9-3.78c-7.62-2.1-16.319-6.48-21.66-10.74
				c-5.099-4.2-12.06-11.22-12.839-13.02c-0.36-0.78-0.841-1.8-1.201-2.28c-0.779-1.26-2.219-4.56-3.6-8.4
				c-0.529-1.548-0.865-2.294-1.045-2.294C290.497,500.931,290.447,501.098,290.427,501.425"/>
		</defs>
		<clipPath id="SVGID_84_">
			<use xlink:href="#SVGID_83_"  overflow="visible"/>
		</clipPath>
		<defs>
			
				<filter id="Adobe_OpacityMaskFilter_11_" filterUnits="userSpaceOnUse" x="290.427" y="500.931" width="223.801" height="55.454">
				<feColorMatrix  type="matrix" values="1 0 0 0 0  0 1 0 0 0  0 0 1 0 0  0 0 0 1 0"/>
			</filter>
		</defs>
		<mask maskUnits="userSpaceOnUse" x="290.427" y="500.931" width="223.801" height="55.454" id="SVGID_85_">
			<g filter="url(#Adobe_OpacityMaskFilter_11_)">
				
					<linearGradient id="SVGID_86_" gradientUnits="userSpaceOnUse" x1="0" y1="799.9951" x2="1" y2="799.9951" gradientTransform="matrix(222.8549 0 0 -54.9466 290.4011 44485.7109)">
					<stop  offset="0" style="stop-color:#737373"/>
					<stop  offset="1" style="stop-color:#737373"/>
				</linearGradient>
				<rect x="290.427" y="500.931" clip-path="url(#SVGID_84_)" fill="url(#SVGID_86_)" width="223.801" height="55.454"/>
			</g>
		</mask>
		
			<linearGradient id="SVGID_87_" gradientUnits="userSpaceOnUse" x1="0" y1="799.9951" x2="1" y2="799.9951" gradientTransform="matrix(222.8549 0 0 -54.9466 290.4011 44485.7109)">
			<stop  offset="0" style="stop-color:#00F3FF"/>
			<stop  offset="1" style="stop-color:#00F3FF"/>
		</linearGradient>
		
			<rect x="290.427" y="500.931" clip-path="url(#SVGID_84_)" mask="url(#SVGID_85_)" fill="url(#SVGID_87_)" width="223.801" height="55.454"/>
	</g>
	<g clip-path="url(#SVGID_2_)">
		<defs>
			<path id="SVGID_88_" d="M429.327,188.645c-1.62,0.48-4.62,1.26-6.601,1.74c-1.979,0.42-6.479,1.62-10.019,2.521l-6.421,1.68
				l4.02,1.38c5.04,1.74,14.221,2.28,21.24,1.32c4.32-0.66,20.88-4.32,23.22-5.16c1.44-0.54,0.48-0.84-7.8-2.7
				c-5.043-1.132-8.595-1.676-11.564-1.676C433.178,187.749,431.28,188.054,429.327,188.645"/>
		</defs>
		<clipPath id="SVGID_89_">
			<use xlink:href="#SVGID_88_"  overflow="visible"/>
		</clipPath>
		<defs>
			<filter id="Adobe_OpacityMaskFilter_12_" filterUnits="userSpaceOnUse" x="403.431" y="187.183" width="55.633" height="11.628">
				<feColorMatrix  type="matrix" values="1 0 0 0 0  0 1 0 0 0  0 0 1 0 0  0 0 0 1 0"/>
			</filter>
		</defs>
		<mask maskUnits="userSpaceOnUse" x="403.431" y="187.183" width="55.633" height="11.628" id="SVGID_90_">
			<g filter="url(#Adobe_OpacityMaskFilter_12_)">
				
					<linearGradient id="SVGID_91_" gradientUnits="userSpaceOnUse" x1="0" y1="800.002" x2="1" y2="800.002" gradientTransform="matrix(-9.8068 35.9249 176.0323 2.0014 -140394.5469 -1409.8179)">
					<stop  offset="0" style="stop-color:#3B3B3B"/>
					<stop  offset="1" style="stop-color:#757575"/>
				</linearGradient>
				<polygon clip-path="url(#SVGID_89_)" fill="url(#SVGID_91_)" points="459.063,187.782 456.053,198.811 403.431,198.212 
					406.441,187.183 				"/>
			</g>
		</mask>
		
			<linearGradient id="SVGID_92_" gradientUnits="userSpaceOnUse" x1="0" y1="800.002" x2="1" y2="800.002" gradientTransform="matrix(-9.8068 35.9249 176.0323 2.0014 -140394.5469 -1409.8179)">
			<stop  offset="0" style="stop-color:#FFFFFF"/>
			<stop  offset="1" style="stop-color:#FFFFFF"/>
		</linearGradient>
		<polygon clip-path="url(#SVGID_89_)" mask="url(#SVGID_90_)" fill="url(#SVGID_92_)" points="459.063,187.782 456.053,198.811 
			403.431,198.212 406.441,187.183 		"/>
	</g>
	<g clip-path="url(#SVGID_2_)">
		<defs>
			<path id="SVGID_93_" d="M128.507,735.184c0.54,1.08,1.201,2.521,1.561,3.18c0.419,0.66,1.08,1.98,1.62,3
				c1.139,2.34,4.5,6.541,7.56,9.48c9.059,8.641,23.279,14.7,43.5,18.48c9.9,1.859,13.2,2.04,39.6,2.04
				c28.62,0,29.999-0.121,42.599-3.001c19.98-4.62,35.761-13.62,42.601-24.3c3.119-4.86,2.1-5.1-5.94-1.14
				c-9,4.379-14.881,6.42-27.121,9.54c-18.36,4.619-40.979,6.959-61.439,6.359c-12.6-0.3-15.421-0.479-24.3-1.26
				c-13.32-1.261-29.4-5.46-39.6-10.38c-3.721-1.801-11.58-7.081-12.6-8.521c-0.54-0.72-7.74-5.4-8.34-5.4
				C127.908,733.263,128.028,734.163,128.507,735.184"/>
		</defs>
		<clipPath id="SVGID_94_">
			<use xlink:href="#SVGID_93_"  overflow="visible"/>
		</clipPath>
		
			<linearGradient id="SVGID_95_" gradientUnits="userSpaceOnUse" x1="0" y1="800.0742" x2="1" y2="800.0742" gradientTransform="matrix(-175.703 51.435 244.5351 36.957 -195370.5938 -28832.5488)">
			<stop  offset="0" style="stop-color:#797C7E"/>
			<stop  offset="1" style="stop-color:#CECED3"/>
		</linearGradient>
		<polygon clip-path="url(#SVGID_94_)" fill="url(#SVGID_95_)" points="396.505,746.236 248.44,789.58 42.07,758.392 
			190.135,715.047 		"/>
	</g>
	<g clip-path="url(#SVGID_2_)">
		<defs>
			<rect id="SVGID_96_" width="800" height="800"/>
		</defs>
		<clipPath id="SVGID_97_">
			<use xlink:href="#SVGID_96_"  overflow="visible"/>
		</clipPath>
		<path clip-path="url(#SVGID_97_)" fill="none" stroke="#000000" stroke-miterlimit="10" d="M128.508,735.184
			c0.54,1.08,1.2,2.52,1.56,3.18c0.42,0.66,1.08,1.98,1.62,3c1.14,2.34,4.5,6.54,7.56,9.48c9.06,8.64,23.28,14.7,43.5,18.479
			c9.9,1.86,13.2,2.04,39.6,2.04c28.62,0,30-0.12,42.6-3c19.98-4.62,35.76-13.62,42.6-24.3c3.12-4.86,2.1-5.1-5.94-1.14
			c-9,4.38-14.88,6.42-27.12,9.54c-18.36,4.62-40.98,6.96-61.44,6.359c-12.6-0.3-15.42-0.479-24.3-1.26
			c-13.32-1.26-29.4-5.46-39.6-10.38c-3.72-1.8-11.58-7.08-12.6-8.521c-0.54-0.72-7.74-5.399-8.34-5.399
			C127.908,733.264,128.027,734.163,128.508,735.184z"/>
	</g>
	<g clip-path="url(#SVGID_2_)">
		<defs>
			<path id="SVGID_98_" d="M644.646,398.164c-14.759,1.5-36.539,5.22-39.84,6.84c-0.54,0.24-2.759,0.96-5.04,1.559
				c-2.219,0.54-4.198,1.261-4.379,1.562c-0.18,0.299-0.72,0.54-1.2,0.54c-0.541,0-2.7,0.779-4.86,1.8
				c-2.101,0.959-3.96,1.8-4.08,1.8c-0.54,0-8.521,5.221-9.839,6.42c-0.78,0.78-1.682,1.379-1.921,1.379
				c-0.3,0-0.54,0.36-0.54,0.781c0,0.479-0.48,1.32-1.14,1.86c-1.62,1.499-3.239,6.12-2.88,8.339
				c0.419,3.001,2.46,8.221,3.119,8.221c0.36,0,1.741,1.08,3.001,2.46c1.319,1.379,3.839,3.24,5.58,4.26
				c1.679,0.961,3.119,2.04,3.119,2.34c0,0.54,4.261,2.7,12.001,6.181c11.219,4.979,28.8,8.939,47.099,10.559
				c9.181,0.842,32.821,0.842,42.78,0c12.181-1.019,29.16-3.42,40.74-5.76c1.861-0.359,1.92-0.299,2.521,2.221
				c0.359,1.44,0.96,3.421,1.32,4.439c0.36,0.96,0.779,2.34,0.959,3.001c0.18,0.66,0.661,2.039,1.14,3.119
				c0.48,1.021,0.84,2.52,0.84,3.361c0,0.84,0.302,1.739,0.601,1.919c0.36,0.181,0.601,1.141,0.601,2.041
				c0,0.899,0.239,1.858,0.54,2.16c0.36,0.359,0.659,2.34,0.779,4.439l0.18,3.84l-8.398,2.34c-22.08,5.999-42.601,8.879-64.2,8.879
				c-23.821,0-44.28-3.358-65.821-10.738c-4.859-1.682-9.299-3.061-9.84-3.061c-1.26,0-20.399-9.421-24.84-12.24
				c-4.439-2.819-3.899-4.619-6.06,19.44c-0.359,4.021-0.78,36.601-0.961,77.399c-0.299,72.421,0.181,107.939,1.92,131.7
				c0.481,6.601,1.021,14.399,1.261,17.4c0.72,11.64,3.239,19.44,8.581,26.699c2.818,3.901,9.899,10.321,15.358,13.98
				c2.94,1.98,5.521,3.78,5.701,4.02c1.021,1.381,8.82,6.72,12.601,8.521c10.198,4.92,26.279,9.119,39.6,10.38
				c8.879,0.78,11.7,0.96,24.3,1.26c20.46,0.6,43.079-1.74,61.439-6.359c12.239-3.12,18.121-5.161,27.121-9.54
				c5.939-2.939,7.139-3.3,7.438-2.52c0.301,0.72,0.9,0.119,2.34-2.16c1.08-1.681,3.301-4.141,4.92-5.461
				c5.94-4.74,11.641-12.3,14.581-19.32c0.78-1.8,1.681-3.659,2.04-4.14c0.6-0.721,1.021-4.08,2.819-24.66
				c0.961-11.219,1.74-28.319,1.8-39.719v-10.62l-2.818,2.999c-4.981,5.341-16.142,9.78-28.62,11.34
				c-18.302,2.281-41.4,0.841-70.561-4.5c-14.58-2.64-17.761-2.939-31.201-3c-8.819,0-14.76,0.241-17.1,0.781
				c-16.44,3.539-25.919,8.219-34.38,17.158c-7.499,7.921-11.34,15.241-14.46,27.78c-2.759,10.98-3.181,25.621-1.2,36.54
				c1.74,9.12,2.041,12.24,1.2,12.24c-2.579,0-12.119-7.199-18.419-13.86c-2.7-2.88-3.121-3.66-3.48-6.54
				c-0.541-4.799-1.439-31.979-1.681-50.999c-0.3-24.72,0.061-171.06,0.48-191.461l0.36-17.759l-1.921-2.221
				c-1.08-1.199-1.859-2.279-1.739-2.34c0.119-0.06,7.139,3.301,15.54,7.56l15.3,7.621l-5.16-0.18l-5.16-0.182l-0.36,31.8
				c-0.479,36.54-0.539,157.561-0.119,157.561c0.119,0,2.999-2.279,6.3-5.04c13.739-11.52,29.819-20.699,45.299-25.98
				c10.981-3.719,27.48-7.38,41.102-9.18c2.82-0.36,8.1-1.02,11.7-1.499c17.039-2.221,21.42-2.821,26.698-3.661
				c26.941-4.318,44.041-11.76,56.16-24.359c10.261-10.739,14.521-21.3,17.401-43.619c0.9-7.321,0.959-10.021,0.3-30.001
				c-1.081-32.521-2.64-57.9-3.781-63.06c-0.898-4.081-7.02-21.779-9.18-26.699c-3.24-7.262-4.02-9.962-3.599-12.181
				c0.239-1.201,0.479-4.021,0.479-6.241c0.061-3.539-0.12-4.259-1.919-6.898c-2.581-3.721-6.96-7.26-12.781-10.26
				c-5.219-2.7-13.979-6.062-19.68-7.621c-2.16-0.539-4.559-1.26-5.4-1.5c-3.118-1.02-14.34-3.061-26.399-4.799
				c-7.956-1.122-23.435-1.742-37.761-1.742C659.546,397.322,650.606,397.592,644.646,398.164"/>
		</defs>
		<clipPath id="SVGID_99_">
			<use xlink:href="#SVGID_98_"  overflow="visible"/>
		</clipPath>
		
			<linearGradient id="SVGID_100_" gradientUnits="userSpaceOnUse" x1="0" y1="799.999" x2="1" y2="799.999" gradientTransform="matrix(-9.3561 384.7076 231.5643 15.5437 -184573.9375 -12035.5518)">
			<stop  offset="0" style="stop-color:#D7E100"/>
			<stop  offset="1" style="stop-color:#D50000"/>
		</linearGradient>
		<polygon clip-path="url(#SVGID_99_)" fill="url(#SVGID_100_)" points="799.114,397.956 789.285,802.121 545.98,785.789 
			555.81,381.625 		"/>
	</g>
	<g clip-path="url(#SVGID_2_)">
		<defs>
			<path id="SVGID_101_" d="M688.348,205.663c-3.479,0.961-9.72,2.64-13.92,3.661c-6.96,1.739-7.68,2.039-7.68,3.24
				c0,1.8,0.9,2.459,6.06,4.32c5.4,1.919,14.221,2.459,21.66,1.44c5.761-0.841,23.58-4.981,27.36-6.421
				c1.439-0.54,2.46-1.26,2.34-1.679c-0.72-2.281-13.621-5.701-22.92-6.061c-1.432-0.058-2.592-0.094-3.608-0.094
				C694.442,204.069,692.674,204.434,688.348,205.663"/>
		</defs>
		<clipPath id="SVGID_102_">
			<use xlink:href="#SVGID_101_"  overflow="visible"/>
		</clipPath>
		
			<linearGradient id="SVGID_103_" gradientUnits="userSpaceOnUse" x1="-4.882813e-004" y1="799.9824" x2="0.9995" y2="799.9824" gradientTransform="matrix(57.4296 0 0 -14.7615 666.7615 12020.6719)">
			<stop  offset="0" style="stop-color:#636768"/>
			<stop  offset="1" style="stop-color:#636768"/>
		</linearGradient>
		<rect x="666.748" y="204.069" clip-path="url(#SVGID_102_)" fill="url(#SVGID_103_)" width="57.54" height="15.274"/>
	</g>
	<g clip-path="url(#SVGID_2_)">
		<defs>
			<path id="SVGID_104_" d="M103.407,95.844c-0.959,3.24-0.36,6.239,1.861,9.9c1.559,2.58,7.56,6.72,13.079,9.06
				c2.461,1.08,5.04,2.16,5.701,2.46c2.759,1.26,13.26,4.079,22.199,5.94c10.021,2.16,29.88,3.66,46.8,3.6
				c20.52-0.12,22.021-0.84,2.7-1.321c-15.12-0.36-23.819-1.08-36.599-3.119c-5.521-0.841-7.02-1.14-14.701-2.94
				c-14.159-3.301-27.299-9.3-34.439-15.721c-3.42-3.06-4.86-5.4-5.46-8.64l-0.36-2.099L103.407,95.844z"/>
		</defs>
		<clipPath id="SVGID_105_">
			<use xlink:href="#SVGID_104_"  overflow="visible"/>
		</clipPath>
		
			<linearGradient id="SVGID_106_" gradientUnits="userSpaceOnUse" x1="0" y1="800.0313" x2="1" y2="800.0313" gradientTransform="matrix(-3.1924 23.6892 74.489 1.0153 -59436.8438 -686.4797)">
			<stop  offset="0" style="stop-color:#C0C5C2"/>
			<stop  offset="1" style="stop-color:#FAFAFA"/>
		</linearGradient>
		<polygon clip-path="url(#SVGID_105_)" fill="url(#SVGID_106_)" points="219.628,93.026 214.861,128.396 97.888,126.802 
			102.654,91.432 		"/>
	</g>
	<g clip-path="url(#SVGID_2_)">
		<defs>
			<rect id="SVGID_107_" width="800" height="800"/>
		</defs>
		<clipPath id="SVGID_108_">
			<use xlink:href="#SVGID_107_"  overflow="visible"/>
		</clipPath>
		<path clip-path="url(#SVGID_108_)" fill="none" stroke="#000000" stroke-miterlimit="10" d="M103.408,95.844
			c-0.96,3.24-0.36,6.24,1.86,9.9c1.56,2.58,7.56,6.72,13.08,9.06c2.46,1.08,5.04,2.16,5.7,2.46c2.76,1.26,13.26,4.08,22.2,5.94
			c10.02,2.16,29.88,3.66,46.8,3.6c20.52-0.12,22.02-0.84,2.7-1.32c-15.12-0.36-23.82-1.08-36.6-3.12
			c-5.52-0.84-7.02-1.14-14.7-2.94c-14.16-3.3-27.3-9.3-34.44-15.72c-3.42-3.06-4.86-5.4-5.46-8.64l-0.36-2.1L103.408,95.844z"/>
	</g>
	<g clip-path="url(#SVGID_2_)">
		<defs>
			<path id="SVGID_109_" d="M449.907,62.184c-4.32,0-8.82,0.18-9.959,0.299c-29.94,3.001-50.1,9.121-54.42,16.56l-1.26,2.101
				l2.76,1.2c4.44,1.919,11.28,4.021,18.121,5.699c10.859,2.641,12.119,2.821,30.6,5.22c9.299,1.201,15.779,1.501,33,1.501
				c29.939,0,52.5-3.06,73.319-9.961c6.12-2.039,7.681-2.999,7.681-4.739c0-1.741-3.181-5.1-6.602-6.961
				c-1.139-0.659-2.219-1.199-2.34-1.26c-0.119-0.059,0.36-0.599,1.08-1.199c0.842-0.72,1.381-2.1,1.682-4.08
				c0.359-2.88,0.299-2.94-0.781-2.04c-3.061,2.639-10.559,5.22-28.44,9.72c-15.778,4.02-22.859,5.22-30.119,5.22
				c-14.04,0-26.88-6.001-26.88-12.6c0-1.26,0.3-2.401,0.659-2.521c0.301-0.12,0.421-0.66,0.241-1.26
				c-0.287-0.717-0.955-0.939-4.765-0.939C452.511,62.145,451.335,62.159,449.907,62.184"/>
		</defs>
		<clipPath id="SVGID_110_">
			<use xlink:href="#SVGID_109_"  overflow="visible"/>
		</clipPath>
		
			<linearGradient id="SVGID_111_" gradientUnits="userSpaceOnUse" x1="0" y1="799.998" x2="1" y2="799.998" gradientTransform="matrix(-162.1704 44.0355 223.398 31.9665 -178222.5313 -25502.4355)">
			<stop  offset="0" style="stop-color:#737677"/>
			<stop  offset="1" style="stop-color:#F0F0ED"/>
		</linearGradient>
		<polygon clip-path="url(#SVGID_110_)" fill="url(#SVGID_111_)" points="628.418,73.402 492.64,110.271 305.598,83.507 
			441.376,46.638 		"/>
	</g>
	<g clip-path="url(#SVGID_2_)">
		<defs>
			<path id="SVGID_112_" d="M30.488,168.883c-0.3,0.96-2.34,6-4.44,11.281c-3.84,9.779-5.821,15.359-6.54,18.659
				c-0.421,1.8-0.241,1.979,3.359,4.26c4.86,3.06,23.4,12.181,24.72,12.181c0.541,0,4.98,1.379,9.84,3.06
				c40.081,13.739,84.121,14.4,130.02,1.859l8.4-2.34l-0.18-3.839c-0.119-2.101-0.419-4.081-0.779-4.441
				c-0.301-0.3-0.54-1.26-0.54-2.16s-0.241-1.859-0.601-2.039c-0.299-0.18-0.6-1.08-0.6-1.921c0-0.84-0.36-2.34-0.779-3.36
				c-1.021-2.4-2.221-5.76-2.641-7.319c-0.18-0.661-0.54-2.221-0.9-3.541c-0.54-2.16-0.66-2.28-2.46-1.92
				c-11.58,2.34-28.559,4.741-40.74,5.76c-9.959,0.84-33.6,0.84-42.779,0c-18.3-1.62-35.881-5.58-47.1-10.559
				c-7.74-3.481-12.001-5.641-12.001-6.181c0-0.299-1.44-1.379-3.119-2.34c-1.741-1.019-4.261-2.88-5.58-4.259
				c-1.519-1.585-2.493-2.352-3.201-2.352C31.267,167.372,30.865,167.885,30.488,168.883"/>
		</defs>
		<clipPath id="SVGID_113_">
			<use xlink:href="#SVGID_112_"  overflow="visible"/>
		</clipPath>
		
			<linearGradient id="SVGID_114_" gradientUnits="userSpaceOnUse" x1="0" y1="799.9971" x2="1" y2="799.9971" gradientTransform="matrix(-1.765 53.7306 153.5552 0.6176 -122735.1875 -326.4063)">
			<stop  offset="0" style="stop-color:#FBF529"/>
			<stop  offset="1" style="stop-color:#FFD92B"/>
		</linearGradient>
		<polygon clip-path="url(#SVGID_113_)" fill="url(#SVGID_114_)" points="197.994,167.381 195.824,233.435 16.94,232.715 
			19.11,166.661 		"/>
	</g>
	<g clip-path="url(#SVGID_2_)">
		<defs>
			<path id="SVGID_115_" d="M47.947,240.544c0,0.12,0.84,1.2,1.861,2.399l1.859,2.101l-0.36,17.76
				c-0.419,20.4-0.779,166.74-0.48,191.458c0.241,18.36,1.141,45.9,1.681,51.001c0.36,3.24,0.419,3.359,6.599,9.42
				c3.42,3.36,6.78,6.42,7.441,6.78l1.199,0.659V421.444c0-55.381,0.181-115.44,0.421-133.44l0.36-32.7l5.16,0.239
				c2.819,0.121,5.04,0.121,4.86-0.059c-0.476-0.477-30.113-14.943-30.595-14.943C47.949,240.541,47.947,240.542,47.947,240.544"/>
		</defs>
		<clipPath id="SVGID_116_">
			<use xlink:href="#SVGID_115_"  overflow="visible"/>
		</clipPath>
		
			<linearGradient id="SVGID_117_" gradientUnits="userSpaceOnUse" x1="0" y1="799.9092" x2="1" y2="799.9092" gradientTransform="matrix(30.3041 -264.6879 -28.7736 -278.7671 23074.1875 223417)">
			<stop  offset="0" style="stop-color:#FE6949"/>
			<stop  offset="1" style="stop-color:#FEE853"/>
		</linearGradient>
		<polygon clip-path="url(#SVGID_116_)" fill="url(#SVGID_117_)" points="32.663,374.042 64.134,99.154 94.013,388.622 
			62.541,663.51 		"/>
	</g>
	<g clip-path="url(#SVGID_2_)">
		<defs>
			<path id="SVGID_118_" d="M217.408,486.184c-2.34,19.681-7.081,31.381-17.1,41.761c-12.121,12.6-29.221,20.04-56.16,24.359
				c-5.281,0.84-9.66,1.44-26.701,3.659c-3.6,0.481-8.879,1.141-11.7,1.501c-13.619,1.8-30.119,5.46-41.099,9.18
				c-15.66,5.34-30.901,14.101-45.54,26.22l-6.66,5.461l0.18,38.58l0.12,38.52l2.999,1.62c1.62,0.9,3.301,1.62,3.661,1.62
				c0.839,0,0.54-3.12-1.2-12.24c-1.98-10.921-1.561-25.56,1.2-36.54c3.12-12.541,6.959-19.86,14.46-27.78
				c8.46-8.939,17.94-13.619,34.38-17.16c2.34-0.54,8.28-0.779,17.1-0.779c13.44,0.059,16.619,0.36,31.199,2.999
				c29.16,5.34,52.261,6.78,70.56,4.5c12.481-1.56,23.641-6,28.62-11.339l2.821-3v-48.66c0-26.701-0.121-48.6-0.18-48.6
				C218.247,480.064,217.828,482.824,217.408,486.184"/>
		</defs>
		<clipPath id="SVGID_119_">
			<use xlink:href="#SVGID_118_"  overflow="visible"/>
		</clipPath>
		
			<linearGradient id="SVGID_120_" gradientUnits="userSpaceOnUse" x1="0" y1="800" x2="1" y2="800" gradientTransform="matrix(206.1 0 0 -198.6 12.4976 159459.375)">
			<stop  offset="0" style="stop-color:#D69C6D"/>
			<stop  offset="1" style="stop-color:#D69C6D"/>
		</linearGradient>
		<rect x="12.448" y="480.064" clip-path="url(#SVGID_119_)" fill="url(#SVGID_120_)" width="206.1" height="198.6"/>
	</g>
	<g clip-path="url(#SVGID_2_)">
		<defs>
			<path id="SVGID_121_" d="M122.767,416.604c-5.819,6.12-12.839,15.6-15.779,21.301c-1.321,2.52-2.7,4.559-3.06,4.559
				c-1.56,0-0.3,14.04,1.559,17.761c0.661,1.319,1.381,3.119,1.561,4.02c0.239,0.899,0.66,1.62,0.9,1.62
				c0.239,0,0.599,0.841,0.84,1.86c0.179,1.02,1.739,3.601,3.42,5.699c2.999,3.78,12.539,13.081,14.519,14.102
				c0.961,0.54,1.021-1.44,1.021-37.561c0-20.939-0.121-38.101-0.24-38.101C127.388,411.863,125.287,414.023,122.767,416.604"/>
		</defs>
		<clipPath id="SVGID_122_">
			<use xlink:href="#SVGID_121_"  overflow="visible"/>
		</clipPath>
		<defs>
			<filter id="Adobe_OpacityMaskFilter_13_" filterUnits="userSpaceOnUse" x="102.368" y="411.863" width="25.38" height="76.201">
				<feColorMatrix  type="matrix" values="1 0 0 0 0  0 1 0 0 0  0 0 1 0 0  0 0 0 1 0"/>
			</filter>
		</defs>
		<mask maskUnits="userSpaceOnUse" x="102.368" y="411.863" width="25.38" height="76.201" id="SVGID_123_">
			<g filter="url(#Adobe_OpacityMaskFilter_13_)">
				
					<linearGradient id="SVGID_124_" gradientUnits="userSpaceOnUse" x1="0" y1="799.9961" x2="1" y2="799.9961" gradientTransform="matrix(24.5241 0 0 -75.7257 103.231 61030.2695)">
					<stop  offset="0" style="stop-color:#848484"/>
					<stop  offset="1" style="stop-color:#848484"/>
				</linearGradient>
				<rect x="102.368" y="411.863" clip-path="url(#SVGID_122_)" fill="url(#SVGID_124_)" width="25.38" height="76.201"/>
			</g>
		</mask>
		
			<linearGradient id="SVGID_125_" gradientUnits="userSpaceOnUse" x1="0" y1="799.9961" x2="1" y2="799.9961" gradientTransform="matrix(24.5241 0 0 -75.7257 103.231 61030.2695)">
			<stop  offset="0" style="stop-color:#FFFFFB"/>
			<stop  offset="1" style="stop-color:#FFFFFB"/>
		</linearGradient>
		
			<rect x="102.368" y="411.863" clip-path="url(#SVGID_122_)" mask="url(#SVGID_123_)" fill="url(#SVGID_125_)" width="25.38" height="76.201"/>
	</g>
	<g clip-path="url(#SVGID_2_)">
		<defs>
			<rect id="SVGID_126_" width="800" height="800"/>
		</defs>
		<clipPath id="SVGID_127_">
			<use xlink:href="#SVGID_126_"  overflow="visible"/>
		</clipPath>
		<path clip-path="url(#SVGID_127_)" fill="none" stroke="#000000" stroke-miterlimit="10" d="M122.768,416.604
			c-5.82,6.12-12.84,15.6-15.78,21.3c-1.32,2.521-2.7,4.561-3.06,4.561c-1.56,0-0.3,14.04,1.56,17.76c0.66,1.32,1.38,3.12,1.56,4.02
			c0.24,0.9,0.66,1.62,0.9,1.62c0.24,0,0.6,0.84,0.84,1.86c0.18,1.02,1.74,3.6,3.42,5.7c3,3.779,12.54,13.08,14.52,14.1
			c0.96,0.54,1.02-1.439,1.02-37.56c0-20.94-0.12-38.101-0.24-38.101C127.388,411.863,125.288,414.023,122.768,416.604z"/>
	</g>
	<g clip-path="url(#SVGID_2_)">
		<defs>
			<path id="SVGID_128_" d="M194.688,648.704c-0.481,0.479-10.98,3.42-16.44,4.559c-8.82,1.86-14.04,2.642-37.8,5.701
				c-3.6,0.479-8.881,1.139-11.7,1.499c-13.62,1.8-30.121,5.46-41.101,9.18c-15.66,5.342-30.899,14.101-45.54,26.222l-6.66,5.459
				l0.18,38.58l0.121,38.52l3,1.62c1.62,0.9,3.3,1.62,3.66,1.62c0.84,0,0.54-3.12-1.201-12.24c-1.98-10.919-1.559-25.56,1.201-36.54
				c3.119-12.539,6.96-19.859,14.459-27.78c8.46-8.939,17.941-13.619,34.38-17.158c2.34-0.54,8.28-0.781,17.1-0.781
				c13.441,0.061,16.621,0.36,31.201,3c14.46,2.641,25.98,4.14,38.7,5.1c13.2,0.961,12.78,1.021,13.439-1.68
				c1.861-7.38,5.101-45.12,3.841-45.12C195.228,648.463,194.808,648.583,194.688,648.704"/>
		</defs>
		<clipPath id="SVGID_129_">
			<use xlink:href="#SVGID_128_"  overflow="visible"/>
		</clipPath>
		<defs>
			<filter id="Adobe_OpacityMaskFilter_14_" filterUnits="userSpaceOnUse" x="35.447" y="648.463" width="161.341" height="133.2">
				<feColorMatrix  type="matrix" values="1 0 0 0 0  0 1 0 0 0  0 0 1 0 0  0 0 0 1 0"/>
			</filter>
		</defs>
		<mask maskUnits="userSpaceOnUse" x="35.447" y="648.463" width="161.341" height="133.2" id="SVGID_130_">
			<g filter="url(#Adobe_OpacityMaskFilter_14_)">
				
					<linearGradient id="SVGID_131_" gradientUnits="userSpaceOnUse" x1="0" y1="800" x2="1" y2="800" gradientTransform="matrix(160.3635 0 0 -133.2 35.4893 107275)">
					<stop  offset="0" style="stop-color:#E7E7E7"/>
					<stop  offset="1" style="stop-color:#E7E7E7"/>
				</linearGradient>
				<rect x="35.447" y="648.463" clip-path="url(#SVGID_129_)" fill="url(#SVGID_131_)" width="161.341" height="133.2"/>
			</g>
		</mask>
		
			<linearGradient id="SVGID_132_" gradientUnits="userSpaceOnUse" x1="-4.882813e-004" y1="800" x2="0.9995" y2="800" gradientTransform="matrix(160.3635 0 0 -133.2 35.4893 107275.1328)">
			<stop  offset="0" style="stop-color:#FFBA81"/>
			<stop  offset="1" style="stop-color:#FFBA81"/>
		</linearGradient>
		
			<rect x="35.447" y="648.463" clip-path="url(#SVGID_129_)" mask="url(#SVGID_130_)" fill="url(#SVGID_132_)" width="161.341" height="133.2"/>
	</g>
	<g clip-path="url(#SVGID_2_)">
		<defs>
			<path id="SVGID_133_" d="M632.247,107.203c-8.939-1.86-19.44-4.68-22.199-5.94c-0.661-0.299-3.24-1.379-5.701-2.459
				c-11.579-4.86-16.979-11.761-14.939-18.961l0.78-2.88l0.36,2.1c0.24,1.14,0.839,2.94,1.379,3.96
				c3.061,5.881,16.2,13.74,30.001,18.06c4.5,1.38,7.141,2.041,14.819,3.78c10.979,2.52,27.481,4.201,45,4.62
				c19.321,0.481,17.82,1.201-2.7,1.32c-0.328,0.002-0.659,0.002-0.989,0.002C661.359,110.805,642.073,109.321,632.247,107.203
				 M657.748,101.263c-18.481-2.4-19.741-2.58-30.6-5.22c-23.641-5.699-35.101-13.619-31.141-21.359
				c0.779-1.501,5.88-6.421,6.66-6.421c0.3,0,1.499-0.66,2.759-1.44c1.201-0.72,2.88-1.56,3.722-1.8c0.84-0.239,2.159-0.72,3-1.08
				c2.88-1.26,3.898-1.56,8.1-2.579c2.34-0.54,4.86-1.201,5.699-1.501c0.841-0.24,4.081-0.96,7.199-1.5
				c3.121-0.54,6.901-1.2,8.401-1.499c3.181-0.661,13.98-1.8,22.8-2.401c9.479-0.6,40.021-0.6,48.899,0
				c8.041,0.54,21.121,2.041,26.401,2.941c5.34,0.959,12.539,2.399,14.88,3.06c1.198,0.299,3.179,0.839,4.38,1.139
				c2.279,0.6,4.8,1.5,7.859,2.821c1.02,0.479,2.16,0.839,2.459,0.839c1.142,0,8.222,4.26,10.142,6.12
				c3.66,3.481,4.02,8.28,0.96,11.88c-2.641,3.18-9.9,7.441-16.141,9.48c-20.939,6.961-43.439,10.021-73.44,10.021
				C673.528,102.764,667.048,102.463,657.748,101.263 M661.648,51.163c-14.761,1.5-36.54,5.22-39.842,6.84
				c-0.54,0.24-2.759,0.96-5.04,1.561c-2.219,0.54-4.198,1.26-4.379,1.559c-0.18,0.3-0.72,0.54-1.2,0.54
				c-0.541,0-2.7,0.781-4.86,1.8c-2.099,0.961-3.96,1.8-4.079,1.8c-0.54,0-8.521,5.22-9.84,6.42c-0.78,0.78-1.68,1.381-1.921,1.381
				c-0.3,0-0.54,0.36-0.54,0.779c0,0.481-0.479,1.32-1.14,1.86c-1.62,1.501-3.239,6.12-2.88,8.341
				c0.419,2.819,2.46,8.219,3.061,8.219c0.3,0,1.979,1.38,3.779,3.06c1.74,1.62,4.44,3.54,5.999,4.201
				c1.62,0.659,3.96,1.739,5.281,2.34c5.46,2.639,10.919,4.5,18.601,6.359c7.14,1.8,8.46,2.101,13.5,3.001
				c15.479,2.819,24.3,3.42,49.8,3.42c22.079,0,32.399-0.421,45.6-2.041c2.82-0.299,7.38-0.839,10.2-1.14
				c2.819-0.3,6.3-0.779,7.8-1.139c5.04-1.08,19.08-5.94,23.4-8.1c2.34-1.201,4.559-2.16,4.919-2.16c0.961,0,7.141-4.68,8.46-6.361
				c0.601-0.78,1.501-1.44,1.921-1.44c0.959,0,1.62-3.6,1.679-9.119c0.062-3.6-0.119-4.261-1.919-6.901
				c-2.581-3.719-6.96-7.26-12.779-10.26c-5.221-2.7-13.98-6.059-19.682-7.62c-2.16-0.54-4.559-1.26-5.4-1.499
				c-3.118-1.021-14.339-3.06-26.398-4.801c-7.958-1.121-23.44-1.741-37.768-1.741C676.542,50.322,667.605,50.591,661.648,51.163"/>
		</defs>
		<clipPath id="SVGID_134_">
			<use xlink:href="#SVGID_133_"  overflow="visible"/>
		</clipPath>
		<defs>
			<filter id="Adobe_OpacityMaskFilter_15_" filterUnits="userSpaceOnUse" x="585.568" y="50.322" width="204.42" height="64.322">
				<feColorMatrix  type="matrix" values="1 0 0 0 0  0 1 0 0 0  0 0 1 0 0  0 0 0 1 0"/>
			</filter>
		</defs>
		<mask maskUnits="userSpaceOnUse" x="585.568" y="50.322" width="204.42" height="64.322" id="SVGID_135_">
			<g filter="url(#Adobe_OpacityMaskFilter_15_)">
				
					<linearGradient id="SVGID_136_" gradientUnits="userSpaceOnUse" x1="0" y1="800" x2="1" y2="800" gradientTransform="matrix(204.0602 0 0 -64.321 585.8149 51539.2773)">
					<stop  offset="0" style="stop-color:#D3D3D3"/>
					<stop  offset="1" style="stop-color:#D3D3D3"/>
				</linearGradient>
				<rect x="585.568" y="50.322" clip-path="url(#SVGID_134_)" fill="url(#SVGID_136_)" width="204.42" height="64.322"/>
			</g>
		</mask>
		
			<linearGradient id="SVGID_137_" gradientUnits="userSpaceOnUse" x1="0" y1="800" x2="1" y2="800" gradientTransform="matrix(204.0601 0 0 -64.321 585.8271 51539.2734)">
			<stop  offset="0" style="stop-color:#C0C9F3"/>
			<stop  offset="1" style="stop-color:#C0C9F3"/>
		</linearGradient>
		
			<rect x="585.568" y="50.322" clip-path="url(#SVGID_134_)" mask="url(#SVGID_135_)" fill="url(#SVGID_137_)" width="204.42" height="64.322"/>
	</g>
	<g clip-path="url(#SVGID_2_)">
		<defs>
			<rect id="SVGID_138_" width="800" height="800"/>
		</defs>
		<clipPath id="SVGID_139_">
			<use xlink:href="#SVGID_138_"  overflow="visible"/>
		</clipPath>
		<path clip-path="url(#SVGID_139_)" fill="none" stroke="#000000" stroke-miterlimit="10" d="M661.647,51.164
			c-14.76,1.5-36.54,5.22-39.84,6.84c-0.54,0.24-2.76,0.96-5.04,1.56c-2.22,0.54-4.2,1.26-4.38,1.56s-0.72,0.54-1.2,0.54
			c-0.54,0-2.7,0.78-4.86,1.8c-2.1,0.96-3.96,1.8-4.079,1.8c-0.54,0-8.521,5.22-9.841,6.42c-0.779,0.78-1.68,1.38-1.92,1.38
			c-0.3,0-0.54,0.36-0.54,0.78c0,0.48-0.479,1.32-1.14,1.86c-1.62,1.5-3.24,6.12-2.88,8.34c0.42,2.82,2.46,8.22,3.06,8.22
			c0.3,0,1.98,1.38,3.78,3.06c1.74,1.62,4.44,3.54,6,4.2c1.62,0.66,3.96,1.74,5.28,2.34c5.46,2.64,10.92,4.5,18.6,6.36
			c7.14,1.8,8.46,2.1,13.5,3c15.48,2.82,24.3,3.42,49.8,3.42c22.08,0,32.4-0.42,45.601-2.04c2.819-0.3,7.38-0.84,10.2-1.14
			c2.819-0.3,6.3-0.78,7.8-1.14c5.04-1.08,19.08-5.94,23.399-8.1c2.34-1.2,4.561-2.16,4.92-2.16c0.96,0,7.141-4.68,8.46-6.36
			c0.601-0.78,1.5-1.44,1.921-1.44c0.96,0,1.619-3.6,1.68-9.12c0.06-3.6-0.12-4.26-1.92-6.9c-2.58-3.72-6.96-7.26-12.78-10.26
			c-5.22-2.7-13.979-6.06-19.68-7.62c-2.16-0.54-4.561-1.26-5.4-1.5c-3.12-1.02-14.34-3.06-26.399-4.8
			C710.548,50.204,676.647,49.724,661.647,51.164z M713.248,54.463c8.039,0.54,21.119,2.04,26.399,2.94
			c5.34,0.96,12.54,2.4,14.88,3.06c1.2,0.3,3.181,0.84,4.38,1.14c2.28,0.6,4.801,1.5,7.86,2.82c1.02,0.48,2.16,0.84,2.46,0.84
			c1.14,0,8.22,4.26,10.14,6.12c3.66,3.479,4.021,8.28,0.96,11.88c-2.64,3.18-9.899,7.44-16.14,9.48
			c-20.939,6.96-43.439,10.02-73.439,10.02c-17.221,0-23.7-0.3-33-1.5c-18.48-2.4-19.74-2.58-30.601-5.22
			c-23.64-5.7-35.1-13.62-31.14-21.36c0.779-1.5,5.88-6.42,6.66-6.42c0.3,0,1.5-0.66,2.76-1.44c1.2-0.72,2.88-1.56,3.72-1.8
			c0.84-0.24,2.16-0.72,3-1.08c2.88-1.26,3.9-1.56,8.101-2.58c2.34-0.54,4.859-1.2,5.699-1.5c0.84-0.24,4.08-0.96,7.2-1.5
			c3.12-0.54,6.9-1.2,8.4-1.5c3.18-0.66,13.979-1.8,22.8-2.4C673.827,53.863,704.367,53.863,713.248,54.463z M591.928,83.023
			c3.06,5.88,16.2,13.74,30,18.06c4.5,1.38,7.14,2.04,14.82,3.78c10.979,2.521,27.479,4.2,45,4.62c19.319,0.48,17.819,1.2-2.7,1.32
			c-16.92,0.06-36.78-1.44-46.8-3.6c-8.94-1.86-19.44-4.68-22.2-5.94c-0.66-0.3-3.24-1.38-5.7-2.46
			c-11.58-4.86-16.98-11.76-14.94-18.96l0.78-2.88l0.36,2.1C590.787,80.204,591.388,82.003,591.928,83.023z"/>
	</g>
	<g clip-path="url(#SVGID_2_)">
		<defs>
			<path id="SVGID_140_" d="M120.947,355.063c0,0.9,2.101,1.8,4.14,1.8c2.281,0,2.401-0.78,0.36-1.68
				c-0.995-0.449-2.215-0.693-3.133-0.693C121.517,354.49,120.947,354.673,120.947,355.063"/>
		</defs>
		<clipPath id="SVGID_141_">
			<use xlink:href="#SVGID_140_"  overflow="visible"/>
		</clipPath>
		<defs>
			<filter id="Adobe_OpacityMaskFilter_16_" filterUnits="userSpaceOnUse" x="120.947" y="354.49" width="6.541" height="2.373">
				<feColorMatrix  type="matrix" values="1 0 0 0 0  0 1 0 0 0  0 0 1 0 0  0 0 0 1 0"/>
			</filter>
		</defs>
		<mask maskUnits="userSpaceOnUse" x="120.947" y="354.49" width="6.541" height="2.373" id="SVGID_142_">
			<g filter="url(#Adobe_OpacityMaskFilter_16_)">
				
					<linearGradient id="SVGID_143_" gradientUnits="userSpaceOnUse" x1="-9.765625e-004" y1="800" x2="0.999" y2="800" gradientTransform="matrix(5.945 0 0 -2.3732 120.9493 2254.23)">
					<stop  offset="0" style="stop-color:#E0E0E0"/>
					<stop  offset="1" style="stop-color:#E0E0E0"/>
				</linearGradient>
				<rect x="120.947" y="354.49" clip-path="url(#SVGID_141_)" fill="url(#SVGID_143_)" width="6.541" height="2.373"/>
			</g>
		</mask>
		
			<linearGradient id="SVGID_144_" gradientUnits="userSpaceOnUse" x1="-9.765625e-004" y1="800" x2="0.999" y2="800" gradientTransform="matrix(5.945 0 0 -2.3732 120.9493 2254.23)">
			<stop  offset="0" style="stop-color:#FFFFF1"/>
			<stop  offset="1" style="stop-color:#FFFFF1"/>
		</linearGradient>
		
			<rect x="120.947" y="354.49" clip-path="url(#SVGID_141_)" mask="url(#SVGID_142_)" fill="url(#SVGID_144_)" width="6.541" height="2.373"/>
	</g>
	<g clip-path="url(#SVGID_2_)">
		<defs>
			<rect id="SVGID_145_" width="800" height="800"/>
		</defs>
		<clipPath id="SVGID_146_">
			<use xlink:href="#SVGID_145_"  overflow="visible"/>
		</clipPath>
		<path clip-path="url(#SVGID_146_)" fill="none" stroke="#000000" stroke-miterlimit="10" d="M120.948,355.063
			c0,0.9,2.1,1.8,4.14,1.8c2.28,0,2.4-0.78,0.36-1.68C123.587,354.344,120.948,354.224,120.948,355.063z"/>
	</g>
	<g clip-path="url(#SVGID_2_)">
		<defs>
			<path id="SVGID_147_" d="M224.348,58.929c-8.821,0.601-19.621,1.74-22.8,2.401c-1.5,0.299-5.28,0.959-8.401,1.499
				c-3.119,0.54-6.359,1.26-7.2,1.5c-0.84,0.3-3.36,0.96-5.7,1.501c-4.2,1.019-5.22,1.319-8.1,2.579
				c-0.839,0.36-2.159,0.841-2.999,1.08c-0.841,0.24-2.52,1.08-3.721,1.8c-1.26,0.78-2.46,1.44-2.759,1.44
				c-0.781,0-5.881,4.92-6.66,6.421c-2.281,4.439,0.959,9.36,9.36,14.22c0.48,0.239,1.319-0.54,2.279-2.041
				c4.08-6.48,18.66-11.58,43.201-15.059c11.04-1.62,28.439-2.221,29.099-1.141c0.42,0.66,4.14-0.36,17.941-4.979l17.46-5.821h6.179
				c14.161,0,36.481,5.64,42.541,10.681c1.68,1.44,1.799,1.739,1.44,4.259c-0.241,1.74-0.84,3.121-1.621,3.84
				c-0.72,0.6-1.199,1.14-1.08,1.2c0.12,0.061,1.2,0.6,2.34,1.26c3.18,1.74,6.6,5.22,6.6,6.78c0,0.78,0.121,1.38,0.301,1.38
				c0.839,0,6.96-4.38,8.28-6c3.06-3.6,2.7-8.399-0.961-11.88c-1.919-1.86-9-6.12-10.14-6.12c-0.3,0-1.44-0.36-2.46-0.839
				c-3.06-1.321-5.58-2.221-7.859-2.821c-1.201-0.3-3.181-0.84-4.381-1.139c-2.34-0.661-9.54-2.101-14.879-3.06
				c-5.281-0.901-18.36-2.401-26.401-2.941c-4.44-0.3-14.295-0.45-24.225-0.45S229.087,58.629,224.348,58.929"/>
		</defs>
		<clipPath id="SVGID_148_">
			<use xlink:href="#SVGID_147_"  overflow="visible"/>
		</clipPath>
		<defs>
			<filter id="Adobe_OpacityMaskFilter_17_" filterUnits="userSpaceOnUse" x="153.727" y="58.479" width="189.661" height="35.25">
				<feColorMatrix  type="matrix" values="1 0 0 0 0  0 1 0 0 0  0 0 1 0 0  0 0 0 1 0"/>
			</filter>
		</defs>
		<mask maskUnits="userSpaceOnUse" x="153.727" y="58.479" width="189.661" height="35.25" id="SVGID_149_">
			<g filter="url(#Adobe_OpacityMaskFilter_17_)">
				
					<linearGradient id="SVGID_150_" gradientUnits="userSpaceOnUse" x1="0" y1="799.999" x2="1" y2="799.999" gradientTransform="matrix(187.0938 0 0 -35.25 155.3506 28276.0918)">
					<stop  offset="0" style="stop-color:#B5B5B5"/>
					<stop  offset="1" style="stop-color:#B5B5B5"/>
				</linearGradient>
				<rect x="153.727" y="58.479" clip-path="url(#SVGID_148_)" fill="url(#SVGID_150_)" width="189.661" height="35.25"/>
			</g>
		</mask>
		
			<linearGradient id="SVGID_151_" gradientUnits="userSpaceOnUse" x1="0" y1="800" x2="1" y2="800" gradientTransform="matrix(187.0938 0 0 -35.25 155.3506 28276.0938)">
			<stop  offset="0" style="stop-color:#969BF5"/>
			<stop  offset="1" style="stop-color:#969BF5"/>
		</linearGradient>
		
			<rect x="153.727" y="58.479" clip-path="url(#SVGID_148_)" mask="url(#SVGID_149_)" fill="url(#SVGID_151_)" width="189.661" height="35.25"/>
	</g>
	<g clip-path="url(#SVGID_2_)">
		<defs>
			<rect id="SVGID_152_" width="800" height="800"/>
		</defs>
		<clipPath id="SVGID_153_">
			<use xlink:href="#SVGID_152_"  overflow="visible"/>
		</clipPath>
		<path clip-path="url(#SVGID_153_)" fill="none" stroke="#000000" stroke-miterlimit="10" d="M224.348,58.929
			c-8.82,0.6-19.62,1.74-22.8,2.4c-1.5,0.3-5.28,0.96-8.4,1.5s-6.36,1.26-7.2,1.5c-0.84,0.3-3.36,0.96-5.7,1.5
			c-4.2,1.02-5.22,1.32-8.1,2.58c-0.84,0.36-2.16,0.84-3,1.08c-0.84,0.24-2.52,1.08-3.72,1.8c-1.26,0.78-2.46,1.44-2.76,1.44
			c-0.78,0-5.88,4.92-6.66,6.42c-2.28,4.44,0.96,9.36,9.36,14.22c0.48,0.24,1.32-0.54,2.28-2.04c4.08-6.48,18.66-11.58,43.2-15.06
			c11.04-1.62,28.44-2.22,29.1-1.14c0.42,0.66,4.14-0.36,17.94-4.98l17.46-5.82h6.18c14.16,0,36.48,5.64,42.54,10.68
			c1.68,1.44,1.8,1.74,1.44,4.26c-0.24,1.74-0.84,3.12-1.62,3.84c-0.72,0.6-1.2,1.14-1.08,1.2s1.2,0.6,2.34,1.26
			c3.18,1.74,6.6,5.22,6.6,6.78c0,0.78,0.12,1.38,0.3,1.38c0.84,0,6.96-4.38,8.28-6c3.06-3.6,2.7-8.4-0.96-11.88
			c-1.92-1.86-9-6.12-10.14-6.12c-0.3,0-1.44-0.36-2.46-0.84c-3.06-1.32-5.58-2.22-7.86-2.82c-1.2-0.3-3.18-0.84-4.38-1.14
			c-2.34-0.66-9.54-2.1-14.88-3.06c-5.28-0.9-18.36-2.4-26.4-2.94C264.368,58.329,233.828,58.329,224.348,58.929z"/>
	</g>
	<g clip-path="url(#SVGID_2_)">
		<defs>
			<path id="SVGID_154_" d="M115.948,308.543c0,1.021,7.56,8.761,10.319,10.561c4.261,2.759,11.52,4.68,16.681,4.44l3.659-0.18
				l-15.3-7.5c-8.31-4.067-15.115-7.324-15.353-7.324C115.95,308.54,115.948,308.541,115.948,308.543"/>
		</defs>
		<clipPath id="SVGID_155_">
			<use xlink:href="#SVGID_154_"  overflow="visible"/>
		</clipPath>
		<defs>
			<filter id="Adobe_OpacityMaskFilter_18_" filterUnits="userSpaceOnUse" x="108.407" y="304.898" width="45.742" height="22.527">
				<feColorMatrix  type="matrix" values="1 0 0 0 0  0 1 0 0 0  0 0 1 0 0  0 0 0 1 0"/>
			</filter>
		</defs>
		<mask maskUnits="userSpaceOnUse" x="108.407" y="304.898" width="45.742" height="22.527" id="SVGID_156_">
			<g filter="url(#Adobe_OpacityMaskFilter_18_)">
				
					<linearGradient id="SVGID_157_" gradientUnits="userSpaceOnUse" x1="0" y1="799.998" x2="1" y2="799.998" gradientTransform="matrix(9.198 -17.4272 -35.5656 -4.507 28586.1738 3917.0139)">
					<stop  offset="0" style="stop-color:#838383"/>
					<stop  offset="1" style="stop-color:#B8B8B8"/>
				</linearGradient>
				<polygon clip-path="url(#SVGID_155_)" fill="url(#SVGID_157_)" points="108.407,322.828 117.87,304.898 154.148,309.496 
					144.685,327.426 				"/>
			</g>
		</mask>
		
			<linearGradient id="SVGID_158_" gradientUnits="userSpaceOnUse" x1="0" y1="799.998" x2="1" y2="799.998" gradientTransform="matrix(9.198 -17.4272 -35.5656 -4.507 28586.1738 3917.0139)">
			<stop  offset="0" style="stop-color:#FFFFFF"/>
			<stop  offset="1" style="stop-color:#FFFFFF"/>
		</linearGradient>
		<polygon clip-path="url(#SVGID_155_)" mask="url(#SVGID_156_)" fill="url(#SVGID_158_)" points="108.407,322.828 117.87,304.898 
			154.148,309.496 144.685,327.426 		"/>
	</g>
	<g clip-path="url(#SVGID_2_)">
		<defs>
			<rect id="SVGID_159_" width="800" height="800"/>
		</defs>
		<clipPath id="SVGID_160_">
			<use xlink:href="#SVGID_159_"  overflow="visible"/>
		</clipPath>
		<path clip-path="url(#SVGID_160_)" fill="none" stroke="#000000" stroke-miterlimit="10" d="M115.948,308.543
			c0,1.02,7.56,8.76,10.32,10.56c4.26,2.76,11.52,4.68,16.68,4.44l3.66-0.18l-15.3-7.5
			C122.848,311.724,115.948,308.423,115.948,308.543z"/>
	</g>
	<g clip-path="url(#SVGID_2_)">
		<defs>
			<path id="SVGID_161_" d="M55.627,142.023c0.54,1.081,3.06,2.401,12.12,6.42c7.86,3.541,21.961,7.321,33.901,9.121
				c20.16,3,47.099,3,70.799-0.06c8.761-1.08,23.94-3.661,26.401-4.44c2.099-0.72-4.921-0.36-12.6,0.599
				c-17.161,2.101-61.2,2.821-75.3,1.321c-11.401-1.26-20.941-2.761-27.3-4.26c-14.76-3.541-19.08-5.04-28.08-9.54
				c-0.039-0.016-0.072-0.023-0.099-0.023C55.287,141.161,55.366,141.501,55.627,142.023"/>
		</defs>
		<clipPath id="SVGID_162_">
			<use xlink:href="#SVGID_161_"  overflow="visible"/>
		</clipPath>
		<defs>
			<filter id="Adobe_OpacityMaskFilter_19_" filterUnits="userSpaceOnUse" x="55.287" y="141.161" width="145.66" height="19.403">
				<feColorMatrix  type="matrix" values="1 0 0 0 0  0 1 0 0 0  0 0 1 0 0  0 0 0 1 0"/>
			</filter>
		</defs>
		<mask maskUnits="userSpaceOnUse" x="55.287" y="141.161" width="145.66" height="19.403" id="SVGID_163_">
			<g filter="url(#Adobe_OpacityMaskFilter_19_)">
				
					<linearGradient id="SVGID_164_" gradientUnits="userSpaceOnUse" x1="-9.765625e-004" y1="799.9805" x2="0.999" y2="799.9805" gradientTransform="matrix(143.854 0 0 -18.6455 55.4106 15066.8984)">
					<stop  offset="0" style="stop-color:#757575"/>
					<stop  offset="1" style="stop-color:#757575"/>
				</linearGradient>
				<rect x="55.287" y="141.16" clip-path="url(#SVGID_162_)" fill="url(#SVGID_164_)" width="145.66" height="19.403"/>
			</g>
		</mask>
		
			<linearGradient id="SVGID_165_" gradientUnits="userSpaceOnUse" x1="-9.765625e-004" y1="799.9795" x2="0.999" y2="799.9795" gradientTransform="matrix(143.854 0 0 -18.6455 55.4106 15066.8994)">
			<stop  offset="0" style="stop-color:#0023FE"/>
			<stop  offset="1" style="stop-color:#0023FE"/>
		</linearGradient>
		
			<rect x="55.287" y="141.161" clip-path="url(#SVGID_162_)" mask="url(#SVGID_163_)" fill="url(#SVGID_165_)" width="145.66" height="19.403"/>
	</g>
	<g clip-path="url(#SVGID_2_)">
		<defs>
			<rect id="SVGID_166_" width="800" height="800"/>
		</defs>
		<clipPath id="SVGID_167_">
			<use xlink:href="#SVGID_166_"  overflow="visible"/>
		</clipPath>
		<path clip-path="url(#SVGID_167_)" fill="none" stroke="#000000" stroke-miterlimit="10" d="M55.627,142.023
			c0.54,1.08,3.06,2.4,12.12,6.42c7.86,3.54,21.96,7.32,33.9,9.12c20.16,3,47.1,3,70.8-0.06c8.76-1.08,23.94-3.66,26.4-4.44
			c2.1-0.72-4.92-0.36-12.6,0.6c-17.16,2.1-61.2,2.82-75.3,1.32c-11.4-1.26-20.94-2.76-27.3-4.26c-14.76-3.54-19.08-5.04-28.08-9.54
			C55.268,141.063,55.328,141.423,55.627,142.023z"/>
	</g>
	<g clip-path="url(#SVGID_2_)">
		<defs>
			<path id="SVGID_168_" d="M125.068,271.984c-2.1,5.699-4.44,12.06-5.22,14.1l-1.38,3.659l8.04,4.081
				c4.439,2.219,8.16,3.9,8.28,3.78c0.18-0.241,9.06-25.92,9.72-28.14c0.24-0.66-1.8-1.8-7.38-4.381
				c-4.201-1.859-7.801-3.42-7.981-3.42S127.108,266.343,125.068,271.984"/>
		</defs>
		<clipPath id="SVGID_169_">
			<use xlink:href="#SVGID_168_"  overflow="visible"/>
		</clipPath>
		<defs>
			<filter id="Adobe_OpacityMaskFilter_20_" filterUnits="userSpaceOnUse" x="117.668" y="260.554" width="27.879" height="38.278">
				<feColorMatrix  type="matrix" values="1 0 0 0 0  0 1 0 0 0  0 0 1 0 0  0 0 0 1 0"/>
			</filter>
		</defs>
		<mask maskUnits="userSpaceOnUse" x="117.668" y="260.554" width="27.879" height="38.278" id="SVGID_170_">
			<g filter="url(#Adobe_OpacityMaskFilter_20_)">
				
					<linearGradient id="SVGID_171_" gradientUnits="userSpaceOnUse" x1="0" y1="799.9961" x2="1" y2="799.9961" gradientTransform="matrix(0.7818 -35.2271 -25.5376 -1.0784 20561.1797 1160.173)">
					<stop  offset="0" style="stop-color:#565656"/>
					<stop  offset="1" style="stop-color:#595959"/>
				</linearGradient>
				<polygon clip-path="url(#SVGID_169_)" fill="url(#SVGID_171_)" points="117.668,297.69 118.493,260.554 145.547,261.697 
					144.724,298.833 				"/>
			</g>
		</mask>
		
			<linearGradient id="SVGID_172_" gradientUnits="userSpaceOnUse" x1="0" y1="799.9961" x2="1" y2="799.9961" gradientTransform="matrix(0.7818 -35.2271 -25.5376 -1.0784 20561.1758 1160.173)">
			<stop  offset="0" style="stop-color:#FFFFFF"/>
			<stop  offset="1" style="stop-color:#FFFFFF"/>
		</linearGradient>
		<polygon clip-path="url(#SVGID_169_)" mask="url(#SVGID_170_)" fill="url(#SVGID_172_)" points="117.668,297.69 118.493,260.554 
			145.547,261.697 144.724,298.833 		"/>
	</g>
	<g clip-path="url(#SVGID_2_)">
		<defs>
			<rect id="SVGID_173_" width="800" height="800"/>
		</defs>
		<clipPath id="SVGID_174_">
			<use xlink:href="#SVGID_173_"  overflow="visible"/>
		</clipPath>
		<path clip-path="url(#SVGID_174_)" fill="none" stroke="#000000" stroke-miterlimit="10" d="M125.067,271.983
			c-2.1,5.7-4.44,12.06-5.22,14.1l-1.38,3.66l8.04,4.08c4.44,2.22,8.16,3.9,8.28,3.78c0.18-0.24,9.06-25.92,9.72-28.14
			c0.24-0.66-1.8-1.8-7.38-4.38c-4.2-1.86-7.8-3.42-7.98-3.42C128.968,261.664,127.107,266.344,125.067,271.983z"/>
	</g>
	<g clip-path="url(#SVGID_2_)">
		<defs>
			<path id="SVGID_175_" d="M672.148,182.709c-8.762-1.139-15.841-4.86-17.461-9.18c-0.841-2.1-0.12-3.42,2.341-4.5
				c3.42-1.38,4.019-1.2,2.219,0.96c-3.479,4.08,0.061,7.98,10.44,11.401c3.09,1.014,4.123,1.426,3.483,1.426
				C672.979,182.816,672.634,182.779,672.148,182.709 M669.808,176.289c-5.161-1.86-6.061-2.52-6.061-4.32
				c0-1.199,0.72-1.5,7.681-3.24c4.199-1.019,10.44-2.7,13.919-3.66c5.701-1.62,6.961-1.74,12.901-1.499
				c4.199,0.18,8.699,0.779,12.299,1.679c6.12,1.561,10.26,3.3,10.62,4.38c0.121,0.42-0.9,1.141-2.34,1.681
				c-3.78,1.44-21.601,5.58-27.36,6.419c-2.479,0.34-5.113,0.507-7.721,0.507C678.528,178.236,673.408,177.569,669.808,176.289
				 M694.048,157.329l-6.6,0.06l-16.44,5.58c-9.061,3.06-16.92,5.94-17.58,6.361c-0.72,0.54-1.08,1.559-1.08,3.06
				c0,4.739,7.74,9.899,17.46,11.579c10.62,1.86,18.419,1.021,39.54-4.32c18-4.559,27.24-7.74,28.56-9.84
				c1.141-1.919-7.38-6.059-18.6-9c-9.128-2.341-17.115-3.482-24.685-3.482C694.431,157.327,694.239,157.327,694.048,157.329"/>
		</defs>
		<clipPath id="SVGID_176_">
			<use xlink:href="#SVGID_175_"  overflow="visible"/>
		</clipPath>
		<defs>
			<filter id="Adobe_OpacityMaskFilter_21_" filterUnits="userSpaceOnUse" x="652.348" y="157.327" width="86.7" height="28.502">
				<feColorMatrix  type="matrix" values="1 0 0 0 0  0 1 0 0 0  0 0 1 0 0  0 0 0 1 0"/>
			</filter>
		</defs>
		<mask maskUnits="userSpaceOnUse" x="652.348" y="157.327" width="86.7" height="28.502" id="SVGID_177_">
			<g filter="url(#Adobe_OpacityMaskFilter_21_)">
				
					<linearGradient id="SVGID_178_" gradientUnits="userSpaceOnUse" x1="0" y1="799.9834" x2="1" y2="799.9834" gradientTransform="matrix(85.6624 0 0 -27.5401 652.3589 22203.1484)">
					<stop  offset="0" style="stop-color:#D3D3D3"/>
					<stop  offset="1" style="stop-color:#D3D3D3"/>
				</linearGradient>
				<rect x="652.348" y="157.326" clip-path="url(#SVGID_176_)" fill="url(#SVGID_178_)" width="86.7" height="28.502"/>
			</g>
		</mask>
		
			<linearGradient id="SVGID_179_" gradientUnits="userSpaceOnUse" x1="0" y1="799.9824" x2="1" y2="799.9824" gradientTransform="matrix(85.6624 0 0 -27.5401 652.3589 22203.1484)">
			<stop  offset="0" style="stop-color:#BFC5F3"/>
			<stop  offset="1" style="stop-color:#BFC5F3"/>
		</linearGradient>
		
			<rect x="652.348" y="157.327" clip-path="url(#SVGID_176_)" mask="url(#SVGID_177_)" fill="url(#SVGID_179_)" width="86.7" height="28.502"/>
	</g>
	<g clip-path="url(#SVGID_2_)">
		<defs>
			<rect id="SVGID_180_" width="800" height="800"/>
		</defs>
		<clipPath id="SVGID_181_">
			<use xlink:href="#SVGID_180_"  overflow="visible"/>
		</clipPath>
		<path clip-path="url(#SVGID_181_)" fill="none" stroke="#000000" stroke-miterlimit="10" d="M671.008,162.969
			c-9.061,3.06-16.92,5.94-17.58,6.36c-0.72,0.54-1.08,1.56-1.08,3.06c0,4.74,7.74,9.9,17.46,11.58
			c10.62,1.86,18.42,1.02,39.54-4.32c18-4.56,27.24-7.74,28.56-9.84c1.141-1.92-7.38-6.06-18.6-9c-9.36-2.4-17.521-3.54-25.26-3.48
			l-6.601,0.06L671.008,162.969z M710.548,165.249c6.12,1.56,10.26,3.3,10.62,4.38c0.119,0.42-0.9,1.14-2.341,1.68
			c-3.779,1.44-21.6,5.58-27.359,6.42c-7.44,1.02-16.26,0.479-21.66-1.44c-5.16-1.86-6.06-2.52-6.06-4.32c0-1.2,0.72-1.5,7.68-3.24
			c4.2-1.021,10.439-2.7,13.92-3.66c5.7-1.62,6.96-1.74,12.9-1.5C702.447,163.749,706.947,164.349,710.548,165.249z
			 M659.248,169.989c-3.48,4.08,0.06,7.98,10.439,11.4c4.021,1.32,4.561,1.62,2.46,1.32c-8.76-1.14-15.84-4.86-17.46-9.18
			c-0.84-2.1-0.12-3.42,2.34-4.5C660.447,167.649,661.048,167.829,659.248,169.989z"/>
	</g>
	<g clip-path="url(#SVGID_2_)">
		<defs>
			<path id="SVGID_182_" d="M686.028,273.623c-2.46,1.08-3.181,2.401-2.341,4.5c1.62,4.32,8.7,8.041,17.461,9.18
				c2.099,0.301,1.559,0-2.461-1.319c-10.381-3.42-13.92-7.321-10.439-11.4c1.046-1.256,1.281-1.843,0.623-1.843
				C688.396,272.741,687.46,273.046,686.028,273.623"/>
		</defs>
		<clipPath id="SVGID_183_">
			<use xlink:href="#SVGID_182_"  overflow="visible"/>
		</clipPath>
		<defs>
			<filter id="Adobe_OpacityMaskFilter_22_" filterUnits="userSpaceOnUse" x="682.848" y="272.741" width="20.399" height="14.863">
				<feColorMatrix  type="matrix" values="1 0 0 0 0  0 1 0 0 0  0 0 1 0 0  0 0 0 1 0"/>
			</filter>
		</defs>
		<mask maskUnits="userSpaceOnUse" x="682.848" y="272.741" width="20.399" height="14.863" id="SVGID_184_">
			<g filter="url(#Adobe_OpacityMaskFilter_22_)">
				
					<linearGradient id="SVGID_185_" gradientUnits="userSpaceOnUse" x1="0" y1="799.9941" x2="1" y2="799.9941" gradientTransform="matrix(19.0002 0 0 -14.6688 683.3531 12015.1396)">
					<stop  offset="0" style="stop-color:#FAFAFA"/>
					<stop  offset="1" style="stop-color:#FAFAFA"/>
				</linearGradient>
				<rect x="682.848" y="272.74" clip-path="url(#SVGID_183_)" fill="url(#SVGID_185_)" width="20.399" height="14.863"/>
			</g>
		</mask>
		
			<linearGradient id="SVGID_186_" gradientUnits="userSpaceOnUse" x1="0" y1="799.9922" x2="1" y2="799.9922" gradientTransform="matrix(19.0002 0 0 -14.6688 683.3531 12015.1318)">
			<stop  offset="0" style="stop-color:#EBEDF0"/>
			<stop  offset="1" style="stop-color:#EBEDF0"/>
		</linearGradient>
		
			<rect x="682.848" y="272.741" clip-path="url(#SVGID_183_)" mask="url(#SVGID_184_)" fill="url(#SVGID_186_)" width="20.399" height="14.863"/>
	</g>
	<g clip-path="url(#SVGID_2_)">
		<defs>
			<rect id="SVGID_187_" width="800" height="800"/>
		</defs>
		<clipPath id="SVGID_188_">
			<use xlink:href="#SVGID_187_"  overflow="visible"/>
		</clipPath>
		<path clip-path="url(#SVGID_188_)" fill="none" stroke="#000000" stroke-miterlimit="10" d="M686.027,273.624
			c-2.46,1.08-3.18,2.4-2.34,4.5c1.62,4.32,8.7,8.04,17.46,9.18c2.101,0.3,1.561,0-2.46-1.32c-10.38-3.42-13.92-7.32-10.439-11.4
			C690.048,272.423,689.447,272.244,686.027,273.624z"/>
	</g>
	<g clip-path="url(#SVGID_2_)">
		<defs>
			<path id="SVGID_189_" d="M751.968,316.344c-1.439,2.16-10.5,5.339-28.62,9.9c-10.439,2.639-16.08,3.84-21.42,4.619
				c-13.621,1.921-27.42-1.08-33.3-7.259c-1.921-1.98-2.281-2.821-2.281-4.92c0-2.28-0.059-2.401-0.959-1.501
				c-0.54,0.54-1.08,2.16-1.26,3.541c-0.72,6.84,6.48,12.96,17.82,15.06c5.099,0.96,21.42,0.24,28.2-1.2
				c16.8-3.66,33.72-8.52,39.42-11.34c1.619-0.78,2.34-1.62,2.76-3.12c0.497-1.991,0.417-4.063-0.035-4.063
				C752.2,316.061,752.091,316.149,751.968,316.344"/>
		</defs>
		<clipPath id="SVGID_190_">
			<use xlink:href="#SVGID_189_"  overflow="visible"/>
		</clipPath>
		<defs>
			<filter id="Adobe_OpacityMaskFilter_23_" filterUnits="userSpaceOnUse" x="661.475" y="315.628" width="93.283" height="21.548">
				<feColorMatrix  type="matrix" values="1 0 0 0 0  0 1 0 0 0  0 0 1 0 0  0 0 0 1 0"/>
			</filter>
		</defs>
		<mask maskUnits="userSpaceOnUse" x="661.475" y="315.628" width="93.283" height="21.548" id="SVGID_191_">
			<g filter="url(#Adobe_OpacityMaskFilter_23_)">
				
					<linearGradient id="SVGID_192_" gradientUnits="userSpaceOnUse" x1="-4.882813e-004" y1="800.002" x2="0.9995" y2="800.002" gradientTransform="matrix(-3.5436 37.9004 166.5482 0.8064 -132529.8438 -329.2545)">
					<stop  offset="0" style="stop-color:#1D1D1D"/>
					<stop  offset="1" style="stop-color:#717171"/>
				</linearGradient>
				<polygon clip-path="url(#SVGID_190_)" fill="url(#SVGID_192_)" points="754.758,316.069 752.784,337.176 661.475,336.734 
					663.448,315.627 				"/>
			</g>
		</mask>
		
			<linearGradient id="SVGID_193_" gradientUnits="userSpaceOnUse" x1="-4.882813e-004" y1="800.002" x2="0.9995" y2="800.002" gradientTransform="matrix(-3.5436 37.9004 166.5483 0.8064 -132529.8594 -329.2556)">
			<stop  offset="0" style="stop-color:#000000"/>
			<stop  offset="1" style="stop-color:#000000"/>
		</linearGradient>
		<polygon clip-path="url(#SVGID_190_)" mask="url(#SVGID_191_)" fill="url(#SVGID_193_)" points="754.758,316.07 752.784,337.177 
			661.475,336.735 663.448,315.628 		"/>
	</g>
	<g clip-path="url(#SVGID_2_)">
		<defs>
			<rect id="SVGID_194_" width="800" height="800"/>
		</defs>
		<clipPath id="SVGID_195_">
			<use xlink:href="#SVGID_194_"  overflow="visible"/>
		</clipPath>
		<path clip-path="url(#SVGID_195_)" fill="none" stroke="#000000" stroke-miterlimit="10" d="M751.968,316.344
			c-1.44,2.16-10.5,5.34-28.62,9.9c-10.44,2.64-16.08,3.84-21.42,4.62c-13.62,1.92-27.42-1.08-33.3-7.26
			c-1.92-1.98-2.28-2.82-2.28-4.92c0-2.28-0.061-2.4-0.96-1.5c-0.54,0.54-1.08,2.16-1.26,3.54c-0.721,6.84,6.479,12.96,17.819,15.06
			c5.101,0.96,21.42,0.24,28.2-1.2c16.8-3.66,33.72-8.52,39.42-11.34c1.62-0.78,2.34-1.62,2.76-3.12
			C752.928,317.724,752.688,315.204,751.968,316.344z"/>
	</g>
	<g clip-path="url(#SVGID_2_)">
		<defs>
			<path id="SVGID_196_" d="M324.347,706.464c0,3.24,3.481,11.28,7.141,16.2c2.82,3.9,9.9,10.319,15.359,13.979
				c2.941,1.98,5.521,3.78,5.701,4.021c1.02,1.38,8.82,6.719,12.6,8.519c10.2,4.921,26.28,9.121,39.6,10.382
				c8.879,0.778,11.7,0.959,24.3,1.26c20.46,0.599,43.079-1.741,61.439-6.36c12.239-3.121,18.121-5.16,27.121-9.54
				c5.939-2.94,7.14-3.301,7.438-2.52c0.301,0.72,0.9,0.119,2.34-2.16c1.08-1.681,3.301-4.141,4.921-5.461
				c5.52-4.379,11.221-11.7,14.221-18.299c1.62-3.54,0.118-2.581-2.341,1.5c-2.88,4.738-11.279,13.14-16.739,16.739
				c-12.96,8.52-27.241,13.739-47.101,17.34c-12.479,2.221-19.14,2.641-40.199,2.641c-22.922,0.059-28.74-0.42-44.4-3.601
				c-8.221-1.68-8.1-1.619-18-4.62c-3.78-1.14-9.6-2.881-12.901-3.78c-7.619-2.1-16.319-6.48-21.659-10.739
				c-5.1-4.201-12.06-11.221-12.84-13.021c-0.36-0.779-0.84-1.801-1.2-2.279c-0.78-1.26-2.22-4.562-3.6-8.4
				c-0.53-1.548-0.866-2.294-1.046-2.295C324.417,705.969,324.367,706.136,324.347,706.464"/>
		</defs>
		<clipPath id="SVGID_197_">
			<use xlink:href="#SVGID_196_"  overflow="visible"/>
		</clipPath>
		<defs>
			
				<filter id="Adobe_OpacityMaskFilter_24_" filterUnits="userSpaceOnUse" x="324.347" y="705.969" width="223.801" height="55.454">
				<feColorMatrix  type="matrix" values="1 0 0 0 0  0 1 0 0 0  0 0 1 0 0  0 0 0 1 0"/>
			</filter>
		</defs>
		<mask maskUnits="userSpaceOnUse" x="324.347" y="705.969" width="223.801" height="55.454" id="SVGID_198_">
			<g filter="url(#Adobe_OpacityMaskFilter_24_)">
				
					<linearGradient id="SVGID_199_" gradientUnits="userSpaceOnUse" x1="0" y1="799.9951" x2="1" y2="799.9951" gradientTransform="matrix(222.8549 0 0 -54.9466 324.4011 44690.7422)">
					<stop  offset="0" style="stop-color:#737373"/>
					<stop  offset="1" style="stop-color:#737373"/>
				</linearGradient>
				<rect x="324.347" y="705.969" clip-path="url(#SVGID_197_)" fill="url(#SVGID_199_)" width="223.801" height="55.454"/>
			</g>
		</mask>
		
			<linearGradient id="SVGID_200_" gradientUnits="userSpaceOnUse" x1="0" y1="799.9951" x2="1" y2="799.9951" gradientTransform="matrix(222.8549 0 0 -54.9466 324.4011 44690.7422)">
			<stop  offset="0" style="stop-color:#00F3FF"/>
			<stop  offset="1" style="stop-color:#00F3FF"/>
		</linearGradient>
		
			<rect x="324.347" y="705.969" clip-path="url(#SVGID_197_)" mask="url(#SVGID_198_)" fill="url(#SVGID_200_)" width="223.801" height="55.454"/>
	</g>
	<g clip-path="url(#SVGID_2_)">
		<defs>
			<rect id="SVGID_201_" width="800" height="800"/>
		</defs>
		<clipPath id="SVGID_202_">
			<use xlink:href="#SVGID_201_"  overflow="visible"/>
		</clipPath>
		<path clip-path="url(#SVGID_202_)" fill="none" stroke="#000000" stroke-miterlimit="10" d="M324.348,706.464
			c0,3.239,3.48,11.279,7.14,16.199c2.82,3.9,9.9,10.32,15.36,13.98c2.94,1.979,5.52,3.78,5.7,4.02
			c1.02,1.381,8.82,6.721,12.6,8.521c10.2,4.92,26.28,9.12,39.601,10.38c8.88,0.78,11.699,0.96,24.3,1.26
			c20.46,0.601,43.08-1.739,61.439-6.359c12.24-3.12,18.12-5.16,27.12-9.54c5.94-2.94,7.141-3.301,7.44-2.521
			c0.3,0.72,0.899,0.12,2.34-2.16c1.08-1.68,3.3-4.14,4.92-5.46c5.52-4.38,11.22-11.699,14.22-18.3c1.62-3.54,0.12-2.58-2.34,1.5
			c-2.88,4.74-11.28,13.14-16.74,16.74c-12.96,8.52-27.239,13.74-47.1,17.34c-12.48,2.22-19.14,2.64-40.2,2.64
			c-22.92,0.061-28.74-0.42-44.4-3.6c-8.22-1.68-8.1-1.62-18-4.62c-3.78-1.14-9.6-2.88-12.9-3.78
			c-7.62-2.1-16.32-6.479-21.66-10.739c-5.1-4.2-12.06-11.221-12.84-13.021c-0.36-0.78-0.84-1.8-1.2-2.28
			c-0.78-1.26-2.22-4.56-3.6-8.399C324.768,705.983,324.408,705.443,324.348,706.464z"/>
	</g>
	<g clip-path="url(#SVGID_2_)">
		<defs>
			<path id="SVGID_203_" d="M694.247,238.684c-1.62,0.479-4.619,1.26-6.599,1.739c-1.98,0.421-6.48,1.62-10.021,2.52l-6.421,1.681
				l4.021,1.379c5.039,1.741,14.22,2.281,21.239,1.321c4.32-0.66,20.88-4.32,23.22-5.16c1.44-0.54,0.479-0.841-7.801-2.7
				c-5.043-1.132-8.596-1.676-11.565-1.676C698.097,237.788,696.2,238.093,694.247,238.684"/>
		</defs>
		<clipPath id="SVGID_204_">
			<use xlink:href="#SVGID_203_"  overflow="visible"/>
		</clipPath>
		<defs>
			<filter id="Adobe_OpacityMaskFilter_25_" filterUnits="userSpaceOnUse" x="668.351" y="237.222" width="55.634" height="11.627">
				<feColorMatrix  type="matrix" values="1 0 0 0 0  0 1 0 0 0  0 0 1 0 0  0 0 0 1 0"/>
			</filter>
		</defs>
		<mask maskUnits="userSpaceOnUse" x="668.351" y="237.222" width="55.634" height="11.627" id="SVGID_205_">
			<g filter="url(#Adobe_OpacityMaskFilter_25_)">
				
					<linearGradient id="SVGID_206_" gradientUnits="userSpaceOnUse" x1="0" y1="800.002" x2="1" y2="800.002" gradientTransform="matrix(-9.8068 35.9249 176.0323 2.0014 -140129.5469 -1359.7866)">
					<stop  offset="0" style="stop-color:#3B3B3B"/>
					<stop  offset="1" style="stop-color:#757575"/>
				</linearGradient>
				<polygon clip-path="url(#SVGID_204_)" fill="url(#SVGID_206_)" points="723.984,237.82 720.974,248.85 668.351,248.251 
					671.361,237.222 				"/>
			</g>
		</mask>
		
			<linearGradient id="SVGID_207_" gradientUnits="userSpaceOnUse" x1="0" y1="800.002" x2="1" y2="800.002" gradientTransform="matrix(-9.8068 35.9249 176.0323 2.0014 -140129.5469 -1359.7866)">
			<stop  offset="0" style="stop-color:#FFFFFF"/>
			<stop  offset="1" style="stop-color:#FFFFFF"/>
		</linearGradient>
		<polygon clip-path="url(#SVGID_204_)" mask="url(#SVGID_205_)" fill="url(#SVGID_207_)" points="723.984,237.82 720.974,248.85 
			668.351,248.251 671.361,237.222 		"/>
	</g>
	<g clip-path="url(#SVGID_2_)">
		<defs>
			<rect id="SVGID_208_" width="800" height="800"/>
		</defs>
		<clipPath id="SVGID_209_">
			<use xlink:href="#SVGID_208_"  overflow="visible"/>
		</clipPath>
		<path clip-path="url(#SVGID_209_)" fill="none" stroke="#000000" stroke-miterlimit="10" d="M694.248,238.684
			c-1.62,0.48-4.62,1.26-6.601,1.74c-1.979,0.42-6.479,1.62-10.02,2.52l-6.42,1.68l4.02,1.38c5.04,1.74,14.22,2.28,21.24,1.32
			c4.319-0.66,20.88-4.32,23.22-5.16c1.44-0.54,0.48-0.84-7.8-2.7C703.067,237.483,698.808,237.304,694.248,238.684z"/>
		
			<line clip-path="url(#SVGID_209_)" fill="none" stroke="#000000" stroke-width="2" stroke-miterlimit="10" x1="350" y1="179.329" x2="277" y2="73.329"/>
		
			<line clip-path="url(#SVGID_209_)" fill="none" stroke="#000000" stroke-width="2" stroke-miterlimit="10" x1="376.5" y1="195.829" x2="407.5" y2="93.829"/>
		
			<line clip-path="url(#SVGID_209_)" fill="none" stroke="#000000" stroke-width="2" stroke-miterlimit="10" x1="431.5" y1="170.829" x2="592.5" y2="102.829"/>
		
			<line clip-path="url(#SVGID_209_)" fill="none" stroke="#000000" stroke-width="2" stroke-miterlimit="10" x1="440.5" y1="180.829" x2="648.5" y2="173.829"/>
		
			<line clip-path="url(#SVGID_209_)" fill="none" stroke="#000000" stroke-width="2" stroke-miterlimit="10" x1="444.5" y1="187.829" x2="656.5" y2="209.829"/>
		
			<line clip-path="url(#SVGID_209_)" fill="none" stroke="#000000" stroke-width="2" stroke-miterlimit="10" x1="433.5" y1="193.829" x2="661.5" y2="242.829"/>
		
			<line clip-path="url(#SVGID_209_)" fill="none" stroke="#000000" stroke-width="2" stroke-miterlimit="10" x1="403.5" y1="199.829" x2="663.5" y2="279.829"/>
		
			<line clip-path="url(#SVGID_209_)" fill="none" stroke="#000000" stroke-width="2" stroke-miterlimit="10" x1="407.5" y1="206.829" x2="654.5" y2="319.829"/>
		
			<line clip-path="url(#SVGID_209_)" fill="none" stroke="#000000" stroke-width="2" stroke-miterlimit="10" x1="433.5" y1="470.829" x2="550.5" y2="475.829"/>
		
			<line clip-path="url(#SVGID_209_)" fill="none" stroke="#000000" stroke-width="2" stroke-miterlimit="10" x1="335.5" y1="549.829" x2="234.5" y2="748.829"/>
		
			<line clip-path="url(#SVGID_209_)" fill="none" stroke="#000000" stroke-width="2" stroke-miterlimit="10" x1="376.5" y1="549.829" x2="429.5" y2="747.829"/>
		
			<line clip-path="url(#SVGID_209_)" fill="none" stroke="#000000" stroke-width="2" stroke-miterlimit="10" x1="177.5" y1="674.829" x2="315.5" y2="520.829"/>
		
			<line clip-path="url(#SVGID_209_)" fill="none" stroke="#000000" stroke-width="2" stroke-miterlimit="10" x1="197.5" y1="542.829" x2="323.5" y2="462.829"/>
		
			<line clip-path="url(#SVGID_209_)" fill="none" stroke="#000000" stroke-width="2" stroke-miterlimit="10" x1="308.5" y1="462.829" x2="137.5" y2="455.829"/>
		
			<line clip-path="url(#SVGID_209_)" fill="none" stroke="#000000" stroke-width="2" stroke-miterlimit="10" x1="301.5" y1="399.829" x2="78.5" y2="399.829"/>
		
			<line clip-path="url(#SVGID_209_)" fill="none" stroke="#000000" stroke-width="2" stroke-miterlimit="10" x1="350.5" y1="268.829" x2="127.5" y2="354.829"/>
		
			<line clip-path="url(#SVGID_209_)" fill="none" stroke="#000000" stroke-width="2" stroke-miterlimit="10" x1="307.5" y1="256.829" x2="142.5" y2="315.829"/>
		
			<line clip-path="url(#SVGID_209_)" fill="none" stroke="#000000" stroke-width="2" stroke-miterlimit="10" x1="315.5" y1="242.829" x2="148.5" y2="279.829"/>
		
			<line clip-path="url(#SVGID_209_)" fill="none" stroke="#000000" stroke-width="2" stroke-miterlimit="10" x1="298.5" y1="232.829" x2="205.5" y2="217.829"/>
		
			<line clip-path="url(#SVGID_209_)" fill="none" stroke="#000000" stroke-width="2" stroke-miterlimit="10" x1="320.5" y1="221.829" x2="200.5" y2="157.829"/>
		
			<line clip-path="url(#SVGID_209_)" fill="none" stroke="#000000" stroke-width="2" stroke-miterlimit="10" x1="306.5" y1="206.829" x2="213.5" y2="128.829"/>
	</g>
</g>
</svg>
