<?xml version="1.0" standalone="no"?>
<!DOCTYPE svg PUBLIC "-//W3C//DTD SVG 20010904//EN"
 "http://www.w3.org/TR/2001/REC-SVG-20010904/DTD/svg10.dtd">
<svg version="1.0" xmlns="http://www.w3.org/2000/svg"
 width="393.000000pt" height="671.000000pt" viewBox="0 0 393.000000 671.000000"
 preserveAspectRatio="xMidYMid meet">
<defs>
<linearGradient id="grad_0" x1="0%" y1="100%" x2="100%" y2="100%">
<stop offset="0%" style="stop-color:rgb(254, 253, 252); stop-opacity:1"/>
<stop offset="100%" style="stop-color:rgb(254, 253, 252); stop-opacity:1"/>
</linearGradient>
<linearGradient id="grad_1" x1="100%" y1="80%" x2="3%" y2="-55%">
<stop offset="0%" style="stop-color:rgb(121, 124, 126); stop-opacity:1"/>
<stop offset="100%" style="stop-color:rgb(206, 206, 211); stop-opacity:1"/>
</linearGradient>
<linearGradient id="grad_2" x1="63%" y1="99%" x2="59%" y2="0%">
<stop offset="0%" style="stop-color:rgb(215, 225, 0); stop-opacity:1"/>
<stop offset="100%" style="stop-color:rgb(213, 0, 0); stop-opacity:1"/>
</linearGradient>
<linearGradient id="grad_3" x1="0%" y1="49%" x2="100%" y2="49%">
<stop offset="0%" style="stop-color:rgb(99, 103, 104); stop-opacity:1"/>
<stop offset="100%" style="stop-color:rgb(99, 103, 104); stop-opacity:1"/>
</linearGradient>
<linearGradient id="grad_4" x1="100%" y1="1%" x2="97%" y2="-69%">
<stop offset="0%" style="stop-color:rgb(192, 197, 194); stop-opacity:1"/>
<stop offset="100%" style="stop-color:rgb(250, 250, 250); stop-opacity:1"/>
</linearGradient>
<linearGradient id="grad_5" x1="100%" y1="50%" x2="2%" y2="-85%">
<stop offset="0%" style="stop-color:rgb(115, 118, 119); stop-opacity:1"/>
<stop offset="100%" style="stop-color:rgb(240, 240, 237); stop-opacity:1"/>
</linearGradient>
<linearGradient id="grad_6" x1="7%" y1="100%" x2="6%" y2="13%">
<stop offset="0%" style="stop-color:rgb(251, 245, 41); stop-opacity:1"/>
<stop offset="100%" style="stop-color:rgb(255, 217, 43); stop-opacity:1"/>
</linearGradient>
<linearGradient id="grad_7" x1="64%" y1="0%" x2="163%" y2="94%">
<stop offset="0%" style="stop-color:rgb(254, 105, 73); stop-opacity:1"/>
<stop offset="100%" style="stop-color:rgb(254, 232, 83); stop-opacity:1"/>
</linearGradient>
<linearGradient id="grad_8" x1="0%" y1="40%" x2="100%" y2="40%">
<stop offset="0%" style="stop-color:rgb(214, 156, 109); stop-opacity:1"/>
<stop offset="100%" style="stop-color:rgb(214, 156, 109); stop-opacity:1"/>
</linearGradient>
<linearGradient id="grad_9" x1="0%" y1="59%" x2="100%" y2="59%">
<stop offset="0%" style="stop-color:rgb(255, 255, 251); stop-opacity:0.518054"/>
<stop offset="100%" style="stop-color:rgb(255, 255, 251); stop-opacity:0.518054"/>
</linearGradient>
<linearGradient id="grad_10" x1="0%" y1="60%" x2="100%" y2="60%">
<stop offset="0%" style="stop-color:rgb(255, 186, 129); stop-opacity:0.906507"/>
<stop offset="100%" style="stop-color:rgb(255, 186, 129); stop-opacity:0.906507"/>
</linearGradient>
<linearGradient id="grad_11" x1="0%" y1="52%" x2="100%" y2="52%">
<stop offset="0%" style="stop-color:rgb(192, 201, 243); stop-opacity:0.827595"/>
<stop offset="100%" style="stop-color:rgb(192, 201, 243); stop-opacity:0.827595"/>
</linearGradient>
<linearGradient id="grad_12" x1="0%" y1="100%" x2="100%" y2="100%">
<stop offset="0%" style="stop-color:rgb(255, 255, 241); stop-opacity:0.877165"/>
<stop offset="100%" style="stop-color:rgb(255, 255, 241); stop-opacity:0.877165"/>
</linearGradient>
<linearGradient id="grad_13" x1="0%" y1="37%" x2="100%" y2="37%">
<stop offset="0%" style="stop-color:rgb(150, 155, 245); stop-opacity:0.708986"/>
<stop offset="100%" style="stop-color:rgb(150, 155, 245); stop-opacity:0.708986"/>
</linearGradient>
<linearGradient id="grad_14" x1="0%" y1="96%" x2="30%" y2="212%">
<stop offset="0%" style="stop-color:rgb(255, 255, 255); stop-opacity:0.512677"/>
<stop offset="100%" style="stop-color:rgb(255, 255, 255); stop-opacity:0.723014"/>
</linearGradient>
<linearGradient id="grad_15" x1="0%" y1="100%" x2="100%" y2="100%">
<stop offset="0%" style="stop-color:rgb(0, 35, 254); stop-opacity:0.460036"/>
<stop offset="100%" style="stop-color:rgb(0, 35, 254); stop-opacity:0.460036"/>
</linearGradient>
<linearGradient id="grad_16" x1="60%" y1="0%" x2="63%" y2="98%">
<stop offset="0%" style="stop-color:rgb(255, 255, 255); stop-opacity:0.337897"/>
<stop offset="100%" style="stop-color:rgb(255, 255, 255); stop-opacity:0.349567"/>
</linearGradient>
<linearGradient id="grad_17" x1="0%" y1="53%" x2="100%" y2="53%">
<stop offset="0%" style="stop-color:rgb(191, 197, 243); stop-opacity:0.829339"/>
<stop offset="100%" style="stop-color:rgb(191, 197, 243); stop-opacity:0.829339"/>
</linearGradient>
<linearGradient id="grad_18" x1="0%" y1="79%" x2="100%" y2="79%">
<stop offset="0%" style="stop-color:rgb(235, 237, 240); stop-opacity:0.980068"/>
<stop offset="100%" style="stop-color:rgb(235, 237, 240); stop-opacity:0.980068"/>
</linearGradient>
<linearGradient id="grad_19" x1="100%" y1="100%" x2="96%" y2="-88%">
<stop offset="0%" style="stop-color:rgb(0, 0, 0); stop-opacity:0.114271"/>
<stop offset="100%" style="stop-color:rgb(0, 0, 0); stop-opacity:0.442239"/>
</linearGradient>
<linearGradient id="grad_20" x1="0%" y1="100%" x2="100%" y2="100%">
<stop offset="0%" style="stop-color:rgb(0, 243, 255); stop-opacity:0.450243"/>
<stop offset="100%" style="stop-color:rgb(0, 243, 255); stop-opacity:0.450243"/>
</linearGradient>
<linearGradient id="grad_21" x1="100%" y1="62%" x2="80%" y2="-297%">
<stop offset="0%" style="stop-color:rgb(255, 255, 255); stop-opacity:0.230372"/>
<stop offset="100%" style="stop-color:rgb(255, 255, 255); stop-opacity:0.459783"/>
</linearGradient>
</defs>
<g transform="translate(0.000000,671.000000) scale(0.100000,-0.100000)"
fill="url(#grad_0)" stroke="none">
<g>
<path d="M0 3355 l0 -3355 1965 0 1965 0 0 3355 0 3355 -1965 0 -1965 0 0
-3355z"/>
</g>
</g>
<g transform="translate(0.000000,671.000000) scale(0.100000,-0.100000)"
fill="url(#grad_1)" stroke="none">
<g>
<path d="M426 618 c9 -18 20 -42 26 -53 7 -11 18 -33 27 -50 19 -39 75 -109
126 -158 151 -144 388 -245 725 -308 165 -31 220 -34 660 -34 477 0 500 2 710
50 333 77 596 227 710 405 52 81 35 85 -99 19 -150 -73 -248 -107 -452 -159
-306 -77 -683 -116 -1024 -106 -210 5 -257 8 -405 21 -222 21 -490 91 -660
173 -62 30 -193 118 -210 142 -9 12 -129 90 -139 90 -5 0 -3 -15 5 -32z"/>
</g>
</g>
<g transform="translate(0.000000,671.000000) scale(0.100000,-0.100000)"
fill="url(#grad_2)" stroke="none">
<g>
<path d="M1495 6685 c-246 -25 -609 -87 -664 -114 -9 -4 -46 -16 -84 -26 -37
-9 -70 -21 -73 -26 -3 -5 -12 -9 -20 -9 -9 0 -45 -13 -81 -30 -35 -16 -66 -30
-68 -30 -9 0 -142 -87 -164 -107 -13 -13 -28 -23 -32 -23 -5 0 -9 -6 -9 -13 0
-8 -8 -22 -19 -31 -27 -25 -54 -102 -48 -139 7 -50 41 -137 52 -137 6 0 29
-18 50 -41 22 -23 64 -54 93 -71 28 -16 52 -34 52 -39 0 -9 71 -45 200 -103
187 -83 480 -149 785 -176 153 -14 547 -14 713 0 203 17 486 57 679 96 31 6
32 5 42 -37 6 -24 16 -57 22 -74 6 -16 13 -39 16 -50 3 -11 11 -34 19 -52 8
-17 14 -42 14 -56 0 -14 5 -29 10 -32 6 -3 10 -19 10 -34 0 -15 4 -31 9 -36 6
-6 11 -39 13 -74 l3 -64 -140 -39 c-368 -100 -710 -148 -1070 -148 -397 0
-738 56 -1097 179 -81 28 -155 51 -164 51 -21 0 -340 157 -414 204 -74 47 -65
77 -101 -324 -6 -67 -13 -610 -16 -1290 -5 -1207 3 -1799 32 -2195 8 -110 17
-240 21 -290 12 -194 54 -324 143 -445 47 -65 165 -172 256 -233 49 -33 92
-63 95 -67 17 -23 147 -112 210 -142 170 -82 438 -152 660 -173 148 -13 195
-16 405 -21 341 -10 718 29 1024 106 204 52 302 86 452 159 99 49 119 55 124
42 5 -12 15 -2 39 36 18 28 55 69 82 91 99 79 194 205 243 322 13 30 28 61 34
69 10 12 17 68 47 411 16 187 29 472 30 662 l0 177 -47 -50 c-83 -89 -269
-163 -477 -189 -305 -38 -690 -14 -1176 75 -243 44 -296 49 -520 50 -147 0
-246 -4 -285 -13 -274 -59 -432 -137 -573 -286 -125 -132 -189 -254 -241 -463
-46 -183 -53 -427 -20 -609 29 -152 34 -204 20 -204 -43 0 -202 120 -307 231
-45 48 -52 61 -58 109 -9 80 -24 533 -28 850 -5 412 1 2851 8 3191 l6 296 -32
37 c-18 20 -31 38 -29 39 2 1 119 -55 259 -126 l255 -127 -86 3 -86 3 -6 -530
c-8 -609 -9 -2626 -2 -2626 2 0 50 38 105 84 229 192 497 345 755 433 183 62
458 123 685 153 47 6 135 17 195 25 284 37 357 47 445 61 449 72 734 196 936
406 171 179 242 355 290 727 15 122 16 167 5 500 -18 542 -44 965 -63 1051
-15 68 -117 363 -153 445 -54 121 -67 166 -60 203 4 20 8 67 8 104 1 59 -2 71
-32 115 -43 62 -116 121 -213 171 -87 45 -233 101 -328 127 -36 9 -76 21 -90
25 -52 17 -239 51 -440 80 -220 31 -785 39 -1035 15z"/>
</g>
</g>
<g transform="translate(0.000000,671.000000) scale(0.100000,-0.100000)"
fill="url(#grad_3)" stroke="none">
<g>
<path d="M2340 6410 c-58 -16 -162 -44 -232 -61 -116 -29 -128 -34 -128 -54 0
-30 15 -41 101 -72 90 -32 237 -41 361 -24 96 14 393 83 456 107 24 9 41 21
39 28 -12 38 -227 95 -382 101 -99 4 -120 2 -215 -25z"/>
</g>
</g>
<g transform="translate(0.000000,671.000000) scale(0.100000,-0.100000)"
fill="url(#grad_4)" stroke="none">
<g>
<path d="M291 6207 c-16 -54 -6 -104 31 -165 26 -43 126 -112 218 -151 41 -18
84 -36 95 -41 46 -21 221 -68 370 -99 167 -36 498 -61 780 -60 342 2 367 14
45 22 -252 6 -397 18 -610 52 -92 14 -117 19 -245 49 -236 55 -455 155 -574
262 -57 51 -81 90 -91 144 l-6 35 -13 -48z"/>
</g>
</g>
<g transform="translate(0.000000,671.000000) scale(0.100000,-0.100000)"
fill="url(#grad_5)" stroke="none">
<g>
<path d="M1500 6363 c-499 -50 -835 -152 -907 -276 l-21 -35 46 -20 c74 -32
188 -67 302 -95 181 -44 202 -47 510 -87 155 -20 263 -25 550 -25 499 0 875
51 1222 166 102 34 128 50 128 79 0 29 -53 85 -110 116 -19 11 -37 20 -39 21
-2 1 6 10 18 20 14 12 23 35 28 68 6 48 5 49 -13 34 -51 -44 -176 -87 -474
-162 -263 -67 -381 -87 -502 -87 -234 0 -448 100 -448 210 0 21 5 40 11 42 5
2 7 11 4 21 -6 15 -22 17 -139 15 -72 0 -147 -3 -166 -5z"/>
</g>
</g>
<g transform="translate(0.000000,671.000000) scale(0.100000,-0.100000)"
fill="url(#grad_6)" stroke="none">
<g>
<path d="M259 5973 c-5 -16 -39 -100 -74 -188 -64 -163 -97 -256 -109 -311 -7
-30 -4 -33 56 -71 81 -51 390 -203 412 -203 9 0 83 -23 164 -51 668 -229 1402
-240 2167 -31 l140 39 -3 64 c-2 35 -7 68 -13 74 -5 5 -9 21 -9 36 0 15 -4 31
-10 34 -5 3 -10 18 -10 32 0 14 -6 39 -13 56 -17 40 -37 96 -44 122 -3 11 -9
37 -15 59 -9 36 -11 38 -41 32 -193 -39 -476 -79 -679 -96 -166 -14 -560 -14
-713 0 -305 27 -598 93 -785 176 -129 58 -200 94 -200 103 0 5 -24 23 -52 39
-29 17 -71 48 -93 71 -46 48 -62 51 -76 14z"/>
</g>
</g>
<g transform="translate(0.000000,671.000000) scale(0.100000,-0.100000)"
fill="url(#grad_7)" stroke="none">
<g>
<path d="M150 5362 c0 -2 14 -20 31 -40 l31 -35 -6 -296 c-7 -340 -13 -2779
-8 -3191 4 -306 19 -765 28 -850 6 -54 7 -56 110 -157 57 -56 113 -107 124
-113 l20 -11 0 1678 c0 923 3 1924 7 2224 l6 545 86 -4 c47 -2 84 -2 81 1 -8
8 -510 253 -510 249z"/>
</g>
</g>
<g transform="translate(0.000000,671.000000) scale(0.100000,-0.100000)"
fill="url(#grad_8)" stroke="none">
<g>
<path d="M3891 3818 c-39 -328 -118 -523 -285 -696 -202 -210 -487 -334 -936
-406 -88 -14 -161 -24 -445 -61 -60 -8 -148 -19 -195 -25 -227 -30 -502 -91
-685 -153 -261 -89 -515 -235 -759 -437 l-111 -91 3 -643 2 -642 50 -27 c27
-15 55 -27 61 -27 14 0 9 52 -20 204 -33 182 -26 426 20 609 52 209 116 331
241 463 141 149 299 227 573 286 39 9 138 13 285 13 224 -1 277 -6 520 -50
486 -89 871 -113 1176 -75 208 26 394 100 477 189 l47 50 0 811 c0 445 -2 810
-3 810 -2 0 -9 -46 -16 -102z"/>
</g>
</g>
<g transform="translate(0.000000,671.000000) scale(0.100000,-0.100000)"
fill="url(#grad_9)" stroke="none">
<g>
<path d="M397 1861 c-97 -102 -214 -260 -263 -355 -22 -42 -45 -76 -51 -76
-26 0 -5 -234 26 -296 11 -22 23 -52 26 -67 4 -15 11 -27 15 -27 4 0 10 -14
14 -31 3 -17 29 -60 57 -95 50 -63 209 -218 242 -235 16 -9 17 24 17 626 0
349 -2 635 -4 635 -2 0 -37 -36 -79 -79z"/>
</g>
</g>
<g transform="translate(0.000000,671.000000) scale(0.100000,-0.100000)"
fill="url(#grad_10)" stroke="none">
<g>
<path d="M3129 2826 c-8 -8 -183 -57 -274 -76 -147 -31 -234 -44 -630 -95 -60
-8 -148 -19 -195 -25 -227 -30 -502 -91 -685 -153 -261 -89 -515 -235 -759
-437 l-111 -91 3 -643 2 -642 50 -27 c27 -15 55 -27 61 -27 14 0 9 52 -20 204
-33 182 -26 426 20 609 52 209 116 331 241 463 141 149 299 227 573 286 39 9
138 13 285 13 224 -1 277 -6 520 -50 241 -44 433 -69 645 -85 220 -16 213 -17
224 28 31 123 85 752 64 752 -5 0 -12 -2 -14 -4z"/>
</g>
</g>
<g transform="translate(0.000000,671.000000) scale(0.100000,-0.100000)"
fill="url(#grad_11)" stroke="none">
<g>
<path d="M1495 6685 c-246 -25 -609 -87 -664 -114 -9 -4 -46 -16 -84 -26 -37
-9 -70 -21 -73 -26 -3 -5 -12 -9 -20 -9 -9 0 -45 -13 -81 -30 -35 -16 -66 -30
-68 -30 -9 0 -142 -87 -164 -107 -13 -13 -28 -23 -32 -23 -5 0 -9 -6 -9 -13 0
-8 -8 -22 -19 -31 -27 -25 -54 -102 -48 -139 7 -47 41 -137 51 -137 5 0 33
-23 63 -51 29 -27 74 -59 100 -70 27 -11 66 -29 88 -39 91 -44 182 -75 310
-106 119 -30 141 -35 225 -50 258 -47 405 -57 830 -57 368 0 540 7 760 34 47
5 123 14 170 19 47 5 105 13 130 19 84 18 318 99 390 135 39 20 76 36 82 36
16 0 119 78 141 106 10 13 25 24 32 24 16 0 27 60 28 152 1 60 -2 71 -32 115
-43 62 -116 121 -213 171 -87 45 -233 101 -328 127 -36 9 -76 21 -90 25 -52
17 -239 51 -440 80 -220 31 -785 39 -1035 15z m860 -55 c134 -9 352 -34 440
-49 89 -16 209 -40 248 -51 20 -5 53 -14 73 -19 38 -10 80 -25 131 -47 17 -8
36 -14 41 -14 19 0 137 -71 169 -102 61 -58 67 -138 16 -198 -44 -53 -165
-124 -269 -158 -349 -116 -724 -167 -1224 -167 -287 0 -395 5 -550 25 -308 40
-329 43 -510 87 -394 95 -585 227 -519 356 13 25 98 107 111 107 5 0 25 11 46
24 20 12 48 26 62 30 14 4 36 12 50 18 48 21 65 26 135 43 39 9 81 20 95 25
14 4 68 16 120 25 52 9 115 20 140 25 53 11 233 30 380 40 158 10 667 10 815
0z m-2022 -476 c51 -98 270 -229 500 -301 75 -23 119 -34 247 -63 183 -42 458
-70 750 -77 322 -8 297 -20 -45 -22 -282 -1 -613 24 -780 60 -149 31 -324 78
-370 99 -11 5 -54 23 -95 41 -193 81 -283 196 -249 316 l13 48 6 -35 c4 -19
14 -49 23 -66z"/>
</g>
</g>
<g transform="translate(0.000000,671.000000) scale(0.100000,-0.100000)"
fill="url(#grad_12)" stroke="none">
<g>
<path d="M1050 5020 c0 -15 35 -30 69 -30 38 0 40 13 6 28 -31 14 -75 16 -75
2z"/>
</g>
</g>
<g transform="translate(0.000000,671.000000) scale(0.100000,-0.100000)"
fill="url(#grad_13)" stroke="none">
<g>
<path d="M1540 6630 c-147 -10 -327 -29 -380 -40 -25 -5 -88 -16 -140 -25 -52
-9 -106 -21 -120 -25 -14 -5 -56 -16 -95 -25 -70 -17 -87 -22 -135 -43 -14 -6
-36 -14 -50 -18 -14 -4 -42 -18 -62 -30 -21 -13 -41 -24 -46 -24 -13 0 -98
-82 -111 -107 -38 -74 16 -156 156 -237 8 -4 22 9 38 34 68 108 311 193 720
251 184 27 474 37 485 19 7 -11 69 6 299 83 l291 97 103 0 c236 0 608 -94 709
-178 28 -24 30 -29 24 -71 -4 -29 -14 -52 -27 -64 -12 -10 -20 -19 -18 -20 2
-1 20 -10 39 -21 53 -29 110 -87 110 -113 0 -13 2 -23 5 -23 14 0 116 73 138
100 51 60 45 140 -16 198 -32 31 -150 102 -169 102 -5 0 -24 6 -41 14 -51 22
-93 37 -131 47 -20 5 -53 14 -73 19 -39 11 -159 35 -248 51 -88 15 -306 40
-440 49 -148 10 -657 10 -815 0z"/>
</g>
</g>
<g transform="translate(0.000000,671.000000) scale(0.100000,-0.100000)"
fill="url(#grad_14)" stroke="none">
<g>
<path d="M150 5362 c0 -17 126 -146 172 -176 71 -46 192 -78 278 -74 l61 3
-255 125 c-141 69 -256 124 -256 122z"/>
</g>
</g>
<g transform="translate(0.000000,671.000000) scale(0.100000,-0.100000)"
fill="url(#grad_15)" stroke="none">
<g>
<path d="M478 5854 c9 -18 51 -40 202 -107 131 -59 366 -122 565 -152 336 -50
785 -50 1180 1 146 18 399 61 440 74 35 12 -82 6 -210 -10 -286 -35 -1020 -47
-1255 -22 -190 21 -349 46 -455 71 -246 59 -318 84 -468 159 -5 2 -4 -4 1 -14z"/>
</g>
</g>
<g transform="translate(0.000000,671.000000) scale(0.100000,-0.100000)"
fill="url(#grad_16)" stroke="none">
<g>
<path d="M352 5638 c-35 -95 -74 -201 -87 -235 l-23 -61 134 -68 c74 -37 136
-65 138 -63 3 4 151 432 162 469 4 11 -30 30 -123 73 -70 31 -130 57 -133 57
-3 0 -34 -78 -68 -172z"/>
</g>
</g>
<g transform="translate(0.000000,671.000000) scale(0.100000,-0.100000)"
fill="url(#grad_17)" stroke="none">
<g>
<path d="M2101 6445 c-151 -51 -282 -99 -293 -106 -12 -9 -18 -26 -18 -51 0
-79 129 -165 291 -193 177 -31 307 -17 659 72 300 76 454 129 476 164 19 32
-123 101 -310 150 -156 40 -292 59 -421 58 l-110 -1 -274 -93z m659 -38 c102
-26 171 -55 177 -73 2 -7 -15 -19 -39 -28 -63 -24 -360 -93 -456 -107 -124
-17 -271 -8 -361 24 -86 31 -101 42 -101 72 0 20 12 25 128 54 70 17 174 45
232 61 95 27 116 29 215 25 70 -3 145 -13 205 -28z m-855 -79 c-58 -68 1 -133
174 -190 67 -22 76 -27 41 -22 -146 19 -264 81 -291 153 -14 35 -2 57 39 75
57 23 67 20 37 -16z"/>
</g>
</g>
<g transform="translate(0.000000,671.000000) scale(0.100000,-0.100000)"
fill="url(#grad_18)" stroke="none">
<g>
<path d="M1868 6344 c-41 -18 -53 -40 -39 -75 27 -72 145 -134 291 -153 35 -5
26 0 -41 22 -173 57 -232 122 -174 190 30 36 20 39 -37 16z"/>
</g>
</g>
<g transform="translate(0.000000,671.000000) scale(0.100000,-0.100000)"
fill="url(#grad_19)" stroke="none">
<g>
<path d="M3217 6332 c-24 -36 -175 -89 -477 -165 -174 -44 -268 -64 -357 -77
-227 -32 -457 18 -555 121 -32 33 -38 47 -38 82 0 38 -1 40 -16 25 -9 -9 -18
-36 -21 -59 -12 -114 108 -216 297 -251 85 -16 357 -4 470 20 280 61 562 142
657 189 27 13 39 27 46 52 10 40 6 82 -6 63z"/>
</g>
</g>
<g transform="translate(0.000000,671.000000) scale(0.100000,-0.100000)"
fill="url(#grad_20)" stroke="none">
<g>
<path d="M90 1130 c0 -54 58 -188 119 -270 47 -65 165 -172 256 -233 49 -33
92 -63 95 -67 17 -23 147 -112 210 -142 170 -82 438 -152 660 -173 148 -13
195 -16 405 -21 341 -10 718 29 1024 106 204 52 302 86 452 159 99 49 119 55
124 42 5 -12 15 -2 39 36 18 28 55 69 82 91 92 73 187 195 237 305 27 59 2 43
-39 -25 -48 -79 -188 -219 -279 -279 -216 -142 -454 -229 -785 -289 -208 -37
-319 -44 -670 -44 -382 -1 -479 7 -740 60 -137 28 -135 27 -300 77 -63 19
-160 48 -215 63 -127 35 -272 108 -361 179 -85 70 -201 187 -214 217 -6 13
-14 30 -20 38 -13 21 -37 76 -60 140 -13 38 -19 47 -20 30z"/>
</g>
</g>
<g transform="translate(0.000000,671.000000) scale(0.100000,-0.100000)"
fill="url(#grad_21)" stroke="none">
<g>
<path d="M2405 6343 c-27 -8 -77 -21 -110 -29 -33 -7 -108 -27 -167 -42 l-107
-28 67 -23 c84 -29 237 -38 354 -22 72 11 348 72 387 86 24 9 8 14 -130 45
-147 33 -218 36 -294 13z"/>
</g>
</g>
</svg>
