<?xml version="1.0" standalone="no"?><!DOCTYPE svg PUBLIC "-//W3C//DTD SVG 20010904//EN" "http://www.w3.org/TR/2001/REC-SVG-20010904/DTD/svg10.dtd"><svg version="1.0" xmlns="http://www.w3.org/2000/svg" width="410pt" height="881pt" viewBox="0 0 410 881" preserveAspectRatio="xMidYMid meet"><defs><linearGradient id="linear-gradient-1-1" x1="0.00%" y1="100.00%" x2="23.70%" y2="-43.93%"><stop offset="0%" style="stop-color:rgb(221,218,222);stop-opacity:0.991" /><stop offset="100%" style="stop-color:rgb(192,190,195);stop-opacity:0.992" /></linearGradient><linearGradient id="linear-gradient-1-2" x1="0.00%" y1="100.00%" x2="0.11%" y2="-1.29%"><stop offset="0%" style="stop-color:rgb(195,192,199);stop-opacity:1.000" /><stop offset="100%" style="stop-color:rgb(181,176,185);stop-opacity:1.000" /></linearGradient><linearGradient id="linear-gradient-1-3" x1="0.00%" y1="100.00%" x2="0.00%" y2="-0.00%"><stop offset="0%" style="stop-color:rgb(254,176,5);stop-opacity:1.000" /><stop offset="100%" style="stop-color:rgb(255,174,0);stop-opacity:1.000" /></linearGradient><linearGradient id="linear-gradient-1-4" x1="0.00%" y1="100.00%" x2="73.38%" y2="-29.75%"><stop offset="0%" style="stop-color:rgb(105,70,75);stop-opacity:0.994" /><stop offset="100%" style="stop-color:rgb(132,104,108);stop-opacity:1.000" /></linearGradient><linearGradient id="linear-gradient-1-5" x1="0.00%" y1="100.00%" x2="13.22%" y2="-381.73%"><stop offset="0%" style="stop-color:rgb(197,193,200);stop-opacity:0.992" /><stop offset="100%" style="stop-color:rgb(181,177,185);stop-opacity:0.992" /></linearGradient><linearGradient id="linear-gradient-2-1" x1="0.00%" y1="100.00%" x2="0.50%" y2="-110.29%"><stop offset="0%" style="stop-color:rgb(0,0,0);stop-opacity:0.136" /><stop offset="100%" style="stop-color:rgb(0,0,0);stop-opacity:0.182" /></linearGradient><linearGradient id="linear-gradient-2-2" x1="0.00%" y1="100.00%" x2="0.00%" y2="0.00%"><stop offset="0%" style="stop-color:rgb(249,246,229);stop-opacity:0.784" /><stop offset="100%" style="stop-color:rgb(248,255,255);stop-opacity:0.810" /></linearGradient><linearGradient id="linear-gradient-2-3" x1="0.00%" y1="100.00%" x2="0.15%" y2="-0.69%"><stop offset="0%" style="stop-color:rgb(255,253,210);stop-opacity:0.803" /><stop offset="100%" style="stop-color:rgb(255,255,224);stop-opacity:0.851" /></linearGradient><linearGradient id="linear-gradient-2-4" x1="0.00%" y1="100.00%" x2="0.81%" y2="-48.41%"><stop offset="0%" style="stop-color:rgb(255,254,210);stop-opacity:0.815" /><stop offset="100%" style="stop-color:rgb(255,255,220);stop-opacity:0.862" /></linearGradient><linearGradient id="linear-gradient-2-5" x1="0.00%" y1="100.00%" x2="39.99%" y2="-1852.42%"><stop offset="0%" style="stop-color:rgb(112,109,114);stop-opacity:0.554" /><stop offset="100%" style="stop-color:rgb(145,141,148);stop-opacity:0.800" /></linearGradient><linearGradient id="linear-gradient-3-1" x1="0.00%" y1="0.00%" x2="10.30%" y2="188.68%"><stop offset="0%" style="stop-color:rgb(76,179,0);stop-opacity:0.850" /><stop offset="100%" style="stop-color:rgb(133,201,41);stop-opacity:0.694" /></linearGradient><linearGradient id="linear-gradient-3-2" x1="0.00%" y1="100.00%" x2="248.61%" y2="90.98%"><stop offset="0%" style="stop-color:rgb(252,254,253);stop-opacity:0.368" /><stop offset="100%" style="stop-color:rgb(255,255,251);stop-opacity:0.270" /></linearGradient><linearGradient id="linear-gradient-3-3" x1="0.00%" y1="100.00%" x2="5.17%" y2="-56.65%"><stop offset="0%" style="stop-color:rgb(116,194,26);stop-opacity:0.709" /><stop offset="100%" style="stop-color:rgb(74,176,0);stop-opacity:0.874" /></linearGradient><linearGradient id="linear-gradient-3-4" x1="0.00%" y1="100.00%" x2="0.00%" y2="0.00%"><stop offset="0%" style="stop-color:rgb(250,252,249);stop-opacity:0.174" /><stop offset="100%" style="stop-color:rgb(255,255,255);stop-opacity:0.226" /></linearGradient></defs><g id="layer-1"><path d="M1358 8636 c-89 -24 -168 -107 -187 -197 -6 -28 -11 -160 -11 -299 l0 -250 330 0 330 0 0 380 0 380 -207 -1 c-134 0 -225 -5 -255 -13z" fill="url(#linear-gradient-1-1)" id="region-1-1" transform="translate(0.000000,881.000000) scale(0.100000,-0.100000)"/><path d="M1820 8270 l0 -380 620 0 620 0 0 273 c0 264 -1 273 -24 322 -29 63 -77 112 -136 139 -44 20 -62 21 -562 24 l-518 3 0 -381z" fill="url(#linear-gradient-1-2)" id="region-1-2" transform="translate(0.000000,881.000000) scale(0.100000,-0.100000)"/><path d="M590 7874 c-19 -8 -45 -25 -58 -37 -55 -51 -52 12 -52 -1202 l0 -1125 1575 0 1575 0 0 1117 0 1117 -21 44 c-13 26 -38 54 -62 70 l-41 27 -1440 2 c-1271 2 -1445 1 -1476 -13z" fill="url(#linear-gradient-1-3)" id="region-1-3" transform="translate(0.000000,881.000000) scale(0.100000,-0.100000)"/><path d="M480 3157 l0 -2352 25 -38 c14 -20 43 -46 65 -57 39 -20 58 -20 1480 -20 1201 0 1446 2 1473 14 39 16 82 61 96 99 8 20 11 739 11 2368 l0 2339 -1575 0 -1575 0 0 -2353z" fill="url(#linear-gradient-1-4)" id="region-1-4" transform="translate(0.000000,881.000000) scale(0.100000,-0.100000)"/><path d="M700 563 c0 -71 4 -144 10 -163 14 -52 67 -109 124 -136 l51 -24 1159 0 c859 0 1169 3 1198 12 48 14 120 76 142 122 12 26 16 66 16 175 l0 141 -1350 0 -1350 0 0 -127z" fill="url(#linear-gradient-1-5)" id="region-1-5" transform="translate(0.000000,881.000000) scale(0.100000,-0.100000)"/></g><g id="layer-2"><path d="M1160 7980 l0 -90 950 0 950 0 0 90 0 90 -950 0 -950 0 0 -90z" fill="url(#linear-gradient-2-1)" id="region-2-1" transform="translate(0.000000,881.000000) scale(0.100000,-0.100000)"/><path d="M1989 7289 c-62 -36 -69 -65 -69 -274 l0 -185 -180 0 c-218 0 -248 -8 -280 -76 -32 -65 -15 -129 43 -164 29 -18 52 -20 225 -20 l192 0 0 -185 c0 -138 4 -194 14 -220 15 -35 81 -85 114 -85 30 0 79 28 107 61 25 30 25 31 25 230 l0 199 200 0 200 0 36 33 c47 43 57 113 24 165 -34 55 -66 62 -275 62 l-185 0 0 193 c0 216 -6 239 -73 270 -46 22 -74 21 -118 -4z" fill="url(#linear-gradient-2-2)" id="region-2-2" transform="translate(0.000000,881.000000) scale(0.100000,-0.100000)"/><path d="M1896 5140 c-172 -22 -303 -63 -466 -146 -162 -83 -303 -198 -442 -361 -115 -135 -220 -358 -264 -563 -26 -119 -27 -419 -1 -538 59 -268 162 -462 349 -657 259 -270 556 -406 923 -422 770 -33 1405 577 1405 1348 0 643 -449 1191 -1081 1319 -114 24 -320 33 -423 20z" fill="url(#linear-gradient-2-3)" id="region-2-3" transform="translate(0.000000,881.000000) scale(0.100000,-0.100000)"/><path d="M1536 1710 c-53 -16 -96 -73 -96 -127 0 -42 32 -94 71 -115 31 -17 69 -18 544 -18 488 0 511 1 542 20 89 54 83 188 -10 231 -40 17 -71 19 -532 18 -269 0 -503 -5 -519 -9z" fill="url(#linear-gradient-2-4)" id="region-2-4" transform="translate(0.000000,881.000000) scale(0.100000,-0.100000)"/><path d="M700 620 l0 -70 1350 0 1350 0 0 70 0 70 -1350 0 -1350 0 0 -70z" fill="url(#linear-gradient-2-5)" id="region-2-5" transform="translate(0.000000,881.000000) scale(0.100000,-0.100000)"/></g><g id="layer-3"><path d="M1845 4850 c-267 -56 -490 -208 -645 -439 -81 -122 -145 -300 -156 -435 -3 -39 -7 -83 -9 -98 l-4 -28 153 0 153 0 7 63 c35 313 256 567 553 633 111 24 274 16 378 -20 101 -34 204 -99 274 -170 l54 -55 -61 -17 c-34 -10 -62 -20 -61 -23 2 -15 433 -411 439 -404 10 11 141 565 135 571 -2 3 -31 -3 -63 -12 -32 -9 -63 -16 -68 -16 -5 0 -30 28 -54 61 -63 87 -194 205 -289 263 -216 130 -491 177 -736 126z" fill="url(#linear-gradient-3-1)" id="region-3-1" transform="translate(0.000000,881.000000) scale(0.100000,-0.100000)"/><path d="M590 7874 c-42 -18 -77 -49 -96 -86 -12 -23 -14 -537 -14 -3505 l0 -3478 25 -38 c47 -68 79 -77 285 -77 l180 0 0 3600 0 3600 -172 0 c-132 -1 -181 -4 -208 -16z" fill="url(#linear-gradient-3-2)" id="region-3-2" transform="translate(0.000000,881.000000) scale(0.100000,-0.100000)"/><path d="M1130 3533 c-28 -120 -60 -252 -70 -293 -11 -41 -18 -75 -17 -77 2 -1 32 6 68 17 35 11 67 20 70 20 3 0 29 -31 57 -68 131 -176 311 -300 537 -369 84 -25 102 -27 275 -27 215 0 277 13 437 89 121 57 199 113 294 211 169 175 265 387 285 628 l7 86 -157 0 -156 0 0 -48 c0 -65 -32 -188 -70 -267 -128 -269 -445 -440 -730 -396 -158 25 -277 83 -393 191 l-69 65 61 18 c34 10 61 21 59 25 -3 8 -394 380 -419 400 -15 11 -22 -9 -69 -205z" fill="url(#linear-gradient-3-3)" id="region-3-3" transform="translate(0.000000,881.000000) scale(0.100000,-0.100000)"/><path d="M700 563 c0 -71 4 -144 10 -163 14 -52 67 -109 124 -136 50 -23 57 -24 344 -24 l292 0 0 225 0 225 -385 0 -385 0 0 -127z" fill="url(#linear-gradient-3-4)" id="region-3-4" transform="translate(0.000000,881.000000) scale(0.100000,-0.100000)"/></g></svg>