<?xml version="1.0" standalone="no"?><!DOCTYPE svg PUBLIC "-//W3C//DTD SVG 20010904//EN" "http://www.w3.org/TR/2001/REC-SVG-20010904/DTD/svg10.dtd"><svg version="1.0" xmlns="http://www.w3.org/2000/svg" width="600pt" height="462pt" viewBox="0 0 600 462" preserveAspectRatio="xMidYMid meet"><defs><linearGradient id="linear-gradient-1-1" x1="0.00%" y1="100.00%" x2="76.48%" y2="-17.18%"><stop offset="0%" style="stop-color:rgb(242,89,96);stop-opacity:1.000" /><stop offset="100%" style="stop-color:rgb(160,0,0);stop-opacity:1.000" /></linearGradient><linearGradient id="linear-gradient-1-2" x1="0.00%" y1="100.00%" x2="0.00%" y2="0.00%"><stop offset="0%" style="stop-color:rgb(155,52,52);stop-opacity:1.000" /><stop offset="100%" style="stop-color:rgb(128,0,0);stop-opacity:1.000" /></linearGradient><linearGradient id="linear-gradient-1-3" x1="0.00%" y1="100.00%" x2="54.50%" y2="-30.56%"><stop offset="0%" style="stop-color:rgb(192,83,91);stop-opacity:0.995" /><stop offset="100%" style="stop-color:rgb(187,19,40);stop-opacity:1.000" /></linearGradient><linearGradient id="linear-gradient-2-1" x1="0.00%" y1="100.00%" x2="73.74%" y2="-18.08%"><stop offset="0%" style="stop-color:rgb(255,239,242);stop-opacity:0.911" /><stop offset="100%" style="stop-color:rgb(255,163,179);stop-opacity:0.467" /></linearGradient><linearGradient id="linear-gradient-2-2" x1="0.00%" y1="100.00%" x2="0.00%" y2="-0.00%"><stop offset="0%" style="stop-color:rgb(166,117,154);stop-opacity:0.345" /><stop offset="100%" style="stop-color:rgb(247,220,255);stop-opacity:0.260" /></linearGradient><linearGradient id="linear-gradient-2-3" x1="0.00%" y1="100.00%" x2="181.69%" y2="19.59%"><stop offset="0%" style="stop-color:rgb(187,85,103);stop-opacity:0.820" /><stop offset="100%" style="stop-color:rgb(197,20,45);stop-opacity:0.751" /></linearGradient><linearGradient id="linear-gradient-2-4" x1="0.00%" y1="100.00%" x2="0.00%" y2="0.00%"><stop offset="0%" style="stop-color:rgb(186,131,131);stop-opacity:0.552" /><stop offset="100%" style="stop-color:rgb(220,138,165);stop-opacity:0.424" /></linearGradient><linearGradient id="linear-gradient-2-5" x1="0.00%" y1="100.00%" x2="0.00%" y2="-0.00%"><stop offset="0%" style="stop-color:rgb(55,0,0);stop-opacity:0.736" /><stop offset="100%" style="stop-color:rgb(20,104,60);stop-opacity:0.486" /></linearGradient><linearGradient id="linear-gradient-2-6" x1="0.00%" y1="100.00%" x2="100.07%" y2="0.98%"><stop offset="0%" style="stop-color:rgb(191,0,0);stop-opacity:0.614" /><stop offset="100%" style="stop-color:rgb(94,8,13);stop-opacity:0.816" /></linearGradient><linearGradient id="linear-gradient-3-1" x1="0.00%" y1="100.00%" x2="122.17%" y2="23.55%"><stop offset="0%" style="stop-color:rgb(78,0,0);stop-opacity:0.556" /><stop offset="100%" style="stop-color:rgb(0,44,45);stop-opacity:1.000" /></linearGradient></defs><g id="layer-1"><path d="M4190 3831 c-318 -321 -354 -358 -500 -531 -40 -47 -91 -106 -114 -131 -99 -112 -142 -162 -156 -183 -8 -12 -25 -33 -36 -46 -148 -171 -363 -420 -417 -484 -115 -135 -279 -299 -362 -360 -22 -17 -42 -33 -45 -36 -3 -3 -23 -17 -45 -30 -22 -13 -42 -26 -45 -29 -10 -11 -125 -71 -235 -122 -85 -39 -146 -51 -296 -58 -127 -6 -162 -11 -195 -27 -21 -11 -59 -26 -84 -32 -25 -6 -56 -14 -70 -17 -14 -4 -160 -10 -325 -14 -282 -8 -303 -10 -348 -31 -63 -30 -101 -77 -126 -159 -23 -73 -28 -134 -17 -198 6 -34 12 -43 28 -43 20 0 124 -19 354 -66 303 -61 828 -142 1094 -169 85 -8 229 -17 320 -18 188 -2 215 4 330 79 152 100 197 143 282 272 33 50 67 92 74 92 7 0 21 14 30 31 23 45 112 164 228 307 56 67 110 135 121 150 11 15 55 61 99 102 43 41 84 81 91 87 7 7 44 38 82 68 37 31 99 82 137 113 39 31 82 64 97 72 40 22 138 83 266 167 61 40 118 73 125 73 8 0 23 7 34 15 10 8 25 15 31 15 15 0 119 65 147 92 11 10 29 21 40 24 22 7 49 36 71 77 9 15 23 27 31 27 9 0 33 9 53 19 20 11 44 22 53 25 46 14 66 160 41 306 -27 157 -98 321 -263 606 -128 221 -187 295 -237 294 -10 -1 -159 -143 -343 -329z" fill="url(#linear-gradient-1-1)" id="region-1-1" transform="translate(0.000000,462.000000) scale(0.100000,-0.100000)"/><path d="M4935 2929 c-16 -10 -38 -19 -47 -19 -10 0 -24 -12 -33 -27 -22 -41 -49 -70 -71 -77 -11 -3 -29 -14 -40 -24 -28 -27 -132 -92 -147 -92 -6 0 -21 -7 -31 -15 -11 -8 -26 -15 -33 -15 -8 0 -67 -34 -131 -76 -64 -41 -145 -93 -180 -115 l-63 -39 40 -52 c54 -72 104 -182 142 -313 17 -60 38 -130 46 -155 27 -86 33 -116 43 -215 5 -55 14 -138 20 -185 20 -162 38 -386 55 -675 17 -287 18 -290 43 -318 39 -41 89 -33 115 21 11 22 12 56 4 177 -14 229 -14 956 1 1110 33 336 105 603 251 931 39 88 71 168 71 177 0 22 -17 21 -55 -4z" fill="url(#linear-gradient-1-2)" id="region-1-2" transform="translate(0.000000,462.000000) scale(0.100000,-0.100000)"/><path d="M4062 2363 c-158 -128 -218 -178 -233 -193 -9 -8 -52 -49 -95 -90 -43 -41 -88 -87 -99 -102 -11 -15 -65 -83 -121 -150 -116 -143 -205 -262 -228 -307 -9 -17 -23 -31 -30 -31 -7 0 -41 -42 -74 -92 -85 -129 -130 -172 -282 -272 -115 -75 -142 -81 -330 -79 -91 1 -235 10 -320 18 -266 27 -791 108 -1094 169 -345 70 -369 73 -395 57 -20 -13 31 -318 56 -336 15 -11 16 -18 7 -44 -11 -28 -10 -31 25 -55 68 -46 382 -181 686 -294 393 -146 696 -210 927 -194 102 7 124 12 185 42 116 56 223 181 371 429 66 111 242 461 242 481 0 9 9 29 20 43 11 14 32 51 46 82 36 78 105 184 147 223 9 9 17 22 17 28 0 7 7 14 15 18 8 3 15 10 15 16 0 9 8 19 58 73 9 11 16 23 15 28 -2 5 8 16 22 25 14 9 25 22 25 30 0 7 16 26 35 41 19 15 35 33 35 39 0 10 122 131 246 243 165 149 219 211 186 211 -5 0 -41 -26 -80 -57z" fill="url(#linear-gradient-1-3)" id="region-1-3" transform="translate(0.000000,462.000000) scale(0.100000,-0.100000)"/></g><g id="layer-2"><path d="M4190 3831 c-318 -321 -354 -358 -500 -531 -40 -47 -91 -106 -114 -131 -99 -112 -142 -162 -156 -183 -8 -12 -25 -33 -36 -46 -148 -171 -363 -420 -417 -484 -115 -135 -279 -299 -362 -360 -22 -17 -42 -33 -45 -36 -3 -3 -23 -17 -45 -30 -22 -13 -42 -26 -45 -29 -10 -11 -125 -71 -235 -122 -55 -25 -146 -50 -207 -56 -43 -4 -68 -10 -68 -18 0 -15 -121 -87 -174 -105 -118 -38 -152 -42 -476 -48 -179 -4 -331 -11 -338 -15 -18 -12 34 -82 75 -102 52 -25 215 -87 264 -100 119 -32 702 58 879 136 76 34 117 83 134 161 10 46 63 95 144 134 42 21 79 41 82 44 3 3 17 11 33 19 15 8 27 18 27 23 0 4 4 8 9 8 5 0 20 9 33 20 12 10 59 49 103 86 120 99 186 164 337 329 75 83 168 179 205 215 37 36 67 68 65 73 -1 4 2 7 8 7 5 0 10 7 10 15 0 8 4 15 10 15 5 0 12 11 16 25 3 14 10 25 15 25 5 0 9 5 9 10 0 22 80 88 126 105 27 9 65 24 84 33 19 8 49 21 65 27 34 14 336 163 470 232 50 25 99 49 110 53 11 4 40 17 65 28 25 12 102 37 170 57 126 36 157 53 162 90 2 11 6 25 10 30 13 21 0 171 -20 223 -11 28 -19 52 -17 52 2 0 -3 16 -11 35 -8 19 -14 37 -14 40 0 3 0 6 -1 8 0 1 -2 10 -5 20 -5 23 -9 35 -22 82 -6 22 -14 55 -17 74 -3 18 -12 45 -19 60 -12 22 -12 30 1 55 11 22 12 34 4 52 -23 52 -43 36 -381 -305z" fill="url(#linear-gradient-2-1)" id="region-2-1" transform="translate(0.000000,462.000000) scale(0.100000,-0.100000)"/><path d="M4755 2885 c-16 -7 -80 -29 -142 -49 -284 -91 -486 -186 -612 -289 -104 -85 -477 -460 -580 -582 -112 -134 -153 -198 -195 -302 -56 -136 -175 -297 -266 -359 -19 -13 -53 -36 -75 -51 -91 -64 -134 -75 -315 -80 -85 -2 -175 -5 -200 -5 -25 -1 -74 2 -110 6 -36 5 -101 10 -145 12 -194 8 -411 30 -545 54 -184 32 -361 65 -467 86 -176 35 -323 31 -323 -7 0 -13 7 -19 21 -19 21 0 123 -19 355 -66 303 -61 828 -142 1094 -169 85 -8 229 -17 320 -18 188 -2 215 4 330 79 152 100 197 143 282 272 33 50 67 92 74 92 7 0 21 14 30 31 23 45 112 164 228 307 56 67 110 135 121 150 11 15 55 61 99 102 43 41 84 81 91 87 7 7 44 38 82 68 37 31 99 82 137 113 39 31 82 64 97 72 40 22 138 83 266 167 61 40 118 73 125 73 8 0 23 7 34 15 10 8 25 15 31 15 15 0 119 65 148 92 11 10 29 21 40 24 20 6 60 49 71 78 5 13 -1 16 -32 15 -22 0 -52 -6 -69 -14z" fill="url(#linear-gradient-2-2)" id="region-2-2" transform="translate(0.000000,462.000000) scale(0.100000,-0.100000)"/><path d="M4760 2793 c-14 -9 -27 -20 -30 -23 -10 -13 -121 -80 -133 -80 -6 0 -21 -7 -31 -15 -11 -8 -26 -15 -34 -15 -7 0 -65 -34 -129 -76 l-115 -75 26 -28 c14 -15 26 -37 26 -49 0 -13 7 -25 16 -29 8 -3 13 -11 10 -19 -3 -7 0 -14 5 -16 5 -2 11 -13 12 -26 0 -12 6 -22 11 -22 5 0 6 -3 3 -7 -4 -3 -3 -11 2 -17 5 -6 16 -45 24 -86 15 -76 20 -116 58 -470 21 -205 35 -251 54 -183 6 21 17 38 24 38 8 0 15 7 16 15 2 8 6 35 9 60 4 25 9 57 12 72 3 15 7 39 9 55 2 15 7 39 10 53 3 14 14 102 25 195 11 94 22 183 25 200 12 61 72 260 136 448 23 69 27 92 18 103 -15 18 -29 18 -59 -3z" fill="url(#linear-gradient-2-3)" id="region-2-3" transform="translate(0.000000,462.000000) scale(0.100000,-0.100000)"/><path d="M4188 2449 l-28 -20 39 -52 c69 -93 139 -264 173 -421 14 -68 27 -93 39 -75 14 23 -21 209 -61 323 -11 33 -20 67 -20 76 0 19 -64 146 -88 173 -19 21 -21 21 -54 -4z" fill="url(#linear-gradient-2-4)" id="region-2-4" transform="translate(0.000000,462.000000) scale(0.100000,-0.100000)"/><path d="M4062 2363 c-158 -128 -218 -178 -233 -193 -9 -8 -52 -49 -95 -90 -43 -41 -88 -87 -99 -102 -11 -15 -65 -83 -121 -150 -167 -204 -255 -331 -240 -346 3 -3 -5 -19 -17 -36 -13 -17 -29 -53 -37 -81 -7 -27 -20 -58 -28 -67 -8 -10 -16 -29 -17 -42 -3 -22 -46 -116 -83 -181 -50 -88 -153 -267 -172 -297 -12 -21 -27 -38 -33 -38 -6 0 -7 -3 -4 -6 4 -4 -6 -23 -22 -43 -15 -20 -34 -46 -40 -59 -19 -36 -131 -146 -173 -170 -79 -45 -123 -51 -294 -41 -88 6 -181 14 -209 20 -27 5 -87 16 -132 24 -80 15 -258 65 -298 85 -24 11 -272 100 -280 100 -3 0 -29 12 -58 26 -28 14 -61 27 -72 29 -50 8 -356 147 -429 194 -37 25 -39 25 -52 6 -13 -17 -12 -22 8 -38 50 -40 363 -177 671 -293 412 -156 723 -222 959 -206 102 7 124 12 185 42 116 56 223 181 371 429 66 111 242 461 242 481 0 9 9 29 20 43 11 14 32 51 46 82 36 78 105 184 147 223 9 9 17 22 17 28 0 7 7 14 15 18 8 3 15 10 15 16 0 9 8 19 58 73 9 11 16 23 15 28 -2 5 8 16 22 25 14 9 25 22 25 30 0 7 16 26 35 41 19 15 35 33 35 39 0 10 122 131 246 243 165 149 219 211 186 211 -5 0 -41 -26 -80 -57z" fill="url(#linear-gradient-2-5)" id="region-2-5" transform="translate(0.000000,462.000000) scale(0.100000,-0.100000)"/><path d="M3182 1398 c-85 -129 -130 -172 -282 -272 -115 -75 -142 -81 -330 -79 -91 1 -235 10 -320 18 -266 27 -791 108 -1094 169 -344 70 -369 73 -394 57 -11 -7 -11 -23 -2 -89 7 -45 16 -80 20 -77 13 8 18 58 9 83 -5 14 -8 27 -5 29 2 3 29 0 60 -7 31 -6 58 -11 61 -11 2 0 23 -6 46 -14 22 -8 43 -14 47 -13 4 1 18 -1 32 -5 14 -3 57 -10 95 -16 39 -6 88 -13 110 -17 22 -3 49 -7 60 -9 43 -7 91 -16 105 -20 8 -2 35 -7 60 -10 25 -3 52 -8 61 -11 10 -2 30 -7 45 -9 73 -11 107 -15 139 -20 19 -2 50 -6 67 -9 18 -3 56 -8 83 -10 28 -3 57 -7 65 -10 8 -3 40 -7 70 -10 30 -3 84 -10 120 -15 180 -27 576 -37 611 -16 5 4 19 8 31 11 38 9 53 12 56 14 1 2 5 3 10 4 4 1 18 8 32 15 14 8 35 15 47 17 29 3 124 69 208 145 89 80 99 93 115 154 7 28 24 64 37 81 22 30 22 44 -2 44 -7 0 -40 -42 -73 -92z" fill="url(#linear-gradient-2-6)" id="region-2-6" transform="translate(0.000000,462.000000) scale(0.100000,-0.100000)"/></g><g id="layer-3"><path d="M4109 3751 c-244 -248 -283 -291 -419 -451 -40 -47 -91 -106 -114 -131 -99 -112 -142 -162 -156 -183 -8 -12 -25 -33 -36 -46 -148 -171 -363 -420 -417 -484 -115 -135 -279 -299 -362 -360 -22 -17 -42 -33 -45 -36 -3 -3 -23 -17 -45 -30 -22 -13 -42 -26 -45 -29 -10 -11 -125 -71 -235 -122 -43 -20 -139 -49 -162 -49 -12 0 -23 -4 -23 -9 0 -46 280 6 444 83 217 101 621 500 931 921 48 66 101 136 117 155 16 19 32 40 36 45 4 6 91 111 192 235 163 197 221 263 393 445 21 22 78 92 127 156 71 93 87 119 76 128 -10 8 -67 -45 -257 -238z" fill="url(#linear-gradient-3-1)" id="region-3-1" transform="translate(0.000000,462.000000) scale(0.100000,-0.100000)"/></g></svg>