<?xml version="1.0" standalone="no"?>
<!DOCTYPE svg PUBLIC "-//W3C//DTD SVG 20010904//EN"
 "http://www.w3.org/TR/2001/REC-SVG-20010904/DTD/svg10.dtd">
<svg version="1.0" xmlns="http://www.w3.org/2000/svg"
 width="582.000000pt" height="449.000000pt" viewBox="0 0 582.000000 449.000000"
 preserveAspectRatio="xMidYMid meet">
<defs>
<linearGradient id="grad_0" x1="0%" y1="100%" x2="100%" y2="100%">
<stop offset="0%" style="stop-color:rgb(254, 254, 254); stop-opacity:1"/>
<stop offset="100%" style="stop-color:rgb(254, 254, 254); stop-opacity:1"/>
</linearGradient>
<linearGradient id="grad_1" x1="0%" y1="78%" x2="100%" y2="78%">
<stop offset="0%" style="stop-color:rgb(114, 85, 42); stop-opacity:1"/>
<stop offset="100%" style="stop-color:rgb(114, 85, 42); stop-opacity:1"/>
</linearGradient>
<linearGradient id="grad_2" x1="10%" y1="1%" x2="34%" y2="110%">
<stop offset="0%" style="stop-color:rgb(248, 226, 148); stop-opacity:1"/>
<stop offset="100%" style="stop-color:rgb(252, 236, 167); stop-opacity:1"/>
</linearGradient>
<linearGradient id="grad_3" x1="0%" y1="15%" x2="100%" y2="15%">
<stop offset="0%" style="stop-color:rgb(217, 167, 89); stop-opacity:1"/>
<stop offset="100%" style="stop-color:rgb(217, 167, 89); stop-opacity:1"/>
</linearGradient>
<linearGradient id="grad_4" x1="0%" y1="57%" x2="100%" y2="57%">
<stop offset="0%" style="stop-color:rgb(125, 113, 91); stop-opacity:1"/>
<stop offset="100%" style="stop-color:rgb(125, 113, 91); stop-opacity:1"/>
</linearGradient>
<linearGradient id="grad_5" x1="0%" y1="14%" x2="100%" y2="14%">
<stop offset="0%" style="stop-color:rgb(120, 108, 86); stop-opacity:1"/>
<stop offset="100%" style="stop-color:rgb(120, 108, 86); stop-opacity:1"/>
</linearGradient>
<linearGradient id="grad_6" x1="0%" y1="100%" x2="100%" y2="100%">
<stop offset="0%" style="stop-color:rgb(128, 116, 95); stop-opacity:1"/>
<stop offset="100%" style="stop-color:rgb(128, 116, 95); stop-opacity:1"/>
</linearGradient>
<linearGradient id="grad_7" x1="0%" y1="61%" x2="100%" y2="61%">
<stop offset="0%" style="stop-color:rgb(248, 229, 156); stop-opacity:1"/>
<stop offset="100%" style="stop-color:rgb(248, 229, 156); stop-opacity:1"/>
</linearGradient>
<linearGradient id="grad_8" x1="0%" y1="64%" x2="100%" y2="64%">
<stop offset="0%" style="stop-color:rgb(217, 167, 89); stop-opacity:1"/>
<stop offset="100%" style="stop-color:rgb(217, 167, 89); stop-opacity:1"/>
</linearGradient>
<linearGradient id="grad_9" x1="0%" y1="5%" x2="100%" y2="5%">
<stop offset="0%" style="stop-color:rgb(217, 167, 89); stop-opacity:1"/>
<stop offset="100%" style="stop-color:rgb(217, 167, 89); stop-opacity:1"/>
</linearGradient>
<linearGradient id="grad_10" x1="0%" y1="89%" x2="100%" y2="89%">
<stop offset="0%" style="stop-color:rgb(217, 167, 89); stop-opacity:1"/>
<stop offset="100%" style="stop-color:rgb(217, 167, 89); stop-opacity:1"/>
</linearGradient>
<linearGradient id="grad_11" x1="0%" y1="90%" x2="100%" y2="90%">
<stop offset="0%" style="stop-color:rgb(217, 167, 89); stop-opacity:1"/>
<stop offset="100%" style="stop-color:rgb(217, 167, 89); stop-opacity:1"/>
</linearGradient>
<linearGradient id="grad_12" x1="2%" y1="21%" x2="98%" y2="64%">
<stop offset="0%" style="stop-color:rgb(253, 247, 224); stop-opacity:1"/>
<stop offset="100%" style="stop-color:rgb(254, 248, 226); stop-opacity:1"/>
</linearGradient>
<linearGradient id="grad_13" x1="20%" y1="0%" x2="27%" y2="101%">
<stop offset="0%" style="stop-color:rgb(224, 33, 38); stop-opacity:1"/>
<stop offset="100%" style="stop-color:rgb(242, 107, 127); stop-opacity:1"/>
</linearGradient>
<linearGradient id="grad_14" x1="0%" y1="89%" x2="100%" y2="89%">
<stop offset="0%" style="stop-color:rgb(217, 167, 89); stop-opacity:1"/>
<stop offset="100%" style="stop-color:rgb(217, 167, 89); stop-opacity:1"/>
</linearGradient>
<linearGradient id="grad_15" x1="0%" y1="59%" x2="100%" y2="59%">
<stop offset="0%" style="stop-color:rgb(171, 255, 255); stop-opacity:0.147375"/>
<stop offset="100%" style="stop-color:rgb(171, 255, 255); stop-opacity:0.147375"/>
</linearGradient>
<linearGradient id="grad_16" x1="0%" y1="78%" x2="100%" y2="78%">
<stop offset="0%" style="stop-color:rgb(255, 190, 94); stop-opacity:0.763453"/>
<stop offset="100%" style="stop-color:rgb(255, 190, 94); stop-opacity:0.763453"/>
</linearGradient>
<linearGradient id="grad_17" x1="0%" y1="93%" x2="100%" y2="93%">
<stop offset="0%" style="stop-color:rgb(0, 0, 0); stop-opacity:0.511845"/>
<stop offset="100%" style="stop-color:rgb(0, 0, 0); stop-opacity:0.511845"/>
</linearGradient>
<linearGradient id="grad_18" x1="0%" y1="65%" x2="100%" y2="65%">
<stop offset="0%" style="stop-color:rgb(0, 0, 0); stop-opacity:0.468554"/>
<stop offset="100%" style="stop-color:rgb(0, 0, 0); stop-opacity:0.468554"/>
</linearGradient>
<linearGradient id="grad_19" x1="0%" y1="26%" x2="100%" y2="26%">
<stop offset="0%" style="stop-color:rgb(0, 0, 0); stop-opacity:0.542881"/>
<stop offset="100%" style="stop-color:rgb(0, 0, 0); stop-opacity:0.542881"/>
</linearGradient>
<linearGradient id="grad_20" x1="0%" y1="58%" x2="100%" y2="58%">
<stop offset="0%" style="stop-color:rgb(255, 190, 94); stop-opacity:0.423278"/>
<stop offset="100%" style="stop-color:rgb(255, 190, 94); stop-opacity:0.423278"/>
</linearGradient>
<linearGradient id="grad_21" x1="0%" y1="6%" x2="100%" y2="6%">
<stop offset="0%" style="stop-color:rgb(0, 0, 0); stop-opacity:0.556365"/>
<stop offset="100%" style="stop-color:rgb(0, 0, 0); stop-opacity:0.556365"/>
</linearGradient>
<linearGradient id="grad_22" x1="0%" y1="16%" x2="100%" y2="16%">
<stop offset="0%" style="stop-color:rgb(0, 0, 0); stop-opacity:0.576581"/>
<stop offset="100%" style="stop-color:rgb(0, 0, 0); stop-opacity:0.576581"/>
</linearGradient>
<linearGradient id="grad_23" x1="0%" y1="75%" x2="100%" y2="75%">
<stop offset="0%" style="stop-color:rgb(0, 0, 0); stop-opacity:0.522248"/>
<stop offset="100%" style="stop-color:rgb(0, 0, 0); stop-opacity:0.522248"/>
</linearGradient>
<linearGradient id="grad_24" x1="0%" y1="58%" x2="100%" y2="58%">
<stop offset="0%" style="stop-color:rgb(255, 190, 94); stop-opacity:0.418549"/>
<stop offset="100%" style="stop-color:rgb(255, 190, 94); stop-opacity:0.418549"/>
</linearGradient>
<linearGradient id="grad_25" x1="0%" y1="66%" x2="100%" y2="66%">
<stop offset="0%" style="stop-color:rgb(0, 0, 0); stop-opacity:0.521625"/>
<stop offset="100%" style="stop-color:rgb(0, 0, 0); stop-opacity:0.521625"/>
</linearGradient>
<linearGradient id="grad_26" x1="0%" y1="59%" x2="100%" y2="59%">
<stop offset="0%" style="stop-color:rgb(0, 0, 0); stop-opacity:0.478074"/>
<stop offset="100%" style="stop-color:rgb(0, 0, 0); stop-opacity:0.478074"/>
</linearGradient>
<linearGradient id="grad_27" x1="0%" y1="14%" x2="100%" y2="14%">
<stop offset="0%" style="stop-color:rgb(0, 0, 0); stop-opacity:0.565303"/>
<stop offset="100%" style="stop-color:rgb(0, 0, 0); stop-opacity:0.565303"/>
</linearGradient>
<linearGradient id="grad_28" x1="0%" y1="19%" x2="100%" y2="19%">
<stop offset="0%" style="stop-color:rgb(0, 0, 0); stop-opacity:0.580205"/>
<stop offset="100%" style="stop-color:rgb(0, 0, 0); stop-opacity:0.580205"/>
</linearGradient>
<linearGradient id="grad_29" x1="0%" y1="93%" x2="100%" y2="93%">
<stop offset="0%" style="stop-color:rgb(0, 0, 0); stop-opacity:0.533239"/>
<stop offset="100%" style="stop-color:rgb(0, 0, 0); stop-opacity:0.533239"/>
</linearGradient>
</defs>
<g transform="translate(0.000000,449.000000) scale(0.100000,-0.100000)"
fill="url(#grad_0)" stroke="none">
<g>
<path d="M0 2245 l0 -2245 2910 0 2910 0 0 2245 0 2245 -2910 0 -2910 0 0
-2245z"/>
</g>
</g>
<g transform="translate(0.000000,449.000000) scale(0.100000,-0.100000)"
fill="url(#grad_1)" stroke="none">
<g>
<path d="M1552 4460 c-23 -10 -67 -43 -98 -72 l-56 -53 -167 3 c-199 5 -311
-11 -481 -69 l-115 -38 -45 43 c-76 74 -120 91 -230 91 -79 0 -102 -4 -136
-22 -94 -50 -144 -114 -170 -215 -23 -90 -1 -202 55 -268 l28 -34 -37 -81
c-21 -44 -49 -118 -64 -163 -24 -77 -26 -96 -26 -270 0 -396 65 -573 359 -981
167 -232 213 -336 350 -787 156 -518 259 -801 378 -1039 140 -281 256 -409
429 -471 55 -20 84 -24 188 -24 146 0 198 15 321 89 253 154 436 209 725 218
148 4 193 2 296 -15 211 -36 352 -90 524 -198 126 -79 178 -94 326 -94 198 0
283 40 451 213 167 172 334 412 462 666 87 173 117 249 151 386 46 181 80 469
80 676 l0 89 48 0 c119 1 268 60 401 161 155 116 239 243 286 433 23 91 25
117 25 327 0 236 -6 290 -51 444 -71 241 -199 371 -345 351 -61 -8 -105 -36
-132 -84 -29 -51 -28 -78 8 -252 38 -184 40 -306 8 -400 -18 -55 -33 -77 -102
-146 -65 -65 -92 -85 -135 -99 -60 -19 -118 -16 -157 10 -26 17 -32 25 -133
180 -271 414 -735 576 -1532 535 -280 -14 -482 -9 -575 16 -126 32 -199 90
-384 299 -73 83 -154 173 -180 200 -46 48 -48 53 -53 120 -8 100 -39 174 -100
242 -75 82 -126 103 -252 103 -77 0 -110 -5 -143 -20z"/>
</g>
</g>
<g transform="translate(0.000000,449.000000) scale(0.100000,-0.100000)"
fill="url(#grad_2)" stroke="none">
<g>
<path d="M2893 1980 c-23 -5 -55 -15 -70 -24 -38 -19 -101 -89 -108 -119 -6
-24 -8 -24 -101 -19 -74 4 -104 1 -140 -13 -90 -34 -147 -106 -160 -202 l-6
-50 -62 -5 c-142 -12 -229 -103 -230 -243 0 -81 23 -135 76 -180 103 -87 231
-94 443 -23 165 55 265 71 435 72 171 1 258 -13 427 -65 137 -42 233 -55 304
-40 138 29 219 120 219 245 0 144 -104 246 -250 246 l-47 0 -6 51 c-12 98 -84
182 -182 209 -44 12 -142 10 -191 -5 -17 -5 -23 -2 -27 18 -10 37 -82 113
-125 130 -50 20 -145 28 -199 17z"/>
</g>
</g>
<g transform="translate(0.000000,449.000000) scale(0.100000,-0.100000)"
fill="url(#grad_3)" stroke="none">
<g>
<path d="M3232 1587 c-12 -12 -28 -43 -37 -67 -22 -62 -55 -200 -55 -230 l1
-25 24 30 c37 45 136 245 133 268 -2 11 -12 26 -24 33 -18 13 -23 11 -42 -9z"/>
</g>
</g>
<g transform="translate(0.000000,449.000000) scale(0.100000,-0.100000)"
fill="url(#grad_4)" stroke="none">
<g>
<path d="M293 2911 c-9 -13 -1 -19 51 -38 72 -27 86 -28 86 -8 0 16 -37 38
-91 53 -29 8 -38 7 -46 -7z"/>
</g>
</g>
<g transform="translate(0.000000,449.000000) scale(0.100000,-0.100000)"
fill="url(#grad_5)" stroke="none">
<g>
<path d="M1010 2953 c-54 -9 -119 -35 -124 -50 -10 -26 2 -28 61 -8 31 11 76
20 99 20 l43 0 -21 23 c-12 12 -24 21 -27 21 -3 -1 -17 -4 -31 -6z"/>
</g>
</g>
<g transform="translate(0.000000,449.000000) scale(0.100000,-0.100000)"
fill="url(#grad_6)" stroke="none">
<g>
<path d="M910 2815 c0 -9 6 -17 13 -19 6 -2 35 -9 62 -15 28 -7 67 -23 87 -36
36 -24 37 -24 43 -4 8 25 -11 41 -83 69 -64 24 -122 27 -122 5z"/>
</g>
</g>
<g transform="translate(0.000000,449.000000) scale(0.100000,-0.100000)"
fill="url(#grad_7)" stroke="none">
<g>
<path d="M3990 2232 c-32 -17 -60 -57 -74 -104 -4 -13 -16 -18 -46 -18 -140 0
-200 -166 -95 -259 35 -30 35 -31 23 -75 -10 -40 -10 -51 8 -93 26 -64 70 -93
139 -93 38 0 61 6 87 24 l34 23 28 -23 c21 -19 39 -24 83 -24 67 0 114 25 137
74 18 38 21 108 7 135 -8 14 -4 21 21 35 32 20 68 85 68 126 0 77 -72 150
-147 150 -37 0 -40 2 -60 49 -26 62 -69 91 -133 91 -25 0 -61 -8 -80 -18z"/>
</g>
</g>
<g transform="translate(0.000000,449.000000) scale(0.100000,-0.100000)"
fill="url(#grad_8)" stroke="none">
<g>
<path d="M4041 2086 c-12 -14 -5 -46 10 -46 5 0 9 -27 9 -61 0 -49 -3 -60 -14
-56 -8 3 -33 11 -55 17 -22 6 -46 20 -52 31 -15 30 -54 22 -54 -11 0 -22 4
-25 35 -23 32 2 130 -23 130 -33 0 -16 -65 -90 -83 -94 -15 -4 -22 -14 -22
-30 0 -20 5 -25 25 -25 20 0 26 6 28 29 4 30 48 106 62 106 14 0 72 -80 67
-92 -7 -20 12 -48 33 -48 19 0 36 32 25 50 -3 5 -15 10 -25 10 -16 0 -80 75
-80 93 0 13 99 37 127 31 23 -4 32 -2 37 11 7 20 -10 45 -30 45 -7 0 -19 -8
-26 -18 -10 -14 -94 -52 -115 -52 -2 0 -3 26 -3 57 0 38 5 62 16 75 14 14 14
20 4 33 -16 19 -34 19 -49 1z"/>
</g>
</g>
<g transform="translate(0.000000,449.000000) scale(0.100000,-0.100000)"
fill="url(#grad_9)" stroke="none">
<g>
<path d="M3409 1373 c-69 -73 -114 -131 -106 -139 6 -7 177 109 205 139 30 31
26 61 -8 65 -21 2 -39 -11 -91 -65z"/>
</g>
</g>
<g transform="translate(0.000000,449.000000) scale(0.100000,-0.100000)"
fill="url(#grad_10)" stroke="none">
<g>
<path d="M2410 1425 c-19 -23 -2 -53 53 -94 73 -55 157 -104 164 -97 9 9 -107
146 -151 178 -45 32 -49 33 -66 13z"/>
</g>
</g>
<g transform="translate(0.000000,449.000000) scale(0.100000,-0.100000)"
fill="url(#grad_11)" stroke="none">
<g>
<path d="M2646 1584 c-19 -19 -14 -48 22 -119 20 -41 104 -179 118 -194 37
-40 -37 252 -77 303 -23 30 -41 33 -63 10z"/>
</g>
</g>
<g transform="translate(0.000000,449.000000) scale(0.100000,-0.100000)"
fill="url(#grad_12)" stroke="none">
<g>
<path d="M790 3036 c-33 -47 -68 -69 -121 -74 -60 -6 -100 10 -140 55 l-30 35
-54 -22 c-53 -21 -135 -83 -135 -101 0 -5 8 -9 18 -9 30 -1 102 -39 102 -55 0
-20 -12 -19 -82 7 -70 25 -78 20 -86 -48 -5 -44 -3 -47 14 -39 10 4 43 10 72
13 42 4 52 2 52 -11 0 -9 -13 -18 -32 -22 -81 -16 -99 -26 -92 -48 10 -34 52
-86 82 -101 37 -18 100 -27 144 -20 24 4 53 22 87 53 50 46 52 47 68 28 10
-10 44 -32 76 -48 112 -55 263 -33 341 49 16 17 26 37 23 45 -7 20 -85 56
-138 65 -31 5 -45 13 -47 26 -4 17 1 18 45 14 40 -4 74 -16 157 -56 5 -3 7 21
4 52 -6 77 -28 100 -86 92 -24 -3 -66 -14 -93 -23 -51 -18 -63 -16 -53 10 6
17 83 47 120 47 80 0 -19 71 -148 105 -47 13 -47 13 -68 -19z"/>
</g>
</g>
<g transform="translate(0.000000,449.000000) scale(0.100000,-0.100000)"
fill="url(#grad_13)" stroke="none">
<g>
<path d="M592 2653 l-43 -41 23 -16 c29 -21 119 -21 158 -1 17 9 30 18 30 20
0 3 -17 12 -37 20 -21 9 -49 26 -63 38 l-25 22 -43 -42z"/>
</g>
</g>
<g transform="translate(0.000000,449.000000) scale(0.100000,-0.100000)"
fill="url(#grad_14)" stroke="none">
<g>
<path d="M2932 1665 c-7 -14 -12 -49 -12 -78 1 -97 36 -305 50 -291 27 30 53
332 31 372 -16 31 -55 29 -69 -3z"/>
</g>
</g>
<g transform="translate(0.000000,449.000000) scale(0.100000,-0.100000)"
fill="url(#grad_15)" stroke="none">
<g>
<path d="M288 2788 c-29 -10 -32 -16 -20 -34 10 -17 132 14 132 32 0 17 -70
18 -112 2z"/>
</g>
</g>
<g transform="translate(0.000000,449.000000) scale(0.100000,-0.100000)"
fill="url(#grad_16)" stroke="none">
<g>
<path d="M1552 4460 c-23 -10 -67 -43 -98 -72 l-56 -53 -167 3 c-199 5 -311
-11 -481 -69 l-115 -38 -45 43 c-76 74 -120 91 -230 91 -79 0 -102 -4 -136
-22 -94 -50 -144 -114 -170 -215 -23 -90 -1 -202 55 -268 l28 -34 -37 -81
c-21 -44 -49 -118 -64 -163 -24 -77 -26 -96 -26 -270 0 -253 31 -426 104 -570
26 -52 35 -62 40 -47 3 11 28 35 56 54 40 27 50 40 50 62 0 15 4 39 10 53 9
25 9 26 -35 26 -24 0 -46 4 -50 9 -9 15 30 31 75 31 34 0 50 7 86 39 24 21 68
49 98 60 l53 22 -5 49 c-2 27 -2 61 2 75 19 76 221 102 297 38 28 -24 30 -30
28 -86 l-3 -61 45 -12 c60 -15 114 -39 152 -66 17 -13 49 -28 71 -33 44 -12
59 -34 28 -42 -18 -4 -19 -7 -6 -31 8 -15 14 -48 14 -73 0 -33 6 -51 20 -64
11 -10 20 -24 20 -31 0 -21 -21 -27 -37 -11 -13 13 -19 11 -49 -23 -55 -61
-118 -82 -233 -79 -61 2 -104 -1 -118 -9 -30 -17 -124 -15 -149 2 -16 11 -30
12 -60 5 -45 -10 -117 -2 -156 17 -28 15 -78 73 -78 92 0 25 -24 23 -63 -5
-23 -17 -48 -32 -55 -34 -17 -6 51 -120 183 -304 59 -82 125 -180 147 -217 63
-107 130 -283 227 -604 156 -518 259 -801 378 -1039 140 -281 256 -409 429
-471 55 -20 84 -24 188 -24 146 0 198 15 321 89 253 154 436 209 725 218 148
4 193 2 296 -15 211 -36 352 -90 524 -198 126 -79 178 -94 326 -94 198 0 283
40 451 213 167 172 334 412 462 666 87 173 117 249 151 386 46 181 80 469 80
676 l0 89 48 0 c119 1 268 60 401 161 155 116 239 243 286 433 23 91 25 117
25 327 0 236 -6 290 -51 444 -71 241 -199 371 -345 351 -61 -8 -105 -36 -132
-84 -25 -45 -27 -87 -10 -162 9 -40 15 -49 27 -45 9 4 64 9 123 12 104 6 109
5 147 -20 96 -64 87 -213 -16 -265 -46 -24 -129 -42 -188 -42 -44 0 -45 -1
-45 -33 0 -39 -30 -133 -55 -170 -16 -25 -16 -26 45 -99 87 -103 130 -183 130
-242 0 -65 -21 -100 -76 -126 -125 -61 -308 39 -403 221 -19 35 -49 77 -67 92
-19 16 -52 58 -73 95 -58 99 -119 179 -197 254 -60 59 -154 136 -154 126 0 -1
6 -34 14 -73 46 -223 17 -487 -73 -681 -53 -112 -82 -148 -143 -174 -145 -62
-278 -13 -278 103 0 12 16 62 35 109 49 119 73 222 86 358 13 140 -1 352 -30
455 -11 38 -17 73 -15 77 3 4 2 8 -1 8 -3 0 -56 9 -118 19 -62 11 -130 21
-152 24 l-40 4 22 -89 c87 -344 27 -777 -144 -1033 -48 -74 -112 -107 -215
-113 -69 -4 -84 -2 -133 22 -41 20 -62 39 -80 70 -32 54 -31 94 0 187 70 202
95 356 95 567 -1 164 -12 273 -36 346 l-17 49 -75 -7 c-41 -3 -100 -6 -132 -6
l-56 0 18 -87 c13 -60 18 -132 19 -228 0 -212 -33 -368 -114 -535 -56 -114
-113 -173 -191 -195 -116 -34 -212 -3 -267 84 -42 65 -38 98 26 247 87 197
106 275 112 436 5 110 2 156 -13 230 -10 51 -19 98 -19 103 0 6 -16 21 -35 34
-67 47 -108 87 -240 236 -73 83 -154 173 -180 200 -46 48 -48 53 -53 120 -8
100 -39 174 -100 242 -75 82 -126 103 -252 103 -77 0 -110 -5 -143 -20z m206
-99 c20 -10 47 -30 59 -43 75 -80 68 -239 -11 -277 -40 -19 -98 -4 -221 54
-79 38 -99 52 -112 80 -30 62 14 151 91 186 55 25 145 25 194 0z m-658 -76
c10 -12 10 -21 1 -41 -6 -14 -11 -26 -11 -28 0 -2 22 -6 50 -10 99 -13 180
-56 180 -96 0 -9 -9 -25 -21 -36 -18 -16 -42 -20 -165 -24 -154 -5 -147 -3
-180 -62 -13 -26 -13 -28 3 -28 30 0 121 -47 132 -69 15 -27 14 -37 -5 -55
-12 -13 -39 -16 -124 -16 l-108 0 -37 -49 c-61 -85 -133 -113 -175 -71 -11 11
-20 30 -20 43 0 12 -3 32 -6 44 -6 23 -27 24 -122 2 -59 -13 -82 -5 -82 31 0
41 46 75 145 106 74 23 85 29 94 56 l11 31 -43 -7 c-130 -19 -137 -19 -137 -2
0 43 139 138 250 170 31 9 68 29 86 47 46 44 137 78 210 79 43 0 65 -5 74 -15z
m-739 -37 c49 -14 109 -71 109 -103 0 -41 -11 -55 -74 -97 -33 -23 -89 -63
-124 -90 -70 -53 -98 -59 -130 -25 -29 31 -42 70 -42 128 0 137 127 228 261
187z m1522 -499 c121 -91 231 -260 297 -459 37 -109 49 -235 31 -323 -47 -222
-266 -421 -520 -472 -128 -26 -201 -6 -201 55 0 31 26 56 127 123 137 91 230
201 274 322 31 82 33 273 5 355 -31 92 -87 200 -148 285 -32 44 -58 91 -58
104 0 40 27 61 79 61 40 0 55 -7 114 -51z m-284 -144 c41 -21 97 -90 134 -165
30 -61 32 -71 32 -175 0 -96 -3 -116 -24 -159 -47 -96 -119 -142 -178 -114
-44 21 -50 55 -24 143 31 103 26 203 -13 295 -15 36 -32 77 -38 91 -30 70 39
122 111 84z m-373 -196 c67 -63 21 -179 -71 -179 -60 0 -105 47 -105 108 0 33
32 79 64 93 32 13 86 3 112 -22z m-903 -59 c87 -97 -48 -228 -145 -141 -28 25
-33 36 -33 74 0 100 111 141 178 67z m3826 -1121 c22 -13 40 -37 54 -70 20
-47 23 -49 60 -49 75 0 147 -73 147 -150 0 -41 -36 -106 -68 -126 -25 -14 -29
-21 -21 -35 14 -27 11 -97 -7 -135 -23 -49 -70 -74 -137 -74 -44 0 -62 5 -83
24 l-28 23 -34 -23 c-26 -18 -49 -24 -87 -24 -69 0 -113 29 -139 93 -18 42
-18 53 -8 93 12 44 12 45 -23 75 -105 93 -45 259 95 259 30 0 42 5 46 18 14
47 42 87 74 104 46 24 116 23 159 -3z m-1057 -266 c43 -17 115 -93 125 -130 4
-20 10 -23 27 -18 49 15 147 17 191 5 98 -27 170 -111 182 -209 l6 -51 47 0
c146 0 250 -102 250 -246 0 -125 -81 -216 -219 -245 -71 -15 -167 -2 -304 40
-169 52 -256 66 -427 65 -170 -1 -270 -17 -435 -72 -212 -71 -340 -64 -443 23
-53 45 -76 99 -76 180 1 140 88 231 230 243 l62 5 6 50 c13 96 70 168 160 202
36 14 66 17 140 13 93 -5 95 -5 101 19 7 30 70 100 108 119 68 36 190 39 269
7z"/>
</g>
</g>
<g transform="translate(0.000000,449.000000) scale(0.100000,-0.100000)"
fill="url(#grad_17)" stroke="none">
<g>
<path d="M1512 3608 c-28 -14 -39 -53 -24 -87 6 -14 23 -55 38 -91 39 -92 44
-192 13 -295 -26 -88 -20 -122 24 -143 59 -28 131 18 178 114 21 43 24 63 24
159 0 104 -2 114 -32 175 -52 106 -128 181 -180 179 -10 0 -28 -5 -41 -11z"/>
</g>
</g>
<g transform="translate(0.000000,449.000000) scale(0.100000,-0.100000)"
fill="url(#grad_18)" stroke="none">
<g>
<path d="M1114 3431 c-32 -14 -64 -60 -64 -93 0 -61 45 -108 105 -108 92 0
138 116 71 179 -26 25 -80 35 -112 22z"/>
</g>
</g>
<g transform="translate(0.000000,449.000000) scale(0.100000,-0.100000)"
fill="url(#grad_19)" stroke="none">
<g>
<path d="M906 4275 c-32 -13 -73 -38 -90 -54 -18 -18 -55 -38 -86 -47 -111
-32 -250 -127 -250 -170 0 -17 7 -17 137 2 l43 7 -11 -31 c-9 -27 -20 -33 -94
-56 -99 -31 -145 -65 -145 -106 0 -36 23 -44 82 -31 95 22 116 21 122 -2 3
-12 6 -32 6 -44 0 -13 9 -32 20 -43 42 -42 114 -14 175 71 l37 49 108 0 c85 0
112 3 124 16 19 18 20 28 5 55 -11 22 -102 69 -132 69 -16 0 -16 2 -3 28 33
59 26 57 180 62 123 4 147 8 165 24 12 11 21 27 21 36 0 40 -81 83 -180 96
-28 4 -50 8 -50 10 0 2 5 14 11 28 19 41 -2 56 -75 56 -41 0 -80 -8 -120 -25z"/>
</g>
</g>
<g transform="translate(0.000000,449.000000) scale(0.100000,-0.100000)"
fill="url(#grad_20)" stroke="none">
<g>
<path d="M227 4245 c-124 -44 -171 -220 -85 -312 32 -34 60 -28 130 25 35 27
91 67 124 90 88 59 97 98 39 155 -55 54 -132 70 -208 42z"/>
</g>
</g>
<g transform="translate(0.000000,449.000000) scale(0.100000,-0.100000)"
fill="url(#grad_21)" stroke="none">
<g>
<path d="M1707 3782 c-28 -31 -19 -64 41 -147 61 -85 117 -193 148 -285 28
-82 26 -273 -5 -355 -44 -121 -137 -231 -274 -322 -101 -67 -127 -92 -127
-123 0 -61 73 -81 201 -55 254 51 473 250 520 472 48 233 -115 622 -328 782
-59 44 -74 51 -114 51 -32 0 -51 -6 -62 -18z"/>
</g>
</g>
<g transform="translate(0.000000,449.000000) scale(0.100000,-0.100000)"
fill="url(#grad_22)" stroke="none">
<g>
<path d="M3287 3503 c-31 -4 -37 -7 -32 -21 27 -70 37 -144 42 -312 8 -251
-15 -405 -92 -629 -31 -93 -32 -133 0 -187 18 -31 39 -50 80 -70 49 -24 64
-26 133 -22 162 9 249 103 330 358 79 250 90 543 29 786 l-22 89 -75 6 c-82 7
-333 8 -393 2z"/>
</g>
</g>
<g transform="translate(0.000000,449.000000) scale(0.100000,-0.100000)"
fill="url(#grad_23)" stroke="none">
<g>
<path d="M585 3241 c-74 -18 -95 -44 -95 -119 0 -57 27 -104 80 -140 29 -20
45 -23 90 -20 64 5 96 24 134 83 35 53 37 132 3 163 -41 38 -131 52 -212 33z"/>
</g>
</g>
<g transform="translate(0.000000,449.000000) scale(0.100000,-0.100000)"
fill="url(#grad_24)" stroke="none">
<g>
<path d="M1564 4361 c-48 -22 -80 -59 -96 -113 -9 -32 -9 -44 5 -73 13 -28 33
-42 112 -80 123 -58 181 -73 221 -54 79 38 86 197 11 277 -57 62 -170 81 -253
43z"/>
</g>
</g>
<g transform="translate(0.000000,449.000000) scale(0.100000,-0.100000)"
fill="url(#grad_25)" stroke="none">
<g>
<path d="M5174 2855 c-69 -71 -137 -101 -205 -92 -21 3 -39 3 -39 0 0 -3 15
-32 32 -66 69 -129 190 -222 302 -234 43 -5 64 -1 100 17 86 41 101 128 42
234 -36 64 -144 198 -161 201 -5 1 -37 -26 -71 -60z"/>
</g>
</g>
<g transform="translate(0.000000,449.000000) scale(0.100000,-0.100000)"
fill="url(#grad_26)" stroke="none">
<g>
<path d="M205 3381 c-39 -17 -60 -51 -60 -98 0 -38 5 -49 33 -74 70 -63 172
-16 172 80 0 63 -86 118 -145 92z"/>
</g>
</g>
<g transform="translate(0.000000,449.000000) scale(0.100000,-0.100000)"
fill="url(#grad_27)" stroke="none">
<g>
<path d="M4066 3418 c60 -190 67 -497 14 -702 -11 -43 -35 -116 -55 -164 -19
-47 -35 -97 -35 -109 0 -116 133 -165 278 -103 61 26 90 62 143 174 45 96 74
209 90 351 18 164 -10 383 -53 419 -56 45 -317 156 -369 156 -17 0 -19 -4 -13
-22z"/>
</g>
</g>
<g transform="translate(0.000000,449.000000) scale(0.100000,-0.100000)"
fill="url(#grad_28)" stroke="none">
<g>
<path d="M2553 3537 c3 -7 13 -51 22 -98 13 -65 16 -115 12 -224 -5 -165 -25
-240 -112 -439 -64 -149 -68 -182 -26 -247 55 -87 151 -118 267 -84 78 22 135
81 191 195 81 168 114 323 114 535 -1 93 -7 168 -18 225 l-18 85 -55 3 c-135
6 -263 23 -312 42 -62 23 -72 25 -65 7z"/>
</g>
</g>
<g transform="translate(0.000000,449.000000) scale(0.100000,-0.100000)"
fill="url(#grad_29)" stroke="none">
<g>
<path d="M5333 3471 c-24 -4 -44 -9 -47 -12 -2 -2 5 -44 15 -94 10 -49 19
-118 19 -152 l0 -63 45 0 c59 0 142 18 188 42 102 51 112 200 19 263 -32 22
-47 25 -117 24 -44 -1 -99 -5 -122 -8z"/>
</g>
</g>
</svg>
