<?xml version="1.0" standalone="no"?><!DOCTYPE svg PUBLIC "-//W3C//DTD SVG 20010904//EN" "http://www.w3.org/TR/2001/REC-SVG-20010904/DTD/svg10.dtd"><svg version="1.0" xmlns="http://www.w3.org/2000/svg" width="500pt" height="500pt" viewBox="0 0 500 500" preserveAspectRatio="xMidYMid meet"><defs><linearGradient id="linear-gradient-1-1" x1="0.00%" y1="100.00%" x2="100.07%" y2="0.07%"><stop offset="0%" style="stop-color:rgb(0,127,0);stop-opacity:1.000" /><stop offset="100%" style="stop-color:rgb(0,127,127);stop-opacity:1.000" /></linearGradient><linearGradient id="linear-gradient-2-1" x1="0.00%" y1="100.00%" x2="133.42%" y2="2.66%"><stop offset="0%" style="stop-color:rgb(150,47,40);stop-opacity:0.614" /><stop offset="100%" style="stop-color:rgb(9,54,51);stop-opacity:0.500" /></linearGradient><linearGradient id="linear-gradient-2-2" x1="0.00%" y1="100.00%" x2="81.79%" y2="-2.08%"><stop offset="0%" style="stop-color:rgb(5,231,7);stop-opacity:0.315" /><stop offset="100%" style="stop-color:rgb(89,157,8);stop-opacity:0.248" /></linearGradient><linearGradient id="linear-gradient-2-3" x1="0.00%" y1="100.00%" x2="115.04%" y2="1.41%"><stop offset="0%" style="stop-color:rgb(0,213,10);stop-opacity:0.448" /><stop offset="100%" style="stop-color:rgb(0,65,57);stop-opacity:0.387" /></linearGradient><linearGradient id="linear-gradient-3-1" x1="0.00%" y1="100.00%" x2="57.43%" y2="-20.32%"><stop offset="0%" style="stop-color:rgb(157,33,58);stop-opacity:0.276" /><stop offset="100%" style="stop-color:rgb(136,13,103);stop-opacity:0.459" /></linearGradient><linearGradient id="linear-gradient-3-2" x1="0.00%" y1="100.00%" x2="67.94%" y2="-18.40%"><stop offset="0%" style="stop-color:rgb(167,47,28);stop-opacity:0.287" /><stop offset="100%" style="stop-color:rgb(99,75,90);stop-opacity:0.217" /></linearGradient></defs><g id="layer-1"><path d="M0 2500 l0 -2500 2500 0 2500 0 0 2500 0 2500 -2500 0 -2500 0 0 -2500z" fill="url(#linear-gradient-1-1)" id="region-1-1" transform="translate(0.000000,500.000000) scale(0.100000,-0.100000)"/></g><g id="layer-2"><path d="M30 2480 l0 -2340 560 0 560 0 0 2340 0 2340 -560 0 -560 0 0 -2340z" fill="url(#linear-gradient-2-1)" id="region-2-1" transform="translate(0.000000,500.000000) scale(0.100000,-0.100000)"/><path d="M3520 3005 l0 -1785 670 0 670 0 0 1785 0 1785 -670 0 -670 0 0 -1785z" fill="url(#linear-gradient-2-2)" id="region-2-2" transform="translate(0.000000,500.000000) scale(0.100000,-0.100000)"/><path d="M1990 2195 l0 -2145 605 0 605 0 0 2145 0 2145 -605 0 -605 0 0 -2145z" fill="url(#linear-gradient-2-3)" id="region-2-3" transform="translate(0.000000,500.000000) scale(0.100000,-0.100000)"/></g><g id="layer-3"><path d="M1205 3833 c-391 -19 -742 -243 -921 -586 -88 -171 -125 -320 -125 -512 0 -192 37 -341 125 -512 130 -250 349 -437 620 -529 215 -73 487 -73 702 0 378 128 654 447 729 840 20 104 20 298 0 402 -83 437 -414 778 -850 874 -61 14 -211 26 -280 23z" fill="url(#linear-gradient-3-1)" id="region-3-1" transform="translate(0.000000,500.000000) scale(0.100000,-0.100000)"/><path d="M3705 3793 c-271 -13 -521 -127 -710 -325 -89 -92 -132 -152 -183 -253 -81 -161 -113 -296 -113 -480 0 -299 109 -555 323 -760 92 -89 152 -132 253 -183 161 -81 296 -113 480 -113 184 0 319 32 480 113 288 145 500 426 561 748 30 156 15 378 -36 530 -115 342 -403 607 -754 695 -74 18 -219 32 -301 28z" fill="url(#linear-gradient-3-2)" id="region-3-2" transform="translate(0.000000,500.000000) scale(0.100000,-0.100000)"/></g></svg>