<?xml version="1.0" standalone="no"?><!DOCTYPE svg PUBLIC "-//W3C//DTD SVG 20010904//EN" "http://www.w3.org/TR/2001/REC-SVG-20010904/DTD/svg10.dtd"><svg version="1.0" xmlns="http://www.w3.org/2000/svg" width="500.0pt" height="500.0pt" viewBox="0 0 500.0 500.0" preserveAspectRatio="xMidYMid meet"><defs><linearGradient id="linear-gradient-0" x1="0.00%" y1="100.00%" x2="228.34%" y2="35.99%"><stop offset="0%" style="stop-color:rgb(0,128,33);stop-opacity:1.000" /><stop offset="100%" style="stop-color:rgb(0,128,104);stop-opacity:1.000" /></linearGradient><linearGradient id="linear-gradient-1" x1="0.00%" y1="100.00%" x2="64.89%" y2="-19.13%"><stop offset="0%" style="stop-color:rgb(0,188,3);stop-opacity:1.000" /><stop offset="100%" style="stop-color:rgb(0,86,96);stop-opacity:1.000" /></linearGradient><linearGradient id="linear-gradient-2" x1="0.00%" y1="100.00%" x2="58.55%" y2="-20.19%"><stop offset="0%" style="stop-color:rgb(147,40,56);stop-opacity:0.296" /><stop offset="100%" style="stop-color:rgb(127,20,100);stop-opacity:0.490" /></linearGradient><linearGradient id="linear-gradient-3" x1="0.00%" y1="100.00%" x2="107.30%" y2="0.44%"><stop offset="0%" style="stop-color:rgb(242,0,63);stop-opacity:0.375" /><stop offset="100%" style="stop-color:rgb(18,13,43);stop-opacity:0.320" /></linearGradient><linearGradient id="linear-gradient-4" x1="0.00%" y1="0.00%" x2="-0.00%" y2="100.00%"><stop offset="0%" style="stop-color:rgb(111,168,0);stop-opacity:0.195" /><stop offset="100%" style="stop-color:rgb(10,249,0);stop-opacity:0.256" /></linearGradient><linearGradient id="linear-gradient-5" x1="0.00%" y1="100.00%" x2="52.19%" y2="-20.68%"><stop offset="0%" style="stop-color:rgb(153,59,32);stop-opacity:0.299" /><stop offset="100%" style="stop-color:rgb(172,22,72);stop-opacity:0.103" /></linearGradient></defs><g fill="url(#linear-gradient-0)" transform="translate(0.000000,500.000000) scale(0.100000,-0.100000)">
<path d="M0 2500 l0 -2500 2500 0 2500 0 0 2500 0 2500 -2500 0 -2500 0 0 -2500z"/>
</g><g fill="url(#linear-gradient-1)" transform="translate(0.000000,500.000000) scale(0.100000,-0.100000)">
<path d="M1990 2195 l0 -2145 605 0 605 0 0 2145 0 2145 -605 0 -605 0 0 -2145z"/>
</g><g fill="url(#linear-gradient-2)" transform="translate(0.000000,500.000000) scale(0.100000,-0.100000)">
<path d="M1205 3833 c-391 -19 -742 -243 -921 -586 -88 -171 -125 -320 -125 -512 0 -192 37 -341 125 -512 130 -250 349 -437 620 -529 215 -73 487 -73 702 0 378 128 654 447 729 840 20 104 20 298 0 402 -83 437 -414 778 -850 874 -61 14 -211 26 -280 23z"/>
</g><g fill="url(#linear-gradient-3)" transform="translate(0.000000,500.000000) scale(0.100000,-0.100000)">
<path d="M30 2480 l0 -2340 560 0 560 0 0 2340 0 2340 -560 0 -560 0 0 -2340z"/>
</g><g fill="url(#linear-gradient-4)" transform="translate(0.000000,500.000000) scale(0.100000,-0.100000)">
<path d="M3520 3005 l0 -1785 670 0 670 0 0 1785 0 1785 -670 0 -670 0 0 -1785z"/>
</g><g fill="url(#linear-gradient-5)" transform="translate(0.000000,500.000000) scale(0.100000,-0.100000)">
<path d="M3705 3793 c-271 -13 -521 -127 -710 -325 -89 -92 -132 -152 -183 -253 -81 -161 -113 -296 -113 -480 0 -299 109 -555 323 -760 92 -89 152 -132 253 -183 161 -81 296 -113 480 -113 184 0 319 32 480 113 288 145 500 426 561 748 30 156 15 378 -36 530 -115 342 -403 607 -754 695 -74 18 -219 32 -301 28z"/>
</g></svg>