<svg xmlns="http://www.w3.org/2000/svg" xmlns:xlink="http://www.w3.org/1999/xlink" viewBox="0 0 700 600"><defs><style>.a1104c28-f888-40c3-b539-d027ee04c56d,.b0dec2ec-be3d-4023-8fe9-8726c81086cc{fill:none;}.b9b2438c-eb59-4350-85a3-51dcc64f64f1{fill:#d2d2d2;}.ad339ac5-db67-4b1d-b514-c6896b1938af{fill:url(#b5935e54-9d8c-4510-851b-e39f80066009);}.aa8248a8-2d1f-49a2-8757-45f99fdf1393{fill:url(#abd367d9-d1e4-4f6c-8cee-47d3636a9823);}.aff38b25-cf4c-4736-ba07-e6adefded165{fill:url(#be4f35ce-e959-4b4d-9a8f-523e07ef6da2);}.bcaae175-1e1c-40e9-a366-7757448521c7{fill:url(#a286a2d4-d716-4e50-a741-e7c6f13e0cdf);}.a33785be-d3b8-434f-86a5-a5506021ed10{fill:url(#baafa0db-c288-4da6-8e72-a8f331d75f4c);}.bd5b5106-7f0b-477e-abe0-492c5515546c{fill:url(#b13d3a08-d209-446a-8e32-42d2e3fbf915);}.bfda632d-0cd9-4d76-bffd-e7c4c51b6122{fill:url(#b6c94c2f-4565-406a-8eab-643ffaef46a1);}.b77bb3cf-3254-4ac4-b99c-077abc743ea6{fill:url(#a5b7fff4-c3eb-4d33-85ba-127311f3a0c8);}.b7111148-a30c-4894-8778-c90750720fe8{fill:url(#a181b7f1-9efd-43c8-893f-e2ae26a3a2bc);}.a741756c-4984-47d2-8214-263b090576fa{fill:url(#ff9f99ff-c350-4975-8307-1eea2794c5c0);}.f1a63c4f-2854-48cd-b792-2aabf9b5d10f{fill:url(#b0fe70b4-02ec-49da-b089-55c6c1dc0eae);}.a227b8f1-fe6a-48b5-994a-8373a122422d{fill:url(#a52edba8-14b1-480b-9f97-5109ad8675d4);}.b578181e-3308-49c5-85dc-be76d254bcdf{fill:url(#f1ba2d06-0c90-4eb0-a13e-770371742649);}.b7ca5bb0-bc8e-498f-a06f-f8b9077c4170{fill:url(#b0389ee2-b9fc-4a96-9601-23a807b3cbac);}.a5180525-26c6-4c84-ac39-ad1e134c899e{fill:url(#ba3b12c4-302c-48ca-8d92-1ef5d0a95354);}.a1104c28-f888-40c3-b539-d027ee04c56d,.ab908dcc-5501-40f8-90f8-d6c51b6db91f,.b725d669-ee86-4c7a-b131-64001e14f587,.bc1d58e0-4fbb-4fc8-96db-a07557fa757f{stroke:#231815;stroke-miterlimit:10;}.ab908dcc-5501-40f8-90f8-d6c51b6db91f,.b725d669-ee86-4c7a-b131-64001e14f587,.bc1d58e0-4fbb-4fc8-96db-a07557fa757f{stroke-width:0.5px;}.ab908dcc-5501-40f8-90f8-d6c51b6db91f{fill:url(#b1387e64-8708-4ba9-b07a-790ac7160548);}.ace7a384-3e5e-4ce9-84dd-3328db1a6909{fill:url(#b82696ec-cbae-4368-a3fd-b9c6eb107360);}.bc1d58e0-4fbb-4fc8-96db-a07557fa757f{fill:url(#ec09bff2-0156-4b2e-bda3-253eafbc961e);}.eff1772c-dcaa-442c-8025-d025eeda79f6{fill:url(#fd124bf7-d395-4918-8bbe-d440d40ce610);}.a9d7071e-50f6-4f5e-b7be-8eaea220ec40{fill:url(#b81bc565-6025-487c-9c12-124a21aeaf8f);}.b725d669-ee86-4c7a-b131-64001e14f587{fill:url(#b1419a2d-3181-469a-9b4e-11b32f43ada9);}</style><pattern id="b5935e54-9d8c-4510-851b-e39f80066009" data-name="grid-pattern" width="40" height="40" patternTransform="matrix(1, 0, 0, -1, 11, 626.49)" patternUnits="userSpaceOnUse" viewBox="0 0 40 40"><rect class="b0dec2ec-be3d-4023-8fe9-8726c81086cc" width="40" height="40"/><rect class="b9b2438c-eb59-4350-85a3-51dcc64f64f1" y="20" width="20" height="20"/><rect class="b9b2438c-eb59-4350-85a3-51dcc64f64f1" x="20" width="20" height="20"/></pattern><linearGradient id="abd367d9-d1e4-4f6c-8cee-47d3636a9823" x1="51.52" y1="600.66" x2="51.52" y2="600.1" gradientTransform="matrix(434.04, 0, 0, -357.14, -21983.33, 214668.21)" gradientUnits="userSpaceOnUse"><stop offset="0" stop-color="#c94b4d"/><stop offset="1" stop-color="#8f1d22"/></linearGradient><linearGradient id="be4f35ce-e959-4b4d-9a8f-523e07ef6da2" x1="52.15" y1="600.43" x2="52.71" y2="600.38" gradientTransform="matrix(92.35, 0, 0, -255.58, -4558, 153734.58)" gradientUnits="userSpaceOnUse"><stop offset="0" stop-color="#b8292d"/><stop offset="1" stop-color="#911d22"/></linearGradient><linearGradient id="a286a2d4-d716-4e50-a741-e7c6f13e0cdf" x1="52.7" y1="599.42" x2="52.39" y2="599.98" gradientTransform="matrix(77.53, 0, 0, -113.83, -3783.17, 68452.98)" gradientUnits="userSpaceOnUse"><stop offset="0" stop-color="#ea6767" stop-opacity="0.8"/><stop offset="1" stop-color="#eca6a6" stop-opacity="0.81"/></linearGradient><linearGradient id="baafa0db-c288-4da6-8e72-a8f331d75f4c" x1="51.8" y1="600.54" x2="51.24" y2="600.35" gradientTransform="matrix(433.77, 0, 0, -259.27, -21969.47, 155946.54)" gradientUnits="userSpaceOnUse"><stop offset="0" stop-color="#ce848e"/><stop offset="1" stop-color="#170305" stop-opacity="0.35"/></linearGradient><linearGradient id="b13d3a08-d209-446a-8e32-42d2e3fbf915" x1="54.26" y1="600.15" x2="53.7" y2="600.24" gradientTransform="matrix(39.21, 0, 0, -147.78, -1848.01, 88945.89)" gradientUnits="userSpaceOnUse"><stop offset="0" stop-color="#ed7f88" stop-opacity="0.43"/><stop offset="1" stop-color="#ef8f9b" stop-opacity="0.5"/></linearGradient><linearGradient id="b6c94c2f-4565-406a-8eab-643ffaef46a1" x1="51.54" y1="600.38" x2="51.15" y2="600.94" gradientTransform="matrix(193.08, 0, 0, -63.88, -9462.95, 38685.2)" gradientUnits="userSpaceOnUse"><stop offset="0" stop-color="#ed7d80" stop-opacity="0.63"/><stop offset="1" stop-color="#f0969a" stop-opacity="0.71"/></linearGradient><linearGradient id="a5b7fff4-c3eb-4d33-85ba-127311f3a0c8" x1="55.59" y1="602.56" x2="56.15" y2="602.71" gradientTransform="matrix(20.08, 0, 0, -15.05, -841.23, 9417.8)" gradientUnits="userSpaceOnUse"><stop offset="0" stop-color="#afd599" stop-opacity="0.41"/><stop offset="1" stop-color="#a6d294" stop-opacity="0.37"/></linearGradient><linearGradient id="a181b7f1-9efd-43c8-893f-e2ae26a3a2bc" x1="51.57" y1="600.58" x2="51.57" y2="600.02" gradientTransform="matrix(249.57, 0, 0, -288.58, -12497.75, 173468.65)" gradientUnits="userSpaceOnUse"><stop offset="0" stop-color="#dabcbb" stop-opacity="0.75"/><stop offset="1" stop-color="#ad382a" stop-opacity="0.82"/></linearGradient><linearGradient id="ff9f99ff-c350-4975-8307-1eea2794c5c0" x1="52.82" y1="600.49" x2="53.38" y2="600.44" gradientTransform="matrix(47.31, 0, 0, -183.91, -2216.18, 110732.02)" gradientUnits="userSpaceOnUse"><stop offset="0" stop-color="#5d2920" stop-opacity="0.78"/><stop offset="1" stop-color="#48140c" stop-opacity="0.86"/></linearGradient><linearGradient id="b0fe70b4-02ec-49da-b089-55c6c1dc0eae" x1="51.29" y1="600.32" x2="51.85" y2="600.26" gradientTransform="matrix(213.94, 0, 0, -264.01, -10659.59, 158717.85)" gradientUnits="userSpaceOnUse"><stop offset="0" stop-color="#e2c587" stop-opacity="0.63"/><stop offset="1" stop-color="#cade82" stop-opacity="0.27"/></linearGradient><linearGradient id="a52edba8-14b1-480b-9f97-5109ad8675d4" x1="51.96" y1="599.98" x2="51.96" y2="599.42" xlink:href="#abd367d9-d1e4-4f6c-8cee-47d3636a9823"/><linearGradient id="f1ba2d06-0c90-4eb0-a13e-770371742649" x1="49.85" y1="600.93" x2="50.41" y2="600.88" xlink:href="#be4f35ce-e959-4b4d-9a8f-523e07ef6da2"/><linearGradient id="b0389ee2-b9fc-4a96-9601-23a807b3cbac" x1="52.58" y1="600.64" x2="52.27" y2="601.2" xlink:href="#a286a2d4-d716-4e50-a741-e7c6f13e0cdf"/><linearGradient id="ba3b12c4-302c-48ca-8d92-1ef5d0a95354" x1="51.61" y1="599.61" x2="51.05" y2="599.41" xlink:href="#baafa0db-c288-4da6-8e72-a8f331d75f4c"/><linearGradient id="b1387e64-8708-4ba9-b07a-790ac7160548" x1="51.57" y1="601.37" x2="51.01" y2="601.46" xlink:href="#b13d3a08-d209-446a-8e32-42d2e3fbf915"/><linearGradient id="b82696ec-cbae-4368-a3fd-b9c6eb107360" x1="52.39" y1="599.6" x2="51.99" y2="600.16" xlink:href="#b6c94c2f-4565-406a-8eab-643ffaef46a1"/><linearGradient id="ec09bff2-0156-4b2e-bda3-253eafbc961e" x1="44.59" y1="594.74" x2="45.15" y2="594.89" xlink:href="#a5b7fff4-c3eb-4d33-85ba-127311f3a0c8"/><linearGradient id="fd124bf7-d395-4918-8bbe-d440d40ce610" x1="51.93" y1="601.1" x2="51.93" y2="600.54" xlink:href="#a181b7f1-9efd-43c8-893f-e2ae26a3a2bc"/><linearGradient id="b81bc565-6025-487c-9c12-124a21aeaf8f" x1="47.64" y1="600.25" x2="48.2" y2="600.19" xlink:href="#ff9f99ff-c350-4975-8307-1eea2794c5c0"/><linearGradient id="b1419a2d-3181-469a-9b4e-11b32f43ada9" x1="52.46" y1="600.59" x2="53.02" y2="600.53" xlink:href="#b0fe70b4-02ec-49da-b089-55c6c1dc0eae"/></defs><g id="a145de7c-dd4c-4c3e-9697-bf423ff614ad" data-name="图层 1"><rect class="ad339ac5-db67-4b1d-b514-c6896b1938af" width="700" height="600"/><g id="f066bc05-964d-4a68-a416-28e03e144b83" data-name="layer-1"><path id="b5ede969-c253-4426-bcc9-1f7fd63c3fc5" data-name="object-1-1" class="aa8248a8-2d1f-49a2-8757-45f99fdf1393" d="M307.05,151.79a59.83,59.83,0,0,1,5.48,3.65,14.47,14.47,0,0,0,3.46,2.15.9.9,0,0,1,.79.43,9.32,9.32,0,0,0,1.87,1.71,82.81,82.81,0,0,1,12.41,12,64.11,64.11,0,0,1,4.7,5.8,24.6,24.6,0,0,0,2.71,3.54,47.9,47.9,0,0,1,4.16,5.7,24.63,24.63,0,0,0,2.49,3.65,32.43,32.43,0,0,1,2.93,4.48,33.13,33.13,0,0,0,2.23,3.65,7.48,7.48,0,0,1,1.09,1.68c.4.77,1.46,2.66,2.36,4.21s2,3.68,2.55,4.76c1.66,3.6,3.66,8.26,3.85,9,.79,2.91,2.59,6.88,3.36,7.42.32.23.4.41.18.42s.35,1.28,1.26,2.84a15.19,15.19,0,0,1,1.67,3.42,35.89,35.89,0,0,0,3.37,6.65,26.22,26.22,0,0,1,1.57,2.8,65.67,65.67,0,0,0,4.07,7.29,4,4,0,0,1,.7,1.12c.21.47,1.11,2.11,2,3.65s2.18,3.87,2.86,5.19,1.45,2.38,1.73,2.38.51.38.51.84.26.84.57.84.56.4.56.89c0,.7,3.18,5.48,7.43,11.17l2.65,3.64c3.62,5,4.26,5.62,9.83,9.39a38.83,38.83,0,0,0,13.87,6,7.83,7.83,0,0,1,2.06.59c1.19.73,11.78,1.33,15.75.88,2.31-.26,4.46-.28,4.77,0a2.67,2.67,0,0,0,1.4.44c.46,0,2.86.42,5.33.91l5.89,1.19c2.12.42,5.75,1.28,7,1.65,6.71,2,12.62,3.49,15.42,4,1.08.18,3.35.56,5.05.86s4.09.69,5.32.88a13.16,13.16,0,0,1,3.23.87c.54.29,1,.37,1,.18,0-.55,4,2,6.93,4.48a17.28,17.28,0,0,1,3.56,3.9c1.18,2.28.54,7.54-1.29,10.62a24.56,24.56,0,0,0-1.72,3.32c-.18.54-.54,1-.82,1s-.49.32-.49.71c0,1-3.32,4.9-4.22,4.9a2.39,2.39,0,0,0-1.52,1.08,4.79,4.79,0,0,1-2.42,1.48,18.77,18.77,0,0,0-3.29,1.22,73.45,73.45,0,0,1-10.05,3.22c-.56.13-1.48.39-2,.56a46.58,46.58,0,0,1-7,1.14c-3.49.42-12.12,1.95-14.3,2.55a36.28,36.28,0,0,1-3.92.79c-1.08.14-2.85.41-3.93.59l-3.08.5c-.62.09-2,.32-3.09.51-2,.34-7,.74-16,1.26-8.44.49-35.2.55-37.29.08a24.89,24.89,0,0,1-4.68-1.82,17.05,17.05,0,0,0-3.25-1.39,2.47,2.47,0,0,1-1.21-.55l-4.14-3.42a52,52,0,0,1-6.17-6.25,147.62,147.62,0,0,1-10.39-16.13,52.93,52.93,0,0,0-3-4.77c-1.29-1.85-3.27-5.08-4.39-7.18a70.45,70.45,0,0,0-3.74-6.16c-2.36-3.31-7.79-11.73-7.79-12.08s-2.88-4.7-9-13.93c-1.06-1.6-4.83-7-8.38-12s-7.13-10.06-7.95-11.23-1.26-2.22-.95-2.32-.31-1.07-1.36-2.14a12.3,12.3,0,0,1-2.14-2.63c-.31-1-8.36-10.25-13.75-15.87-2.51-2.62-5.52-5.84-6.67-7.16-2-2.23-6.52-5.73-7.48-5.73a9.57,9.57,0,0,1-2.35-2,19,19,0,0,0-4.18-3.15,21.19,21.19,0,0,1-3.08-1.84,7.64,7.64,0,0,0-2.25-1.14,9.85,9.85,0,0,1-2.73-1.47,6.33,6.33,0,0,0-3.31-1h-2l.36-2.66c.4-3,2.42-10.55,3.21-12.05a5.29,5.29,0,0,0,.51-2,10.14,10.14,0,0,1,1.07-3.24c.6-1.18,1.23-2.53,1.4-3a10.59,10.59,0,0,1,.89-1.69c.31-.46,1.58-2.67,2.82-4.92a51.56,51.56,0,0,1,3.23-5.23c2.4-2.88,3.1-3.65,6.9-7.64a57.64,57.64,0,0,1,7.47-6.57c3.56-2.42,8.19-5,8.19-4.52a10.21,10.21,0,0,0,3.07-1.09c1.76-.78,3.21-1.13,3.4-.83s.84.18,1.54-.31c1.59-1.12,1.72-1.1,4.78.64" transform="translate(0 0.49)"/><path id="ec6b1a09-baeb-40f2-a2e0-d3018baeafbb" data-name="object-1-2" class="aff38b25-cf4c-4736-ba07-e6adefded165" d="M263.48,208a9.85,9.85,0,0,0,2.73,1.47,7.64,7.64,0,0,1,2.25,1.14,21.19,21.19,0,0,0,3.08,1.84,19,19,0,0,1,4.18,3.15,9.57,9.57,0,0,0,2.35,2c1,0,5.52,3.5,7.48,5.73,1.15,1.32,4.16,4.54,6.67,7.16,5.39,5.62,13.44,14.91,13.75,15.87a12.3,12.3,0,0,0,2.14,2.63c2,2,1.68,3-.51,1.46-1.8-1.27-6.46-1.15-8.7.21-3.58,2.19-4.38,5.2-7.17,26.94-2.74,21.4-4.42,41.66-5.09,61.48l-.36,10.73-2.34.32a27.57,27.57,0,0,1-5.46,0l-3.12-.32L275,339.36c-.43-13-3-51.6-3.77-57.27-.32-2.31-.72-6.23-.88-8.69a57.11,57.11,0,0,0-.8-6.8,59.91,59.91,0,0,1-.84-6.17A145.57,145.57,0,0,0,267,245.64c-.15-.77-.35-1.78-.43-2.25a15,15,0,0,0-.46-1.68c-.17-.46-.87-3-1.56-5.61s-1.58-5.9-2-7.29-.87-3.15-1-3.92c-1.15-6.17-2.7-12.86-3.25-14a5,5,0,0,1-.52-3.37c.12-1,4.33-.62,5.75.48" transform="translate(0 0.49)"/></g><g id="e7700208-a9b1-44ad-8085-f64e104c008d" data-name="layer-2"><path id="fbc6dc1b-e351-4a69-ba8e-5451f287d976" data-name="object-2-1" class="bcaae175-1e1c-40e9-a366-7757448521c7" d="M306.22,157.73a30.84,30.84,0,0,0,2.86,2.29,8.46,8.46,0,0,1,2.36,2.82c.81,1.71.77,2-1.13,6.13a57.5,57.5,0,0,1-3.6,6.72c-2.51,3.67-7.41,11.66-7.41,12.08a35.61,35.61,0,0,1-1.95,4.18c-2.32,4.52-3.66,9.3-6.22,22.25-.82,4.14-1.95,6.2-3.42,6.2-.41,0-3-1.59-5.66-3.53s-5.91-4.12-7.14-4.84c-6.07-3.56-6.45-3.95-6.45-6.5,0-4.07,5.21-16.26,9.2-21.52,1.26-1.66,2.67-3.59,3.14-4.28,3.42-5.13,16.85-19.57,20.15-21.68,3-1.91,3.52-1.94,5.27-.32" transform="translate(0 0.49)"/><path id="a54ef78b-324c-43e2-8b6b-51cac612f80c" data-name="object-2-2" class="a33785be-d3b8-434f-86a5-a5506021ed10" d="M262,206.08a4.39,4.39,0,0,0,2.1.84c1.4,0,3.84,1.36,7.29,4a16.28,16.28,0,0,0,3.43,2.22,29.53,29.53,0,0,1,4.61,3.08,25.1,25.1,0,0,0,4.72,3.09c.89,0,20.4,19.77,24.09,24.41,1.69,2.13,4.41,5.22,6,6.85a22.48,22.48,0,0,1,2.95,3.32,18.1,18.1,0,0,0,2.38,3c3,3.29,4.91,5.63,4.91,5.9a95.18,95.18,0,0,0,5.9,8.39,53.25,53.25,0,0,1,3.16,4.63c.36.69.87,1.26,1.12,1.26s.47.34.47.74a12.58,12.58,0,0,0,2,3.51,15.48,15.48,0,0,1,2,3.25,14.79,14.79,0,0,0,2,3.23,24.21,24.21,0,0,1,2,3,22.51,22.51,0,0,0,1.77,2.87c1.68,2.49,3.27,5.43,8.51,15.66,1.26,2.47,2.49,4.74,2.73,5a55.22,55.22,0,0,1,4.37,6.23,7.43,7.43,0,0,0,1.26,1.85c.7.84,1.77,2.23,2.39,3.09a26.87,26.87,0,0,0,1.82,2.31,2.43,2.43,0,0,1,.7,1.3c0,.3.63,1.05,1.4,1.66s1.4,1.33,1.4,1.6a2.87,2.87,0,0,0,1,1.35,36.47,36.47,0,0,1,2.92,3.27c3.4,4.21,9.31,7.41,15.34,8.31,3.69.55,20.74.34,33.47-.4,5.4-.32,12.71-.71,16.25-.87a95,95,0,0,0,13.18-1.74c3.71-.79,7.37-1.55,8.15-1.69l6.44-1.12c4.25-.73,6.45-1.16,8.14-1.58.15,0,1.29-.42,2.52-.86a25.89,25.89,0,0,1,2.8-.85,48.48,48.48,0,0,0,6.45-2.66A14.31,14.31,0,0,0,488.5,332c.57-.48,1.07-.76,1.12-.63.14.4,4.52-2.59,5.41-3.69,3-3.68,4.85-10.21,3.64-12.52a16.34,16.34,0,0,0-6.45-5.84,24.18,24.18,0,0,1-2.8-1.45,12.32,12.32,0,0,0-2.42-1.13c-2.21-.79-1.4-1.75.88-1,1,.3,2.24.64,2.76.76,2.4.53,9.15,6,10.39,8.36s.54,7.54-1.29,10.62a24.56,24.56,0,0,0-1.72,3.32c-.18.54-.54,1-.82,1s-.49.32-.49.71c0,1-3.32,4.9-4.22,4.9a2.39,2.39,0,0,0-1.52,1.08,4.79,4.79,0,0,1-2.42,1.48,18.77,18.77,0,0,0-3.29,1.22,73.45,73.45,0,0,1-10.05,3.22c-.56.13-1.48.39-2,.56a46.58,46.58,0,0,1-7,1.14c-3.49.42-12.12,1.95-14.3,2.55a36.28,36.28,0,0,1-3.92.79c-1.08.14-2.85.41-3.93.59l-3.08.5c-.62.09-2,.32-3.09.51-2,.34-7,.74-16,1.26-8.44.49-35.2.55-37.29.08a24.89,24.89,0,0,1-4.68-1.82,17.05,17.05,0,0,0-3.25-1.39,2.47,2.47,0,0,1-1.21-.55l-4.14-3.42a52,52,0,0,1-6.17-6.25,147.62,147.62,0,0,1-10.39-16.13,52.93,52.93,0,0,0-3-4.77c-1.29-1.85-3.27-5.08-4.39-7.18a70.45,70.45,0,0,0-3.74-6.16c-2.36-3.31-7.79-11.73-7.79-12.08s-2.88-4.7-9-13.93c-1.06-1.6-4.83-7-8.38-12s-7.13-10.06-7.95-11.23-1.26-2.22-.95-2.32-.31-1.07-1.36-2.14a12.3,12.3,0,0,1-2.14-2.63c-.31-1-8.36-10.25-13.75-15.87-2.51-2.62-5.52-5.84-6.67-7.16-2-2.23-6.52-5.73-7.48-5.73a9.57,9.57,0,0,1-2.35-2,19,19,0,0,0-4.18-3.15,21.19,21.19,0,0,1-3.08-1.84,7.64,7.64,0,0,0-2.25-1.14,9.85,9.85,0,0,1-2.73-1.47,6.16,6.16,0,0,0-3.23-1c-1.79,0-2.34-.48-1.51-1.31.62-.63,2.15-.42,3.3.45" transform="translate(0 0.49)"/><path id="b7616010-63d7-4fc7-90e5-fe13efba77a5" data-name="object-2-3" class="bd5b5106-7f0b-477e-abe0-492c5515546c" d="M264.52,209.17c2,2.16,3.92,5.43,7.64,13,5.34,10.79,9,39.07,6.89,53.8-.33,2.31-.77,5.89-1,7.95-.47,4.53-1.67,6.2-4.24,5.92-1.51-.17-1.74-.43-1.87-2.13-.08-1.06-.41-3.69-.73-5.85s-.71-5.95-.86-8.41a59.29,59.29,0,0,0-.8-6.8,59.91,59.91,0,0,1-.84-6.17A145.57,145.57,0,0,0,267,245.64c-.15-.77-.35-1.78-.43-2.25a15,15,0,0,0-.46-1.68c-.17-.46-.87-3-1.56-5.61s-1.58-5.9-2-7.29-.87-3.15-1-3.92c-1.15-6.17-2.7-12.86-3.25-14a5,5,0,0,1-.52-3.37c0-.31,1.12-.56,2.4-.56,2,0,2.63.32,4.39,2.23" transform="translate(0 0.49)"/><path id="b9ca3cb7-835e-4702-b1c7-8a8f493d952a" data-name="object-2-4" class="bfda632d-0cd9-4d76-bffd-e7c4c51b6122" d="M392.4,300c1.06,1.23,2.26,2.24,2.65,2.24s.71.19.72.42c0,1,7.43,4.68,11.93,6,3.21.92,10.86,1.1,11.38.26a11,11,0,0,1,3-1.32,22.5,22.5,0,0,0,5-2.57l2.28-1.65h13.89c15.5,0,20.73.43,31.63,2.54,13.09,2.53,18.32,4.83,20.58,9.06,1.51,2.82.55,6.38-2.72,10.12-1.6,1.84-2.72,2.47-6.17,3.49-8.23,2.44-19.32,4.53-25.88,4.88-9.06.49-13.39-.45-18.73-4.07a35.15,35.15,0,0,0-3.14-1.86,44,44,0,0,1-5.56-4.33c-5.64-5-8.29-6.12-17.91-7.79-8.75-1.53-12.29-2.5-16.29-4.51-3.28-1.64-8.3-6.15-8.72-7.83a5.4,5.4,0,0,0-1.4-2.28c-1.51-1.37-1.4-3,.21-3,.79,0,2,.85,3.21,2.25" transform="translate(0 0.49)"/><path id="b64f9201-3975-42c5-92e9-cbc9ccb5f005" data-name="object-2-5" class="b77bb3cf-3254-4ac4-b99c-077abc743ea6" d="M286.29,345.9l.16,3.89-2.42.33a29.33,29.33,0,0,1-5.63,0l-3.21-.33v-8l5.47.09,5.46.1.17,3.89" transform="translate(0 0.49)"/></g><g id="b3709e7c-6abf-4531-9aca-8b356efaf8e0" data-name="layer-3"><path id="ece12e78-c75f-4b77-aab5-fcb20241efb9" data-name="object-3-1" class="b7111148-a30c-4894-8778-c90750720fe8" d="M307.05,151.79a59.83,59.83,0,0,1,5.48,3.65,14.47,14.47,0,0,0,3.46,2.15.9.9,0,0,1,.79.43,9.32,9.32,0,0,0,1.87,1.71,82.81,82.81,0,0,1,12.41,12,64.11,64.11,0,0,1,4.7,5.8,24.6,24.6,0,0,0,2.71,3.54,47.9,47.9,0,0,1,4.16,5.7,24.63,24.63,0,0,0,2.49,3.65,32.43,32.43,0,0,1,2.93,4.48,33.13,33.13,0,0,0,2.23,3.65,7.48,7.48,0,0,1,1.09,1.68c.4.77,1.46,2.66,2.36,4.21s2,3.68,2.55,4.76c1.66,3.6,3.66,8.26,3.85,9,.79,2.91,2.59,6.88,3.36,7.42.32.23.4.41.18.42s.35,1.28,1.26,2.84a15.19,15.19,0,0,1,1.67,3.42,35.89,35.89,0,0,0,3.37,6.65,26.22,26.22,0,0,1,1.57,2.8,65.67,65.67,0,0,0,4.07,7.29,4,4,0,0,1,.7,1.12c.21.47,1.11,2.11,2,3.65s2.18,3.87,2.86,5.19,1.45,2.38,1.73,2.38.51.38.51.84.26.84.57.84.56.4.56.89c0,.7,3.18,5.48,7.43,11.17l2.65,3.64c3.62,5,4.26,5.62,9.83,9.39a38.83,38.83,0,0,0,13.87,6,7.83,7.83,0,0,1,2.06.59c1.2.74,11.78,1.33,15.75.87,3.37-.39,4.37-.32,5,.31s.58,1-1.07,2.35c-1,.85-2.47,2.11-3.18,2.81a5.56,5.56,0,0,1-1.62,1.26,2.67,2.67,0,0,0-1.11.7,63.43,63.43,0,0,1-11.92,7.54c-4.57,1.89-7.63,2.14-13,1.05a37.24,37.24,0,0,1-14.55-6.16c-3.5-2.32-9.05-7.73-9.05-8.82a.49.49,0,0,0-.49-.48c-.28,0-.8-.73-1.17-1.63a10.21,10.21,0,0,0-2-2.9,4.31,4.31,0,0,1-1.36-1.93,4.52,4.52,0,0,0-1.12-1.95,4.46,4.46,0,0,1-1.12-2.14,22.33,22.33,0,0,0-2.21-4.87,56.84,56.84,0,0,1-3.33-7.34c-.61-1.82-2-5.31-3.14-7.73s-2.53-6-3.17-7.85a107,107,0,0,0-5.31-12.47,15.74,15.74,0,0,1-1.35-3.67,2.28,2.28,0,0,0-.57-1.39,3.82,3.82,0,0,1-.79-1.67c-.36-1.88-5.44-12.49-9.78-20.41-2.27-4.17-5.67-10.6-7.56-14.3a109.94,109.94,0,0,0-13.78-21.38c-.8-1-2.08-2.56-2.85-3.54a113.3,113.3,0,0,0-9.42-10.78,19.37,19.37,0,0,1-3.44-4.72,9.35,9.35,0,0,0-2.58-3.39,32.18,32.18,0,0,1-6.74-6.63c-1-1.53-1-1.6,0-2.35,1.41-1,1.64-1,4.66.72" transform="translate(0 0.49)"/><path id="bbcbe9a3-15e1-4917-a4f1-1345ada08809" data-name="object-3-2" class="a741756c-4984-47d2-8214-263b090576fa" d="M304.5,247.12a7.29,7.29,0,0,1,3.81,2.09c1.83,1.87,1.36,2.68-.71,1.24-1.8-1.27-6.46-1.15-8.7.21-3.58,2.19-4.38,5.2-7.17,26.94-2.74,21.43-4.41,41.65-5.09,61.55l-.37,10.8h-3.35l.29-7.43c1.33-33.41,6.19-79.63,9.39-89.37,1-3.06,1.41-3.57,3.78-4.89,2.71-1.51,4.42-1.75,8.12-1.14" transform="translate(0 0.49)"/></g><g id="a609270f-1706-49b8-ae78-1243bc424aaa" data-name="layer-4"><path id="e1bc949a-63e5-4608-bac7-780ddcd236e4" data-name="object-4-1" class="f1a63c4f-2854-48cd-b792-2aabf9b5d10f" d="M318.65,165.08c4.08,3.32,11.58,11.53,13.54,14.8a7.71,7.71,0,0,0,1.83,2.38,17.81,17.81,0,0,1,2.89,3.73l4.45,6.62c5.56,8.23,6.73,10.06,6.73,10.5a12.28,12.28,0,0,0,1.47,2.81c2.2,3.49,4.7,8.43,4.95,9.82.29,1.57,3.81,9.63,6.44,14.75l4.52,9c2.25,4.47,4.62,8.89,5.27,9.81a36.15,36.15,0,0,1,2.29,3.93,28.47,28.47,0,0,0,2.16,3.64,22.31,22.31,0,0,1,1.84,3.09,72,72,0,0,0,5.69,8.95,20.45,20.45,0,0,1,1.83,2.88,45,45,0,0,0,3,4.38,63,63,0,0,1,3.9,5.78c.92,1.77,8,8.64,10.18,9.84,9.28,5.16,14.48,6.77,25.5,7.89l6.42.66-4,3a37.63,37.63,0,0,1-7,4.11A25.65,25.65,0,0,0,419,309c-1.15.83-8,.67-11.3-.27-4.54-1.31-12-5-12-6,0-.23-.27-.42-.59-.42-1.09,0-10.63-10.33-10.63-11.51a15.84,15.84,0,0,0-1.68-2.87,78.28,78.28,0,0,1-4.22-7.93c-1.4-3-2.79-5.89-3.09-6.43A4.22,4.22,0,0,1,375,272a21.07,21.07,0,0,0-1.4-3.62,19.78,19.78,0,0,1-1.4-3.67,4.36,4.36,0,0,0-.52-1.58c-1.53-2.9-2.79-5.74-2.54-5.74a8.29,8.29,0,0,0-1.13-2.66,12.73,12.73,0,0,1-1.42-3.55,7.67,7.67,0,0,0-.8-2.53c-.44-.9-2.34-5.29-4.23-9.76-3.53-8.35-6.47-14.84-8.51-18.79-2.73-5.29-6.66-12.6-8.6-16-1.15-2-2.32-4.24-2.6-5-.7-1.81-7.53-12.11-10.14-15.3a13.51,13.51,0,0,1-2.13-3.12,6.7,6.7,0,0,0-1.75-2.17,24.23,24.23,0,0,1-3.12-3.79,102.5,102.5,0,0,0-7.08-8.37c-5.69-6.2-5.4-6.58,1-1.34" transform="translate(0 0.49)"/></g></g><g id="bd731414-5480-4e75-a20c-639c7ae57565" data-name="图层 2"><path id="e456dc10-8bcb-4dad-8887-d863b6b33063" data-name="object-1-1" class="a227b8f1-fe6a-48b5-994a-8373a122422d" d="M496.05,394.65c1.44.83,3.91,2.47,5.48,3.65a14.49,14.49,0,0,0,3.45,2.15.88.88,0,0,1,.79.43,9.63,9.63,0,0,0,1.87,1.71,82.34,82.34,0,0,1,12.41,12,64.11,64.11,0,0,1,4.7,5.8,24,24,0,0,0,2.71,3.54,47.9,47.9,0,0,1,4.16,5.7,25.42,25.42,0,0,0,2.49,3.65,31.52,31.52,0,0,1,2.93,4.48,30,30,0,0,0,2.24,3.65,7.94,7.94,0,0,1,1.08,1.68c.4.77,1.46,2.67,2.37,4.21s2,3.69,2.54,4.77c1.66,3.6,3.66,8.26,3.85,9,.79,2.91,2.59,6.88,3.36,7.42.32.23.41.42.18.42s.35,1.28,1.26,2.84a15.19,15.19,0,0,1,1.67,3.42,36.19,36.19,0,0,0,3.37,6.65,26.22,26.22,0,0,1,1.57,2.8,63.2,63.2,0,0,0,4.08,7.29,4.3,4.3,0,0,1,.69,1.12c.21.47,1.12,2.11,2,3.65s2.19,3.88,2.86,5.19,1.46,2.38,1.74,2.38.51.38.51.84.25.84.56.84.56.4.56.89c0,.7,3.18,5.49,7.43,11.17l2.65,3.65c3.62,5,4.26,5.61,9.83,9.38a38.66,38.66,0,0,0,13.87,6,7.83,7.83,0,0,1,2.06.59c1.19.74,11.79,1.33,15.75.88,2.32-.26,4.46-.28,4.77,0a2.67,2.67,0,0,0,1.4.44c.47,0,2.86.42,5.33.92l5.89,1.18c2.12.43,5.75,1.28,7,1.65,6.71,2,12.62,3.49,15.42,4l5,.86c1.7.29,4.09.69,5.33.88a13.19,13.19,0,0,1,3.22.87c.54.29,1,.37,1,.18,0-.55,4,2,6.93,4.48a17.28,17.28,0,0,1,3.56,3.9c1.18,2.28.54,7.54-1.29,10.62a24.56,24.56,0,0,0-1.72,3.32c-.17.54-.54,1-.81,1s-.5.32-.5.71c0,1-3.31,4.9-4.21,4.9a2.41,2.41,0,0,0-1.53,1.08,4.68,4.68,0,0,1-2.42,1.48,18.38,18.38,0,0,0-3.28,1.22,73.91,73.91,0,0,1-10,3.22c-.57.13-1.49.39-2.05.56a46.36,46.36,0,0,1-7,1.14c-3.5.42-12.13,2-14.3,2.55a36.45,36.45,0,0,1-3.93.79c-1.08.14-2.85.41-3.92.59l-3.09.5c-.62.09-2,.32-3.08.51-2,.34-7,.74-16,1.26-8.44.49-35.2.55-37.29.08a23.59,23.59,0,0,1-4.68-1.82,16.23,16.23,0,0,0-3.25-1.38,2.5,2.5,0,0,1-1.21-.56L560.26,586a52,52,0,0,1-6.17-6.25,147.62,147.62,0,0,1-10.39-16.13,52.07,52.07,0,0,0-3-4.77c-1.29-1.85-3.26-5.08-4.39-7.17s-2.81-4.87-3.73-6.17c-2.36-3.31-7.8-11.73-7.8-12.07s-2.88-4.7-9-13.94c-1.06-1.6-4.83-7-8.38-12l-7.95-11.23c-.83-1.17-1.26-2.22-1-2.32s-.3-1.07-1.36-2.14a12.59,12.59,0,0,1-2.14-2.62c-.31-1-8.36-10.25-13.75-15.87-2.51-2.63-5.51-5.85-6.67-7.17-2-2.23-6.52-5.73-7.47-5.73a9.45,9.45,0,0,1-2.36-2,18.36,18.36,0,0,0-4.18-3.15,22,22,0,0,1-3.08-1.85,7.7,7.7,0,0,0-2.24-1.14,10.13,10.13,0,0,1-2.74-1.46,6.21,6.21,0,0,0-3.3-1.05h-2l.36-2.66c.4-3,2.42-10.55,3.21-12.05a5.29,5.29,0,0,0,.51-2,10.17,10.17,0,0,1,1.08-3.23c.59-1.19,1.22-2.54,1.4-3a9.68,9.68,0,0,1,.88-1.68c.31-.47,1.58-2.68,2.83-4.93a50.17,50.17,0,0,1,3.22-5.23c2.4-2.88,3.1-3.65,6.9-7.64a58.84,58.84,0,0,1,7.47-6.56c3.56-2.43,8.19-5,8.19-4.52a10.81,10.81,0,0,0,3.07-1.1c1.76-.78,3.22-1.13,3.4-.83s.84.18,1.54-.31c1.59-1.12,1.73-1.1,4.79.64" transform="translate(0 0.49)"/><path id="fd6cfcb5-456d-4bec-80b6-7026b1735e24" data-name="object-1-2" class="b578181e-3308-49c5-85dc-be76d254bcdf" d="M51.41,79.77a10.3,10.3,0,0,0,2.74,1.47,7.45,7.45,0,0,1,2.24,1.13,22,22,0,0,0,3.08,1.85,18.36,18.36,0,0,1,4.18,3.15,9.43,9.43,0,0,0,2.35,2c1,0,5.52,3.5,7.48,5.74,1.15,1.32,4.16,4.54,6.67,7.16,5.39,5.62,13.44,14.91,13.75,15.87A12.59,12.59,0,0,0,96,120.77c2,2,1.68,3-.5,1.46-1.81-1.26-6.47-1.14-8.7.22-3.59,2.19-4.39,5.19-7.18,26.94-2.74,21.4-4.41,41.65-5.09,61.48l-.36,10.73-2.34.32a29.18,29.18,0,0,1-5.46,0l-3.12-.33-.35-10.44c-.43-13-3-51.6-3.77-57.28-.32-2.31-.72-6.22-.88-8.69a54.88,54.88,0,0,0-.8-6.79,60.3,60.3,0,0,1-.84-6.17,145.88,145.88,0,0,0-1.76-14.8c-.15-.77-.35-1.78-.43-2.24A15,15,0,0,0,54,113.5c-.17-.47-.87-3-1.56-5.61s-1.58-5.91-2-7.29-.87-3.16-1-3.93c-1.15-6.16-2.7-12.86-3.24-14a5,5,0,0,1-.53-3.36c.13-1,4.33-.63,5.75.48" transform="translate(0 0.49)"/><path id="ba5aa691-07f9-4bba-b7b7-9b9158500b0f" data-name="object-2-1" class="b7ca5bb0-bc8e-498f-a06f-f8b9077c4170" d="M296.84,19.21a30.84,30.84,0,0,0,2.86,2.29,8.46,8.46,0,0,1,2.36,2.82c.81,1.71.77,2-1.13,6.13a57.5,57.5,0,0,1-3.6,6.72c-2.51,3.67-7.41,11.66-7.41,12.08A35.61,35.61,0,0,1,288,53.43c-2.32,4.52-3.66,9.3-6.22,22.25-.82,4.14-1.95,6.2-3.42,6.2-.41,0-3-1.59-5.66-3.53s-5.91-4.12-7.14-4.84c-6.07-3.56-6.45-4-6.45-6.5,0-4.07,5.21-16.26,9.2-21.52,1.26-1.66,2.67-3.59,3.14-4.28,3.42-5.13,16.85-19.57,20.15-21.68,3-1.91,3.52-1.94,5.27-.32" transform="translate(0 0.49)"/><path id="b856b04d-ec56-4e7f-9ae4-1c00df0079d7" data-name="object-2-2" class="a5180525-26c6-4c84-ac39-ad1e134c899e" d="M180.64,447.49a4.35,4.35,0,0,0,2.1.85c1.4,0,3.85,1.35,7.29,4a16.55,16.55,0,0,0,3.43,2.22,28.67,28.67,0,0,1,4.61,3.09,25.37,25.37,0,0,0,4.72,3.08c.89,0,20.4,19.78,24.09,24.41,1.7,2.14,4.41,5.22,6,6.85a21.91,21.91,0,0,1,2.94,3.33,17.84,17.84,0,0,0,2.39,3c2.95,3.28,4.9,5.63,4.9,5.89a98.78,98.78,0,0,0,5.9,8.4,54.29,54.29,0,0,1,3.17,4.62c.35.7.86,1.27,1.12,1.27s.47.33.47.74a12.45,12.45,0,0,0,2,3.5,15.18,15.18,0,0,1,2,3.26,15.55,15.55,0,0,0,2,3.23,23.78,23.78,0,0,1,2,3,23.08,23.08,0,0,0,1.77,2.87c1.68,2.5,3.28,5.43,8.51,15.66,1.27,2.47,2.5,4.74,2.73,5A55.22,55.22,0,0,1,279,562a7.27,7.27,0,0,0,1.27,1.86c.69.83,1.76,2.22,2.38,3.08s1.44,1.9,1.82,2.31a2.47,2.47,0,0,1,.7,1.3c0,.31.63,1.06,1.41,1.66s1.4,1.33,1.4,1.6a2.89,2.89,0,0,0,1,1.36,34.87,34.87,0,0,1,2.93,3.27c3.39,4.2,9.31,7.41,15.33,8.3,3.7.55,20.74.35,33.47-.4,5.4-.32,12.71-.71,16.25-.87a94.79,94.79,0,0,0,13.18-1.74c3.71-.79,7.38-1.55,8.15-1.68l6.45-1.12c4.24-.74,6.45-1.17,8.13-1.58.15,0,1.29-.43,2.52-.86a23.64,23.64,0,0,1,2.81-.85,51.27,51.27,0,0,0,6.45-2.66,13.3,13.3,0,0,0,2.44-1.52c.57-.48,1.08-.76,1.12-.63.14.4,4.52-2.59,5.41-3.69,2.95-3.67,4.85-10.21,3.64-12.52a16.53,16.53,0,0,0-6.44-5.84,23,23,0,0,1-2.81-1.45,13.59,13.59,0,0,0-2.42-1.13c-2.2-.78-1.4-1.74.89-1,1,.3,2.24.64,2.75.76,2.4.53,9.16,6,10.4,8.37s.53,7.54-1.3,10.61a25.17,25.17,0,0,0-1.72,3.32c-.17.54-.54,1-.81,1s-.5.32-.5.72c0,1-3.31,4.89-4.21,4.89a2.45,2.45,0,0,0-1.53,1.08,4.69,4.69,0,0,1-2.41,1.48,18.19,18.19,0,0,0-3.29,1.22,73.91,73.91,0,0,1-10.05,3.22c-.57.13-1.49.39-2.05.57a48.3,48.3,0,0,1-7,1.13c-3.5.42-12.13,2-14.3,2.55a36.5,36.5,0,0,1-3.93.8c-1.08.14-2.84.4-3.92.58l-3.09.5c-.62.09-2,.32-3.08.51-2,.35-7,.74-16,1.26-8.44.49-35.2.55-37.29.09a24.33,24.33,0,0,1-4.68-1.83,16.23,16.23,0,0,0-3.25-1.38A2.45,2.45,0,0,1,294,588l-4.14-3.42a51.24,51.24,0,0,1-6.17-6.25,149.13,149.13,0,0,1-10.39-16.13,49.92,49.92,0,0,0-3-4.77c-1.29-1.85-3.26-5.08-4.39-7.17s-2.81-4.87-3.73-6.17c-2.36-3.31-7.8-11.73-7.8-12.07s-2.88-4.7-9-13.94c-1.06-1.59-4.83-7-8.38-12L229,494.86c-.83-1.17-1.25-2.22-1-2.32s-.3-1.06-1.36-2.14a12.59,12.59,0,0,1-2.14-2.62c-.31-1-8.35-10.25-13.75-15.87-2.51-2.62-5.51-5.85-6.67-7.16-2-2.24-6.52-5.74-7.47-5.74a9.45,9.45,0,0,1-2.36-2,18.53,18.53,0,0,0-4.17-3.15,21.63,21.63,0,0,1-3.09-1.85,7.45,7.45,0,0,0-2.24-1.13,10.46,10.46,0,0,1-2.74-1.47,6.09,6.09,0,0,0-3.23-1c-1.79,0-2.34-.48-1.51-1.3.63-.63,2.16-.42,3.3.44" transform="translate(0 0.49)"/><path id="b9d7ac20-bb1d-41bd-90f2-697315a34d62" data-name="object-2-3" class="ab908dcc-5501-40f8-90f8-d6c51b6db91f" d="M159.13,28.75c2,2.17,3.93,5.44,7.65,13,5.34,10.79,8.95,39.07,6.88,53.8-.33,2.31-.77,5.89-1,7.95-.47,4.53-1.68,6.2-4.25,5.92-1.51-.17-1.73-.43-1.87-2.13-.08-1.06-.41-3.69-.73-5.85s-.7-6-.86-8.41a55.09,55.09,0,0,0-.8-6.8,59.91,59.91,0,0,1-.84-6.17,145.57,145.57,0,0,0-1.76-14.79c-.15-.78-.35-1.78-.43-2.25a13.12,13.12,0,0,0-.46-1.68c-.17-.46-.87-3-1.56-5.61s-1.58-5.9-2-7.29-.87-3.15-1-3.92c-1.16-6.17-2.71-12.86-3.25-14a5,5,0,0,1-.52-3.37c0-.31,1.11-.56,2.39-.56,2,0,2.63.32,4.39,2.22" transform="translate(0 0.49)"/><path id="f9c79478-e58c-4620-b476-05affe443b8e" data-name="object-2-4" class="ace7a384-3e5e-4ce9-84dd-3328db1a6909" d="M555.1,349.91c1.06,1.23,2.26,2.24,2.65,2.24s.72.19.72.42c0,1,7.43,4.68,11.93,6,3.21.92,10.86,1.1,11.38.26a11,11,0,0,1,3-1.32,22.5,22.5,0,0,0,5-2.57l2.28-1.65H606c15.5,0,20.73.43,31.63,2.54,13.09,2.53,18.32,4.83,20.58,9.06,1.51,2.82.55,6.38-2.72,10.12-1.6,1.84-2.72,2.47-6.16,3.49-8.24,2.44-19.33,4.53-25.89,4.88-9.06.49-13.39-.45-18.73-4.07a35.15,35.15,0,0,0-3.14-1.86,44.76,44.76,0,0,1-5.56-4.33c-5.64-5-8.29-6.12-17.91-7.79-8.75-1.53-12.28-2.5-16.29-4.51-3.27-1.64-8.29-6.15-8.72-7.83a5.4,5.4,0,0,0-1.4-2.28c-1.51-1.37-1.4-3,.21-3,.79,0,2,.86,3.21,2.25" transform="translate(0 0.49)"/><path id="f286b31b-a248-49b6-911b-35ea2f18e405" data-name="object-2-5" class="bc1d58e0-4fbb-4fc8-96db-a07557fa757f" d="M65.52,463.69l.16,3.89-2.42.33a29.33,29.33,0,0,1-5.63,0l-3.21-.33v-8l5.47.1,5.46.09.17,3.9" transform="translate(0 0.49)"/><path id="ac909e10-6dc5-4ef8-8303-0365d3ce4bad" data-name="object-3-1" class="eff1772c-dcaa-442c-8025-d025eeda79f6" d="M397.06,2.37C398.5,3.2,401,4.84,402.54,6A14.47,14.47,0,0,0,406,8.17a.92.92,0,0,1,.79.43,9,9,0,0,0,1.87,1.71,82.43,82.43,0,0,1,12.41,12,62.11,62.11,0,0,1,4.69,5.79,24,24,0,0,0,2.71,3.54,46.5,46.5,0,0,1,4.16,5.7,25.35,25.35,0,0,0,2.5,3.65,31.91,31.91,0,0,1,2.92,4.49,32.47,32.47,0,0,0,2.24,3.64,7.81,7.81,0,0,1,1.08,1.68c.41.77,1.47,2.67,2.37,4.21s2.05,3.69,2.55,4.77c1.65,3.6,3.65,8.26,3.85,9,.79,2.91,2.58,6.88,3.35,7.42.33.23.41.42.19.42s.34,1.28,1.26,2.84a15.62,15.62,0,0,1,1.67,3.42A36.13,36.13,0,0,0,460,89.49a25.45,25.45,0,0,1,1.57,2.8,64.92,64.92,0,0,0,4.08,7.29,4.2,4.2,0,0,1,.7,1.13c.21.46,1.11,2.1,2,3.64s2.18,3.88,2.86,5.19,1.45,2.38,1.73,2.38.51.38.51.84.25.84.56.84.56.4.56.89c0,.7,3.19,5.49,7.43,11.17.23.31,1.43,2,2.65,3.65,3.63,5,4.26,5.61,9.83,9.38a38.55,38.55,0,0,0,13.87,6,7.81,7.81,0,0,1,2.07.59c1.2.74,11.78,1.33,15.75.87,3.37-.38,4.37-.32,5,.32s.57,1-1.08,2.34c-1,.85-2.46,2.12-3.17,2.81a5.55,5.55,0,0,1-1.63,1.26,2.77,2.77,0,0,0-1.1.7,63.24,63.24,0,0,1-11.92,7.54c-4.58,1.9-7.63,2.14-13,1.06A37.67,37.67,0,0,1,484.72,156c-3.5-2.33-9-7.74-9-8.82a.5.5,0,0,0-.5-.49c-.27,0-.79-.73-1.16-1.62a10.12,10.12,0,0,0-2-2.91,4.31,4.31,0,0,1-1.36-1.93,4.63,4.63,0,0,0-1.12-1.95,4.42,4.42,0,0,1-1.12-2.14,22.86,22.86,0,0,0-2.21-4.87,56.76,56.76,0,0,1-3.33-7.33c-.62-1.83-2-5.31-3.14-7.74s-2.54-6-3.17-7.85a108.33,108.33,0,0,0-5.32-12.47,15.4,15.4,0,0,1-1.34-3.67,2.25,2.25,0,0,0-.58-1.39,3.88,3.88,0,0,1-.78-1.67c-.36-1.87-5.44-12.48-9.78-20.41-2.27-4.16-5.68-10.6-7.56-14.3A111.19,111.19,0,0,0,417.4,33.06c-.8-1-2.08-2.55-2.85-3.54a117.51,117.51,0,0,0-9.42-10.78A19.18,19.18,0,0,1,401.69,14a9.43,9.43,0,0,0-2.58-3.39A31.94,31.94,0,0,1,392.37,4c-1-1.53-1-1.59,0-2.35,1.42-1,1.64-1,4.67.72" transform="translate(0 0.49)"/><path id="b2187809-a140-4033-94e5-9d069af3fd4f" data-name="object-3-2" class="a9d7071e-50f6-4f5e-b7be-8eaea220ec40" d="M59.51,292.52a7.43,7.43,0,0,1,3.81,2.09c1.83,1.87,1.36,2.69-.71,1.24-1.8-1.26-6.46-1.15-8.7.22-3.58,2.18-4.38,5.19-7.17,26.94-2.74,21.42-4.41,41.64-5.09,61.54l-.37,10.8H37.93l.29-7.43c1.33-33.4,6.19-79.63,9.39-89.37,1-3.06,1.41-3.57,3.78-4.89,2.71-1.51,4.42-1.75,8.12-1.14" transform="translate(0 0.49)"/><path id="f31860bf-25ef-4c11-b280-b45bd303935e" data-name="object-4-1" class="b725d669-ee86-4c7a-b131-64001e14f587" d="M569.7,92.41c4.08,3.33,11.58,11.53,13.54,14.8a7.48,7.48,0,0,0,1.84,2.39,18.35,18.35,0,0,1,2.89,3.72c1.36,2.05,3.37,5,4.45,6.63,5.55,8.22,6.73,10,6.73,10.5a12.73,12.73,0,0,0,1.46,2.81c2.21,3.49,4.7,8.43,4.95,9.81.29,1.57,3.81,9.63,6.44,14.76.24.46,2.28,4.5,4.52,9s4.62,8.89,5.28,9.82a34.41,34.41,0,0,1,2.28,3.92,28.65,28.65,0,0,0,2.16,3.65,21.8,21.8,0,0,1,1.84,3.08,71.28,71.28,0,0,0,5.7,8.95,20.13,20.13,0,0,1,1.82,2.89,46,46,0,0,0,3,4.37,66.74,66.74,0,0,1,3.9,5.78c.91,1.78,8,8.64,10.17,9.84,9.28,5.17,14.48,6.77,25.5,7.9l6.43.65-4,3a37.08,37.08,0,0,1-7,4.11,27,27,0,0,0-3.5,1.53c-1.15.84-8,.67-11.3-.27-4.53-1.31-12-5-12-6,0-.23-.27-.42-.59-.42-1.09,0-10.63-10.33-10.63-11.51a15.84,15.84,0,0,0-1.68-2.87,76.14,76.14,0,0,1-4.22-7.93c-1.4-3-2.79-5.89-3.09-6.42a4.26,4.26,0,0,1-.55-1.53,20.78,20.78,0,0,0-1.4-3.61,20.06,20.06,0,0,1-1.4-3.67,4.25,4.25,0,0,0-.52-1.58c-1.53-2.91-2.79-5.74-2.54-5.74a7.68,7.68,0,0,0-1.13-2.66,12.76,12.76,0,0,1-1.42-3.56,7.74,7.74,0,0,0-.8-2.53c-.43-.9-2.34-5.29-4.23-9.76-3.53-8.35-6.47-14.83-8.51-18.79-2.72-5.28-6.66-12.6-8.6-16-1.15-2-2.32-4.24-2.6-5-.7-1.8-7.53-12.11-10.14-15.3a13.29,13.29,0,0,1-2.13-3.12,6.7,6.7,0,0,0-1.75-2.16,24.08,24.08,0,0,1-3.11-3.79,105.06,105.06,0,0,0-7.09-8.38c-5.69-6.19-5.4-6.57,1-1.34" transform="translate(0 0.49)"/><line class="a1104c28-f888-40c3-b539-d027ee04c56d" x1="456.14" y1="411.77" x2="406.72" y2="332.73"/><line class="a1104c28-f888-40c3-b539-d027ee04c56d" x1="268.64" y1="504.35" x2="366.49" y2="334.11"/><line class="a1104c28-f888-40c3-b539-d027ee04c56d" x1="71.48" y1="460.09" x2="279.64" y2="346.53"/><line class="a1104c28-f888-40c3-b539-d027ee04c56d" x1="54.42" y1="348.15" x2="286.45" y2="319.87"/><line class="a1104c28-f888-40c3-b539-d027ee04c56d" x1="82.78" y1="167.72" x2="278.25" y2="298.87"/><line class="a1104c28-f888-40c3-b539-d027ee04c56d" x1="183.57" y1="92.92" x2="269.96" y2="240.15"/><line class="a1104c28-f888-40c3-b539-d027ee04c56d" x1="290.2" y1="82.37" x2="290.2" y2="181.05"/><line class="a1104c28-f888-40c3-b539-d027ee04c56d" x1="454.43" y1="122.06" x2="357.91" y2="216.89"/><line class="a1104c28-f888-40c3-b539-d027ee04c56d" x1="609.82" y1="191.15" x2="381.64" y2="274.34"/><line class="a1104c28-f888-40c3-b539-d027ee04c56d" x1="548.97" y1="353.34" x2="470.6" y2="322.54"/></g></svg>