<?xml version="1.0" standalone="no"?><!DOCTYPE svg PUBLIC "-//W3C//DTD SVG 20010904//EN" "http://www.w3.org/TR/2001/REC-SVG-20010904/DTD/svg10.dtd"><svg version="1.0" xmlns="http://www.w3.org/2000/svg" width="600pt" height="453pt" viewBox="0 0 600 453" preserveAspectRatio="xMidYMid meet"><defs><linearGradient id="linear-gradient-1-1" x1="0.00%" y1="100.00%" x2="0.00%" y2="0.00%"><stop offset="0%" style="stop-color:rgb(213,77,79);stop-opacity:1.000" /><stop offset="100%" style="stop-color:rgb(153,0,0);stop-opacity:1.000" /></linearGradient><linearGradient id="linear-gradient-1-2" x1="0.00%" y1="100.00%" x2="128.28%" y2="97.09%"><stop offset="0%" style="stop-color:rgb(201,46,53);stop-opacity:0.999" /><stop offset="100%" style="stop-color:rgb(149,0,1);stop-opacity:1.000" /></linearGradient><linearGradient id="linear-gradient-2-1" x1="0.00%" y1="100.00%" x2="104.82%" y2="1.38%"><stop offset="0%" style="stop-color:rgb(243,175,175);stop-opacity:0.806" /><stop offset="100%" style="stop-color:rgb(255,102,103);stop-opacity:0.801" /></linearGradient><linearGradient id="linear-gradient-2-2" x1="0.00%" y1="0.00%" x2="113.86%" y2="48.84%"><stop offset="0%" style="stop-color:rgb(8,0,0);stop-opacity:0.292" /><stop offset="100%" style="stop-color:rgb(231,153,164);stop-opacity:1.000" /></linearGradient><linearGradient id="linear-gradient-2-3" x1="0.00%" y1="100.00%" x2="170.04%" y2="94.56%"><stop offset="0%" style="stop-color:rgb(255,156,167);stop-opacity:0.527" /><stop offset="100%" style="stop-color:rgb(255,126,137);stop-opacity:0.410" /></linearGradient><linearGradient id="linear-gradient-2-4" x1="0.00%" y1="100.00%" x2="53.90%" y2="-72.95%"><stop offset="0%" style="stop-color:rgb(255,160,162);stop-opacity:0.718" /><stop offset="100%" style="stop-color:rgb(255,125,129);stop-opacity:0.616" /></linearGradient><linearGradient id="linear-gradient-2-5" x1="0.00%" y1="0.00%" x2="120.08%" y2="29.94%"><stop offset="0%" style="stop-color:rgb(174,255,168);stop-opacity:0.415" /><stop offset="100%" style="stop-color:rgb(163,246,157);stop-opacity:0.371" /></linearGradient><linearGradient id="linear-gradient-3-1" x1="0.00%" y1="100.00%" x2="0.00%" y2="0.00%"><stop offset="0%" style="stop-color:rgb(222,192,191);stop-opacity:0.753" /><stop offset="100%" style="stop-color:rgb(183,55,42);stop-opacity:0.825" /></linearGradient><linearGradient id="linear-gradient-3-2" x1="0.00%" y1="100.00%" x2="145.98%" y2="97.24%"><stop offset="0%" style="stop-color:rgb(100,46,37);stop-opacity:0.762" /><stop offset="100%" style="stop-color:rgb(69,16,7);stop-opacity:0.882" /></linearGradient><linearGradient id="linear-gradient-4-1" x1="0.00%" y1="100.00%" x2="116.36%" y2="92.23%"><stop offset="0%" style="stop-color:rgb(234,197,140);stop-opacity:0.663" /><stop offset="100%" style="stop-color:rgb(208,255,130);stop-opacity:0.240" /></linearGradient></defs><g id="layer-1"><path d="M1803 4235 c-13 -9 -24 -11 -28 -6 -3 6 -29 -1 -60 -15 -30 -13 -55 -22 -55 -19 0 8 -82 -37 -146 -81 -34 -22 -93 -75 -133 -117 -68 -71 -80 -85 -123 -136 -10 -11 -36 -53 -58 -93 -22 -40 -45 -80 -50 -88 -6 -8 -13 -22 -16 -30 -3 -8 -14 -32 -25 -53 -10 -22 -19 -48 -19 -58 0 -11 -4 -27 -9 -37 -14 -26 -50 -161 -57 -214 l-7 -48 35 0 c20 0 46 -8 59 -19 13 -10 35 -22 49 -26 14 -4 32 -13 40 -20 8 -7 33 -22 55 -33 22 -11 56 -36 74 -56 19 -20 38 -36 42 -36 17 0 99 -62 134 -102 20 -24 74 -81 119 -128 96 -100 239 -266 245 -283 2 -7 19 -28 38 -47 19 -19 30 -36 24 -38 -5 -2 2 -20 17 -41 15 -21 79 -111 142 -201 63 -89 130 -185 149 -213 110 -165 161 -244 161 -249 0 -6 97 -156 139 -215 17 -23 47 -73 67 -110 20 -37 55 -95 78 -128 23 -33 47 -71 54 -85 27 -55 140 -231 185 -288 27 -33 76 -83 110 -111 34 -28 67 -56 74 -61 7 -6 16 -10 22 -10 5 0 31 -11 58 -25 26 -13 64 -28 83 -32 37 -9 514 -7 665 1 160 10 249 17 285 23 19 3 44 7 55 9 11 2 36 6 55 9 19 3 51 8 70 10 19 3 51 9 70 14 39 11 193 38 255 46 68 8 106 14 125 20 10 3 27 8 37 10 57 14 154 45 179 58 16 8 42 17 59 21 16 4 35 16 43 27 7 10 19 19 27 19 16 0 75 69 75 87 0 7 4 13 9 13 5 0 11 8 14 18 4 9 17 36 31 59 33 55 44 148 23 189 -8 16 -37 47 -64 70 -52 44 -123 89 -123 79 0 -3 -8 -1 -17 4 -10 5 -36 12 -58 15 -22 4 -65 11 -95 16 -30 5 -71 12 -90 15 -50 9 -155 36 -275 71 -22 6 -87 22 -125 29 -14 3 -61 13 -105 21 -44 9 -87 17 -95 17 -8 0 -19 3 -25 7 -5 5 -44 4 -85 0 -71 -8 -260 2 -281 16 -5 3 -22 7 -37 10 -74 13 -169 54 -247 107 -99 67 -111 78 -175 167 -22 30 -43 60 -48 65 -75 101 -132 187 -132 199 0 9 -4 16 -10 16 -5 0 -10 7 -10 15 0 8 -4 15 -9 15 -5 0 -19 19 -31 43 -12 23 -35 65 -51 92 -16 28 -32 57 -36 65 -4 8 -9 17 -12 20 -7 6 -38 61 -73 130 -13 25 -25 47 -28 50 -10 10 -60 108 -60 119 0 5 -13 33 -30 61 -16 27 -26 50 -22 50 4 0 2 4 -4 8 -13 9 -45 80 -59 132 -4 13 -39 96 -69 160 -9 19 -29 58 -45 85 -16 28 -35 61 -43 75 -7 14 -15 27 -19 30 -3 3 -21 32 -40 65 -18 33 -42 69 -52 80 -10 11 -30 40 -45 65 -14 25 -47 71 -74 102 -26 31 -48 59 -48 63 0 3 -38 50 -84 103 -78 90 -149 159 -221 214 -16 12 -31 26 -33 30 -2 5 -9 8 -14 8 -6 0 -34 17 -62 38 -54 41 -139 92 -153 92 -5 0 -18 -7 -30 -15z" fill="url(#linear-gradient-1-1)" id="region-1-1" transform="translate(0.000000,453.000000) scale(0.100000,-0.100000)"/><path d="M1009 3230 c-3 -26 -2 -37 9 -60 10 -21 37 -140 58 -250 3 -14 11 -45 18 -70 7 -25 23 -83 36 -130 12 -47 24 -92 27 -100 3 -8 7 -22 9 -30 1 -8 5 -26 7 -40 11 -55 20 -132 32 -264 3 -38 10 -87 15 -110 5 -22 11 -77 14 -121 3 -44 10 -114 16 -155 14 -101 59 -790 67 -1021 l6 -187 56 -5 c30 -3 74 -3 97 0 l42 5 6 192 c12 353 42 714 91 1096 50 388 64 441 128 480 40 25 123 27 155 4 39 -27 45 -10 9 26 -19 19 -36 40 -38 47 -6 17 -149 183 -245 283 -45 47 -99 104 -119 128 -35 40 -117 102 -134 102 -4 0 -23 16 -42 36 -18 20 -52 45 -74 56 -22 11 -47 26 -55 33 -8 7 -26 16 -40 20 -14 4 -36 16 -49 26 -25 20 -100 26 -102 9z" fill="url(#linear-gradient-1-2)" id="region-1-2" transform="translate(0.000000,453.000000) scale(0.100000,-0.100000)"/></g><g id="layer-2"><path d="M1779 4112 c-58 -38 -298 -295 -359 -387 -8 -12 -33 -47 -56 -76 -71 -94 -164 -311 -164 -384 0 -45 7 -52 115 -116 22 -13 79 -51 127 -86 48 -35 94 -63 101 -63 26 0 47 37 61 111 46 230 70 316 111 396 19 38 35 71 35 75 0 7 87 150 132 215 16 24 45 77 64 120 34 74 35 79 20 109 -8 18 -27 40 -42 51 -14 10 -37 28 -51 41 -31 28 -40 28 -94 -6z" fill="url(#linear-gradient-2-1)" id="region-2-1" transform="translate(0.000000,453.000000) scale(0.100000,-0.100000)"/><path d="M1027 3263 c-15 -14 -5 -23 27 -23 18 0 44 -8 57 -19 13 -10 35 -22 49 -26 14 -4 32 -13 40 -20 8 -7 33 -22 55 -33 22 -11 56 -36 74 -56 19 -20 38 -36 42 -36 17 0 99 -62 134 -102 20 -24 74 -81 119 -128 96 -100 239 -266 245 -283 2 -7 19 -28 38 -47 19 -19 30 -36 24 -38 -5 -2 2 -20 17 -41 15 -21 79 -111 142 -201 63 -89 130 -185 149 -213 110 -165 161 -244 161 -249 0 -6 97 -156 139 -215 17 -23 47 -73 67 -110 20 -37 55 -95 78 -128 23 -33 47 -71 54 -85 27 -55 140 -231 185 -288 27 -33 76 -83 110 -111 34 -28 67 -56 74 -61 7 -6 16 -10 22 -10 5 0 31 -11 58 -25 26 -13 64 -28 83 -32 37 -9 514 -7 665 1 160 10 249 17 285 23 19 3 44 7 55 9 11 2 36 6 55 9 19 3 51 8 70 10 19 3 51 9 70 14 39 11 193 38 255 46 68 8 106 14 125 20 10 3 27 8 37 10 57 14 154 45 179 58 16 8 42 17 59 21 16 4 35 16 43 27 7 10 19 19 27 19 16 0 75 69 75 87 0 7 4 13 9 13 5 0 11 8 14 17 4 10 17 37 31 60 33 55 44 148 23 189 -22 43 -142 140 -185 149 -9 2 -32 8 -49 14 -41 12 -56 -5 -16 -19 15 -5 35 -15 43 -20 8 -6 31 -17 50 -26 41 -19 96 -68 115 -104 22 -41 -12 -158 -65 -223 -16 -20 -94 -73 -96 -66 -1 2 -10 -3 -20 -11 -11 -9 -30 -21 -44 -27 -54 -26 -105 -47 -115 -48 -5 -1 -28 -7 -50 -15 -22 -8 -42 -15 -45 -15 -30 -8 -69 -15 -145 -29 -49 -8 -101 -17 -115 -20 -14 -2 -79 -15 -145 -30 -69 -14 -170 -28 -235 -31 -63 -2 -194 -9 -290 -15 -227 -13 -531 -17 -597 -7 -107 16 -213 73 -273 148 -19 23 -43 50 -52 58 -10 9 -18 19 -18 24 0 5 -11 18 -25 29 -14 11 -25 24 -25 29 0 6 -6 16 -12 24 -7 7 -22 25 -33 41 -11 15 -30 40 -42 55 -13 15 -23 30 -23 33 0 5 -40 61 -78 111 -4 6 -26 46 -49 90 -93 182 -121 235 -151 279 -18 26 -32 49 -32 51 0 3 -16 27 -35 54 -19 26 -35 52 -35 57 0 5 -16 31 -35 58 -19 27 -35 55 -35 63 0 7 -4 13 -8 13 -5 0 -14 10 -20 23 -7 12 -32 49 -57 82 -56 75 -105 145 -105 150 0 4 -35 46 -87 105 -24 26 -43 50 -43 53 0 4 -24 30 -52 60 -29 29 -78 84 -108 122 -66 82 -414 435 -430 435 -6 0 -44 25 -84 55 -40 30 -77 55 -82 55 -5 0 -32 18 -61 40 -61 46 -105 70 -130 70 -10 0 -27 7 -37 15 -21 16 -48 20 -59 8z" fill="url(#linear-gradient-2-2)" id="region-2-2" transform="translate(0.000000,453.000000) scale(0.100000,-0.100000)"/><path d="M1009 3230 c-3 -26 -2 -37 9 -60 10 -21 37 -140 58 -250 3 -14 11 -45 18 -70 7 -25 23 -83 36 -130 12 -47 24 -92 27 -100 3 -8 7 -22 9 -30 1 -8 5 -26 7 -40 11 -55 20 -132 32 -264 3 -38 10 -87 15 -110 5 -22 11 -77 14 -121 3 -44 10 -111 15 -150 6 -38 12 -85 13 -104 3 -31 7 -35 34 -38 45 -5 67 24 75 105 4 37 12 101 18 142 37 263 -28 767 -123 959 -66 134 -101 193 -136 231 -32 34 -43 40 -78 40 -23 0 -43 -4 -43 -10z" fill="url(#linear-gradient-2-3)" id="region-2-3" transform="translate(0.000000,453.000000) scale(0.100000,-0.100000)"/><path d="M3330 1602 c0 -11 9 -27 19 -36 11 -10 22 -28 25 -41 8 -30 97 -110 156 -139 71 -36 134 -54 290 -81 172 -30 219 -50 319 -139 40 -35 85 -70 100 -77 14 -7 39 -22 55 -33 96 -65 173 -81 334 -73 117 7 315 44 462 87 61 18 81 30 110 63 58 66 75 130 48 180 -40 75 -133 116 -367 162 -194 37 -287 45 -564 45 l-247 0 -41 -29 c-22 -17 -63 -37 -90 -46 -27 -9 -51 -20 -53 -24 -9 -15 -146 -12 -203 5 -80 23 -213 89 -213 107 0 4 -6 7 -13 7 -7 0 -28 18 -47 40 -37 43 -80 55 -80 22z" fill="url(#linear-gradient-2-4)" id="region-2-4" transform="translate(0.000000,453.000000) scale(0.100000,-0.100000)"/><path d="M1320 764 l0 -71 57 -6 c32 -3 77 -3 101 0 l43 6 -3 69 -3 70 -98 1 -97 2 0 -71z" fill="url(#linear-gradient-2-5)" id="region-2-5" transform="translate(0.000000,453.000000) scale(0.100000,-0.100000)"/></g><g id="layer-3"><path d="M1805 4236 c-18 -13 -18 -14 -1 -42 22 -33 82 -91 121 -118 15 -10 36 -37 46 -60 10 -23 37 -61 61 -84 52 -51 111 -119 168 -193 14 -17 37 -46 51 -63 93 -113 168 -229 246 -381 33 -66 94 -181 134 -255 78 -141 168 -331 175 -364 2 -11 8 -24 14 -30 5 -5 10 -17 10 -25 0 -7 11 -37 24 -65 55 -117 75 -164 95 -222 11 -34 37 -97 56 -140 20 -44 45 -106 56 -138 11 -33 38 -92 60 -131 21 -39 39 -79 39 -87 0 -8 9 -25 20 -38 11 -13 20 -28 20 -35 0 -6 11 -22 24 -34 14 -13 30 -36 36 -52 7 -16 16 -29 21 -29 5 0 9 -4 9 -9 0 -19 99 -115 161 -157 90 -60 162 -90 260 -110 95 -19 150 -15 232 19 50 21 175 100 212 135 8 6 16 12 20 12 3 0 16 10 29 23 12 12 38 34 56 50 30 24 32 29 20 41 -12 12 -30 13 -90 6 -71 -8 -259 2 -281 16 -5 3 -22 7 -37 10 -74 13 -169 54 -247 107 -99 67 -111 78 -175 167 -22 30 -43 60 -48 65 -75 101 -132 187 -132 199 0 9 -4 16 -10 16 -5 0 -10 7 -10 15 0 8 -4 15 -9 15 -5 0 -19 19 -31 43 -12 23 -35 65 -51 92 -16 28 -32 57 -36 65 -4 8 -9 17 -12 20 -7 6 -38 61 -73 130 -13 25 -25 47 -28 50 -10 10 -60 108 -60 119 0 5 -13 33 -30 61 -16 27 -26 50 -22 50 4 0 2 4 -4 8 -13 9 -45 80 -59 132 -4 13 -39 96 -69 160 -9 19 -29 58 -45 85 -16 28 -35 61 -43 75 -7 14 -15 27 -19 30 -3 3 -21 32 -40 65 -18 33 -42 69 -52 80 -10 11 -30 40 -45 65 -14 25 -47 71 -74 102 -26 31 -48 59 -48 63 0 3 -38 50 -84 103 -78 90 -149 159 -221 214 -16 12 -31 26 -33 30 -2 5 -9 8 -14 8 -6 0 -34 17 -62 38 -55 42 -139 92 -153 92 -5 0 -18 -6 -28 -14z" fill="url(#linear-gradient-3-1)" id="region-3-1" transform="translate(0.000000,453.000000) scale(0.100000,-0.100000)"/><path d="M1698 2503 c-42 -23 -49 -32 -67 -87 -58 -174 -144 -998 -168 -1593 l-5 -133 30 0 30 0 6 192 c12 355 42 716 91 1098 50 388 64 441 128 480 40 25 123 27 155 4 37 -26 45 -11 13 22 -50 51 -140 58 -213 17z" fill="url(#linear-gradient-3-2)" id="region-3-2" transform="translate(0.000000,453.000000) scale(0.100000,-0.100000)"/></g><g id="layer-4"><path d="M2077 3963 c56 -62 113 -129 126 -150 14 -21 39 -51 56 -67 17 -17 31 -34 31 -39 0 -5 17 -30 38 -56 47 -56 168 -240 181 -272 5 -13 26 -53 46 -89 35 -60 105 -191 154 -285 36 -71 88 -186 151 -335 34 -80 68 -158 76 -174 8 -16 14 -36 14 -45 0 -9 11 -37 25 -64 14 -26 23 -47 20 -47 -4 0 18 -51 46 -102 5 -10 9 -23 9 -29 0 -5 11 -35 25 -65 14 -30 25 -59 25 -64 0 -6 4 -18 10 -28 5 -9 30 -61 55 -114 25 -54 59 -117 75 -142 17 -24 30 -47 30 -51 0 -21 170 -205 190 -205 5 0 10 -3 10 -7 0 -18 133 -84 214 -107 58 -17 181 -20 201 -5 6 4 34 16 62 27 29 11 85 44 125 74 l72 53 -114 12 c-197 20 -290 48 -455 140 -39 22 -165 144 -181 176 -9 16 -40 63 -70 103 -30 40 -54 75 -54 78 0 3 -15 26 -32 51 -56 80 -87 129 -102 160 -8 17 -23 41 -33 55 -10 14 -28 43 -38 65 -11 22 -30 54 -41 70 -12 17 -54 95 -94 175 -40 80 -76 152 -81 160 -47 91 -109 235 -115 263 -4 25 -49 113 -88 175 -14 23 -26 45 -26 50 0 8 -21 41 -120 187 -19 29 -55 82 -79 119 -25 36 -48 66 -52 66 -4 0 -19 19 -33 43 -35 58 -168 204 -241 263 -114 94 -119 87 -18 -23z" fill="url(#linear-gradient-4-1)" id="region-4-1" transform="translate(0.000000,453.000000) scale(0.100000,-0.100000)"/></g></svg>