<?xml version="1.0" standalone="no"?>
<!DOCTYPE svg PUBLIC "-//W3C//DTD SVG 20010904//EN"
 "http://www.w3.org/TR/2001/REC-SVG-20010904/DTD/svg10.dtd">
<svg version="1.0" xmlns="http://www.w3.org/2000/svg"
 width="600.000000pt" height="453.000000pt" viewBox="0 0 600.000000 453.000000"
 preserveAspectRatio="xMidYMid meet">
<defs>
<linearGradient id="grad_0" x1="0%" y1="100%" x2="100%" y2="100%">
<stop offset="0%" style="stop-color:rgb(254, 254, 254); stop-opacity:1"/>
<stop offset="100%" style="stop-color:rgb(254, 254, 254); stop-opacity:1"/>
</linearGradient>
<linearGradient id="grad_1" x1="100%" y1="6%" x2="50%" y2="-3%">
<stop offset="0%" style="stop-color:rgb(131, 27, 26); stop-opacity:1"/>
<stop offset="100%" style="stop-color:rgb(233, 161, 130); stop-opacity:1"/>
</linearGradient>
<linearGradient id="grad_2" x1="0%" y1="100%" x2="100%" y2="100%">
<stop offset="0%" style="stop-color:rgb(221, 86, 90); stop-opacity:1"/>
<stop offset="100%" style="stop-color:rgb(221, 86, 90); stop-opacity:1"/>
</linearGradient>
<linearGradient id="grad_3" x1="56%" y1="8%" x2="88%" y2="19%">
<stop offset="0%" style="stop-color:rgb(177, 77, 63); stop-opacity:1"/>
<stop offset="100%" style="stop-color:rgb(209, 177, 201); stop-opacity:1"/>
</linearGradient>
<linearGradient id="grad_4" x1="97%" y1="47%" x2="23%" y2="46%">
<stop offset="0%" style="stop-color:rgb(221, 0, 15); stop-opacity:1"/>
<stop offset="100%" style="stop-color:rgb(246, 153, 167); stop-opacity:1"/>
</linearGradient>
<linearGradient id="grad_5" x1="45%" y1="0%" x2="-29%" y2="67%">
<stop offset="0%" style="stop-color:rgb(238, 65, 67); stop-opacity:1"/>
<stop offset="100%" style="stop-color:rgb(244, 173, 174); stop-opacity:1"/>
</linearGradient>
<linearGradient id="grad_6" x1="0%" y1="73%" x2="100%" y2="73%">
<stop offset="0%" style="stop-color:rgb(177, 19, 21); stop-opacity:1"/>
<stop offset="100%" style="stop-color:rgb(177, 19, 21); stop-opacity:1"/>
</linearGradient>
<linearGradient id="grad_7" x1="5%" y1="42%" x2="70%" y2="89%">
<stop offset="0%" style="stop-color:rgb(127, 127, 127); stop-opacity:-0.297543"/>
<stop offset="100%" style="stop-color:rgb(127, 127, 127); stop-opacity:1.04307"/>
</linearGradient>
<linearGradient id="grad_8" x1="100%" y1="96%" x2="38%" y2="98%">
<stop offset="0%" style="stop-color:rgb(0, 0, 0); stop-opacity:0.401267"/>
<stop offset="100%" style="stop-color:rgb(0, 0, 0); stop-opacity:0.468672"/>
</linearGradient>
<linearGradient id="grad_9" x1="0%" y1="100%" x2="100%" y2="100%">
<stop offset="0%" style="stop-color:rgb(164, 255, 191); stop-opacity:0.37002"/>
<stop offset="100%" style="stop-color:rgb(164, 255, 191); stop-opacity:0.37002"/>
</linearGradient>
<linearGradient id="grad_10" x1="100%" y1="71%" x2="-17%" y2="76%">
<stop offset="0%" style="stop-color:rgb(255, 255, 255); stop-opacity:-0.00822183"/>
<stop offset="100%" style="stop-color:rgb(255, 255, 255); stop-opacity:0.160975"/>
</linearGradient>
<linearGradient id="grad_11" x1="0%" y1="100%" x2="100%" y2="100%">
<stop offset="0%" style="stop-color:rgb(196, 255, 167); stop-opacity:0.179279"/>
<stop offset="100%" style="stop-color:rgb(196, 255, 167); stop-opacity:0.179279"/>
</linearGradient>
</defs>
<g transform="translate(0.000000,453.000000) scale(0.100000,-0.100000)"
fill="url(#grad_0)" stroke="none">
<g>
<path d="M0 2265 l0 -2265 3000 0 3000 0 0 2265 0 2265 -3000 0 -3000 0 0
-2265z"/>
</g>
</g>
<g transform="translate(0.000000,453.000000) scale(0.100000,-0.100000)"
fill="url(#grad_1)" stroke="none">
<g>
<path d="M2077 3963 c56 -62 113 -129 126 -150 14 -21 39 -51 56 -67 17 -17
31 -34 31 -39 0 -5 17 -30 38 -56 47 -56 168 -240 181 -272 5 -13 26 -53 46
-89 35 -60 105 -191 154 -285 36 -71 88 -186 151 -335 34 -80 68 -158 76 -174
8 -16 14 -36 14 -45 0 -9 11 -37 25 -64 14 -26 23 -47 20 -47 -4 0 18 -51 46
-102 5 -10 9 -23 9 -29 0 -5 11 -35 25 -65 14 -30 25 -59 25 -64 0 -6 4 -18
10 -28 5 -9 30 -61 55 -114 25 -54 59 -117 75 -142 17 -24 30 -47 30 -51 0
-21 170 -205 190 -205 5 0 10 -3 10 -7 0 -18 133 -84 214 -107 58 -17 181 -20
201 -5 6 4 34 16 62 27 29 11 85 44 125 74 l72 53 -114 12 c-197 20 -290 48
-455 140 -39 22 -165 144 -181 176 -9 16 -40 63 -70 103 -30 40 -54 75 -54 78
0 3 -15 26 -32 51 -56 80 -87 129 -102 160 -8 17 -23 41 -33 55 -10 14 -28 43
-38 65 -11 22 -30 54 -41 70 -12 17 -54 95 -94 175 -40 80 -76 152 -81 160
-47 91 -109 235 -115 263 -4 25 -49 113 -88 175 -14 23 -26 45 -26 50 0 8 -21
41 -120 187 -19 29 -55 82 -79 119 -25 36 -48 66 -52 66 -4 0 -19 19 -33 43
-35 58 -168 204 -241 263 -114 94 -119 87 -18 -23z"/>
</g>
</g>
<g transform="translate(0.000000,453.000000) scale(0.100000,-0.100000)"
fill="url(#grad_2)" stroke="none">
<g>
<path d="M3370 1528 c0 -20 106 -116 157 -141 74 -37 135 -54 293 -82 172 -30
219 -50 319 -139 40 -35 85 -70 100 -77 14 -7 39 -22 55 -33 96 -65 173 -81
334 -73 117 7 315 44 462 87 61 18 81 30 110 63 58 66 75 130 48 180 -40 75
-133 116 -367 162 -189 36 -287 45 -526 45 l-211 0 -74 -53 c-83 -59 -170 -97
-235 -104 -57 -7 -194 22 -269 56 -34 15 -91 49 -128 74 -38 26 -68 42 -68 35z"/>
</g>
</g>
<g transform="translate(0.000000,453.000000) scale(0.100000,-0.100000)"
fill="url(#grad_3)" stroke="none">
<g>
<path d="M1805 4236 c-18 -13 -18 -14 -1 -42 22 -33 82 -91 121 -118 15 -10
36 -37 46 -60 10 -23 37 -61 61 -84 52 -51 111 -119 168 -193 14 -17 37 -46
51 -63 93 -113 168 -229 246 -381 33 -66 94 -181 134 -255 78 -141 168 -331
175 -364 2 -11 8 -24 14 -30 5 -5 10 -17 10 -25 0 -7 11 -37 24 -65 55 -117
75 -164 95 -222 11 -34 37 -97 56 -140 20 -44 45 -106 56 -138 11 -33 38 -92
60 -131 21 -39 39 -79 39 -87 0 -8 9 -25 20 -38 11 -13 20 -28 20 -35 0 -6 11
-22 24 -34 14 -13 30 -36 36 -52 7 -16 16 -29 21 -29 5 0 9 -6 9 -13 0 -7 9
-18 20 -25 11 -7 20 -8 20 -3 0 5 7 11 15 13 11 2 3 18 -30 60 -25 32 -45 60
-45 64 0 3 -13 26 -30 50 -16 25 -50 88 -75 142 -25 53 -50 105 -55 114 -6 10
-10 22 -10 28 0 5 -11 34 -25 64 -14 30 -25 60 -25 65 0 6 -4 19 -9 29 -28 51
-50 102 -46 102 3 0 -6 21 -20 47 -14 27 -25 55 -25 64 0 9 -6 29 -14 45 -8
16 -42 94 -76 174 -63 149 -115 264 -151 335 -49 94 -119 225 -154 285 -20 36
-41 76 -46 89 -13 32 -134 216 -181 272 -21 26 -38 51 -38 56 0 5 -14 22 -31
39 -17 16 -42 46 -56 67 -13 21 -70 88 -126 150 -101 110 -96 117 18 23 73
-59 206 -205 241 -263 14 -24 29 -43 33 -43 4 0 27 -30 52 -66 24 -37 60 -90
79 -119 99 -146 120 -179 120 -187 0 -5 12 -27 26 -50 39 -62 84 -150 88 -175
6 -28 68 -172 115 -263 5 -8 41 -80 81 -160 40 -80 82 -158 94 -175 11 -16 30
-48 41 -70 10 -22 28 -51 38 -65 10 -14 25 -38 33 -55 15 -31 46 -80 102 -160
17 -25 32 -48 32 -51 0 -3 24 -38 54 -78 30 -40 61 -87 70 -103 16 -32 142
-154 181 -176 164 -91 289 -129 474 -143 l94 -7 -34 -28 -34 -28 43 -1 c23 0
42 5 42 10 0 6 5 10 10 10 6 0 21 10 34 23 12 12 38 34 56 50 30 24 32 29 20
41 -12 12 -30 13 -90 6 -71 -8 -259 2 -281 16 -5 3 -22 7 -37 10 -74 13 -169
54 -247 107 -99 67 -111 78 -175 167 -22 30 -43 60 -48 65 -75 101 -132 187
-132 199 0 9 -4 16 -10 16 -5 0 -10 7 -10 15 0 8 -4 15 -9 15 -5 0 -19 19 -31
43 -12 23 -35 65 -51 92 -16 28 -32 57 -36 65 -4 8 -9 17 -12 20 -7 6 -38 61
-73 130 -13 25 -25 47 -28 50 -10 10 -60 108 -60 119 0 5 -13 33 -30 61 -16
27 -26 50 -22 50 4 0 2 4 -4 8 -13 9 -45 80 -59 132 -4 13 -39 96 -69 160 -9
19 -29 58 -45 85 -16 28 -35 61 -43 75 -7 14 -15 27 -19 30 -3 3 -21 32 -40
65 -18 33 -42 69 -52 80 -10 11 -30 40 -45 65 -14 25 -47 71 -74 102 -26 31
-48 59 -48 63 0 3 -38 50 -84 103 -78 90 -149 159 -221 214 -16 12 -31 26 -33
30 -2 5 -9 8 -14 8 -6 0 -34 17 -62 38 -55 42 -139 92 -153 92 -5 0 -18 -6
-28 -14z"/>
</g>
</g>
<g transform="translate(0.000000,453.000000) scale(0.100000,-0.100000)"
fill="url(#grad_4)" stroke="none">
<g>
<path d="M1009 3230 c-3 -26 -2 -37 9 -60 10 -21 37 -140 58 -250 3 -14 11
-45 18 -70 7 -25 23 -83 36 -130 12 -47 24 -92 27 -100 3 -8 7 -22 9 -30 1 -8
5 -26 7 -40 11 -55 20 -132 32 -264 3 -38 10 -87 15 -110 5 -22 11 -77 14
-121 3 -44 10 -111 15 -150 6 -38 12 -85 13 -104 3 -31 7 -35 34 -38 45 -5 67
24 75 105 4 37 12 101 18 142 37 263 -28 767 -123 959 -66 134 -101 193 -136
231 -32 34 -43 40 -78 40 -23 0 -43 -4 -43 -10z"/>
</g>
</g>
<g transform="translate(0.000000,453.000000) scale(0.100000,-0.100000)"
fill="url(#grad_5)" stroke="none">
<g>
<path d="M1779 4112 c-58 -38 -298 -295 -359 -387 -8 -12 -33 -47 -56 -76 -71
-94 -164 -311 -164 -384 0 -45 7 -52 115 -116 22 -13 79 -51 127 -86 48 -35
94 -63 101 -63 26 0 47 37 61 111 46 230 70 316 111 396 19 38 35 71 35 75 0
7 87 150 132 215 16 24 45 77 64 120 34 74 35 79 20 109 -8 18 -27 40 -42 51
-14 10 -37 28 -51 41 -31 28 -40 28 -94 -6z"/>
</g>
</g>
<g transform="translate(0.000000,453.000000) scale(0.100000,-0.100000)"
fill="url(#grad_6)" stroke="none">
<g>
<path d="M1713 4214 c-29 -13 -53 -22 -53 -19 0 16 -200 -111 -232 -147 -9
-11 -47 -52 -85 -92 -91 -97 -96 -104 -143 -188 -22 -40 -45 -80 -50 -88 -6
-8 -13 -22 -16 -30 -3 -8 -14 -32 -25 -53 -10 -22 -19 -48 -19 -58 0 -11 -4
-27 -9 -37 -14 -26 -50 -161 -57 -214 l-7 -48 38 0 c61 0 105 -56 211 -271 95
-192 160 -696 123 -959 -6 -41 -14 -105 -18 -142 -8 -83 -30 -111 -78 -105
l-33 5 5 -47 c11 -92 46 -660 52 -842 l6 -187 56 -5 c30 -3 74 -3 97 0 l42 5
6 192 c15 432 69 1000 131 1384 26 158 69 212 171 212 58 0 90 -19 129 -79 14
-20 74 -106 135 -191 61 -85 131 -186 156 -225 26 -38 70 -106 100 -150 30
-44 54 -83 54 -86 0 -7 95 -154 139 -216 17 -23 47 -73 67 -110 20 -37 55 -95
78 -128 23 -33 47 -71 54 -85 27 -55 140 -231 185 -288 27 -33 76 -83 110
-111 34 -28 67 -56 74 -61 7 -6 16 -10 22 -10 5 0 31 -11 58 -25 26 -13 64
-28 83 -32 37 -9 514 -7 665 1 160 10 249 17 285 23 19 3 44 7 55 9 11 2 36 6
55 9 19 3 51 8 70 10 19 3 51 9 70 14 39 11 193 38 255 46 68 8 106 14 125 20
10 3 27 8 37 10 57 14 154 45 179 58 16 8 42 17 59 21 16 4 35 16 43 27 7 10
19 19 27 19 16 0 75 69 75 87 0 7 4 13 9 13 5 0 11 8 14 18 4 9 17 36 31 59
33 55 44 148 23 189 -8 16 -37 47 -64 70 -52 44 -123 89 -123 79 0 -3 -8 -1
-17 4 -10 5 -36 12 -58 15 -22 4 -65 11 -95 16 -30 5 -71 12 -90 15 -50 9
-155 36 -275 71 -22 6 -87 22 -125 29 -14 3 -61 12 -105 21 -44 9 -82 16 -85
17 -3 1 -17 -9 -32 -23 -57 -55 -99 -90 -108 -90 -6 0 -10 -4 -10 -10 0 -6 74
-10 203 -10 231 0 330 -9 518 -45 234 -46 327 -87 367 -162 27 -50 10 -114
-48 -180 -29 -33 -49 -45 -110 -63 -147 -43 -345 -80 -462 -87 -161 -8 -238 8
-334 73 -16 11 -41 26 -55 33 -15 7 -60 42 -100 77 -100 89 -147 109 -319 139
-158 28 -219 45 -293 82 -51 25 -157 121 -157 141 0 7 30 -9 68 -35 91 -63
173 -99 272 -119 134 -27 226 -3 363 95 l72 51 -38 0 c-25 0 -50 -9 -78 -29
-22 -17 -63 -37 -90 -46 -27 -9 -51 -20 -53 -24 -9 -15 -146 -12 -203 5 -80
23 -213 89 -213 107 0 4 -6 7 -13 7 -7 0 -28 18 -47 40 -32 37 -80 55 -80 30
0 -6 -8 -5 -20 2 -11 7 -20 18 -20 25 0 7 -4 13 -9 13 -5 0 -14 13 -21 29 -6
16 -22 39 -36 52 -13 12 -24 28 -24 34 0 7 -9 22 -20 35 -11 13 -20 30 -20 38
0 8 -18 48 -39 87 -22 39 -49 98 -60 131 -11 32 -36 94 -56 138 -19 43 -45
106 -56 140 -20 58 -40 105 -95 222 -13 28 -24 58 -24 65 0 8 -5 20 -10 25 -6
6 -12 19 -14 30 -7 33 -97 223 -175 364 -40 74 -101 189 -134 255 -70 138
-108 198 -192 309 -33 43 -69 91 -80 106 -11 15 -27 34 -35 43 -8 8 -24 27
-35 42 -43 56 -165 185 -176 185 -4 0 -17 -25 -30 -57 -12 -31 -39 -81 -59
-112 -71 -110 -140 -223 -140 -229 0 -4 -16 -37 -35 -75 -41 -80 -65 -166
-111 -396 -14 -74 -35 -111 -61 -111 -7 0 -53 28 -101 63 -48 35 -105 73 -127
86 -108 64 -115 71 -115 116 0 73 93 290 164 384 23 29 48 64 56 76 68 102
311 359 372 394 l48 28 -35 46 c-20 26 -37 47 -38 46 -1 0 -26 -11 -54 -25z"/>
</g>
</g>
<g transform="translate(0.000000,453.000000) scale(0.100000,-0.100000)"
fill="url(#grad_7)" stroke="none">
<g>
<path d="M1017 3243 c-15 -32 -15 -38 1 -73 10 -21 37 -140 58 -250 3 -14 11
-45 18 -70 7 -25 23 -83 36 -130 12 -47 24 -92 27 -100 3 -8 7 -22 9 -30 1 -8
5 -26 7 -40 11 -55 20 -132 32 -264 3 -38 10 -87 15 -110 5 -22 11 -77 14
-121 3 -44 10 -111 15 -150 6 -38 12 -85 13 -104 3 -31 7 -35 34 -38 45 -5 67
24 75 105 4 37 12 101 18 142 36 258 -26 754 -119 952 -40 85 -98 189 -117
211 -22 23 -10 32 20 15 13 -7 46 -25 73 -40 27 -14 65 -42 83 -62 19 -20 38
-36 42 -36 17 0 99 -62 134 -102 20 -24 74 -81 119 -128 96 -100 239 -266 245
-283 2 -7 19 -28 38 -47 19 -19 30 -36 24 -38 -5 -2 2 -20 17 -41 15 -21 79
-111 142 -201 63 -89 130 -185 149 -213 110 -165 161 -244 161 -249 0 -6 97
-156 139 -215 17 -23 47 -73 67 -110 20 -37 55 -95 78 -128 23 -33 47 -71 54
-85 27 -55 140 -231 185 -288 27 -33 76 -83 110 -111 34 -28 67 -56 74 -61 7
-6 16 -10 22 -10 5 0 31 -11 58 -25 26 -13 64 -28 83 -32 37 -9 514 -7 665 1
160 10 249 17 285 23 19 3 44 7 55 9 11 2 36 6 55 9 19 3 51 8 70 10 19 3 51
9 70 14 39 11 193 38 255 46 68 8 106 14 125 20 10 3 27 8 37 10 57 14 154 45
179 58 16 8 42 17 59 21 16 4 35 16 43 27 7 10 19 19 27 19 16 0 75 69 75 87
0 7 4 13 9 13 5 0 11 8 14 17 4 10 17 37 31 60 33 55 44 148 23 189 -22 43
-142 140 -185 149 -9 2 -32 8 -49 14 -41 12 -56 -5 -16 -19 15 -5 35 -15 43
-20 8 -6 31 -17 50 -26 41 -19 96 -68 115 -104 22 -41 -12 -158 -65 -223 -16
-20 -94 -73 -96 -66 -1 2 -10 -3 -20 -11 -11 -9 -30 -21 -44 -27 -54 -26 -105
-47 -115 -48 -5 -1 -28 -7 -50 -15 -22 -8 -42 -15 -45 -15 -30 -8 -69 -15
-145 -29 -49 -8 -101 -17 -115 -20 -14 -2 -79 -15 -145 -30 -69 -14 -170 -28
-235 -31 -63 -2 -194 -9 -290 -15 -227 -13 -531 -17 -597 -7 -107 16 -213 73
-273 148 -19 23 -43 50 -52 58 -10 9 -18 19 -18 24 0 5 -11 18 -25 29 -14 11
-25 24 -25 29 0 6 -6 16 -12 24 -7 7 -22 25 -33 41 -11 15 -30 40 -42 55 -13
15 -23 30 -23 33 0 5 -40 61 -78 111 -4 6 -26 46 -49 90 -93 182 -121 235
-151 279 -18 26 -32 49 -32 51 0 3 -16 27 -35 54 -19 26 -35 52 -35 57 0 5
-16 31 -35 58 -19 27 -35 55 -35 63 0 7 -4 13 -8 13 -5 0 -14 10 -20 23 -7 12
-32 49 -57 82 -56 75 -105 145 -105 150 0 4 -35 46 -87 105 -24 26 -43 50 -43
53 0 4 -24 30 -52 60 -29 29 -78 84 -108 122 -66 82 -414 435 -430 435 -6 0
-44 25 -84 55 -40 30 -77 55 -82 55 -5 0 -32 18 -61 40 -61 46 -105 70 -130
70 -10 0 -27 7 -37 15 -30 23 -54 18 -69 -12z"/>
</g>
</g>
<g transform="translate(0.000000,453.000000) scale(0.100000,-0.100000)"
fill="url(#grad_8)" stroke="none">
<g>
<path d="M1698 2503 c-42 -23 -49 -32 -67 -87 -58 -174 -144 -998 -168 -1593
l-5 -133 30 0 30 0 6 192 c12 355 42 716 91 1098 50 388 64 441 128 480 40 25
123 27 155 4 37 -26 45 -11 13 22 -50 51 -140 58 -213 17z"/>
</g>
</g>
<g transform="translate(0.000000,453.000000) scale(0.100000,-0.100000)"
fill="url(#grad_9)" stroke="none">
<g>
<path d="M1320 763 c0 -70 1 -73 24 -73 13 0 44 -3 70 -6 l46 -7 0 76 0 75
-70 4 -70 3 0 -72z"/>
</g>
</g>
<g transform="translate(0.000000,453.000000) scale(0.100000,-0.100000)"
fill="url(#grad_10)" stroke="none">
<g>
<path d="M1140 3194 c0 -4 6 -15 14 -23 18 -20 77 -126 116 -209 93 -198 155
-694 119 -952 -6 -41 -14 -105 -18 -142 -8 -83 -30 -111 -78 -105 l-34 5 6
-42 c3 -22 14 -189 25 -371 12 -181 24 -373 28 -425 l7 -95 70 -3 70 -3 0 43
c1 87 33 533 56 783 29 315 81 674 110 761 18 56 24 64 71 89 45 24 57 27 110
21 49 -5 59 -3 56 9 -4 18 -136 172 -244 285 -45 47 -99 104 -119 128 -35 40
-117 102 -134 102 -4 0 -23 16 -42 36 -18 20 -52 45 -74 56 -22 11 -47 26 -55
33 -19 16 -60 29 -60 19z"/>
</g>
</g>
<g transform="translate(0.000000,453.000000) scale(0.100000,-0.100000)"
fill="url(#grad_11)" stroke="none">
<g>
<path d="M2077 3963 c56 -62 113 -129 126 -150 14 -21 39 -51 56 -67 17 -17
31 -34 31 -39 0 -5 17 -30 38 -56 47 -56 168 -240 181 -272 5 -13 26 -53 46
-89 35 -60 105 -191 154 -285 36 -71 88 -186 151 -335 34 -80 68 -158 76 -174
8 -16 14 -36 14 -45 0 -9 11 -37 25 -64 14 -26 23 -47 20 -47 -4 0 18 -51 46
-102 5 -10 9 -23 9 -29 0 -5 11 -35 25 -65 14 -30 25 -59 25 -64 0 -6 4 -18
10 -28 5 -9 30 -61 55 -114 25 -54 59 -117 75 -142 17 -24 30 -47 30 -50 0 -4
20 -32 45 -64 33 -42 41 -58 30 -60 -61 -13 79 -141 227 -206 76 -34 209 -60
267 -53 67 9 152 47 234 106 l72 51 -35 0 -35 1 34 28 34 28 -94 7 c-185 14
-310 52 -474 143 -39 22 -165 144 -181 176 -9 16 -40 63 -70 103 -30 40 -54
75 -54 78 0 3 -15 26 -32 51 -56 80 -87 129 -102 160 -8 17 -23 41 -33 55 -10
14 -28 43 -38 65 -11 22 -30 54 -41 70 -12 17 -54 95 -94 175 -40 80 -76 152
-81 160 -47 91 -109 235 -115 263 -4 25 -49 113 -88 175 -14 23 -26 45 -26 50
0 8 -21 41 -120 187 -19 29 -55 82 -79 119 -25 36 -48 66 -52 66 -4 0 -19 19
-33 43 -35 58 -168 204 -241 263 -114 94 -119 87 -18 -23z"/>
</g>
</g>
</svg>
