<svg xmlns="http://www.w3.org/2000/svg" xmlns:xlink="http://www.w3.org/1999/xlink" viewBox="0 0 700 600"><defs><style>.af210c50-7424-4862-ad91-93be3853c570,.ecd1b72e-a26f-4fb4-9ab5-ad9d7ee05a71{fill:none;}.a4d23668-462a-4a1f-ac28-11b859386dc4{fill:#d2d2d2;}.a4fea326-42f1-4a26-ba96-b5f782f0543c{fill:url(#eae0fe30-3d08-47c0-805d-c54326f71ba9);}.bf0edd8c-9798-4eca-a836-98067bb8d3af{fill:url(#ef508289-f3f1-49fc-ba85-4dce1ee7b918);}.a718ad72-23cb-40e3-8d13-e48e6afb5044{fill:url(#f1ae08f8-1947-4cbd-a1cc-e27f5e7102cf);}.bcdd9c4e-a871-4e60-a6df-fae1b4b6d1e2{fill:url(#e28b8347-db99-4ad4-bf99-e95ace817469);}.e2938287-d94c-42f4-98b3-29567895d74d{fill:url(#a02d97bf-a92b-49e4-b8f8-1fa3638e30f7);}.ae150bb4-ee40-4e8c-a4b9-25900088c010{fill:url(#eb111e70-4417-4d48-a1db-4aba97106646);}.acdc679f-b9da-42d4-8b07-80d2a85c5535{fill:url(#a58d9ba8-51ba-47f0-a57a-8ccc954e46f6);}.b01ac7ee-739f-4941-b4cd-65ef6a9fb8e9{fill:url(#b556492e-6826-402b-8dc2-6270ab6c5b28);}.a2476670-85f2-4065-bf6d-55e7f7cf69c1{fill:url(#b83d0f4b-cc86-40b2-8e6c-dca9466c6b73);}.eeb2c4f2-7e14-4451-a8e4-6f2751375525{fill:url(#b18da850-f8ee-47d7-8792-906a3bd33a0b);}.b03a5aff-ccc1-49dd-9ce6-069a46e07436{fill:url(#b04bc904-f0a6-44b7-8a9d-d8fec3ae3c41);}.fcb91a62-4e69-4ad9-9038-0625078d3b01{fill:url(#feba8989-33ff-46b0-b684-c945ce75503a);}.a62d3187-d732-46d5-8896-096391830112{fill:url(#a0de1529-a5d6-474f-ae5a-5f1e7eb168fe);}.e9e79ad3-f7de-47cc-9d71-8d292346ce47{fill:url(#b59b869e-6498-45ce-abd9-888e268ff454);}.a155e922-dda1-4d0e-9cb3-b8b05f66f4ed{fill:url(#a088b847-52cf-44bf-bcb3-aa4cc88bf5ff);}.f68d0eb8-a858-49f0-8096-7116bf4a6d97{fill:url(#a41cbfc2-9009-4607-8d70-a07563cebc47);}.bf1af66a-c5cc-45eb-997c-710d4b132691{fill:url(#ae7157d5-fa88-4261-abe0-62d2ed903772);}.b0b0617f-ffd4-40b5-be46-d39620bcadfd,.b353ab34-843b-4b4e-8f24-e12dc6f6be1b,.ba078319-11d3-496e-b1fc-e6b3ce3ae521,.ecd1b72e-a26f-4fb4-9ab5-ad9d7ee05a71{stroke:#000;stroke-miterlimit:10;}.b0b0617f-ffd4-40b5-be46-d39620bcadfd,.b353ab34-843b-4b4e-8f24-e12dc6f6be1b,.ba078319-11d3-496e-b1fc-e6b3ce3ae521{stroke-width:0.5px;}.b0b0617f-ffd4-40b5-be46-d39620bcadfd{fill:url(#f9ea22f2-f79d-4d0a-9a51-0a684cbf5532);}.e85ba9c2-5a73-4b2e-b7d7-dbec2d6fc0ec{fill:url(#b890adf9-f7cd-4bf3-acad-97b55a3bb3ab);}.ba078319-11d3-496e-b1fc-e6b3ce3ae521{fill:url(#eafb5f7c-3317-4ffc-a0a3-ad12ca6f5f7f);}.b353ab34-843b-4b4e-8f24-e12dc6f6be1b{fill:url(#e2a19019-c9bb-4fc7-8165-159c8e86f6f1);}</style><pattern id="eae0fe30-3d08-47c0-805d-c54326f71ba9" data-name="grid-pattern" width="40" height="40" patternTransform="matrix(1, 0, 0, -1, 11, 626)" patternUnits="userSpaceOnUse" viewBox="0 0 40 40"><rect class="af210c50-7424-4862-ad91-93be3853c570" width="40" height="40"/><rect class="a4d23668-462a-4a1f-ac28-11b859386dc4" y="20" width="20" height="20"/><rect class="a4d23668-462a-4a1f-ac28-11b859386dc4" x="20" width="20" height="20"/></pattern><linearGradient id="ef508289-f3f1-49fc-ba85-4dce1ee7b918" x1="1.9" y1="600.66" x2="1.62" y2="600.71" gradientTransform="translate(-12.37 -158357.15) scale(213.89 264.01)" gradientUnits="userSpaceOnUse"><stop offset="0" stop-color="#831b1a"/><stop offset="1" stop-color="#e9a182"/></linearGradient><linearGradient id="f1ae08f8-1947-4cbd-a1cc-e27f5e7102cf" x1="1.13" y1="600.31" x2="1.69" y2="600.31" gradientTransform="translate(148.95 -32611.61) scale(189.05 54.85)" gradientUnits="userSpaceOnUse"><stop offset="0" stop-color="#dd565a"/><stop offset="1" stop-color="#dd565a"/></linearGradient><linearGradient id="e28b8347-db99-4ad4-bf99-e95ace817469" x1="1.61" y1="600.73" x2="1.79" y2="600.67" gradientTransform="translate(-69.41 -163771) scale(249.55 273)" gradientUnits="userSpaceOnUse"><stop offset="0" stop-color="#b14d3f"/><stop offset="1" stop-color="#d1b1c9"/></linearGradient><linearGradient id="a02d97bf-a92b-49e4-b8f8-1fa3638e30f7" x1="4.81" y1="600.79" x2="4.4" y2="600.8" gradientTransform="translate(62.55 -88522.67) scale(39.2 147.75)" gradientUnits="userSpaceOnUse"><stop offset="0" stop-color="#dd000f"/><stop offset="1" stop-color="#f699a7"/></linearGradient><linearGradient id="eb111e70-4417-4d48-a1db-4aba97106646" x1="2.96" y1="601.4" x2="2.55" y2="601.02" gradientTransform="translate(43.48 -68258.08) scale(77.52 113.83)" gradientUnits="userSpaceOnUse"><stop offset="0" stop-color="#ee4143"/><stop offset="1" stop-color="#f4adae"/></linearGradient><linearGradient id="a58d9ba8-51ba-47f0-a57a-8ccc954e46f6" x1="1.29" y1="600.62" x2="1.85" y2="600.62" gradientTransform="translate(-331.37 -213687.42) scale(434.07 356.2)" gradientUnits="userSpaceOnUse"><stop offset="0" stop-color="#b11315"/><stop offset="1" stop-color="#b11315"/></linearGradient><linearGradient id="b556492e-6826-402b-8dc2-6270ab6c5b28" x1="1.37" y1="600.69" x2="1.74" y2="600.43" gradientTransform="translate(-333.6 -155411.47) scale(435.18 259.23)" gradientUnits="userSpaceOnUse"><stop offset="0" stop-color="#7f7f7f" stop-opacity="0"/><stop offset="1" stop-color="#7f7f7f"/></linearGradient><linearGradient id="b83d0f4b-cc86-40b2-8e6c-dca9466c6b73" x1="3.84" y1="600.54" x2="3.5" y2="600.53" gradientTransform="translate(99.5 -110174.1) scale(47.3 183.96)" gradientUnits="userSpaceOnUse"><stop offset="0" stop-opacity="0.4"/><stop offset="1" stop-opacity="0.47"/></linearGradient><linearGradient id="b18da850-f8ee-47d7-8792-906a3bd33a0b" x1="9.18" y1="598.44" x2="9.74" y2="598.44" gradientTransform="translate(119 -9109.5) scale(14 15.8)" gradientUnits="userSpaceOnUse"><stop offset="0" stop-color="#a4ffbf" stop-opacity="0.37"/><stop offset="1" stop-color="#a4ffbf" stop-opacity="0.37"/></linearGradient><linearGradient id="b04bc904-f0a6-44b7-8a9d-d8fec3ae3c41" x1="1.39" y1="600.7" x2="1.95" y2="600.7" gradientTransform="translate(-12.47 -161324.69) scale(213.99 268.96)" gradientUnits="userSpaceOnUse"><stop offset="0" stop-color="#c4ffa7" stop-opacity="0.18"/><stop offset="1" stop-color="#c4ffa7" stop-opacity="0.18"/></linearGradient><linearGradient id="feba8989-33ff-46b0-b684-c945ce75503a" x1="2.68" y1="600.1" x2="2.4" y2="600.15" xlink:href="#ef508289-f3f1-49fc-ba85-4dce1ee7b918"/><linearGradient id="a0de1529-a5d6-474f-ae5a-5f1e7eb168fe" x1="2.04" y1="600.88" x2="2.6" y2="600.88" xlink:href="#f1ae08f8-1947-4cbd-a1cc-e27f5e7102cf"/><linearGradient id="b59b869e-6498-45ce-abd9-888e268ff454" x1="1.88" y1="600.23" x2="2.06" y2="600.17" xlink:href="#e28b8347-db99-4ad4-bf99-e95ace817469"/><linearGradient id="a088b847-52cf-44bf-bcb3-aa4cc88bf5ff" x1="1.68" y1="599.54" x2="1.27" y2="599.54" xlink:href="#a02d97bf-a92b-49e4-b8f8-1fa3638e30f7"/><linearGradient id="a41cbfc2-9009-4607-8d70-a07563cebc47" x1="2.96" y1="600.25" x2="2.55" y2="599.88" xlink:href="#eb111e70-4417-4d48-a1db-4aba97106646"/><linearGradient id="ae7157d5-fa88-4261-abe0-62d2ed903772" x1="1.81" y1="601.23" x2="2.37" y2="601.23" xlink:href="#a58d9ba8-51ba-47f0-a57a-8ccc954e46f6"/><linearGradient id="f9ea22f2-f79d-4d0a-9a51-0a684cbf5532" x1="1.19" y1="601.54" x2="1.56" y2="601.28" xlink:href="#b556492e-6826-402b-8dc2-6270ab6c5b28"/><linearGradient id="b890adf9-f7cd-4bf3-acad-97b55a3bb3ab" x1="-0.5" y1="600.8" x2="-0.84" y2="600.79" xlink:href="#b83d0f4b-cc86-40b2-8e6c-dca9466c6b73"/><linearGradient id="eafb5f7c-3317-4ffc-a0a3-ad12ca6f5f7f" x1="-5.21" y1="604.58" x2="-4.65" y2="604.58" xlink:href="#b18da850-f8ee-47d7-8792-906a3bd33a0b"/><linearGradient id="e2a19019-c9bb-4fc7-8165-159c8e86f6f1" x1="2.74" y1="600.55" x2="3.3" y2="600.55" xlink:href="#b04bc904-f0a6-44b7-8a9d-d8fec3ae3c41"/></defs><g id="e6fc9d24-fa09-473f-bfe5-6cae983d1619" data-name="图层 1"><rect class="a4fea326-42f1-4a26-ba96-b5f782f0543c" width="700" height="600"/><path class="bf0edd8c-9798-4eca-a836-98067bb8d3af" d="M289.91,166.07a104.77,104.77,0,0,1,7.07,8.41,24.65,24.65,0,0,0,3.14,3.75,7.36,7.36,0,0,1,1.73,2.19,14.13,14.13,0,0,0,2.13,3.14c2.64,3.14,9.42,13.45,10.15,15.25.28.73,1.46,3,2.58,5,2,3.36,5.89,10.7,8.63,16,2,4,4.94,10.43,8.47,18.78,1.9,4.49,3.81,8.86,4.26,9.76a7.22,7.22,0,0,1,.78,2.52,13.17,13.17,0,0,0,1.4,3.59c.79,1.45,1.29,2.63,1.13,2.63s1,2.86,2.57,5.72a4.81,4.81,0,0,1,.51,1.62,20.13,20.13,0,0,0,1.4,3.65,19.73,19.73,0,0,1,1.4,3.59,3.93,3.93,0,0,0,.56,1.57c.28.5,1.68,3.42,3.09,6.39a84.45,84.45,0,0,0,4.2,8,12.82,12.82,0,0,1,1.68,2.86c0,1.17,9.53,11.49,10.65,11.49.28,0,.56.17.56.39,0,1,7.46,4.71,12,6,3.25.95,10.15,1.12,11.27.28a31.89,31.89,0,0,1,3.47-1.52,35.92,35.92,0,0,0,7-4.14l4-3-6.39-.68c-11-1.12-16.26-2.69-25.51-7.85-2.19-1.23-9.25-8.07-10.15-9.86-.5-.9-2.24-3.53-3.92-5.78a40.33,40.33,0,0,1-3-4.37,21.94,21.94,0,0,0-1.79-2.86,76,76,0,0,1-5.72-9,24.38,24.38,0,0,0-1.85-3.08,26,26,0,0,1-2.13-3.64,40.18,40.18,0,0,0-2.3-3.93c-.67-.95-3-5.32-5.27-9.81s-4.26-8.52-4.54-9c-2.63-5.1-6.11-13.17-6.45-14.74-.22-1.4-2.74-6.33-4.93-9.81a13.53,13.53,0,0,1-1.46-2.8c0-.45-1.17-2.3-6.72-10.48-1.07-1.63-3.09-4.6-4.43-6.68a19.7,19.7,0,0,0-2.92-3.7,7.39,7.39,0,0,1-1.85-2.41c-2-3.25-9.41-11.43-13.51-14.74C284.53,159.51,284.25,159.9,289.91,166.07Z"/><path class="a718ad72-23cb-40e3-8d13-e48e6afb5044" d="M362.4,302.57c0,1.12,5.94,6.5,8.8,7.9,4.15,2.08,7.57,3,16.42,4.6,9.65,1.68,12.28,2.8,17.89,7.79a41,41,0,0,0,5.6,4.32A30.67,30.67,0,0,1,414.2,329c5.38,3.64,9.69,4.54,18.72,4.09a138.17,138.17,0,0,0,25.9-4.88c3.42-1,4.54-1.68,6.16-3.53,3.26-3.7,4.21-7.28,2.7-10.09-2.25-4.2-7.46-6.5-20.58-9.08-10.59-2-16.09-2.52-29.49-2.52H405.79l-4.15,3c-4.65,3.31-9.53,5.44-13.18,5.83-3.19.39-10.87-1.23-15.08-3.14a57.25,57.25,0,0,1-7.17-4.15C364.08,303.07,362.4,302.18,362.4,302.57Z"/><path class="bcdd9c4e-a871-4e60-a6df-fae1b4b6d1e2" d="M274.67,150.77c-1,.73-1,.78-.06,2.35a33.39,33.39,0,0,0,6.78,6.62A9.05,9.05,0,0,1,284,163.1a18,18,0,0,0,3.42,4.71,107.61,107.61,0,0,1,9.42,10.82c.78,1,2.07,2.58,2.86,3.53a114,114,0,0,1,13.79,21.36c1.85,3.7,5.27,10.14,7.51,14.29,4.37,7.91,9.42,18.56,9.81,20.41a3.6,3.6,0,0,0,.79,1.68,2.4,2.4,0,0,1,.56,1.4,16.89,16.89,0,0,0,1.34,3.64,117.12,117.12,0,0,1,5.33,12.45c.61,1.9,2.07,5.44,3.14,7.85s2.52,5.94,3.14,7.73a51.46,51.46,0,0,0,3.36,7.35,23.83,23.83,0,0,1,2.19,4.87,4.57,4.57,0,0,0,1.12,2.13,4.59,4.59,0,0,1,1.12,2,4.31,4.31,0,0,0,1.34,1.91,9.08,9.08,0,0,1,2,2.92c.39.89.9,1.62,1.18,1.62s.5.34.5.73.51,1,1.12,1.4,1.13.45,1.13.17.39-.62.84-.73c.61-.11.16-1-1.69-3.36a23.53,23.53,0,0,1-2.52-3.59,14.8,14.8,0,0,0-1.68-2.8,84.45,84.45,0,0,1-4.2-8c-1.41-3-2.81-5.89-3.09-6.39a3.93,3.93,0,0,1-.56-1.57,19.73,19.73,0,0,0-1.4-3.59,20.13,20.13,0,0,1-1.4-3.65,4.81,4.81,0,0,0-.51-1.62c-1.57-2.86-2.8-5.72-2.57-5.72s-.34-1.18-1.13-2.63a13.17,13.17,0,0,1-1.4-3.59,7.22,7.22,0,0,0-.78-2.52c-.45-.9-2.36-5.27-4.26-9.76-3.53-8.35-6.45-14.8-8.47-18.78-2.74-5.27-6.67-12.61-8.63-16-1.12-2-2.3-4.26-2.58-5-.73-1.8-7.51-12.11-10.15-15.25a14.13,14.13,0,0,1-2.13-3.14,7.36,7.36,0,0,0-1.73-2.19,24.65,24.65,0,0,1-3.14-3.75,104.77,104.77,0,0,0-7.07-8.41c-5.66-6.17-5.38-6.56,1-1.29,4.1,3.31,11.55,11.49,13.51,14.74a7.39,7.39,0,0,0,1.85,2.41,19.7,19.7,0,0,1,2.92,3.7c1.34,2.08,3.36,5.05,4.43,6.68,5.55,8.18,6.72,10,6.72,10.48a13.53,13.53,0,0,0,1.46,2.8c2.19,3.48,4.71,8.41,4.93,9.81.34,1.57,3.82,9.64,6.45,14.74.28.45,2.3,4.49,4.54,9s4.6,8.86,5.27,9.81a40.18,40.18,0,0,1,2.3,3.93,26,26,0,0,0,2.13,3.64,24.38,24.38,0,0,1,1.85,3.08,76,76,0,0,0,5.72,9,21.94,21.94,0,0,1,1.79,2.86,40.33,40.33,0,0,0,3,4.37c1.68,2.25,3.42,4.88,3.92,5.78.9,1.79,8,8.63,10.15,9.86,9.19,5.11,16.2,7.24,26.57,8l5.27.39-1.91,1.57-1.9,1.57,2.41.06c1.29,0,2.35-.28,2.35-.56a.56.56,0,0,1,.56-.56,4.4,4.4,0,0,0,1.91-1.29c.67-.67,2.13-1.91,3.14-2.8,1.68-1.35,1.79-1.63,1.12-2.3s-1.68-.73-5-.34c-4,.45-14.52-.11-15.76-.9a10.84,10.84,0,0,0-2.07-.56,38.67,38.67,0,0,1-13.85-6c-5.55-3.75-6.22-4.37-9.81-9.36-1.23-1.68-2.41-3.36-2.69-3.64-4.2-5.66-7.4-10.48-7.4-11.16,0-.5-.22-.89-.56-.89s-.56-.4-.56-.84-.22-.84-.5-.84-1.07-1.07-1.74-2.42-2-3.64-2.86-5.15-1.79-3.2-2-3.65a5.82,5.82,0,0,0-.67-1.12,56.9,56.9,0,0,1-4.09-7.28,29,29,0,0,0-1.57-2.81,35.42,35.42,0,0,1-3.37-6.67,15.47,15.47,0,0,0-1.68-3.42c-.9-1.51-1.46-2.8-1.23-2.8s.11-.23-.23-.45c-.73-.5-2.52-4.48-3.3-7.4-.23-.73-2.19-5.38-3.87-9-.51-1.06-1.63-3.25-2.52-4.76s-2-3.42-2.41-4.21a7.16,7.16,0,0,0-1.07-1.68c-.17-.17-1.18-1.79-2.24-3.64a31.62,31.62,0,0,0-2.92-4.49,29.25,29.25,0,0,1-2.52-3.64,41.53,41.53,0,0,0-4.15-5.72,24,24,0,0,1-2.69-3.53,69.27,69.27,0,0,0-4.71-5.77,83.47,83.47,0,0,0-12.39-12,10.55,10.55,0,0,1-1.85-1.68.89.89,0,0,0-.78-.45,13.89,13.89,0,0,1-3.48-2.13c-3.08-2.36-7.79-5.16-8.57-5.16A3.65,3.65,0,0,0,274.67,150.77Z"/><path class="e2938287-d94c-42f4-98b3-29567895d74d" d="M230,207.16a5,5,0,0,0,.51,3.36c.56,1.18,2.07,7.85,3.25,14,.17.78.62,2.52,1,3.92l2,7.29c.67,2.63,1.34,5.16,1.51,5.61a17,17,0,0,1,.5,1.68c.06.45.29,1.45.4,2.24.61,3.08,1.12,7.4,1.79,14.8a57,57,0,0,0,.84,6.16,60.91,60.91,0,0,1,.79,6.79c.16,2.46.56,6.22.84,8.41s.67,4.76.73,5.83c.16,1.73.39,2,1.9,2.13,2.52.28,3.76-1.35,4.21-5.89.22-2.07.67-5.66,1-8,2.07-14.74-1.57-43-6.9-53.76-3.7-7.51-5.66-10.82-7.62-12.95-1.8-1.9-2.41-2.24-4.38-2.24C231.16,206.6,230,206.82,230,207.16Z"/><path class="ae150bb4-ee40-4e8c-a4b9-25900088c010" d="M273.21,157.72c-3.25,2.13-16.71,16.53-20.13,21.69-.44.67-1.85,2.64-3.14,4.26-4,5.27-9.19,17.44-9.19,21.53,0,2.52.39,2.91,6.45,6.5,1.23.73,4.43,2.86,7.12,4.82a29.61,29.61,0,0,0,5.66,3.53c1.46,0,2.63-2.07,3.42-6.22,2.58-12.89,3.92-17.71,6.22-22.2a38.75,38.75,0,0,0,2-4.2c0-.39,4.88-8.41,7.4-12.05a53.75,53.75,0,0,0,3.59-6.73c1.91-4.15,2-4.43,1.12-6.11a8.42,8.42,0,0,0-2.35-2.86,32.37,32.37,0,0,1-2.86-2.3C276.74,155.81,276.24,155.81,273.21,157.72Z"/><path class="acdc679f-b9da-42d4-8b07-80d2a85c5535" d="M269.51,152c-1.63.73-3,1.23-3,1.06,0-.89-11.21,6.23-13,8.25-.5.61-2.63,2.91-4.76,5.15-5.1,5.44-5.38,5.83-8,10.54-1.23,2.24-2.52,4.49-2.8,4.93a8.16,8.16,0,0,0-.9,1.69c-.17.44-.78,1.79-1.4,3a11.79,11.79,0,0,0-1.07,3.25,5.33,5.33,0,0,1-.5,2.07c-.79,1.46-2.8,9-3.2,12l-.39,2.69h2.13c3.42,0,5.89,3.14,11.83,15.19,5.33,10.76,9,39,6.9,53.76-.34,2.3-.79,5.89-1,8-.45,4.65-1.69,6.22-4.38,5.89l-1.85-.28.28,2.63c.62,5.16,2.58,37,2.92,47.2l.34,10.48,3.14.28a28.89,28.89,0,0,0,5.43,0l2.36-.28.33-10.76a702.31,702.31,0,0,1,7.35-77.58c1.45-8.86,3.87-11.89,9.58-11.89,3.25,0,5.05,1.07,7.23,4.43.79,1.12,4.15,5.94,7.57,10.71S298,274.77,299.39,277s3.92,5.94,5.6,8.41a45,45,0,0,1,3,4.82c0,.39,5.33,8.63,7.79,12.11a63.06,63.06,0,0,1,3.76,6.17c1.12,2.07,3.08,5.32,4.37,7.17a53.81,53.81,0,0,1,3,4.77,155.29,155.29,0,0,0,10.37,16.14,53.26,53.26,0,0,0,6.17,6.22c1.9,1.57,3.75,3.14,4.14,3.42a2.19,2.19,0,0,0,1.24.56,16.53,16.53,0,0,1,3.25,1.4,25.63,25.63,0,0,0,4.65,1.8c2.08.5,28.82.39,37.28-.06,9-.56,14-.95,16-1.29,1.06-.16,2.46-.39,3.08-.5l3.08-.51c1.07-.16,2.86-.44,3.93-.56s2.86-.5,3.92-.78c2.19-.62,10.82-2.13,14.3-2.58a47.18,47.18,0,0,0,7-1.12c.56-.17,1.52-.45,2.08-.56a73.88,73.88,0,0,0,10-3.25,17.68,17.68,0,0,1,3.31-1.18,4.83,4.83,0,0,0,2.41-1.51A2.41,2.41,0,0,1,464.7,335c.9,0,4.21-3.87,4.21-4.88,0-.39.22-.72.5-.72s.62-.45.79-1a31.74,31.74,0,0,1,1.74-3.31c1.85-3.08,2.46-8.3,1.28-10.6a17.78,17.78,0,0,0-3.58-3.92c-2.92-2.47-6.9-5-6.9-4.43,0,.17-.45.06-.95-.22a13,13,0,0,0-3.25-.84c-1.24-.23-3.65-.62-5.33-.9l-5-.84c-2.81-.51-8.69-2-15.42-4-1.23-.34-4.88-1.23-7-1.63-.78-.17-3.42-.67-5.88-1.17s-4.6-.9-4.77-1a5.12,5.12,0,0,0-1.79,1.29c-3.2,3.09-5.55,5-6.06,5a.53.53,0,0,0-.56.56c0,.33,4.15.56,11.38.56,12.95,0,18.5.5,29,2.52,13.12,2.58,18.33,4.88,20.58,9.08,1.51,2.81.56,6.39-2.7,10.09-1.62,1.85-2.74,2.53-6.16,3.53a138.17,138.17,0,0,1-25.9,4.88c-9,.45-13.34-.45-18.72-4.09a30.67,30.67,0,0,0-3.09-1.85,41,41,0,0,1-5.6-4.32c-5.61-5-8.24-6.11-17.89-7.79-8.85-1.57-12.27-2.52-16.42-4.6-2.86-1.4-8.8-6.78-8.8-7.9,0-.39,1.68.5,3.81,2a39.09,39.09,0,0,0,15.25,6.67c7.51,1.52,12.67.17,20.35-5.32l4-2.86h-2.13a7.44,7.44,0,0,0-4.37,1.62,19.89,19.89,0,0,1-5,2.58,10,10,0,0,0-3,1.35c-.5.84-8.18.67-11.38-.28-4.48-1.29-11.94-5-11.94-6,0-.22-.33-.39-.73-.39s-1.57-1-2.63-2.24c-1.79-2.08-4.48-3.09-4.48-1.69,0,.34-.45.28-1.13-.11s-1.12-1-1.12-1.4-.22-.73-.5-.73-.79-.73-1.18-1.62a9.08,9.08,0,0,0-2-2.92,4.31,4.31,0,0,1-1.34-1.91,4.59,4.59,0,0,0-1.12-2,4.57,4.57,0,0,1-1.12-2.13,23.83,23.83,0,0,0-2.19-4.87,51.46,51.46,0,0,1-3.36-7.35c-.62-1.79-2-5.27-3.14-7.73s-2.53-5.95-3.14-7.85a117.12,117.12,0,0,0-5.33-12.45,16.89,16.89,0,0,1-1.34-3.64,2.4,2.4,0,0,0-.56-1.4,3.6,3.6,0,0,1-.79-1.68c-.39-1.85-5.44-12.5-9.81-20.41-2.24-4.15-5.66-10.59-7.51-14.29a95.79,95.79,0,0,0-10.76-17.33c-1.85-2.41-3.87-5.1-4.49-5.94s-1.51-1.9-2-2.41a24.38,24.38,0,0,1-2-2.35c-2.41-3.14-9.25-10.37-9.87-10.37-.22,0-.95,1.4-1.68,3.19a42.25,42.25,0,0,1-3.31,6.28c-4,6.17-7.85,12.5-7.85,12.84a38.75,38.75,0,0,1-2,4.2c-2.3,4.49-3.64,9.31-6.22,22.2-.79,4.15-2,6.22-3.42,6.22a29.61,29.61,0,0,1-5.66-3.53c-2.69-2-5.89-4.09-7.12-4.82-6.06-3.59-6.45-4-6.45-6.5,0-4.09,5.21-16.26,9.19-21.53,1.29-1.62,2.7-3.59,3.14-4.26,3.82-5.72,17.44-20.12,20.86-22.08l2.69-1.57-2-2.58a22.89,22.89,0,0,0-2.13-2.58C272.48,150.6,271.08,151.21,269.51,152Z"/><path class="b01ac7ee-739f-4941-b4cd-65ef6a9fb8e9" d="M230.49,206.43c-.84,1.8-.84,2.13.06,4.09.56,1.18,2.07,7.85,3.25,14,.17.78.62,2.52,1,3.92l2,7.29c.67,2.63,1.34,5.16,1.51,5.61a17,17,0,0,1,.5,1.68c.06.45.29,1.45.4,2.24.61,3.08,1.12,7.4,1.79,14.8a57,57,0,0,0,.84,6.16,60.91,60.91,0,0,1,.79,6.79c.16,2.46.56,6.22.84,8.41s.67,4.76.73,5.83c.16,1.73.39,2,1.9,2.13,2.52.28,3.76-1.35,4.21-5.89.22-2.07.67-5.66,1-8,2-14.46-1.46-42.27-6.68-53.37-2.24-4.76-5.49-10.59-6.55-11.82-1.24-1.29-.56-1.8,1.12-.85l4.09,2.25a19.73,19.73,0,0,1,4.65,3.47,9.48,9.48,0,0,0,2.36,2c.95,0,5.55,3.48,7.51,5.72,1.12,1.34,4.15,4.54,6.67,7.17,5.38,5.61,13.4,14.92,13.73,15.87a11.68,11.68,0,0,0,2.13,2.63c1.07,1.07,1.69,2,1.35,2.13s.11,1.12.95,2.3,4.43,6.22,8,11.27,7.29,10.37,8.36,11.94c6.16,9.25,9,13.68,9,14s5.44,8.74,7.79,12.05a63.06,63.06,0,0,1,3.76,6.17c1.12,2.07,3.08,5.32,4.37,7.17a53.81,53.81,0,0,1,3,4.77,155.29,155.29,0,0,0,10.37,16.14,53.26,53.26,0,0,0,6.17,6.22c1.9,1.57,3.75,3.14,4.14,3.42a2.19,2.19,0,0,0,1.24.56,16.53,16.53,0,0,1,3.25,1.4,25.63,25.63,0,0,0,4.65,1.8c2.08.5,28.82.39,37.28-.06,9-.56,14-.95,16-1.29,1.06-.16,2.46-.39,3.08-.5l3.08-.51c1.07-.16,2.86-.44,3.93-.56s2.86-.5,3.92-.78c2.19-.62,10.82-2.13,14.3-2.58a47.18,47.18,0,0,0,7-1.12c.56-.17,1.52-.45,2.08-.56a73.88,73.88,0,0,0,10-3.25,17.68,17.68,0,0,1,3.31-1.18,4.83,4.83,0,0,0,2.41-1.51A2.41,2.41,0,0,1,464.7,335c.9,0,4.21-3.87,4.21-4.88,0-.39.22-.72.5-.72s.62-.45.79-1a27.12,27.12,0,0,1,1.74-3.36c1.85-3.08,2.46-8.3,1.28-10.6s-8-7.84-10.37-8.35c-.5-.11-1.79-.45-2.74-.78-2.3-.68-3.14.28-.9,1.06a14.21,14.21,0,0,1,2.41,1.12,23.24,23.24,0,0,0,2.8,1.46,16.68,16.68,0,0,1,6.45,5.83c1.23,2.3-.67,8.86-3.64,12.5-.9,1.12-5.27,4.09-5.38,3.7-.06-.11-.57.17-1.13.62a11.92,11.92,0,0,1-2.46,1.51,42.25,42.25,0,0,1-6.45,2.69,26.4,26.4,0,0,0-2.8.84,24.58,24.58,0,0,1-2.52.84c-1.69.45-3.87.84-8.13,1.63-2.75.45-5.67.95-6.45,1.12s-4.43.84-8.13,1.68a100.72,100.72,0,0,1-13.17,1.74c-3.53.11-10.88.5-16.26.84-12.72.73-29.77.95-33.47.39-6-.89-11.94-4.09-15.3-8.29a40.77,40.77,0,0,0-2.92-3.25c-.56-.51-1-1.07-1-1.35s-.62-1-1.41-1.63-1.4-1.34-1.4-1.62a3,3,0,0,0-.67-1.35,21,21,0,0,1-1.85-2.29c-.62-.85-1.68-2.25-2.35-3.09a7.1,7.1,0,0,1-1.29-1.85,59.47,59.47,0,0,0-4.38-6.22c-.22-.34-1.45-2.58-2.74-5.05-5.22-10.2-6.79-13.17-8.47-15.64a22.84,22.84,0,0,1-1.79-2.85,23.45,23.45,0,0,0-2-3,14.58,14.58,0,0,1-2-3.2,15.69,15.69,0,0,0-2-3.25,12.33,12.33,0,0,1-2-3.53c0-.39-.22-.73-.45-.73s-.78-.56-1.12-1.29-1.79-2.74-3.19-4.59a95.88,95.88,0,0,1-5.89-8.41,57,57,0,0,0-4.88-5.89,18.67,18.67,0,0,1-2.41-3,24.88,24.88,0,0,0-2.91-3.36c-1.63-1.63-4.38-4.71-6.06-6.84-3.7-4.6-23.21-24.39-24.1-24.39a25.69,25.69,0,0,1-4.71-3.08,29.48,29.48,0,0,0-4.6-3.08,17,17,0,0,1-3.42-2.25c-3.42-2.57-5.88-3.92-7.29-3.92a4.06,4.06,0,0,1-2.07-.84C232.68,204.47,231.33,204.75,230.49,206.43Z"/><path class="a2476670-85f2-4065-bf6d-55e7f7cf69c1" d="M268.67,247.91c-2.36,1.29-2.75,1.8-3.76,4.88-3.25,9.76-8.07,56-9.42,89.3l-.28,7.46h3.37l.33-10.77c.68-19.9,2.36-40.13,5.1-61.55,2.81-21.75,3.59-24.72,7.18-26.91,2.24-1.4,6.9-1.51,8.69-.22,2.07,1.46,2.52.62.73-1.23C277.81,246,272.76,245.62,268.67,247.91Z"/><path class="eeb2c4f2-7e14-4451-a8e4-6f2751375525" d="M247.48,345.45c0,3.93.05,4.1,1.34,4.1.73,0,2.47.16,3.93.33l2.58.39v-8.46l-3.93-.22-3.92-.17Z"/><path class="b03a5aff-ccc1-49dd-9ce6-069a46e07436" d="M289.91,166.07a104.77,104.77,0,0,1,7.07,8.41,24.65,24.65,0,0,0,3.14,3.75,7.36,7.36,0,0,1,1.73,2.19,14.13,14.13,0,0,0,2.13,3.14c2.64,3.14,9.42,13.45,10.15,15.25.28.73,1.46,3,2.58,5,2,3.36,5.89,10.7,8.63,16,2,4,4.94,10.43,8.47,18.78,1.9,4.49,3.81,8.86,4.26,9.76a7.22,7.22,0,0,1,.78,2.52,13.17,13.17,0,0,0,1.4,3.59c.79,1.45,1.29,2.63,1.13,2.63s1,2.86,2.57,5.72a4.81,4.81,0,0,1,.51,1.62,20.13,20.13,0,0,0,1.4,3.65,19.73,19.73,0,0,1,1.4,3.59,3.93,3.93,0,0,0,.56,1.57c.28.5,1.68,3.42,3.09,6.39a84.45,84.45,0,0,0,4.2,8,14.8,14.8,0,0,1,1.68,2.8,23.53,23.53,0,0,0,2.52,3.59c1.85,2.35,2.3,3.25,1.69,3.36-3.42.73,4.42,7.9,12.72,11.55,4.26,1.9,11.72,3.36,15,3,3.75-.5,8.52-2.64,13.12-5.94l4-2.86h-2l-2-.06,1.9-1.57,1.91-1.57-5.27-.39c-10.37-.78-17.38-2.91-26.57-8-2.19-1.23-9.25-8.07-10.15-9.86-.5-.9-2.24-3.53-3.92-5.78a40.33,40.33,0,0,1-3-4.37,21.94,21.94,0,0,0-1.79-2.86,76,76,0,0,1-5.72-9,24.38,24.38,0,0,0-1.85-3.08,26,26,0,0,1-2.13-3.64,40.18,40.18,0,0,0-2.3-3.93c-.67-.95-3-5.32-5.27-9.81s-4.26-8.52-4.54-9c-2.63-5.1-6.11-13.17-6.45-14.74-.22-1.4-2.74-6.33-4.93-9.81a13.53,13.53,0,0,1-1.46-2.8c0-.45-1.17-2.3-6.72-10.48-1.07-1.63-3.09-4.6-4.43-6.68a19.7,19.7,0,0,0-2.92-3.7,7.39,7.39,0,0,1-1.85-2.41c-2-3.25-9.41-11.43-13.51-14.74C284.53,159.51,284.25,159.9,289.91,166.07Z"/></g><g id="fa3912a5-3291-41e6-8436-a6d20295141e" data-name="图层 2"><path class="fcb91a62-4e69-4ad9-9038-0625078d3b01" d="M456.72,18.29a105.17,105.17,0,0,1,7.07,8.4,25.24,25.24,0,0,0,3.14,3.76,7.23,7.23,0,0,1,1.73,2.19,14.13,14.13,0,0,0,2.13,3.14c2.64,3.14,9.42,13.45,10.15,15.24.28.73,1.46,3,2.58,5,2,3.37,5.89,10.71,8.63,16,2,4,4.94,10.43,8.47,18.78,1.9,4.48,3.81,8.86,4.26,9.75a7.35,7.35,0,0,1,.78,2.52,12.93,12.93,0,0,0,1.4,3.59c.79,1.46,1.29,2.64,1.13,2.64s1,2.86,2.57,5.72a4.74,4.74,0,0,1,.51,1.62,20.45,20.45,0,0,0,1.4,3.64,20,20,0,0,1,1.4,3.59,3.88,3.88,0,0,0,.56,1.57c.28.51,1.68,3.42,3.09,6.39a83.2,83.2,0,0,0,4.2,8,13.31,13.31,0,0,1,1.68,2.86c0,1.18,9.53,11.49,10.65,11.49.28,0,.56.17.56.4,0,1,7.46,4.7,12,6,3.25,1,10.15,1.12,11.27.28a34.86,34.86,0,0,1,3.47-1.51,36.54,36.54,0,0,0,7-4.15l4-3-6.39-.67c-11.05-1.12-16.26-2.69-25.51-7.85-2.19-1.23-9.25-8.07-10.15-9.87-.5-.89-2.24-3.53-3.92-5.77a40.33,40.33,0,0,1-3-4.37,21.94,21.94,0,0,0-1.79-2.86,76.85,76.85,0,0,1-5.72-9,23.69,23.69,0,0,0-1.85-3.08,26.17,26.17,0,0,1-2.13-3.65,41.17,41.17,0,0,0-2.3-3.92c-.67-1-3-5.33-5.27-9.81s-4.26-8.52-4.54-9c-2.63-5.1-6.11-13.17-6.45-14.74-.22-1.4-2.74-6.34-4.93-9.81A13.5,13.5,0,0,1,487.16,55c0-.44-1.17-2.29-6.72-10.48-1.07-1.62-3.09-4.6-4.43-6.67a19.32,19.32,0,0,0-2.92-3.7,7.39,7.39,0,0,1-1.85-2.41c-2-3.25-9.41-11.44-13.51-14.74C451.34,11.73,451.06,12.12,456.72,18.29Z"/><path class="a62d3187-d732-46d5-8896-096391830112" d="M534.7,334.26c0,1.12,5.95,6.51,8.81,7.91,4.14,2.07,7.56,3,16.42,4.59,9.64,1.69,12.28,2.81,17.88,7.8a41.21,41.21,0,0,0,5.61,4.31,34.84,34.84,0,0,1,3.08,1.85c5.38,3.65,9.7,4.54,18.73,4.09a138.15,138.15,0,0,0,25.89-4.87c3.42-1,4.55-1.68,6.17-3.53,3.25-3.7,4.21-7.29,2.69-10.09-2.24-4.21-7.45-6.51-20.57-9.09-10.6-2-16.09-2.52-29.49-2.52H578.09l-4.14,3c-4.66,3.31-9.53,5.44-13.18,5.83-3.19.4-10.87-1.23-15.08-3.14a57.12,57.12,0,0,1-7.17-4.14C536.39,334.77,534.7,333.87,534.7,334.26Z"/><path class="e9e79ad3-f7de-47cc-9d71-8d292346ce47" d="M341.37,14.11c-1,.73-1,.79-.06,2.36a33.16,33.16,0,0,0,6.79,6.61,9.08,9.08,0,0,1,2.57,3.37,18,18,0,0,0,3.42,4.71A105.28,105.28,0,0,1,363.51,42c.79,1,2.08,2.57,2.86,3.53a113.87,113.87,0,0,1,13.79,21.35c1.85,3.7,5.27,10.15,7.51,14.3,4.38,7.9,9.42,18.55,9.81,20.4a3.69,3.69,0,0,0,.79,1.69,2.4,2.4,0,0,1,.56,1.4,17.48,17.48,0,0,0,1.34,3.64,114.14,114.14,0,0,1,5.33,12.45c.62,1.9,2.07,5.43,3.14,7.84s2.52,5.95,3.14,7.74a50.89,50.89,0,0,0,3.36,7.34,24.06,24.06,0,0,1,2.19,4.88,4.57,4.57,0,0,0,1.12,2.13,4.49,4.49,0,0,1,1.12,2,4.36,4.36,0,0,0,1.35,1.91,9.12,9.12,0,0,1,2,2.91c.4.9.9,1.63,1.18,1.63s.51.34.51.73a2.25,2.25,0,0,0,1.12,1.4c.61.39,1.12.45,1.12.17s.39-.62.84-.73c.62-.11.17-1-1.68-3.36a24,24,0,0,1-2.53-3.59,14.46,14.46,0,0,0-1.68-2.81,85.56,85.56,0,0,1-4.2-8c-1.4-3-2.8-5.88-3.09-6.39A3.88,3.88,0,0,1,414,135a19.76,19.76,0,0,0-1.4-3.58,20.42,20.42,0,0,1-1.4-3.65,4.75,4.75,0,0,0-.5-1.62c-1.57-2.86-2.81-5.72-2.58-5.72s-.34-1.18-1.12-2.64a12.7,12.7,0,0,1-1.4-3.58,7.38,7.38,0,0,0-.79-2.53c-.45-.89-2.35-5.26-4.26-9.75-3.53-8.35-6.45-14.8-8.46-18.78-2.75-5.27-6.68-12.61-8.64-16-1.12-2-2.3-4.26-2.58-5-.72-1.8-7.51-12.11-10.14-15.25a13.75,13.75,0,0,1-2.13-3.14,7.46,7.46,0,0,0-1.74-2.19,25.77,25.77,0,0,1-3.14-3.75,102.22,102.22,0,0,0-7.06-8.41c-5.67-6.17-5.39-6.56,1-1.29,4.09,3.31,11.54,11.49,13.51,14.74A7.11,7.11,0,0,0,373,45.28,19.94,19.94,0,0,1,375.9,49c1.35,2.08,3.36,5.05,4.43,6.67,5.55,8.19,6.73,10,6.73,10.49a13.28,13.28,0,0,0,1.45,2.8c2.19,3.47,4.71,8.41,4.94,9.81.33,1.57,3.81,9.64,6.44,14.74.28.45,2.3,4.49,4.54,9s4.6,8.86,5.27,9.81a38.27,38.27,0,0,1,2.3,3.93,26.6,26.6,0,0,0,2.13,3.64,23.69,23.69,0,0,1,1.85,3.08,76,76,0,0,0,5.72,9,21.94,21.94,0,0,1,1.79,2.86,40.33,40.33,0,0,0,3,4.37c1.68,2.24,3.42,4.88,3.93,5.78.89,1.79,8,8.63,10.14,9.86,9.2,5.1,16.2,7.23,26.57,8l5.27.39-1.9,1.57-1.91,1.57,2.41.06c1.29,0,2.36-.28,2.36-.56a.56.56,0,0,1,.56-.56,4.54,4.54,0,0,0,1.9-1.29c.68-.68,2.13-1.91,3.14-2.81,1.68-1.34,1.8-1.62,1.12-2.3s-1.68-.72-5-.33c-4,.45-14.52-.11-15.75-.9a10.28,10.28,0,0,0-2.08-.56,38.92,38.92,0,0,1-13.85-6c-5.54-3.75-6.22-4.37-9.81-9.36-1.23-1.68-2.41-3.36-2.69-3.64-4.2-5.66-7.4-10.49-7.4-11.16,0-.5-.22-.89-.56-.89s-.56-.4-.56-.85-.22-.84-.5-.84-1.07-1.06-1.74-2.41-2-3.64-2.86-5.15-1.79-3.2-2-3.65a5.52,5.52,0,0,0-.67-1.12,57.4,57.4,0,0,1-4.09-7.29,27.39,27.39,0,0,0-1.57-2.8,35.36,35.36,0,0,1-3.36-6.67,15.22,15.22,0,0,0-1.69-3.42c-.89-1.51-1.45-2.8-1.23-2.8s.11-.23-.22-.45c-.73-.51-2.53-4.49-3.31-7.4-.23-.73-2.19-5.38-3.87-9-.5-1.07-1.62-3.25-2.52-4.76l-2.41-4.21a6.55,6.55,0,0,0-1.07-1.68c-.17-.17-1.17-1.79-2.24-3.64a31.76,31.76,0,0,0-2.91-4.49,28.83,28.83,0,0,1-2.53-3.64,41.53,41.53,0,0,0-4.15-5.72,24.83,24.83,0,0,1-2.69-3.53A68.47,68.47,0,0,0,370,34.74a84.33,84.33,0,0,0-12.38-12,10.18,10.18,0,0,1-1.85-1.68.91.91,0,0,0-.79-.45,14.05,14.05,0,0,1-3.47-2.13c-3.09-2.36-7.8-5.16-8.58-5.16A3.72,3.72,0,0,0,341.37,14.11Z"/><path class="a155e922-dda1-4d0e-9cb3-b8b05f66f4ed" d="M107.34,21.57a4.93,4.93,0,0,0,.51,3.36c.56,1.18,2.07,7.85,3.25,14,.17.79.61,2.53,1,3.93s1.29,4.65,2,7.29,1.35,5.15,1.52,5.6.39,1.23.5,1.68.28,1.46.4,2.25c.61,3.08,1.12,7.4,1.79,14.79a57.62,57.62,0,0,0,.84,6.17,58.76,58.76,0,0,1,.78,6.78c.17,2.47.57,6.23.85,8.41s.67,4.77.72,5.83c.17,1.74.4,2,1.91,2.13,2.52.28,3.76-1.34,4.2-5.88.23-2.08.68-5.67,1-8,2.08-14.75-1.57-43-6.89-53.76-3.7-7.51-5.66-10.82-7.63-13-1.79-1.91-2.41-2.24-4.37-2.24C108.46,21,107.34,21.23,107.34,21.57Z"/><path class="f68d0eb8-a858-49f0-8096-7116bf4a6d97" d="M273.21,27.51c-3.25,2.13-16.71,16.54-20.13,21.7-.44.67-1.85,2.63-3.14,4.26-4,5.27-9.19,17.43-9.19,21.52,0,2.53.39,2.92,6.45,6.51,1.23.72,4.43,2.85,7.12,4.82A29.61,29.61,0,0,0,260,89.85c1.46,0,2.63-2.08,3.42-6.22,2.58-12.9,3.92-17.72,6.22-22.2a37.53,37.53,0,0,0,2-4.21c0-.39,4.88-8.41,7.4-12a53.75,53.75,0,0,0,3.59-6.73c1.91-4.14,2-4.43,1.12-6.11a8.42,8.42,0,0,0-2.35-2.86,34.13,34.13,0,0,1-2.86-2.29C276.74,25.61,276.24,25.61,273.21,27.51Z"/><path class="bf1af66a-c5cc-45eb-997c-710d4b132691" d="M491.71,371.31c-1.62.73-3,1.24-3,1.07,0-.9-11.21,6.22-13,8.24-.51.62-2.64,2.92-4.77,5.16-5.1,5.44-5.38,5.83-8,10.54-1.23,2.24-2.52,4.48-2.8,4.93a8.6,8.6,0,0,0-.9,1.68,31.73,31.73,0,0,1-1.4,3,11.79,11.79,0,0,0-1.06,3.25,5.39,5.39,0,0,1-.51,2.08c-.78,1.46-2.8,9-3.19,12l-.39,2.69h2.13c3.42,0,5.88,3.14,11.82,15.2,5.33,10.76,9,39,6.9,53.76-.34,2.29-.79,5.88-1,8-.45,4.65-1.68,6.22-4.37,5.88l-1.85-.28.28,2.64c.61,5.15,2.58,37,2.91,47.2l.34,10.48L473,569a29,29,0,0,0,5.44,0l2.35-.28.34-10.76a705.22,705.22,0,0,1,7.34-77.59c1.46-8.85,3.87-11.88,9.59-11.88,3.25,0,5,1.06,7.23,4.43.78,1.12,4.15,5.94,7.57,10.7s7.34,10.43,8.74,12.62,3.93,5.94,5.61,8.41a44.72,44.72,0,0,1,3,4.82c0,.39,5.33,8.63,7.8,12.11a64.91,64.91,0,0,1,3.75,6.16c1.12,2.08,3.09,5.33,4.38,7.18s2.63,4,3,4.76a158.15,158.15,0,0,0,10.37,16.15,54.06,54.06,0,0,0,6.17,6.22c1.91,1.57,3.76,3.14,4.15,3.42a2.21,2.21,0,0,0,1.23.56,16.53,16.53,0,0,1,3.25,1.4,24.6,24.6,0,0,0,4.66,1.79c2.07.51,28.81.4,37.27,0,9-.56,14-1,16-1.29,1.07-.17,2.47-.39,3.08-.51l3.09-.5c1.06-.17,2.86-.45,3.92-.56s2.86-.51,3.93-.79c2.18-.61,10.81-2.13,14.29-2.57a47.15,47.15,0,0,0,7-1.13c.56-.16,1.51-.44,2.07-.56a72.7,72.7,0,0,0,10-3.25,17.3,17.3,0,0,1,3.3-1.17,4.8,4.8,0,0,0,2.41-1.52,2.41,2.41,0,0,1,1.52-1.06c.89,0,4.2-3.87,4.2-4.88,0-.39.23-.73.51-.73s.61-.45.78-1a35.07,35.07,0,0,1,1.74-3.31c1.85-3.08,2.47-8.29,1.29-10.59a17.69,17.69,0,0,0-3.59-3.92c-2.91-2.47-6.89-5-6.89-4.43,0,.17-.45.05-1-.23a13.49,13.49,0,0,0-3.25-.84c-1.23-.22-3.64-.61-5.32-.89s-4-.68-5-.85c-2.8-.5-8.69-2-15.42-4-1.23-.33-4.87-1.23-7-1.62-.79-.17-3.42-.67-5.89-1.18s-4.6-.9-4.76-1a4.84,4.84,0,0,0-1.8,1.29c-3.19,3.08-5.55,5-6,5a.53.53,0,0,0-.56.56c0,.34,4.15.56,11.38.56,13,0,18.5.51,29,2.53,13.11,2.58,18.33,4.87,20.57,9.08,1.51,2.8.56,6.39-2.69,10.09-1.63,1.85-2.75,2.52-6.17,3.53a139,139,0,0,1-25.9,4.88c-9,.45-13.34-.45-18.72-4.1-.9-.61-2.3-1.45-3.08-1.85a40.59,40.59,0,0,1-5.61-4.31c-5.61-5-8.24-6.11-17.88-7.79-8.86-1.57-12.28-2.53-16.43-4.6-2.86-1.4-8.8-6.78-8.8-7.9,0-.4,1.68.5,3.81,2a39.09,39.09,0,0,0,15.25,6.67c7.51,1.51,12.67.17,20.35-5.33l4-2.86h-2.13a7.46,7.46,0,0,0-4.38,1.63,20.68,20.68,0,0,1-5,2.58,9.84,9.84,0,0,0-3,1.34c-.51.84-8.19.68-11.38-.28-4.49-1.29-11.94-5-11.94-6,0-.23-.34-.4-.73-.4s-1.57-1-2.64-2.24c-1.79-2.07-4.48-3.08-4.48-1.68,0,.34-.45.28-1.12-.11s-1.12-1-1.12-1.4-.23-.73-.51-.73-.78-.73-1.18-1.63a8.91,8.91,0,0,0-2-2.91,4.41,4.41,0,0,1-1.35-1.91,4.49,4.49,0,0,0-1.12-2,4.57,4.57,0,0,1-1.12-2.13,24.06,24.06,0,0,0-2.19-4.88,52.51,52.51,0,0,1-3.36-7.34c-.62-1.8-2-5.27-3.14-7.74s-2.52-5.94-3.14-7.85a116.54,116.54,0,0,0-5.32-12.44,16.94,16.94,0,0,1-1.35-3.65,2.43,2.43,0,0,0-.56-1.4,3.61,3.61,0,0,1-.79-1.68c-.39-1.85-5.43-12.5-9.81-20.4-2.24-4.15-5.66-10.6-7.51-14.3a94.59,94.59,0,0,0-10.76-17.32c-1.85-2.41-3.87-5.1-4.49-5.94s-1.51-1.91-2-2.41a26.26,26.26,0,0,1-2-2.36c-2.41-3.14-9.25-10.37-9.87-10.37-.22,0-.95,1.4-1.68,3.2a41.33,41.33,0,0,1-3.31,6.28c-4,6.16-7.84,12.5-7.84,12.83a38.58,38.58,0,0,1-2,4.21c-2.29,4.48-3.64,9.3-6.22,22.2-.78,4.14-2,6.22-3.42,6.22a29.61,29.61,0,0,1-5.66-3.53c-2.69-2-5.89-4.1-7.12-4.82-6-3.59-6.45-4-6.45-6.51,0-4.09,5.22-16.25,9.2-21.52,1.29-1.63,2.69-3.59,3.14-4.26,3.81-5.72,17.43-20.13,20.85-22.09l2.69-1.57-2-2.58a21.56,21.56,0,0,0-2.13-2.58C494.68,369.91,493.28,370.53,491.71,371.31Z"/><path class="b0b0617f-ffd4-40b5-be46-d39620bcadfd" d="M152.55,425.75c-.84,1.79-.84,2.13,0,4.09.56,1.18,2.08,7.85,3.25,14,.17.79.62,2.53,1,3.93s1.29,4.65,2,7.28,1.35,5.16,1.52,5.61.39,1.23.5,1.68.28,1.46.39,2.24c.62,3.09,1.12,7.4,1.8,14.8a55.16,55.16,0,0,0,.84,6.17,61.09,61.09,0,0,1,.78,6.78c.17,2.47.56,6.23.84,8.41s.68,4.77.73,5.83c.17,1.74.39,2,1.91,2.13,2.52.28,3.75-1.34,4.2-5.88.23-2.08.67-5.67,1-8,2-14.47-1.46-42.27-6.67-53.37-2.24-4.77-5.49-10.6-6.56-11.83-1.23-1.29-.56-1.79,1.12-.84.73.39,2.58,1.4,4.09,2.24a19.89,19.89,0,0,1,4.66,3.48,9.52,9.52,0,0,0,2.35,2c1,0,5.55,3.47,7.51,5.71,1.12,1.35,4.15,4.54,6.67,7.18,5.39,5.6,13.4,14.91,13.74,15.86a11.09,11.09,0,0,0,2.13,2.64c1.06,1.06,1.68,2,1.34,2.13s.12,1.12,1,2.3,4.43,6.22,8,11.26S220,494,221.05,495.59c6.17,9.25,9,13.68,9,14s5.43,8.75,7.79,12.06a64.91,64.91,0,0,1,3.75,6.16c1.13,2.08,3.09,5.33,4.38,7.18a54.84,54.84,0,0,1,3,4.76,158.15,158.15,0,0,0,10.37,16.15,54.06,54.06,0,0,0,6.17,6.22c1.91,1.57,3.76,3.14,4.15,3.42a2.24,2.24,0,0,0,1.23.56,16.53,16.53,0,0,1,3.25,1.4,24.6,24.6,0,0,0,4.66,1.79c2.07.51,28.81.4,37.28,0,9-.56,13.95-1,16-1.29,1.07-.17,2.47-.39,3.09-.51s2-.33,3.08-.5,2.86-.45,3.92-.56,2.86-.51,3.93-.79c2.18-.61,10.82-2.13,14.29-2.57a47.15,47.15,0,0,0,7-1.13c.56-.16,1.51-.44,2.07-.56a72.24,72.24,0,0,0,10-3.25,17.3,17.3,0,0,1,3.3-1.17,4.88,4.88,0,0,0,2.42-1.52,2.37,2.37,0,0,1,1.51-1.06c.9,0,4.2-3.87,4.2-4.88,0-.39.23-.73.51-.73s.61-.45.78-.95a30.22,30.22,0,0,1,1.74-3.37c1.85-3.08,2.47-8.29,1.29-10.59s-8-7.85-10.37-8.35c-.51-.12-1.79-.45-2.75-.79-2.3-.67-3.14.28-.89,1.07a14.21,14.21,0,0,1,2.41,1.12,24.68,24.68,0,0,0,2.8,1.46,16.67,16.67,0,0,1,6.45,5.83c1.23,2.29-.68,8.85-3.65,12.5-.9,1.12-5.27,4.09-5.38,3.7-.06-.12-.56.16-1.12.61a12,12,0,0,1-2.47,1.52,44.21,44.21,0,0,1-6.44,2.69,24.65,24.65,0,0,0-2.81.84,23,23,0,0,1-2.52.84c-1.68.45-3.87.84-8.13,1.62-2.75.45-5.66,1-6.45,1.13s-4.42.84-8.12,1.68A102.37,102.37,0,0,1,332.66,563c-3.53.11-10.87.5-16.25.84-12.73.73-29.77.95-33.47.39-6-.9-11.94-4.09-15.31-8.3a43,43,0,0,0-2.91-3.25c-.56-.5-1-1.06-1-1.34s-.62-1-1.4-1.63-1.4-1.35-1.4-1.63a3.09,3.09,0,0,0-.67-1.34,18.31,18.31,0,0,1-1.85-2.3c-.62-.84-1.69-2.24-2.36-3.08a7.1,7.1,0,0,1-1.29-1.85,58.66,58.66,0,0,0-4.37-6.22c-.23-.34-1.46-2.58-2.75-5-5.21-10.2-6.78-13.17-8.46-15.64a24.18,24.18,0,0,1-1.8-2.86,23,23,0,0,0-2-3,14.59,14.59,0,0,1-2-3.19,15.92,15.92,0,0,0-2-3.25,12.33,12.33,0,0,1-2-3.53c0-.4-.23-.73-.45-.73s-.79-.56-1.12-1.29-1.8-2.75-3.2-4.6a94.23,94.23,0,0,1-5.89-8.41,58.22,58.22,0,0,0-4.87-5.88,18.5,18.5,0,0,1-2.41-3,24.45,24.45,0,0,0-2.92-3.37c-1.62-1.62-4.37-4.71-6-6.84-3.7-4.59-23.21-24.38-24.11-24.38a26.14,26.14,0,0,1-4.71-3.09,29.63,29.63,0,0,0-4.59-3.08,16.92,16.92,0,0,1-3.42-2.24c-3.42-2.58-5.89-3.93-7.29-3.93a4.06,4.06,0,0,1-2.07-.84C154.73,423.78,153.39,424.07,152.55,425.75Z"/><path class="e85ba9c2-5a73-4b2e-b7d7-dbec2d6fc0ec" d="M63.38,295.78c-2.36,1.28-2.75,1.79-3.76,4.87-3.25,9.76-8.07,56-9.42,89.3l-.28,7.46h3.36l.34-10.77c.67-19.9,2.36-40.13,5.1-61.55,2.81-21.75,3.59-24.72,7.18-26.9,2.24-1.41,6.89-1.52,8.69-.23,2.07,1.46,2.52.62.73-1.23C72.51,293.87,67.47,293.48,63.38,295.78Z"/><path class="ba078319-11d3-496e-b1fc-e6b3ce3ae521" d="M46,442.53c0,3.93,0,4.1,1.34,4.1.73,0,2.47.17,3.93.33l2.58.4v-8.47l-3.93-.22L46,438.5Z"/><path class="b353ab34-843b-4b4e-8f24-e12dc6f6be1b" d="M578.39,126.64a101.84,101.84,0,0,1,7.06,8.41,26.51,26.51,0,0,0,3.14,3.76,7.17,7.17,0,0,1,1.74,2.18,13.75,13.75,0,0,0,2.13,3.14c2.64,3.14,9.42,13.45,10.15,15.25.28.73,1.46,3,2.58,5,2,3.36,5.88,10.7,8.63,16,2,4,4.93,10.43,8.46,18.78,1.91,4.49,3.82,8.86,4.26,9.76a7.28,7.28,0,0,1,.79,2.52,13.17,13.17,0,0,0,1.4,3.59c.79,1.45,1.29,2.63,1.12,2.63s1,2.86,2.58,5.72a4.78,4.78,0,0,1,.51,1.63,19.63,19.63,0,0,0,1.4,3.64,20.58,20.58,0,0,1,1.4,3.59,3.78,3.78,0,0,0,.56,1.57c.28.5,1.68,3.42,3.08,6.39a84.11,84.11,0,0,0,4.21,8,14.8,14.8,0,0,1,1.68,2.8,23.53,23.53,0,0,0,2.52,3.59c1.85,2.35,2.3,3.25,1.68,3.36-3.42.73,4.43,7.91,12.73,11.55,4.26,1.9,11.71,3.36,15,3,3.75-.5,8.52-2.63,13.11-5.94l4-2.86h-2l-2-.06,1.9-1.57,1.91-1.57-5.27-.39c-10.37-.78-17.38-2.91-26.57-8-2.19-1.24-9.25-8.08-10.15-9.87-.5-.9-2.24-3.53-3.92-5.77a39.36,39.36,0,0,1-3-4.38,22.08,22.08,0,0,0-1.8-2.86,76.85,76.85,0,0,1-5.71-9,24.38,24.38,0,0,0-1.85-3.08,26,26,0,0,1-2.13-3.64,42.3,42.3,0,0,0-2.3-3.93c-.67-1-3-5.32-5.27-9.81s-4.26-8.52-4.54-9c-2.64-5.1-6.11-13.17-6.45-14.74-.22-1.4-2.75-6.33-4.93-9.81a13,13,0,0,1-1.46-2.8c0-.45-1.18-2.3-6.73-10.48-1.06-1.63-3.08-4.6-4.43-6.68a20.35,20.35,0,0,0-2.91-3.7,7.24,7.24,0,0,1-1.85-2.41c-2-3.25-9.42-11.43-13.51-14.74C573,120.08,572.73,120.47,578.39,126.64Z"/><line class="ecd1b72e-a26f-4fb4-9ab5-ad9d7ee05a71" x1="262.48" y1="177" x2="262.48" y2="96.43"/><line class="ecd1b72e-a26f-4fb4-9ab5-ad9d7ee05a71" x1="236.93" y1="222.71" x2="136.71" y2="108.43"/><line class="ecd1b72e-a26f-4fb4-9ab5-ad9d7ee05a71" x1="261.45" y1="300" x2="67.1" y2="345.85"/><line class="ecd1b72e-a26f-4fb4-9ab5-ad9d7ee05a71" x1="443.57" y1="317.85" x2="528.71" y2="334.17"/><line class="ecd1b72e-a26f-4fb4-9ab5-ad9d7ee05a71" x1="355.67" y1="261.82" x2="428.97" y2="163.35"/><line class="ecd1b72e-a26f-4fb4-9ab5-ad9d7ee05a71" x1="382.24" y1="300" x2="520.9" y2="152.94"/><line class="ecd1b72e-a26f-4fb4-9ab5-ad9d7ee05a71" x1="399" y1="306.33" x2="613.1" y2="202.21"/><line class="ecd1b72e-a26f-4fb4-9ab5-ad9d7ee05a71" x1="403.32" y1="335.29" x2="459.44" y2="394.21"/><line class="ecd1b72e-a26f-4fb4-9ab5-ad9d7ee05a71" x1="354.3" y1="345.85" x2="217.92" y2="472.94"/><line class="ecd1b72e-a26f-4fb4-9ab5-ad9d7ee05a71" x1="249.29" y1="345.85" x2="59.95" y2="442.93"/></g></svg>