<?xml version="1.0" standalone="no"?><!DOCTYPE svg PUBLIC "-//W3C//DTD SVG 20010904//EN" "http://www.w3.org/TR/2001/REC-SVG-20010904/DTD/svg10.dtd"><svg version="1.0" xmlns="http://www.w3.org/2000/svg" width="604pt" height="641pt" viewBox="0 0 604 641" preserveAspectRatio="xMidYMid meet"><defs><linearGradient id="linear-gradient-1-1" x1="0.00%" y1="100.00%" x2="128.11%" y2="1.01%"><stop offset="0%" style="stop-color:rgb(240,208,157);stop-opacity:0.999" /><stop offset="100%" style="stop-color:rgb(225,175,103);stop-opacity:1.000" /></linearGradient><linearGradient id="linear-gradient-1-2" x1="0.00%" y1="0.00%" x2="100.51%" y2="99.64%"><stop offset="0%" style="stop-color:rgb(233,183,125);stop-opacity:1.000" /><stop offset="100%" style="stop-color:rgb(243,214,156);stop-opacity:1.000" /></linearGradient><linearGradient id="linear-gradient-1-3" x1="0.00%" y1="100.00%" x2="3.71%" y2="-3.84%"><stop offset="0%" style="stop-color:rgb(224,193,143);stop-opacity:1.000" /><stop offset="100%" style="stop-color:rgb(255,216,145);stop-opacity:1.000" /></linearGradient><linearGradient id="linear-gradient-1-4" x1="0.00%" y1="100.00%" x2="99.00%" y2="-1.86%"><stop offset="0%" style="stop-color:rgb(239,201,156);stop-opacity:1.000" /><stop offset="100%" style="stop-color:rgb(249,229,187);stop-opacity:1.000" /></linearGradient><linearGradient id="linear-gradient-1-5" x1="0.00%" y1="0.00%" x2="97.54%" y2="170.99%"><stop offset="0%" style="stop-color:rgb(225,180,113);stop-opacity:1.000" /><stop offset="100%" style="stop-color:rgb(244,215,170);stop-opacity:1.000" /></linearGradient><linearGradient id="linear-gradient-1-6" x1="0.00%" y1="100.00%" x2="72.97%" y2="-18.62%"><stop offset="0%" style="stop-color:rgb(142,145,154);stop-opacity:0.992" /><stop offset="100%" style="stop-color:rgb(0,0,31);stop-opacity:0.992" /></linearGradient><linearGradient id="linear-gradient-1-7" x1="0.00%" y1="100.00%" x2="5.13%" y2="-110.66%"><stop offset="0%" style="stop-color:rgb(217,217,217);stop-opacity:0.999" /><stop offset="100%" style="stop-color:rgb(224,224,224);stop-opacity:1.000" /></linearGradient><linearGradient id="linear-gradient-2-1" x1="0.00%" y1="0.00%" x2="117.24%" y2="65.90%"><stop offset="0%" style="stop-color:rgb(161,167,162);stop-opacity:0.691" /><stop offset="100%" style="stop-color:rgb(246,252,247);stop-opacity:0.865" /></linearGradient><linearGradient id="linear-gradient-2-2" x1="0.00%" y1="100.00%" x2="0.00%" y2="0.00%"><stop offset="0%" style="stop-color:rgb(254,245,231);stop-opacity:0.790" /><stop offset="100%" style="stop-color:rgb(255,249,235);stop-opacity:0.805" /></linearGradient><linearGradient id="linear-gradient-2-3" x1="0.00%" y1="100.00%" x2="0.00%" y2="0.00%"><stop offset="0%" style="stop-color:rgb(249,227,194);stop-opacity:0.774" /><stop offset="100%" style="stop-color:rgb(252,235,203);stop-opacity:0.806" /></linearGradient><linearGradient id="linear-gradient-2-4" x1="0.00%" y1="0.00%" x2="105.74%" y2="7.38%"><stop offset="0%" style="stop-color:rgb(165,81,69);stop-opacity:0.816" /><stop offset="100%" style="stop-color:rgb(249,95,83);stop-opacity:0.658" /></linearGradient><linearGradient id="linear-gradient-2-5" x1="0.00%" y1="100.00%" x2="30.33%" y2="-19.86%"><stop offset="0%" style="stop-color:rgb(203,199,123);stop-opacity:0.717" /><stop offset="100%" style="stop-color:rgb(208,202,73);stop-opacity:0.830" /></linearGradient><linearGradient id="linear-gradient-2-6" x1="0.00%" y1="100.00%" x2="5.24%" y2="-5.40%"><stop offset="0%" style="stop-color:rgb(0,0,12);stop-opacity:0.561" /><stop offset="100%" style="stop-color:rgb(1,2,13);stop-opacity:0.415" /></linearGradient><linearGradient id="linear-gradient-2-7" x1="0.00%" y1="100.00%" x2="0.00%" y2="0.00%"><stop offset="0%" style="stop-color:rgb(216,209,86);stop-opacity:0.773" /><stop offset="100%" style="stop-color:rgb(225,218,77);stop-opacity:0.809" /></linearGradient><linearGradient id="linear-gradient-2-8" x1="0.00%" y1="0.00%" x2="109.85%" y2="85.80%"><stop offset="0%" style="stop-color:rgb(212,204,66);stop-opacity:0.800" /><stop offset="100%" style="stop-color:rgb(223,218,96);stop-opacity:0.802" /></linearGradient><linearGradient id="linear-gradient-3-1" x1="0.00%" y1="100.00%" x2="0.00%" y2="0.00%"><stop offset="0%" style="stop-color:rgb(255,231,225);stop-opacity:0.756" /><stop offset="100%" style="stop-color:rgb(255,248,243);stop-opacity:0.825" /></linearGradient><linearGradient id="linear-gradient-3-2" x1="0.00%" y1="100.00%" x2="0.00%" y2="-0.00%"><stop offset="0%" style="stop-color:rgb(0,0,14);stop-opacity:0.403" /><stop offset="100%" style="stop-color:rgb(49,53,38);stop-opacity:0.379" /></linearGradient><linearGradient id="linear-gradient-3-3" x1="0.00%" y1="100.00%" x2="0.00%" y2="0.00%"><stop offset="0%" style="stop-color:rgb(233,236,234);stop-opacity:0.735" /><stop offset="100%" style="stop-color:rgb(255,255,255);stop-opacity:0.853" /></linearGradient><linearGradient id="linear-gradient-4-1" x1="0.00%" y1="100.00%" x2="0.00%" y2="0.00%"><stop offset="0%" style="stop-color:rgb(5,5,4);stop-opacity:0.773" /><stop offset="100%" style="stop-color:rgb(0,0,0);stop-opacity:0.848" /></linearGradient></defs><g id="layer-1"><path d="M4255 6388 c-2 -7 -40 -296 -85 -643 -44 -346 -83 -640 -86 -652 -3 -15 0 -23 8 -23 10 0 36 174 96 643 46 353 86 652 89 665 5 23 -14 32 -22 10z" fill="url(#linear-gradient-1-1)" id="region-1-1" transform="translate(0.000000,641.000000) scale(0.100000,-0.100000)"/><path d="M4688 5218 c-262 -342 -254 -331 -235 -327 14 4 447 558 447 573 0 24 -42 -25 -212 -246z" fill="url(#linear-gradient-1-2)" id="region-1-2" transform="translate(0.000000,641.000000) scale(0.100000,-0.100000)"/><path d="M3541 5024 c-30 -8 -74 -23 -99 -34 -44 -20 -48 -20 -95 -4 -69 23 -176 15 -239 -17 -32 -16 -124 -100 -272 -248 l-225 -224 -42 -445 -42 -444 479 -479 479 -478 448 42 448 42 219 221 c176 177 224 231 245 275 35 78 41 159 18 234 l-19 60 30 65 c24 52 31 82 34 150 7 147 35 113 -581 727 -523 522 -544 542 -596 557 -66 19 -119 19 -190 0z" fill="url(#linear-gradient-1-3)" id="region-1-3" transform="translate(0.000000,641.000000) scale(0.100000,-0.100000)"/><path d="M4904 4794 c-287 -220 -316 -244 -295 -244 14 0 580 431 581 443 0 4 -4 7 -9 7 -5 0 -130 -93 -277 -206z" fill="url(#linear-gradient-1-4)" id="region-1-4" transform="translate(0.000000,641.000000) scale(0.100000,-0.100000)"/><path d="M5332 4325 c-343 -46 -626 -86 -629 -89 -4 -3 -4 -8 -1 -11 3 -3 298 33 655 80 358 47 656 85 662 85 6 0 11 5 11 10 0 16 -48 11 -698 -75z" fill="url(#linear-gradient-1-5)" id="region-1-5" transform="translate(0.000000,641.000000) scale(0.100000,-0.100000)"/><path d="M1288 2373 c-965 -966 -1242 -1248 -1257 -1283 -29 -64 -29 -216 -1 -275 21 -43 510 -536 608 -613 129 -101 290 -92 402 23 24 25 49 45 55 45 5 0 546 536 1200 1190 l1190 1190 -480 480 -480 480 -1237 -1237z" fill="url(#linear-gradient-1-6)" id="region-1-6" transform="translate(0.000000,641.000000) scale(0.100000,-0.100000)"/><path d="M350 254 c-137 -16 -252 -40 -300 -63 -30 -14 -35 -21 -35 -51 0 -34 1 -35 67 -57 81 -28 208 -48 385 -64 189 -16 821 -6 973 15 367 53 420 136 125 195 -120 24 -288 41 -400 41 l-81 0 -44 -45 c-64 -65 -119 -88 -210 -89 -91 -1 -141 20 -216 87 -60 54 -65 55 -264 31z" fill="url(#linear-gradient-1-7)" id="region-1-7" transform="translate(0.000000,641.000000) scale(0.100000,-0.100000)"/></g><g id="layer-2"><path d="M3542 5024 c-30 -8 -72 -22 -93 -32 l-39 -17 720 -720 720 -720 27 60 c20 46 28 80 31 146 7 146 35 111 -581 726 -523 522 -544 542 -596 557 -66 19 -119 19 -189 0z" fill="url(#linear-gradient-2-1)" id="region-2-1" transform="translate(0.000000,641.000000) scale(0.100000,-0.100000)"/><path d="M3143 4884 c-24 -14 -43 -29 -43 -35 0 -14 8 -11 39 12 44 32 107 36 169 9 28 -12 57 -28 63 -36 6 -8 18 -14 26 -14 27 0 -6 29 -69 61 -73 37 -128 38 -185 3z" fill="url(#linear-gradient-2-2)" id="region-2-2" transform="translate(0.000000,641.000000) scale(0.100000,-0.100000)"/><path d="M2880 4635 c-52 -52 -91 -98 -87 -102 8 -7 197 175 197 189 0 19 -21 2 -110 -87z" fill="url(#linear-gradient-2-3)" id="region-2-3" transform="translate(0.000000,641.000000) scale(0.100000,-0.100000)"/><path d="M2607 4448 c-3 -29 -23 -230 -43 -447 l-37 -393 479 -479 479 -478 448 42 447 42 -883 883 -884 884 -6 -54z" fill="url(#linear-gradient-2-4)" id="region-2-4" transform="translate(0.000000,641.000000) scale(0.100000,-0.100000)"/><path d="M1775 2720 c-280 -280 -506 -513 -502 -517 8 -7 1027 1005 1027 1019 0 5 -3 8 -8 8 -4 0 -236 -229 -517 -510z" fill="url(#linear-gradient-2-5)" id="region-2-5" transform="translate(0.000000,641.000000) scale(0.100000,-0.100000)"/><path d="M1977 2382 l-437 -437 140 -140 140 -140 440 440 440 440 -137 137 c-76 76 -140 138 -143 138 -3 0 -202 -197 -443 -438z" fill="url(#linear-gradient-2-6)" id="region-2-6" transform="translate(0.000000,641.000000) scale(0.100000,-0.100000)"/><path d="M1030 1975 c-57 -57 -101 -108 -97 -112 8 -7 217 195 217 209 0 19 -22 1 -120 -97z" fill="url(#linear-gradient-2-7)" id="region-2-7" transform="translate(0.000000,641.000000) scale(0.100000,-0.100000)"/><path d="M545 1490 c-137 -137 -246 -253 -242 -257 8 -7 507 485 507 499 0 5 -3 8 -8 8 -4 0 -119 -112 -257 -250z" fill="url(#linear-gradient-2-8)" id="region-2-8" transform="translate(0.000000,641.000000) scale(0.100000,-0.100000)"/></g><g id="layer-3"><path d="M2687 4204 c-8 -14 -37 -307 -36 -374 1 -98 15 -24 34 171 16 177 17 227 2 203z" fill="url(#linear-gradient-3-1)" id="region-3-1" transform="translate(0.000000,641.000000) scale(0.100000,-0.100000)"/><path d="M4729 3539 c-6 -169 -11 -177 -276 -441 l-218 -217 -210 -21 c-115 -11 -309 -29 -430 -40 -121 -12 -229 -23 -240 -26 -11 -3 -569 -554 -1240 -1224 -671 -670 -1231 -1223 -1244 -1230 -55 -28 -72 -15 -378 292 -194 196 -299 308 -314 338 -24 49 -30 142 -16 235 l9 50 -62 -64 c-85 -87 -100 -123 -100 -240 0 -74 4 -104 20 -136 21 -43 510 -536 608 -613 129 -101 290 -92 402 23 24 25 49 45 55 45 5 0 546 536 1201 1191 l1191 1191 447 42 447 41 219 221 c175 175 224 231 244 275 60 129 37 268 -59 368 l-53 55 -3 -115z" fill="url(#linear-gradient-3-2)" id="region-3-2" transform="translate(0.000000,641.000000) scale(0.100000,-0.100000)"/><path d="M2130 2455 l-275 -275 100 -100 100 -100 275 275 275 275 -100 100 -100 100 -275 -275z" fill="url(#linear-gradient-3-3)" id="region-3-3" transform="translate(0.000000,641.000000) scale(0.100000,-0.100000)"/></g><g id="layer-4"><path d="M2169 2414 l-174 -174 60 -60 60 -60 173 173 172 173 -59 60 -59 61 -173 -173z" fill="url(#linear-gradient-4-1)" id="region-4-1" transform="translate(0.000000,641.000000) scale(0.100000,-0.100000)"/></g></svg>