<?xml version="1.0" standalone="no"?><!DOCTYPE svg PUBLIC "-//W3C//DTD SVG 20010904//EN" "http://www.w3.org/TR/2001/REC-SVG-20010904/DTD/svg10.dtd"><svg version="1.0" xmlns="http://www.w3.org/2000/svg" width="500.0pt" height="500.0pt" viewBox="0 0 500.0 500.0" preserveAspectRatio="xMidYMid meet"><defs><linearGradient id="linear-gradient-0" x1="0.00%" y1="100.00%" x2="105.08%" y2="4.61%"><stop offset="0%" style="stop-color:rgb(102,65,102);stop-opacity:1.000" /><stop offset="100%" style="stop-color:rgb(104,91,104);stop-opacity:1.000" /></linearGradient><linearGradient id="linear-gradient-1" x1="0.00%" y1="100.00%" x2="78.92%" y2="-14.53%"><stop offset="0%" style="stop-color:rgb(83,106,70);stop-opacity:1.000" /><stop offset="100%" style="stop-color:rgb(60,135,100);stop-opacity:1.000" /></linearGradient><linearGradient id="linear-gradient-2" x1="0.00%" y1="100.00%" x2="29.76%" y2="-17.75%"><stop offset="0%" style="stop-color:rgb(11,162,93);stop-opacity:0.517" /><stop offset="100%" style="stop-color:rgb(19,191,160);stop-opacity:0.530" /></linearGradient><linearGradient id="linear-gradient-3" x1="0.00%" y1="100.00%" x2="28.76%" y2="-51.23%"><stop offset="0%" style="stop-color:rgb(72,118,71);stop-opacity:0.715" /><stop offset="100%" style="stop-color:rgb(29,225,209);stop-opacity:0.355" /></linearGradient><linearGradient id="linear-gradient-4" x1="0.00%" y1="100.00%" x2="46.86%" y2="-61.43%"><stop offset="0%" style="stop-color:rgb(221,37,0);stop-opacity:0.241" /><stop offset="100%" style="stop-color:rgb(255,138,0);stop-opacity:0.000" /></linearGradient><linearGradient id="linear-gradient-5" x1="0.00%" y1="100.00%" x2="101.31%" y2="0.18%"><stop offset="0%" style="stop-color:rgb(191,32,34);stop-opacity:0.363" /><stop offset="100%" style="stop-color:rgb(38,109,114);stop-opacity:0.326" /></linearGradient></defs><g fill="url(#linear-gradient-0)" transform="translate(0.000000,500.000000) scale(0.100000,-0.100000)">
<path d="M0 2500 l0 -2500 2500 0 2500 0 0 2500 0 2500 -2500 0 -2500 0 0 -2500z"/>
</g><g fill="url(#linear-gradient-1)" transform="translate(0.000000,500.000000) scale(0.100000,-0.100000)">
<path d="M3230 4824 c-333 -40 -611 -73 -619 -73 -16 -1 -1 -17 420 -451 151 -157 635 -657 1074 -1112 440 -455 800 -826 802 -825 1 2 -218 545 -488 1208 -270 662 -502 1232 -516 1267 -20 50 -29 62 -47 61 -11 -1 -293 -34 -626 -75z"/>
</g><g fill="url(#linear-gradient-2)" transform="translate(0.000000,500.000000) scale(0.100000,-0.100000)">
<path d="M4084 3168 c-170 -14 -328 -90 -460 -222 -132 -132 -207 -288 -222 -459 -21 -249 51 -452 222 -623 132 -132 288 -207 459 -222 249 -21 452 51 623 222 132 132 207 288 222 459 21 249 -51 452 -222 623 -171 170 -373 243 -622 222z"/>
</g><g fill="url(#linear-gradient-3)" transform="translate(0.000000,500.000000) scale(0.100000,-0.100000)">
<path d="M760 2109 c-242 -20 -474 -182 -580 -404 -73 -154 -93 -350 -50 -505 91 -329 367 -540 705 -540 410 0 725 315 725 725 0 438 -357 761 -800 724z"/>
</g><g fill="url(#linear-gradient-4)" transform="translate(0.000000,500.000000) scale(0.100000,-0.100000)">
<path d="M1160 3988 c-457 -31 -862 -347 -1011 -785 -43 -129 -60 -232 -60 -378 0 -146 17 -249 60 -376 49 -147 134 -292 238 -408 l40 -45 74 36 c116 57 206 78 334 78 272 0 503 -134 637 -370 17 -30 32 -56 33 -58 6 -8 209 65 275 98 325 164 557 473 625 834 9 47 16 136 16 211 0 75 -7 164 -16 211 -89 468 -441 830 -910 935 -76 17 -229 25 -335 17z"/>
</g><g fill="url(#linear-gradient-5)" transform="translate(0.000000,500.000000) scale(0.100000,-0.100000)">
<path d="M1990 2295 l0 -1765 645 0 645 0 0 1765 0 1765 -645 0 -645 0 0 -1765z"/>
</g></svg>