<?xml version="1.0" standalone="no"?><!DOCTYPE svg PUBLIC "-//W3C//DTD SVG 20010904//EN" "http://www.w3.org/TR/2001/REC-SVG-20010904/DTD/svg10.dtd"><svg version="1.0" xmlns="http://www.w3.org/2000/svg" width="500.0pt" height="500.0pt" viewBox="0 0 500.0 500.0" preserveAspectRatio="xMidYMid meet"><defs><linearGradient id="linear-gradient-0" x1="0.00%" y1="100.00%" x2="99.75%" y2="-0.24%"><stop offset="0%" style="stop-color:rgb(101,51,101);stop-opacity:1.000" /><stop offset="100%" style="stop-color:rgb(128,0,128);stop-opacity:1.000" /></linearGradient><linearGradient id="linear-gradient-1" x1="0.00%" y1="100.00%" x2="19.33%" y2="-13.71%"><stop offset="0%" style="stop-color:rgb(62,31,103);stop-opacity:1.000" /><stop offset="100%" style="stop-color:rgb(61,31,91);stop-opacity:1.000" /></linearGradient><linearGradient id="linear-gradient-2" x1="0.00%" y1="100.00%" x2="107.57%" y2="0.78%"><stop offset="0%" style="stop-color:rgb(252,1,9);stop-opacity:0.296" /><stop offset="100%" style="stop-color:rgb(252,0,241);stop-opacity:0.537" /></linearGradient><linearGradient id="linear-gradient-3" x1="0.00%" y1="100.00%" x2="58.65%" y2="-20.18%"><stop offset="0%" style="stop-color:rgb(152,19,42);stop-opacity:0.530" /><stop offset="100%" style="stop-color:rgb(62,33,63);stop-opacity:0.708" /></linearGradient><linearGradient id="linear-gradient-4" x1="0.00%" y1="100.00%" x2="59.44%" y2="-3.19%"><stop offset="0%" style="stop-color:rgb(13,11,236);stop-opacity:0.270" /><stop offset="100%" style="stop-color:rgb(89,82,128);stop-opacity:0.420" /></linearGradient><linearGradient id="linear-gradient-5" x1="0.00%" y1="100.00%" x2="37.00%" y2="-19.51%"><stop offset="0%" style="stop-color:rgb(43,17,121);stop-opacity:0.835" /><stop offset="100%" style="stop-color:rgb(70,36,118);stop-opacity:0.829" /></linearGradient></defs><g fill="url(#linear-gradient-0)" transform="translate(0.000000,500.000000) scale(0.100000,-0.100000)">
<path d="M0 2500 l0 -2500 2500 0 2500 0 0 2500 0 2500 -2500 0 -2500 0 0 -2500z"/>
</g><g fill="url(#linear-gradient-1)" transform="translate(0.000000,500.000000) scale(0.100000,-0.100000)">
<path d="M1159 2448 c-533 -38 -980 -486 -1017 -1020 -24 -340 89 -650 323 -883 234 -235 544 -348 886 -323 532 38 978 484 1017 1016 25 342 -88 653 -323 887 -234 235 -544 348 -886 323z"/>
</g><g fill="url(#linear-gradient-2)" transform="translate(0.000000,500.000000) scale(0.100000,-0.100000)">
<path d="M530 4900 c0 -3 -97 -1076 -215 -2385 -118 -1309 -215 -2382 -215 -2385 1 -3 7 6 14 20 31 57 1449 3256 1449 3270 0 8 -228 341 -507 740 -485 692 -526 750 -526 740z"/>
</g><g fill="url(#linear-gradient-3)" transform="translate(0.000000,500.000000) scale(0.100000,-0.100000)">
<path d="M3664 2929 c-479 -34 -888 -442 -922 -922 -23 -316 78 -598 293 -812 214 -215 496 -316 812 -293 480 34 887 441 921 921 23 316 -78 598 -293 812 -213 214 -495 316 -811 294z"/>
</g><g fill="url(#linear-gradient-4)" transform="translate(0.000000,500.000000) scale(0.100000,-0.100000)">
<path d="M1830 2780 l0 -1940 720 0 720 0 0 1940 0 1940 -720 0 -720 0 0 -1940z"/>
</g><g fill="url(#linear-gradient-5)" transform="translate(0.000000,500.000000) scale(0.100000,-0.100000)">
<path d="M4094 4459 c-168 -15 -309 -83 -434 -209 -143 -143 -211 -304 -211 -505 0 -201 68 -362 211 -505 143 -143 304 -211 505 -211 201 0 362 68 505 211 143 143 211 304 211 505 0 201 -68 362 -211 505 -158 159 -351 229 -576 209z"/>
</g></svg>