<?xml version="1.0" encoding="utf-8"?>
<!-- Generator: Adobe Illustrator 26.5.0, SVG Export Plug-In . SVG Version: 6.00 Build 0)  -->
<svg version="1.1" id="图层_1" xmlns="http://www.w3.org/2000/svg" xmlns:xlink="http://www.w3.org/1999/xlink" x="0px" y="0px"
	 viewBox="0 0 2000 1000" style="enable-background:new 0 0 2000 1000;" xml:space="preserve">
<style type="text/css">
	.st0{fill:none;}
	.st1{fill:#D3D3D3;}
	.st2{clip-path:url(#SVGID_00000030478677522644553540000012274858870911073210_);}
	.st3{fill:url(#SVGID_00000157290789679695992990000007625255748281229484_);}
	.st4{fill:url(#region-1-1_00000065793634785270479360000016796577384014059905_);}
	.st5{fill:url(#region-1-2_00000031204260441900505580000005297741169051028894_);}
	.st6{fill:url(#region-1-3_00000149372773437736956240000014267440079479213987_);}
	.st7{fill:url(#region-1-4_00000061472847632122066580000001686106642033963418_);}
	.st8{fill:url(#region-2-1_00000048500217695441670680000015245734100383876784_);}
	.st9{fill:url(#region-2-2_00000023960248505163183280000012265958768263197319_);}
	.st10{fill:url(#region-2-3_00000090253396291959572370000001385054191778178217_);}
	.st11{fill:url(#region-3-1_00000013871481014701227790000002081529191686021811_);}
	.st12{fill:url(#region-4-1_00000023990217701475585200000009820795342785100732_);}
	.st13{fill:none;stroke:#0000FF;stroke-width:4;stroke-miterlimit:10;}
	.st14{fill:none;stroke:#3FA9F5;stroke-width:4;stroke-linecap:round;stroke-miterlimit:10;}
	.st15{fill:#3FA9F5;}
	.st16{fill:url(#region-1-3_00000166634938320462158400000002986887606725460669_);}
	.st17{fill:url(#region-1-1_00000023268972088352332190000002249309493043400628_);}
	.st18{fill:url(#region-1-2_00000152986544255720128660000003798588856199341457_);}
	.st19{fill:url(#region-2-1_00000075162367174502619270000014094710087341480848_);}
	.st20{fill:url(#region-2-2_00000088837827066135278860000015034642064830614950_);}
	.st21{fill:url(#region-3-1_00000021106629862192674630000014526339087131731878_);stroke:#000000;stroke-miterlimit:10;}
	.st22{fill:url(#region-4-1_00000045578582373767832710000012103197995891746724_);}
</style>
<pattern  y="1000" width="40" height="40" patternUnits="userSpaceOnUse" id="SVGID_0000007515549017619124910" viewBox="0 -40 40 40" style="overflow:visible;">
	<g>
		<rect y="-40" class="st0" width="40" height="40"/>
		<g>
			<rect y="-40" class="st0" width="40" height="40"/>
			<g>
				<rect y="-40" class="st0" width="40" height="40"/>
				<g>
					<rect y="-40" class="st0" width="40" height="40"/>
					<g>
						<rect y="-40" class="st0" width="40" height="40"/>
						<g>
							<polygon class="st0" points="0,0 40,0 40,-40 0,-40 							"/>
							<polygon class="st1" points="0,-20 20,-20 20,-40 0,-40 							"/>
							<polygon class="st1" points="20,0 40,0 40,-20 20,-20 							"/>
						</g>
					</g>
				</g>
			</g>
		</g>
	</g>
</pattern>
<g>
	<g>
		<defs>
			<rect id="SVGID_1_" y="-0.5" width="2000" height="1000"/>
		</defs>
		<clipPath id="SVGID_00000155858978213936895200000000696029075010932369_">
			<use xlink:href="#SVGID_1_"  style="overflow:visible;"/>
		</clipPath>
		<g style="clip-path:url(#SVGID_00000155858978213936895200000000696029075010932369_);">
			
				<pattern  id="SVGID_00000025417290295890251730000004098128708033454753_" xlink:href="#SVGID_0000007515549017619124910" patternTransform="matrix(1 0 0 1 17586.5 32461.1094)">
			</pattern>
			<rect y="-0.5" style="fill:url(#SVGID_00000025417290295890251730000004098128708033454753_);" width="1998.7" height="999.4"/>
		</g>
	</g>
</g>
<linearGradient id="region-1-1_00000134224294647823208220000005586498270773960893_" gradientUnits="userSpaceOnUse" x1="-207.7788" y1="291.8477" x2="-206.7607" y2="291.8116" gradientTransform="matrix(142.4377 0 0 -91.5853 29945.6602 26864.4492)">
	<stop  offset="0" style="stop-color:#DE582A;stop-opacity:0.996"/>
	<stop  offset="1" style="stop-color:#DF5F1A;stop-opacity:0.998"/>
</linearGradient>
<path id="region-1-1" style="fill:url(#region-1-1_00000134224294647823208220000005586498270773960893_);" d="M401.9,93.2
	c-15.6,2.4-26.1,6.3-28.9,10.7c-1.8,2.7-21.3,74.5-20.4,75.1c0.6,0.6,37.1,2.6,64.8,3.7c24,1,76.5,0.7,77.6-0.3
	c0.1-0.2-0.8-5.1-2.2-10.8c-1.4-5.8-5.4-23.8-9-40c-6.1-27.8-6.6-29.6-9.4-32.1c-3.2-2.7-10.1-5.2-19.4-6.8
	C446.5,91.2,412.8,91.5,401.9,93.2z"/>
<linearGradient id="region-1-2_00000046325204055652011770000016235807326309611961_" gradientUnits="userSpaceOnUse" x1="-208.5837" y1="290.55" x2="-207.2015" y2="291.0526" gradientTransform="matrix(341.614 0 0 -440.7425 71479.3281 128557.125)">
	<stop  offset="0" style="stop-color:#A02656;stop-opacity:0.998"/>
	<stop  offset="1" style="stop-color:#FF7C00;stop-opacity:0.998"/>
</linearGradient>
<path id="region-1-2" style="fill:url(#region-1-2_00000046325204055652011770000016235807326309611961_);" d="M352,180.3
	c-2,3.3-28,115.7-44,189.8c-2.5,11.5-10.9,50.7-18.6,87c-7.8,36.3-17.9,83.2-22.5,104.2c-4.7,21-8.5,38.7-8.5,39.2
	c0,2.5,68.4,13.9,106,17.7c21.9,2.1,80.1,3,102.5,1.5c48.8-3.3,81.7-11.8,118.7-30.8c10.2-5.2,14.7-8,14.4-8.9
	c-2.6-6.7-44.2-154.5-54-191.4c-11.4-43.4-41.1-164.1-50.1-203.5c-0.4-2-1.3-2-43.2-2.1c-23.5,0-50.9-0.6-60.8-1.2
	C355.8,179.4,352.6,179.3,352,180.3z"/>
<linearGradient id="region-1-3_00000150104401771402032300000008658077192179112872_" gradientUnits="userSpaceOnUse" x1="-208.5399" y1="290.4896" x2="-207.6036" y2="291.629" gradientTransform="matrix(425.7732 0 0 -230.1024 89033.5938 67663.1797)">
	<stop  offset="0" style="stop-color:#911455;stop-opacity:0.987"/>
	<stop  offset="1" style="stop-color:#DB571D;stop-opacity:0.992"/>
</linearGradient>
<path id="region-1-3" style="fill:url(#region-1-3_00000150104401771402032300000008658077192179112872_);" d="M585.8,588.8
	c-34.5,18.2-70,27.6-117,30.9c-18.4,1.3-66.3,1.3-85.7,0c-35.5-2.5-77.1-8.4-122.3-17.5l-3-0.7l-5.9,25.9
	c-3.3,14.2-11,46.5-17.3,71.7c-6.2,25.3-11.3,47.4-11.3,49.1c0,28.2,45.5,50.1,124.5,59.9c28.3,3.5,40.3,4.1,87,4.1
	c37.6,0,50.5-0.4,64.5-1.8c36.5-3.7,63.4-8.4,86.9-15.2c12.3-3.5,29.1-9.9,30-11.4c0.3-0.4,3.3-2.2,6.7-3.9
	c6.9-3.5,14.8-9.1,18.2-13c1.3-1.5,3.7-5.6,5.4-9.2c4.6-9.8,4.2-12-11-60.5c-7.2-23.1-18-58.4-24.1-78.5c-6-20-11.3-36.5-11.8-36.6
	C599.2,582,593,585,585.8,588.8z"/>
<linearGradient id="region-1-4_00000167356549544606817850000010102816412014066861_" gradientUnits="userSpaceOnUse" x1="-208.2652" y1="291.6789" x2="-208.2562" y2="290.5708" gradientTransform="matrix(746.5781 0 0 -179.8202 155909.8281 53178.6953)">
	<stop  offset="0" style="stop-color:#FE7E26;stop-opacity:0.997"/>
	<stop  offset="1" style="stop-color:#FF7E26;stop-opacity:0.999"/>
</linearGradient>
<path id="region-1-4" style="fill:url(#region-1-4_00000167356549544606817850000010102816412014066861_);" d="M647.5,735.8
	c2.7,8.8,2.5,14.7-1,22.2c-1.6,3.4-4,7.4-5.3,8.9c-3.4,3.9-11.3,9.5-18.2,13c-3.4,1.7-6.4,3.5-6.7,3.9c-0.9,1.5-17.7,7.9-30,11.4
	c-23.5,6.8-50.4,11.5-86.9,15.2c-22.2,2.2-103.3,2.6-125.5,0.5c-31.1-2.9-54.2-6.4-76-11.7c-42-10.1-67.8-25.2-73-42.7
	c-1.9-6.4-1.9-9.6,0-17.7c0.9-3.5,1.4-6.6,1.2-6.8c-0.4-0.4-23.9,3.4-111.2,17.7c-26.9,4.4-52.3,8.5-56.2,9.1l-7.3,1.1l0.1,3.7
	c0.1,2,0.6,6.5,1.3,10.1l1.1,6.4l14.5,4.4c60.1,18,116,35.9,269,86.4c79.6,26.3,117.2,38.3,121,38.6c5.3,0.3,11.1-1.9,171-66.3
	c91-36.7,165.9-67.1,166.4-67.6c0.5-0.4,1.3-3.6,1.8-7c0.6-4.7,0.5-6.5-0.4-7.1c-3.5-2.1-143.5-31.8-150.1-31.8
	C645.8,729.7,645.8,730.5,647.5,735.8z"/>
<g id="layer-2">
	
		<linearGradient id="region-2-1_00000142869748477110866190000014045722743340475282_" gradientUnits="userSpaceOnUse" x1="-208.1842" y1="291.3857" x2="-207.0963" y2="291.7185" gradientTransform="matrix(193.943 0 0 -112.3456 40684.8398 32993.7031)">
		<stop  offset="0" style="stop-color:#9DACCE;stop-opacity:0.719"/>
		<stop  offset="1" style="stop-color:#D9E8FF;stop-opacity:0.829"/>
	</linearGradient>
	<path id="region-2-1" style="fill:url(#region-2-1_00000142869748477110866190000014045722743340475282_);" d="M352,180.3
		c-1,1.7-12.6,49.4-24.1,99.3c-0.9,4.1-1.1,6.7-0.5,7.1c1,0.6,15.5,1.8,49.9,4.1c20.3,1.4,115,1.7,132.1,0.5l11.6-0.9l-2.3-9.6
		c-8.6-36-22.5-94-22.9-95.7c-0.4-2-1.3-2-43.2-2.1c-23.5,0-50.9-0.6-60.8-1.2C355.8,179.4,352.6,179.3,352,180.3z"/>
	
		<linearGradient id="region-2-2_00000163777095790960360270000008515411718400265649_" gradientUnits="userSpaceOnUse" x1="-208.5859" y1="291.1312" x2="-207.5308" y2="291.4183" gradientTransform="matrix(341.5421 0 0 -160.6133 71464.3047 47319.6992)">
		<stop  offset="0" style="stop-color:#6C78A3;stop-opacity:0.765"/>
		<stop  offset="1" style="stop-color:#D1DCF7;stop-opacity:0.818"/>
	</linearGradient>
	<path id="region-2-2" style="fill:url(#region-2-2_00000163777095790960360270000008515411718400265649_);" d="M288.5,462.9
		c-0.5,1.8-5.3,23.3-10.6,47.8c-5.3,24.5-11.8,54.4-14.5,66.6c-2.8,12.1-5,22.5-5,23.1c0,1.3,3.5,2.1,29.4,6.9
		c49.8,9.1,82.1,12.4,127.6,13.1c79.4,1.2,121.7-6.6,170.2-31.4c10.9-5.5,14.8-8,14.3-9c-0.3-0.8-6.2-21.4-13.1-45.6
		c-12.5-44.2-19.2-66.8-19.7-67.4c-0.2-0.1-5.5,0.6-11.8,1.7c-65.3,11-134.4,11.5-205.4,1.4c-14.7-2.1-45.7-7.5-57.6-10
		C289.9,459.5,289.5,459.9,288.5,462.9z"/>
	
		<linearGradient id="region-2-3_00000098919874853578504760000016879715639156300976_" gradientUnits="userSpaceOnUse" x1="-208.2639" y1="291.8239" x2="-208.2585" y2="290.726" gradientTransform="matrix(746.6773 0 0 -147.8202 155930.625 43898.7031)">
		<stop  offset="0" style="stop-color:#760057;stop-opacity:0.779"/>
		<stop  offset="1" style="stop-color:#7A0356;stop-opacity:0.802"/>
	</linearGradient>
	<path id="region-2-3" style="fill:url(#region-2-3_00000098919874853578504760000016879715639156300976_);" d="M51.4,764.3
		c0.1,1.6,0.6,5.7,1.3,9.3l1.1,6.4l14.5,4.4c60.1,18,116,35.9,269,86.4c79.6,26.3,117.2,38.3,121,38.6c5.3,0.3,11.1-1.9,171-66.3
		c91-36.7,165.9-67.1,166.4-67.6c1-0.9,2.9-12.9,2.2-13.6c-0.4-0.4-330.4,125.6-335.8,128.2c-2.5,1.2-4.9,0.8-24.5-4.6
		C362.4,865,223.9,820.7,83,772.2c-16.9-5.8-31-10.6-31.2-10.6C51.5,761.7,51.3,762.8,51.4,764.3z"/>
</g>
<g id="layer-3">
	
		<linearGradient id="region-3-1_00000095330863455597431190000003785483457834345377_" gradientUnits="userSpaceOnUse" x1="-207.728" y1="291.1743" x2="-207.728" y2="290.1743" gradientTransform="matrix(228.3757 0 0 -696.4473 47974.918 202886.4219)">
		<stop  offset="0" style="stop-color:#FFFFDC;stop-opacity:0.473"/>
		<stop  offset="1" style="stop-color:#FFFFD1;stop-opacity:0.153"/>
	</linearGradient>
	<path id="region-3-1" style="fill:url(#region-3-1_00000095330863455597431190000003785483457834345377_);" d="M427.6,99.4
		c-3.4,0.4-6.5,1-6.8,1.4c-0.4,0.4,0.4,8.3,1.9,17.5c4.1,27.2,8,57.4,17.1,134.8c21,179.1,22.6,188,51.1,284.5
		c21.3,72.1,79.7,254.5,82.4,257.4c1.8,1.9,31.8-6.9,45.7-13.4c15.3-7.1,22.9-13.7,27.5-23.9c4.6-9.9,4.2-12.2-11-60.6
		C606,602.3,566.8,467.5,546,388.6c-19-71.8-53.5-215.6-65.1-270.5c-1.6-7.2-3.3-13.5-3.9-14.2C473.5,100.2,444.9,97.6,427.6,99.4z"
		/>
</g>
<g id="layer-4">
	
		<linearGradient id="region-4-1_00000042696949436989410360000012216606675389411753_" gradientUnits="userSpaceOnUse" x1="-202.916" y1="302.5366" x2="-202.8349" y2="301.2036" gradientTransform="matrix(31.4756 0 0 -10.5452 6836.4355 3295.6394)">
		<stop  offset="0" style="stop-color:#FBFFFF;stop-opacity:0.813"/>
		<stop  offset="1" style="stop-color:#FBFFFF;stop-opacity:0.813"/>
	</linearGradient>
	<path id="region-4-1" style="fill:url(#region-4-1_00000042696949436989410360000012216606675389411753_);" d="M434.5,107.2
		c0.5,2.7,10.1,7.2,17.8,8.5c7.4,1.2,12.6-0.1,13.4-3.2c1.1-4.2-1.4-4.9-22.7-6.5C434.6,105.3,434.1,105.4,434.5,107.2z"/>
</g>
<rect x="410.4" y="138" class="st13" width="238.6" height="682"/>
<g>
	<line class="st14" x1="927.8" y1="423.6" x2="665" y2="423.6"/>
	<polygon class="st15" points="955,423.6 916.6,449 925.7,423.6 916.6,398.3 	"/>
</g>
<linearGradient id="region-1-3_00000041999519091308473620000014134080321831015595_" gradientUnits="userSpaceOnUse" x1="-206.908" y1="290.4569" x2="-205.9717" y2="291.5963" gradientTransform="matrix(425.7732 0 0 -230.1024 89033.5938 67663.1797)">
	<stop  offset="0" style="stop-color:#911455;stop-opacity:0.987"/>
	<stop  offset="1" style="stop-color:#DB571D;stop-opacity:0.992"/>
</linearGradient>
<path id="region-1-3_00000039092826145055716890000015891180787359181231_" style="fill:url(#region-1-3_00000041999519091308473620000014134080321831015595_);" d="
	M1280.6,596.3c-34.5,18.2-70,27.6-117,30.9c-18.4,1.3-66.3,1.3-85.7,0c-35.5-2.5-77.1-8.4-122.3-17.5l-3-0.7l-5.9,25.9
	c-3.3,14.2-11,46.5-17.3,71.7c-6.2,25.3-11.3,47.4-11.3,49.1c0,28.2,45.5,50.1,124.5,59.9c28.3,3.5,40.3,4.1,87,4.1
	c37.6,0,50.5-0.4,64.5-1.8c36.5-3.7,63.4-8.4,86.9-15.2c12.3-3.5,29.1-9.9,30-11.4c0.3-0.4,3.3-2.2,6.7-3.9
	c6.9-3.5,14.8-9.1,18.2-13c1.3-1.5,3.7-5.6,5.4-9.2c4.6-9.8,4.2-12-11-60.5c-7.2-23.1-18-58.4-24.1-78.5c-6-20-11.3-36.5-11.8-36.6
	C1294,589.5,1287.8,592.5,1280.6,596.3z"/>
<linearGradient id="region-1-1_00000130611663238866197760000010316085712471367557_" gradientUnits="userSpaceOnUse" x1="-202.895" y1="291.7593" x2="-201.8768" y2="291.7231" gradientTransform="matrix(142.4377 0 0 -91.5853 29945.6602 26864.4492)">
	<stop  offset="0" style="stop-color:#DE582A;stop-opacity:0.996"/>
	<stop  offset="1" style="stop-color:#DF5F1A;stop-opacity:0.998"/>
</linearGradient>
<path id="region-1-1_00000024715129152985111170000006477418325609654149_" style="fill:url(#region-1-1_00000130611663238866197760000010316085712471367557_);" d="
	M1097.5,101.3c-15.6,2.4-26.1,6.3-28.9,10.7c-1.8,2.7-21.3,74.5-20.4,75.1c0.6,0.6,37.1,2.6,64.8,3.7c24,1,76.5,0.7,77.6-0.3
	c0.1-0.2-0.8-5.1-2.2-10.8c-1.4-5.8-5.4-23.8-9-40c-6.1-27.8-6.6-29.6-9.4-32.1c-3.2-2.7-10.1-5.2-19.4-6.8
	C1142.2,99.3,1108.4,99.6,1097.5,101.3z"/>
<g id="图层_2_00000025432179137376100920000003220044499771679899_">
	
		<linearGradient id="region-1-2_00000109018003586536219940000011609630654436168320_" gradientUnits="userSpaceOnUse" x1="-206.5492" y1="290.5319" x2="-205.167" y2="291.0344" gradientTransform="matrix(341.614 0 0 -440.7425 71479.3281 128557.125)">
		<stop  offset="0" style="stop-color:#A02656;stop-opacity:0.998"/>
		<stop  offset="1" style="stop-color:#FF7C00;stop-opacity:0.998"/>
	</linearGradient>
	
		<path id="region-1-2_00000181778935992520400270000006322619810253624714_" style="fill:url(#region-1-2_00000109018003586536219940000011609630654436168320_);" d="
		M1047.1,188.3c-2,3.3-28.1,115.6-44.1,189.8c-2.5,11.5-10.9,50.7-18.6,87c-7.8,36.3-17.9,83.2-22.5,104.2
		c-4.7,21-8.5,38.7-8.5,39.2c0,2.5,68.4,13.9,106,17.7c21.9,2.1,80.1,3,102.5,1.5c48.8-3.3,81.7-11.8,118.7-30.8
		c10.2-5.2,14.7-8,14.4-8.9c-2.6-6.7-44.2-154.5-54-191.4c-11.4-43.4-41.1-164.1-50.1-203.5c-0.4-2-1.3-2-43.2-2.1
		c-23.5,0-50.9-0.6-60.8-1.2C1050.8,187.4,1047.7,187.3,1047.1,188.3z"/>
	
		<linearGradient id="region-2-1_00000166656161424519206210000016514056279642720390_" gradientUnits="userSpaceOnUse" x1="-202.5381" y1="291.2788" x2="-201.4502" y2="291.6116" gradientTransform="matrix(193.943 0 0 -112.3456 40684.8398 32993.7031)">
		<stop  offset="0" style="stop-color:#9DACCE;stop-opacity:0.719"/>
		<stop  offset="1" style="stop-color:#D9E8FF;stop-opacity:0.829"/>
	</linearGradient>
	
		<path id="region-2-1_00000041268321477649165850000003105043664265602485_" style="fill:url(#region-2-1_00000166656161424519206210000016514056279642720390_);" d="
		M1447.1,192.3c-1,1.7-12.6,49.4-24.1,99.3c-0.9,4.1-1.1,6.7-0.5,7.1c1,0.6,15.5,1.8,49.9,4.1c20.3,1.4,115,1.7,132.1,0.5l11.6-0.9
		l-2.3-9.6c-8.6-36-22.5-94-22.9-95.7c-0.4-2-1.3-2-43.2-2.1c-23.5,0-50.9-0.6-60.8-1.2C1450.8,191.4,1447.7,191.3,1447.1,192.3z"/>
	
		<linearGradient id="region-2-2_00000090264373844324733180000018115901159882074806_" gradientUnits="userSpaceOnUse" x1="-205.374" y1="291.1251" x2="-204.3189" y2="291.4122" gradientTransform="matrix(341.5421 0 0 -160.6133 71464.3047 47319.6992)">
		<stop  offset="0" style="stop-color:#6C78A3;stop-opacity:0.765"/>
		<stop  offset="1" style="stop-color:#D1DCF7;stop-opacity:0.818"/>
	</linearGradient>
	
		<path id="region-2-2_00000047049405736727737600000015871645151891711922_" style="fill:url(#region-2-2_00000090264373844324733180000018115901159882074806_);" d="
		M1385.4,463.9c-0.5,1.8-5.3,23.3-10.6,47.8c-5.3,24.5-11.8,54.4-14.5,66.6c-2.8,12.1-5,22.5-5,23.1c0,1.3,3.5,2.1,29.4,6.9
		c49.8,9.1,82.1,12.4,127.6,13.1c79.4,1.2,121.7-6.6,170.2-31.4c10.9-5.5,14.8-8,14.3-9c-0.3-0.8-6.2-21.4-13.1-45.6
		c-12.5-44.2-19.2-66.8-19.7-67.4c-0.2-0.1-5.5,0.6-11.8,1.7c-65.3,11-134.4,11.5-205.4,1.4c-14.7-2.1-45.7-7.5-57.6-10
		C1386.8,460.5,1386.4,460.9,1385.4,463.9z"/>
	
		<linearGradient id="region-3-1_00000132077334339715356190000004674164824957004448_" gradientUnits="userSpaceOnUse" x1="-201.9301" y1="291.1557" x2="-201.9301" y2="290.1557" gradientTransform="matrix(228.3757 0 0 -696.4473 47974.918 202886.4219)">
		<stop  offset="0" style="stop-color:#FFFFDC;stop-opacity:0.473"/>
		<stop  offset="1" style="stop-color:#FFFFD1;stop-opacity:0.153"/>
	</linearGradient>
	
		<path id="region-3-1_00000119809169572003657830000006009911241076952507_" style="fill:url(#region-3-1_00000132077334339715356190000004674164824957004448_);stroke:#000000;stroke-miterlimit:10;" d="
		M1751.7,112.4c-3.4,0.4-6.5,1-6.8,1.4c-0.4,0.4,0.4,8.3,1.9,17.5c4.1,27.2,8,57.4,17.1,134.8c21,179.1,22.6,188,51.1,284.5
		c21.3,72.1,79.7,254.5,82.4,257.4c1.8,1.9,31.8-6.9,45.7-13.4c15.3-7.1,22.9-13.7,27.5-23.9c4.6-9.9,4.2-12.2-11-60.6
		c-29.6-94.8-68.8-229.7-89.6-308.5c-18.9-71.9-53.5-215.6-65.1-270.5c-1.6-7.2-3.3-13.5-3.9-14.2
		C1797.6,113.2,1768.8,110.6,1751.7,112.4z"/>
	
		<linearGradient id="region-4-1_00000148624498742090155220000008629356125216322990_" gradientUnits="userSpaceOnUse" x1="-166.4782" y1="302.5363" x2="-166.397" y2="301.2034" gradientTransform="matrix(31.4756 0 0 -10.5452 6836.4355 3295.6394)">
		<stop  offset="0" style="stop-color:#FBFFFF;stop-opacity:0.813"/>
		<stop  offset="1" style="stop-color:#FBFFFF;stop-opacity:0.813"/>
	</linearGradient>
	
		<path id="region-4-1_00000123432650499688819600000003070214944382181539_" style="fill:url(#region-4-1_00000148624498742090155220000008629356125216322990_);" d="
		M1581.4,107.2c0.5,2.7,10.1,7.2,17.8,8.5c7.4,1.2,12.6-0.1,13.4-3.2c1.1-4.2-1.4-4.9-22.7-6.5
		C1581.7,105.3,1581.2,105.4,1581.4,107.2z"/>
</g>
</svg>
