<?xml version="1.0" standalone="no"?><!DOCTYPE svg PUBLIC "-//W3C//DTD SVG 20010904//EN" "http://www.w3.org/TR/2001/REC-SVG-20010904/DTD/svg10.dtd"><svg version="1.0" xmlns="http://www.w3.org/2000/svg" width="925pt" height="820pt" viewBox="0 0 925 820" preserveAspectRatio="xMidYMid meet"><defs><linearGradient id="linear-gradient-1-1" x1="0.00%" y1="100.00%" x2="101.81%" y2="96.39%"><stop offset="0%" style="stop-color:rgb(222,88,42);stop-opacity:0.996" /><stop offset="100%" style="stop-color:rgb(223,95,26);stop-opacity:0.998" /></linearGradient><linearGradient id="linear-gradient-1-2" x1="0.00%" y1="0.00%" x2="138.22%" y2="50.26%"><stop offset="0%" style="stop-color:rgb(160,38,86);stop-opacity:0.998" /><stop offset="100%" style="stop-color:rgb(255,124,0);stop-opacity:0.998" /></linearGradient><linearGradient id="linear-gradient-1-3" x1="0.00%" y1="0.00%" x2="93.63%" y2="113.94%"><stop offset="0%" style="stop-color:rgb(145,20,85);stop-opacity:0.987" /><stop offset="100%" style="stop-color:rgb(219,87,29);stop-opacity:0.992" /></linearGradient><linearGradient id="linear-gradient-1-4" x1="0.00%" y1="100.00%" x2="0.90%" y2="-10.81%"><stop offset="0%" style="stop-color:rgb(254,126,38);stop-opacity:0.997" /><stop offset="100%" style="stop-color:rgb(255,126,38);stop-opacity:0.999" /></linearGradient><linearGradient id="linear-gradient-2-1" x1="0.00%" y1="0.00%" x2="108.79%" y2="33.28%"><stop offset="0%" style="stop-color:rgb(157,172,206);stop-opacity:0.719" /><stop offset="100%" style="stop-color:rgb(217,232,255);stop-opacity:0.829" /></linearGradient><linearGradient id="linear-gradient-2-2" x1="0.00%" y1="0.00%" x2="105.51%" y2="28.71%"><stop offset="0%" style="stop-color:rgb(108,120,163);stop-opacity:0.765" /><stop offset="100%" style="stop-color:rgb(209,220,247);stop-opacity:0.818" /></linearGradient><linearGradient id="linear-gradient-2-3" x1="0.00%" y1="100.00%" x2="0.55%" y2="-9.79%"><stop offset="0%" style="stop-color:rgb(118,0,87);stop-opacity:0.779" /><stop offset="100%" style="stop-color:rgb(122,3,86);stop-opacity:0.802" /></linearGradient><linearGradient id="linear-gradient-3-1" x1="0.00%" y1="100.00%" x2="0.00%" y2="-0.00%"><stop offset="0%" style="stop-color:rgb(255,255,220);stop-opacity:0.473" /><stop offset="100%" style="stop-color:rgb(255,255,209);stop-opacity:0.153" /></linearGradient><linearGradient id="linear-gradient-4-1" x1="0.00%" y1="100.00%" x2="8.12%" y2="-33.28%"><stop offset="0%" style="stop-color:rgb(251,255,255);stop-opacity:0.813" /><stop offset="100%" style="stop-color:rgb(251,255,255);stop-opacity:0.813" /></linearGradient></defs><g id="layer-1"><path d="M4345 8174 c-156 -24 -261 -63 -289 -107 -18 -27 -213 -745 -204 -751 6 -6 371 -26 648 -37 240 -10 765 -7 776 3 1 2 -8 51 -22 108 -14 58 -54 238 -90 400 -61 278 -66 296 -94 321 -32 27 -101 52 -194 68 -84 15 -422 12 -531 -5z" fill="url(#linear-gradient-1-1)" id="region-1-1" transform="translate(0.000000,820.000000) scale(0.100000,-0.100000)"/><path d="M3847 7303 c-20 -33 -281 -1156 -441 -1898 -25 -115 -109 -507 -186 -870 -78 -363 -179 -832 -225 -1042 -47 -210 -85 -387 -85 -392 0 -25 684 -139 1060 -177 219 -21 801 -30 1025 -15 488 33 817 118 1187 308 102 52 147 80 144 89 -26 67 -442 1545 -540 1914 -114 434 -411 1641 -501 2035 -4 20 -13 20 -432 21 -235 0 -509 6 -608 12 -361 24 -392 25 -398 15z" fill="url(#linear-gradient-1-2)" id="region-1-2" transform="translate(0.000000,820.000000) scale(0.100000,-0.100000)"/><path d="M6185 3219 c-345 -182 -700 -276 -1170 -309 -184 -13 -663 -13 -857 0 -355 25 -771 84 -1223 175 l-30 7 -59 -259 c-33 -142 -110 -465 -173 -717 -62 -253 -113 -474 -113 -491 0 -282 455 -501 1245 -599 283 -35 403 -41 870 -41 376 0 505 4 645 18 365 37 634 84 869 152 123 35 291 99 300 114 3 4 33 22 67 39 69 35 148 91 182 130 13 15 37 56 54 92 46 98 42 120 -110 605 -72 231 -180 584 -241 785 -60 200 -113 365 -118 366 -4 1 -66 -29 -138 -67z" fill="url(#linear-gradient-1-3)" id="region-1-3" transform="translate(0.000000,820.000000) scale(0.100000,-0.100000)"/><path d="M6801 1749 c27 -88 25 -147 -10 -222 -16 -34 -40 -74 -53 -89 -34 -39 -113 -95 -182 -130 -34 -17 -64 -35 -67 -39 -9 -15 -177 -79 -300 -114 -235 -68 -504 -115 -869 -152 -222 -22 -1033 -26 -1255 -5 -311 29 -542 64 -760 117 -420 101 -678 252 -730 427 -19 64 -19 96 0 177 9 35 14 66 12 68 -4 4 -239 -34 -1112 -177 -269 -44 -523 -85 -562 -91 l-73 -11 1 -37 c1 -20 6 -65 13 -101 l11 -64 145 -44 c601 -180 1160 -359 2690 -864 796 -263 1172 -383 1210 -386 53 -3 111 19 1710 663 910 367 1659 671 1664 676 5 4 13 36 18 70 6 47 5 65 -4 71 -35 21 -1435 318 -1501 318 -13 0 -12 -9 4 -61z" fill="url(#linear-gradient-1-4)" id="region-1-4" transform="translate(0.000000,820.000000) scale(0.100000,-0.100000)"/></g><g id="layer-2"><path d="M3847 7303 c-10 -17 -126 -494 -241 -993 -9 -41 -11 -67 -5 -71 10 -6 155 -18 499 -41 203 -14 1150 -17 1321 -5 l116 9 -23 96 c-86 360 -225 940 -229 957 -4 20 -13 20 -432 21 -235 0 -509 6 -608 12 -361 24 -392 25 -398 15z" fill="url(#linear-gradient-2-1)" id="region-2-1" transform="translate(0.000000,820.000000) scale(0.100000,-0.100000)"/><path d="M3211 4478 c-5 -18 -53 -233 -106 -478 -53 -245 -118 -544 -145 -666 -28 -121 -50 -225 -50 -231 0 -13 35 -21 294 -69 498 -91 821 -124 1276 -131 794 -12 1217 66 1702 314 109 55 148 80 143 90 -3 8 -62 214 -131 456 -125 442 -192 668 -197 674 -2 1 -55 -6 -118 -17 -653 -110 -1344 -115 -2054 -14 -147 21 -457 75 -576 100 -24 5 -28 2 -38 -28z" fill="url(#linear-gradient-2-2)" id="region-2-2" transform="translate(0.000000,820.000000) scale(0.100000,-0.100000)"/><path d="M841 1463 c1 -16 6 -57 13 -93 l11 -64 145 -44 c601 -180 1160 -359 2690 -864 796 -263 1172 -383 1210 -386 53 -3 111 19 1710 663 910 367 1659 671 1664 676 10 9 29 129 22 136 -4 4 -3304 -1256 -3358 -1282 -25 -12 -49 -8 -245 46 -753 206 -2137 649 -3546 1133 -169 58 -310 106 -312 106 -3 0 -5 -12 -4 -27z" fill="url(#linear-gradient-2-3)" id="region-2-3" transform="translate(0.000000,820.000000) scale(0.100000,-0.100000)"/></g><g id="layer-3"><path d="M4603 8112 c-34 -4 -65 -10 -68 -14 -4 -4 4 -83 19 -175 41 -272 80 -574 171 -1348 210 -1791 226 -1880 511 -2845 213 -721 797 -2545 824 -2574 18 -19 318 69 457 134 153 71 229 137 275 239 46 99 42 122 -110 606 -296 948 -688 2297 -896 3085 -189 719 -535 2156 -651 2705 -16 72 -33 135 -39 142 -34 37 -321 63 -493 45z" fill="url(#linear-gradient-3-1)" id="region-3-1" transform="translate(0.000000,820.000000) scale(0.100000,-0.100000)"/></g><g id="layer-4"><path d="M4671 8034 c5 -27 101 -72 178 -85 74 -12 126 1 134 32 11 42 -14 49 -227 65 -83 7 -88 6 -85 -12z" fill="url(#linear-gradient-4-1)" id="region-4-1" transform="translate(0.000000,820.000000) scale(0.100000,-0.100000)"/></g></svg>