<?xml version="1.0" encoding="utf-8"?>
<!-- Generator: Adobe Illustrator 26.5.0, SVG Export Plug-In . SVG Version: 6.00 Build 0)  -->
<svg version="1.1" id="图层_1" xmlns="http://www.w3.org/2000/svg" xmlns:xlink="http://www.w3.org/1999/xlink" x="0px" y="0px"
	 viewBox="0 0 700 600" style="enable-background:new 0 0 700 600;" xml:space="preserve">
<style type="text/css">
	.st0{fill:none;}
	.st1{fill:#D3D3D3;}
	.st2{fill:url(#SVGID_1_);stroke:#000000;stroke-miterlimit:10;}
	.st3{fill:url(#a0049abc-159c-4ceb-9aab-602a2958a779_00000180331681758309625110000006673306123043449004_);}
	.st4{fill:url(#bb468eac-fd99-4f35-87d6-acb8b18dcbbb_00000121963742940668592330000017435128846257770926_);}
	.st5{fill:url(#eca003de-17ce-4032-baa3-996f8eb4256b_00000134943547123154731890000014361154792387998386_);}
	.st6{fill:url(#bee695d5-d369-457e-892f-bbf9d53bd0dc_00000054960379919157382730000011487568419364410516_);}
	.st7{fill:url(#a2937033-7b59-45c8-bd17-6e5a712b1bd2_00000122700119580925356170000017873210937252309433_);}
	.st8{fill:url(#f1613762-dc74-468c-89de-3bb862549a30_00000078756375162427650700000003811155219833904815_);}
	.st9{fill:url(#f52e7157-dac7-4605-9eca-bb1444a31757_00000047046573522394310950000013154049346783876775_);}
	.st10{fill:url(#ec97e183-623a-4c9b-8558-e8dacca432d2_00000056429273752240409890000008038972064923556246_);}
	.st11{fill:url(#b38c658b-568a-425a-817a-4aa0c5de2d45_00000041988857763506173690000005254154605703589271_);}
	.st12{fill:url(#a32101a9-f3ef-42a8-bb8d-dd2de1a2fef0_00000092437036211349529950000004993140653659222928_);}
	.st13{fill:url(#badabc7d-faff-4d65-9ecd-9503ec55943d_00000111876155498651031730000013642205483872154250_);}
	
		.st14{fill:url(#f52e7157-dac7-4605-9eca-bb1444a31757_00000069382621704322985330000018100404126917350806_);stroke:#000000;stroke-miterlimit:10;}
	.st15{fill:url(#a4e142cd-bf46-479d-8e5b-1c707bc40d22_00000070799438963885578040000002820024506677164178_);}
	.st16{fill:url(#bdb61913-a276-43c0-8e15-c96e1e0f6983_00000123420053640445239000000018211796988249356455_);}
	.st17{fill:url(#f2e9a3c1-ed03-41ef-8523-365b2128dc31_00000000183098860991388740000017786584061710334869_);}
	
		.st18{fill:url(#bc83ead9-e236-40eb-bb87-bf9171d7ba55_00000132771059657256831800000017089120238896510643_);stroke:#000000;stroke-width:0.5;stroke-miterlimit:10;}
	.st19{fill:url(#a7982438-d429-45eb-9bee-e2b9871a57c2_00000182491190577981680440000001236810743291225481_);}
	
		.st20{fill:url(#b1275cb5-7e40-4786-bc3e-c303c90d18e4_00000002360054950692000360000010461089712895114384_);stroke:#000000;stroke-width:0.5;stroke-miterlimit:10;}
	.st21{fill:url(#bb93e213-8979-4edf-abfc-a1c10ddb5154_00000171717089802539173450000016314582512413187712_);}
	.st22{fill:url(#b98be6e6-cf2a-4474-8597-8ae13441e83f_00000147191676594090075630000003340174978222097289_);}
	.st23{fill:url(#a3193c56-8914-498f-aa61-aac5ffeb5e6d_00000088828034310097200360000012915544618251916706_);}
	
		.st24{fill:url(#bd583b4f-e59c-4973-b643-dcd53ee1496e_00000149363794635097901110000012111700442445411756_);stroke:#000000;stroke-width:0.5;stroke-miterlimit:10;}
	.st25{fill:none;stroke:#000000;stroke-miterlimit:10;}
</style>
<pattern  y="600" width="40" height="40" patternUnits="userSpaceOnUse" id="bc3d4cc1-0354-4c88-96c1-eddc1a1" viewBox="0 -40 40 40" style="overflow:visible;">
	<g>
		<rect y="-40" class="st0" width="40" height="40"/>
		<rect y="-40" class="st0" width="40" height="40"/>
		<rect y="-40" class="st1" width="20" height="20"/>
		<rect x="20" y="-20" class="st1" width="20" height="20"/>
	</g>
</pattern>
<pattern  id="SVGID_1_" xlink:href="#bc3d4cc1-0354-4c88-96c1-eddc1a1" patternTransform="matrix(1 0 0 1 26 491)">
</pattern>
<rect class="st2" width="700" height="600"/>
<g id="bda53b52-84ad-4aa5-923b-8df8830e218b">
	
		<linearGradient id="a0049abc-159c-4ceb-9aab-602a2958a779_00000035512950017252586610000004315886285199907519_" gradientUnits="userSpaceOnUse" x1="-606.0399" y1="240.8993" x2="-606.1099" y2="241.2493" gradientTransform="matrix(502 0 0 451 304608 -108478)">
		<stop  offset="0" style="stop-color:#F3F3F3;stop-opacity:0.99"/>
		<stop  offset="1" style="stop-color:#C6C5C6;stop-opacity:0.99"/>
	</linearGradient>
	
		<path id="a0049abc-159c-4ceb-9aab-602a2958a779" style="fill:url(#a0049abc-159c-4ceb-9aab-602a2958a779_00000035512950017252586610000004315886285199907519_);" d="
		M271.3,167H446v156.9H271.3V167z"/>
</g>
<g id="aa7bb68b-90d8-4e7d-9f3b-138a37996db0">
	
		<linearGradient id="bb468eac-fd99-4f35-87d6-acb8b18dcbbb_00000052808859548259656950000012146663974923275408_" gradientUnits="userSpaceOnUse" x1="-605.6511" y1="241.28" x2="-605.991" y2="240.93" gradientTransform="matrix(426.2 0 0 426.74 258560.1875 -102644.0312)">
		<stop  offset="0" style="stop-color:#9CA996;stop-opacity:0.1"/>
		<stop  offset="1" style="stop-color:#918396;stop-opacity:0.95"/>
	</linearGradient>
	
		<path id="bb468eac-fd99-4f35-87d6-acb8b18dcbbb" style="fill:url(#bb468eac-fd99-4f35-87d6-acb8b18dcbbb_00000052808859548259656950000012146663974923275408_);" d="
		M368.7,171c28,4.1,50.8,22.6,60.1,48.7c1.4,3.6,2.5,7.3,3.1,11.1c0.1,1,0.4,2.7,0.5,3.8c0.7,6,0.8,12.1,0.2,18.1
		c-0.5,5-0.8,6.6-0.9,6.6c-0.1,0.3-0.1,0.6-0.2,0.9c-0.5,3.5-3.7,12.5-6.2,17.6c-4,8-9.4,15.2-15.9,21.3c-3.1,3-6.6,5.7-10.3,8
		c-11.4,7.5-24.6,11.6-38.2,11.9c-6.7,0.3-13.4-0.4-19.9-2.2c-4.4-1-8.7-2.4-12.8-4.4c-15-6.8-27.4-18.4-35.1-33
		c-2.4-4.5-6.1-14.2-6.7-17.7c-0.1-0.7-0.3-1.5-0.3-1.9c-1-5-1.5-10.1-1.4-15.1c0-6.4,0.1-7.7,1.4-15.3c0.6-3.1,1.5-6.1,2.6-9
		c0.5-1.4,1.1-3,1.2-3.5c0.8-2.8,6-12.1,9.2-16.4c5.2-6.6,11.3-12.4,18.1-17.3c9.5-6.3,20.3-10.4,31.5-12.2
		C355.4,170.3,362.1,170.3,368.7,171"/>
</g>
<g id="fdd96fa5-7f0d-4f92-b812-d28e2cf90187">
	
		<linearGradient id="eca003de-17ce-4032-baa3-996f8eb4256b_00000157270521112300845050000013100813788798712968_" gradientUnits="userSpaceOnUse" x1="-605.7809" y1="240.9565" x2="-605.7809" y2="241.2965" gradientTransform="matrix(415.91 0 0 414.54 252309.3438 -99712.6328)">
		<stop  offset="0" style="stop-color:#F9F8FA;stop-opacity:0.27"/>
		<stop  offset="1" style="stop-color:#674F79;stop-opacity:0.84"/>
	</linearGradient>
	
		<path id="eca003de-17ce-4032-baa3-996f8eb4256b" style="fill:url(#eca003de-17ce-4032-baa3-996f8eb4256b_00000157270521112300845050000013100813788798712968_);" d="
		M368.4,172.8c4.4,0.4,8.8,1.4,12.9,3c3.7,1.2,7.2,2.7,10.6,4.5c3.7,2,7.2,4.2,10.6,6.6c0.5,0.4,1.7,1.5,2.8,2.4
		c4.7,4,9,8.6,12.7,13.5c2.5,3.5,7.1,11.6,7.4,13.1c0,0.2,0.6,1.7,1.3,3.3c1.9,5.3,3.3,10.8,4.2,16.4c0.6,6,0.7,12.1,0.2,18.1
		c-0.3,2.4-1.1,6.5-2.6,12.6c-0.9,4-6.9,16.4-9.4,19.5c-5.1,6.5-6.8,8.5-9.5,11c-7.6,7.3-16.7,12.8-26.6,16.2
		c-4.4,1.5-10.3,3.1-11,2.9c-0.2,0-0.3,0-0.5,0c-1.5,0.6-15.8,0.9-20.2,0.4c-2.2-0.3-4.2-0.4-4.3-0.4c-0.3,0-0.5-0.1-0.7-0.3
		c-0.2-0.2-0.5-0.3-0.6-0.2c-0.3,0.3-5.5-1.1-9-2.3c-1.6-0.6-3.2-1.1-3.5-1.2c-2.2-0.4-13.2-6.5-16.5-9
		c-6.6-5.1-13.5-12.2-17.3-17.9c-1.3-2-2.4-3.6-2.4-3.7s-0.8-1.5-1.7-3c-0.7-1-1.2-2.1-1.7-3.1c-0.4-1.3-1-2.6-1.5-3.9
		c-1.1-2.5-2.1-5.1-2.7-7.8c-0.1-0.6-0.3-1.2-0.5-1.7c-0.2-0.9-0.8-3.3-1.2-5.4c-1-6.8-1.2-13.7-0.7-20.6c0.4-3.2,2.3-12.4,2.7-13.1
		c0.1-0.3,0.2-0.7,0.3-1.1c0.2-0.8,0.4-1.6,0.8-2.3c0.4-0.8,1.1-2.6,1.6-4c2.6-6.7,8.6-15.6,14.7-21.9c4.9-5,12.2-10.5,17-12.8
		c1.2-0.6,2.4-1.2,3.5-2c1.7-1.7,13.1-5,20.2-5.8C354.6,172.1,361.5,172.1,368.4,172.8"/>
</g>
<g id="a38b2780-7a26-43a4-8683-a6c407534f86">
	
		<linearGradient id="bee695d5-d369-457e-892f-bbf9d53bd0dc_00000029027048893191773560000017451332098246873263_" gradientUnits="userSpaceOnUse" x1="-594.7017" y1="251.7217" x2="-594.7017" y2="251.3717" gradientTransform="matrix(59.23 0 0 34.38 35560.2891 -8470.0205)">
		<stop  offset="0" style="stop-color:#FFFFFF;stop-opacity:0.83"/>
		<stop  offset="1" style="stop-color:#FEFFFE;stop-opacity:0.8"/>
	</linearGradient>
	
		<path id="bee695d5-d369-457e-892f-bbf9d53bd0dc" style="fill:url(#bee695d5-d369-457e-892f-bbf9d53bd0dc_00000029027048893191773560000017451332098246873263_);" d="
		M345.1,175.5c1.3,1.1,1.7,3,0.9,4.5c-0.7,1.6-1.7,2.1-5.5,3c-2,0.5-3.9,1.1-5.9,1.8c-5.2,1.9-5,1.9-6.4,1.3c-3.8-1.6-3.2-6.3,1-8.4
		c1.9-0.8,3.8-1.5,5.7-2.1c2.1-0.8,4.3-1.1,6.5-1.1C343.8,174.5,344.2,174.6,345.1,175.5"/>
	
		<linearGradient id="a2937033-7b59-45c8-bd17-6e5a712b1bd2_00000163791411856398625130000014460144125115389375_" gradientUnits="userSpaceOnUse" x1="-605.5408" y1="241.0448" x2="-605.5408" y2="241.3948" gradientTransform="matrix(365.09 0 0 359.51 221435.7344 -86475.4531)">
		<stop  offset="0" style="stop-color:#8109B0;stop-opacity:0.79"/>
		<stop  offset="1" style="stop-color:#4B0092;stop-opacity:0.81"/>
	</linearGradient>
	
		<path id="a2937033-7b59-45c8-bd17-6e5a712b1bd2" style="fill:url(#a2937033-7b59-45c8-bd17-6e5a712b1bd2_00000163791411856398625130000014460144125115389375_);" d="
		M365.9,182.7c7.9,1,15.6,3.3,22.7,7c5.8,2.9,11,6.9,15.5,11.6c8.2,7.9,14,18.1,16.5,29.2c2.6,10.6,2.4,19.5-0.7,30.8
		c-1.4,5.6-3.7,10.9-6.8,15.8c-2.1,3.7-4.6,7.2-7.6,10.2c-7.2,7.7-16.2,13.5-26.2,16.8c-23,7.9-48.6,1.9-65.7-15.5
		c-7.5-7.4-13-16.6-15.9-26.7c-6.4-22.2,0.2-46,17-61.8c4.5-4.4,9.6-8.1,15.3-10.8c6.8-3.4,14.1-5.6,21.6-6.6
		C356.4,182.3,361.2,182.3,365.9,182.7"/>
	
		<linearGradient id="f1613762-dc74-468c-89de-3bb862549a30_00000183944133370565331690000010105343036249626758_" gradientUnits="userSpaceOnUse" x1="-597.2092" y1="242.6287" x2="-597.5592" y2="242.6486" gradientTransform="matrix(59.47 0 0 98.67 35945.7617 -23670.2188)">
		<stop  offset="0" style="stop-color:#FFFFFE;stop-opacity:0.82"/>
		<stop  offset="1" style="stop-color:#E2E5DF;stop-opacity:0.7"/>
	</linearGradient>
	
		<path id="f1613762-dc74-468c-89de-3bb862549a30" style="fill:url(#f1613762-dc74-468c-89de-3bb862549a30_00000183944133370565331690000010105343036249626758_);" d="
		M428.5,254.7c1.6,1.5,1.7,2.9,0.7,6.8c-2.7,10.3-7.3,19.7-12.1,24.4c-2.2,2.1-3.9,2.6-5.8,1.7c-1.1-0.7-1.9-1.7-2.1-3
		c0.6-1.3,1.4-2.6,2.2-3.8c4.4-6.4,7.6-13.5,9.6-21.1c1.1-4,1.3-4.5,2.9-5.5C425.4,253.4,427.2,253.6,428.5,254.7"/>
	
		<linearGradient id="f52e7157-dac7-4605-9eca-bb1444a31757_00000062192149901169553450000008895263745582813371_" gradientUnits="userSpaceOnUse" x1="-603.0847" y1="242.2871" x2="-602.7146" y2="241.9371" gradientTransform="matrix(167.49 0 0 99.26 101309.4844 -23734.4707)">
		<stop  offset="0" style="stop-color:#FFFFFF;stop-opacity:0.95"/>
		<stop  offset="1" style="stop-color:#B0B4AE;stop-opacity:0.54"/>
	</linearGradient>
	
		<path id="f52e7157-dac7-4605-9eca-bb1444a31757" style="fill:url(#f52e7157-dac7-4605-9eca-bb1444a31757_00000062192149901169553450000008895263745582813371_);" d="
		M305,280.9c0.8,0.5,1.4,1.1,1.9,1.9c1.7,2,3.5,3.9,5.4,5.7c4.8,4.6,10.2,8.5,16,11.8c6.6,3.9,16.1,6.9,24.9,8
		c3.4,0.4,4.1,0.7,4.9,1.8c1,1.5,0.6,3.5-0.9,4.4c-0.2,0.1-0.4,0.2-0.6,0.3c-2.2,0.9-14.6-1.5-22.2-4.4c-5.6-2.2-11-5-15.9-8.5
		c-5.4-3.5-10.3-7.6-14.6-12.4c-3-3.5-3.9-5.3-3.3-6.9c0.4-1.6,2.1-2.5,3.7-2.1C304.5,280.7,304.8,280.8,305,280.9"/>
</g>
<g id="bd5202cc-c5fa-47f2-a335-ae21b01324a4">
	
		<linearGradient id="ec97e183-623a-4c9b-8558-e8dacca432d2_00000008112426660275431640000011827118700733387940_" gradientUnits="userSpaceOnUse" x1="-605.4766" y1="241.4185" x2="-605.4766" y2="241.0686" gradientTransform="matrix(353.64 0 0 352.22 214479.5 -84727.7422)">
		<stop  offset="0" style="stop-color:#F48CFF;stop-opacity:5.000000e-02"/>
		<stop  offset="1" style="stop-color:#EB5AFF;stop-opacity:0.83"/>
	</linearGradient>
	
		<path id="ec97e183-623a-4c9b-8558-e8dacca432d2" style="fill:url(#ec97e183-623a-4c9b-8558-e8dacca432d2_00000008112426660275431640000011827118700733387940_);" d="
		M365.5,183c6.4,0.7,10.1,1.8,16.4,4.9c1.6,0.8,3.3,1.6,5,2.2c0.9,0.2,3.9,1.9,6.8,3.8c8.4,5.5,15.2,13.1,19.8,22
		c2,4.3,3.6,8.8,4.9,13.4c1.8,6.6,1.9,7.8,1.9,15.9c0,7-0.1,8.1-0.9,12c-2.3,11-7.7,21.2-15.5,29.3c-3.4,3.5-7.1,6.6-11.2,9.3
		c-4.8,2.9-9.9,5.3-15.3,7.1c-6.9,2.1-9.3,2.4-18.8,2.4s-11.8-0.3-19.4-2.8c-16-5.2-30.1-17.6-36.7-32.4c-2.1-4.6-3.7-9.4-4.7-14.4
		c-0.9-4.3-0.9-16.8,0-21.8c3.2-17.4,13.5-31.8,29.4-41.4c1.1-0.7,2.3-1.4,3.5-1.9c0.7-0.2,1.3-0.6,1.8-1c5-3.4,12.2-5.8,20.6-6.8
		C357.3,182.6,361.4,182.7,365.5,183"/>
</g>
<g id="a0410027-d46c-4e08-bff2-557f9af9061f">
	
		<linearGradient id="b38c658b-568a-425a-817a-4aa0c5de2d45_00000081638475701056334180000007858893613744164028_" gradientUnits="userSpaceOnUse" x1="-604.1423" y1="242.532" x2="-604.3123" y2="242.882" gradientTransform="matrix(218.78 0 0 148.45 132552.4219 -35822.2305)">
		<stop  offset="0" style="stop-color:#FFF5FF;stop-opacity:0.86"/>
		<stop  offset="1" style="stop-color:#B692DB;stop-opacity:0.47"/>
	</linearGradient>
	
		<path id="b38c658b-568a-425a-817a-4aa0c5de2d45" style="fill:url(#b38c658b-568a-425a-817a-4aa0c5de2d45_00000081638475701056334180000007858893613744164028_);" d="
		M365.5,183c5.4,0.5,10.6,2,15.4,4.4c7.6,3.7,12.7,8.7,15.1,15.1c1,2.7,1.1,3,0.9,6.4c-0.3,5.7-2,9.6-6.4,14
		c-5.1,5.2-12.3,8.8-21.3,10.7c-6.9,1.1-13.9,1.1-20.8,0c-14.6-3.1-24.8-11-27.2-21.1c-1.4-6.1,0.8-13,5.7-18
		c6.4-6.5,14.8-10.1,26.3-11.5C357.4,182.7,361.4,182.7,365.5,183"/>
	
		<linearGradient id="a32101a9-f3ef-42a8-bb8d-dd2de1a2fef0_00000057112794983982315970000016717077538688524458_" gradientUnits="userSpaceOnUse" x1="-604.7976" y1="241.5132" x2="-604.7976" y2="241.1633" gradientTransform="matrix(273.26 0 0 286.83 165613.5 -68964.4688)">
		<stop  offset="0" style="stop-color:#FF00FF;stop-opacity:0.62"/>
		<stop  offset="1" style="stop-color:#C963E8;stop-opacity:0.89"/>
	</linearGradient>
	
		<path id="a32101a9-f3ef-42a8-bb8d-dd2de1a2fef0" style="fill:url(#a32101a9-f3ef-42a8-bb8d-dd2de1a2fef0_00000057112794983982315970000016717077538688524458_);" d="
		M314.2,206.4c-0.6,0.6-1.7,2-2.4,3c-2.4,3.8-4.6,7.8-6.4,11.9c-0.2,0.7-0.5,1.3-0.7,1.3s-1.4,3.6-2.3,7.3
		c-1.8,8.5-1.9,17.3-0.3,25.9c1.2,5,2.9,9.8,5.1,14.4c7.2,14.5,20.1,25.5,35.5,30.4c6.9,2.2,8.8,2.5,17.9,2.5c7.6,0,8.5-0.1,12.6-1
		c3.3-0.6,6.5-1.6,9.6-3c0.6-0.3,1.2-0.6,1.9-0.7c0.5,0,6.8-3.4,8.3-4.5c1.1-0.8,1.1-0.8,0.5-0.1c-2.7,2-5.5,3.7-8.4,5.3
		c-0.4,0.1-0.9,0.3-1.3,0.5c-3.5,1.5-7,2.7-10.7,3.8c-3.2,0.9-4.6,1.1-10.9,1.4c-8.2,0.4-11.1,0.2-18.2-1.5c-4.6-1.1-9.1-2.8-13.3-5
		c-2.4-1.3-4.8-2.7-7.1-4.3c-0.1-0.1-1.1-0.9-2.2-1.7c-2.5-1.9-10-9.6-10-10.3c0-0.3-0.2-0.5-0.4-0.5c-0.5,0-4.5-6.2-6-9.2
		c-4.7-9.4-7.1-21.5-6.2-31.2c0.6-6.3,1.7-10.7,4.7-18.7c0.9-2.4,3.3-7.2,3.7-7.5c0.7-0.8,1.3-1.7,1.8-2.7c1.3-2.2,5.2-6.9,5.8-6.9
		C315.2,205.2,314.8,205.7,314.2,206.4"/>
</g>
<g id="ad43604c-ecfe-46da-9a5f-8dd64edf4c61">
	
		<linearGradient id="badabc7d-faff-4d65-9ecd-9503ec55943d_00000085947551812634577330000007777233866929461407_" gradientUnits="userSpaceOnUse" x1="-604.7898" y1="241.5857" x2="-605.1298" y2="241.3557" gradientTransform="matrix(274.28 0 0 282.47 166306.4219 -67985.7109)">
		<stop  offset="0" style="stop-color:#FFFFFF;stop-opacity:0"/>
		<stop  offset="1" style="stop-color:#BA56CF;stop-opacity:0.55"/>
	</linearGradient>
	
		<path id="badabc7d-faff-4d65-9ecd-9503ec55943d" style="fill:url(#badabc7d-faff-4d65-9ecd-9503ec55943d_00000085947551812634577330000007777233866929461407_);" d="
		M365.5,183c3.3,0.3,6.5,1,9.6,2c4.6,1.7,9,3.8,13.2,6.4c1,0.7,3.4,2.3,5.3,3.5c7.5,5,13.8,11.5,18.5,19.3c1.9,3.1,2.8,5.4,4.7,11.3
		c2.8,8.7,3,10,3,19.7c0,5.8-0.1,8.8-0.5,9.7c-0.2,0.8-0.6,2.5-0.9,3.9c-0.2,1.1-0.5,2.1-0.9,3.2c-0.4,0.8-0.7,1.6-0.9,2.4
		c-1.3,3.7-2.9,7.2-5,10.6c-1.8,3-4.5,6.5-4.8,6.1c0.2-0.8,0.6-1.5,1.1-2.1c2-3.1,3.6-6.5,4.7-10c0.4-1.4,0.9-3.1,1.1-3.7
		c0.2-0.6,0.4-1.3,0.5-1.9c1-5.2,1.2-6.8,1.5-9.5c0.5-4.2,0.4-8.4-0.2-12.6c-2.2-18.2-12.6-34.4-28.2-44c-12-7.2-26-10-39.8-7.9
		c-6.5,0.9-14.2,3.1-16.8,4.8c-0.5,0.3-1,0.6-1.5,0.8c-0.5,0.2-0.9,0.5-1.3,0.8c-1.5,1.1-3.4,2-3.6,1.8c0.6-1.1,1.4-2,2.4-2.8
		c6.7-6.8,14.9-10.4,26.6-11.8C357.4,182.6,361.4,182.7,365.5,183"/>
</g>
<linearGradient id="f52e7157-dac7-4605-9eca-bb1444a31757_00000136401349900671792910000004119479459766351276_" gradientUnits="userSpaceOnUse" x1="-603.1982" y1="243.3582" x2="-602.8282" y2="243.0082" gradientTransform="matrix(167.49 0 0 99.26 101309.4844 -23734.4707)">
	<stop  offset="0" style="stop-color:#FFFFFF;stop-opacity:0.95"/>
	<stop  offset="1" style="stop-color:#B0B4AE;stop-opacity:0.54"/>
</linearGradient>
<path id="f52e7157-dac7-4605-9eca-bb1444a31757_00000132774049092832772400000014766863516184139657_" style="fill:url(#f52e7157-dac7-4605-9eca-bb1444a31757_00000136401349900671792910000004119479459766351276_);stroke:#000000;stroke-miterlimit:10;" d="
	M286,387.3c0.8,0.5,1.4,1.1,1.9,1.9c1.7,2,3.5,3.9,5.4,5.7c4.8,4.6,10.2,8.5,16,11.8c6.6,3.9,16.1,6.9,24.9,8
	c3.4,0.4,4.1,0.7,4.9,1.8c1,1.5,0.6,3.5-0.9,4.4c-0.2,0.1-0.4,0.2-0.6,0.3c-2.2,0.9-14.6-1.5-22.2-4.4c-5.6-2.2-11-5-15.9-8.5
	c-5.4-3.5-10.3-7.6-14.6-12.4c-3-3.5-3.9-5.3-3.3-6.9c0.4-1.6,2.1-2.5,3.7-2.1C285.5,387,285.8,387.1,286,387.3"/>
<g id="ef327db7-021a-486e-8883-4e9f89ac0ed0">
	
		<linearGradient id="a4e142cd-bf46-479d-8e5b-1c707bc40d22_00000178195342580312985450000011626735000408568511_" gradientUnits="userSpaceOnUse" x1="-606.4767" y1="241.0699" x2="-606.5467" y2="241.42" gradientTransform="matrix(502 0 0 451 304608 -108478)">
		<stop  offset="0" style="stop-color:#F3F3F3;stop-opacity:0.99"/>
		<stop  offset="1" style="stop-color:#C6C5C6;stop-opacity:0.99"/>
	</linearGradient>
	
		<path id="a4e142cd-bf46-479d-8e5b-1c707bc40d22" style="fill:url(#a4e142cd-bf46-479d-8e5b-1c707bc40d22_00000178195342580312985450000011626735000408568511_);" d="
		M52.1,243.7h174.7v156.9H52.1V243.7z"/>
</g>
<g id="bd405eea-65c7-45cb-8692-75dbfb1f26e2">
	
		<linearGradient id="bdb61913-a276-43c0-8e15-c96e1e0f6983_00000168820531718536251230000006412131228033182596_" gradientUnits="userSpaceOnUse" x1="-605.4962" y1="241.9051" x2="-605.8462" y2="241.5551" gradientTransform="matrix(426.2 0 0 426.74 258560.1875 -102644.0312)">
		<stop  offset="0" style="stop-color:#9CA996;stop-opacity:0.1"/>
		<stop  offset="1" style="stop-color:#918396;stop-opacity:0.95"/>
	</linearGradient>
	
		<path id="bdb61913-a276-43c0-8e15-c96e1e0f6983" style="fill:url(#bdb61913-a276-43c0-8e15-c96e1e0f6983_00000168820531718536251230000006412131228033182596_);" d="
		M432.5,437.7c28,4.1,50.8,22.6,60.1,48.7c1.4,3.6,2.5,7.3,3.1,11.1c0.1,1,0.4,2.7,0.5,3.8c0.7,6,0.8,12.1,0.2,18.1
		c-0.6,4.9-0.8,6.6-0.9,6.6c-0.1,0.3-0.1,0.6-0.2,0.9c-0.5,3.5-3.6,12.5-6.2,17.6c-4,8-9.4,15.2-15.9,21.2c-3.1,3-6.6,5.7-10.3,8
		c-11.4,7.5-24.6,11.6-38.2,11.9c-6.7,0.3-13.4-0.4-19.9-2.2c-4.4-1-8.7-2.4-12.8-4.4c-15-6.9-27.3-18.4-35.1-33
		c-2.4-4.5-6.1-14.2-6.7-17.8c-0.1-0.7-0.3-1.5-0.3-1.9c-1-5-1.5-10.1-1.4-15.1c0-6.4,0.1-7.7,1.4-15.3c0.7-3.1,1.5-6.1,2.6-9
		c0.5-1.4,1.1-3,1.2-3.5c0.8-2.8,6.1-12.1,9.2-16.4c5.2-6.6,11.3-12.4,18.1-17.3c9.5-6.2,20.3-10.3,31.5-12.1
		C419.1,437,425.8,437,432.5,437.7"/>
</g>
<g id="bc0f1783-a9e3-48c2-bd34-d078de7dabc3">
	
		<linearGradient id="f2e9a3c1-ed03-41ef-8523-365b2128dc31_00000132803781773360635880000005170512340744450700_" gradientUnits="userSpaceOnUse" x1="-605.2862" y1="241.2766" x2="-605.2862" y2="241.6265" gradientTransform="matrix(415.91 0 0 414.54 252309.3438 -99712.6328)">
		<stop  offset="0" style="stop-color:#F9F8FA;stop-opacity:0.27"/>
		<stop  offset="1" style="stop-color:#674F79;stop-opacity:0.84"/>
	</linearGradient>
	
		<path id="f2e9a3c1-ed03-41ef-8523-365b2128dc31" style="fill:url(#f2e9a3c1-ed03-41ef-8523-365b2128dc31_00000132803781773360635880000005170512340744450700_);" d="
		M574.1,308.4c4.4,0.4,8.8,1.4,12.9,3c3.7,1.2,7.2,2.8,10.7,4.6c3.7,2,7.2,4.2,10.6,6.6c0.5,0.4,1.7,1.5,2.8,2.4
		c4.7,4,9,8.5,12.7,13.5c2.5,3.5,7.1,11.6,7.4,13.1c0,0.2,0.6,1.7,1.3,3.3c1.9,5.3,3.3,10.8,4.2,16.4c0.6,6,0.7,12.1,0.2,18.1
		c-0.3,2.4-1.1,6.5-2.6,12.6c-0.9,4-6.9,16.4-9.4,19.5c-5.1,6.5-6.8,8.5-9.5,11c-7.5,7.3-16.6,12.8-26.5,16.2
		c-4.4,1.5-10.3,3.1-11,2.9c-0.2,0-0.3,0-0.5,0c-1.5,0.6-15.8,0.9-20.2,0.3c-2.2-0.2-4.2-0.4-4.3-0.4c-0.3,0-0.5-0.1-0.7-0.3
		c-0.2-0.2-0.5-0.3-0.6-0.2c-0.3,0.3-5.5-1.1-9-2.3c-1.6-0.6-3.2-1.1-3.5-1.2c-2.2-0.4-13.2-6.5-16.5-9
		c-6.6-5.1-13.5-12.2-17.3-17.9c-1.3-2-2.4-3.6-2.4-3.7s-0.8-1.5-1.7-3c-0.7-1-1.2-2.1-1.7-3.2c0-0.2-0.7-1.9-1.5-3.9
		c-1.1-2.5-2-5.2-2.7-7.9c0-0.1-0.2-0.9-0.5-1.7s-0.8-3.3-1.2-5.4c-1-6.8-1.2-13.7-0.7-20.6c0.4-3.2,2.3-12.4,2.7-13.1
		c0.2-0.3,0.3-0.7,0.3-1.1c0.2-0.8,0.4-1.5,0.8-2.3c0.4-0.8,1.1-2.6,1.6-4c2.6-6.7,8.6-15.6,14.7-21.9c4.9-5,12.2-10.5,17-12.8
		c1.2-0.6,2.4-1.2,3.5-2c1.7-1.7,13.2-5,20.2-5.8C560.4,307.8,567.3,307.8,574.1,308.4"/>
</g>
<linearGradient id="bc83ead9-e236-40eb-bb87-bf9171d7ba55_00000101817594620330513310000007089714780691032999_" gradientUnits="userSpaceOnUse" x1="-595.7024" y1="249.2117" x2="-595.7024" y2="248.8617" gradientTransform="matrix(59.23 0 0 34.38 35560.2891 -8470.0205)">
	<stop  offset="0" style="stop-color:#FFFFFF;stop-opacity:0.83"/>
	<stop  offset="1" style="stop-color:#FEFFFE;stop-opacity:0.8"/>
</linearGradient>
<path id="bc83ead9-e236-40eb-bb87-bf9171d7ba55" style="fill:url(#bc83ead9-e236-40eb-bb87-bf9171d7ba55_00000101817594620330513310000007089714780691032999_);stroke:#000000;stroke-width:0.5;stroke-miterlimit:10;" d="
	M285.8,89.2c1.3,1.1,1.7,3,0.9,4.5c-0.7,1.6-1.7,2.1-5.4,3c-2,0.5-3.9,1.1-5.9,1.8c-5.2,1.9-5,1.9-6.4,1.3c-3.8-1.6-3.2-6.3,1-8.4
	c1.9-0.8,3.8-1.5,5.7-2c2.1-0.8,4.3-1.1,6.5-1.1c2.2,0.1,2.6,0.2,3.6,1.1"/>
<linearGradient id="a7982438-d429-45eb-9bee-e2b9871a57c2_00000039115575249632243280000004291544829400397247_" gradientUnits="userSpaceOnUse" x1="-606.1686" y1="240.6548" x2="-606.1686" y2="241.0048" gradientTransform="matrix(365.09 0 0 359.51 221435.7344 -86475.4531)">
	<stop  offset="0" style="stop-color:#8109B0;stop-opacity:0.79"/>
	<stop  offset="1" style="stop-color:#4B0092;stop-opacity:0.81"/>
</linearGradient>
<path id="a7982438-d429-45eb-9bee-e2b9871a57c2" style="fill:url(#a7982438-d429-45eb-9bee-e2b9871a57c2_00000039115575249632243280000004291544829400397247_);" d="
	M136.7,42.4c7.9,1,15.6,3.3,22.7,7c6,3.1,10,6.1,15.5,11.6c8.2,7.9,14,18.1,16.5,29.2c2.6,10.6,2.4,19.5-0.7,30.8
	c-1.4,5.6-3.7,10.9-6.8,15.8c-2.1,3.7-4.6,7.2-7.6,10.2c-7.2,7.7-16.2,13.5-26.2,16.8c-23,7.9-48.6,1.9-65.7-15.5
	c-7.5-7.4-13-16.6-15.9-26.7c-6.4-22.2,0.2-46,17-61.8c4.5-4.4,9.6-8,15.2-10.7c6.8-3.4,14.1-5.6,21.6-6.6
	C127.1,42,131.9,42,136.7,42.4"/>
<linearGradient id="b1275cb5-7e40-4786-bc3e-c303c90d18e4_00000104704573281362378690000014808105378635451305_" gradientUnits="userSpaceOnUse" x1="-596.1992" y1="242.8376" x2="-596.5493" y2="242.8577" gradientTransform="matrix(59.47 0 0 98.67 35945.7617 -23670.2188)">
	<stop  offset="0" style="stop-color:#FFFFFE;stop-opacity:0.82"/>
	<stop  offset="1" style="stop-color:#E2E5DF;stop-opacity:0.7"/>
</linearGradient>
<path id="b1275cb5-7e40-4786-bc3e-c303c90d18e4" style="fill:url(#b1275cb5-7e40-4786-bc3e-c303c90d18e4_00000104704573281362378690000014808105378635451305_);stroke:#000000;stroke-width:0.5;stroke-miterlimit:10;" d="
	M488.2,275.4c1.6,1.5,1.7,2.9,0.7,6.8c-2.7,10.3-7.3,19.7-12.1,24.4c-2.2,2.1-3.9,2.6-5.8,1.7c-1.1-0.7-1.9-1.7-2.1-3
	c0.6-1.3,1.4-2.6,2.2-3.8c4.4-6.4,7.6-13.6,9.6-21.1c1.1-4,1.3-4.5,3-5.5C485.1,274.1,487,274.3,488.2,275.4"/>
<g id="a710c815-f273-42f5-b4c5-c6e8e53a6208">
	
		<linearGradient id="bb93e213-8979-4edf-abfc-a1c10ddb5154_00000067234909320694827210000015992707360148184461_" gradientUnits="userSpaceOnUse" x1="-604.8948" y1="241.3485" x2="-604.8948" y2="240.9986" gradientTransform="matrix(353.64 0 0 352.22 214479.5 -84727.7422)">
		<stop  offset="0" style="stop-color:#F48CFF;stop-opacity:5.000000e-02"/>
		<stop  offset="1" style="stop-color:#EB5AFF;stop-opacity:0.83"/>
	</linearGradient>
	
		<path id="bb93e213-8979-4edf-abfc-a1c10ddb5154" style="fill:url(#bb93e213-8979-4edf-abfc-a1c10ddb5154_00000067234909320694827210000015992707360148184461_);" d="
		M571.2,158.7c6.4,0.7,10.1,1.8,16.4,4.9c1.6,0.8,3.3,1.6,5,2.2c2.4,1,4.7,2.3,6.8,3.8c8.4,5.5,15.2,13.1,19.8,22
		c2,4.3,3.6,8.8,4.8,13.4c1.8,6.6,2,7.8,1.9,15.9c0,7-0.1,8.1-0.9,12c-2.3,11-7.7,21.2-15.5,29.3c-3.4,3.5-7.1,6.6-11.2,9.3
		c-4.8,2.9-9.9,5.3-15.2,7.1c-6.9,2.1-9.3,2.4-18.8,2.4s-11.8-0.3-19.4-2.8c-16-5.2-30.1-17.6-36.7-32.4c-2.1-4.6-3.7-9.4-4.7-14.4
		c-0.9-4.3-0.9-16.8,0-21.8c3.2-17.4,13.5-31.8,29.4-41.4c1.1-0.7,2.3-1.4,3.5-1.9c0.7-0.2,1.3-0.6,1.8-1c5-3.4,12.2-5.8,20.6-6.8
		C563.1,158.3,567.2,158.4,571.2,158.7"/>
</g>
<linearGradient id="b98be6e6-cf2a-4474-8597-8ae13441e83f_00000081648503102742658670000016339792418267829672_" gradientUnits="userSpaceOnUse" x1="-604.0312" y1="241.5826" x2="-604.2112" y2="241.9326" gradientTransform="matrix(218.78 0 0 148.45 132552.4219 -35822.2305)">
	<stop  offset="0" style="stop-color:#FFF5FF;stop-opacity:0.86"/>
	<stop  offset="1" style="stop-color:#B692DB;stop-opacity:0.47"/>
</linearGradient>
<path id="b98be6e6-cf2a-4474-8597-8ae13441e83f" style="fill:url(#b98be6e6-cf2a-4474-8597-8ae13441e83f_00000081648503102742658670000016339792418267829672_);" d="
	M388.2,42.7c5.4,0.5,10.6,2,15.4,4.4c7.6,3.7,12.6,8.7,15.1,15.1c1,2.7,1.1,3,0.9,6.4c-0.3,5.7-2,9.6-6.4,14
	c-5.1,5.2-12.3,8.8-21.3,10.7c-6.9,1.1-13.9,1.1-20.8,0c-14.6-3.1-24.8-11-27.2-21.1c-1.4-6.1,0.8-13,5.7-18
	c6.4-6.5,14.8-10.1,26.4-11.5C380.1,42.4,384.2,42.4,388.2,42.7"/>
<linearGradient id="a3193c56-8914-498f-aa61-aac5ffeb5e6d_00000158005547254412118670000003038600067543560882_" gradientUnits="userSpaceOnUse" x1="-605.4974" y1="242.3932" x2="-605.4974" y2="242.0433" gradientTransform="matrix(273.26 0 0 286.83 165613.5 -68964.4688)">
	<stop  offset="0" style="stop-color:#FF00FF;stop-opacity:0.62"/>
	<stop  offset="1" style="stop-color:#C963E8;stop-opacity:0.89"/>
</linearGradient>
<path id="a3193c56-8914-498f-aa61-aac5ffeb5e6d" style="fill:url(#a3193c56-8914-498f-aa61-aac5ffeb5e6d_00000158005547254412118670000003038600067543560882_);" d="
	M123,460.1c-0.9,1-1.7,2-2.4,3c-2.4,3.8-4.5,7.8-6.3,11.9c-0.2,0.7-0.6,1.3-0.7,1.3s-1.4,3.6-2.3,7.3c-3.2,13.6-1.5,27.9,4.9,40.3
	c7.2,14.5,20.1,25.5,35.6,30.4c6.9,2.2,8.8,2.5,17.9,2.5c7.6,0,8.5-0.1,12.6-1c3.3-0.6,6.5-1.6,9.6-3c0.6-0.3,1.2-0.6,1.9-0.7
	c0.6,0,6.8-3.3,8.3-4.5c1.1-0.8,1.1-0.8,0.5-0.1c-2.7,2-5.5,3.7-8.4,5.3c-0.4,0.1-0.9,0.3-1.3,0.5c-3.5,1.5-7.1,2.7-10.7,3.8
	c-3.2,0.9-4.6,1.1-10.9,1.4c-8.3,0.5-11.1,0.2-18.2-1.5c-4.6-1.1-9.1-2.8-13.3-5c-2.5-1.3-4.8-2.7-7.1-4.3c-0.1-0.1-1.1-0.9-2.2-1.7
	c-2.5-1.9-10-9.7-10-10.3c0-0.3-0.2-0.5-0.3-0.5c-0.5,0-4.5-6.2-6-9.2c-4.7-9.4-7.1-21.5-6.2-31.2c0.6-6.3,1.7-10.7,4.7-18.7
	c0.9-2.4,3.3-7.2,3.7-7.5c0.7-0.8,1.3-1.7,1.8-2.7c1.3-2.2,5.2-6.9,5.8-6.9C124,459,123.6,459.5,123,460.1"/>
<g id="b709f4fc-ae12-4903-8854-fcd0ead9a279">
	
		<linearGradient id="bd583b4f-e59c-4973-b643-dcd53ee1496e_00000045581609512237066710000004420118547018159274_" gradientUnits="userSpaceOnUse" x1="-604.2122" y1="241.07" x2="-604.5622" y2="240.84" gradientTransform="matrix(274.28 0 0 282.47 166306.4219 -67985.7109)">
		<stop  offset="0" style="stop-color:#FFFFFF;stop-opacity:0"/>
		<stop  offset="1" style="stop-color:#BA56CF;stop-opacity:0.55"/>
	</linearGradient>
	
		<path id="bd583b4f-e59c-4973-b643-dcd53ee1496e" style="fill:url(#bd583b4f-e59c-4973-b643-dcd53ee1496e_00000045581609512237066710000004420118547018159274_);stroke:#000000;stroke-width:0.5;stroke-miterlimit:10;" d="
		M522.2,36.7c3.3,0.3,6.5,1,9.6,2c4.6,1.7,9,3.8,13.2,6.4l5.3,3.5c7.5,5,13.8,11.5,18.5,19.3c1.9,3.1,2.8,5.4,4.7,11.3
		c2.8,8.7,3,10,3,19.7c0,5.8-0.2,8.8-0.5,9.8c-0.2,0.8-0.7,2.5-0.9,3.9c-0.2,1.1-0.5,2.1-0.8,3.2c-0.4,0.8-0.7,1.6-0.9,2.4
		c-1.3,3.7-2.9,7.2-5,10.6c-1.8,3-4.5,6.4-4.8,6.1c0.2-0.8,0.6-1.5,1-2.1c2-3.1,3.6-6.5,4.7-10c0.4-1.4,0.9-3.1,1.1-3.7
		c0.2-0.6,0.4-1.3,0.5-1.9c1-5.2,1.2-6.8,1.5-9.5c0.5-4.2,0.4-8.4-0.2-12.6c-1.2-8.9-4.2-17.4-9-25.1c-5-7.6-11.5-14.1-19.2-19
		c-12-7.2-26-10-39.9-7.9c-6.5,0.9-14.2,3.1-16.8,4.8c-0.5,0.3-1,0.6-1.5,0.8c-0.5,0.2-0.9,0.5-1.3,0.8c-1.5,1.1-3.4,2.1-3.6,1.8
		c0.6-1.1,1.4-2,2.4-2.8c6.7-6.7,14.9-10.3,26.6-11.7C514.1,36.3,518.1,36.3,522.2,36.7"/>
</g>
<line class="st25" x1="408.5" y1="211.5" x2="554.5" y2="65.5"/>
<line class="st25" x1="368.5" y1="196.5" x2="381.5" y2="102.5"/>
<line class="st25" x1="284.5" y1="104.5" x2="336.5" y2="177.5"/>
<line class="st25" x1="193.5" y1="144.5" x2="316.5" y2="234.5"/>
<line class="st25" x1="231.5" y1="267.5" x2="274.5" y2="267.5"/>
<line class="st25" x1="330.5" y1="307.5" x2="315.5" y2="397.5"/>
<line class="st25" x1="164.5" y1="503.5" x2="317.5" y2="288.5"/>
<line class="st25" x1="391.5" y1="311.5" x2="414.5" y2="431.5"/>
<line class="st25" x1="405" y1="295" x2="498" y2="351"/>
<line class="st25" x1="422.5" y1="270.5" x2="476.5" y2="289.5"/>
<line class="st25" x1="416.5" y1="230.5" x2="502.5" y2="227.5"/>
</svg>
