<svg xmlns="http://www.w3.org/2000/svg" xmlns:xlink="http://www.w3.org/1999/xlink" viewBox="0 0 700 600"><defs><style>.e913cb61-80a5-4472-8a93-6f77087ef0d7,.f6271249-8037-4c86-9bbd-9f7a27948d13{fill:none;}.af243fd9-4a64-49c6-88b1-ebf98ca09d5f{fill:#d3d3d3;}.a94310c1-b6e1-4024-b531-ebb30ac91198{fill:url(#af984707-50aa-4dcd-b734-5ae13cf8d108);}.b9affe1d-1341-4969-b41c-52568134b918{fill:url(#aadbb850-1730-45cf-a27b-cef3f45f06d8);}.ecdf6048-91ba-4d41-bbfa-f4ac4e012f24{fill:url(#b0a26bb2-3924-4a63-a694-24b8f0edb5ca);}.ade5f58a-9d46-466e-9201-7d7f617743b8{fill:url(#b5e94592-d587-43c3-8a07-183b56d1d79c);}.bc6983f1-7a27-4af1-b1f2-a1d2256be3b2{fill:url(#a02d2e1b-913a-4487-96ce-9335a424ced9);}.e981c66c-bbf3-457a-a9ce-7982e271e539{fill:url(#abe3bfbf-d6be-4c16-ae99-cefa787096e8);}.ba34de3c-52aa-4907-82d7-261cd5595808{fill:url(#f262a530-54c2-4fdf-a1d4-dc735f1546a7);}.bb879665-437b-43f1-b3e3-1452eb16ffe6{fill:url(#f09c717f-e642-4297-be0a-b5eea2e96dee);}.aadbfb1c-de80-4272-b3db-d2a15c1caf0a{fill:url(#b9ccfb19-5557-40a9-ab0f-c19fdcdbd067);}.b7b7903e-a22c-4832-81b5-d13e57981be7{fill:url(#a43cf760-e07e-460a-b0fa-43d9de60bfd5);}.ac4721e9-7b25-46ab-b95c-bd1114f244b0{fill:url(#fa62089f-cf20-4a15-afb5-c3086906b601);}.b0a0a9b3-b54f-4e5c-a367-1da299f65ac0{fill:url(#ec06635c-b65e-48cd-bd8f-08a6e39128ee);}.a863e460-abb3-47ba-b61a-ec3ba18c45a2{fill:url(#bfb18678-7233-49ca-936b-3ba0c587b5b2);}.bb4e8555-b408-4412-bf01-d1cef17e95ed{fill:url(#beede777-d284-4dd0-8fb0-d746acaea55c);}.a793534e-d482-4b3a-96f6-cb59a67f60b5{fill:url(#efc36e85-2e71-4b5c-9c9b-b022e78e2744);}.f999ddb6-d3a8-4956-a799-da5852e340fb{fill:url(#a35aa597-acaf-4bee-963e-83ba88dddac1);}.a8c6a46a-76b4-4edc-9e90-bb131323eb0c{fill:url(#a7bf49ae-fdf3-4406-8189-b222afdf8f1a);}.b9198078-7d90-44df-8ddb-c2fd61f17fcc{fill:url(#b66e65f4-5563-4bf3-9a8a-cc4757f265c2);}.a2f264dc-2524-4a89-b388-52e3f7e9bc1b,.bae00124-fd9a-4c49-a833-30cb5f3e63db,.e913cb61-80a5-4472-8a93-6f77087ef0d7,.ed092223-ef47-4c5a-bc47-2ec825b45827{stroke:#231815;stroke-miterlimit:10;}.a2f264dc-2524-4a89-b388-52e3f7e9bc1b,.bae00124-fd9a-4c49-a833-30cb5f3e63db,.ed092223-ef47-4c5a-bc47-2ec825b45827{stroke-width:0.5px;}.bae00124-fd9a-4c49-a833-30cb5f3e63db{fill:url(#a6c21cd3-1d8b-4948-8890-f304ea070953);}.a2f264dc-2524-4a89-b388-52e3f7e9bc1b{fill:url(#e1a9fbb2-9508-4f32-b666-70b9701c0b08);}.ed092223-ef47-4c5a-bc47-2ec825b45827{fill:url(#a3198733-b955-4062-978c-d42152c18325);}</style><pattern id="af984707-50aa-4dcd-b734-5ae13cf8d108" data-name="grid-pattern" width="40" height="40" patternTransform="matrix(1, 0, 0, -1, 26.78, 627.68)" patternUnits="userSpaceOnUse" viewBox="0 0 40 40"><rect class="f6271249-8037-4c86-9bbd-9f7a27948d13" width="40" height="40"/><rect class="af243fd9-4a64-49c6-88b1-ebf98ca09d5f" y="20" width="20" height="20"/><rect class="af243fd9-4a64-49c6-88b1-ebf98ca09d5f" x="20" width="20" height="20"/></pattern><linearGradient id="aadbb850-1730-45cf-a27b-cef3f45f06d8" x1="1.7" y1="600.8" x2="1.7" y2="600.45" gradientTransform="translate(-501 -270599) scale(502 451)" gradientUnits="userSpaceOnUse"><stop offset="0" stop-color="#d1d1d1"/><stop offset="1" stop-color="#eaeaea"/></linearGradient><linearGradient id="b0a26bb2-3924-4a63-a694-24b8f0edb5ca" x1="1.82" y1="600.78" x2="1.64" y2="600.48" gradientTransform="translate(-386.59 -256020.53) scale(426.19 426.72)" gradientUnits="userSpaceOnUse"><stop offset="0" stop-color="#b4b3b3"/><stop offset="1" stop-color="#c3c3c3"/></linearGradient><linearGradient id="b5e94592-d587-43c3-8a07-183b56d1d79c" x1="1.76" y1="600.83" x2="1.78" y2="600.48" gradientTransform="translate(-294.78 -215633.61) scale(364.89 359.46)" gradientUnits="userSpaceOnUse"><stop offset="0" stop-color="#462573"/><stop offset="1" stop-color="#7d418c"/></linearGradient><linearGradient id="a02d2e1b-913a-4487-96ce-9335a424ced9" x1="1.78" y1="600.83" x2="1.78" y2="600.48" gradientTransform="translate(-278.28 -199833.2) scale(353.64 333.16)" gradientUnits="userSpaceOnUse"><stop offset="0" stop-color="#682f85"/><stop offset="1" stop-color="#ae86b5"/></linearGradient><linearGradient id="abe3bfbf-d6be-4c16-ae99-cefa787096e8" x1="1.77" y1="600.63" x2="2.12" y2="600.63" gradientTransform="translate(-192.89 -171986.86) scale(273.28 286.83)" gradientUnits="userSpaceOnUse"><stop offset="0" stop-color="#84468f"/><stop offset="1" stop-color="#84468f"/></linearGradient><linearGradient id="f262a530-54c2-4fdf-a1d4-dc735f1546a7" x1="1.94" y1="601.58" x2="1.95" y2="601.23" gradientTransform="translate(-75.56 -78801.03) scale(218.83 131.44)" gradientUnits="userSpaceOnUse"><stop offset="0" stop-color="#9b72a9"/><stop offset="1" stop-color="#d0a4c6"/></linearGradient><linearGradient id="f09c717f-e642-4297-be0a-b5eea2e96dee" x1="1.92" y1="602.78" x2="1.98" y2="603.29" gradientTransform="translate(-54.8 -37387.24) scale(207.95 62.39)" gradientUnits="userSpaceOnUse"><stop offset="0" stop-color="#b27bac"/><stop offset="1" stop-color="#fcf6f8"/></linearGradient><linearGradient id="b9ccfb19-5557-40a9-ab0f-c19fdcdbd067" x1="2.41" y1="600.07" x2="2.32" y2="600.21" gradientTransform="translate(-82.95 -59234.82) scale(167.5 99.27)" gradientUnits="userSpaceOnUse"><stop offset="0" stop-color="#a4a2a5"/><stop offset="1" stop-color="#e4e2e2"/></linearGradient><linearGradient id="a43cf760-e07e-460a-b0fa-43d9de60bfd5" x1="1.08" y1="600.55" x2="1.29" y2="600.58" gradientTransform="translate(337.4 -59011.55) scale(59.6 98.77)" gradientUnits="userSpaceOnUse"><stop offset="0" stop-color="#a3a4a1"/><stop offset="1" stop-color="#fff"/></linearGradient><linearGradient id="fa62089f-cf20-4a15-afb5-c3086906b601" x1="3.69" y1="605.64" x2="4.04" y2="605.64" gradientTransform="translate(98.07 -20643.16) scale(59.32 34.44)" gradientUnits="userSpaceOnUse"><stop offset="0" stop-color="#fff" stop-opacity="0.89"/><stop offset="1" stop-color="#fff" stop-opacity="0.89"/></linearGradient><linearGradient id="ec06635c-b65e-48cd-bd8f-08a6e39128ee" x1="1.25" y1="600.8" x2="1.25" y2="600.45" xlink:href="#aadbb850-1730-45cf-a27b-cef3f45f06d8"/><linearGradient id="bfb18678-7233-49ca-936b-3ba0c587b5b2" x1="2.11" y1="601.3" x2="1.93" y2="601" xlink:href="#b0a26bb2-3924-4a63-a694-24b8f0edb5ca"/><linearGradient id="beede777-d284-4dd0-8fb0-d746acaea55c" x1="2.45" y1="601.05" x2="2.47" y2="600.71" xlink:href="#b5e94592-d587-43c3-8a07-183b56d1d79c"/><linearGradient id="efc36e85-2e71-4b5c-9c9b-b022e78e2744" x1="1.15" y1="600.22" x2="1.16" y2="599.87" xlink:href="#a02d2e1b-913a-4487-96ce-9335a424ced9"/><linearGradient id="a35aa597-acaf-4bee-963e-83ba88dddac1" x1="0.97" y1="601.25" x2="1.32" y2="601.25" xlink:href="#abe3bfbf-d6be-4c16-ae99-cefa787096e8"/><linearGradient id="a7bf49ae-fdf3-4406-8189-b222afdf8f1a" x1="2.17" y1="600.31" x2="2.18" y2="599.96" xlink:href="#f262a530-54c2-4fdf-a1d4-dc735f1546a7"/><linearGradient id="b66e65f4-5563-4bf3-9a8a-cc4757f265c2" x1="2.89" y1="600.91" x2="2.95" y2="601.42" xlink:href="#f09c717f-e642-4297-be0a-b5eea2e96dee"/><linearGradient id="a6c21cd3-1d8b-4948-8890-f304ea070953" x1="2.08" y1="601.77" x2="1.99" y2="601.91" xlink:href="#b9ccfb19-5557-40a9-ab0f-c19fdcdbd067"/><linearGradient id="e1a9fbb2-9508-4f32-b666-70b9701c0b08" x1="4.21" y1="600.01" x2="4.42" y2="600.04" xlink:href="#a43cf760-e07e-460a-b0fa-43d9de60bfd5"/><linearGradient id="a3198733-b955-4062-978c-d42152c18325" x1="2.58" y1="602.03" x2="2.92" y2="602.03" xlink:href="#fa62089f-cf20-4a15-afb5-c3086906b601"/></defs><g id="e3ae0175-ed8e-4f51-b880-a5476fdd0e77" data-name="图层 1"><rect class="a94310c1-b6e1-4024-b531-ebb30ac91198" width="700" height="600"/><path class="b9affe1d-1341-4969-b41c-52568134b918" d="M262.76,281.49v78.37H437.24V203.11H262.76Z" transform="translate(-0.22 -0.32)"/><path class="ecdf6048-91ba-4d41-bbfa-f4ac4e012f24" d="M340.09,207.15a79.91,79.91,0,0,0-31.45,12.06,91.13,91.13,0,0,0-18,17.27c-3.2,4.28-8.44,13.59-9.24,16.34-.11.48-.7,2.05-1.22,3.47a71.31,71.31,0,0,0-2.61,9c-1.25,7.61-1.35,8.93-1.35,15.29a67.32,67.32,0,0,0,1.39,15.12c.07.38.21,1.25.31,1.91.59,3.51,4.28,13.28,6.67,17.73a75.09,75.09,0,0,0,35.07,33,58.91,58.91,0,0,0,12.79,4.38,65.85,65.85,0,0,0,19.85,2.15,72.47,72.47,0,0,0,29.89-7.16,74.79,74.79,0,0,0,31-27.66c4.21-6.67,8.93-18.28,9.66-23.81a3.15,3.15,0,0,1,.18-.87c.1,0,.35-1.67.9-6.6a81.74,81.74,0,0,0-.17-18.07c-.21-1.15-.45-2.89-.56-3.83-.45-3.86-3.54-13.07-6.36-18.94a87.47,87.47,0,0,0-4.86-8.34A74.41,74.41,0,0,0,360,207.15,95,95,0,0,0,340.09,207.15Z" transform="translate(-0.22 -0.32)"/><path class="ade5f58a-9d46-466e-9201-7d7f617743b8" d="M342.91,218.79a65.75,65.75,0,0,0-21.58,6.57,57.37,57.37,0,0,0-15.23,10.77,61.53,61.53,0,0,0-17.93,31.63,66.37,66.37,0,0,0-.59,23.7A62.12,62.12,0,0,0,305,324.62a63.91,63.91,0,0,0,91.76-1.32,58.31,58.31,0,0,0,10.49-15.4,66.41,66.41,0,0,0,6.36-26.76A61.52,61.52,0,0,0,402.79,246a77.77,77.77,0,0,0-15.6-15.85,72.4,72.4,0,0,0-14.6-7.68,75.65,75.65,0,0,0-15.36-3.68A81.52,81.52,0,0,0,342.91,218.79Zm13.87.31a43,43,0,0,1,16.4,4.94,54,54,0,0,0,5,2.19,33.71,33.71,0,0,1,6.78,3.79A58.84,58.84,0,0,1,404.71,252a78,78,0,0,1,4.86,13.38c1.81,6.64,1.95,7.78,1.95,15.88,0,7.06-.07,8.13-.91,12a60.66,60.66,0,0,1-15.5,29.3A67.76,67.76,0,0,1,384,331.75a77,77,0,0,1-15.23,7.05c-6.91,2.09-9.24,2.37-18.73,2.44s-11.78-.28-19.39-2.75c-16-5.21-30.07-17.62-36.67-32.32a63.7,63.7,0,0,1-4.66-14.43c-.9-4.27-.9-16.78,0-21.72,3.23-17.34,13.48-31.8,29.36-41.36a25.59,25.59,0,0,1,3.52-1.91,6.72,6.72,0,0,0,1.84-1c5-3.37,12.16-5.77,20.57-6.74A84.43,84.43,0,0,1,356.78,219.1Z" transform="translate(-0.22 -0.32)"/><path class="bc6983f1-7a27-4af1-b1f2-a1d2256be3b2" d="M376.07,225.46a9.64,9.64,0,0,0,1.67,1.29,25.9,25.9,0,0,1,9.52,11.85c1,2.64,1,3,.9,6.36-.28,5.7-2.05,9.56-6.36,13.94-5.11,5.21-12.23,8.79-21.3,10.67a62.83,62.83,0,0,1-20.75,0c-17.21-3.65-28.4-14.25-27.5-26.1.39-5.32,2.54-9.63,6.89-13.76a27.41,27.41,0,0,0,2.88-2.92c-.42,0-6.57,3.86-9.28,5.8a64.78,64.78,0,0,0-15.57,17A65.5,65.5,0,0,0,289.32,270c-.94,4.94-.94,17.45,0,21.72a94.65,94.65,0,0,0,2.92,10.39,59.2,59.2,0,0,0,13.28,20.65,63.51,63.51,0,0,0,32.42,17.69c3.24.73,4.42.8,12.1.77,9.49-.07,11.82-.35,18.73-2.44A77,77,0,0,0,384,331.75a67.76,67.76,0,0,0,11.15-9.25,60.66,60.66,0,0,0,15.5-29.3c.84-3.86.91-4.93.91-12,0-9.28-.63-12.79-4.14-22.83-4.48-12.9-14.07-23.95-26.86-31.08a9.62,9.62,0,0,0-2.37-1.11c0,.14-.45,0-1-.31S376.07,225.39,376.07,225.46Z" transform="translate(-0.22 -0.32)"/><path class="e981c66c-bbf3-457a-a9ce-7982e271e539" d="M304.26,243.54a31.9,31.9,0,0,0-3.54,4.65,16.46,16.46,0,0,1-1.81,2.71c-.42.25-2.75,5-3.69,7.48-3,8-4.1,12.4-4.69,18.7-.87,9.73,1.53,21.79,6.19,31.17,1.53,3,5.56,9.21,6,9.21.21,0,.35.25.35.52,0,.66,7.51,8.41,10,10.29,1.12.84,2.09,1.6,2.19,1.7a54.82,54.82,0,0,0,7.06,4.35,54,54,0,0,0,13.24,5c7.06,1.7,9.94,1.91,18.18,1.49,6.26-.34,7.71-.55,10.88-1.42a102.15,102.15,0,0,0,10.67-3.76,7,7,0,0,1,1.28-.48,64.42,64.42,0,0,0,8.38-5.25c.63-.73.59-.7-.52.1a57.37,57.37,0,0,1-8.31,4.45,7,7,0,0,0-1.87.73,39.28,39.28,0,0,1-9.56,3c-4.1.87-5,.94-12.58,1-9.08,0-10.92-.24-17.87-2.5a60.14,60.14,0,0,1-38.75-38.06,60.78,60.78,0,0,1-2.5-27.73c.55-4.14,2.64-12.17,3.19-12.17.14,0,.45-.59.7-1.32a80.53,80.53,0,0,1,6.32-11.88c.77-1.05,1.88-2.44,2.44-3.06s1-1.11.87-1.11A16.51,16.51,0,0,0,304.26,243.54Z" transform="translate(-0.22 -0.32)"/><path class="ba34de3c-52aa-4907-82d7-261cd5595808" d="M338.7,225.36c-6.25.9-14.07,3.16-16.57,4.73a9.33,9.33,0,0,1-1.5.83,5.25,5.25,0,0,0-1.32.83,21.06,21.06,0,0,1-2.5,1.53c-3.37,1.71-5.53,9.49-4.21,15.16,2.4,10.15,12.51,18,27.15,21.09a62.83,62.83,0,0,0,20.75,0c9.07-1.88,16.19-5.46,21.3-10.67,4.45-4.52,6.12-8.27,6.33-14.25l.14-3.83L387,239.47c-2.5-2.57-7.75-6.12-13-8.72A61.27,61.27,0,0,0,338.7,225.36Z" transform="translate(-0.22 -0.32)"/><path class="bb879665-437b-43f1-b3e3-1452eb16ffe6" d="M344.61,219a45.22,45.22,0,0,0-10.6,2.19,38.31,38.31,0,0,0-10.95,5.25c-2.57,1.77-7.75,6.74-7.4,7.09s2.16-.66,3.65-1.78a5.25,5.25,0,0,1,1.32-.83,10.92,10.92,0,0,0,1.5-.8c2.6-1.67,10.28-3.82,16.75-4.76a59.86,59.86,0,0,1,44.35,11,32.67,32.67,0,0,1,3.58,3l1.11,1.15-.87-2.33c-3.06-8.27-13.59-15.92-25.23-18.28A70.58,70.58,0,0,0,344.61,219Z" transform="translate(-0.22 -0.32)"/><path class="aadbfb1c-de80-4272-b3db-d2a15c1caf0a" d="M293.28,316.94a3.62,3.62,0,0,0-1.32,1.7c-.56,1.71.31,3.48,3.33,7a72.65,72.65,0,0,0,14.6,12.33c6.29,4.21,10.88,6.68,15.92,8.52,7.61,2.85,19.95,5.28,22.17,4.34a3.16,3.16,0,0,0,1.46-4.76c-.8-1.15-1.42-1.39-4.86-1.81-8.83-1.14-18.25-4.17-24.89-8a78.13,78.13,0,0,1-16-11.72,69.35,69.35,0,0,1-5.35-5.7C296.82,316.59,295.12,316,293.28,316.94Z" transform="translate(-0.22 -0.32)"/><path class="b7b7903e-a22c-4832-81b5-d13e57981be7" d="M415.17,290.28c-1.64,1-1.88,1.5-3,5.53a68,68,0,0,1-9.59,21.06,28.55,28.55,0,0,0-2.22,3.75,4.54,4.54,0,0,0,2.15,3c1.88,1,3.55.49,5.74-1.67,4.83-4.69,9.48-14.08,12.13-24.36.76-2.92.83-3.69.52-4.76A3.94,3.94,0,0,0,415.17,290.28Z" transform="translate(-0.22 -0.32)"/><path class="ac4721e9-7b25-46ab-b95c-bd1114f244b0" d="M330,211c-.77.28-2.58.83-4,1.18-3.12.8-7.47,3-8.2,4a4,4,0,0,0,1.88,5.95c1.42.59,1.14.62,6.36-1.29,1.63-.59,4.24-1.39,5.84-1.77,3.72-.87,4.69-1.39,5.45-3a3.63,3.63,0,0,0-.86-4.48c-.87-.83-1.4-1-3-1.11A9,9,0,0,0,330,211Z" transform="translate(-0.22 -0.32)"/></g><g id="fd2ab591-d737-44d4-bffb-a1857bc61537" data-name="图层 2"><path class="b0a0a9b3-b54f-4e5c-a367-1da299f65ac0" d="M40.69,283.34v78.38H215.16V205H40.69Z" transform="translate(-0.22 -0.32)"/><path class="a863e460-abb3-47ba-b61a-ec3ba18c45a2" d="M464.31,428.15a80.06,80.06,0,0,0-31.45,12.06,91.13,91.13,0,0,0-18,17.27c-3.2,4.28-8.45,13.59-9.24,16.34-.11.48-.7,2.05-1.22,3.47a69.69,69.69,0,0,0-2.61,9c-1.25,7.61-1.35,8.93-1.35,15.29a67.32,67.32,0,0,0,1.39,15.12c.07.38.21,1.25.31,1.91.59,3.51,4.27,13.28,6.67,17.73a75.09,75.09,0,0,0,35.07,33,57.86,57.86,0,0,0,12.79,4.38,66.14,66.14,0,0,0,19.85,2.16,72.83,72.83,0,0,0,29.89-7.16,74.88,74.88,0,0,0,31-27.67c4.21-6.67,8.93-18.28,9.66-23.81a3.27,3.27,0,0,1,.18-.87c.1,0,.34-1.67.9-6.6a81.74,81.74,0,0,0-.17-18.07c-.21-1.15-.46-2.89-.56-3.83-.45-3.85-3.55-13.07-6.36-18.94a86.86,86.86,0,0,0-4.87-8.34,74.41,74.41,0,0,0-51.89-32.46A95,95,0,0,0,464.31,428.15Z" transform="translate(-0.22 -0.32)"/><path class="bb4e8555-b408-4412-bf01-d1cef17e95ed" d="M594.72,299.56a65.87,65.87,0,0,0-21.59,6.57,57.51,57.51,0,0,0-15.22,10.78A61.53,61.53,0,0,0,540,348.54a66.37,66.37,0,0,0-.59,23.7A62,62,0,0,0,556.8,405.4a63.91,63.91,0,0,0,91.76-1.32,58.31,58.31,0,0,0,10.49-15.4,66.49,66.49,0,0,0,6.36-26.76,61.47,61.47,0,0,0-10.81-35.14A77.52,77.52,0,0,0,639,310.93a72.4,72.4,0,0,0-14.6-7.68A76.35,76.35,0,0,0,609,299.56,83.5,83.5,0,0,0,594.72,299.56Zm13.87.32a42.92,42.92,0,0,1,16.4,4.93,51.13,51.13,0,0,0,5,2.19,34.81,34.81,0,0,1,6.78,3.79,58.8,58.8,0,0,1,19.77,21.93,77.07,77.07,0,0,1,4.87,13.38c1.81,6.64,2,7.79,2,15.89,0,7.05-.07,8.13-.91,12a60.74,60.74,0,0,1-15.5,29.3,67.72,67.72,0,0,1-11.15,9.24,77.66,77.66,0,0,1-15.23,7.06c-6.91,2.08-9.24,2.36-18.73,2.43s-11.78-.28-19.4-2.75c-16-5.21-30.06-17.62-36.66-32.32a63.61,63.61,0,0,1-4.66-14.42c-.9-4.28-.9-16.79,0-21.72,3.24-17.35,13.49-31.81,29.37-41.36a25.8,25.8,0,0,1,3.51-1.92,6.73,6.73,0,0,0,1.85-1c5-3.38,12.16-5.77,20.57-6.75A84.51,84.51,0,0,1,608.59,299.88Z" transform="translate(-0.22 -0.32)"/><path class="a793534e-d482-4b3a-96f6-cb59a67f60b5" d="M155.8,23.46a9.32,9.32,0,0,0,1.67,1.28A26,26,0,0,1,167,36.59c1,2.65,1,3,.9,6.36-.27,5.7-2,9.56-6.36,13.94-5.11,5.21-12.23,8.79-21.3,10.67a63.1,63.1,0,0,1-20.75,0C102.27,63.88,91.08,53.28,92,41.42c.38-5.31,2.53-9.62,6.88-13.76a27.41,27.41,0,0,0,2.88-2.92c-.41,0-6.57,3.86-9.28,5.81a64.47,64.47,0,0,0-15.57,17A65.54,65.54,0,0,0,69.05,68c-.94,4.94-.94,17.45,0,21.73a95.3,95.3,0,0,0,2.92,10.39,59.2,59.2,0,0,0,13.28,20.64,63.54,63.54,0,0,0,32.43,17.69c3.23.73,4.41.8,12.09.77,9.49-.07,11.82-.35,18.74-2.43a77.84,77.84,0,0,0,15.22-7.06,67.76,67.76,0,0,0,11.16-9.25,60.75,60.75,0,0,0,15.5-29.29c.83-3.86.9-4.94.9-12,0-9.28-.63-12.79-4.14-22.83C182.63,43.48,173,32.42,160.25,25.3a9.18,9.18,0,0,0-2.37-1.11c0,.13-.45,0-1-.32S155.8,23.39,155.8,23.46Z" transform="translate(-0.22 -0.32)"/><path class="f999ddb6-d3a8-4956-a799-da5852e340fb" d="M86.59,422.36A33.28,33.28,0,0,0,83.05,427a15.79,15.79,0,0,1-1.81,2.71c-.41.25-2.74,5-3.68,7.48-3,8-4.1,12.4-4.69,18.69-.87,9.74,1.53,21.8,6.18,31.18,1.53,3,5.56,9.21,6,9.21.2,0,.34.24.34.52,0,.66,7.51,8.41,10,10.29,1.11.83,2.08,1.6,2.19,1.7a55.68,55.68,0,0,0,7,4.35,54.52,54.52,0,0,0,13.25,5c7.05,1.7,9.94,1.91,18.17,1.49,6.26-.35,7.72-.55,10.88-1.42a104.5,104.5,0,0,0,10.67-3.76,6.08,6.08,0,0,1,1.29-.48,65,65,0,0,0,8.37-5.25c.63-.73.59-.7-.52.1a58.35,58.35,0,0,1-8.3,4.45,6.66,6.66,0,0,0-1.88.73,39.14,39.14,0,0,1-9.56,3c-4.1.87-5,.94-12.58,1-9.07,0-10.91-.24-17.87-2.5A60.16,60.16,0,0,1,77.8,477.45a60.8,60.8,0,0,1-2.5-27.73c.55-4.14,2.64-12.17,3.2-12.17.14,0,.45-.59.69-1.32a80.63,80.63,0,0,1,6.33-11.88c.76-1.05,1.87-2.44,2.43-3.06s1-1.12.87-1.12A18,18,0,0,0,86.59,422.36Z" transform="translate(-0.22 -0.32)"/><path class="a8c6a46a-76b4-4edc-9e90-bb131323eb0c" d="M388.86,59.13c-6.25.9-14.07,3.16-16.58,4.72a9.47,9.47,0,0,1-1.49.84,5.25,5.25,0,0,0-1.32.83,22.46,22.46,0,0,1-2.5,1.53c-3.37,1.7-5.53,9.49-4.21,15.16,2.4,10.14,12.51,18,27.15,21.09a63.1,63.1,0,0,0,20.75,0c9.07-1.88,16.19-5.46,21.3-10.67,4.45-4.52,6.12-8.28,6.33-14.25l.14-3.83-1.29-1.35c-2.5-2.57-7.75-6.12-13-8.73A61.27,61.27,0,0,0,388.86,59.13Z" transform="translate(-0.22 -0.32)"/><path class="b9198078-7d90-44df-8ddb-c2fd61f17fcc" d="M546.12,102.41a45.22,45.22,0,0,0-10.6,2.19,38.18,38.18,0,0,0-10.95,5.25c-2.57,1.77-7.75,6.74-7.4,7.09s2.16-.67,3.65-1.78a5.25,5.25,0,0,1,1.32-.83,11.58,11.58,0,0,0,1.5-.8c2.6-1.67,10.28-3.82,16.75-4.76a59.86,59.86,0,0,1,44.35,11,32.67,32.67,0,0,1,3.58,3l1.11,1.15-.87-2.33c-3.06-8.27-13.59-15.92-25.23-18.28A70.58,70.58,0,0,0,546.12,102.41Z" transform="translate(-0.22 -0.32)"/><path class="bae00124-fd9a-4c49-a833-30cb5f3e63db" d="M238.69,485a3.56,3.56,0,0,0-1.32,1.7c-.56,1.7.31,3.47,3.33,6.95A72.67,72.67,0,0,0,255.3,506c6.29,4.2,10.88,6.67,15.92,8.51,7.61,2.85,19.95,5.29,22.17,4.35a3.18,3.18,0,0,0,1.46-4.76c-.8-1.15-1.42-1.39-4.86-1.81-8.83-1.15-18.25-4.17-24.89-8a77.84,77.84,0,0,1-16-11.71,71.08,71.08,0,0,1-5.35-5.7C242.23,484.63,240.53,484,238.69,485Z" transform="translate(-0.22 -0.32)"/><path class="a2f264dc-2524-4a89-b388-52e3f7e9bc1b" d="M601.76,236.64c-1.63,1-1.88,1.49-3,5.52a68.24,68.24,0,0,1-9.6,21.06A28.9,28.9,0,0,0,587,267a4.55,4.55,0,0,0,2.15,2.95c1.88,1,3.55.49,5.74-1.67,4.83-4.69,9.49-14.07,12.13-24.36.76-2.92.83-3.68.52-4.76A3.92,3.92,0,0,0,601.76,236.64Z" transform="translate(-0.22 -0.32)"/><path class="ed092223-ef47-4c5a-bc47-2ec825b45827" d="M263.72,86.51c-.77.28-2.57.83-4,1.18-3.13.8-7.48,3-8.21,4a4,4,0,0,0,1.88,5.94c1.43.59,1.15.63,6.36-1.28,1.63-.59,4.24-1.39,5.84-1.77,3.72-.87,4.69-1.39,5.46-3a3.65,3.65,0,0,0-.87-4.48c-.87-.84-1.39-1-3-1.11A9,9,0,0,0,263.72,86.51Z" transform="translate(-0.22 -0.32)"/><line class="e913cb61-80a5-4472-8a93-6f77087ef0d7" x1="115.37" y1="487.07" x2="305.26" y2="322.46"/><line class="e913cb61-80a5-4472-8a93-6f77087ef0d7" x1="266.1" y1="497.32" x2="320.69" y2="340.72"/><line class="e913cb61-80a5-4472-8a93-6f77087ef0d7" x1="424.09" y1="443.66" x2="382.2" y2="343.1"/><line class="e913cb61-80a5-4472-8a93-6f77087ef0d7" x1="540.2" y1="333.43" x2="391.84" y2="325.15"/><line class="e913cb61-80a5-4472-8a93-6f77087ef0d7" x1="584.63" y1="262.68" x2="415.37" y2="300"/><line class="e913cb61-80a5-4472-8a93-6f77087ef0d7" x1="523.17" y1="119.76" x2="370" y2="225.13"/><line class="e913cb61-80a5-4472-8a93-6f77087ef0d7" x1="382.68" y1="112.73" x2="351.56" y2="229.32"/><line class="e913cb61-80a5-4472-8a93-6f77087ef0d7" x1="266.1" y1="101.89" x2="327.21" y2="216.18"/><line class="e913cb61-80a5-4472-8a93-6f77087ef0d7" x1="181.71" y1="128.05" x2="304.63" y2="260.73"/><line class="e913cb61-80a5-4472-8a93-6f77087ef0d7" x1="220.75" y1="300.08" x2="271.22" y2="298.93"/></g></svg>