<?xml version="1.0" standalone="no"?><!DOCTYPE svg PUBLIC "-//W3C//DTD SVG 20010904//EN" "http://www.w3.org/TR/2001/REC-SVG-20010904/DTD/svg10.dtd"><svg version="1.0" xmlns="http://www.w3.org/2000/svg" width="502pt" height="451pt" viewBox="0 0 502 451" preserveAspectRatio="xMidYMid meet"><defs><linearGradient id="linear-gradient-1-1" x1="0.00%" y1="0.00%" x2="25.02%" y2="116.15%"><stop offset="0%" style="stop-color:rgb(194,193,194);stop-opacity:0.991" /><stop offset="100%" style="stop-color:rgb(247,247,247);stop-opacity:0.991" /></linearGradient><linearGradient id="linear-gradient-2-1" x1="0.00%" y1="100.00%" x2="105.90%" y2="5.33%"><stop offset="0%" style="stop-color:rgb(145,131,150);stop-opacity:0.956" /><stop offset="100%" style="stop-color:rgb(156,169,150);stop-opacity:0.101" /></linearGradient><linearGradient id="linear-gradient-3-1" x1="0.00%" y1="100.00%" x2="0.00%" y2="-0.00%"><stop offset="0%" style="stop-color:rgb(250,249,250);stop-opacity:0.272" /><stop offset="100%" style="stop-color:rgb(103,78,120);stop-opacity:0.838" /></linearGradient><linearGradient id="linear-gradient-4-1" x1="0.00%" y1="100.00%" x2="0.00%" y2="0.00%"><stop offset="0%" style="stop-color:rgb(254,254,253);stop-opacity:0.800" /><stop offset="100%" style="stop-color:rgb(255,255,255);stop-opacity:0.830" /></linearGradient><linearGradient id="linear-gradient-4-2" x1="0.00%" y1="100.00%" x2="0.00%" y2="-0.00%"><stop offset="0%" style="stop-color:rgb(129,9,176);stop-opacity:0.786" /><stop offset="100%" style="stop-color:rgb(75,0,146);stop-opacity:0.815" /></linearGradient><linearGradient id="linear-gradient-4-3" x1="0.00%" y1="0.00%" x2="107.31%" y2="2.42%"><stop offset="0%" style="stop-color:rgb(224,227,222);stop-opacity:0.698" /><stop offset="100%" style="stop-color:rgb(255,255,255);stop-opacity:0.829" /></linearGradient><linearGradient id="linear-gradient-4-4" x1="0.00%" y1="0.00%" x2="85.78%" y2="122.50%"><stop offset="0%" style="stop-color:rgb(255,255,255);stop-opacity:0.943" /><stop offset="100%" style="stop-color:rgb(177,181,175);stop-opacity:0.545" /></linearGradient><linearGradient id="linear-gradient-5-1" x1="0.00%" y1="100.00%" x2="0.00%" y2="-0.00%"><stop offset="0%" style="stop-color:rgb(235,89,255);stop-opacity:0.837" /><stop offset="100%" style="stop-color:rgb(244,140,255);stop-opacity:0.052" /></linearGradient><linearGradient id="linear-gradient-6-1" x1="0.00%" y1="0.00%" x2="49.72%" y2="132.71%"><stop offset="0%" style="stop-color:rgb(170,133,213);stop-opacity:0.416" /><stop offset="100%" style="stop-color:rgb(255,255,255);stop-opacity:0.909" /></linearGradient><linearGradient id="linear-gradient-6-2" x1="0.00%" y1="100.00%" x2="0.00%" y2="0.00%"><stop offset="0%" style="stop-color:rgb(200,99,232);stop-opacity:0.896" /><stop offset="100%" style="stop-color:rgb(255,0,255);stop-opacity:0.622" /></linearGradient><linearGradient id="linear-gradient-7-1" x1="0.00%" y1="100.00%" x2="121.90%" y2="28.44%"><stop offset="0%" style="stop-color:rgb(179,71,202);stop-opacity:0.615" /><stop offset="100%" style="stop-color:rgb(255,255,255);stop-opacity:0.000" /></linearGradient></defs><g id="layer-1"><path d="M0 2255 l0 -2255 2510 0 2510 0 0 2255 0 2255 -2510 0 -2510 0 0 -2255z" fill="url(#linear-gradient-1-1)" id="region-1-1" transform="translate(0.000000,451.000000) scale(0.100000,-0.100000)"/></g><g id="layer-2"><path d="M2225 4394 c-321 -50 -652 -176 -905 -347 -161 -109 -403 -340 -519 -497 -92 -123 -243 -391 -266 -470 -3 -14 -20 -59 -35 -100 -27 -72 -66 -207 -75 -260 -36 -219 -39 -257 -39 -440 0 -180 7 -255 40 -435 2 -11 6 -36 9 -55 17 -101 123 -382 192 -510 231 -426 586 -760 1009 -949 146 -66 202 -85 368 -126 209 -52 356 -68 571 -62 309 9 588 76 860 206 364 174 673 449 892 796 121 192 257 526 278 685 2 14 4 25 5 25 3 0 10 48 26 190 18 159 15 398 -5 520 -6 33 -13 83 -16 110 -13 111 -102 376 -183 545 -28 58 -91 166 -140 240 -339 510 -873 844 -1493 934 -133 20 -447 20 -574 0z" fill="url(#linear-gradient-2-1)" id="region-2-1" transform="translate(0.000000,451.000000) scale(0.100000,-0.100000)"/></g><g id="layer-3"><path d="M2200 4345 c-124 -15 -193 -30 -355 -78 -140 -41 -189 -60 -230 -92 -17 -12 -65 -39 -107 -59 -130 -61 -343 -222 -480 -363 -175 -179 -347 -435 -423 -628 -15 -38 -36 -90 -47 -114 -11 -24 -21 -53 -22 -65 -1 -12 -5 -26 -8 -31 -13 -22 -68 -286 -79 -378 -17 -149 -7 -456 20 -592 12 -60 28 -130 35 -155 8 -25 14 -49 15 -55 4 -33 38 -130 76 -221 25 -57 45 -108 45 -112 0 -5 23 -46 50 -91 28 -45 50 -84 50 -87 0 -3 31 -51 69 -107 109 -162 307 -368 496 -513 94 -73 412 -246 474 -259 9 -2 54 -17 101 -34 99 -35 250 -74 258 -67 3 3 11 1 18 -4 6 -6 16 -10 20 -8 5 1 61 -4 125 -11 126 -15 535 -8 579 9 3 1 9 2 14 1 20 -4 189 41 316 84 286 97 537 249 763 464 76 73 125 129 273 316 70 89 242 448 269 562 41 175 66 294 74 363 16 124 13 392 -4 519 -20 143 -76 362 -120 470 -20 47 -36 90 -38 96 -10 42 -142 276 -213 377 -83 118 -242 287 -364 388 -30 25 -65 55 -79 68 -58 53 -298 193 -436 254 -80 35 -274 101 -356 122 -176 44 -549 58 -779 31z" fill="url(#linear-gradient-3-1)" id="region-3-1" transform="translate(0.000000,451.000000) scale(0.100000,-0.100000)"/></g><g id="layer-4"><path d="M1935 4284 c-22 -8 -74 -24 -116 -34 -90 -23 -215 -85 -236 -116 -40 -62 -15 -142 54 -171 41 -17 33 -18 183 37 47 17 122 40 168 51 107 25 135 40 157 85 22 47 14 92 -25 129 -25 24 -40 29 -87 32 -35 1 -74 -3 -98 -13z" fill="url(#linear-gradient-4-1)" id="region-4-1" transform="translate(0.000000,451.000000) scale(0.100000,-0.100000)"/><path d="M2306 4059 c-204 -23 -424 -90 -621 -189 -175 -88 -298 -175 -438 -310 -266 -256 -434 -551 -516 -910 -46 -200 -53 -486 -17 -682 69 -370 235 -686 501 -954 496 -498 1216 -667 1888 -444 289 97 536 255 752 482 122 128 205 250 302 443 107 212 183 531 183 770 0 367 -101 695 -311 1011 -91 136 -309 358 -449 456 -114 80 -289 173 -420 221 -124 46 -320 93 -442 106 -110 12 -309 12 -412 0z" fill="url(#linear-gradient-4-2)" id="region-4-2" transform="translate(0.000000,451.000000) scale(0.100000,-0.100000)"/><path d="M4385 2002 c-47 -29 -54 -43 -85 -159 -56 -214 -140 -399 -276 -606 -35 -54 -64 -102 -64 -108 0 -25 33 -70 62 -85 54 -28 102 -14 165 48 139 135 273 405 349 701 22 84 24 106 15 137 -22 75 -104 111 -166 72z" fill="url(#linear-gradient-4-3)" id="region-4-3" transform="translate(0.000000,451.000000) scale(0.100000,-0.100000)"/><path d="M878 1235 c-15 -9 -31 -30 -38 -49 -16 -49 9 -100 96 -200 106 -121 244 -238 420 -355 181 -121 313 -192 458 -245 219 -82 574 -152 638 -125 55 23 76 89 42 137 -23 33 -41 40 -140 52 -254 33 -525 120 -716 231 -201 117 -334 215 -460 337 -70 69 -139 142 -154 164 -44 63 -93 81 -146 53z" fill="url(#linear-gradient-4-4)" id="region-4-4" transform="translate(0.000000,451.000000) scale(0.100000,-0.100000)"/></g><g id="layer-5"><path d="M2355 4053 c-242 -28 -449 -97 -592 -194 -23 -16 -47 -29 -53 -29 -16 0 -179 -100 -272 -167 -159 -115 -339 -310 -448 -488 -101 -164 -190 -397 -226 -590 -27 -142 -27 -502 -1 -625 22 -101 64 -249 84 -299 102 -250 209 -416 382 -594 246 -254 565 -428 933 -509 93 -21 127 -23 348 -22 273 2 340 10 539 70 121 37 331 134 438 203 103 66 244 183 321 266 231 248 377 523 446 843 24 111 26 142 26 345 0 267 -18 368 -119 657 -113 326 -338 611 -646 816 -82 55 -170 104 -195 109 -11 2 -76 31 -143 63 -183 90 -289 121 -472 142 -85 9 -284 11 -350 3z" fill="url(#linear-gradient-5-1)" id="region-5-1" transform="translate(0.000000,451.000000) scale(0.100000,-0.100000)"/></g><g id="layer-6"><path d="M2355 4053 c-190 -22 -355 -68 -485 -133 -449 -226 -579 -642 -304 -973 136 -163 370 -289 649 -348 157 -33 440 -34 597 -1 261 54 466 157 613 307 124 126 175 237 183 401 4 96 3 107 -26 183 -70 182 -215 327 -434 433 -152 75 -269 108 -443 128 -85 9 -284 11 -350 3z" fill="url(#linear-gradient-6-1)" id="region-6-1" transform="translate(0.000000,451.000000) scale(0.100000,-0.100000)"/><path d="M1194 3347 c-33 -34 -78 -95 -102 -134 -23 -40 -47 -75 -52 -78 -12 -7 -79 -145 -106 -215 -86 -230 -118 -357 -135 -538 -25 -280 44 -627 178 -897 44 -87 160 -265 173 -265 6 0 10 -7 10 -15 0 -19 216 -242 287 -296 32 -24 60 -46 63 -49 14 -15 130 -87 203 -125 128 -68 247 -113 381 -145 203 -49 286 -55 523 -43 180 10 222 16 313 41 97 28 229 74 307 108 17 8 34 14 37 14 14 0 224 132 241 151 18 21 17 20 -15 -3 -44 -32 -224 -128 -239 -128 -7 0 -31 -9 -54 -21 -69 -34 -141 -57 -275 -86 -118 -25 -144 -27 -362 -28 -261 0 -314 7 -514 72 -528 170 -933 568 -1115 1095 -84 245 -109 517 -72 798 16 119 76 350 92 350 4 0 13 17 20 38 18 57 137 280 182 342 22 30 54 70 70 88 17 17 28 32 25 32 -3 0 -32 -28 -64 -63z" fill="url(#linear-gradient-6-2)" id="region-6-2" transform="translate(0.000000,451.000000) scale(0.100000,-0.100000)"/></g><g id="layer-7"><path d="M2355 4053 c-138 -16 -206 -30 -305 -63 -135 -44 -218 -84 -315 -151 -74 -51 -223 -194 -213 -204 7 -8 62 19 105 51 17 13 34 24 38 24 3 0 22 11 43 23 75 48 296 110 482 137 401 58 798 -21 1145 -228 200 -119 421 -337 552 -545 133 -212 224 -466 258 -720 18 -138 19 -237 5 -362 -9 -77 -17 -124 -45 -273 -2 -13 -9 -37 -14 -55 -6 -18 -20 -66 -32 -107 -23 -82 -81 -203 -136 -286 -20 -30 -34 -57 -31 -60 10 -9 86 88 138 176 72 122 112 207 144 304 9 26 21 57 27 69 6 11 17 52 25 91 7 39 19 89 26 111 8 28 12 115 13 280 0 277 -6 315 -87 565 -55 171 -82 235 -136 325 -129 218 -312 409 -530 553 -53 36 -122 81 -152 102 -124 83 -375 191 -510 218 -130 27 -377 39 -495 25z" fill="url(#linear-gradient-7-1)" id="region-7-1" transform="translate(0.000000,451.000000) scale(0.100000,-0.100000)"/></g></svg>