<?xml version="1.0" standalone="no"?>
<!DOCTYPE svg PUBLIC "-//W3C//DTD SVG 20010904//EN"
 "http://www.w3.org/TR/2001/REC-SVG-20010904/DTD/svg10.dtd">
<svg version="1.0" xmlns="http://www.w3.org/2000/svg"
 width="502.000000pt" height="451.000000pt" viewBox="0 0 502.000000 451.000000"
 preserveAspectRatio="xMidYMid meet">
<defs>
<linearGradient id="grad_0" x1="0%" y1="0%" x2="0%" y2="100%">
<stop offset="0%" style="stop-color:rgb(210, 210, 210); stop-opacity:1"/>
<stop offset="100%" style="stop-color:rgb(235, 235, 235); stop-opacity:1"/>
</linearGradient>
<linearGradient id="grad_1" x1="70%" y1="4%" x2="20%" y2="91%">
<stop offset="0%" style="stop-color:rgb(180, 180, 180); stop-opacity:1"/>
<stop offset="100%" style="stop-color:rgb(196, 196, 196); stop-opacity:1"/>
</linearGradient>
<linearGradient id="grad_2" x1="47%" y1="0%" x2="53%" y2="100%">
<stop offset="0%" style="stop-color:rgb(84, 0, 141); stop-opacity:1"/>
<stop offset="100%" style="stop-color:rgb(156, 59, 187); stop-opacity:1"/>
</linearGradient>
<linearGradient id="grad_3" x1="44%" y1="0%" x2="45%" y2="100%">
<stop offset="0%" style="stop-color:rgb(127, 32, 171); stop-opacity:1"/>
<stop offset="100%" style="stop-color:rgb(190, 142, 206); stop-opacity:1"/>
</linearGradient>
<linearGradient id="grad_4" x1="0%" y1="62%" x2="100%" y2="62%">
<stop offset="0%" style="stop-color:rgb(201, 26, 237); stop-opacity:1"/>
<stop offset="100%" style="stop-color:rgb(201, 26, 237); stop-opacity:1"/>
</linearGradient>
<linearGradient id="grad_5" x1="44%" y1="0%" x2="47%" y2="100%">
<stop offset="0%" style="stop-color:rgb(181, 120, 214); stop-opacity:1"/>
<stop offset="100%" style="stop-color:rgb(253, 168, 255); stop-opacity:1"/>
</linearGradient>
<linearGradient id="grad_6" x1="30%" y1="95%" x2="46%" y2="-51%">
<stop offset="0%" style="stop-color:rgb(237, 121, 250); stop-opacity:1"/>
<stop offset="100%" style="stop-color:rgb(255, 248, 255); stop-opacity:1"/>
</linearGradient>
<linearGradient id="grad_7" x1="97%" y1="17%" x2="73%" y2="-22%">
<stop offset="0%" style="stop-color:rgb(185, 182, 187); stop-opacity:1"/>
<stop offset="100%" style="stop-color:rgb(255, 254, 255); stop-opacity:1"/>
</linearGradient>
<linearGradient id="grad_8" x1="0%" y1="11%" x2="59%" y2="2%">
<stop offset="0%" style="stop-color:rgb(164, 165, 163); stop-opacity:1"/>
<stop offset="100%" style="stop-color:rgb(255, 255, 255); stop-opacity:1"/>
</linearGradient>
<linearGradient id="grad_9" x1="0%" y1="38%" x2="100%" y2="38%">
<stop offset="0%" style="stop-color:rgb(254, 254, 254); stop-opacity:0.889795"/>
<stop offset="100%" style="stop-color:rgb(254, 254, 254); stop-opacity:0.889795"/>
</linearGradient>
<linearGradient id="grad_10" x1="0%" y1="55%" x2="100%" y2="55%">
<stop offset="0%" style="stop-color:rgb(0, 0, 0); stop-opacity:0.106996"/>
<stop offset="100%" style="stop-color:rgb(0, 0, 0); stop-opacity:0.106996"/>
</linearGradient>
<linearGradient id="grad_11" x1="0%" y1="100%" x2="100%" y2="100%">
<stop offset="0%" style="stop-color:rgb(255, 0, 255); stop-opacity:0.0722073"/>
<stop offset="100%" style="stop-color:rgb(255, 0, 255); stop-opacity:0.0722073"/>
</linearGradient>
</defs>
<g transform="translate(0.000000,451.000000) scale(0.100000,-0.100000)"
fill="url(#grad_0)" stroke="none">
<g>
<path d="M0 2255 l0 -2255 2510 0 2510 0 0 2255 0 2255 -2510 0 -2510 0 0
-2255z"/>
</g>
</g>
<g transform="translate(0.000000,451.000000) scale(0.100000,-0.100000)"
fill="url(#grad_1)" stroke="none">
<g>
<path d="M2225 4394 c-321 -50 -652 -176 -905 -347 -161 -109 -403 -340 -519
-497 -92 -123 -243 -391 -266 -470 -3 -14 -20 -59 -35 -100 -27 -72 -66 -207
-75 -260 -36 -219 -39 -257 -39 -440 0 -180 7 -255 40 -435 2 -11 6 -36 9 -55
17 -101 123 -382 192 -510 231 -426 586 -760 1009 -949 146 -66 202 -85 368
-126 209 -52 356 -68 571 -62 309 9 588 76 860 206 364 174 673 449 892 796
121 192 257 526 278 685 2 14 4 25 5 25 3 0 10 48 26 190 18 159 15 398 -5
520 -6 33 -13 83 -16 110 -13 111 -102 376 -183 545 -28 58 -91 166 -140 240
-339 510 -873 844 -1493 934 -133 20 -447 20 -574 0z"/>
</g>
</g>
<g transform="translate(0.000000,451.000000) scale(0.100000,-0.100000)"
fill="url(#grad_2)" stroke="none">
<g>
<path d="M2306 4059 c-204 -23 -424 -90 -621 -189 -175 -88 -298 -175 -438
-310 -266 -256 -434 -551 -516 -910 -46 -200 -53 -486 -17 -682 69 -370 235
-686 501 -954 496 -498 1216 -667 1888 -444 289 97 536 255 752 482 122 128
205 250 302 443 107 212 183 531 183 770 0 367 -101 695 -311 1011 -91 136
-309 358 -449 456 -114 80 -289 173 -420 221 -124 46 -320 93 -442 106 -110
12 -309 12 -412 0z m399 -9 c183 -21 289 -52 472 -142 67 -32 132 -61 143 -63
25 -5 113 -54 195 -109 244 -163 433 -372 569 -631 41 -76 104 -250 140 -385
52 -191 56 -224 56 -457 0 -203 -2 -234 -26 -345 -69 -320 -215 -595 -446
-843 -77 -83 -218 -200 -321 -266 -107 -69 -317 -166 -438 -203 -199 -60 -266
-68 -539 -70 -273 -1 -339 8 -558 79 -460 150 -865 507 -1055 930 -67 151 -96
241 -134 415 -26 123 -26 483 1 625 93 499 388 915 845 1190 50 30 95 55 101
55 6 0 30 13 53 29 143 97 350 166 592 194 66 8 265 6 350 -3z"/>
</g>
</g>
<g transform="translate(0.000000,451.000000) scale(0.100000,-0.100000)"
fill="url(#grad_3)" stroke="none">
<g>
<path d="M3260 3867 c0 -2 21 -19 48 -37 131 -94 223 -207 274 -341 29 -76 30
-87 26 -183 -8 -164 -59 -275 -183 -401 -147 -150 -352 -253 -613 -307 -157
-33 -440 -32 -597 1 -495 105 -817 410 -791 751 11 153 73 277 198 396 49 46
86 84 83 84 -12 0 -189 -111 -267 -167 -159 -115 -339 -310 -448 -488 -101
-164 -190 -397 -226 -590 -27 -142 -27 -502 -1 -625 22 -101 64 -249 84 -299
102 -250 209 -416 382 -594 246 -254 565 -428 933 -509 93 -21 127 -23 348
-22 273 2 340 10 539 70 121 37 331 134 438 203 103 66 244 183 321 266 231
248 377 523 446 843 24 111 26 142 26 345 0 267 -18 368 -119 657 -129 371
-405 689 -773 894 -38 21 -68 35 -68 32 0 -4 -13 0 -30 9 -16 9 -30 14 -30 12z"/>
</g>
</g>
<g transform="translate(0.000000,451.000000) scale(0.100000,-0.100000)"
fill="url(#grad_4)" stroke="none">
<g>
<path d="M1194 3347 c-33 -34 -78 -95 -102 -134 -23 -40 -47 -75 -52 -78 -12
-7 -79 -145 -106 -215 -86 -230 -118 -357 -135 -538 -25 -280 44 -627 178
-897 44 -87 160 -265 173 -265 6 0 10 -7 10 -15 0 -19 216 -242 287 -296 32
-24 60 -46 63 -49 14 -15 130 -87 203 -125 128 -68 247 -113 381 -145 203 -49
286 -55 523 -43 180 10 222 16 313 41 97 28 229 74 307 108 17 8 34 14 37 14
14 0 224 132 241 151 18 21 17 20 -15 -3 -44 -32 -224 -128 -239 -128 -7 0
-31 -9 -54 -21 -69 -34 -141 -57 -275 -86 -118 -25 -144 -27 -362 -28 -261 0
-314 7 -514 72 -528 170 -933 568 -1115 1095 -84 245 -109 517 -72 798 16 119
76 350 92 350 4 0 13 17 20 38 18 57 137 280 182 342 22 30 54 70 70 88 17 17
28 32 25 32 -3 0 -32 -28 -64 -63z"/>
</g>
</g>
<g transform="translate(0.000000,451.000000) scale(0.100000,-0.100000)"
fill="url(#grad_5)" stroke="none">
<g>
<path d="M2185 3870 c-180 -26 -405 -91 -477 -136 -21 -13 -40 -24 -43 -24 -4
0 -21 -11 -38 -24 -18 -13 -50 -33 -72 -44 -97 -49 -159 -273 -121 -436 69
-292 360 -518 781 -607 157 -33 440 -34 597 -1 261 54 466 157 613 307 128
130 176 238 182 410 l4 110 -37 39 c-72 74 -223 176 -374 251 -296 148 -673
206 -1015 155z"/>
</g>
</g>
<g transform="translate(0.000000,451.000000) scale(0.100000,-0.100000)"
fill="url(#grad_6)" stroke="none">
<g>
<path d="M2355 4053 c-138 -16 -206 -30 -305 -63 -135 -44 -218 -84 -315 -151
-74 -51 -223 -194 -213 -204 7 -8 62 19 105 51 17 13 34 24 38 24 3 0 22 11
43 23 75 48 296 110 482 137 456 66 909 -46 1276 -316 39 -29 86 -67 103 -86
l32 -33 -25 67 c-88 238 -391 458 -726 526 -130 27 -377 39 -495 25z"/>
</g>
</g>
<g transform="translate(0.000000,451.000000) scale(0.100000,-0.100000)"
fill="url(#grad_7)" stroke="none">
<g>
<path d="M878 1235 c-15 -9 -31 -30 -38 -49 -16 -49 9 -100 96 -200 106 -121
244 -238 420 -355 181 -121 313 -192 458 -245 219 -82 574 -152 638 -125 55
23 76 89 42 137 -23 33 -41 40 -140 52 -254 33 -525 120 -716 231 -201 117
-334 215 -460 337 -70 69 -139 142 -154 164 -44 63 -93 81 -146 53z"/>
</g>
</g>
<g transform="translate(0.000000,451.000000) scale(0.100000,-0.100000)"
fill="url(#grad_8)" stroke="none">
<g>
<path d="M4385 2002 c-47 -29 -54 -43 -85 -159 -56 -214 -140 -399 -276 -606
-35 -54 -64 -102 -64 -108 0 -25 33 -70 62 -85 54 -28 102 -14 165 48 139 135
273 405 349 701 22 84 24 106 15 137 -22 75 -104 111 -166 72z"/>
</g>
</g>
<g transform="translate(0.000000,451.000000) scale(0.100000,-0.100000)"
fill="url(#grad_9)" stroke="none">
<g>
<path d="M1935 4284 c-22 -8 -74 -24 -116 -34 -90 -23 -215 -85 -236 -116 -40
-62 -15 -142 54 -171 41 -17 33 -18 183 37 47 17 122 40 168 51 107 25 135 40
157 85 22 47 14 92 -25 129 -25 24 -40 29 -87 32 -35 1 -74 -3 -98 -13z"/>
</g>
</g>
<g transform="translate(0.000000,451.000000) scale(0.100000,-0.100000)"
fill="url(#grad_10)" stroke="none">
<g>
<path d="M2200 4345 c-58 -7 -134 -20 -170 -28 -98 -22 -263 -71 -253 -74 5
-2 49 9 99 24 56 18 112 28 151 28 55 0 65 -3 92 -29 39 -38 48 -83 26 -130
-22 -45 -50 -60 -157 -85 -46 -11 -121 -34 -168 -51 -150 -55 -142 -54 -183
-37 -48 20 -80 71 -73 116 8 54 30 75 118 119 46 23 78 42 72 42 -19 0 -107
-41 -139 -65 -17 -12 -65 -39 -107 -59 -130 -61 -343 -222 -480 -363 -175
-179 -347 -435 -423 -628 -15 -38 -36 -90 -47 -114 -11 -24 -21 -53 -22 -65
-1 -12 -5 -26 -8 -31 -13 -22 -68 -286 -79 -378 -17 -149 -7 -456 20 -592 12
-60 28 -130 35 -155 8 -25 14 -49 15 -55 4 -33 38 -130 76 -221 25 -57 45
-108 45 -112 0 -5 23 -46 50 -91 28 -45 50 -84 50 -87 0 -3 31 -51 69 -107
109 -162 307 -368 496 -513 94 -73 412 -246 474 -259 9 -2 54 -17 101 -34 99
-35 250 -74 258 -67 3 3 11 1 18 -4 6 -6 16 -10 20 -8 5 1 61 -4 125 -11 126
-15 535 -8 579 9 3 1 9 2 14 1 20 -4 189 41 316 84 286 97 537 249 763 464 76
73 125 129 273 316 70 90 244 450 269 562 2 10 11 47 20 82 23 95 13 97 -13 3
-69 -259 -205 -523 -335 -650 -63 -62 -111 -76 -165 -48 -29 15 -62 60 -62 85
0 6 29 54 64 108 136 207 220 392 276 607 18 66 37 118 51 132 87 93 221 21
205 -111 -4 -32 -2 -29 9 15 37 147 47 464 20 659 -20 143 -76 362 -120 470
-20 47 -36 90 -38 96 -10 42 -142 276 -213 377 -83 118 -242 287 -364 388 -30
25 -65 55 -79 68 -58 53 -298 193 -436 254 -80 35 -274 101 -356 122 -176 44
-549 58 -779 31z m518 -286 c210 -22 450 -96 652 -200 171 -89 287 -175 446
-334 247 -247 394 -507 474 -840 74 -305 68 -560 -20 -886 -48 -177 -93 -282
-195 -454 -80 -135 -119 -187 -220 -293 -216 -227 -463 -385 -752 -482 -672
-223 -1392 -54 -1888 444 -223 224 -372 475 -456 769 -81 279 -91 594 -28 867
82 359 250 654 516 910 140 135 263 222 438 310 197 99 417 166 621 189 103
12 302 12 412 0z"/>
</g>
</g>
<g transform="translate(0.000000,451.000000) scale(0.100000,-0.100000)"
fill="url(#grad_11)" stroke="none">
<g>
<path d="M3260 3867 c0 -2 21 -19 48 -37 126 -91 224 -209 268 -327 19 -49 39
-80 78 -119 219 -215 378 -501 460 -829 22 -86 46 -283 46 -373 0 -42 -5 -117
-10 -167 -9 -77 -17 -124 -45 -273 -2 -13 -9 -37 -14 -55 -6 -18 -20 -66 -32
-107 -23 -82 -81 -203 -136 -286 -20 -30 -34 -57 -31 -60 10 -9 86 88 138 176
72 122 112 207 144 304 9 26 21 57 27 69 6 11 17 52 25 91 7 39 19 89 26 111
8 28 12 115 13 280 0 277 -6 315 -87 565 -55 171 -82 235 -136 325 -129 218
-312 409 -530 553 -53 36 -122 81 -152 102 -59 39 -100 63 -100 57z"/>
</g>
</g>
</svg>
