<?xml version="1.0" standalone="no"?><!DOCTYPE svg PUBLIC "-//W3C//DTD SVG 20010904//EN" "http://www.w3.org/TR/2001/REC-SVG-20010904/DTD/svg10.dtd"><svg version="1.0" xmlns="http://www.w3.org/2000/svg" width="582pt" height="449pt" viewBox="0 0 582 449" preserveAspectRatio="xMidYMid meet"><defs><linearGradient id="linear-gradient-1-1" x1="0.00%" y1="0.00%" x2="120.62%" y2="46.85%"><stop offset="0%" style="stop-color:rgb(216,165,84);stop-opacity:0.998" /><stop offset="100%" style="stop-color:rgb(229,185,115);stop-opacity:0.998" /></linearGradient><linearGradient id="linear-gradient-2-1" x1="0.00%" y1="100.00%" x2="73.76%" y2="-13.78%"><stop offset="0%" style="stop-color:rgb(91,35,1);stop-opacity:0.311" /><stop offset="100%" style="stop-color:rgb(109,55,16);stop-opacity:0.417" /></linearGradient><linearGradient id="linear-gradient-2-2" x1="0.00%" y1="100.00%" x2="114.60%" y2="30.59%"><stop offset="0%" style="stop-color:rgb(52,40,13);stop-opacity:0.687" /><stop offset="100%" style="stop-color:rgb(0,0,0);stop-opacity:0.893" /></linearGradient><linearGradient id="linear-gradient-2-3" x1="0.00%" y1="100.00%" x2="0.00%" y2="0.00%"><stop offset="0%" style="stop-color:rgb(77,22,0);stop-opacity:0.250" /><stop offset="100%" style="stop-color:rgb(70,17,0);stop-opacity:0.330" /></linearGradient><linearGradient id="linear-gradient-2-4" x1="0.00%" y1="100.00%" x2="162.46%" y2="75.11%"><stop offset="0%" style="stop-color:rgb(46,37,10);stop-opacity:0.671" /><stop offset="100%" style="stop-color:rgb(0,0,0);stop-opacity:0.890" /></linearGradient><linearGradient id="linear-gradient-2-5" x1="0.00%" y1="100.00%" x2="181.37%" y2="75.08%"><stop offset="0%" style="stop-color:rgb(30,20,6);stop-opacity:0.741" /><stop offset="100%" style="stop-color:rgb(4,0,0);stop-opacity:0.842" /></linearGradient><linearGradient id="linear-gradient-2-6" x1="0.00%" y1="100.00%" x2="168.38%" y2="70.90%"><stop offset="0%" style="stop-color:rgb(35,22,2);stop-opacity:0.704" /><stop offset="100%" style="stop-color:rgb(0,0,0);stop-opacity:0.898" /></linearGradient><linearGradient id="linear-gradient-2-7" x1="0.00%" y1="100.00%" x2="184.99%" y2="53.11%"><stop offset="0%" style="stop-color:rgb(43,37,32);stop-opacity:0.670" /><stop offset="100%" style="stop-color:rgb(0,0,0);stop-opacity:0.915" /></linearGradient><linearGradient id="linear-gradient-2-8" x1="0.00%" y1="100.00%" x2="69.89%" y2="-13.11%"><stop offset="0%" style="stop-color:rgb(12,1,0);stop-opacity:0.801" /><stop offset="100%" style="stop-color:rgb(36,22,1);stop-opacity:0.811" /></linearGradient><linearGradient id="linear-gradient-2-9" x1="0.00%" y1="100.00%" x2="130.29%" y2="62.30%"><stop offset="0%" style="stop-color:rgb(16,5,0);stop-opacity:0.751" /><stop offset="100%" style="stop-color:rgb(30,18,5);stop-opacity:0.699" /></linearGradient><linearGradient id="linear-gradient-2-10" x1="0.00%" y1="100.00%" x2="173.42%" y2="20.64%"><stop offset="0%" style="stop-color:rgb(52,32,5);stop-opacity:0.750" /><stop offset="100%" style="stop-color:rgb(0,0,0);stop-opacity:0.846" /></linearGradient><linearGradient id="linear-gradient-2-11" x1="0.00%" y1="100.00%" x2="108.89%" y2="93.87%"><stop offset="0%" style="stop-color:rgb(24,14,3);stop-opacity:0.777" /><stop offset="100%" style="stop-color:rgb(14,4,0);stop-opacity:0.818" /></linearGradient><linearGradient id="linear-gradient-2-12" x1="0.00%" y1="100.00%" x2="52.16%" y2="-16.39%"><stop offset="0%" style="stop-color:rgb(21,13,3);stop-opacity:0.764" /><stop offset="100%" style="stop-color:rgb(0,0,0);stop-opacity:0.848" /></linearGradient><linearGradient id="linear-gradient-2-13" x1="0.00%" y1="100.00%" x2="23.82%" y2="-25.96%"><stop offset="0%" style="stop-color:rgb(255,255,250);stop-opacity:0.822" /><stop offset="100%" style="stop-color:rgb(255,255,247);stop-opacity:0.781" /></linearGradient><linearGradient id="linear-gradient-2-14" x1="0.00%" y1="100.00%" x2="0.00%" y2="0.00%"><stop offset="0%" style="stop-color:rgb(28,21,15);stop-opacity:0.736" /><stop offset="100%" style="stop-color:rgb(1,0,0);stop-opacity:0.841" /></linearGradient><linearGradient id="linear-gradient-2-15" x1="0.00%" y1="0.00%" x2="109.84%" y2="7.60%"><stop offset="0%" style="stop-color:rgb(253,241,176);stop-opacity:0.810" /><stop offset="100%" style="stop-color:rgb(253,238,158);stop-opacity:0.766" /></linearGradient><linearGradient id="linear-gradient-2-16" x1="0.00%" y1="0.00%" x2="92.51%" y2="114.69%"><stop offset="0%" style="stop-color:rgb(248,226,151);stop-opacity:0.820" /><stop offset="100%" style="stop-color:rgb(255,255,198);stop-opacity:0.732" /></linearGradient><linearGradient id="linear-gradient-3-1" x1="0.00%" y1="100.00%" x2="98.01%" y2="-8.89%"><stop offset="0%" style="stop-color:rgb(77,64,37);stop-opacity:0.675" /><stop offset="100%" style="stop-color:rgb(74,52,24);stop-opacity:0.724" /></linearGradient><linearGradient id="linear-gradient-3-2" x1="0.00%" y1="100.00%" x2="0.00%" y2="0.00%"><stop offset="0%" style="stop-color:rgb(38,23,3);stop-opacity:0.556" /><stop offset="100%" style="stop-color:rgb(32,18,0);stop-opacity:0.577" /></linearGradient><linearGradient id="linear-gradient-3-3" x1="0.00%" y1="100.00%" x2="0.00%" y2="-0.00%"><stop offset="0%" style="stop-color:rgb(59,47,27);stop-opacity:0.601" /><stop offset="100%" style="stop-color:rgb(68,47,18);stop-opacity:0.634" /></linearGradient><linearGradient id="linear-gradient-3-4" x1="0.00%" y1="0.00%" x2="87.82%" y2="118.52%"><stop offset="0%" style="stop-color:rgb(16,10,6);stop-opacity:0.500" /><stop offset="100%" style="stop-color:rgb(30,13,0);stop-opacity:0.554" /></linearGradient><linearGradient id="linear-gradient-3-5" x1="0.00%" y1="100.00%" x2="0.00%" y2="-0.00%"><stop offset="0%" style="stop-color:rgb(228,12,4);stop-opacity:0.640" /><stop offset="100%" style="stop-color:rgb(226,4,0);stop-opacity:0.669" /></linearGradient><linearGradient id="linear-gradient-3-6" x1="0.00%" y1="100.00%" x2="64.94%" y2="-13.32%"><stop offset="0%" style="stop-color:rgb(207,147,67);stop-opacity:0.754" /><stop offset="100%" style="stop-color:rgb(209,152,74);stop-opacity:0.806" /></linearGradient><linearGradient id="linear-gradient-3-7" x1="0.00%" y1="100.00%" x2="245.37%" y2="14.83%"><stop offset="0%" style="stop-color:rgb(198,129,47);stop-opacity:0.628" /><stop offset="100%" style="stop-color:rgb(201,135,54);stop-opacity:0.659" /></linearGradient><linearGradient id="linear-gradient-3-8" x1="0.00%" y1="100.00%" x2="140.19%" y2="8.66%"><stop offset="0%" style="stop-color:rgb(202,136,55);stop-opacity:0.684" /><stop offset="100%" style="stop-color:rgb(205,142,61);stop-opacity:0.713" /></linearGradient><linearGradient id="linear-gradient-3-9" x1="0.00%" y1="100.00%" x2="122.16%" y2="4.74%"><stop offset="0%" style="stop-color:rgb(195,124,42);stop-opacity:0.586" /><stop offset="100%" style="stop-color:rgb(198,129,48);stop-opacity:0.613" /></linearGradient><linearGradient id="linear-gradient-3-10" x1="0.00%" y1="100.00%" x2="66.00%" y2="-13.95%"><stop offset="0%" style="stop-color:rgb(189,113,31);stop-opacity:0.515" /><stop offset="100%" style="stop-color:rgb(192,117,34);stop-opacity:0.535" /></linearGradient><linearGradient id="linear-gradient-3-11" x1="0.00%" y1="100.00%" x2="73.88%" y2="-12.19%"><stop offset="0%" style="stop-color:rgb(206,147,68);stop-opacity:0.782" /><stop offset="100%" style="stop-color:rgb(211,152,72);stop-opacity:0.808" /></linearGradient></defs><g id="layer-1"><path d="M1552 4460 c-23 -10 -67 -43 -98 -72 l-56 -53 -167 3 c-199 5 -311 -11 -481 -69 l-115 -38 -45 43 c-76 74 -120 91 -230 91 -79 0 -102 -4 -136 -22 -94 -50 -144 -114 -170 -215 -23 -90 -1 -202 55 -268 l28 -34 -37 -81 c-21 -44 -49 -118 -64 -163 -24 -77 -26 -96 -26 -270 0 -396 65 -573 359 -981 167 -232 213 -336 350 -787 156 -518 259 -801 378 -1039 140 -281 256 -409 429 -471 55 -20 84 -24 188 -24 146 0 198 15 321 89 253 154 436 209 725 218 148 4 193 2 296 -15 211 -36 352 -90 524 -198 126 -79 178 -94 326 -94 198 0 283 40 451 213 167 172 334 412 462 666 87 173 117 249 151 386 46 181 80 469 80 676 l0 89 48 0 c119 1 268 60 401 161 155 116 239 243 286 433 23 91 25 117 25 327 0 236 -6 290 -51 444 -71 241 -199 371 -345 351 -61 -8 -105 -36 -132 -84 -29 -51 -28 -78 8 -252 38 -184 40 -306 8 -400 -18 -55 -33 -77 -102 -146 -65 -65 -92 -85 -135 -99 -60 -19 -118 -16 -157 10 -26 17 -32 25 -133 180 -271 414 -735 576 -1532 535 -280 -14 -482 -9 -575 16 -126 32 -199 90 -384 299 -73 83 -154 173 -180 200 -46 48 -48 53 -53 120 -8 100 -39 174 -100 242 -75 82 -126 103 -252 103 -77 0 -110 -5 -143 -20z" fill="url(#linear-gradient-1-1)" id="region-1-1" transform="translate(0.000000,449.000000) scale(0.100000,-0.100000)"/></g><g id="layer-2"><path d="M1564 4361 c-48 -22 -80 -59 -96 -113 -9 -32 -9 -44 5 -73 13 -28 33 -42 112 -80 123 -58 181 -73 221 -54 79 38 86 197 11 277 -57 62 -170 81 -253 43z" fill="url(#linear-gradient-2-1)" id="region-2-1" transform="translate(0.000000,449.000000) scale(0.100000,-0.100000)"/><path d="M906 4275 c-32 -13 -73 -38 -90 -54 -18 -18 -55 -38 -86 -47 -111 -32 -250 -127 -250 -170 0 -17 7 -17 137 2 l43 7 -11 -31 c-9 -27 -20 -33 -94 -56 -99 -31 -145 -65 -145 -106 0 -36 23 -44 82 -31 95 22 116 21 122 -2 3 -12 6 -32 6 -44 0 -13 9 -32 20 -43 42 -42 114 -14 175 71 l37 49 108 0 c85 0 112 3 124 16 19 18 20 28 5 55 -11 22 -102 69 -132 69 -16 0 -16 2 -3 28 33 59 26 57 180 62 123 4 147 8 165 24 12 11 21 27 21 36 0 40 -81 83 -180 96 -28 4 -50 8 -50 10 0 2 5 14 11 28 19 41 -2 56 -75 56 -41 0 -80 -8 -120 -25z" fill="url(#linear-gradient-2-2)" id="region-2-2" transform="translate(0.000000,449.000000) scale(0.100000,-0.100000)"/><path d="M227 4245 c-124 -44 -171 -220 -85 -312 32 -34 60 -28 130 25 35 27 91 67 124 90 88 59 97 98 39 155 -55 54 -132 70 -208 42z" fill="url(#linear-gradient-2-3)" id="region-2-3" transform="translate(0.000000,449.000000) scale(0.100000,-0.100000)"/><path d="M1707 3782 c-28 -31 -19 -64 41 -147 61 -85 117 -193 148 -285 28 -82 26 -273 -5 -355 -44 -121 -137 -231 -274 -322 -101 -67 -127 -92 -127 -123 0 -61 73 -81 201 -55 254 51 473 250 520 472 48 233 -115 622 -328 782 -59 44 -74 51 -114 51 -32 0 -51 -6 -62 -18z" fill="url(#linear-gradient-2-4)" id="region-2-4" transform="translate(0.000000,449.000000) scale(0.100000,-0.100000)"/><path d="M1512 3608 c-28 -14 -39 -53 -24 -87 6 -14 23 -55 38 -91 39 -92 44 -192 13 -295 -26 -88 -20 -122 24 -143 59 -28 131 18 178 114 21 43 24 63 24 159 0 104 -2 114 -32 175 -52 106 -128 181 -180 179 -10 0 -28 -5 -41 -11z" fill="url(#linear-gradient-2-5)" id="region-2-5" transform="translate(0.000000,449.000000) scale(0.100000,-0.100000)"/><path d="M2553 3537 c3 -7 13 -51 22 -98 13 -65 16 -115 12 -224 -5 -165 -25 -240 -112 -439 -64 -149 -68 -182 -26 -247 55 -87 151 -118 267 -84 78 22 135 81 191 195 81 168 114 323 114 535 -1 93 -7 168 -18 225 l-18 85 -55 3 c-135 6 -263 23 -312 42 -62 23 -72 25 -65 7z" fill="url(#linear-gradient-2-6)" id="region-2-6" transform="translate(0.000000,449.000000) scale(0.100000,-0.100000)"/><path d="M3287 3503 c-31 -4 -37 -7 -32 -21 27 -70 37 -144 42 -312 8 -251 -15 -405 -92 -629 -31 -93 -32 -133 0 -187 18 -31 39 -50 80 -70 49 -24 64 -26 133 -22 162 9 249 103 330 358 79 250 90 543 29 786 l-22 89 -75 6 c-82 7 -333 8 -393 2z" fill="url(#linear-gradient-2-7)" id="region-2-7" transform="translate(0.000000,449.000000) scale(0.100000,-0.100000)"/><path d="M5333 3471 c-24 -4 -44 -9 -47 -12 -2 -2 5 -44 15 -94 10 -49 19 -118 19 -152 l0 -63 45 0 c59 0 142 18 188 42 102 51 112 200 19 263 -32 22 -47 25 -117 24 -44 -1 -99 -5 -122 -8z" fill="url(#linear-gradient-2-8)" id="region-2-8" transform="translate(0.000000,449.000000) scale(0.100000,-0.100000)"/><path d="M1114 3431 c-32 -14 -64 -60 -64 -93 0 -61 45 -108 105 -108 92 0 138 116 71 179 -26 25 -80 35 -112 22z" fill="url(#linear-gradient-2-9)" id="region-2-9" transform="translate(0.000000,449.000000) scale(0.100000,-0.100000)"/><path d="M4066 3418 c60 -190 67 -497 14 -702 -11 -43 -35 -116 -55 -164 -19 -47 -35 -97 -35 -109 0 -116 133 -165 278 -103 61 26 90 62 143 174 45 96 74 209 90 351 18 164 -10 383 -53 419 -56 45 -317 156 -369 156 -17 0 -19 -4 -13 -22z" fill="url(#linear-gradient-2-10)" id="region-2-10" transform="translate(0.000000,449.000000) scale(0.100000,-0.100000)"/><path d="M205 3381 c-39 -17 -60 -51 -60 -98 0 -38 5 -49 33 -74 70 -63 172 -16 172 80 0 63 -86 118 -145 92z" fill="url(#linear-gradient-2-11)" id="region-2-11" transform="translate(0.000000,449.000000) scale(0.100000,-0.100000)"/><path d="M585 3241 c-74 -18 -95 -44 -95 -119 0 -57 27 -104 80 -140 29 -20 45 -23 90 -20 64 5 96 24 134 83 35 53 37 132 3 163 -41 38 -131 52 -212 33z" fill="url(#linear-gradient-2-12)" id="region-2-12" transform="translate(0.000000,449.000000) scale(0.100000,-0.100000)"/><path d="M790 3036 c-33 -47 -68 -69 -121 -74 -60 -6 -100 10 -140 55 l-30 35 -54 -22 c-103 -42 -185 -140 -185 -221 0 -80 43 -165 98 -193 39 -19 111 -27 156 -17 30 7 44 6 60 -5 25 -17 119 -19 149 -2 14 8 57 11 119 9 81 -2 104 1 145 19 54 24 98 61 119 102 19 36 18 122 -2 164 -34 72 -132 140 -246 169 -47 13 -47 13 -68 -19z" fill="url(#linear-gradient-2-13)" id="region-2-13" transform="translate(0.000000,449.000000) scale(0.100000,-0.100000)"/><path d="M5174 2855 c-69 -71 -137 -101 -205 -92 -21 3 -39 3 -39 0 0 -3 15 -32 32 -66 69 -129 190 -222 302 -234 43 -5 64 -1 100 17 86 41 101 128 42 234 -36 64 -144 198 -161 201 -5 1 -37 -26 -71 -60z" fill="url(#linear-gradient-2-14)" id="region-2-14" transform="translate(0.000000,449.000000) scale(0.100000,-0.100000)"/><path d="M3990 2232 c-32 -17 -60 -57 -74 -104 -4 -13 -16 -18 -46 -18 -140 0 -200 -166 -95 -259 35 -30 35 -31 23 -75 -10 -40 -10 -51 8 -93 26 -64 70 -93 139 -93 38 0 61 6 87 24 l34 23 28 -23 c21 -19 39 -24 83 -24 67 0 114 25 137 74 18 38 21 108 7 135 -8 14 -4 21 21 35 32 20 68 85 68 126 0 77 -72 150 -147 150 -37 0 -40 2 -60 49 -26 62 -69 91 -133 91 -25 0 -61 -8 -80 -18z" fill="url(#linear-gradient-2-15)" id="region-2-15" transform="translate(0.000000,449.000000) scale(0.100000,-0.100000)"/><path d="M2893 1980 c-23 -5 -55 -15 -70 -24 -38 -19 -101 -89 -108 -119 -6 -24 -8 -24 -101 -19 -74 4 -104 1 -140 -13 -90 -34 -147 -106 -160 -202 l-6 -50 -62 -5 c-142 -12 -229 -103 -230 -243 0 -81 23 -135 76 -180 103 -87 231 -94 443 -23 165 55 265 71 435 72 171 1 258 -13 427 -65 137 -42 233 -55 304 -40 138 29 219 120 219 245 0 144 -104 246 -250 246 l-47 0 -6 51 c-12 98 -84 182 -182 209 -44 12 -142 10 -191 -5 -17 -5 -23 -2 -27 18 -10 37 -82 113 -125 130 -50 20 -145 28 -199 17z" fill="url(#linear-gradient-2-16)" id="region-2-16" transform="translate(0.000000,449.000000) scale(0.100000,-0.100000)"/></g><g id="layer-3"><path d="M1010 2953 c-54 -9 -119 -35 -124 -50 -11 -26 2 -28 57 -8 30 11 80 19 117 19 50 1 65 4 65 16 0 22 -54 33 -115 23z" fill="url(#linear-gradient-3-1)" id="region-3-1" transform="translate(0.000000,449.000000) scale(0.100000,-0.100000)"/><path d="M197 2920 c-29 -18 -9 -30 48 -30 31 0 78 -9 107 -20 64 -24 78 -25 78 -4 0 37 -188 81 -233 54z" fill="url(#linear-gradient-3-2)" id="region-3-2" transform="translate(0.000000,449.000000) scale(0.100000,-0.100000)"/><path d="M912 2813 c2 -12 17 -20 44 -24 59 -11 105 -32 147 -69 20 -17 41 -29 47 -25 50 31 -109 135 -206 135 -28 0 -35 -4 -32 -17z" fill="url(#linear-gradient-3-3)" id="region-3-3" transform="translate(0.000000,449.000000) scale(0.100000,-0.100000)"/><path d="M276 2784 c-38 -14 -104 -57 -118 -78 -12 -17 -9 -36 4 -36 6 0 25 11 42 24 47 35 90 55 146 67 31 7 50 16 50 25 0 19 -71 18 -124 -2z" fill="url(#linear-gradient-3-4)" id="region-3-4" transform="translate(0.000000,449.000000) scale(0.100000,-0.100000)"/><path d="M592 2653 l-43 -41 23 -16 c29 -21 119 -21 158 -1 17 9 30 18 30 20 0 3 -17 12 -37 20 -21 9 -49 26 -63 38 l-25 22 -43 -42z" fill="url(#linear-gradient-3-5)" id="region-3-5" transform="translate(0.000000,449.000000) scale(0.100000,-0.100000)"/><path d="M4041 2086 c-12 -14 -5 -46 10 -46 5 0 9 -27 9 -61 0 -49 -3 -60 -14 -56 -8 3 -33 11 -55 17 -22 6 -46 20 -52 31 -15 30 -54 22 -54 -11 0 -22 4 -25 35 -23 32 2 130 -23 130 -33 0 -16 -65 -90 -83 -94 -15 -4 -22 -14 -22 -30 0 -20 5 -25 25 -25 20 0 26 6 28 29 4 30 48 106 62 106 14 0 72 -80 67 -92 -7 -20 12 -48 33 -48 19 0 36 32 25 50 -3 5 -15 10 -25 10 -16 0 -80 75 -80 93 0 13 99 37 127 31 23 -4 32 -2 37 11 7 20 -10 45 -30 45 -7 0 -19 -8 -26 -18 -10 -14 -94 -52 -115 -52 -2 0 -3 26 -3 57 0 38 5 62 16 75 14 14 14 20 4 33 -16 19 -34 19 -49 1z" fill="url(#linear-gradient-3-6)" id="region-3-6" transform="translate(0.000000,449.000000) scale(0.100000,-0.100000)"/><path d="M2932 1665 c-7 -14 -12 -49 -12 -78 1 -97 36 -305 50 -291 27 30 53 332 31 372 -16 31 -55 29 -69 -3z" fill="url(#linear-gradient-3-7)" id="region-3-7" transform="translate(0.000000,449.000000) scale(0.100000,-0.100000)"/><path d="M3232 1587 c-12 -12 -28 -43 -37 -67 -22 -62 -55 -200 -55 -230 l1 -25 24 30 c37 45 136 245 133 268 -2 11 -12 26 -24 33 -18 13 -23 11 -42 -9z" fill="url(#linear-gradient-3-8)" id="region-3-8" transform="translate(0.000000,449.000000) scale(0.100000,-0.100000)"/><path d="M2646 1584 c-19 -19 -14 -48 22 -119 20 -41 104 -179 118 -194 37 -40 -37 252 -77 303 -23 30 -41 33 -63 10z" fill="url(#linear-gradient-3-9)" id="region-3-9" transform="translate(0.000000,449.000000) scale(0.100000,-0.100000)"/><path d="M2410 1425 c-19 -23 -2 -53 53 -94 73 -55 157 -104 164 -97 9 9 -107 146 -151 178 -45 32 -49 33 -66 13z" fill="url(#linear-gradient-3-10)" id="region-3-10" transform="translate(0.000000,449.000000) scale(0.100000,-0.100000)"/><path d="M3409 1373 c-69 -73 -114 -131 -106 -139 6 -7 177 109 205 139 30 31 26 61 -8 65 -21 2 -39 -11 -91 -65z" fill="url(#linear-gradient-3-11)" id="region-3-11" transform="translate(0.000000,449.000000) scale(0.100000,-0.100000)"/></g></svg>