<?xml version="1.0" standalone="no"?><!DOCTYPE svg PUBLIC "-//W3C//DTD SVG 20010904//EN" "http://www.w3.org/TR/2001/REC-SVG-20010904/DTD/svg10.dtd"><svg version="1.0" xmlns="http://www.w3.org/2000/svg" width="640pt" height="640pt" viewBox="0 0 640 640" preserveAspectRatio="xMidYMid meet"><defs><linearGradient id="linear-gradient-1-1" x1="0.00%" y1="100.00%" x2="158.34%" y2="19.34%"><stop offset="0%" style="stop-color:rgb(200,207,93);stop-opacity:1.000" /><stop offset="100%" style="stop-color:rgb(141,159,0);stop-opacity:1.000" /></linearGradient><linearGradient id="linear-gradient-1-2" x1="0.00%" y1="100.00%" x2="0.00%" y2="-0.00%"><stop offset="0%" style="stop-color:rgb(83,97,0);stop-opacity:1.000" /><stop offset="100%" style="stop-color:rgb(121,132,28);stop-opacity:1.000" /></linearGradient><linearGradient id="linear-gradient-1-3" x1="0.00%" y1="0.00%" x2="144.13%" y2="65.57%"><stop offset="0%" style="stop-color:rgb(206,226,72);stop-opacity:1.000" /><stop offset="100%" style="stop-color:rgb(85,105,0);stop-opacity:1.000" /></linearGradient><linearGradient id="linear-gradient-1-4" x1="0.00%" y1="100.00%" x2="23.54%" y2="-19.38%"><stop offset="0%" style="stop-color:rgb(209,55,63);stop-opacity:1.000" /><stop offset="100%" style="stop-color:rgb(169,0,0);stop-opacity:1.000" /></linearGradient><linearGradient id="linear-gradient-2-1" x1="0.00%" y1="100.00%" x2="130.12%" y2="6.83%"><stop offset="0%" style="stop-color:rgb(81,119,0);stop-opacity:0.361" /><stop offset="100%" style="stop-color:rgb(155,155,41);stop-opacity:0.938" /></linearGradient><linearGradient id="linear-gradient-2-2" x1="0.00%" y1="100.00%" x2="146.46%" y2="26.34%"><stop offset="0%" style="stop-color:rgb(177,197,44);stop-opacity:0.792" /><stop offset="100%" style="stop-color:rgb(221,241,88);stop-opacity:0.808" /></linearGradient><linearGradient id="linear-gradient-2-3" x1="0.00%" y1="100.00%" x2="0.00%" y2="-0.00%"><stop offset="0%" style="stop-color:rgb(134,149,29);stop-opacity:0.804" /><stop offset="100%" style="stop-color:rgb(92,115,0);stop-opacity:0.373" /></linearGradient><linearGradient id="linear-gradient-2-4" x1="0.00%" y1="100.00%" x2="44.95%" y2="-33.06%"><stop offset="0%" style="stop-color:rgb(111,9,10);stop-opacity:0.682" /><stop offset="100%" style="stop-color:rgb(98,0,0);stop-opacity:0.744" /></linearGradient><linearGradient id="linear-gradient-2-5" x1="0.00%" y1="100.00%" x2="64.28%" y2="-118.89%"><stop offset="0%" style="stop-color:rgb(255,148,147);stop-opacity:0.708" /><stop offset="100%" style="stop-color:rgb(255,185,183);stop-opacity:0.853" /></linearGradient><linearGradient id="linear-gradient-2-6" x1="0.00%" y1="100.00%" x2="105.28%" y2="42.29%"><stop offset="0%" style="stop-color:rgb(127,0,0);stop-opacity:0.754" /><stop offset="100%" style="stop-color:rgb(108,0,1);stop-opacity:0.829" /></linearGradient><linearGradient id="linear-gradient-2-7" x1="0.00%" y1="100.00%" x2="122.46%" y2="57.72%"><stop offset="0%" style="stop-color:rgb(232,68,73);stop-opacity:0.806" /><stop offset="100%" style="stop-color:rgb(255,102,107);stop-opacity:0.796" /></linearGradient><linearGradient id="linear-gradient-2-8" x1="0.00%" y1="100.00%" x2="0.00%" y2="-0.00%"><stop offset="0%" style="stop-color:rgb(249,99,103);stop-opacity:0.790" /><stop offset="100%" style="stop-color:rgb(249,103,107);stop-opacity:0.801" /></linearGradient><linearGradient id="linear-gradient-3-1" x1="0.00%" y1="100.00%" x2="14.56%" y2="-21.56%"><stop offset="0%" style="stop-color:rgb(255,255,255);stop-opacity:0.852" /><stop offset="100%" style="stop-color:rgb(255,255,255);stop-opacity:0.904" /></linearGradient></defs><g id="layer-1"><path d="M3434 6011 l-41 -19 -7 -103 c-3 -57 -12 -124 -20 -149 -36 -120 -142 -310 -336 -600 -140 -210 -201 -313 -280 -470 -180 -359 -283 -681 -366 -1140 -69 -380 -72 -680 -10 -895 8 -31 19 -44 49 -58 36 -18 39 -18 88 -1 42 16 50 22 45 39 -3 11 -15 54 -26 95 -18 66 -21 106 -23 340 -2 237 0 279 21 394 43 245 107 468 207 721 144 363 232 518 513 900 190 257 268 381 314 497 25 64 67 142 111 208 38 58 70 113 69 124 -2 29 -31 55 -103 92 -86 43 -150 51 -205 25z" fill="url(#linear-gradient-1-1)" id="region-1-1" transform="translate(0.000000,640.000000) scale(0.100000,-0.100000)"/><path d="M3658 5750 c-41 -63 -57 -98 -62 -135 -3 -27 -11 -90 -17 -140 -12 -94 -7 -257 12 -392 10 -77 44 -212 59 -242 5 -9 21 -53 36 -98 15 -46 29 -81 31 -79 2 2 -5 39 -16 82 -30 124 -44 221 -45 329 -1 96 1 104 33 168 19 37 36 65 38 63 2 -2 21 -48 42 -102 28 -74 61 -133 130 -232 l92 -132 -11 -53 c-15 -65 0 -178 33 -251 l22 -48 -3 153 -4 154 104 -100 c56 -56 121 -115 144 -133 39 -30 41 -34 43 -89 3 -111 29 -206 84 -307 28 -52 53 -93 55 -91 2 2 -11 34 -29 72 -17 37 -38 88 -45 112 -14 44 -20 202 -8 214 3 3 70 -45 148 -108 l141 -113 19 -84 c18 -83 90 -267 133 -343 33 -57 28 -35 -7 34 -16 33 -39 92 -51 133 -21 72 -40 208 -29 208 13 0 152 -134 236 -229 89 -100 91 -104 83 -139 -5 -25 0 -84 19 -196 27 -160 27 -161 30 -91 3 61 -2 117 -24 265 -7 46 159 -264 181 -338 14 -45 14 -66 5 -130 -10 -66 -21 -109 -65 -247 -3 -11 5 3 18 30 13 28 34 88 48 134 23 82 24 83 32 50 4 -19 12 -48 18 -65 23 -76 -10 -275 -69 -414 -33 -78 -141 -266 -180 -315 -9 -11 2 -2 25 19 23 22 40 43 38 47 -3 4 1 9 8 12 27 10 136 178 170 263 68 167 80 234 81 464 0 232 -8 285 -75 477 -50 142 -144 308 -246 435 -69 86 -128 138 -523 463 -453 373 -534 446 -622 570 -94 132 -138 239 -178 435 l-27 135 -55 -85z" fill="url(#linear-gradient-1-2)" id="region-1-2" transform="translate(0.000000,640.000000) scale(0.100000,-0.100000)"/><path d="M3689 5243 c-32 -64 -34 -72 -33 -168 1 -108 15 -205 45 -329 11 -43 18 -80 16 -82 -2 -2 -14 27 -28 65 -13 39 -25 68 -27 66 -8 -8 39 -136 91 -246 118 -249 312 -483 572 -692 216 -172 358 -316 469 -472 51 -71 102 -146 113 -165 27 -46 118 -292 132 -355 27 -125 29 -245 6 -344 -11 -44 21 -5 93 113 91 151 129 241 158 374 26 120 30 187 15 236 -6 17 -14 46 -18 65 -8 33 -9 32 -32 -50 -14 -46 -35 -106 -48 -134 -13 -27 -21 -41 -18 -30 44 138 55 181 65 247 9 64 9 85 -5 130 -22 74 -188 384 -181 338 22 -148 27 -204 24 -265 -3 -70 -3 -69 -30 91 -19 112 -24 171 -19 196 8 35 6 39 -83 139 -84 95 -223 229 -236 229 -11 0 8 -136 29 -208 12 -41 35 -100 51 -133 35 -69 40 -91 7 -34 -43 76 -115 260 -133 343 l-19 84 -141 113 c-78 63 -145 111 -148 108 -12 -12 -6 -170 8 -214 7 -24 28 -75 45 -112 18 -38 31 -70 29 -72 -2 -2 -27 39 -55 91 -55 101 -81 196 -84 307 -2 55 -4 59 -43 89 -23 18 -88 77 -144 133 l-104 100 4 -154 3 -153 -22 48 c-33 73 -48 186 -33 251 l11 53 -92 132 c-69 99 -102 158 -130 232 -21 54 -40 100 -42 102 -2 2 -19 -26 -38 -63z" fill="url(#linear-gradient-1-3)" id="region-1-3" transform="translate(0.000000,640.000000) scale(0.100000,-0.100000)"/><path d="M1889 2906 c-2 -3 -26 -7 -54 -11 -110 -13 -286 -82 -401 -157 -64 -42 -234 -194 -234 -210 0 -4 -11 -19 -24 -33 -64 -69 -143 -270 -167 -425 -16 -105 -5 -349 21 -475 48 -229 190 -573 308 -746 174 -255 409 -400 737 -454 292 -48 885 27 1124 142 144 69 301 255 426 503 187 372 269 729 236 1018 -32 270 -133 497 -289 644 -82 77 -148 117 -257 154 -114 39 -270 39 -530 1 -104 -15 -210 -30 -234 -33 l-43 -6 7 -46 c4 -26 15 -73 26 -104 10 -32 19 -61 19 -66 0 -4 -22 -16 -50 -26 -48 -17 -51 -17 -87 1 -43 20 -52 43 -74 176 -7 42 -16 81 -19 86 -16 27 -420 88 -441 67z" fill="url(#linear-gradient-1-4)" id="region-1-4" transform="translate(0.000000,640.000000) scale(0.100000,-0.100000)"/></g><g id="layer-2"><path d="M3607 5924 c-8 -92 -54 -219 -149 -409 -77 -154 -155 -278 -286 -454 -349 -470 -607 -983 -687 -1371 -35 -166 -38 -491 -9 -917 3 -50 3 -101 -1 -113 -6 -20 -12 -22 -56 -16 -33 5 -49 3 -49 -4 0 -25 24 -53 57 -66 32 -14 40 -13 85 3 41 15 49 21 44 38 -3 11 -15 54 -26 95 -18 66 -21 106 -23 340 -2 237 0 279 21 394 43 245 107 468 207 721 144 363 232 518 513 900 190 257 268 381 314 497 25 64 67 142 111 208 38 58 70 113 69 124 -1 26 -30 55 -83 82 l-46 23 -6 -75z" fill="url(#linear-gradient-2-1)" id="region-2-1" transform="translate(0.000000,640.000000) scale(0.100000,-0.100000)"/><path d="M3441 5924 c-6 -22 -11 -52 -11 -69 0 -35 -31 -167 -55 -240 -31 -89 -92 -201 -159 -290 -89 -115 -269 -385 -258 -385 5 0 45 46 89 103 252 323 338 469 403 687 37 124 42 192 18 216 -15 16 -17 14 -27 -22z" fill="url(#linear-gradient-2-2)" id="region-2-2" transform="translate(0.000000,640.000000) scale(0.100000,-0.100000)"/><path d="M3658 5750 c-41 -63 -57 -98 -62 -135 -3 -27 -11 -90 -17 -140 -12 -94 -7 -257 12 -392 10 -77 44 -212 59 -242 5 -9 21 -53 36 -98 15 -46 29 -81 31 -79 2 2 -5 39 -16 82 -30 124 -44 221 -45 329 -1 96 1 104 33 168 19 37 36 65 38 63 2 -2 21 -48 42 -102 28 -74 61 -133 130 -232 l92 -132 -11 -53 c-15 -65 0 -178 33 -251 l22 -48 -3 153 -4 154 104 -100 c56 -56 121 -115 144 -133 39 -30 41 -34 43 -89 3 -111 29 -206 84 -307 28 -52 53 -93 55 -91 2 2 -11 34 -29 72 -17 37 -38 88 -45 112 -14 44 -20 202 -8 214 3 3 70 -45 148 -108 l141 -113 19 -84 c18 -83 90 -267 133 -343 33 -57 28 -35 -7 34 -16 33 -39 92 -51 133 -21 72 -40 208 -29 208 13 0 152 -134 236 -229 89 -100 91 -104 83 -139 -5 -25 0 -84 19 -196 27 -160 27 -161 30 -91 3 61 -2 117 -24 265 -7 46 159 -264 181 -338 14 -45 14 -66 5 -130 -10 -66 -21 -109 -65 -247 -3 -11 5 3 18 30 13 28 34 87 47 132 13 46 25 81 27 79 2 -2 8 -23 13 -47 8 -38 9 -33 5 30 -8 113 -90 334 -171 463 -39 61 -41 67 -23 71 11 3 34 1 52 -4 l31 -9 -21 21 c-12 13 -39 23 -66 26 -44 5 -50 10 -122 95 -41 49 -121 128 -178 175 -56 47 -103 88 -105 92 -4 11 106 32 145 27 21 -3 29 -3 18 0 -11 3 -24 10 -29 15 -16 15 -119 11 -143 -6 -20 -14 -28 -9 -157 98 l-136 112 27 24 c23 20 34 23 82 18 l56 -5 -40 14 c-24 9 -70 14 -116 13 -70 -2 -80 0 -121 29 -25 17 -82 71 -128 119 l-82 88 34 8 c18 5 69 7 113 4 91 -6 86 -2 -42 42 -105 35 -125 37 -143 16 -18 -22 -27 -12 -121 129 -77 114 -137 242 -152 322 -6 32 4 48 45 77 17 11 16 17 -13 92 -17 44 -44 141 -59 215 l-27 135 -55 -85z" fill="url(#linear-gradient-2-3)" id="region-2-3" transform="translate(0.000000,640.000000) scale(0.100000,-0.100000)"/><path d="M2531 2823 c-21 -4 -23 -8 -16 -51 4 -26 15 -73 26 -104 24 -73 24 -75 -7 -82 -15 -4 -24 -9 -21 -12 8 -9 142 32 252 75 l100 40 -70 -6 c-101 -8 -195 22 -195 62 0 7 11 29 25 49 l24 36 -47 -1 c-26 -1 -58 -4 -71 -6z" fill="url(#linear-gradient-2-4)" id="region-2-4" transform="translate(0.000000,640.000000) scale(0.100000,-0.100000)"/><path d="M2008 2732 c152 -181 299 -253 472 -231 84 10 236 59 318 101 65 35 174 110 167 116 -2 3 -72 -21 -155 -53 -377 -142 -451 -138 -709 34 -133 89 -143 93 -93 33z" fill="url(#linear-gradient-2-5)" id="region-2-5" transform="translate(0.000000,640.000000) scale(0.100000,-0.100000)"/><path d="M2025 2753 c20 -20 162 -111 213 -137 56 -29 151 -56 192 -56 24 1 24 1 -7 15 -38 16 -51 38 -61 107 -9 60 -10 61 -102 34 -60 -17 -140 -21 -155 -8 -15 14 -91 56 -80 45z" fill="url(#linear-gradient-2-6)" id="region-2-6" transform="translate(0.000000,640.000000) scale(0.100000,-0.100000)"/><path d="M1623 2435 c-86 -43 -144 -104 -186 -193 -26 -58 -30 -79 -31 -157 -1 -79 2 -97 27 -147 61 -124 205 -179 336 -129 116 44 212 152 256 289 23 68 16 170 -13 228 -45 89 -147 144 -265 144 -42 0 -70 -8 -124 -35z" fill="url(#linear-gradient-2-7)" id="region-2-7" transform="translate(0.000000,640.000000) scale(0.100000,-0.100000)"/><path d="M2315 2148 c-31 -18 -44 -40 -45 -74 0 -73 91 -89 126 -23 18 35 10 74 -19 94 -25 18 -35 18 -62 3z" fill="url(#linear-gradient-2-8)" id="region-2-8" transform="translate(0.000000,640.000000) scale(0.100000,-0.100000)"/></g><g id="layer-3"><path d="M1585 2266 c-17 -7 -45 -30 -63 -50 -39 -45 -45 -109 -12 -144 63 -67 244 -106 335 -72 177 67 40 281 -179 280 -28 -1 -65 -7 -81 -14z" fill="url(#linear-gradient-3-1)" id="region-3-1" transform="translate(0.000000,640.000000) scale(0.100000,-0.100000)"/></g></svg>