<?xml version="1.0" standalone="no"?>
<!DOCTYPE svg PUBLIC "-//W3C//DTD SVG 20010904//EN"
 "http://www.w3.org/TR/2001/REC-SVG-20010904/DTD/svg10.dtd">
<svg version="1.0" xmlns="http://www.w3.org/2000/svg"
 width="640.000000pt" height="640.000000pt" viewBox="0 0 640.000000 640.000000"
 preserveAspectRatio="xMidYMid meet">
<defs>
<linearGradient id="grad_0" x1="0%" y1="100%" x2="100%" y2="100%">
<stop offset="0%" style="stop-color:rgb(254, 254, 254); stop-opacity:1"/>
<stop offset="100%" style="stop-color:rgb(254, 254, 254); stop-opacity:1"/>
</linearGradient>
<linearGradient id="grad_1" x1="80%" y1="8%" x2="13%" y2="92%">
<stop offset="0%" style="stop-color:rgb(130, 0, 2); stop-opacity:1"/>
<stop offset="100%" style="stop-color:rgb(235, 10, 17); stop-opacity:1"/>
</linearGradient>
<linearGradient id="grad_2" x1="0%" y1="49%" x2="100%" y2="49%">
<stop offset="0%" style="stop-color:rgb(238, 70, 76); stop-opacity:1"/>
<stop offset="100%" style="stop-color:rgb(238, 70, 76); stop-opacity:1"/>
</linearGradient>
<linearGradient id="grad_3" x1="0%" y1="64%" x2="100%" y2="64%">
<stop offset="0%" style="stop-color:rgb(238, 86, 91); stop-opacity:1"/>
<stop offset="100%" style="stop-color:rgb(238, 86, 91); stop-opacity:1"/>
</linearGradient>
<linearGradient id="grad_4" x1="11%" y1="0%" x2="-27%" y2="6%">
<stop offset="0%" style="stop-color:rgb(157, 170, 0); stop-opacity:1"/>
<stop offset="100%" style="stop-color:rgb(171, 184, 25); stop-opacity:1"/>
</linearGradient>
<linearGradient id="grad_5" x1="0%" y1="0%" x2="100%" y2="0%">
<stop offset="0%" style="stop-color:rgb(197, 215, 64); stop-opacity:1"/>
<stop offset="100%" style="stop-color:rgb(197, 215, 64); stop-opacity:1"/>
</linearGradient>
<linearGradient id="grad_6" x1="0%" y1="100%" x2="100%" y2="100%">
<stop offset="0%" style="stop-color:rgb(250, 143, 143); stop-opacity:1"/>
<stop offset="100%" style="stop-color:rgb(250, 143, 143); stop-opacity:1"/>
</linearGradient>
<linearGradient id="grad_7" x1="0%" y1="7%" x2="100%" y2="7%">
<stop offset="0%" style="stop-color:rgb(132, 9, 9); stop-opacity:1"/>
<stop offset="100%" style="stop-color:rgb(132, 9, 9); stop-opacity:1"/>
</linearGradient>
<linearGradient id="grad_8" x1="0%" y1="2%" x2="100%" y2="2%">
<stop offset="0%" style="stop-color:rgb(137, 255, 3); stop-opacity:0.562748"/>
<stop offset="100%" style="stop-color:rgb(137, 255, 3); stop-opacity:0.562748"/>
</linearGradient>
<linearGradient id="grad_9" x1="0%" y1="88%" x2="100%" y2="88%">
<stop offset="0%" style="stop-color:rgb(81, 255, 0); stop-opacity:0.46081"/>
<stop offset="100%" style="stop-color:rgb(81, 255, 0); stop-opacity:0.46081"/>
</linearGradient>
<linearGradient id="grad_10" x1="0%" y1="93%" x2="100%" y2="93%">
<stop offset="0%" style="stop-color:rgb(145, 255, 0); stop-opacity:0.591641"/>
<stop offset="100%" style="stop-color:rgb(145, 255, 0); stop-opacity:0.591641"/>
</linearGradient>
<linearGradient id="grad_11" x1="95%" y1="62%" x2="24%" y2="-13%">
<stop offset="0%" style="stop-color:rgb(255, 255, 255); stop-opacity:0.987606"/>
<stop offset="100%" style="stop-color:rgb(255, 255, 255); stop-opacity:1.016"/>
</linearGradient>
</defs>
<g transform="translate(0.000000,640.000000) scale(0.100000,-0.100000)"
fill="url(#grad_0)" stroke="none">
<g>
<path d="M0 3200 l0 -3200 3200 0 3200 0 0 3200 0 3200 -3200 0 -3200 0 0
-3200z"/>
</g>
</g>
<g transform="translate(0.000000,640.000000) scale(0.100000,-0.100000)"
fill="url(#grad_1)" stroke="none">
<g>
<path d="M1889 2906 c-2 -3 -26 -7 -54 -11 -110 -13 -286 -82 -401 -157 -64
-42 -234 -194 -234 -210 0 -4 -11 -19 -24 -33 -64 -69 -143 -270 -167 -425
-16 -105 -5 -349 21 -475 48 -229 190 -573 308 -746 174 -255 409 -400 737
-454 292 -48 885 27 1124 142 144 69 301 255 426 503 187 372 269 729 236
1018 -32 270 -133 497 -289 644 -82 77 -148 117 -257 154 -110 38 -273 39
-500 4 -171 -26 -179 -30 -206 -93 -16 -37 7 -62 72 -77 59 -14 185 -5 242 17
21 9 40 14 42 11 7 -6 -101 -81 -167 -116 -82 -42 -234 -91 -318 -101 -173
-22 -320 50 -471 230 l-41 49 37 -16 c21 -8 56 -27 78 -41 35 -22 48 -25 101
-20 34 3 85 13 114 23 46 15 53 20 48 38 -3 12 -6 30 -6 41 0 11 -4 25 -8 32
-18 29 -421 91 -443 69z"/>
</g>
</g>
<g transform="translate(0.000000,640.000000) scale(0.100000,-0.100000)"
fill="url(#grad_2)" stroke="none">
<g>
<path d="M1623 2435 c-86 -43 -144 -104 -186 -193 -26 -58 -30 -79 -31 -157
-1 -79 2 -97 27 -147 61 -124 205 -179 336 -129 116 44 212 152 256 289 23 68
16 170 -13 228 -45 89 -147 144 -265 144 -42 0 -70 -8 -124 -35z"/>
</g>
</g>
<g transform="translate(0.000000,640.000000) scale(0.100000,-0.100000)"
fill="url(#grad_3)" stroke="none">
<g>
<path d="M2315 2148 c-31 -18 -44 -40 -45 -74 0 -73 91 -89 126 -23 18 35 10
74 -19 94 -25 18 -35 18 -62 3z"/>
</g>
</g>
<g transform="translate(0.000000,640.000000) scale(0.100000,-0.100000)"
fill="url(#grad_4)" stroke="none">
<g>
<path d="M3434 6011 l-41 -19 -7 -103 c-3 -57 -12 -124 -20 -149 -36 -120
-142 -310 -336 -600 -223 -335 -349 -577 -463 -895 -97 -268 -184 -650 -222
-975 -25 -213 -16 -476 21 -607 5 -18 94 -29 105 -12 6 8 7 60 4 119 -28 509
-25 752 10 920 80 388 338 901 687 1371 131 176 209 300 286 454 95 190 141
317 148 409 8 85 3 91 -82 101 -37 4 -59 1 -90 -14z"/>
</g>
</g>
<g transform="translate(0.000000,640.000000) scale(0.100000,-0.100000)"
fill="url(#grad_5)" stroke="none">
<g>
<path d="M3441 5924 c-6 -22 -11 -52 -11 -69 0 -35 -31 -167 -55 -240 -31 -89
-92 -201 -159 -290 -89 -115 -269 -385 -258 -385 5 0 45 46 89 103 252 323
338 469 403 687 37 124 42 192 18 216 -15 16 -17 14 -27 -22z"/>
</g>
</g>
<g transform="translate(0.000000,640.000000) scale(0.100000,-0.100000)"
fill="url(#grad_6)" stroke="none">
<g>
<path d="M2008 2732 c152 -181 299 -253 472 -231 84 10 236 59 318 101 65 35
174 110 167 116 -2 3 -72 -21 -155 -53 -377 -142 -451 -138 -709 34 -133 89
-143 93 -93 33z"/>
</g>
</g>
<g transform="translate(0.000000,640.000000) scale(0.100000,-0.100000)"
fill="url(#grad_7)" stroke="none">
<g>
<path d="M3607 5924 c-8 -92 -54 -219 -149 -409 -77 -154 -155 -278 -286 -454
-349 -470 -607 -983 -687 -1371 -35 -168 -38 -411 -10 -920 7 -129 3 -137 -62
-124 -47 9 -48 10 -53 49 -6 46 -10 47 -100 21 -60 -17 -140 -21 -156 -8 -14
14 -90 56 -79 45 20 -20 162 -111 213 -137 152 -77 268 -70 527 33 l100 40
-70 -6 c-101 -8 -195 22 -195 62 0 7 12 29 26 50 l25 38 -69 -6 -70 -6 -7 167
c-9 188 -3 288 26 463 37 227 103 458 204 714 144 363 232 518 514 900 183
248 273 391 310 490 18 48 35 84 38 81 3 -3 -1 -36 -8 -73 -17 -86 -17 -349 0
-468 14 -98 48 -234 62 -250 5 -5 9 -21 9 -35 0 -72 111 -321 211 -472 100
-150 280 -341 454 -481 216 -172 358 -316 469 -472 51 -71 102 -146 113 -165
27 -46 118 -292 132 -355 22 -99 28 -227 15 -295 -6 -36 -10 -67 -8 -69 7 -7
84 71 79 80 -3 4 1 9 8 12 27 10 136 178 170 263 68 167 80 234 81 464 0 232
-8 285 -75 477 -50 142 -144 308 -246 435 -69 86 -128 138 -523 463 -245 201
-474 396 -509 433 -159 169 -239 321 -287 552 -27 132 -29 158 -9 183 25 34
-4 76 -76 113 l-46 23 -6 -75z"/>
</g>
</g>
<g transform="translate(0.000000,640.000000) scale(0.100000,-0.100000)"
fill="url(#grad_8)" stroke="none">
<g>
<path d="M3607 5924 c-8 -92 -54 -219 -149 -409 -77 -154 -155 -278 -286 -454
-349 -470 -607 -983 -687 -1371 -35 -166 -38 -491 -9 -917 3 -50 3 -101 -1
-113 -6 -20 -12 -22 -56 -16 -33 5 -49 3 -49 -4 0 -25 24 -53 57 -66 32 -14
40 -13 85 3 41 15 49 21 44 38 -3 11 -15 54 -26 95 -18 66 -21 106 -23 340 -2
237 0 279 21 394 43 245 107 468 207 721 144 363 232 518 513 900 190 257 268
381 314 497 25 64 67 142 111 208 38 58 70 113 69 124 -1 26 -30 55 -83 82
l-46 23 -6 -75z"/>
</g>
</g>
<g transform="translate(0.000000,640.000000) scale(0.100000,-0.100000)"
fill="url(#grad_9)" stroke="none">
<g>
<path d="M3658 5750 c-41 -63 -57 -98 -62 -135 -3 -27 -11 -90 -17 -140 -12
-94 -7 -257 12 -392 10 -77 44 -212 59 -242 5 -9 21 -53 36 -98 15 -46 29 -81
31 -79 2 2 -5 39 -16 82 -30 124 -44 221 -45 329 -1 96 1 104 33 168 19 37 36
65 38 63 2 -2 21 -48 42 -102 28 -74 61 -133 130 -232 l92 -132 -11 -53 c-15
-65 0 -178 33 -251 l22 -48 -3 153 -4 154 104 -100 c56 -56 121 -115 144 -133
39 -30 41 -34 43 -89 3 -111 29 -206 84 -307 28 -52 53 -93 55 -91 2 2 -11 34
-29 72 -17 37 -38 88 -45 112 -14 44 -20 202 -8 214 3 3 70 -45 148 -108 l141
-113 19 -84 c18 -83 90 -267 133 -343 33 -57 28 -35 -7 34 -16 33 -39 92 -51
133 -21 72 -40 208 -29 208 13 0 152 -134 236 -229 89 -100 91 -104 83 -139
-5 -25 0 -84 19 -196 27 -160 27 -161 30 -91 3 61 -2 117 -24 265 -7 46 159
-264 181 -338 14 -45 14 -66 5 -130 -10 -66 -21 -109 -65 -247 -3 -11 5 3 18
30 13 28 34 88 48 134 23 82 24 83 32 50 4 -19 12 -48 18 -65 23 -76 -10 -275
-69 -414 -33 -78 -141 -266 -180 -315 -9 -11 2 -2 25 19 23 22 40 43 38 47 -3
4 1 9 8 12 27 10 136 178 170 263 68 167 80 234 81 464 0 232 -8 285 -75 477
-50 142 -144 308 -246 435 -69 86 -128 138 -523 463 -453 373 -534 446 -622
570 -94 132 -138 239 -178 435 l-27 135 -55 -85z"/>
</g>
</g>
<g transform="translate(0.000000,640.000000) scale(0.100000,-0.100000)"
fill="url(#grad_10)" stroke="none">
<g>
<path d="M3689 5243 c-32 -64 -34 -72 -33 -168 1 -108 15 -205 45 -329 11 -43
18 -80 16 -82 -2 -2 -14 27 -28 65 -13 39 -25 68 -27 66 -8 -8 39 -136 91
-246 118 -249 312 -483 572 -692 216 -172 358 -316 469 -472 51 -71 102 -146
113 -165 27 -46 118 -292 132 -355 27 -125 29 -245 6 -344 -11 -44 21 -5 93
113 91 151 129 241 158 374 26 120 30 187 15 236 -6 17 -14 46 -18 65 -8 33
-9 32 -32 -50 -14 -46 -35 -106 -48 -134 -13 -27 -21 -41 -18 -30 44 138 55
181 65 247 9 64 9 85 -5 130 -22 74 -188 384 -181 338 22 -148 27 -204 24
-265 -3 -70 -3 -69 -30 91 -19 112 -24 171 -19 196 8 35 6 39 -83 139 -84 95
-223 229 -236 229 -11 0 8 -136 29 -208 12 -41 35 -100 51 -133 35 -69 40 -91
7 -34 -43 76 -115 260 -133 343 l-19 84 -141 113 c-78 63 -145 111 -148 108
-12 -12 -6 -170 8 -214 7 -24 28 -75 45 -112 18 -38 31 -70 29 -72 -2 -2 -27
39 -55 91 -55 101 -81 196 -84 307 -2 55 -4 59 -43 89 -23 18 -88 77 -144 133
l-104 100 4 -154 3 -153 -22 48 c-33 73 -48 186 -33 251 l11 53 -92 132 c-69
99 -102 158 -130 232 -21 54 -40 100 -42 102 -2 2 -19 -26 -38 -63z"/>
</g>
</g>
<g transform="translate(0.000000,640.000000) scale(0.100000,-0.100000)"
fill="url(#grad_11)" stroke="none">
<g>
<path d="M1585 2266 c-17 -7 -45 -30 -63 -50 -39 -45 -45 -109 -12 -144 63
-67 244 -106 335 -72 177 67 40 281 -179 280 -28 -1 -65 -7 -81 -14z"/>
</g>
</g>
</svg>
