<?xml version="1.0" standalone="no"?><!DOCTYPE svg PUBLIC "-//W3C//DTD SVG 20010904//EN" "http://www.w3.org/TR/2001/REC-SVG-20010904/DTD/svg10.dtd"><svg version="1.0" xmlns="http://www.w3.org/2000/svg" width="383pt" height="600pt" viewBox="0 0 383 600" preserveAspectRatio="xMidYMid meet"><defs><linearGradient id="linear-gradient-1-1" x1="0.00%" y1="100.00%" x2="0.00%" y2="0.00%"><stop offset="0%" style="stop-color:rgb(255,254,253);stop-opacity:1.000" /><stop offset="100%" style="stop-color:rgb(254,255,255);stop-opacity:1.000" /></linearGradient><linearGradient id="linear-gradient-2-1" x1="0.00%" y1="100.00%" x2="0.00%" y2="-0.00%"><stop offset="0%" style="stop-color:rgb(26,79,185);stop-opacity:0.452" /><stop offset="100%" style="stop-color:rgb(167,189,219);stop-opacity:0.841" /></linearGradient><linearGradient id="linear-gradient-2-2" x1="0.00%" y1="100.00%" x2="0.00%" y2="-0.00%"><stop offset="0%" style="stop-color:rgb(241,154,96);stop-opacity:0.573" /><stop offset="100%" style="stop-color:rgb(248,209,182);stop-opacity:0.675" /></linearGradient><linearGradient id="linear-gradient-3-1" x1="0.00%" y1="100.00%" x2="35.78%" y2="-40.22%"><stop offset="0%" style="stop-color:rgb(181,244,149);stop-opacity:0.371" /><stop offset="100%" style="stop-color:rgb(0,147,3);stop-opacity:1.000" /></linearGradient><linearGradient id="linear-gradient-3-2" x1="0.00%" y1="100.00%" x2="101.78%" y2="4.64%"><stop offset="0%" style="stop-color:rgb(252,187,0);stop-opacity:0.756" /><stop offset="100%" style="stop-color:rgb(255,253,239);stop-opacity:0.091" /></linearGradient></defs><g id="layer-1"><path d="M0 3000 l0 -3000 1915 0 1915 0 0 3000 0 3000 -1915 0 -1915 0 0 -3000z" fill="url(#linear-gradient-1-1)" id="region-1-1" transform="translate(0.000000,600.000000) scale(0.100000,-0.100000)"/></g><g id="layer-2"><path d="M670 5405 l-295 -295 1225 -1225 c674 -674 1287 -1287 1363 -1363 l137 -136 295 294 c162 162 295 299 295 303 0 8 -2705 2709 -2719 2715 -3 1 -139 -131 -301 -293z" fill="url(#linear-gradient-2-1)" id="region-2-1" transform="translate(0.000000,600.000000) scale(0.100000,-0.100000)"/><path d="M257 2982 c-136 -136 -247 -252 -247 -257 0 -13 2702 -2715 2715 -2715 6 0 123 113 260 250 l250 250 -1360 1360 c-748 748 -1362 1360 -1365 1360 -3 0 -116 -111 -253 -248z" fill="url(#linear-gradient-2-2)" id="region-2-2" transform="translate(0.000000,600.000000) scale(0.100000,-0.100000)"/></g><g id="layer-3"><path d="M2085 4785 l-1210 -1205 265 -265 265 -265 1210 1210 1210 1210 -260 260 c-143 143 -262 260 -265 260 -3 -1 -549 -543 -1215 -1205z" fill="url(#linear-gradient-3-1)" id="region-3-1" transform="translate(0.000000,600.000000) scale(0.100000,-0.100000)"/><path d="M1890 2271 l-1265 -1259 275 -276 275 -276 1257 1257 c692 692 1258 1262 1258 1268 0 5 -121 130 -268 278 l-268 268 -1264 -1260z" fill="url(#linear-gradient-3-2)" id="region-3-2" transform="translate(0.000000,600.000000) scale(0.100000,-0.100000)"/></g></svg>