<?xml version="1.0" standalone="no"?><!DOCTYPE svg PUBLIC "-//W3C//DTD SVG 20010904//EN" "http://www.w3.org/TR/2001/REC-SVG-20010904/DTD/svg10.dtd"><svg version="1.0" xmlns="http://www.w3.org/2000/svg" width="383.0pt" height="600.0pt" viewBox="0 0 383.0 600.0" preserveAspectRatio="xMidYMid meet"><defs><linearGradient id="linear-gradient-0" x1="0.00%" y1="100.00%" x2="0.03%" y2="-0.08%"><stop offset="0%" style="stop-color:rgb(254,254,255);stop-opacity:1.000" /><stop offset="100%" style="stop-color:rgb(255,254,255);stop-opacity:1.000" /></linearGradient><linearGradient id="linear-gradient-1" x1="0.00%" y1="100.00%" x2="0.00%" y2="0.00%"><stop offset="0%" style="stop-color:rgb(88,128,200);stop-opacity:1.000" /><stop offset="100%" style="stop-color:rgb(255,255,255);stop-opacity:1.000" /></linearGradient><linearGradient id="linear-gradient-2" x1="0.00%" y1="100.00%" x2="90.82%" y2="-17.32%"><stop offset="0%" style="stop-color:rgb(214,137,0);stop-opacity:0.651" /><stop offset="100%" style="stop-color:rgb(255,255,1);stop-opacity:0.000" /></linearGradient><linearGradient id="linear-gradient-3" x1="0.00%" y1="100.00%" x2="0.00%" y2="-0.00%"><stop offset="0%" style="stop-color:rgb(249,205,62);stop-opacity:0.708" /><stop offset="100%" style="stop-color:rgb(242,161,134);stop-opacity:0.372" /></linearGradient><linearGradient id="linear-gradient-4" x1="0.00%" y1="100.00%" x2="29.42%" y2="-37.16%"><stop offset="0%" style="stop-color:rgb(187,229,89);stop-opacity:0.416" /><stop offset="100%" style="stop-color:rgb(8,164,55);stop-opacity:1.000" /></linearGradient></defs><g fill="url(#linear-gradient-0)" transform="translate(0.000000,600.000000) scale(0.100000,-0.100000)">
<path d="M0 3000 l0 -3000 1915 0 1915 0 0 3000 0 3000 -1915 0 -1915 0 0 -3000z"/>
</g><g fill="url(#linear-gradient-1)" transform="translate(0.000000,600.000000) scale(0.100000,-0.100000)">
<path d="M677 5402 l-297 -297 508 -508 c279 -279 510 -505 513 -503 3 3 30 -20 60 -51 30 -31 45 -51 34 -43 -11 8 26 -33 83 -91 56 -57 102 -109 102 -114 0 -13 222 -235 235 -235 6 0 274 -264 597 -587 l588 -588 297 298 298 297 -590 590 c-324 324 -587 592 -583 595 6 6 -114 125 -126 125 -4 0 -325 316 -713 703 -387 386 -706 703 -707 704 -1 1 -136 -131 -299 -295z"/>
</g><g fill="url(#linear-gradient-2)" transform="translate(0.000000,600.000000) scale(0.100000,-0.100000)">
<path d="M1887 2263 l-1257 -1258 272 -272 273 -273 272 272 c149 149 270 275 268 278 -5 8 293 306 301 302 3 -2 9 0 12 4 4 4 0 3 -8 -1 -10 -5 -8 -1 4 13 21 24 31 29 20 10 -4 -7 5 -2 19 11 15 13 24 28 20 34 -3 6 -2 7 3 4 6 -3 370 354 809 794 l800 799 -270 270 c-148 148 -272 270 -275 270 -3 0 -571 -566 -1263 -1257z"/>
</g><g fill="url(#linear-gradient-3)" transform="translate(0.000000,600.000000) scale(0.100000,-0.100000)">
<path d="M257 2982 c-136 -136 -247 -252 -247 -257 0 -6 261 -271 580 -590 319 -319 580 -585 580 -591 0 -13 35 -46 41 -39 3 2 342 -333 754 -745 413 -413 754 -750 760 -750 6 0 123 113 260 250 l250 250 -1360 1360 c-748 748 -1362 1360 -1365 1360 -3 0 -116 -111 -253 -248z"/>
</g><g fill="url(#linear-gradient-4)" transform="translate(0.000000,600.000000) scale(0.100000,-0.100000)">
<path d="M2087 4782 l-1207 -1207 263 -263 262 -262 1210 1210 1210 1210 -260 260 c-143 143 -262 260 -265 260 -3 0 -548 -543 -1213 -1208z"/>
</g></svg>