<?xml version="1.0" encoding="utf-8"?>
<!-- Generator: Adobe Illustrator 26.5.0, SVG Export Plug-In . SVG Version: 6.00 Build 0)  -->
<svg version="1.1" id="图层_1" xmlns="http://www.w3.org/2000/svg" xmlns:xlink="http://www.w3.org/1999/xlink" x="0px" y="0px"
	 viewBox="0 0 710 773" style="enable-background:new 0 0 710 773;" xml:space="preserve">
<style type="text/css">
	.st0{fill:none;}
	.st1{fill:#D3D3D3;}
	.st2{fill:url(#SVGID_00000139999116613117482190000000452704448267843479_);}
	.st3{fill:url(#region-1-1_00000006689679512717924420000010971324721504749738_);}
	.st4{fill:url(#region-1-2_00000130615356151744040880000015164260710945596844_);}
	.st5{fill:url(#region-1-3_00000042713007169170899980000004497036079522117257_);}
	.st6{fill:url(#region-1-4_00000000919536497287451480000013899163686744312716_);}
	.st7{fill:url(#region-1-5_00000063593816879840040590000015334316243098983093_);}
	.st8{fill:url(#region-2-1_00000147921247193157388410000013422333555555540615_);}
	.st9{fill:url(#region-2-2_00000121977891669270983760000018058544957536882877_);}
	.st10{fill:url(#region-2-3_00000163784481871830744070000017607048937263719348_);}
	.st11{fill:url(#region-2-4_00000163769687277387631330000002667302623128948412_);}
	.st12{fill:url(#region-2-5_00000045589729170024480250000006333400097353057466_);}
	.st13{fill:url(#region-3-1_00000036949978022595673640000017100678244275814030_);}
	.st14{fill:url(#region-3-2_00000013878069989786170390000017710421162930321049_);}
	.st15{fill:url(#region-3-3_00000121978756305251440250000017654082880379771321_);}
	.st16{fill:url(#region-3-4_00000063608760836018229610000009413406457473150599_);}
	.st17{fill:url(#region-1-1_00000127009222326059437650000011229757010741951675_);stroke:#000000;stroke-miterlimit:10;}
	.st18{fill:url(#region-1-2_00000085230907633324539540000006894175085312809619_);stroke:#000000;stroke-miterlimit:10;}
	.st19{fill:url(#region-1-3_00000110437669669498985680000009070839355554203013_);}
	.st20{fill:url(#region-1-4_00000113319543625635895560000006088646678966060460_);}
	.st21{fill:url(#region-1-5_00000138536492858326230030000014114153050759854525_);stroke:#000000;stroke-miterlimit:10;}
	.st22{fill:url(#region-2-1_00000159464921009540652970000000899695329292773531_);stroke:#000000;stroke-miterlimit:10;}
	.st23{fill:url(#region-2-2_00000163755944527560685580000015247599590050193839_);stroke:#000000;stroke-miterlimit:10;}
	.st24{fill:url(#region-2-3_00000021095700854224165050000008887528966194164397_);stroke:#000000;stroke-miterlimit:10;}
	.st25{fill:url(#region-2-4_00000171703131080758621660000009151413134765335960_);stroke:#000000;stroke-miterlimit:10;}
	.st26{fill:url(#region-2-5_00000029041567736935595030000000506497698048137636_);stroke:#000000;stroke-miterlimit:10;}
	.st27{fill:url(#region-3-1_00000172442352790703044980000002375605919518684821_);}
	.st28{fill:url(#region-3-2_00000175311848287931916690000010580197469810529971_);stroke:#000000;stroke-miterlimit:10;}
	.st29{fill:url(#region-3-3_00000067937808324937338980000012173794927732211630_);}
	.st30{fill:url(#region-3-4_00000142154812394954789320000010018786742658874013_);stroke:#000000;stroke-miterlimit:10;}
	.st31{fill:none;stroke:#000000;stroke-width:2;stroke-miterlimit:10;}
</style>
<pattern  y="773" width="40" height="40" patternUnits="userSpaceOnUse" id="SVGID_1_" viewBox="0 -40 40 40" style="overflow:visible;">
	<g>
		<rect y="-40" class="st0" width="40" height="40"/>
		<g>
			<rect y="-40" class="st0" width="40" height="40"/>
			<rect y="-40" class="st0" width="40" height="40"/>
			<rect y="-20" class="st1" width="20" height="20"/>
			<rect x="20" y="-40" class="st1" width="20" height="20"/>
		</g>
	</g>
</pattern>
<g id="图层_1_00000081619854037610691890000015816733684815505066_">
	
		<pattern  id="SVGID_00000057126666755067897710000009378839954600971443_" xlink:href="#SVGID_1_" patternTransform="matrix(1 0 0 -1 -92 -16396.2402)">
	</pattern>
	<rect style="fill:url(#SVGID_00000057126666755067897710000009378839954600971443_);" width="710" height="773"/>
</g>
<g id="图层_2_00000043425174620978189380000007950002988988158853_">
	<g id="layer-1">
		
			<linearGradient id="region-1-1_00000068652435257653075510000009170344224913460874_" gradientUnits="userSpaceOnUse" x1="-1179.225" y1="8.0448" x2="-1179.1105" y2="7.3498" gradientTransform="matrix(66 0 0 -76 78181 761)">
			<stop  offset="0" style="stop-color:#DDDADE;stop-opacity:0.991"/>
			<stop  offset="1" style="stop-color:#C0BEC3;stop-opacity:0.992"/>
		</linearGradient>
		<path id="region-1-1" style="fill:url(#region-1-1_00000068652435257653075510000009170344224913460874_);" d="M348.8,152.7
			c-4.3,1.2-8.1,5.2-9,9.5c-0.3,1.4-0.5,7.7-0.5,14.4v12.1h15.9h15.9v-18.3V152l-10,0.1C354.6,152.1,350.2,152.3,348.8,152.7z"/>
		
			<linearGradient id="region-1-2_00000101085614916325885090000009513364954179122322_" gradientUnits="userSpaceOnUse" x1="-1189.5487" y1="8.0199" x2="-1189.5483" y2="7.5308" gradientTransform="matrix(124 0 0 -76.1 147905 762.3002)">
			<stop  offset="0" style="stop-color:#C3C0C7"/>
			<stop  offset="1" style="stop-color:#B5B0B9"/>
		</linearGradient>
		<path id="region-1-2" style="fill:url(#region-1-2_00000101085614916325885090000009513364954179122322_);" d="M371.1,170.4v18.4
			H401h29.9v-13.2c0-12.8,0-13.2-1.2-15.6c-1.4-3-3.7-5.4-6.6-6.7c-2.1-1-3-1-27.1-1.2l-25-0.1V170.4z"/>
		
			<linearGradient id="region-1-3_00000122686997327694458240000002739374031267456646_" gradientUnits="userSpaceOnUse" x1="-1196.1257" y1="12.2519" x2="-1196.1257" y2="11.7691" gradientTransform="matrix(315.0029 0 0 -237.7783 377165.5 3102.0981)">
			<stop  offset="0" style="stop-color:#FEB005"/>
			<stop  offset="1" style="stop-color:#FFAE00"/>
		</linearGradient>
		<path id="region-1-3" style="fill:url(#region-1-3_00000122686997327694458240000002739374031267456646_);" d="M311.7,189.5
			c-0.9,0.4-2.2,1.2-2.8,1.8c-2.7,2.5-2.5-0.6-2.5,58v54.3h76.1h76v-53.9v-53.9l-1-2.1c-0.6-1.3-1.8-2.6-3-3.4l-2-1.3l-69.5-0.1
			C321.6,188.8,313.2,188.8,311.7,189.5z"/>
		
			<linearGradient id="region-1-4_00000132063215176112499230000005288312197675930551_" gradientUnits="userSpaceOnUse" x1="-1196.2852" y1="13.4392" x2="-1195.9309" y2="12.8127" gradientTransform="matrix(315 0 0 -482 377162 6759)">
			<stop  offset="0" style="stop-color:#69464B;stop-opacity:0.994"/>
			<stop  offset="1" style="stop-color:#84686C"/>
		</linearGradient>
		<path id="region-1-4" style="fill:url(#region-1-4_00000132063215176112499230000005288312197675930551_);" d="M306.4,417.3v113.6
			l1.2,1.8c0.7,1,2.1,2.2,3.1,2.8c1.9,1,2.8,1,71.5,1c58,0,69.8-0.1,71.1-0.7c1.9-0.8,4-3,4.6-4.8c0.4-1,0.5-35.7,0.5-114.3V303.7
			h-76.1h-76V417.3z"/>
		
			<linearGradient id="region-1-5_00000106131632269477217690000008320337588100810888_" gradientUnits="userSpaceOnUse" x1="-1195.3993" y1="13.0421" x2="-1195.3354" y2="10.7161" gradientTransform="matrix(270 0 0 -45 323139 1123)">
			<stop  offset="0" style="stop-color:#C5C1C8;stop-opacity:0.992"/>
			<stop  offset="1" style="stop-color:#B5B1B9;stop-opacity:0.992"/>
		</linearGradient>
		<path id="region-1-5" style="fill:url(#region-1-5_00000106131632269477217690000008320337588100810888_);" d="M317,542.5
			c0,3.4,0.2,7,0.5,7.9c0.7,2.5,3.2,5.3,6,6.6l2.5,1.2h56c41.5,0,56.4-0.1,57.8-0.6c2.3-0.7,5.8-3.7,6.9-5.9
			c0.6-1.3,0.8-3.2,0.8-8.5v-6.8h-65.2H317L317,542.5L317,542.5z"/>
	</g>
	<g id="layer-2">
		
			<linearGradient id="region-2-1_00000052787860411188166850000001874425597543297193_" gradientUnits="userSpaceOnUse" x1="-1193.2634" y1="-9.6133" x2="-1193.261" y2="-10.6287" gradientTransform="matrix(190 0 0 -18 227105 7)">
			<stop  offset="0" style="stop-color:#000000;stop-opacity:0.136"/>
			<stop  offset="1" style="stop-color:#000000;stop-opacity:0.182"/>
		</linearGradient>
		<path id="region-2-1" style="fill:url(#region-2-1_00000052787860411188166850000001874425597543297193_);" d="M339.2,184.4v4.4
			h45.9h45.9v-4.4V180h-45.9h-45.9V184.4z"/>
		
			<linearGradient id="region-2-2_00000070827433926629697170000017110001817458049665_" gradientUnits="userSpaceOnUse" x1="-1189.1608" y1="10.8612" x2="-1189.1608" y2="10.3784" gradientTransform="matrix(121.5311 0 0 -122.8675 144902.2656 1551.2977)">
			<stop  offset="0" style="stop-color:#F9F6E5;stop-opacity:0.784"/>
			<stop  offset="1" style="stop-color:#F8FFFF;stop-opacity:0.81"/>
		</linearGradient>
		<path id="region-2-2" style="fill:url(#region-2-2_00000070827433926629697170000017110001817458049665_);" d="M379.2,217.8
			c-3,1.7-3.3,3.1-3.3,13.2v8.9h-8.7c-10.5,0-12,0.4-13.5,3.7c-1.5,3.1-0.7,6.2,2.1,7.9c1.4,0.9,2.5,1,10.9,1h9.3v8.9
			c0,6.7,0.2,9.4,0.7,10.6c0.7,1.7,3.9,4.1,5.5,4.1c1.5,0,3.8-1.4,5.2-3c1.2-1.5,1.2-1.5,1.2-11.1v-9.6h9.7h9.7l1.7-1.6
			c2.3-2.1,2.8-5.5,1.2-8c-1.6-2.7-3.2-3-13.3-3h-8.9v-9.3c0-10.4-0.3-11.5-3.5-13C382.7,216.5,381.4,216.6,379.2,217.8z"/>
		
			<linearGradient id="region-2-3_00000152969611789537882220000006478171118079805331_" gradientUnits="userSpaceOnUse" x1="-1195.3889" y1="12.9836" x2="-1195.3882" y2="12.4974" gradientTransform="matrix(269.6007 0 0 -269.4234 322659.8438 3819.3208)">
			<stop  offset="0" style="stop-color:#FFFDD2;stop-opacity:0.803"/>
			<stop  offset="1" style="stop-color:#FFFFE0;stop-opacity:0.851"/>
		</linearGradient>
		<path id="region-2-3" style="fill:url(#region-2-3_00000152969611789537882220000006478171118079805331_);" d="M374.7,321.5
			c-8.3,1.1-14.6,3-22.5,7c-7.8,4-14.6,9.6-21.3,17.4c-5.5,6.5-10.6,17.3-12.8,27.2c-1.3,5.8-1.3,20.2,0,26
			c2.9,12.9,7.8,22.3,16.9,31.7c12.5,13,26.9,19.6,44.6,20.4c37.2,1.6,67.8-27.9,67.8-65.1c0-31-21.7-57.5-52.2-63.7
			C389.6,321.3,379.7,320.9,374.7,321.5z"/>
		
			<linearGradient id="region-2-4_00000153673379522740631760000008488894330745607049_" gradientUnits="userSpaceOnUse" x1="-1189.2083" y1="10.4126" x2="-1189.2043" y2="9.696" gradientTransform="matrix(122.0382 0 0 -26.9212 145510.8594 767.0167)">
			<stop  offset="0" style="stop-color:#FFFED2;stop-opacity:0.815"/>
			<stop  offset="1" style="stop-color:#FFFFDC;stop-opacity:0.862"/>
		</linearGradient>
		<path id="region-2-4" style="fill:url(#region-2-4_00000153673379522740631760000008488894330745607049_);" d="M357.4,487.1
			c-2.6,0.8-4.6,3.5-4.6,6.1c0,2,1.5,4.5,3.4,5.5c1.5,0.8,3.3,0.9,26.3,0.9c23.6,0,24.7,0,26.2-1c4.3-2.6,4-9.1-0.5-11.1
			c-1.9-0.8-3.4-0.9-25.7-0.9C369.4,486.7,358.1,487,357.4,487.1z"/>
		
			<linearGradient id="region-2-5_00000129204581103625915590000016240956891550340010_" gradientUnits="userSpaceOnUse" x1="-1195.4008" y1="10.9056" x2="-1195.2075" y2="1.4783" gradientTransform="matrix(270 0 0 -14 323139 689)">
			<stop  offset="0" style="stop-color:#706D72;stop-opacity:0.554"/>
			<stop  offset="1" style="stop-color:#918D94;stop-opacity:0.8"/>
		</linearGradient>
		<path id="region-2-5" style="fill:url(#region-2-5_00000129204581103625915590000016240956891550340010_);" d="M317,539.8v3.4
			h65.2h65.2v-3.4v-3.4h-65.2H317V539.8z"/>
	</g>
	<g id="layer-3">
		
			<linearGradient id="region-3-1_00000119094231833005070280000011093025615825776801_" gradientUnits="userSpaceOnUse" x1="-1193.6979" y1="10.9602" x2="-1193.6481" y2="11.8713" gradientTransform="matrix(202.42 0 0 -102.0178 242008.5 1503.25)">
			<stop  offset="0" style="stop-color:#4CB300;stop-opacity:0.85"/>
			<stop  offset="1" style="stop-color:#85C929;stop-opacity:0.694"/>
		</linearGradient>
		<path id="region-3-1" style="fill:url(#region-3-1_00000119094231833005070280000011093025615825776801_);" d="M372.3,335.5
			c-12.9,2.7-23.7,10-31.1,21.2c-3.9,5.9-7,14.5-7.5,21c-0.1,1.9-0.3,4-0.4,4.7l-0.2,1.4h7.4h7.4l0.3-3
			c1.7-15.1,12.4-27.4,26.7-30.6c5.4-1.2,13.2-0.8,18.2,1c4.9,1.6,9.9,4.8,13.2,8.2l2.6,2.7l-3,0.8c-1.6,0.5-3,1-3,1.1
			c0.1,0.7,20.9,19.8,21.2,19.5c0.5-0.5,6.8-27.3,6.5-27.6c-0.1-0.1-1.5,0.1-3,0.6s-3,0.8-3.3,0.8s-1.5-1.4-2.6-3
			c-3-4.2-9.4-9.9-14-12.7C397.4,335.3,384.1,333.1,372.3,335.5z"/>
		
			<linearGradient id="region-3-2_00000174578381231616368590000007851591355999689092_" gradientUnits="userSpaceOnUse" x1="-1171.2253" y1="13.1924" x2="-1170.0251" y2="13.1489" gradientTransform="matrix(49 0 0 -720 57696 9853)">
			<stop  offset="0" style="stop-color:#FCFEFD;stop-opacity:0.368"/>
			<stop  offset="1" style="stop-color:#FFFFFB;stop-opacity:0.27"/>
		</linearGradient>
		<path id="region-3-2" style="fill:url(#region-3-2_00000174578381231616368590000007851591355999689092_);" d="M311.7,189.5
			c-2,0.9-3.7,2.4-4.6,4.1c-0.6,1.1-0.7,25.9-0.7,169.2v167.9l1.2,1.8c2.3,3.3,3.8,3.7,13.8,3.7h8.7V362.6V188.7h-8.3
			C315.3,188.8,313,188.9,311.7,189.5z"/>
		
			<linearGradient id="region-3-3_00000045589227663949002190000012657268084780913338_" gradientUnits="userSpaceOnUse" x1="-1193.7181" y1="12.0192" x2="-1193.6932" y2="11.2629" gradientTransform="matrix(203.0095 0 0 -101.4 242717.6875 1606.5983)">
			<stop  offset="0" style="stop-color:#74C21A;stop-opacity:0.709"/>
			<stop  offset="1" style="stop-color:#4AB000;stop-opacity:0.874"/>
		</linearGradient>
		<path id="region-3-3" style="fill:url(#region-3-3_00000045589227663949002190000012657268084780913338_);" d="M337.8,399.1
			c-1.4,5.8-2.9,12.2-3.4,14.1c-0.5,2-0.9,3.6-0.8,3.7c0.1,0,1.5-0.3,3.3-0.8c1.7-0.5,3.2-1,3.4-1s1.4,1.5,2.8,3.3
			c6.3,8.5,15,14.5,25.9,17.8c4.1,1.2,4.9,1.3,13.3,1.3c10.4,0,13.4-0.6,21.1-4.3c5.8-2.8,9.6-5.5,14.2-10.2
			c8.2-8.5,12.8-18.7,13.8-30.3l0.3-4.1H424h-7.5v2.3c0,3.1-1.5,9.1-3.4,12.9c-6.2,13-21.5,21.2-35.2,19.1c-7.6-1.2-13.4-4-19-9.2
			l-3.3-3.1l3-0.9c1.6-0.5,3-1,2.9-1.2c-0.1-0.4-19-18.4-20.2-19.3C340.4,388.7,340,389.7,337.8,399.1z"/>
		
			<linearGradient id="region-3-4_00000078725670910634704060000016987558087850854300_" gradientUnits="userSpaceOnUse" x1="-1181.9535" y1="13.0353" x2="-1181.9535" y2="12.5527" gradientTransform="matrix(77 0 0 -45 91346 1123)">
			<stop  offset="0" style="stop-color:#FAFCF9;stop-opacity:0.174"/>
			<stop  offset="1" style="stop-color:#FFFFFF;stop-opacity:0.226"/>
		</linearGradient>
		<path id="region-3-4" style="fill:url(#region-3-4_00000078725670910634704060000016987558087850854300_);" d="M317,542.5
			c0,3.4,0.2,7,0.5,7.9c0.7,2.5,3.2,5.3,6,6.6c2.4,1.1,2.8,1.2,16.6,1.2h14.1v-10.9v-10.9h-18.6H317L317,542.5L317,542.5z"/>
	</g>
</g>
<g id="图层_3">
	
		<linearGradient id="region-1-1_00000033355180815099866340000009489176792814199207_" gradientUnits="userSpaceOnUse" x1="-1179.8475" y1="9.2243" x2="-1179.7333" y2="8.5293" gradientTransform="matrix(66 0 0 -76 78181 761)">
		<stop  offset="0" style="stop-color:#DDDADE;stop-opacity:0.991"/>
		<stop  offset="1" style="stop-color:#C0BEC3;stop-opacity:0.992"/>
	</linearGradient>
	
		<path id="region-1-1_00000035524274221991585460000007679472939937601706_" style="fill:url(#region-1-1_00000033355180815099866340000009489176792814199207_);stroke:#000000;stroke-miterlimit:10;" d="
		M307.7,63.1c-4.3,1.2-8.1,5.2-9,9.5c-0.3,1.3-0.5,7.7-0.5,14.4v12.1H314H330V80.8V62.4l-10,0C313.5,62.5,309.1,62.7,307.7,63.1z"/>
	
		<linearGradient id="region-1-2_00000065777652298418422240000010265312999384186295_" gradientUnits="userSpaceOnUse" x1="-1189.2189" y1="9.1977" x2="-1189.2184" y2="8.7086" gradientTransform="matrix(124 0 0 -76.1 147905 762.3002)">
		<stop  offset="0" style="stop-color:#C3C0C7"/>
		<stop  offset="1" style="stop-color:#B5B0B9"/>
	</linearGradient>
	
		<path id="region-1-2_00000176009911049755099520000006022002671917284748_" style="fill:url(#region-1-2_00000065777652298418422240000010265312999384186295_);stroke:#000000;stroke-miterlimit:10;" d="
		M412,80.8v18.3h29.9h29.9V85.9c0-12.8,0-13.2-1.2-15.6c-1.4-3-3.7-5.4-6.6-6.7c-2.1-1-3-1-27.1-1.2l-25-0.1L412,80.8L412,80.8z"/>
	
		<linearGradient id="region-1-3_00000047778528078678482350000004555793593914723471_" gradientUnits="userSpaceOnUse" x1="-1196.9609" y1="12.9275" x2="-1196.9609" y2="12.4447" gradientTransform="matrix(315.0029 0 0 -237.7783 377165.5 3102.0981)">
		<stop  offset="0" style="stop-color:#FEB005"/>
		<stop  offset="1" style="stop-color:#FFAE00"/>
	</linearGradient>
	
		<path id="region-1-3_00000169539545649668568340000000865961726640361147_" style="fill:url(#region-1-3_00000047778528078678482350000004555793593914723471_);" d="
		M48.6,28.9c-0.9,0.4-2.2,1.2-2.8,1.8c-2.7,2.5-2.5-0.6-2.5,58V143h76.1h76.1V89.1V35.2l-1-2.1c-0.6-1.3-1.8-2.6-3-3.4l-2-1.3
		l-69.5-0.1C58.5,28.2,50.1,28.2,48.6,28.9z"/>
	
		<linearGradient id="region-1-4_00000010996414043527724130000010125036466252011193_" gradientUnits="userSpaceOnUse" x1="-1197.1204" y1="13.7372" x2="-1196.7661" y2="13.1106" gradientTransform="matrix(315 0 0 -482 377162 6759)">
		<stop  offset="0" style="stop-color:#69464B;stop-opacity:0.994"/>
		<stop  offset="1" style="stop-color:#84686C"/>
	</linearGradient>
	
		<path id="region-1-4_00000124869775991039501010000015261309536367007414_" style="fill:url(#region-1-4_00000010996414043527724130000010125036466252011193_);" d="
		M43.3,273.6v113.6l1.2,1.8c0.7,1,2.1,2.2,3.1,2.8c1.9,1,2.8,1,71.5,1c58,0,69.8-0.1,71.1-0.7c1.9-0.8,4-3,4.6-4.8
		c0.4-1,0.5-35.7,0.5-114.3V160h-76.1H43.3V273.6z"/>
	
		<linearGradient id="region-1-5_00000131337919811061983920000000900004338608863140_" gradientUnits="userSpaceOnUse" x1="-1195.4996" y1="10.3007" x2="-1195.4359" y2="7.9748" gradientTransform="matrix(270 0 0 -45 323139 1123)">
		<stop  offset="0" style="stop-color:#C5C1C8;stop-opacity:0.992"/>
		<stop  offset="1" style="stop-color:#B5B1B9;stop-opacity:0.992"/>
	</linearGradient>
	
		<path id="region-1-5_00000072997647636832211710000006883774660478474661_" style="fill:url(#region-1-5_00000131337919811061983920000000900004338608863140_);stroke:#000000;stroke-miterlimit:10;" d="
		M289.9,665.9c0,3.4,0.2,7,0.5,7.9c0.7,2.5,3.2,5.3,6,6.6l2.5,1.2h56c41.5,0,56.4-0.1,57.8-0.6c2.3-0.7,5.8-3.7,6.9-5.9
		c0.6-1.3,0.8-3.2,0.8-8.5v-6.8h-65.2h-65.2L289.9,665.9L289.9,665.9z"/>
	
		<linearGradient id="region-2-1_00000090985152565010184090000006590417038611848635_" gradientUnits="userSpaceOnUse" x1="-1192.1112" y1="-9.6339" x2="-1192.1088" y2="-10.6492" gradientTransform="matrix(190 0 0 -18 227105 7)">
		<stop  offset="0" style="stop-color:#000000;stop-opacity:0.136"/>
		<stop  offset="1" style="stop-color:#000000;stop-opacity:0.182"/>
	</linearGradient>
	
		<path id="region-2-1_00000000913860227450513600000008019087758989988781_" style="fill:url(#region-2-1_00000090985152565010184090000006590417038611848635_);stroke:#000000;stroke-miterlimit:10;" d="
		M558.1,184.8v4.4H604h45.9v-4.4v-4.4H604h-45.9V184.8z"/>
	
		<linearGradient id="region-2-2_00000124843985895104299460000003757421444143742621_" gradientUnits="userSpaceOnUse" x1="-1187.335" y1="10.8582" x2="-1187.335" y2="10.3754" gradientTransform="matrix(121.5311 0 0 -122.8675 144902.2656 1551.2977)">
		<stop  offset="0" style="stop-color:#F9F6E5;stop-opacity:0.784"/>
		<stop  offset="1" style="stop-color:#F8FFFF;stop-opacity:0.81"/>
	</linearGradient>
	
		<path id="region-2-2_00000170977054214095146010000003371651781454622640_" style="fill:url(#region-2-2_00000124843985895104299460000003757421444143742621_);stroke:#000000;stroke-miterlimit:10;" d="
		M601.1,218.1c-3,1.7-3.3,3.1-3.3,13.2v8.9h-8.7c-10.5,0-12,0.4-13.5,3.7c-1.5,3.1-0.7,6.2,2.1,7.9c1.4,0.9,2.5,1,10.9,1h9.3v8.9
		c0,6.7,0.2,9.4,0.7,10.6c0.7,1.7,3.9,4.1,5.5,4.1c1.5,0,3.8-1.4,5.2-3c1.2-1.5,1.2-1.5,1.2-11.1v-9.6h9.7h9.7l1.7-1.6
		c2.3-2.1,2.8-5.5,1.2-8c-1.6-2.7-3.2-3-13.3-3h-8.9V231c0-10.4-0.3-11.5-3.5-13C604.6,216.9,603.2,216.9,601.1,218.1z"/>
	
		<linearGradient id="region-2-3_00000164515213469430031330000009060210701548212663_" gradientUnits="userSpaceOnUse" x1="-1194.5472" y1="12.5183" x2="-1194.5466" y2="12.0321" gradientTransform="matrix(269.6007 0 0 -269.4234 322659.8438 3819.3208)">
		<stop  offset="0" style="stop-color:#FFFDD2;stop-opacity:0.803"/>
		<stop  offset="1" style="stop-color:#FFFFE0;stop-opacity:0.851"/>
	</linearGradient>
	
		<path id="region-2-3_00000183250209712369281310000000118773668901344917_" style="fill:url(#region-2-3_00000164515213469430031330000009060210701548212663_);stroke:#000000;stroke-miterlimit:10;" d="
		M601.6,446.9c-8.3,1.1-14.6,3-22.5,7c-7.8,4-14.6,9.6-21.3,17.4c-5.5,6.5-10.6,17.3-12.8,27.2c-1.3,5.8-1.3,20.2,0,26
		c2.8,12.9,7.8,22.3,16.8,31.7c12.5,13,26.8,19.6,44.6,20.4c37.2,1.6,67.8-27.9,67.8-65.1c0-31-21.7-57.5-52.2-63.7
		C616.5,446.7,606.6,446.3,601.6,446.9z"/>
	
		<linearGradient id="region-2-4_00000004528018978466443640000007021202600928219826_" gradientUnits="userSpaceOnUse" x1="-1187.3572" y1="5.9042" x2="-1187.3533" y2="5.1877" gradientTransform="matrix(122.0382 0 0 -26.9212 145510.8594 767.0167)">
		<stop  offset="0" style="stop-color:#FFFED2;stop-opacity:0.815"/>
		<stop  offset="1" style="stop-color:#FFFFDC;stop-opacity:0.862"/>
	</linearGradient>
	
		<path id="region-2-4_00000175303726332471537200000008649778067201755051_" style="fill:url(#region-2-4_00000004528018978466443640000007021202600928219826_);stroke:#000000;stroke-miterlimit:10;" d="
		M583.2,608.5c-2.6,0.8-4.6,3.5-4.6,6.1c0,2,1.5,4.5,3.4,5.5c1.5,0.8,3.3,0.9,26.3,0.9c23.6,0,24.7,0,26.2-1c4.3-2.6,4-9.1-0.5-11.2
		c-1.9-0.8-3.4-0.9-25.7-0.9C595.3,608.1,584,608.3,583.2,608.5z"/>
	
		<linearGradient id="region-2-5_00000142862644611498221570000000790070104878852510_" gradientUnits="userSpaceOnUse" x1="-1194.8604" y1="2.022" x2="-1194.6672" y2="-7.4051" gradientTransform="matrix(270 0 0 -14 323139 689)">
		<stop  offset="0" style="stop-color:#706D72;stop-opacity:0.554"/>
		<stop  offset="1" style="stop-color:#918D94;stop-opacity:0.8"/>
	</linearGradient>
	
		<path id="region-2-5_00000155134295930655677080000012545344549858521740_" style="fill:url(#region-2-5_00000142862644611498221570000000790070104878852510_);stroke:#000000;stroke-miterlimit:10;" d="
		M462.9,664.1v3.4h65.2h65.2v-3.4v-3.4h-65.2h-65.2V664.1z"/>
	
		<linearGradient id="region-3-1_00000013875155800723518080000004197347302439608974_" gradientUnits="userSpaceOnUse" x1="-1192.6017" y1="10.9584" x2="-1192.5519" y2="11.8695" gradientTransform="matrix(202.42 0 0 -102.0178 242008.5 1503.25)">
		<stop  offset="0" style="stop-color:#4CB300;stop-opacity:0.85"/>
		<stop  offset="1" style="stop-color:#85C929;stop-opacity:0.694"/>
	</linearGradient>
	
		<path id="region-3-1_00000179646845683747347240000000487712671460256691_" style="fill:url(#region-3-1_00000013875155800723518080000004197347302439608974_);" d="
		M594.2,335.7c-12.9,2.7-23.7,10-31.1,21.2c-3.9,5.9-7,14.5-7.5,21c-0.1,1.9-0.3,4-0.4,4.7l-0.2,1.4h7.4h7.4l0.3-3
		c1.7-15.1,12.4-27.4,26.7-30.6c5.4-1.2,13.2-0.8,18.2,1c4.9,1.6,9.8,4.8,13.2,8.2l2.6,2.7l-3,0.8c-1.6,0.5-3,1-3,1.1
		c0.1,0.7,20.9,19.8,21.2,19.5c0.5-0.5,6.8-27.3,6.5-27.6c-0.1-0.1-1.5,0.1-3,0.6c-1.5,0.4-3,0.8-3.3,0.8c-0.2,0-1.5-1.4-2.6-3
		c-3-4.2-9.4-9.9-14-12.7C619.3,335.5,606,333.2,594.2,335.7z"/>
	
		<linearGradient id="region-3-2_00000158019755311651943790000004452987836032448944_" gradientUnits="userSpaceOnUse" x1="-1174.9214" y1="12.885" x2="-1173.7209" y2="12.8415" gradientTransform="matrix(49 0 0 -720 57696 9853)">
		<stop  offset="0" style="stop-color:#FCFEFD;stop-opacity:0.368"/>
		<stop  offset="1" style="stop-color:#FFFFFB;stop-opacity:0.27"/>
	</linearGradient>
	
		<path id="region-3-2_00000165197532161628919910000016097878202807276683_" style="fill:url(#region-3-2_00000158019755311651943790000004452987836032448944_);stroke:#000000;stroke-miterlimit:10;" d="
		M130.6,410.9c-2,0.9-3.7,2.4-4.6,4.1c-0.6,1.1-0.7,25.9-0.7,169.2v167.9l1.2,1.8c2.3,3.3,3.8,3.7,13.8,3.7h8.7V583.9V410.1h-8.3
		C134.2,410.2,131.9,410.3,130.6,410.9z"/>
	
		<linearGradient id="region-3-3_00000147198517302120779820000011058039257031777942_" gradientUnits="userSpaceOnUse" x1="-1192.6268" y1="12.0157" x2="-1192.6018" y2="11.2593" gradientTransform="matrix(203.0095 0 0 -101.4 242717.6875 1606.5983)">
		<stop  offset="0" style="stop-color:#74C21A;stop-opacity:0.709"/>
		<stop  offset="1" style="stop-color:#4AB000;stop-opacity:0.874"/>
	</linearGradient>
	
		<path id="region-3-3_00000150818227972615947690000018412723912047405216_" style="fill:url(#region-3-3_00000147198517302120779820000011058039257031777942_);" d="
		M559.3,399.5c-1.3,5.8-2.9,12.2-3.4,14.1c-0.5,2-0.9,3.6-0.8,3.7c0.1,0,1.5-0.3,3.3-0.8c1.7-0.5,3.2-1,3.4-1s1.4,1.5,2.8,3.3
		c6.3,8.5,15,14.5,25.9,17.8c4.1,1.2,4.9,1.3,13.3,1.3c10.4,0,13.4-0.6,21.1-4.3c5.8-2.8,9.6-5.5,14.2-10.2
		c8.2-8.5,12.8-18.7,13.8-30.3l0.3-4.1h-7.6H638v2.3c0,3.1-1.5,9.1-3.4,12.9c-6.2,13-21.5,21.2-35.2,19.1c-7.6-1.2-13.4-4-19-9.2
		l-3.3-3.1l3-0.9c1.6-0.5,3-1,2.8-1.2c-0.1-0.4-19-18.4-20.2-19.3C561.9,389,561.6,390,559.3,399.5z"/>
	
		<linearGradient id="region-3-4_00000143592376520736399940000015954829198695841971_" gradientUnits="userSpaceOnUse" x1="-1183.4485" y1="10.3384" x2="-1183.4485" y2="9.8558" gradientTransform="matrix(77 0 0 -45 91346 1123)">
		<stop  offset="0" style="stop-color:#FAFCF9;stop-opacity:0.174"/>
		<stop  offset="1" style="stop-color:#FFFFFF;stop-opacity:0.226"/>
	</linearGradient>
	
		<path id="region-3-4_00000170968295428671233190000002524486170613729938_" style="fill:url(#region-3-4_00000143592376520736399940000015954829198695841971_);stroke:#000000;stroke-miterlimit:10;" d="
		M201.9,663.9c0,3.4,0.2,7,0.5,7.9c0.7,2.5,3.2,5.3,6,6.6c2.4,1.1,2.8,1.2,16.6,1.2h14.1v-10.9v-10.9h-18.6h-18.6L201.9,663.9
		L201.9,663.9z"/>
	<line class="st31" x1="431" y1="420" x2="544" y2="477"/>
	<line class="st31" x1="422" y1="362" x2="557" y2="362"/>
	<line class="st31" x1="422" y1="400" x2="557" y2="400"/>
	<line class="st31" x1="401" y1="493" x2="575" y2="608"/>
	<line class="st31" x1="438" y1="540" x2="520" y2="654"/>
	<line class="st31" x1="401" y1="551" x2="360" y2="654"/>
	<line class="st31" x1="334" y1="551" x2="229" y2="651"/>
	<line class="st31" x1="320" y1="500" x2="155" y2="562"/>
	<line class="st31" x1="339" y1="326" x2="208" y2="293"/>
	<line class="st31" x1="339" y1="207" x2="200" y2="125"/>
	<line class="st31" x1="355" y1="160" x2="333" y2="104"/>
	<line class="st31" x1="392" y1="160" x2="422" y2="106"/>
	<line class="st31" x1="422" y1="184" x2="547" y2="184"/>
	<line class="st31" x1="401" y1="246" x2="570" y2="246"/>
</g>
</svg>
