<?xml version="1.0" standalone="no"?>
<!DOCTYPE svg PUBLIC "-//W3C//DTD SVG 20010904//EN"
 "http://www.w3.org/TR/2001/REC-SVG-20010904/DTD/svg10.dtd">
<svg version="1.0" xmlns="http://www.w3.org/2000/svg"
 width="410.000000pt" height="881.000000pt" viewBox="0 0 410.000000 881.000000"
 preserveAspectRatio="xMidYMid meet">
<defs>
<linearGradient id="grad_0" x1="0%" y1="100%" x2="100%" y2="100%">
<stop offset="0%" style="stop-color:rgb(254, 254, 254); stop-opacity:1"/>
<stop offset="100%" style="stop-color:rgb(254, 254, 254); stop-opacity:1"/>
</linearGradient>
<linearGradient id="grad_1" x1="99%" y1="6%" x2="-5%" y2="84%">
<stop offset="0%" style="stop-color:rgb(255, 176, 1); stop-opacity:1"/>
<stop offset="100%" style="stop-color:rgb(254, 176, 1); stop-opacity:1"/>
</linearGradient>
<linearGradient id="grad_2" x1="0%" y1="0%" x2="100%" y2="0%">
<stop offset="0%" style="stop-color:rgb(121, 193, 36); stop-opacity:1"/>
<stop offset="100%" style="stop-color:rgb(121, 193, 36); stop-opacity:1"/>
</linearGradient>
<linearGradient id="grad_3" x1="56%" y1="0%" x2="55%" y2="109%">
<stop offset="0%" style="stop-color:rgb(119, 192, 34); stop-opacity:1"/>
<stop offset="100%" style="stop-color:rgb(124, 194, 40); stop-opacity:1"/>
</linearGradient>
<linearGradient id="grad_4" x1="100%" y1="100%" x2="-10%" y2="20%">
<stop offset="0%" style="stop-color:rgb(85, 85, 85); stop-opacity:0.889375"/>
<stop offset="100%" style="stop-color:rgb(85, 85, 85); stop-opacity:0.895294"/>
</linearGradient>
<linearGradient id="grad_5" x1="0%" y1="100%" x2="100%" y2="100%">
<stop offset="0%" style="stop-color:rgb(74, 102, 255); stop-opacity:0.541403"/>
<stop offset="100%" style="stop-color:rgb(74, 102, 255); stop-opacity:0.541403"/>
</linearGradient>
<linearGradient id="grad_6" x1="0%" y1="100%" x2="100%" y2="100%">
<stop offset="0%" style="stop-color:rgb(80, 127, 255); stop-opacity:0.59983"/>
<stop offset="100%" style="stop-color:rgb(80, 127, 255); stop-opacity:0.59983"/>
</linearGradient>
<linearGradient id="grad_7" x1="0%" y1="100%" x2="100%" y2="100%">
<stop offset="0%" style="stop-color:rgb(82, 127, 255); stop-opacity:0.600704"/>
<stop offset="100%" style="stop-color:rgb(82, 127, 255); stop-opacity:0.600704"/>
</linearGradient>
<linearGradient id="grad_8" x1="0%" y1="55%" x2="100%" y2="55%">
<stop offset="0%" style="stop-color:rgb(248, 254, 255); stop-opacity:0.770112"/>
<stop offset="100%" style="stop-color:rgb(248, 254, 255); stop-opacity:0.770112"/>
</linearGradient>
<linearGradient id="grad_9" x1="0%" y1="100%" x2="100%" y2="100%">
<stop offset="0%" style="stop-color:rgb(165, 187, 255); stop-opacity:0.748843"/>
<stop offset="100%" style="stop-color:rgb(165, 187, 255); stop-opacity:0.748843"/>
</linearGradient>
<linearGradient id="grad_10" x1="0%" y1="100%" x2="100%" y2="100%">
<stop offset="0%" style="stop-color:rgb(123, 160, 255); stop-opacity:0.662276"/>
<stop offset="100%" style="stop-color:rgb(123, 160, 255); stop-opacity:0.662276"/>
</linearGradient>
<linearGradient id="grad_11" x1="0%" y1="61%" x2="100%" y2="61%">
<stop offset="0%" style="stop-color:rgb(246, 253, 255); stop-opacity:0.767185"/>
<stop offset="100%" style="stop-color:rgb(246, 253, 255); stop-opacity:0.767185"/>
</linearGradient>
<linearGradient id="grad_12" x1="0%" y1="100%" x2="100%" y2="100%">
<stop offset="0%" style="stop-color:rgb(164, 186, 255); stop-opacity:0.747838"/>
<stop offset="100%" style="stop-color:rgb(164, 186, 255); stop-opacity:0.747838"/>
</linearGradient>
<linearGradient id="grad_13" x1="0%" y1="94%" x2="100%" y2="94%">
<stop offset="0%" style="stop-color:rgb(254, 255, 255); stop-opacity:0.2994"/>
<stop offset="100%" style="stop-color:rgb(254, 255, 255); stop-opacity:0.2994"/>
</linearGradient>
<linearGradient id="grad_14" x1="0%" y1="57%" x2="100%" y2="57%">
<stop offset="0%" style="stop-color:rgb(198, 212, 255); stop-opacity:0.820545"/>
<stop offset="100%" style="stop-color:rgb(198, 212, 255); stop-opacity:0.820545"/>
</linearGradient>
<linearGradient id="grad_15" x1="0%" y1="100%" x2="100%" y2="100%">
<stop offset="0%" style="stop-color:rgb(197, 211, 255); stop-opacity:0.819773"/>
<stop offset="100%" style="stop-color:rgb(197, 211, 255); stop-opacity:0.819773"/>
</linearGradient>
<linearGradient id="grad_16" x1="0%" y1="51%" x2="100%" y2="51%">
<stop offset="0%" style="stop-color:rgb(248, 255, 255); stop-opacity:0.768752"/>
<stop offset="100%" style="stop-color:rgb(248, 255, 255); stop-opacity:0.768752"/>
</linearGradient>
</defs>
<g transform="translate(0.000000,881.000000) scale(0.100000,-0.100000)"
fill="url(#grad_0)" stroke="none">
<g>
<path d="M0 4405 l0 -4405 2050 0 2050 0 0 4405 0 4405 -2050 0 -2050 0 0
-4405z"/>
</g>
</g>
<g transform="translate(0.000000,881.000000) scale(0.100000,-0.100000)"
fill="url(#grad_1)" stroke="none">
<g>
<path d="M1358 8636 c-89 -24 -168 -107 -187 -197 -6 -28 -11 -160 -11 -299
l0 -250 -265 0 c-217 0 -272 -3 -303 -15 -43 -19 -79 -50 -98 -87 -12 -23 -14
-537 -14 -3505 l0 -3478 25 -38 c32 -47 91 -77 150 -77 l45 0 0 -127 c0 -71 4
-144 10 -163 14 -52 67 -109 124 -136 l51 -24 1159 0 c859 0 1169 3 1198 12
48 14 120 76 142 122 12 26 16 66 16 175 l0 141 44 0 c79 0 144 40 172 107 12
27 14 576 14 3490 l0 3457 -21 44 c-13 26 -38 54 -62 70 -40 27 -41 27 -264
30 l-223 3 0 272 c0 264 -1 273 -24 322 -29 63 -77 112 -136 139 -44 21 -58
21 -770 23 -561 1 -736 -1 -772 -11z"/>
</g>
</g>
<g transform="translate(0.000000,881.000000) scale(0.100000,-0.100000)"
fill="url(#grad_2)" stroke="none">
<g>
<path d="M1845 4850 c-267 -56 -490 -208 -645 -439 -81 -122 -145 -300 -156
-435 -3 -39 -7 -83 -9 -98 l-4 -28 153 0 153 0 7 63 c35 313 256 567 553 633
111 24 274 16 378 -20 101 -34 204 -99 274 -170 l54 -55 -61 -17 c-34 -10 -62
-20 -61 -23 2 -15 433 -411 439 -404 10 11 141 565 135 571 -2 3 -31 -3 -63
-12 -32 -9 -63 -16 -68 -16 -5 0 -30 28 -54 61 -63 87 -194 205 -289 263 -216
130 -491 177 -736 126z"/>
</g>
</g>
<g transform="translate(0.000000,881.000000) scale(0.100000,-0.100000)"
fill="url(#grad_3)" stroke="none">
<g>
<path d="M1130 3533 c-28 -120 -60 -252 -70 -293 -11 -41 -18 -75 -17 -77 2
-1 32 6 68 17 35 11 67 20 70 20 3 0 29 -31 57 -68 131 -176 311 -300 537
-369 84 -25 102 -27 275 -27 215 0 277 13 437 89 121 57 199 113 294 211 169
175 265 387 285 628 l7 86 -157 0 -156 0 0 -48 c0 -65 -32 -188 -70 -267 -128
-269 -445 -440 -730 -396 -158 25 -277 83 -393 191 l-69 65 61 18 c34 10 61
21 59 25 -3 8 -394 380 -419 400 -15 11 -22 -9 -69 -205z"/>
</g>
</g>
<g transform="translate(0.000000,881.000000) scale(0.100000,-0.100000)"
fill="url(#grad_4)" stroke="none">
<g>
<path d="M970 5059 l0 -450 48 58 c190 228 464 390 765 454 145 31 389 31 534
1 365 -78 661 -278 860 -580 268 -407 297 -921 76 -1355 -242 -475 -725 -756
-1258 -734 -366 16 -664 152 -921 420 l-104 108 0 -1145 0 -1146 1260 0 c1048
0 1266 2 1293 14 39 16 82 61 96 99 8 20 11 739 11 2368 l0 2339 -1330 0
-1330 0 0 -451z m1617 -3358 c93 -43 99 -177 10 -231 -31 -19 -54 -20 -542
-20 -475 0 -513 1 -544 18 -39 21 -71 73 -71 115 0 54 43 111 96 127 16 4 250
9 519 9 461 1 492 -1 532 -18z"/>
</g>
</g>
<g transform="translate(0.000000,881.000000) scale(0.100000,-0.100000)"
fill="url(#grad_5)" stroke="none">
<g>
<path d="M480 3157 l0 -2352 25 -38 c47 -68 79 -77 285 -77 l180 0 0 1145 0
1144 -51 78 c-91 141 -158 301 -196 475 -26 119 -25 419 1 538 36 165 116 354
205 485 l41 60 0 448 0 447 -245 0 -245 0 0 -2353z"/>
</g>
</g>
<g transform="translate(0.000000,881.000000) scale(0.100000,-0.100000)"
fill="url(#grad_6)" stroke="none">
<g>
<path d="M700 620 l0 -70 1350 0 1350 0 0 70 0 70 -1350 0 -1350 0 0 -70z"/>
</g>
</g>
<g transform="translate(0.000000,881.000000) scale(0.100000,-0.100000)"
fill="url(#grad_7)" stroke="none">
<g>
<path d="M1820 7980 l0 -90 620 0 620 0 0 90 0 90 -620 0 -620 0 0 -90z"/>
</g>
</g>
<g transform="translate(0.000000,881.000000) scale(0.100000,-0.100000)"
fill="url(#grad_8)" stroke="none">
<g>
<path d="M1896 5140 c-172 -22 -303 -63 -466 -146 -162 -83 -303 -198 -442
-361 -115 -135 -220 -358 -264 -563 -26 -119 -27 -419 -1 -538 59 -268 162
-462 349 -657 259 -270 556 -406 923 -422 770 -33 1405 577 1405 1348 0 643
-449 1191 -1081 1319 -114 24 -320 33 -423 20z m339 -285 c113 -20 244 -69
346 -131 95 -58 226 -176 289 -263 24 -33 49 -61 54 -61 5 0 36 7 68 16 32 9
61 15 63 12 6 -6 -125 -560 -135 -571 -6 -7 -437 389 -439 404 -1 3 27 13 61
23 l61 17 -54 55 c-70 71 -173 136 -274 170 -104 36 -267 44 -378 20 -297 -66
-518 -320 -553 -633 l-7 -63 -153 0 -153 0 4 28 c2 15 6 59 9 98 7 83 44 217
85 308 107 235 324 434 581 530 141 53 360 70 525 41z m-820 -1320 c110 -104
201 -193 203 -197 2 -4 -25 -15 -59 -25 l-61 -18 69 -65 c116 -108 235 -166
393 -191 234 -36 491 70 649 269 86 107 151 277 151 394 l0 48 156 0 157 0 -7
-86 c-20 -241 -116 -453 -285 -628 -95 -98 -173 -154 -294 -211 -160 -76 -222
-89 -437 -89 -173 0 -191 2 -275 27 -226 69 -406 193 -537 369 -28 37 -54 68
-57 68 -3 0 -35 -9 -70 -20 -36 -11 -66 -18 -68 -17 -1 2 6 36 17 77 10 41 42
173 70 293 47 196 54 216 69 205 9 -7 106 -98 216 -203z"/>
</g>
</g>
<g transform="translate(0.000000,881.000000) scale(0.100000,-0.100000)"
fill="url(#grad_9)" stroke="none">
<g>
<path d="M1820 8360 l0 -290 620 0 620 0 0 183 c0 170 -2 185 -24 232 -29 63
-77 112 -136 139 -44 20 -62 21 -562 24 l-518 3 0 -291z"/>
</g>
</g>
<g transform="translate(0.000000,881.000000) scale(0.100000,-0.100000)"
fill="url(#grad_10)" stroke="none">
<g>
<path d="M1160 7980 l0 -90 330 0 330 0 0 90 0 90 -330 0 -330 0 0 -90z"/>
</g>
</g>
<g transform="translate(0.000000,881.000000) scale(0.100000,-0.100000)"
fill="url(#grad_11)" stroke="none">
<g>
<path d="M1536 1710 c-53 -16 -96 -73 -96 -127 0 -42 32 -94 71 -115 31 -17
69 -18 544 -18 488 0 511 1 542 20 89 54 83 188 -10 231 -40 17 -71 19 -532
18 -269 0 -503 -5 -519 -9z"/>
</g>
</g>
<g transform="translate(0.000000,881.000000) scale(0.100000,-0.100000)"
fill="url(#grad_12)" stroke="none">
<g>
<path d="M1470 395 l0 -155 866 0 c635 0 877 3 906 12 48 14 120 76 142 122
10 21 16 60 16 105 l0 71 -965 0 -965 0 0 -155z"/>
</g>
</g>
<g transform="translate(0.000000,881.000000) scale(0.100000,-0.100000)"
fill="url(#grad_13)" stroke="none">
<g>
<path d="M590 7874 c-19 -8 -45 -25 -58 -37 -55 -51 -52 12 -52 -1202 l0
-1125 245 0 245 0 0 1190 0 1190 -172 0 c-132 -1 -181 -4 -208 -16z"/>
</g>
</g>
<g transform="translate(0.000000,881.000000) scale(0.100000,-0.100000)"
fill="url(#grad_14)" stroke="none">
<g>
<path d="M1358 8636 c-89 -24 -168 -107 -187 -197 -6 -27 -11 -122 -11 -209
l0 -160 330 0 330 0 0 290 0 290 -207 -1 c-134 0 -225 -5 -255 -13z"/>
</g>
</g>
<g transform="translate(0.000000,881.000000) scale(0.100000,-0.100000)"
fill="url(#grad_15)" stroke="none">
<g>
<path d="M700 493 c0 -32 4 -74 10 -93 14 -52 67 -109 124 -136 50 -23 57 -24
344 -24 l292 0 0 155 0 155 -385 0 -385 0 0 -57z"/>
</g>
</g>
<g transform="translate(0.000000,881.000000) scale(0.100000,-0.100000)"
fill="url(#grad_16)" stroke="none">
<g>
<path d="M1989 7289 c-62 -36 -69 -65 -69 -274 l0 -185 -180 0 c-218 0 -248
-8 -280 -76 -32 -65 -15 -129 43 -164 29 -18 52 -20 225 -20 l192 0 0 -185 c0
-138 4 -194 14 -220 15 -35 81 -85 114 -85 30 0 79 28 107 61 25 30 25 31 25
230 l0 199 200 0 200 0 36 33 c47 43 57 113 24 165 -34 55 -66 62 -275 62
l-185 0 0 193 c0 216 -6 239 -73 270 -46 22 -74 21 -118 -4z"/>
</g>
</g>
</svg>
