<?xml version="1.0" standalone="no"?>
<!DOCTYPE svg PUBLIC "-//W3C//DTD SVG 20010904//EN"
 "http://www.w3.org/TR/2001/REC-SVG-20010904/DTD/svg10.dtd">
<svg version="1.0" xmlns="http://www.w3.org/2000/svg"
 width="1452.000000pt" height="737.000000pt" viewBox="0 0 1452.000000 737.000000"
 preserveAspectRatio="xMidYMid meet">
<defs>
<linearGradient id="grad_0" x1="0%" y1="100%" x2="100%" y2="100%">
<stop offset="0%" style="stop-color:rgb(254, 254, 254); stop-opacity:1"/>
<stop offset="100%" style="stop-color:rgb(254, 254, 254); stop-opacity:1"/>
</linearGradient>
<linearGradient id="grad_1" x1="4%" y1="0%" x2="8%" y2="146%">
<stop offset="0%" style="stop-color:rgb(214, 3, 12); stop-opacity:1"/>
<stop offset="100%" style="stop-color:rgb(187, 101, 101); stop-opacity:1"/>
</linearGradient>
<linearGradient id="grad_2" x1="2%" y1="100%" x2="7%" y2="-13%">
<stop offset="0%" style="stop-color:rgb(230, 118, 118); stop-opacity:1"/>
<stop offset="100%" style="stop-color:rgb(231, 124, 123); stop-opacity:1"/>
</linearGradient>
<linearGradient id="grad_3" x1="4%" y1="83%" x2="61%" y2="-4%">
<stop offset="0%" style="stop-color:rgb(163, 210, 200); stop-opacity:1"/>
<stop offset="100%" style="stop-color:rgb(162, 211, 201); stop-opacity:1"/>
</linearGradient>
<linearGradient id="grad_4" x1="0%" y1="62%" x2="100%" y2="62%">
<stop offset="0%" style="stop-color:rgb(231, 122, 122); stop-opacity:1"/>
<stop offset="100%" style="stop-color:rgb(231, 122, 122); stop-opacity:1"/>
</linearGradient>
<linearGradient id="grad_5" x1="0%" y1="93%" x2="100%" y2="93%">
<stop offset="0%" style="stop-color:rgb(43, 111, 115); stop-opacity:1"/>
<stop offset="100%" style="stop-color:rgb(43, 111, 115); stop-opacity:1"/>
</linearGradient>
<linearGradient id="grad_6" x1="0%" y1="79%" x2="100%" y2="79%">
<stop offset="0%" style="stop-color:rgb(86, 182, 160); stop-opacity:1"/>
<stop offset="100%" style="stop-color:rgb(86, 182, 160); stop-opacity:1"/>
</linearGradient>
<linearGradient id="grad_7" x1="0%" y1="96%" x2="100%" y2="96%">
<stop offset="0%" style="stop-color:rgb(86, 182, 160); stop-opacity:1"/>
<stop offset="100%" style="stop-color:rgb(86, 182, 160); stop-opacity:1"/>
</linearGradient>
<linearGradient id="grad_8" x1="0%" y1="96%" x2="100%" y2="96%">
<stop offset="0%" style="stop-color:rgb(148, 34, 54); stop-opacity:1"/>
<stop offset="100%" style="stop-color:rgb(148, 34, 54); stop-opacity:1"/>
</linearGradient>
<linearGradient id="grad_9" x1="0%" y1="50%" x2="100%" y2="50%">
<stop offset="0%" style="stop-color:rgb(239, 228, 176); stop-opacity:1"/>
<stop offset="100%" style="stop-color:rgb(239, 228, 176); stop-opacity:1"/>
</linearGradient>
<linearGradient id="grad_10" x1="0%" y1="90%" x2="100%" y2="90%">
<stop offset="0%" style="stop-color:rgb(255, 255, 255); stop-opacity:1"/>
<stop offset="100%" style="stop-color:rgb(255, 255, 255); stop-opacity:1"/>
</linearGradient>
<linearGradient id="grad_11" x1="0%" y1="15%" x2="100%" y2="15%">
<stop offset="0%" style="stop-color:rgb(160, 55, 62); stop-opacity:1"/>
<stop offset="100%" style="stop-color:rgb(160, 55, 62); stop-opacity:1"/>
</linearGradient>
<linearGradient id="grad_12" x1="0%" y1="13%" x2="137%" y2="44%">
<stop offset="0%" style="stop-color:rgb(217, 62, 71); stop-opacity:1"/>
<stop offset="100%" style="stop-color:rgb(221, 63, 72); stop-opacity:1"/>
</linearGradient>
<linearGradient id="grad_13" x1="0%" y1="45%" x2="100%" y2="45%">
<stop offset="0%" style="stop-color:rgb(231, 122, 122); stop-opacity:1"/>
<stop offset="100%" style="stop-color:rgb(231, 122, 122); stop-opacity:1"/>
</linearGradient>
<linearGradient id="grad_14" x1="33%" y1="100%" x2="74%" y2="-3%">
<stop offset="0%" style="stop-color:rgb(161, 88, 47); stop-opacity:1"/>
<stop offset="100%" style="stop-color:rgb(172, 100, 54); stop-opacity:1"/>
</linearGradient>
<linearGradient id="grad_15" x1="0%" y1="85%" x2="100%" y2="85%">
<stop offset="0%" style="stop-color:rgb(186, 200, 201); stop-opacity:1"/>
<stop offset="100%" style="stop-color:rgb(186, 200, 201); stop-opacity:1"/>
</linearGradient>
<linearGradient id="grad_16" x1="0%" y1="100%" x2="100%" y2="100%">
<stop offset="0%" style="stop-color:rgb(210, 33, 40); stop-opacity:1"/>
<stop offset="100%" style="stop-color:rgb(210, 33, 40); stop-opacity:1"/>
</linearGradient>
<linearGradient id="grad_17" x1="0%" y1="75%" x2="100%" y2="75%">
<stop offset="0%" style="stop-color:rgb(27, 24, 27); stop-opacity:1"/>
<stop offset="100%" style="stop-color:rgb(27, 24, 27); stop-opacity:1"/>
</linearGradient>
<linearGradient id="grad_18" x1="87%" y1="24%" x2="-23%" y2="65%">
<stop offset="0%" style="stop-color:rgb(68, 38, 47); stop-opacity:1"/>
<stop offset="100%" style="stop-color:rgb(74, 47, 53); stop-opacity:1"/>
</linearGradient>
<linearGradient id="grad_19" x1="0%" y1="62%" x2="100%" y2="62%">
<stop offset="0%" style="stop-color:rgb(8, 53, 43); stop-opacity:1"/>
<stop offset="100%" style="stop-color:rgb(8, 53, 43); stop-opacity:1"/>
</linearGradient>
<linearGradient id="grad_20" x1="0%" y1="53%" x2="100%" y2="53%">
<stop offset="0%" style="stop-color:rgb(137, 141, 147); stop-opacity:1"/>
<stop offset="100%" style="stop-color:rgb(137, 141, 147); stop-opacity:1"/>
</linearGradient>
<linearGradient id="grad_21" x1="0%" y1="48%" x2="100%" y2="48%">
<stop offset="0%" style="stop-color:rgb(238, 227, 175); stop-opacity:1"/>
<stop offset="100%" style="stop-color:rgb(238, 227, 175); stop-opacity:1"/>
</linearGradient>
<linearGradient id="grad_22" x1="100%" y1="85%" x2="39%" y2="2%">
<stop offset="0%" style="stop-color:rgb(133, 134, 136); stop-opacity:1"/>
<stop offset="100%" style="stop-color:rgb(137, 138, 140); stop-opacity:1"/>
</linearGradient>
<linearGradient id="grad_23" x1="61%" y1="95%" x2="-50%" y2="51%">
<stop offset="0%" style="stop-color:rgb(118, 53, 37); stop-opacity:1"/>
<stop offset="100%" style="stop-color:rgb(102, 45, 42); stop-opacity:1"/>
</linearGradient>
<linearGradient id="grad_24" x1="0%" y1="88%" x2="100%" y2="88%">
<stop offset="0%" style="stop-color:rgb(255, 255, 255); stop-opacity:1"/>
<stop offset="100%" style="stop-color:rgb(255, 255, 255); stop-opacity:1"/>
</linearGradient>
<linearGradient id="grad_25" x1="0%" y1="100%" x2="100%" y2="100%">
<stop offset="0%" style="stop-color:rgb(136, 137, 139); stop-opacity:1"/>
<stop offset="100%" style="stop-color:rgb(136, 137, 139); stop-opacity:1"/>
</linearGradient>
<linearGradient id="grad_26" x1="0%" y1="100%" x2="100%" y2="100%">
<stop offset="0%" style="stop-color:rgb(138, 45, 50); stop-opacity:1"/>
<stop offset="100%" style="stop-color:rgb(138, 45, 50); stop-opacity:1"/>
</linearGradient>
<linearGradient id="grad_27" x1="0%" y1="43%" x2="100%" y2="43%">
<stop offset="0%" style="stop-color:rgb(255, 255, 255); stop-opacity:1"/>
<stop offset="100%" style="stop-color:rgb(255, 255, 255); stop-opacity:1"/>
</linearGradient>
<linearGradient id="grad_28" x1="0%" y1="85%" x2="100%" y2="85%">
<stop offset="0%" style="stop-color:rgb(8, 53, 43); stop-opacity:1"/>
<stop offset="100%" style="stop-color:rgb(8, 53, 43); stop-opacity:1"/>
</linearGradient>
<linearGradient id="grad_29" x1="0%" y1="85%" x2="100%" y2="85%">
<stop offset="0%" style="stop-color:rgb(8, 53, 43); stop-opacity:1"/>
<stop offset="100%" style="stop-color:rgb(8, 53, 43); stop-opacity:1"/>
</linearGradient>
<linearGradient id="grad_30" x1="0%" y1="85%" x2="100%" y2="85%">
<stop offset="0%" style="stop-color:rgb(8, 53, 43); stop-opacity:1"/>
<stop offset="100%" style="stop-color:rgb(8, 53, 43); stop-opacity:1"/>
</linearGradient>
<linearGradient id="grad_31" x1="55%" y1="100%" x2="-2%" y2="4%">
<stop offset="0%" style="stop-color:rgb(85, 85, 85); stop-opacity:0.87428"/>
<stop offset="100%" style="stop-color:rgb(85, 85, 85); stop-opacity:0.874539"/>
</linearGradient>
<linearGradient id="grad_32" x1="8%" y1="66%" x2="74%" y2="62%">
<stop offset="0%" style="stop-color:rgb(127, 127, 127); stop-opacity:0.722133"/>
<stop offset="100%" style="stop-color:rgb(127, 127, 127); stop-opacity:0.763971"/>
</linearGradient>
<linearGradient id="grad_33" x1="25%" y1="95%" x2="144%" y2="44%">
<stop offset="0%" style="stop-color:rgb(255, 0, 0); stop-opacity:0.664667"/>
<stop offset="100%" style="stop-color:rgb(255, 0, 0); stop-opacity:0.669254"/>
</linearGradient>
<linearGradient id="grad_34" x1="0%" y1="99%" x2="100%" y2="99%">
<stop offset="0%" style="stop-color:rgb(0, 0, 0); stop-opacity:0.547701"/>
<stop offset="100%" style="stop-color:rgb(0, 0, 0); stop-opacity:0.547701"/>
</linearGradient>
<linearGradient id="grad_35" x1="0%" y1="100%" x2="100%" y2="100%">
<stop offset="0%" style="stop-color:rgb(0, 0, 0); stop-opacity:0.540701"/>
<stop offset="100%" style="stop-color:rgb(0, 0, 0); stop-opacity:0.540701"/>
</linearGradient>
<linearGradient id="grad_36" x1="86%" y1="100%" x2="57%" y2="-17%">
<stop offset="0%" style="stop-color:rgb(255, 255, 255); stop-opacity:0.718"/>
<stop offset="100%" style="stop-color:rgb(255, 255, 255); stop-opacity:0.719052"/>
</linearGradient>
<linearGradient id="grad_37" x1="0%" y1="2%" x2="100%" y2="2%">
<stop offset="0%" style="stop-color:rgb(0, 0, 0); stop-opacity:0.386058"/>
<stop offset="100%" style="stop-color:rgb(0, 0, 0); stop-opacity:0.386058"/>
</linearGradient>
<linearGradient id="grad_38" x1="95%" y1="76%" x2="-9%" y2="67%">
<stop offset="0%" style="stop-color:rgb(51, 51, 51); stop-opacity:0.751516"/>
<stop offset="100%" style="stop-color:rgb(51, 51, 51); stop-opacity:0.752815"/>
</linearGradient>
<linearGradient id="grad_39" x1="0%" y1="53%" x2="100%" y2="53%">
<stop offset="0%" style="stop-color:rgb(0, 0, 0); stop-opacity:0.327475"/>
<stop offset="100%" style="stop-color:rgb(0, 0, 0); stop-opacity:0.327475"/>
</linearGradient>
<linearGradient id="grad_40" x1="0%" y1="98%" x2="100%" y2="98%">
<stop offset="0%" style="stop-color:rgb(0, 0, 0); stop-opacity:0.381584"/>
<stop offset="100%" style="stop-color:rgb(0, 0, 0); stop-opacity:0.381584"/>
</linearGradient>
<linearGradient id="grad_41" x1="99%" y1="66%" x2="0%" y2="64%">
<stop offset="0%" style="stop-color:rgb(255, 0, 0); stop-opacity:0.639884"/>
<stop offset="100%" style="stop-color:rgb(255, 0, 0); stop-opacity:0.675736"/>
</linearGradient>
<linearGradient id="grad_42" x1="0%" y1="100%" x2="100%" y2="100%">
<stop offset="0%" style="stop-color:rgb(0, 0, 0); stop-opacity:0.275398"/>
<stop offset="100%" style="stop-color:rgb(0, 0, 0); stop-opacity:0.275398"/>
</linearGradient>
<linearGradient id="grad_43" x1="0%" y1="70%" x2="100%" y2="70%">
<stop offset="0%" style="stop-color:rgb(0, 0, 0); stop-opacity:0.672709"/>
<stop offset="100%" style="stop-color:rgb(0, 0, 0); stop-opacity:0.672709"/>
</linearGradient>
<linearGradient id="grad_44" x1="0%" y1="100%" x2="100%" y2="100%">
<stop offset="0%" style="stop-color:rgb(0, 0, 0); stop-opacity:0.283472"/>
<stop offset="100%" style="stop-color:rgb(0, 0, 0); stop-opacity:0.283472"/>
</linearGradient>
<linearGradient id="grad_45" x1="0%" y1="58%" x2="100%" y2="58%">
<stop offset="0%" style="stop-color:rgb(0, 0, 0); stop-opacity:0.679792"/>
<stop offset="100%" style="stop-color:rgb(0, 0, 0); stop-opacity:0.679792"/>
</linearGradient>
<linearGradient id="grad_46" x1="95%" y1="0%" x2="-99%" y2="18%">
<stop offset="0%" style="stop-color:rgb(31, 31, 31); stop-opacity:0.967133"/>
<stop offset="100%" style="stop-color:rgb(31, 31, 31); stop-opacity:0.972558"/>
</linearGradient>
<linearGradient id="grad_47" x1="0%" y1="53%" x2="100%" y2="53%">
<stop offset="0%" style="stop-color:rgb(255, 52, 44); stop-opacity:0.215657"/>
<stop offset="100%" style="stop-color:rgb(255, 52, 44); stop-opacity:0.215657"/>
</linearGradient>
<linearGradient id="grad_48" x1="50%" y1="100%" x2="349%" y2="24%">
<stop offset="0%" style="stop-color:rgb(255, 255, 255); stop-opacity:0.977736"/>
<stop offset="100%" style="stop-color:rgb(255, 255, 255); stop-opacity:0.990855"/>
</linearGradient>
<linearGradient id="grad_49" x1="24%" y1="93%" x2="159%" y2="61%">
<stop offset="0%" style="stop-color:rgb(127, 127, 127); stop-opacity:0.851394"/>
<stop offset="100%" style="stop-color:rgb(127, 127, 127); stop-opacity:0.853535"/>
</linearGradient>
<linearGradient id="grad_50" x1="97%" y1="94%" x2="-45%" y2="71%">
<stop offset="0%" style="stop-color:rgb(255, 255, 255); stop-opacity:0.290107"/>
<stop offset="100%" style="stop-color:rgb(255, 255, 255); stop-opacity:0.294091"/>
</linearGradient>
<linearGradient id="grad_51" x1="23%" y1="6%" x2="154%" y2="41%">
<stop offset="0%" style="stop-color:rgb(63, 63, 63); stop-opacity:0.725982"/>
<stop offset="100%" style="stop-color:rgb(63, 63, 63); stop-opacity:0.728975"/>
</linearGradient>
</defs>
<g transform="translate(0.000000,737.000000) scale(0.100000,-0.100000)"
fill="url(#grad_0)" stroke="none">
<g>
<path d="M0 3685 l0 -3685 7260 0 7260 0 0 3685 0 3685 -7260 0 -7260 0 0
-3685z"/>
</g>
</g>
<g transform="translate(0.000000,737.000000) scale(0.100000,-0.100000)"
fill="url(#grad_1)" stroke="none">
<g>
<path d="M13965 3077 c-77 -5 -142 -13 -145 -17 -6 -9 -285 -25 -680 -40 -267
-11 -986 -23 -2059 -36 l-584 -7 8 -136 c4 -75 8 -138 10 -140 2 -2 160 -6
350 -9 l346 -5 -25 38 c-18 26 -26 51 -26 82 0 62 19 129 42 150 19 17 81 18
1320 21 l1301 2 72 -39 c77 -41 206 -141 248 -191 14 -17 32 -30 40 -30 18 0
27 80 27 246 l0 124 -52 -2 c-29 -1 -116 -6 -193 -11z"/>
</g>
</g>
<g transform="translate(0.000000,737.000000) scale(0.100000,-0.100000)"
fill="url(#grad_2)" stroke="none">
<g>
<path d="M11235 2973 c-65 -16 -75 -87 -20 -139 66 -62 310 -160 820 -329 970
-322 1805 -506 2235 -493 108 3 131 7 166 27 58 32 67 54 63 148 -3 67 -10 91
-41 154 -46 94 -145 227 -263 353 -107 116 -203 195 -299 247 l-71 39 -1285
-1 c-707 -1 -1294 -4 -1305 -6z"/>
</g>
</g>
<g transform="translate(0.000000,737.000000) scale(0.100000,-0.100000)"
fill="url(#grad_3)" stroke="none">
<g>
<path d="M8500 5094 c-87 -23 -141 -54 -201 -114 -39 -39 -61 -70 -72 -105
-10 -31 -26 -168 -42 -355 -15 -168 -32 -361 -38 -430 l-12 -125 -65 -7 c-343
-34 -966 -34 -1165 1 -164 28 -340 76 -333 89 54 103 82 175 98 253 35 166 22
379 -34 571 -27 93 -84 228 -96 228 -4 0 -42 -53 -85 -117 -75 -113 -77 -118
-65 -148 54 -133 69 -297 36 -410 -10 -33 -22 -65 -27 -72 -7 -7 10 -55 50
-145 34 -75 55 -135 49 -137 -19 -7 -313 149 -404 214 -171 123 -340 288 -449
437 l-20 28 -200 -10 c-227 -10 -3571 -379 -3690 -406 -318 -73 -604 -312
-749 -625 -47 -102 -46 -100 -14 -137 97 -112 142 -315 118 -530 -6 -57 -20
-133 -31 -169 -12 -36 -19 -73 -16 -82 3 -9 25 -86 50 -171 26 -85 67 -236 92
-335 52 -204 44 -192 180 -270 99 -56 201 -89 325 -105 151 -19 542 -70 580
-76 l35 -5 -3 -112 c-20 -653 353 -1233 875 -1364 102 -26 322 -23 428 5 179
48 376 174 506 324 191 221 317 530 345 841 7 75 8 77 33 77 l26 0 0 -237 c0
-208 3 -251 23 -339 31 -145 65 -242 132 -379 154 -317 407 -540 700 -615 74
-19 105 -21 245 -18 153 4 165 5 263 40 56 19 139 57 183 84 97 58 247 197
319 294 187 253 289 575 290 918 l0 112 53 -1 c28 0 144 -4 257 -9 113 -5 556
-14 985 -20 429 -5 799 -13 823 -16 l42 -5 0 -52 c0 -223 83 -482 205 -645 99
-132 243 -234 390 -278 82 -25 248 -25 330 0 317 95 543 405 586 807 l12 110
336 -8 c185 -4 387 -8 450 -8 l114 0 17 50 c47 137 132 268 243 371 301 281
740 234 997 -107 32 -43 75 -113 96 -154 l38 -76 40 6 c90 14 315 69 418 102
158 49 319 120 439 192 103 61 255 178 245 188 -2 3 -74 18 -158 33 -523 96
-1224 292 -1893 530 -268 96 -405 151 -466 188 l-45 29 -435 7 c-2063 32
-4750 193 -7664 459 l-570 52 -3 144 -3 143 53 -6 c198 -23 1693 -153 2433
-211 1760 -137 3069 -212 4840 -277 574 -21 2508 -8 3270 22 383 15 669 32
675 39 3 4 83 13 179 19 96 7 176 14 178 16 2 2 -6 52 -17 111 -40 207 -120
407 -227 568 -100 151 -290 320 -456 404 -68 34 -228 95 -234 89 -3 -2 -7 -23
-10 -45 -5 -34 -9 -41 -28 -41 -12 0 -663 94 -1446 210 -1321 194 -1428 212
-1478 237 -29 16 -55 33 -58 40 -3 7 5 26 17 43 14 20 17 30 8 30 -7 0 -229
32 -494 70 -266 39 -487 70 -492 70 -5 0 -21 -78 -36 -172 -15 -95 -34 -210
-41 -255 -14 -81 -40 -148 -68 -171 -12 -11 -14 -6 -11 30 13 146 23 537 16
564 -16 52 -39 89 -81 127 -52 47 -87 64 -178 88 -94 23 -280 25 -363 3z"/>
</g>
</g>
<g transform="translate(0.000000,737.000000) scale(0.100000,-0.100000)"
fill="url(#grad_4)" stroke="none">
<g>
<path d="M1715 4291 c-173 -51 -319 -136 -454 -266 -105 -102 -175 -199 -238
-332 -56 -118 -54 -126 45 -153 80 -21 162 -117 191 -225 6 -22 17 -119 26
-215 23 -265 69 -402 170 -506 96 -98 194 -132 400 -141 379 -15 431 56 466
635 22 374 -26 666 -149 906 -47 92 -138 221 -188 268 -52 48 -162 60 -269 29z"/>
</g>
</g>
<g transform="translate(0.000000,737.000000) scale(0.100000,-0.100000)"
fill="url(#grad_5)" stroke="none">
<g>
<path d="M160 5558 c-51 -35 -93 -96 -120 -174 -22 -63 -24 -88 -28 -299 -6
-352 2 -386 235 -1025 l166 -455 -29 -20 c-121 -85 -191 -190 -221 -328 -53
-245 108 -483 383 -569 66 -20 74 -25 75 -48 0 -14 4 -236 9 -495 9 -500 19
-623 66 -835 58 -256 153 -438 256 -491 81 -41 209 -7 262 70 38 54 71 137 92
226 25 106 25 386 0 565 -35 258 -113 602 -213 940 -25 85 -47 162 -50 171 -3
9 4 46 16 82 11 36 25 112 31 169 30 267 -40 485 -187 588 -20 14 -22 27 -33
255 -40 869 -169 1383 -400 1599 -64 60 -122 86 -208 93 -59 4 -71 2 -102 -19z"/>
</g>
</g>
<g transform="translate(0.000000,737.000000) scale(0.100000,-0.100000)"
fill="url(#grad_6)" stroke="none">
<g>
<path d="M190 5532 c-19 -9 -50 -39 -67 -65 -118 -176 -121 -568 -8 -927 35
-111 325 -903 333 -912 4 -4 34 2 67 13 33 11 102 23 154 26 l94 6 -7 156
c-24 558 -108 1087 -218 1369 -64 165 -167 302 -254 338 -43 18 -52 18 -94 -4z"/>
</g>
</g>
<g transform="translate(0.000000,737.000000) scale(0.100000,-0.100000)"
fill="url(#grad_7)" stroke="none">
<g>
<path d="M941 2694 c-51 -36 -101 -46 -198 -38 l-86 7 7 -454 c4 -250 11 -503
17 -564 30 -345 122 -629 241 -748 62 -63 95 -74 143 -52 67 33 125 156 150
324 30 198 10 465 -66 861 -35 181 -159 690 -168 689 -3 0 -21 -12 -40 -25z"/>
</g>
</g>
<g transform="translate(0.000000,737.000000) scale(0.100000,-0.100000)"
fill="url(#grad_8)" stroke="none">
<g>
<path d="M11167 2881 c-11 -55 -8 -110 8 -141 41 -79 244 -167 855 -370 834
-278 1553 -450 2045 -491 195 -16 274 -10 320 25 47 36 84 94 92 142 6 37 6
38 -11 21 -40 -39 -79 -50 -194 -55 -467 -19 -1511 225 -2547 595 -416 148
-535 208 -553 275 l-8 33 -7 -34z"/>
</g>
</g>
<g transform="translate(0.000000,737.000000) scale(0.100000,-0.100000)"
fill="url(#grad_9)" stroke="none">
<g>
<path d="M5382 2235 c-93 -20 -143 -48 -227 -127 -177 -165 -270 -391 -263
-638 l3 -105 33 95 c76 214 165 340 241 340 32 0 111 -40 127 -65 13 -20 12
-30 -10 -101 -77 -248 -84 -382 -26 -536 20 -54 109 -168 130 -168 5 0 -11 37
-35 83 -59 111 -78 195 -73 322 13 270 189 505 380 505 95 0 161 -31 246 -116
40 -41 77 -74 82 -74 28 0 -4 156 -55 267 -121 262 -310 371 -553 318z"/>
</g>
</g>
<g transform="translate(0.000000,737.000000) scale(0.100000,-0.100000)"
fill="url(#grad_10)" stroke="none">
<g>
<path d="M6255 4239 c-16 -5 -43 -7 -60 -4 -28 6 -29 5 -11 -9 24 -20 176 -99
176 -92 0 17 -56 116 -65 115 -5 0 -23 -5 -40 -10z"/>
</g>
</g>
<g transform="translate(0.000000,737.000000) scale(0.100000,-0.100000)"
fill="url(#grad_11)" stroke="none">
<g>
<path d="M12691 7345 c-160 -45 -295 -129 -429 -269 -232 -244 -833 -944
-1825 -2130 -119 -143 -217 -265 -217 -272 0 -7 24 -26 53 -42 50 -29 100 -37
1482 -241 787 -116 1440 -211 1453 -211 12 0 22 6 22 13 0 24 219 1678 242
1827 19 121 23 187 23 400 0 272 -7 341 -52 485 -60 192 -160 319 -315 401
l-93 48 -145 3 c-105 2 -160 -2 -199 -12z"/>
</g>
</g>
<g transform="translate(0.000000,737.000000) scale(0.100000,-0.100000)"
fill="url(#grad_12)" stroke="none">
<g>
<path d="M12805 7261 c-168 -46 -291 -125 -438 -284 -253 -272 -821 -934
-1627 -1897 -200 -239 -369 -438 -374 -442 -5 -4 1 -9 15 -12 63 -15 2793
-414 2803 -410 8 3 54 322 131 902 65 493 125 940 133 992 20 141 20 490 -1
612 -46 263 -146 445 -289 523 -49 27 -62 30 -168 32 -88 2 -131 -2 -185 -16z"/>
</g>
</g>
<g transform="translate(0.000000,737.000000) scale(0.100000,-0.100000)"
fill="url(#grad_13)" stroke="none">
<g>
<path d="M8563 5020 c-197 -28 -307 -215 -308 -525 0 -105 3 -126 23 -170 31
-67 52 -88 125 -121 56 -26 72 -29 172 -29 100 0 116 3 173 29 155 72 233 238
236 501 1 110 -1 125 -25 176 -28 59 -69 97 -135 125 -43 19 -175 26 -261 14z"/>
</g>
</g>
<g transform="translate(0.000000,737.000000) scale(0.100000,-0.100000)"
fill="url(#grad_14)" stroke="none">
<g>
<path d="M5929 5727 c-124 -42 -227 -145 -300 -300 -21 -46 -32 -85 -34 -129
-2 -35 -9 -83 -15 -108 -6 -25 -14 -115 -17 -200 -6 -146 -5 -154 11 -141 31
26 44 64 60 176 43 290 129 446 290 525 59 29 71 32 144 29 68 -4 90 -9 164
-46 136 -68 278 -212 351 -358 41 -82 78 -193 102 -310 13 -60 29 -128 34
-150 17 -68 78 -97 115 -56 16 17 17 27 6 93 -34 222 -133 475 -246 629 -24
32 -54 79 -68 106 -32 60 -57 88 -126 140 -155 116 -321 151 -471 100z"/>
</g>
</g>
<g transform="translate(0.000000,737.000000) scale(0.100000,-0.100000)"
fill="url(#grad_15)" stroke="none">
<g>
<path d="M10254 3526 c-3 -8 -4 -25 -2 -38 2 -18 9 -23 32 -23 36 0 56 27 40
53 -14 22 -62 28 -70 8z"/>
</g>
</g>
<g transform="translate(0.000000,737.000000) scale(0.100000,-0.100000)"
fill="url(#grad_16)" stroke="none">
<g>
<path d="M2552 3349 l3 -144 350 -32 c2744 -254 5007 -399 7324 -469 l223 -7
-7 139 c-5 84 -12 142 -19 146 -6 4 -72 8 -146 8 -662 1 -2779 107 -4305 216
-1049 74 -3023 238 -3373 280 l-53 6 3 -143z"/>
</g>
</g>
<g transform="translate(0.000000,737.000000) scale(0.100000,-0.100000)"
fill="url(#grad_17)" stroke="none">
<g>
<path d="M10348 2829 c-27 -15 -23 -57 7 -71 30 -13 55 3 55 36 0 39 -28 55
-62 35z"/>
</g>
</g>
<g transform="translate(0.000000,737.000000) scale(0.100000,-0.100000)"
fill="url(#grad_18)" stroke="none">
<g>
<path d="M8587 5239 c-241 -31 -410 -170 -438 -362 -8 -54 -79 -870 -79 -905
0 -9 11 -12 33 -10 l32 3 12 125 c6 69 23 262 38 430 16 187 32 324 42 355 19
60 105 150 173 183 150 71 429 70 570 -3 72 -37 130 -106 152 -179 7 -27 -4
-418 -16 -564 -3 -41 -3 -42 14 -27 31 28 57 106 75 225 9 63 27 180 41 259
26 154 24 182 -16 261 -22 44 -94 112 -147 138 -61 32 -171 61 -268 72 -102
11 -122 11 -218 -1z"/>
</g>
</g>
<g transform="translate(0.000000,737.000000) scale(0.100000,-0.100000)"
fill="url(#grad_19)" stroke="none">
<g>
<path d="M10356 2124 c-9 -8 -16 -22 -16 -29 0 -18 27 -45 45 -45 18 0 45 27
45 45 0 18 -27 45 -45 45 -7 0 -21 -7 -29 -16z"/>
</g>
</g>
<g transform="translate(0.000000,737.000000) scale(0.100000,-0.100000)"
fill="url(#grad_20)" stroke="none">
<g>
<path d="M11802 1920 c-238 -64 -443 -275 -538 -552 -60 -176 -76 -410 -40
-592 66 -340 267 -597 541 -692 69 -24 96 -28 195 -28 94 0 128 4 185 23 106
34 190 86 276 168 360 344 401 988 89 1401 -93 124 -213 212 -357 263 -87 31
-255 35 -351 9z"/>
</g>
</g>
<g transform="translate(0.000000,737.000000) scale(0.100000,-0.100000)"
fill="url(#grad_21)" stroke="none">
<g>
<path d="M11793 1606 c-63 -20 -106 -50 -167 -116 -69 -75 -122 -181 -141
-283 -17 -90 -20 -197 -5 -197 6 0 10 7 10 16 0 24 57 155 90 207 16 25 43 53
60 62 29 15 34 15 67 -2 56 -28 60 -40 34 -127 -47 -159 -46 -277 3 -375 23
-44 71 -99 80 -90 3 2 -12 37 -32 78 -32 65 -37 83 -40 168 -3 62 -1 98 7 106
6 6 11 19 11 29 0 34 53 132 97 179 93 100 216 97 317 -7 20 -21 36 -41 36
-46 0 -4 7 -8 15 -8 49 0 -27 222 -108 315 -55 65 -127 98 -217 102 -45 2 -92
-3 -117 -11z"/>
</g>
</g>
<g transform="translate(0.000000,737.000000) scale(0.100000,-0.100000)"
fill="url(#grad_22)" stroke="none">
<g>
<path d="M2634 1688 c45 -483 402 -841 776 -778 260 44 488 288 570 611 32
123 36 117 -75 121 -53 1 -99 8 -103 14 -7 11 -637 79 -712 76 -25 -1 -99 5
-165 13 -66 8 -159 15 -208 15 l-90 0 7 -72z"/>
</g>
</g>
<g transform="translate(0.000000,737.000000) scale(0.100000,-0.100000)"
fill="url(#grad_23)" stroke="none">
<g>
<path d="M5935 5742 c-177 -61 -310 -229 -370 -468 -38 -148 -52 -389 -29
-501 6 -30 24 -29 115 8 l76 30 6 132 c6 144 29 253 71 334 l24 48 15 -35 c9
-19 40 -89 70 -156 l54 -121 -22 -27 c-26 -32 -50 -95 -40 -104 4 -4 10 -1 12
6 3 6 13 12 23 12 10 0 39 9 65 20 63 27 119 26 170 -5 151 -88 212 -384 108
-523 -29 -39 -97 -71 -168 -81 l-50 -6 47 -33 c50 -35 104 -44 163 -29 30 8
32 6 60 -54 28 -58 34 -64 93 -91 35 -16 68 -28 72 -26 5 2 -18 63 -51 136
-40 90 -57 138 -50 145 5 7 17 39 27 72 33 113 18 277 -36 410 -12 30 -10 35
65 148 43 64 81 117 85 117 12 0 69 -135 96 -228 56 -192 69 -405 34 -571 -16
-78 -40 -141 -98 -253 -4 -8 112 -45 167 -54 34 -6 37 -4 55 33 72 149 100
313 94 546 -6 195 -33 339 -95 507 -127 342 -352 593 -592 664 -73 21 -202 20
-266 -2z m248 -7 c73 -19 147 -56 217 -108 69 -52 94 -80 126 -140 14 -27 44
-74 68 -106 113 -154 212 -407 246 -629 11 -66 10 -76 -6 -93 -37 -41 -98 -12
-115 56 -5 22 -21 90 -34 150 -24 117 -61 228 -102 310 -73 146 -215 290 -351
358 -74 37 -96 42 -164 46 -73 3 -85 0 -144 -29 -161 -79 -247 -235 -290 -525
-16 -112 -29 -150 -60 -176 -16 -13 -17 -5 -11 141 3 85 11 175 17 200 6 25
13 73 15 108 4 74 42 162 111 259 112 157 295 225 477 178z"/>
</g>
</g>
<g transform="translate(0.000000,737.000000) scale(0.100000,-0.100000)"
fill="url(#grad_24)" stroke="none">
<g>
<path d="M6020 5481 c-25 -8 -72 -32 -99 -50 -12 -8 -1 -40 64 -185 l78 -176
49 0 c56 0 117 -27 165 -73 18 -17 34 -29 36 -26 2 2 41 59 85 126 l82 122
-39 48 c-61 77 -151 154 -219 186 -65 30 -156 43 -202 28z"/>
</g>
</g>
<g transform="translate(0.000000,737.000000) scale(0.100000,-0.100000)"
fill="url(#grad_25)" stroke="none">
<g>
<path d="M9074 1343 c29 -220 144 -401 304 -480 72 -36 81 -38 172 -38 88 0
101 3 165 34 160 78 269 247 309 477 l5 31 -137 6 c-75 4 -292 10 -481 13
l-344 7 7 -50z"/>
</g>
</g>
<g transform="translate(0.000000,737.000000) scale(0.100000,-0.100000)"
fill="url(#grad_26)" stroke="none">
<g>
<path d="M10440 2938 c0 -24 3 -87 7 -140 l6 -98 30 0 30 0 -6 98 c-4 53 -7
116 -7 140 0 40 -1 42 -30 42 -29 0 -30 -2 -30 -42z"/>
</g>
</g>
<g transform="translate(0.000000,737.000000) scale(0.100000,-0.100000)"
fill="url(#grad_27)" stroke="none">
<g>
<path d="M5797 5263 c-40 -91 -58 -176 -64 -320 l-6 -132 -70 -28 c-52 -20
-65 -29 -50 -33 11 -3 47 -39 80 -80 94 -118 159 -185 267 -276 91 -76 105
-84 143 -84 49 0 138 32 170 62 77 72 90 254 28 393 -67 152 -169 207 -290
155 -26 -11 -55 -20 -65 -20 -10 0 -20 -6 -23 -12 -2 -7 -8 -10 -12 -6 -10 9
14 72 40 104 l22 27 -65 146 c-35 80 -68 150 -72 154 -4 4 -19 -18 -33 -50z"/>
</g>
</g>
<g transform="translate(0.000000,737.000000) scale(0.100000,-0.100000)"
fill="url(#grad_28)" stroke="none">
<g>
<path d="M10057 4214 c-12 -13 -8 -51 8 -64 9 -7 25 -10 40 -6 22 6 26 11 23
39 -3 28 -7 32 -33 35 -17 2 -34 0 -38 -4z"/>
</g>
</g>
<g transform="translate(0.000000,737.000000) scale(0.100000,-0.100000)"
fill="url(#grad_29)" stroke="none">
<g>
<path d="M10264 1566 c-3 -8 -4 -25 -2 -38 2 -19 9 -23 38 -23 33 0 35 2 35
35 0 32 -3 35 -33 38 -21 2 -34 -2 -38 -12z"/>
</g>
</g>
<g transform="translate(0.000000,737.000000) scale(0.100000,-0.100000)"
fill="url(#grad_30)" stroke="none">
<g>
<path d="M9724 4686 c-12 -31 0 -61 27 -64 31 -4 52 18 47 50 -2 18 -10 24
-36 26 -21 2 -34 -2 -38 -12z"/>
</g>
</g>
<g transform="translate(0.000000,737.000000) scale(0.100000,-0.100000)"
fill="url(#grad_31)" stroke="none">
<g>
<path d="M5410 2684 c-428 -91 -756 -469 -872 -1004 -19 -92 -22 -133 -22
-330 0 -195 3 -239 22 -326 31 -145 65 -242 132 -379 154 -317 407 -540 700
-615 74 -19 105 -21 245 -18 153 4 165 5 263 40 136 47 245 114 358 221 240
226 383 529 425 897 15 135 6 374 -20 502 -106 527 -450 925 -873 1012 -94 19
-268 20 -358 0z m256 -3 c-3 -4 -23 -11 -44 -15 -59 -9 -189 -55 -267 -93
-122 -61 -237 -144 -341 -248 -185 -185 -302 -404 -361 -678 -25 -115 -25
-471 1 -607 23 -126 69 -317 106 -447 17 -57 29 -110 28 -115 -10 -30 -140
220 -187 359 -59 178 -76 294 -75 523 0 174 4 221 23 310 63 295 178 524 357
710 159 165 342 266 541 300 66 11 225 12 219 1z m-2 -347 c193 -50 384 -232
475 -452 60 -146 76 -230 76 -417 0 -143 -4 -184 -23 -258 -151 -595 -693
-823 -1077 -452 -111 107 -200 267 -247 443 -14 54 -21 121 -25 227 -4 128 -2
165 17 255 67 327 270 578 525 651 76 22 200 24 279 3z"/>
</g>
</g>
<g transform="translate(0.000000,737.000000) scale(0.100000,-0.100000)"
fill="url(#grad_32)" stroke="none">
<g>
<path d="M5447 2680 c-371 -63 -700 -376 -842 -803 -64 -193 -79 -288 -79
-517 -1 -229 16 -345 75 -523 47 -139 177 -389 187 -359 1 5 -11 58 -28 115
-37 130 -83 321 -106 447 -26 136 -26 492 -1 607 59 274 176 493 361 678 104
104 219 187 341 248 78 38 208 84 267 93 21 4 41 11 44 15 6 11 -153 10 -219
-1z"/>
</g>
</g>
<g transform="translate(0.000000,737.000000) scale(0.100000,-0.100000)"
fill="url(#grad_33)" stroke="none">
<g>
<path d="M8500 5094 c-87 -23 -141 -54 -201 -114 -39 -39 -61 -70 -72 -105
-10 -31 -26 -167 -42 -350 -14 -165 -31 -355 -37 -423 -6 -67 -8 -125 -4 -129
9 -9 249 23 392 52 233 49 437 129 529 208 l39 34 13 274 c14 294 13 330 -17
388 -60 119 -210 182 -429 180 -68 0 -139 -6 -171 -15z m324 -88 c66 -28 107
-66 135 -125 24 -51 26 -66 25 -176 -3 -263 -81 -429 -236 -501 -57 -26 -73
-29 -173 -29 -100 0 -116 3 -172 29 -73 33 -94 54 -125 121 -20 44 -23 65 -23
170 1 310 111 497 308 525 86 12 218 5 261 -14z"/>
</g>
</g>
<g transform="translate(0.000000,737.000000) scale(0.100000,-0.100000)"
fill="url(#grad_34)" stroke="none">
<g>
<path d="M2307 1824 c-12 -13 -8 -249 8 -366 73 -554 416 -993 862 -1105 102
-26 322 -23 428 5 179 48 376 174 506 324 191 222 319 535 345 843 l6 80 -318
28 c-339 30 -361 31 -329 17 11 -5 57 -9 103 -9 96 -1 94 3 62 -120 -65 -255
-214 -457 -411 -555 -141 -71 -264 -82 -412 -36 -273 85 -490 399 -523 758
l-7 72 89 0 c48 0 146 -7 216 -16 71 -8 136 -14 146 -12 19 5 15 5 -398 53
-168 20 -319 38 -335 41 -17 3 -34 2 -38 -2z"/>
</g>
</g>
<g transform="translate(0.000000,737.000000) scale(0.100000,-0.100000)"
fill="url(#grad_35)" stroke="none">
<g>
<path d="M8830 1358 c0 -224 83 -483 205 -646 99 -132 243 -234 390 -278 82
-25 248 -25 330 0 315 94 541 403 586 800 9 84 9 109 -1 121 -10 12 -38 15
-141 15 -74 0 -130 4 -134 10 -4 6 -53 10 -118 9 -72 0 -105 -3 -92 -9 11 -5
55 -9 97 -9 l78 -1 -6 -32 c-41 -233 -149 -401 -309 -479 -64 -31 -77 -34
-165 -34 -91 0 -100 2 -172 38 -160 78 -275 260 -304 479 l-7 48 174 2 c172 1
173 1 64 8 -60 4 -192 8 -292 9 l-183 1 0 -52z"/>
</g>
</g>
<g transform="translate(0.000000,737.000000) scale(0.100000,-0.100000)"
fill="url(#grad_36)" stroke="none">
<g>
<path d="M9302 4538 c-16 -16 -15 -107 3 -202 8 -44 20 -122 26 -173 19 -170
-20 -369 -86 -442 -99 -109 -370 -174 -940 -223 -90 -7 -406 -12 -890 -14
-738 -2 -823 -5 -903 -35 -59 -23 -46 -59 33 -88 123 -46 429 -92 750 -112
210 -13 1394 -7 1950 10 171 6 408 13 528 17 l219 7 -45 46 c-44 46 -137 166
-137 177 0 3 -18 36 -40 73 -22 37 -40 77 -40 88 0 12 -5 25 -10 28 -19 12
-61 107 -81 183 -15 57 -22 131 -29 287 -9 236 -6 248 61 272 39 14 151 16
222 4 26 -4 47 -5 47 -1 0 9 -265 75 -380 95 -104 18 -241 20 -258 3z"/>
</g>
</g>
<g transform="translate(0.000000,737.000000) scale(0.100000,-0.100000)"
fill="url(#grad_37)" stroke="none">
<g>
<path d="M10454 2548 c8 -177 -7 -518 -30 -698 -19 -149 -55 -296 -88 -364
-27 -54 -25 -76 8 -76 52 0 105 165 141 437 21 158 35 523 28 706 l-6 147 -30
0 -30 0 7 -152z"/>
</g>
</g>
<g transform="translate(0.000000,737.000000) scale(0.100000,-0.100000)"
fill="url(#grad_38)" stroke="none">
<g>
<path d="M585 3660 c-124 -26 -223 -79 -302 -163 -61 -64 -98 -138 -120 -240
-52 -239 98 -471 364 -562 89 -31 283 -51 339 -36 128 34 199 156 224 383 32
287 -53 523 -219 605 -40 20 -215 28 -286 13z m265 -44 c19 -10 47 -30 63 -44
23 -22 27 -33 27 -84 0 -92 -26 -189 -70 -256 -42 -66 -83 -101 -154 -132
-191 -85 -434 36 -471 233 -6 33 -3 45 29 92 90 137 269 219 461 212 52 -2 92
-10 115 -21z"/>
</g>
</g>
<g transform="translate(0.000000,737.000000) scale(0.100000,-0.100000)"
fill="url(#grad_39)" stroke="none">
<g>
<path d="M11802 1920 c-238 -64 -443 -275 -538 -552 -60 -176 -76 -410 -40
-592 66 -340 267 -597 541 -692 69 -24 96 -28 195 -28 94 0 128 4 185 23 106
34 190 86 276 168 360 344 401 988 89 1401 -93 124 -213 212 -357 263 -87 31
-255 35 -351 9z m214 1 c-3 -5 -23 -12 -43 -16 -174 -32 -399 -187 -510 -351
-117 -172 -167 -340 -167 -559 1 -145 20 -265 79 -480 19 -70 33 -130 31 -132
-13 -13 -97 147 -132 251 -38 111 -54 218 -54 361 0 198 34 346 117 511 126
253 372 420 621 423 35 1 61 -3 58 -8z m17 -251 c155 -48 274 -185 339 -390
30 -97 33 -298 5 -400 -47 -169 -164 -324 -292 -386 -55 -26 -69 -29 -165 -29
-97 0 -110 2 -164 30 -201 101 -329 352 -313 615 16 272 155 488 356 557 82
28 150 29 234 3z"/>
</g>
</g>
<g transform="translate(0.000000,737.000000) scale(0.100000,-0.100000)"
fill="url(#grad_40)" stroke="none">
<g>
<path d="M9823 4739 c-16 -16 -9 -29 52 -92 29 -30 65 -72 79 -94 14 -21 39
-58 56 -82 157 -222 300 -608 369 -1001 26 -145 51 -357 51 -432 l0 -58 34 0
c39 0 38 -26 10 240 -62 608 -270 1170 -536 1456 -68 72 -92 86 -115 63z"/>
</g>
</g>
<g transform="translate(0.000000,737.000000) scale(0.100000,-0.100000)"
fill="url(#grad_41)" stroke="none">
<g>
<path d="M1765 4330 c-111 -22 -271 -93 -386 -171 -137 -91 -299 -281 -370
-434 -13 -27 -26 -52 -29 -55 -3 -3 -11 -22 -17 -42 -9 -32 -8 -39 7 -53 31
-28 89 -149 104 -216 34 -151 28 -337 -15 -484 l-21 -70 36 -117 c38 -126 117
-417 138 -510 12 -57 14 -58 88 -106 174 -114 241 -135 521 -167 142 -16 147
-16 202 3 258 91 444 426 502 907 22 182 16 637 -10 785 -21 118 -76 286 -117
359 -147 260 -412 415 -633 371z m145 -31 c54 -12 84 -39 160 -140 197 -264
278 -610 251 -1071 -35 -579 -87 -650 -466 -635 -206 9 -304 43 -400 141 -101
104 -147 241 -170 506 -9 96 -20 193 -26 215 -29 108 -111 204 -191 225 -99
27 -101 35 -45 153 63 133 133 230 238 332 100 97 208 170 319 217 152 64 236
79 330 57z"/>
</g>
</g>
<g transform="translate(0.000000,737.000000) scale(0.100000,-0.100000)"
fill="url(#grad_42)" stroke="none">
<g>
<path d="M3104 1656 c15 -145 84 -256 197 -315 60 -31 69 -33 139 -29 50 3 89
12 116 26 59 30 139 122 163 187 25 66 37 135 24 135 -5 0 -121 11 -259 25
-137 14 -280 29 -318 32 l-69 6 7 -67z"/>
</g>
</g>
<g transform="translate(0.000000,737.000000) scale(0.100000,-0.100000)"
fill="url(#grad_43)" stroke="none">
<g>
<path d="M6005 4920 c-22 -10 -50 -19 -62 -19 -12 -1 -23 -5 -25 -9 -1 -4 -77
-37 -167 -72 -112 -44 -158 -66 -144 -70 11 -3 47 -39 80 -80 94 -118 159
-185 267 -276 91 -76 105 -84 143 -84 49 0 138 32 170 62 77 72 90 254 28 393
-66 151 -174 209 -290 155z"/>
</g>
</g>
<g transform="translate(0.000000,737.000000) scale(0.100000,-0.100000)"
fill="url(#grad_44)" stroke="none">
<g>
<path d="M9394 1323 c20 -156 153 -259 284 -222 90 25 172 138 172 236 l0 33
-231 0 -232 0 7 -47z"/>
</g>
</g>
<g transform="translate(0.000000,737.000000) scale(0.100000,-0.100000)"
fill="url(#grad_45)" stroke="none">
<g>
<path d="M11926 1276 c-82 -31 -150 -126 -162 -229 -20 -172 100 -328 243
-314 64 7 89 20 152 80 44 42 51 55 66 118 11 49 14 90 9 132 -6 54 -13 67
-58 120 -28 33 -67 68 -86 78 -50 26 -117 32 -164 15z"/>
</g>
</g>
<g transform="translate(0.000000,737.000000) scale(0.100000,-0.100000)"
fill="url(#grad_46)" stroke="none">
<g>
<path d="M5883 5398 c-61 -67 -61 -60 15 -230 l69 -155 -22 -27 c-26 -32 -50
-95 -40 -104 4 -4 10 -1 12 6 3 6 13 12 23 12 10 0 39 9 65 20 63 27 119 26
170 -5 151 -88 212 -384 108 -523 -29 -39 -97 -71 -168 -81 l-50 -6 47 -33
c50 -35 104 -44 163 -29 30 8 32 6 60 -54 28 -58 34 -64 93 -91 35 -16 68 -28
72 -26 5 2 -18 63 -51 136 -40 90 -57 138 -50 145 5 7 17 39 27 72 33 113 18
277 -36 411 -13 29 -10 34 69 152 l82 123 -28 49 c-15 28 -31 50 -34 50 -5 0
-98 -136 -161 -234 -5 -7 -19 0 -40 21 -49 46 -110 73 -166 73 l-49 0 -78 175
c-43 96 -79 175 -80 175 -1 0 -11 -10 -22 -22z"/>
</g>
</g>
<g transform="translate(0.000000,737.000000) scale(0.100000,-0.100000)"
fill="url(#grad_47)" stroke="none">
<g>
<path d="M587 3624 c-138 -30 -248 -100 -313 -199 -32 -47 -35 -59 -29 -92 37
-197 280 -318 471 -233 71 31 112 66 154 132 44 67 70 164 70 256 0 51 -4 62
-27 84 -16 14 -44 34 -63 44 -47 24 -175 28 -263 8z"/>
</g>
</g>
<g transform="translate(0.000000,737.000000) scale(0.100000,-0.100000)"
fill="url(#grad_48)" stroke="none">
<g>
<path d="M6455 4983 c-75 -113 -77 -118 -65 -148 54 -133 69 -297 36 -410 -10
-33 -22 -65 -27 -71 -7 -8 11 -59 53 -153 53 -118 67 -142 90 -150 27 -10 28
-8 68 72 96 194 106 475 26 749 -27 93 -84 228 -96 228 -4 0 -42 -53 -85 -117z"/>
</g>
</g>
<g transform="translate(0.000000,737.000000) scale(0.100000,-0.100000)"
fill="url(#grad_49)" stroke="none">
<g>
<path d="M5385 2331 c-93 -27 -183 -80 -263 -155 -132 -126 -220 -292 -262
-496 -19 -90 -21 -127 -17 -255 4 -106 11 -173 25 -227 100 -375 362 -622 662
-622 303 0 566 250 662 631 19 74 23 115 23 258 0 145 -4 183 -23 258 -83 315
-285 548 -528 611 -79 21 -203 19 -279 -3z m194 -91 c149 -28 271 -138 356
-323 51 -111 83 -267 55 -267 -5 0 -42 33 -82 74 -85 85 -151 116 -246 116
-191 0 -367 -235 -380 -505 -5 -127 14 -211 73 -322 24 -46 40 -83 35 -83 -21
0 -110 114 -130 168 -58 154 -51 288 26 536 22 71 23 81 10 101 -16 25 -95 65
-127 65 -76 0 -165 -126 -241 -340 l-33 -95 -3 105 c-7 247 86 473 263 638 84
79 134 107 227 127 78 17 129 18 197 5z m154 -496 c70 -24 140 -92 183 -179
98 -198 27 -460 -150 -553 -43 -22 -64 -27 -131 -27 -67 0 -88 5 -131 27 -228
120 -262 493 -62 673 27 24 68 50 91 58 56 20 143 21 200 1z"/>
</g>
</g>
<g transform="translate(0.000000,737.000000) scale(0.100000,-0.100000)"
fill="url(#grad_50)" stroke="none">
<g>
<path d="M12783 7159 c-62 -12 -146 -55 -231 -119 -105 -79 -322 -304 -472
-489 -69 -85 -145 -178 -170 -205 -91 -103 -291 -336 -440 -516 -85 -101 -221
-256 -303 -345 -346 -373 -447 -575 -340 -678 127 -121 437 -100 851 59 408
157 708 357 898 599 210 270 435 758 503 1092 56 274 -2 491 -153 577 -50 29
-88 35 -143 25z"/>
</g>
</g>
<g transform="translate(0.000000,737.000000) scale(0.100000,-0.100000)"
fill="url(#grad_51)" stroke="none">
<g>
<path d="M5533 1743 c-23 -8 -64 -34 -91 -58 -200 -180 -166 -553 62 -673 43
-22 64 -27 131 -27 67 0 88 5 131 27 130 68 202 218 191 395 -4 71 -11 97 -41
158 -43 87 -113 155 -183 179 -57 20 -144 19 -200 -1z"/>
</g>
</g>
</svg>
