<?xml version="1.0" standalone="no"?><!DOCTYPE svg PUBLIC "-//W3C//DTD SVG 20010904//EN" "http://www.w3.org/TR/2001/REC-SVG-20010904/DTD/svg10.dtd"><svg version="1.0" xmlns="http://www.w3.org/2000/svg" width="500pt" height="500pt" viewBox="0 0 500 500" preserveAspectRatio="xMidYMid meet"><defs><linearGradient id="linear-gradient-1-1" x1="0.00%" y1="100.00%" x2="99.49%" y2="-0.51%"><stop offset="0%" style="stop-color:rgb(0,128,0);stop-opacity:1.000" /><stop offset="100%" style="stop-color:rgb(0,51,51);stop-opacity:1.000" /></linearGradient><linearGradient id="linear-gradient-2-1" x1="0.00%" y1="100.00%" x2="87.77%" y2="-1.68%"><stop offset="0%" style="stop-color:rgb(5,122,7);stop-opacity:0.248" /><stop offset="100%" style="stop-color:rgb(183,27,189);stop-opacity:0.425" /></linearGradient><linearGradient id="linear-gradient-2-2" x1="0.00%" y1="100.00%" x2="92.28%" y2="-0.99%"><stop offset="0%" style="stop-color:rgb(14,2,127);stop-opacity:0.404" /><stop offset="100%" style="stop-color:rgb(134,127,2);stop-opacity:0.489" /></linearGradient><linearGradient id="linear-gradient-2-3" x1="0.00%" y1="100.00%" x2="40.77%" y2="-20.11%"><stop offset="0%" style="stop-color:rgb(33,186,34);stop-opacity:0.343" /><stop offset="100%" style="stop-color:rgb(81,100,79);stop-opacity:0.371" /></linearGradient><linearGradient id="linear-gradient-3-1" x1="0.00%" y1="100.00%" x2="92.23%" y2="-8.57%"><stop offset="0%" style="stop-color:rgb(249,2,2);stop-opacity:0.217" /><stop offset="100%" style="stop-color:rgb(117,96,96);stop-opacity:0.283" /></linearGradient></defs><g id="layer-1"><path d="M0 2500 l0 -2500 2500 0 2500 0 0 2500 0 2500 -2500 0 -2500 0 0 -2500z" fill="url(#linear-gradient-1-1)" id="region-1-1" transform="translate(0.000000,500.000000) scale(0.100000,-0.100000)"/></g><g id="layer-2"><path d="M1660 2825 l0 -2015 800 0 800 0 0 2015 0 2015 -800 0 -800 0 0 -2015z" fill="url(#linear-gradient-2-1)" id="region-2-1" transform="translate(0.000000,500.000000) scale(0.100000,-0.100000)"/><path d="M3420 2395 l0 -2075 775 0 775 0 0 2075 0 2075 -775 0 -775 0 0 -2075z" fill="url(#linear-gradient-2-2)" id="region-2-2" transform="translate(0.000000,500.000000) scale(0.100000,-0.100000)"/><path d="M765 3519 c-95 -9 -145 -23 -245 -71 -70 -34 -101 -57 -176 -132 -75 -75 -99 -106 -132 -176 -52 -108 -73 -198 -73 -315 0 -117 21 -207 73 -315 33 -70 57 -101 132 -176 75 -75 106 -99 176 -132 108 -52 198 -73 315 -73 117 0 207 21 315 73 70 33 101 57 176 132 75 75 99 106 132 176 52 108 73 198 73 315 0 117 -21 207 -73 315 -34 70 -56 101 -132 175 -160 159 -339 224 -561 204z" fill="url(#linear-gradient-2-3)" id="region-2-3" transform="translate(0.000000,500.000000) scale(0.100000,-0.100000)"/></g><g id="layer-3"><path d="M1705 4705 c-863 -105 -1578 -194 -1588 -196 -13 -3 726 -596 2384 -1916 1322 -1052 2404 -1911 2406 -1910 2 2 -1199 3191 -1563 4150 -21 55 -30 67 -47 66 -12 -1 -728 -88 -1592 -194z" fill="url(#linear-gradient-3-1)" id="region-3-1" transform="translate(0.000000,500.000000) scale(0.100000,-0.100000)"/></g></svg>