<?xml version="1.0" standalone="no"?><!DOCTYPE svg PUBLIC "-//W3C//DTD SVG 20010904//EN" "http://www.w3.org/TR/2001/REC-SVG-20010904/DTD/svg10.dtd"><svg version="1.0" xmlns="http://www.w3.org/2000/svg" width="500.0pt" height="500.0pt" viewBox="0 0 500.0 500.0" preserveAspectRatio="xMidYMid meet"><defs><linearGradient id="linear-gradient-0" x1="0.00%" y1="100.00%" x2="184.39%" y2="31.38%"><stop offset="0%" style="stop-color:rgb(0,97,20);stop-opacity:1.000" /><stop offset="100%" style="stop-color:rgb(0,53,49);stop-opacity:1.000" /></linearGradient><linearGradient id="linear-gradient-1" x1="0.00%" y1="100.00%" x2="4.67%" y2="-4.27%"><stop offset="0%" style="stop-color:rgb(0,50,70);stop-opacity:1.000" /><stop offset="100%" style="stop-color:rgb(65,90,26);stop-opacity:1.000" /></linearGradient><linearGradient id="linear-gradient-2" x1="0.00%" y1="100.00%" x2="87.01%" y2="-12.97%"><stop offset="0%" style="stop-color:rgb(192,16,2);stop-opacity:0.292" /><stop offset="100%" style="stop-color:rgb(126,89,99);stop-opacity:0.263" /></linearGradient><linearGradient id="linear-gradient-3" x1="0.00%" y1="100.00%" x2="38.66%" y2="-12.75%"><stop offset="0%" style="stop-color:rgb(99,122,9);stop-opacity:0.035" /><stop offset="100%" style="stop-color:rgb(241,10,248);stop-opacity:0.317" /></linearGradient></defs><g fill="url(#linear-gradient-0)" transform="translate(0.000000,500.000000) scale(0.100000,-0.100000)">
<path d="M0 2500 l0 -2500 2500 0 2500 0 0 2500 0 2500 -2500 0 -2500 0 0 -2500z"/>
</g><g fill="url(#linear-gradient-1)" transform="translate(0.000000,500.000000) scale(0.100000,-0.100000)">
<path d="M3420 2395 l0 -2075 775 0 775 0 0 2075 0 2075 -775 0 -775 0 0 -2075z"/>
</g><g fill="url(#linear-gradient-2)" transform="translate(0.000000,500.000000) scale(0.100000,-0.100000)">
<path d="M1705 4705 c-863 -105 -1578 -194 -1588 -196 -13 -3 726 -596 2384 -1916 1322 -1052 2404 -1911 2406 -1910 2 2 -1199 3191 -1563 4150 -21 55 -30 67 -47 66 -12 -1 -728 -88 -1592 -194z"/>
</g><g fill="url(#linear-gradient-3)" transform="translate(0.000000,500.000000) scale(0.100000,-0.100000)">
<path d="M1460 4675 c-729 -89 -1333 -164 -1343 -166 -13 -3 217 -191 762 -624 l780 -620 1 -1227 0 -1228 800 0 800 0 0 2015 0 2015 -237 -1 -238 -1 -1325 -163z"/>
</g></svg>