<?xml version="1.0" standalone="no"?><!DOCTYPE svg PUBLIC "-//W3C//DTD SVG 20010904//EN" "http://www.w3.org/TR/2001/REC-SVG-20010904/DTD/svg10.dtd"><svg version="1.0" xmlns="http://www.w3.org/2000/svg" width="500.0pt" height="500.0pt" viewBox="0 0 500.0 500.0" preserveAspectRatio="xMidYMid meet"><defs><linearGradient id="linear-gradient-0" x1="0.00%" y1="100.00%" x2="134.53%" y2="20.45%"><stop offset="0%" style="stop-color:rgb(0,209,45);stop-opacity:1.000" /><stop offset="100%" style="stop-color:rgb(0,160,95);stop-opacity:1.000" /></linearGradient><linearGradient id="linear-gradient-1" x1="0.00%" y1="100.00%" x2="6.64%" y2="-5.86%"><stop offset="0%" style="stop-color:rgb(0,141,76);stop-opacity:1.000" /><stop offset="100%" style="stop-color:rgb(47,116,72);stop-opacity:1.000" /></linearGradient><linearGradient id="linear-gradient-2" x1="0.00%" y1="100.00%" x2="68.36%" y2="-6.05%"><stop offset="0%" style="stop-color:rgb(0,5,133);stop-opacity:0.316" /><stop offset="100%" style="stop-color:rgb(0,32,57);stop-opacity:0.472" /></linearGradient><linearGradient id="linear-gradient-3" x1="0.00%" y1="100.00%" x2="0.00%" y2="0.00%"><stop offset="0%" style="stop-color:rgb(235,5,17);stop-opacity:0.298" /><stop offset="100%" style="stop-color:rgb(244,4,39);stop-opacity:0.311" /></linearGradient><linearGradient id="linear-gradient-4" x1="0.00%" y1="100.00%" x2="65.95%" y2="-6.06%"><stop offset="0%" style="stop-color:rgb(0,255,90);stop-opacity:0.378" /><stop offset="100%" style="stop-color:rgb(0,255,254);stop-opacity:0.481" /></linearGradient><linearGradient id="linear-gradient-5" x1="0.00%" y1="100.00%" x2="97.04%" y2="-0.77%"><stop offset="0%" style="stop-color:rgb(141,53,53);stop-opacity:0.483" /><stop offset="100%" style="stop-color:rgb(17,118,119);stop-opacity:0.244" /></linearGradient></defs><g fill="url(#linear-gradient-0)" transform="translate(0.000000,500.000000) scale(0.100000,-0.100000)">
<path d="M0 2500 l0 -2500 2500 0 2500 0 0 2500 0 2500 -2500 0 -2500 0 0 -2500z"/>
</g><g fill="url(#linear-gradient-1)" transform="translate(0.000000,500.000000) scale(0.100000,-0.100000)">
<path d="M4367 4863 c-8 -21 -223 -544 -476 -1162 -253 -619 -459 -1126 -457 -1128 4 -5 1459 -163 1463 -160 3 4 -505 2478 -511 2484 -2 2 -10 -13 -19 -34z"/>
</g><g fill="url(#linear-gradient-2)" transform="translate(0.000000,500.000000) scale(0.100000,-0.100000)">
<path d="M2980 4831 c-195 -37 -361 -70 -368 -72 -8 -3 402 -740 1139 -2052 634 -1126 1154 -2046 1155 -2044 3 2 -1439 3946 -1533 4195 -8 23 -21 42 -27 41 -6 0 -171 -31 -366 -68z"/>
</g><g fill="url(#linear-gradient-3)" transform="translate(0.000000,500.000000) scale(0.100000,-0.100000)">
<path d="M2419 4449 c-303 -25 -567 -256 -643 -561 -22 -89 -22 -257 0 -346 67 -269 277 -479 546 -546 89 -22 257 -22 346 0 269 67 479 277 546 546 22 89 22 257 0 346 -44 177 -155 337 -304 439 -142 97 -304 137 -491 122z"/>
</g><g fill="url(#linear-gradient-4)" transform="translate(0.000000,500.000000) scale(0.100000,-0.100000)">
<path d="M0 1530 l0 -1510 805 0 805 0 0 1510 0 1510 -805 0 -805 0 0 -1510z"/>
</g><g fill="url(#linear-gradient-5)" transform="translate(0.000000,500.000000) scale(0.100000,-0.100000)">
<path d="M330 2410 l0 -1880 980 0 980 0 0 1880 0 1880 -980 0 -980 0 0 -1880z"/>
</g></svg>