<?xml version="1.0" standalone="no"?><!DOCTYPE svg PUBLIC "-//W3C//DTD SVG 20010904//EN" "http://www.w3.org/TR/2001/REC-SVG-20010904/DTD/svg10.dtd"><svg version="1.0" xmlns="http://www.w3.org/2000/svg" width="600.0pt" height="462.0pt" viewBox="0 0 600.0 462.0" preserveAspectRatio="xMidYMid meet"><defs><linearGradient id="linear-gradient-0" x1="0.00%" y1="100.00%" x2="29.26%" y2="-17.59%"><stop offset="0%" style="stop-color:rgb(254,254,254);stop-opacity:1.000" /><stop offset="100%" style="stop-color:rgb(255,255,255);stop-opacity:1.000" /></linearGradient><linearGradient id="linear-gradient-1" x1="0.00%" y1="100.00%" x2="19.76%" y2="-1.70%"><stop offset="0%" style="stop-color:rgb(195,115,124);stop-opacity:1.000" /><stop offset="100%" style="stop-color:rgb(180,83,93);stop-opacity:1.000" /></linearGradient><linearGradient id="linear-gradient-2" x1="0.00%" y1="100.00%" x2="9.48%" y2="-11.88%"><stop offset="0%" style="stop-color:rgb(204,21,13);stop-opacity:0.452" /><stop offset="100%" style="stop-color:rgb(176,8,35);stop-opacity:0.978" /></linearGradient><linearGradient id="linear-gradient-3" x1="0.00%" y1="100.00%" x2="120.39%" y2="28.21%"><stop offset="0%" style="stop-color:rgb(241,2,14);stop-opacity:1.000" /><stop offset="100%" style="stop-color:rgb(156,0,1);stop-opacity:1.000" /></linearGradient><linearGradient id="linear-gradient-4" x1="0.00%" y1="100.00%" x2="0.00%" y2="0.00%"><stop offset="0%" style="stop-color:rgb(1,5,0);stop-opacity:0.249" /><stop offset="100%" style="stop-color:rgb(3,7,0);stop-opacity:0.186" /></linearGradient><linearGradient id="linear-gradient-5" x1="0.00%" y1="100.00%" x2="122.21%" y2="23.09%"><stop offset="0%" style="stop-color:rgb(28,1,1);stop-opacity:1.000" /><stop offset="100%" style="stop-color:rgb(0,0,0);stop-opacity:1.000" /></linearGradient><linearGradient id="linear-gradient-6" x1="0.00%" y1="100.00%" x2="115.84%" y2="28.10%"><stop offset="0%" style="stop-color:rgb(253,135,152);stop-opacity:0.651" /><stop offset="100%" style="stop-color:rgb(247,107,114);stop-opacity:0.871" /></linearGradient></defs><g fill="url(#linear-gradient-0)" transform="translate(0.000000,462.000000) scale(0.100000,-0.100000)">
<path d="M0 2310 l0 -2310 3000 0 3000 0 0 2310 0 2310 -3000 0 -3000 0 0 -2310z m4644 1757 c44 -62 143 -230 225 -381 58 -107 145 -326 161 -406 13 -68 15 -192 4 -244 -3 -17 -14 -39 -23 -50 -9 -10 -15 -19 -13 -20 6 -2 -8 -37 -89 -221 -150 -345 -219 -611 -249 -960 -9 -116 -5 -983 6 -1147 6 -94 6 -97 -19 -122 -34 -33 -67 -33 -99 2 -25 27 -26 30 -43 317 -17 289 -35 513 -55 675 -6 47 -15 130 -20 185 -10 99 -16 129 -43 215 -8 25 -29 95 -46 155 -18 61 -46 139 -62 175 -60 129 -129 219 -129 166 0 -7 -87 -95 -193 -194 -306 -286 -519 -547 -656 -805 -22 -43 -41 -84 -41 -90 0 -18 -141 -292 -228 -442 -154 -269 -271 -405 -400 -466 -89 -43 -216 -54 -381 -33 -62 8 -123 16 -135 19 -246 54 -371 91 -601 177 -296 112 -675 276 -675 293 0 3 6 3 12 0 7 -4 3 2 -10 12 -15 12 -21 25 -16 36 8 22 22 21 59 -3 63 -43 391 -190 422 -190 6 0 38 -14 71 -30 34 -17 63 -30 67 -30 8 0 256 -89 280 -100 11 -6 64 -23 118 -40 87 -26 146 -39 322 -71 28 -5 115 -13 195 -17 159 -10 199 -4 281 43 67 38 229 225 229 265 0 5 4 10 9 10 10 0 20 17 123 195 95 166 139 246 151 280 10 24 -19 10 -68 -33 -155 -136 -314 -195 -530 -195 -204 0 -361 15 -860 82 -156 21 -697 114 -798 138 -60 13 -111 22 -114 20 -2 -3 3 -20 13 -38 11 -23 13 -34 5 -37 -6 -2 -11 -12 -11 -23 0 -10 -4 -19 -9 -19 -5 0 -14 37 -21 82 -10 73 -10 82 5 91 13 7 15 17 9 50 -19 111 16 247 80 312 64 64 95 69 367 66 130 -1 276 3 325 9 90 11 177 32 198 48 44 35 226 58 226 29 0 -21 -187 -113 -270 -132 -60 -15 -138 -19 -397 -24 -210 -4 -326 -10 -333 -17 -8 -8 0 -22 27 -52 31 -34 58 -49 148 -83 178 -67 193 -70 330 -59 212 18 431 55 606 104 154 43 206 83 234 180 19 64 59 105 136 139 66 29 161 91 154 100 -3 4 -2 5 1 2 12 -8 45 16 38 27 -4 6 -3 8 4 5 26 -17 246 187 508 473 68 74 138 149 155 165 17 17 56 67 86 112 30 46 67 91 81 102 15 10 88 44 162 76 74 31 239 110 366 176 258 132 358 175 513 220 117 34 143 51 160 108 20 68 13 141 -24 253 -37 111 -85 292 -85 320 0 9 -7 24 -15 32 -14 14 -14 18 0 46 9 17 13 40 10 51 -13 38 31 3 79 -64z"/>
</g><g fill="url(#linear-gradient-1)" transform="translate(0.000000,462.000000) scale(0.100000,-0.100000)">
<path d="M4201 2439 c-19 -11 -30 -24 -25 -27 53 -39 174 -323 199 -470 4 -23 15 -52 25 -64 l19 -23 -5 40 c-23 173 -91 416 -136 490 -17 28 -31 56 -31 63 0 16 -6 15 -46 -9z"/>
</g><g fill="url(#linear-gradient-2)" transform="translate(0.000000,462.000000) scale(0.100000,-0.100000)">
<path d="M4835 2900 c-16 -4 -43 -13 -60 -22 -16 -8 -52 -21 -80 -28 -27 -7 -111 -36 -185 -63 -74 -27 -143 -49 -153 -49 -9 0 -15 -4 -11 -9 3 -6 -2 -10 -12 -9 -38 4 -54 0 -73 -22 -11 -12 -29 -22 -39 -23 -10 0 -31 -11 -47 -23 -15 -12 -33 -22 -40 -22 -7 0 -18 -7 -25 -15 -7 -8 -19 -15 -26 -15 -30 0 -150 -106 -375 -330 -129 -129 -265 -273 -303 -320 -96 -122 -157 -213 -160 -241 -1 -13 -7 -33 -13 -44 -6 -11 -12 -23 -13 -27 -10 -40 -13 -48 -19 -48 -3 0 -12 -15 -20 -32 -8 -18 -17 -35 -21 -38 -3 -3 -18 -26 -32 -51 -28 -47 -110 -136 -163 -176 -61 -45 -110 -78 -120 -79 -5 0 -17 -4 -25 -7 -65 -25 -113 -32 -250 -35 -85 -2 -177 -4 -205 -5 -27 -1 -79 2 -115 7 -36 6 -105 11 -155 12 -220 5 -567 52 -925 125 -112 23 -189 33 -276 35 -120 3 -122 3 -116 -18 3 -13 -1 -26 -13 -34 -16 -12 -16 -20 9 -170 18 -113 30 -160 42 -169 12 -8 15 -20 11 -36 -5 -18 -1 -29 16 -42 12 -10 16 -16 10 -12 -7 3 -13 3 -13 0 0 -17 379 -181 675 -293 230 -86 355 -123 601 -177 12 -3 73 -11 135 -19 165 -21 292 -10 381 33 129 61 246 197 400 466 87 150 228 424 228 442 0 6 19 47 41 90 137 258 350 519 656 805 106 99 193 186 193 192 0 6 15 18 33 27 17 9 33 24 35 35 3 18 72 66 177 124 37 20 26 7 -20 -24 -11 -8 -18 -16 -15 -19 10 -9 115 70 112 84 -2 8 0 11 4 7 4 -4 29 8 56 27 26 19 53 35 60 35 7 0 -3 -11 -22 -25 -19 -14 -29 -25 -24 -25 6 0 19 7 30 15 10 8 25 15 31 15 15 0 119 65 147 92 11 10 28 21 39 24 20 6 66 53 67 67 0 5 -15 -1 -32 -13 -33 -22 -33 -22 -9 0 13 11 31 24 39 29 24 14 9 28 -23 21z"/>
</g><g fill="url(#linear-gradient-3)" transform="translate(0.000000,462.000000) scale(0.100000,-0.100000)">
<path d="M4565 4131 c3 -11 -1 -34 -10 -51 -14 -28 -14 -32 0 -46 8 -8 15 -23 15 -32 0 -28 48 -209 85 -320 37 -112 44 -185 24 -253 -17 -57 -43 -74 -160 -108 -155 -45 -255 -88 -513 -220 -127 -66 -292 -145 -366 -176 -74 -32 -147 -66 -162 -76 -14 -11 -51 -56 -81 -102 -30 -45 -69 -95 -86 -112 -17 -16 -87 -91 -155 -165 -262 -286 -482 -490 -508 -473 -7 3 -8 1 -4 -5 7 -11 -26 -35 -38 -27 -3 3 -4 2 -1 -2 7 -9 -88 -71 -154 -100 -77 -34 -117 -75 -136 -139 -28 -97 -80 -137 -234 -180 -175 -49 -394 -86 -606 -104 -137 -11 -152 -8 -330 59 -90 34 -117 49 -148 83 -27 30 -35 44 -27 52 7 7 123 13 333 17 259 5 337 9 397 24 83 19 270 111 270 132 0 29 -182 6 -226 -29 -21 -16 -108 -37 -198 -48 -49 -6 -195 -10 -325 -9 -272 3 -303 -2 -366 -66 -29 -28 -47 -59 -63 -108 -20 -61 -32 -180 -20 -193 3 -3 59 -6 124 -8 85 -2 163 -12 274 -35 358 -73 705 -120 925 -125 50 -1 119 -6 155 -12 36 -5 88 -8 115 -7 28 1 120 3 205 5 137 3 185 10 250 35 8 3 20 7 25 7 10 1 59 34 120 79 53 40 135 129 163 176 14 25 29 48 32 51 4 3 13 20 21 37 8 18 17 33 20 33 6 0 9 8 19 48 1 4 7 16 13 27 6 11 12 31 13 44 3 28 64 119 160 241 38 47 174 191 303 320 225 224 345 330 375 330 7 0 19 7 26 15 7 8 18 15 25 15 7 0 25 10 40 22 16 12 37 23 47 23 10 1 28 11 39 23 19 22 35 26 73 22 10 -1 15 3 12 9 -4 5 2 9 11 9 10 0 79 22 153 49 74 27 158 56 185 63 28 7 64 20 80 28 49 25 95 32 95 16 0 -8 -3 -14 -7 -14 -5 0 -21 -12 -38 -26 l-30 -26 33 22 c17 12 32 18 32 13 -1 -14 -47 -61 -67 -67 -11 -3 -28 -14 -39 -24 -28 -27 -132 -92 -147 -92 -6 0 -21 -7 -31 -15 -11 -8 -24 -15 -30 -15 -5 0 5 11 24 25 19 14 29 25 22 25 -7 0 -34 -16 -60 -35 -27 -19 -52 -31 -56 -27 -4 4 -6 1 -4 -7 3 -14 -102 -93 -112 -84 -3 3 4 11 15 19 46 31 57 44 20 24 -107 -59 -175 -106 -175 -122 0 -10 5 -15 13 -12 8 3 14 -1 14 -8 0 -7 14 -35 31 -63 45 -73 111 -312 136 -488 2 -20 1 -35 -4 -32 -4 3 -4 -12 1 -33 5 -20 14 -82 19 -137 5 -55 14 -138 20 -185 20 -162 38 -386 55 -675 17 -287 18 -290 43 -317 32 -35 65 -35 99 -2 25 25 25 28 19 122 -11 164 -15 1031 -6 1147 30 349 99 615 249 960 81 184 95 219 89 221 -2 1 4 10 13 20 22 25 30 65 31 155 2 181 -74 379 -285 744 -83 144 -150 241 -178 256 -18 9 -20 8 -14 -10z"/>
</g><g fill="url(#linear-gradient-4)" transform="translate(0.000000,462.000000) scale(0.100000,-0.100000)">
<path d="M4949 2951 c-1 -3 -1 -10 0 -14 1 -5 -3 -6 -8 -3 -5 3 -17 3 -26 0 -11 -5 -13 -9 -6 -14 7 -4 1 -11 -15 -19 -22 -10 -25 -9 -21 3 4 11 -6 9 -46 -6 -29 -11 -79 -29 -112 -40 -33 -11 -125 -43 -205 -71 -80 -28 -151 -50 -159 -49 -7 2 -10 -1 -6 -8 5 -7 0 -11 -11 -10 -38 4 -54 0 -73 -22 -11 -12 -29 -22 -39 -23 -10 0 -31 -11 -47 -23 -15 -12 -33 -22 -40 -22 -7 0 -18 -7 -25 -15 -7 -8 -19 -15 -26 -15 -30 0 -150 -106 -375 -330 -129 -129 -265 -273 -303 -320 -96 -122 -157 -213 -160 -241 -1 -13 -8 -35 -16 -49 -7 -14 -13 -27 -13 -30 0 -14 -10 -40 -16 -40 -3 0 -12 -15 -20 -32 -8 -18 -17 -35 -21 -38 -3 -3 -18 -26 -32 -51 -28 -47 -110 -136 -163 -176 -61 -45 -110 -78 -120 -79 -5 0 -17 -4 -25 -7 -65 -25 -113 -32 -250 -35 -85 -2 -177 -4 -205 -5 -27 -1 -79 2 -115 7 -36 6 -105 11 -155 12 -220 5 -567 52 -925 125 -112 23 -189 33 -276 35 -120 3 -122 3 -116 -18 3 -13 -1 -26 -12 -34 -16 -11 -16 -20 -6 -93 7 -45 16 -81 21 -81 5 0 9 9 9 19 0 11 5 21 11 23 8 3 6 14 -5 37 -10 18 -15 35 -13 38 3 2 54 -7 114 -20 101 -24 642 -117 798 -138 499 -67 656 -82 860 -82 217 0 380 60 534 199 26 24 51 41 54 38 13 -14 74 68 86 118 8 29 25 67 37 84 13 17 24 39 24 48 0 34 67 129 234 334 56 67 110 135 121 150 11 15 55 61 99 102 43 41 84 81 91 87 7 7 42 36 78 65 35 29 99 82 142 116 64 53 170 122 187 122 3 0 5 -6 5 -12 0 -7 14 -35 31 -63 45 -73 111 -312 136 -488 2 -20 1 -35 -4 -32 -4 3 -4 -12 1 -33 5 -20 14 -82 19 -137 5 -55 14 -138 20 -185 20 -162 38 -386 55 -675 17 -287 18 -290 43 -317 32 -35 65 -35 99 -2 25 25 25 28 19 122 -11 164 -15 1031 -6 1147 30 349 104 633 250 960 93 207 95 213 64 213 -13 0 -25 -3 -25 -7z m-126 -189 c-29 -70 -143 -451 -158 -529 -8 -43 -20 -130 -25 -193 -11 -115 -46 -395 -55 -437 -3 -13 -12 -23 -20 -23 -8 0 -17 -14 -21 -35 -6 -34 -26 -46 -39 -25 -4 6 -15 93 -26 193 -35 346 -68 556 -89 582 -5 7 -7 15 -3 18 3 4 1 7 -5 7 -6 0 -9 6 -6 14 3 7 -1 20 -9 27 -7 8 -12 20 -9 27 2 6 -3 15 -12 18 -9 3 -14 9 -12 13 2 3 -2 21 -9 39 -8 18 -15 36 -15 40 -1 4 -6 12 -11 19 -7 8 9 22 53 49 88 52 101 52 23 0 -11 -8 -18 -16 -15 -19 10 -9 115 70 112 84 -2 8 0 11 4 7 4 -4 29 8 56 27 26 19 53 35 60 35 7 0 -3 -11 -22 -25 -19 -14 -29 -25 -24 -25 6 0 19 7 30 15 10 8 25 15 31 15 14 0 120 66 143 88 17 18 72 42 82 36 4 -2 0 -21 -9 -42z m-713 -346 c0 -2 -8 -10 -17 -17 -16 -13 -17 -12 -4 4 13 16 21 21 21 13z"/>
</g><g fill="url(#linear-gradient-5)" transform="translate(0.000000,462.000000) scale(0.100000,-0.100000)">
<path d="M4109 3751 c-244 -248 -283 -291 -419 -451 -40 -47 -91 -106 -114 -131 -99 -112 -142 -162 -156 -183 -8 -12 -25 -33 -36 -46 -208 -240 -363 -420 -419 -488 -110 -132 -267 -287 -360 -356 -22 -17 -42 -33 -45 -36 -3 -3 -23 -17 -45 -30 -22 -13 -42 -26 -45 -29 -37 -41 -338 -171 -395 -171 -24 0 -42 -16 -31 -27 10 -10 210 17 287 38 96 26 217 85 298 143 213 152 513 468 775 814 92 123 170 220 466 583 46 57 130 151 185 209 56 58 124 132 151 165 63 74 174 226 174 237 0 28 -53 -19 -271 -241z"/>
</g><g fill="url(#linear-gradient-6)" transform="translate(0.000000,462.000000) scale(0.100000,-0.100000)">
<path d="M4525 4150 c-4 -6 -10 -8 -14 -6 -11 7 -134 -130 -136 -152 -3 -38 -158 -233 -320 -402 -55 -58 -139 -152 -185 -209 -290 -356 -375 -462 -480 -601 -65 -85 -162 -207 -216 -270 -132 -153 -368 -389 -479 -478 -102 -82 -253 -161 -364 -191 -100 -28 -284 -48 -289 -33 -5 17 -72 15 -72 -1 0 -21 -187 -113 -270 -132 -60 -15 -138 -19 -397 -24 -210 -4 -326 -10 -333 -17 -8 -8 0 -22 27 -52 31 -34 58 -49 148 -83 178 -67 193 -70 330 -59 212 18 431 55 606 104 154 43 206 83 234 180 19 64 59 105 137 140 168 73 401 274 701 601 70 77 141 154 158 170 17 17 56 67 86 112 30 46 67 91 81 102 15 10 88 44 162 76 74 31 239 110 366 176 258 132 358 175 513 220 117 34 143 51 160 108 20 68 13 141 -24 253 -37 111 -85 292 -85 320 0 9 -7 24 -15 32 -14 14 -14 18 0 46 9 18 13 40 9 55 -6 25 -28 33 -39 15z"/>
</g></svg>