<?xml version="1.0" standalone="no"?>
<!DOCTYPE svg PUBLIC "-//W3C//DTD SVG 20010904//EN"
 "http://www.w3.org/TR/2001/REC-SVG-20010904/DTD/svg10.dtd">
<svg version="1.0" xmlns="http://www.w3.org/2000/svg"
 width="550.000000pt" height="290.000000pt" viewBox="0 0 550.000000 290.000000"
 preserveAspectRatio="xMidYMid meet">
<defs>
<linearGradient id="grad_0" x1="0%" y1="100%" x2="100%" y2="100%">
<stop offset="0%" style="stop-color:rgb(254, 254, 254); stop-opacity:1"/>
<stop offset="100%" style="stop-color:rgb(254, 254, 254); stop-opacity:1"/>
</linearGradient>
<linearGradient id="grad_1" x1="0%" y1="9%" x2="100%" y2="9%">
<stop offset="0%" style="stop-color:rgb(134, 34, 54); stop-opacity:1"/>
<stop offset="100%" style="stop-color:rgb(134, 34, 54); stop-opacity:1"/>
</linearGradient>
<linearGradient id="grad_2" x1="1%" y1="100%" x2="1%" y2="0%">
<stop offset="0%" style="stop-color:rgb(223, 101, 47); stop-opacity:1"/>
<stop offset="100%" style="stop-color:rgb(223, 87, 59); stop-opacity:1"/>
</linearGradient>
<linearGradient id="grad_3" x1="0%" y1="90%" x2="100%" y2="90%">
<stop offset="0%" style="stop-color:rgb(255, 255, 255); stop-opacity:1"/>
<stop offset="100%" style="stop-color:rgb(255, 255, 255); stop-opacity:1"/>
</linearGradient>
<linearGradient id="grad_4" x1="100%" y1="100%" x2="-1%" y2="0%">
<stop offset="0%" style="stop-color:rgb(140, 171, 241); stop-opacity:1"/>
<stop offset="100%" style="stop-color:rgb(160, 203, 250); stop-opacity:1"/>
</linearGradient>
<linearGradient id="grad_5" x1="0%" y1="100%" x2="100%" y2="100%">
<stop offset="0%" style="stop-color:rgb(82, 28, 62); stop-opacity:1"/>
<stop offset="100%" style="stop-color:rgb(82, 28, 62); stop-opacity:1"/>
</linearGradient>
<linearGradient id="grad_6" x1="100%" y1="100%" x2="84%" y2="0%">
<stop offset="0%" style="stop-color:rgb(138, 170, 240); stop-opacity:1"/>
<stop offset="100%" style="stop-color:rgb(165, 216, 254); stop-opacity:1"/>
</linearGradient>
<linearGradient id="grad_7" x1="0%" y1="100%" x2="100%" y2="100%">
<stop offset="0%" style="stop-color:rgb(82, 28, 62); stop-opacity:1"/>
<stop offset="100%" style="stop-color:rgb(82, 28, 62); stop-opacity:1"/>
</linearGradient>
<linearGradient id="grad_8" x1="0%" y1="100%" x2="100%" y2="100%">
<stop offset="0%" style="stop-color:rgb(82, 28, 62); stop-opacity:1"/>
<stop offset="100%" style="stop-color:rgb(82, 28, 62); stop-opacity:1"/>
</linearGradient>
<linearGradient id="grad_9" x1="0%" y1="100%" x2="100%" y2="100%">
<stop offset="0%" style="stop-color:rgb(156, 200, 249); stop-opacity:1"/>
<stop offset="100%" style="stop-color:rgb(156, 200, 249); stop-opacity:1"/>
</linearGradient>
<linearGradient id="grad_10" x1="0%" y1="100%" x2="100%" y2="100%">
<stop offset="0%" style="stop-color:rgb(82, 28, 62); stop-opacity:1"/>
<stop offset="100%" style="stop-color:rgb(82, 28, 62); stop-opacity:1"/>
</linearGradient>
<linearGradient id="grad_11" x1="0%" y1="84%" x2="100%" y2="84%">
<stop offset="0%" style="stop-color:rgb(134, 34, 54); stop-opacity:1"/>
<stop offset="100%" style="stop-color:rgb(134, 34, 54); stop-opacity:1"/>
</linearGradient>
<linearGradient id="grad_12" x1="0%" y1="88%" x2="100%" y2="88%">
<stop offset="0%" style="stop-color:rgb(240, 94, 34); stop-opacity:1"/>
<stop offset="100%" style="stop-color:rgb(240, 94, 34); stop-opacity:1"/>
</linearGradient>
<linearGradient id="grad_13" x1="0%" y1="100%" x2="100%" y2="100%">
<stop offset="0%" style="stop-color:rgb(82, 28, 62); stop-opacity:1"/>
<stop offset="100%" style="stop-color:rgb(82, 28, 62); stop-opacity:1"/>
</linearGradient>
<linearGradient id="grad_14" x1="0%" y1="100%" x2="100%" y2="100%">
<stop offset="0%" style="stop-color:rgb(170, 44, 65); stop-opacity:1"/>
<stop offset="100%" style="stop-color:rgb(170, 44, 65); stop-opacity:1"/>
</linearGradient>
<linearGradient id="grad_15" x1="33%" y1="100%" x2="38%" y2="1%">
<stop offset="0%" style="stop-color:rgb(223, 100, 48); stop-opacity:1"/>
<stop offset="100%" style="stop-color:rgb(223, 87, 58); stop-opacity:1"/>
</linearGradient>
<linearGradient id="grad_16" x1="100%" y1="100%" x2="5%" y2="0%">
<stop offset="0%" style="stop-color:rgb(137, 169, 240); stop-opacity:1"/>
<stop offset="100%" style="stop-color:rgb(157, 202, 249); stop-opacity:1"/>
</linearGradient>
<linearGradient id="grad_17" x1="0%" y1="100%" x2="100%" y2="100%">
<stop offset="0%" style="stop-color:rgb(82, 28, 62); stop-opacity:1"/>
<stop offset="100%" style="stop-color:rgb(82, 28, 62); stop-opacity:1"/>
</linearGradient>
<linearGradient id="grad_18" x1="0%" y1="4%" x2="100%" y2="4%">
<stop offset="0%" style="stop-color:rgb(134, 34, 54); stop-opacity:1"/>
<stop offset="100%" style="stop-color:rgb(134, 34, 54); stop-opacity:1"/>
</linearGradient>
<linearGradient id="grad_19" x1="0%" y1="100%" x2="100%" y2="100%">
<stop offset="0%" style="stop-color:rgb(82, 28, 62); stop-opacity:1"/>
<stop offset="100%" style="stop-color:rgb(82, 28, 62); stop-opacity:1"/>
</linearGradient>
<linearGradient id="grad_20" x1="0%" y1="100%" x2="100%" y2="100%">
<stop offset="0%" style="stop-color:rgb(82, 28, 62); stop-opacity:1"/>
<stop offset="100%" style="stop-color:rgb(82, 28, 62); stop-opacity:1"/>
</linearGradient>
<linearGradient id="grad_21" x1="0%" y1="2%" x2="100%" y2="2%">
<stop offset="0%" style="stop-color:rgb(134, 34, 54); stop-opacity:1"/>
<stop offset="100%" style="stop-color:rgb(134, 34, 54); stop-opacity:1"/>
</linearGradient>
<linearGradient id="grad_22" x1="0%" y1="100%" x2="0%" y2="0%">
<stop offset="0%" style="stop-color:rgb(240, 94, 34); stop-opacity:1"/>
<stop offset="100%" style="stop-color:rgb(254, 124, 50); stop-opacity:1"/>
</linearGradient>
<linearGradient id="grad_23" x1="0%" y1="100%" x2="144%" y2="54%">
<stop offset="0%" style="stop-color:rgb(239, 170, 144); stop-opacity:1"/>
<stop offset="100%" style="stop-color:rgb(243, 175, 146); stop-opacity:1"/>
</linearGradient>
<linearGradient id="grad_24" x1="0%" y1="100%" x2="100%" y2="100%">
<stop offset="0%" style="stop-color:rgb(82, 28, 62); stop-opacity:1"/>
<stop offset="100%" style="stop-color:rgb(82, 28, 62); stop-opacity:1"/>
</linearGradient>
<linearGradient id="grad_25" x1="0%" y1="100%" x2="100%" y2="100%">
<stop offset="0%" style="stop-color:rgb(82, 28, 62); stop-opacity:1"/>
<stop offset="100%" style="stop-color:rgb(82, 28, 62); stop-opacity:1"/>
</linearGradient>
<linearGradient id="grad_26" x1="0%" y1="100%" x2="100%" y2="100%">
<stop offset="0%" style="stop-color:rgb(82, 28, 62); stop-opacity:1"/>
<stop offset="100%" style="stop-color:rgb(82, 28, 62); stop-opacity:1"/>
</linearGradient>
<linearGradient id="grad_27" x1="0%" y1="100%" x2="100%" y2="100%">
<stop offset="0%" style="stop-color:rgb(82, 28, 62); stop-opacity:1"/>
<stop offset="100%" style="stop-color:rgb(82, 28, 62); stop-opacity:1"/>
</linearGradient>
<linearGradient id="grad_28" x1="0%" y1="100%" x2="100%" y2="100%">
<stop offset="0%" style="stop-color:rgb(170, 44, 65); stop-opacity:1"/>
<stop offset="100%" style="stop-color:rgb(170, 44, 65); stop-opacity:1"/>
</linearGradient>
<linearGradient id="grad_29" x1="0%" y1="100%" x2="100%" y2="100%">
<stop offset="0%" style="stop-color:rgb(82, 28, 62); stop-opacity:1"/>
<stop offset="100%" style="stop-color:rgb(82, 28, 62); stop-opacity:1"/>
</linearGradient>
<linearGradient id="grad_30" x1="0%" y1="100%" x2="100%" y2="100%">
<stop offset="0%" style="stop-color:rgb(82, 28, 62); stop-opacity:1"/>
<stop offset="100%" style="stop-color:rgb(82, 28, 62); stop-opacity:1"/>
</linearGradient>
<linearGradient id="grad_31" x1="0%" y1="100%" x2="100%" y2="100%">
<stop offset="0%" style="stop-color:rgb(82, 28, 62); stop-opacity:1"/>
<stop offset="100%" style="stop-color:rgb(82, 28, 62); stop-opacity:1"/>
</linearGradient>
<linearGradient id="grad_32" x1="0%" y1="43%" x2="100%" y2="43%">
<stop offset="0%" style="stop-color:rgb(255, 255, 255); stop-opacity:1"/>
<stop offset="100%" style="stop-color:rgb(255, 255, 255); stop-opacity:1"/>
</linearGradient>
<linearGradient id="grad_33" x1="0%" y1="100%" x2="100%" y2="100%">
<stop offset="0%" style="stop-color:rgb(170, 44, 65); stop-opacity:1"/>
<stop offset="100%" style="stop-color:rgb(170, 44, 65); stop-opacity:1"/>
</linearGradient>
<linearGradient id="grad_34" x1="0%" y1="16%" x2="100%" y2="16%">
<stop offset="0%" style="stop-color:rgb(255, 255, 255); stop-opacity:1"/>
<stop offset="100%" style="stop-color:rgb(255, 255, 255); stop-opacity:1"/>
</linearGradient>
<linearGradient id="grad_35" x1="0%" y1="0%" x2="100%" y2="0%">
<stop offset="0%" style="stop-color:rgb(253, 252, 252); stop-opacity:1"/>
<stop offset="100%" style="stop-color:rgb(253, 252, 252); stop-opacity:1"/>
</linearGradient>
<linearGradient id="grad_36" x1="0%" y1="58%" x2="100%" y2="58%">
<stop offset="0%" style="stop-color:rgb(250, 181, 150); stop-opacity:1"/>
<stop offset="100%" style="stop-color:rgb(250, 181, 150); stop-opacity:1"/>
</linearGradient>
<linearGradient id="grad_37" x1="0%" y1="100%" x2="100%" y2="100%">
<stop offset="0%" style="stop-color:rgb(170, 44, 65); stop-opacity:1"/>
<stop offset="100%" style="stop-color:rgb(170, 44, 65); stop-opacity:1"/>
</linearGradient>
<linearGradient id="grad_38" x1="0%" y1="100%" x2="100%" y2="100%">
<stop offset="0%" style="stop-color:rgb(82, 28, 62); stop-opacity:1"/>
<stop offset="100%" style="stop-color:rgb(82, 28, 62); stop-opacity:1"/>
</linearGradient>
<linearGradient id="grad_39" x1="96%" y1="0%" x2="88%" y2="141%">
<stop offset="0%" style="stop-color:rgb(172, 44, 62); stop-opacity:1"/>
<stop offset="100%" style="stop-color:rgb(162, 44, 73); stop-opacity:1"/>
</linearGradient>
<linearGradient id="grad_40" x1="100%" y1="100%" x2="99%" y2="-15%">
<stop offset="0%" style="stop-color:rgb(241, 172, 144); stop-opacity:1"/>
<stop offset="100%" style="stop-color:rgb(255, 255, 242); stop-opacity:1"/>
</linearGradient>
<linearGradient id="grad_41" x1="0%" y1="100%" x2="100%" y2="100%">
<stop offset="0%" style="stop-color:rgb(197, 88, 91); stop-opacity:1"/>
<stop offset="100%" style="stop-color:rgb(197, 88, 91); stop-opacity:1"/>
</linearGradient>
<linearGradient id="grad_42" x1="0%" y1="16%" x2="100%" y2="16%">
<stop offset="0%" style="stop-color:rgb(170, 44, 65); stop-opacity:1"/>
<stop offset="100%" style="stop-color:rgb(170, 44, 65); stop-opacity:1"/>
</linearGradient>
<linearGradient id="grad_43" x1="0%" y1="100%" x2="100%" y2="100%">
<stop offset="0%" style="stop-color:rgb(249, 180, 149); stop-opacity:1"/>
<stop offset="100%" style="stop-color:rgb(249, 180, 149); stop-opacity:1"/>
</linearGradient>
<linearGradient id="grad_44" x1="0%" y1="100%" x2="126%" y2="14%">
<stop offset="0%" style="stop-color:rgb(255, 255, 255); stop-opacity:0.530694"/>
<stop offset="100%" style="stop-color:rgb(255, 255, 255); stop-opacity:0.530708"/>
</linearGradient>
<linearGradient id="grad_45" x1="100%" y1="0%" x2="99%" y2="100%">
<stop offset="0%" style="stop-color:rgb(255, 255, 255); stop-opacity:0.487848"/>
<stop offset="100%" style="stop-color:rgb(255, 255, 255); stop-opacity:0.526062"/>
</linearGradient>
<linearGradient id="grad_46" x1="0%" y1="0%" x2="100%" y2="99%">
<stop offset="0%" style="stop-color:rgb(255, 255, 255); stop-opacity:0.530463"/>
<stop offset="100%" style="stop-color:rgb(255, 255, 255); stop-opacity:0.530815"/>
</linearGradient>
<linearGradient id="grad_47" x1="26%" y1="100%" x2="26%" y2="0%">
<stop offset="0%" style="stop-color:rgb(255, 255, 255); stop-opacity:0.997097"/>
<stop offset="100%" style="stop-color:rgb(255, 255, 255); stop-opacity:1"/>
</linearGradient>
</defs>
<g transform="translate(0.000000,290.000000) scale(0.100000,-0.100000)"
fill="url(#grad_0)" stroke="none">
<g>
<path d="M0 1450 l0 -1450 2750 0 2750 0 0 1450 0 1450 -2750 0 -2750 0 0
-1450z"/>
</g>
</g>
<g transform="translate(0.000000,290.000000) scale(0.100000,-0.100000)"
fill="url(#grad_1)" stroke="none">
<g>
<path d="M3336 2825 c-3 -9 -9 -65 -12 -125 l-7 -110 44 0 c58 0 65 -6 73 -62
l7 -48 -44 0 c-74 0 -167 -12 -161 -21 3 -5 25 -9 50 -9 32 0 44 -4 44 -15 0
-8 5 -15 10 -15 6 0 10 7 10 15 0 11 11 15 43 15 23 0 52 3 65 6 23 7 24 15 7
100 -5 22 -43 44 -75 44 -19 0 -20 8 -20 109 0 80 -4 112 -14 120 -11 9 -15 8
-20 -4z"/>
</g>
</g>
<g transform="translate(0.000000,290.000000) scale(0.100000,-0.100000)"
fill="url(#grad_2)" stroke="none">
<g>
<path d="M1750 2688 c0 -90 -3 -180 -6 -200 l-7 -38 53 0 53 0 -5 112 -5 111
42 -106 c23 -59 44 -109 47 -112 2 -3 23 41 46 97 l41 103 0 -97 1 -98 60 0
60 0 0 92 c0 50 3 88 7 84 4 -4 13 -35 20 -68 19 -92 20 -93 183 -93 189 0
184 -5 185 187 0 79 -3 151 -7 161 -7 15 -25 17 -177 17 -190 0 -177 6 -187
-86 -4 -30 -10 -54 -14 -54 -10 0 -20 52 -20 101 l0 39 -68 0 -68 0 -29 -60
-29 -61 -19 66 -20 65 -68 0 -69 0 0 -162z"/>
</g>
</g>
<g transform="translate(0.000000,290.000000) scale(0.100000,-0.100000)"
fill="url(#grad_3)" stroke="none">
<g>
<path d="M2293 2683 c-8 -3 -13 -24 -13 -54 l0 -49 70 0 c78 0 90 10 90 74 l0
36 -67 -1 c-38 0 -74 -3 -80 -6z"/>
</g>
</g>
<g transform="translate(0.000000,290.000000) scale(0.100000,-0.100000)"
fill="url(#grad_4)" stroke="none">
<g>
<path d="M4090 1650 l0 -260 140 0 140 0 0 260 0 260 -140 0 -140 0 0 -260z"/>
</g>
</g>
<g transform="translate(0.000000,290.000000) scale(0.100000,-0.100000)"
fill="url(#grad_5)" stroke="none">
<g>
<path d="M4240 1670 l0 -200 55 0 55 0 0 200 0 200 -55 0 -55 0 0 -200z"/>
</g>
</g>
<g transform="translate(0.000000,290.000000) scale(0.100000,-0.100000)"
fill="url(#grad_6)" stroke="none">
<g>
<path d="M1010 480 l0 -400 140 0 140 0 0 400 0 400 -140 0 -140 0 0 -400z"/>
</g>
</g>
<g transform="translate(0.000000,290.000000) scale(0.100000,-0.100000)"
fill="url(#grad_7)" stroke="none">
<g>
<path d="M1040 635 l0 -205 55 0 55 0 0 205 0 205 -55 0 -55 0 0 -205z"/>
</g>
</g>
<g transform="translate(0.000000,290.000000) scale(0.100000,-0.100000)"
fill="url(#grad_8)" stroke="none">
<g>
<path d="M1160 635 l0 -205 55 0 55 0 0 205 0 205 -55 0 -55 0 0 -205z"/>
</g>
</g>
<g transform="translate(0.000000,290.000000) scale(0.100000,-0.100000)"
fill="url(#grad_9)" stroke="none">
<g>
<path d="M4090 475 l0 -395 145 0 145 0 0 395 0 395 -145 0 -145 0 0 -395z"/>
</g>
</g>
<g transform="translate(0.000000,290.000000) scale(0.100000,-0.100000)"
fill="url(#grad_10)" stroke="none">
<g>
<path d="M4250 635 l0 -205 55 0 55 0 0 205 0 205 -55 0 -55 0 0 -205z"/>
</g>
</g>
<g transform="translate(0.000000,290.000000) scale(0.100000,-0.100000)"
fill="url(#grad_11)" stroke="none">
<g>
<path d="M2272 2710 c-21 -9 -23 -15 -20 -67 4 -74 28 -87 28 -15 0 58 5 62
91 62 57 0 77 11 43 24 -23 9 -116 6 -142 -4z"/>
</g>
</g>
<g transform="translate(0.000000,290.000000) scale(0.100000,-0.100000)"
fill="url(#grad_12)" stroke="none">
<g>
<path d="M476 2163 c-3 -42 -6 -233 -6 -425 l0 -348 240 0 240 0 0 305 0 305
170 0 170 0 0 -305 0 -305 1370 0 1370 0 0 290 0 290 170 0 170 0 0 -290 0
-290 203 2 202 3 22 350 c12 193 22 383 22 423 l1 72 -2169 0 -2168 0 -7 -77z"/>
</g>
</g>
<g transform="translate(0.000000,290.000000) scale(0.100000,-0.100000)"
fill="url(#grad_13)" stroke="none">
<g>
<path d="M2020 1735 l0 -255 150 0 150 0 0 255 0 255 -150 0 -150 0 0 -255z"/>
</g>
</g>
<g transform="translate(0.000000,290.000000) scale(0.100000,-0.100000)"
fill="url(#grad_14)" stroke="none">
<g>
<path d="M950 510 l0 -430 30 0 30 0 0 400 0 400 140 0 140 0 0 30 0 30 -170
0 -170 0 0 -430z"/>
</g>
</g>
<g transform="translate(0.000000,290.000000) scale(0.100000,-0.100000)"
fill="url(#grad_15)" stroke="none">
<g>
<path d="M2920 2825 c0 -14 -3 -25 -7 -25 -10 0 -167 27 -204 35 -24 6 -27 2
-38 -39 -6 -25 -11 -47 -11 -50 0 -2 13 -7 30 -11 16 -4 32 -11 35 -15 3 -5
-6 -66 -20 -135 -14 -69 -23 -135 -20 -145 5 -16 15 -20 50 -20 38 0 45 3 49
23 3 12 15 71 27 130 24 119 18 113 91 91 13 -4 19 7 29 51 13 60 29 82 29 41
0 -41 -21 -126 -31 -126 -5 0 -9 -39 -9 -86 l0 -87 127 7 c70 4 129 8 130 10
2 1 0 24 -4 51 l-6 48 -69 -7 c-39 -3 -68 -2 -68 3 0 5 -3 16 -6 24 -4 12 8
18 50 27 l56 11 0 50 0 49 -60 0 c-45 0 -60 4 -60 14 0 11 22 16 91 22 62 4
92 11 96 20 16 42 23 -4 23 -152 l0 -167 68 6 c37 4 86 7 110 7 l43 0 -7 48
c-8 55 -15 62 -71 62 l-43 0 0 58 c1 31 5 88 10 127 5 38 7 72 4 74 -2 2 -34
0 -71 -6 -39 -6 -72 -7 -78 -2 -5 5 -67 9 -137 9 l-128 0 0 -25z"/>
</g>
</g>
<g transform="translate(0.000000,290.000000) scale(0.100000,-0.100000)"
fill="url(#grad_16)" stroke="none">
<g>
<path d="M1010 1665 l0 -275 140 0 140 0 0 275 0 275 -140 0 -140 0 0 -275z"/>
</g>
</g>
<g transform="translate(0.000000,290.000000) scale(0.100000,-0.100000)"
fill="url(#grad_17)" stroke="none">
<g>
<path d="M1040 1700 l0 -200 55 0 55 0 0 200 0 200 -55 0 -55 0 0 -200z"/>
</g>
</g>
<g transform="translate(0.000000,290.000000) scale(0.100000,-0.100000)"
fill="url(#grad_18)" stroke="none">
<g>
<path d="M1890 2843 c0 -4 8 -34 18 -66 l18 -57 29 60 29 60 68 0 68 0 0 -39
c0 -49 10 -101 20 -101 4 0 10 24 14 54 10 92 -3 86 187 86 152 0 170 -2 177
-17 4 -10 7 -82 7 -161 -1 -192 4 -187 -185 -187 -163 0 -164 1 -183 93 -7 33
-16 64 -20 68 -4 4 -7 -34 -7 -84 l0 -92 -60 0 -60 0 -1 98 0 97 -41 -103
c-23 -56 -44 -100 -46 -97 -3 3 -24 53 -47 112 l-42 106 5 -111 5 -112 -54 -1
-54 0 35 -13 c19 -7 52 -11 73 -8 36 4 37 5 38 46 l1 41 11 -35 c13 -45 10
-42 41 -34 17 4 34 20 46 43 l19 36 1 -37 c0 -35 2 -37 38 -44 20 -4 43 -12
51 -18 11 -8 15 -8 18 1 3 8 14 11 29 7 22 -6 24 -3 24 26 0 25 3 30 13 22 7
-6 52 -16 100 -23 60 -8 87 -16 87 -26 0 -7 5 -13 10 -13 6 0 10 6 10 14 0 9
20 15 67 19 43 4 77 14 93 26 25 18 25 19 23 177 -2 206 13 193 -224 194 -159
0 -178 -2 -184 -17 -6 -17 -7 -17 -16 0 -8 14 -24 17 -88 17 l-78 0 -19 -39
-19 -40 -10 36 c-9 32 -35 59 -35 36z"/>
</g>
</g>
<g transform="translate(0.000000,290.000000) scale(0.100000,-0.100000)"
fill="url(#grad_19)" stroke="none">
<g>
<path d="M4130 635 l0 -205 55 0 55 0 0 205 0 205 -55 0 -55 0 0 -205z"/>
</g>
</g>
<g transform="translate(0.000000,290.000000) scale(0.100000,-0.100000)"
fill="url(#grad_20)" stroke="none">
<g>
<path d="M4120 1670 l0 -200 55 0 55 0 0 200 0 200 -55 0 -55 0 0 -200z"/>
</g>
</g>
<g transform="translate(0.000000,290.000000) scale(0.100000,-0.100000)"
fill="url(#grad_21)" stroke="none">
<g>
<path d="M2949 2775 c-4 -5 -12 -34 -19 -63 -9 -41 -16 -52 -29 -48 -72 22
-66 28 -90 -91 -12 -59 -24 -118 -27 -130 -3 -16 0 -23 10 -23 15 0 21 16 56
150 13 52 20 65 36 65 17 0 19 -9 22 -91 l3 -91 37 -7 c20 -3 51 -6 69 -6 17
0 34 -6 37 -12 5 -10 7 -10 12 0 4 8 28 12 70 12 73 0 73 0 52 90 l-12 52 -68
-4 c-84 -6 -88 12 -7 27 53 10 54 11 57 49 2 21 -1 43 -7 49 -6 6 -11 19 -11
29 0 13 8 18 30 18 18 0 30 5 30 13 0 10 -15 11 -67 6 -38 -5 -80 -8 -95 -8
-18 -1 -28 -6 -28 -16 0 -12 13 -15 60 -15 l60 0 0 -49 0 -50 -56 -11 c-42 -9
-54 -15 -50 -27 3 -8 6 -19 6 -24 0 -5 29 -6 68 -3 l69 7 6 -48 c4 -27 6 -50
4 -51 -1 -2 -60 -6 -130 -10 l-127 -7 0 87 c0 47 4 86 9 86 12 0 34 101 29
132 -2 13 -6 19 -9 13z"/>
</g>
</g>
<g transform="translate(0.000000,290.000000) scale(0.100000,-0.100000)"
fill="url(#grad_22)" stroke="none">
<g>
<path d="M470 525 l0 -445 240 0 240 0 0 430 0 430 170 0 170 0 0 -430 0 -430
1370 0 1370 0 0 425 0 425 175 0 175 0 0 -425 0 -425 160 0 160 0 0 38 c0 20
11 219 25 442 14 223 25 406 25 408 0 1 -963 2 -2140 2 l-2140 0 0 -445z"/>
</g>
</g>
<g transform="translate(0.000000,290.000000) scale(0.100000,-0.100000)"
fill="url(#grad_23)" stroke="none">
<g>
<path d="M1670 630 l0 -290 340 0 340 0 0 290 0 290 -340 0 -340 0 0 -290z"/>
</g>
</g>
<g transform="translate(0.000000,290.000000) scale(0.100000,-0.100000)"
fill="url(#grad_24)" stroke="none">
<g>
<path d="M1700 635 l0 -255 140 0 140 0 0 255 0 255 -140 0 -140 0 0 -255z"/>
</g>
</g>
<g transform="translate(0.000000,290.000000) scale(0.100000,-0.100000)"
fill="url(#grad_25)" stroke="none">
<g>
<path d="M2870 635 l0 -255 145 0 145 0 0 255 0 255 -145 0 -145 0 0 -255z"/>
</g>
</g>
<g transform="translate(0.000000,290.000000) scale(0.100000,-0.100000)"
fill="url(#grad_26)" stroke="none">
<g>
<path d="M1700 1735 l0 -255 145 0 145 0 0 255 0 255 -145 0 -145 0 0 -255z"/>
</g>
</g>
<g transform="translate(0.000000,290.000000) scale(0.100000,-0.100000)"
fill="url(#grad_27)" stroke="none">
<g>
<path d="M3190 635 l0 -255 150 0 150 0 0 255 0 255 -150 0 -150 0 0 -255z"/>
</g>
</g>
<g transform="translate(0.000000,290.000000) scale(0.100000,-0.100000)"
fill="url(#grad_28)" stroke="none">
<g>
<path d="M4030 505 l0 -425 30 0 30 0 0 395 0 395 145 0 145 0 0 30 0 30 -175
0 -175 0 0 -425z"/>
</g>
</g>
<g transform="translate(0.000000,290.000000) scale(0.100000,-0.100000)"
fill="url(#grad_29)" stroke="none">
<g>
<path d="M2020 635 l0 -255 150 0 150 0 0 255 0 255 -150 0 -150 0 0 -255z"/>
</g>
</g>
<g transform="translate(0.000000,290.000000) scale(0.100000,-0.100000)"
fill="url(#grad_30)" stroke="none">
<g>
<path d="M2870 1735 l0 -255 145 0 145 0 0 255 0 255 -145 0 -145 0 0 -255z"/>
</g>
</g>
<g transform="translate(0.000000,290.000000) scale(0.100000,-0.100000)"
fill="url(#grad_31)" stroke="none">
<g>
<path d="M3190 1735 l0 -255 150 0 150 0 0 255 0 255 -150 0 -150 0 0 -255z"/>
</g>
</g>
<g transform="translate(0.000000,290.000000) scale(0.100000,-0.100000)"
fill="url(#grad_32)" stroke="none">
<g>
<path d="M3200 2775 c0 -21 -5 -25 -30 -25 -22 0 -30 -5 -30 -18 0 -10 5 -23
11 -29 6 -6 9 -28 7 -49 -3 -38 -4 -39 -57 -49 -81 -15 -77 -33 7 -27 l68 4
12 -52 c21 -90 21 -90 -53 -90 -37 0 -65 -4 -65 -10 0 -6 50 -10 130 -10 109
0 130 2 130 15 0 11 -11 15 -43 15 -24 0 -48 5 -55 12 -8 8 -12 62 -12 175 0
102 -4 163 -10 163 -5 0 -10 -11 -10 -25z"/>
</g>
</g>
<g transform="translate(0.000000,290.000000) scale(0.100000,-0.100000)"
fill="url(#grad_33)" stroke="none">
<g>
<path d="M4030 1680 l0 -290 30 0 30 0 0 260 0 260 140 0 140 0 0 30 0 30
-170 0 -170 0 0 -290z"/>
</g>
</g>
<g transform="translate(0.000000,290.000000) scale(0.100000,-0.100000)"
fill="url(#grad_34)" stroke="none">
<g>
<path d="M2160 2460 c0 -29 -2 -32 -25 -26 -14 4 -25 2 -25 -4 0 -6 47 -10
125 -10 98 0 125 3 125 13 0 10 -27 18 -87 26 -48 7 -93 17 -100 23 -10 8 -13
3 -13 -22z"/>
</g>
</g>
<g transform="translate(0.000000,290.000000) scale(0.100000,-0.100000)"
fill="url(#grad_35)" stroke="none">
<g>
<path d="M1981 2492 c-12 -29 -43 -52 -70 -52 -4 0 -12 17 -18 38 l-10 37 -2
-42 c-1 -39 -3 -42 -33 -46 -18 -2 29 -5 105 -5 132 -2 172 8 88 22 -37 6 -40
8 -43 44 l-3 37 -14 -33z"/>
</g>
</g>
<g transform="translate(0.000000,290.000000) scale(0.100000,-0.100000)"
fill="url(#grad_36)" stroke="none">
<g>
<path d="M2865 2628 c-2 -7 -9 -33 -15 -58 -6 -25 -18 -69 -26 -97 l-15 -53
-1395 0 -1395 0 3 -66 3 -67 210 -74 c115 -40 215 -72 222 -71 7 2 -84 37
-202 78 l-216 75 108 6 c59 4 1188 7 2509 8 l2400 1 152 -105 c84 -58 161
-105 172 -105 17 0 20 7 20 44 l0 45 -147 121 -148 122 -1027 -5 c-576 -2
-1028 -1 -1028 4 0 5 -15 9 -32 9 -18 0 -50 3 -70 6 l-37 7 -3 91 c-3 77 -6
91 -21 94 -9 2 -19 -2 -22 -10z"/>
</g>
</g>
<g transform="translate(0.000000,290.000000) scale(0.100000,-0.100000)"
fill="url(#grad_37)" stroke="none">
<g>
<path d="M950 1695 l0 -305 30 0 30 0 0 275 0 275 140 0 140 0 0 30 0 30 -170
0 -170 0 0 -305z"/>
</g>
</g>
<g transform="translate(0.000000,290.000000) scale(0.100000,-0.100000)"
fill="url(#grad_38)" stroke="none">
<g>
<path d="M1160 1700 l0 -200 55 0 55 0 0 200 0 200 -55 0 -55 0 0 -200z"/>
</g>
</g>
<g transform="translate(0.000000,290.000000) scale(0.100000,-0.100000)"
fill="url(#grad_39)" stroke="none">
<g>
<path d="M137 2301 l-98 -6 218 -76 218 -76 3 48 3 49 2170 0 2169 0 -1 -67
c0 -38 -10 -229 -22 -425 l-22 -358 126 0 c114 0 127 -2 131 -18 4 -13 23 -21
73 -30 37 -7 68 -12 70 -10 1 2 12 154 24 338 12 184 24 356 27 382 l6 47 61
3 61 3 -149 103 -149 102 -2411 -2 c-1325 -1 -2454 -4 -2508 -7z"/>
</g>
</g>
<g transform="translate(0.000000,290.000000) scale(0.100000,-0.100000)"
fill="url(#grad_40)" stroke="none">
<g>
<path d="M300 1350 l0 -40 2365 0 2365 0 0 40 0 40 -2365 0 -2365 0 0 -40z"/>
</g>
</g>
<g transform="translate(0.000000,290.000000) scale(0.100000,-0.100000)"
fill="url(#grad_41)" stroke="none">
<g>
<path d="M5030 1154 l0 -204 135 0 c101 0 135 3 135 13 0 6 7 73 15 147 22
207 40 180 -135 216 l-150 31 0 -203z"/>
</g>
</g>
<g transform="translate(0.000000,290.000000) scale(0.100000,-0.100000)"
fill="url(#grad_42)" stroke="none">
<g>
<path d="M4746 889 c-9 -104 -46 -726 -46 -771 l0 -38 195 0 194 0 5 33 c8 53
57 829 53 834 -3 2 -93 7 -200 10 l-195 6 -6 -74z"/>
</g>
</g>
<g transform="translate(0.000000,290.000000) scale(0.100000,-0.100000)"
fill="url(#grad_43)" stroke="none">
<g>
<path d="M300 1140 l0 -170 2153 0 c1185 0 2249 -3 2365 -7 l212 -6 0 176 0
177 -2365 0 -2365 0 0 -170z"/>
</g>
</g>
<g transform="translate(0.000000,290.000000) scale(0.100000,-0.100000)"
fill="url(#grad_44)" stroke="none">
<g>
<path d="M1670 1730 l0 -290 340 0 340 0 0 290 0 290 -340 0 -340 0 0 -290z
m320 5 l0 -255 -145 0 -145 0 0 255 0 255 145 0 145 0 0 -255z m330 0 l0 -255
-150 0 -150 0 0 255 0 255 150 0 150 0 0 -255z"/>
</g>
</g>
<g transform="translate(0.000000,290.000000) scale(0.100000,-0.100000)"
fill="url(#grad_45)" stroke="none">
<g>
<path d="M2840 630 l0 -290 340 0 340 0 0 290 0 290 -340 0 -340 0 0 -290z
m320 5 l0 -255 -145 0 -145 0 0 255 0 255 145 0 145 0 0 -255z m330 0 l0 -255
-150 0 -150 0 0 255 0 255 150 0 150 0 0 -255z"/>
</g>
</g>
<g transform="translate(0.000000,290.000000) scale(0.100000,-0.100000)"
fill="url(#grad_46)" stroke="none">
<g>
<path d="M2840 1730 l0 -290 340 0 340 0 0 290 0 290 -340 0 -340 0 0 -290z
m320 5 l0 -255 -145 0 -145 0 0 255 0 255 145 0 145 0 0 -255z m330 0 l0 -255
-150 0 -150 0 0 255 0 255 150 0 150 0 0 -255z"/>
</g>
</g>
<g transform="translate(0.000000,290.000000) scale(0.100000,-0.100000)"
fill="url(#grad_47)" stroke="none">
<g>
<path d="M2866 2628 c-3 -7 -14 -49 -26 -93 -11 -44 -23 -88 -26 -97 -5 -16 5
-18 115 -18 74 0 121 4 121 10 0 6 -15 10 -32 10 -18 0 -50 3 -70 6 l-37 7 -3
91 c-3 77 -6 91 -21 94 -9 2 -19 -2 -21 -10z"/>
</g>
</g>
</svg>
