<?xml version="1.0" standalone="no"?>
<!DOCTYPE svg PUBLIC "-//W3C//DTD SVG 20010904//EN"
 "http://www.w3.org/TR/2001/REC-SVG-20010904/DTD/svg10.dtd">
<svg version="1.0" xmlns="http://www.w3.org/2000/svg"
 width="705.000000pt" height="752.000000pt" viewBox="0 0 705.000000 752.000000"
 preserveAspectRatio="xMidYMid meet">
<defs>
<linearGradient id="grad_0" x1="0%" y1="100%" x2="100%" y2="100%">
<stop offset="0%" style="stop-color:rgb(253, 253, 253); stop-opacity:1"/>
<stop offset="100%" style="stop-color:rgb(253, 253, 253); stop-opacity:1"/>
</linearGradient>
<linearGradient id="grad_1" x1="0%" y1="26%" x2="100%" y2="26%">
<stop offset="0%" style="stop-color:rgb(158, 105, 69); stop-opacity:1"/>
<stop offset="100%" style="stop-color:rgb(158, 105, 69); stop-opacity:1"/>
</linearGradient>
<linearGradient id="grad_2" x1="0%" y1="26%" x2="100%" y2="26%">
<stop offset="0%" style="stop-color:rgb(187, 137, 97); stop-opacity:1"/>
<stop offset="100%" style="stop-color:rgb(187, 137, 97); stop-opacity:1"/>
</linearGradient>
<linearGradient id="grad_3" x1="0%" y1="56%" x2="100%" y2="56%">
<stop offset="0%" style="stop-color:rgb(163, 111, 76); stop-opacity:1"/>
<stop offset="100%" style="stop-color:rgb(163, 111, 76); stop-opacity:1"/>
</linearGradient>
<linearGradient id="grad_4" x1="5%" y1="27%" x2="12%" y2="235%">
<stop offset="0%" style="stop-color:rgb(153, 98, 65); stop-opacity:1"/>
<stop offset="100%" style="stop-color:rgb(156, 101, 67); stop-opacity:1"/>
</linearGradient>
<linearGradient id="grad_5" x1="0%" y1="100%" x2="0%" y2="-3%">
<stop offset="0%" style="stop-color:rgb(200, 140, 108); stop-opacity:1"/>
<stop offset="100%" style="stop-color:rgb(221, 159, 128); stop-opacity:1"/>
</linearGradient>
<linearGradient id="grad_6" x1="85%" y1="7%" x2="-8%" y2="75%">
<stop offset="0%" style="stop-color:rgb(164, 110, 74); stop-opacity:1"/>
<stop offset="100%" style="stop-color:rgb(165, 110, 74); stop-opacity:1"/>
</linearGradient>
<linearGradient id="grad_7" x1="0%" y1="100%" x2="0%" y2="-10%">
<stop offset="0%" style="stop-color:rgb(126, 64, 36); stop-opacity:1"/>
<stop offset="100%" style="stop-color:rgb(129, 67, 41); stop-opacity:1"/>
</linearGradient>
<linearGradient id="grad_8" x1="16%" y1="0%" x2="51%" y2="119%">
<stop offset="0%" style="stop-color:rgb(50, 54, 67); stop-opacity:1"/>
<stop offset="100%" style="stop-color:rgb(56, 60, 74); stop-opacity:1"/>
</linearGradient>
<linearGradient id="grad_9" x1="0%" y1="100%" x2="-3%" y2="98%">
<stop offset="0%" style="stop-color:rgb(10, 12, 17); stop-opacity:1"/>
<stop offset="100%" style="stop-color:rgb(11, 14, 20); stop-opacity:1"/>
</linearGradient>
<linearGradient id="grad_10" x1="0%" y1="50%" x2="100%" y2="50%">
<stop offset="0%" style="stop-color:rgb(210, 168, 141); stop-opacity:1"/>
<stop offset="100%" style="stop-color:rgb(210, 168, 141); stop-opacity:1"/>
</linearGradient>
<linearGradient id="grad_11" x1="0%" y1="42%" x2="100%" y2="42%">
<stop offset="0%" style="stop-color:rgb(98, 65, 25); stop-opacity:1"/>
<stop offset="100%" style="stop-color:rgb(98, 65, 25); stop-opacity:1"/>
</linearGradient>
<linearGradient id="grad_12" x1="0%" y1="100%" x2="100%" y2="100%">
<stop offset="0%" style="stop-color:rgb(134, 73, 42); stop-opacity:1"/>
<stop offset="100%" style="stop-color:rgb(134, 73, 42); stop-opacity:1"/>
</linearGradient>
<linearGradient id="grad_13" x1="0%" y1="53%" x2="100%" y2="53%">
<stop offset="0%" style="stop-color:rgb(146, 89, 56); stop-opacity:1"/>
<stop offset="100%" style="stop-color:rgb(146, 89, 56); stop-opacity:1"/>
</linearGradient>
<linearGradient id="grad_14" x1="0%" y1="49%" x2="100%" y2="49%">
<stop offset="0%" style="stop-color:rgb(146, 89, 56); stop-opacity:1"/>
<stop offset="100%" style="stop-color:rgb(146, 89, 56); stop-opacity:1"/>
</linearGradient>
<linearGradient id="grad_15" x1="0%" y1="0%" x2="100%" y2="0%">
<stop offset="0%" style="stop-color:rgb(134, 73, 42); stop-opacity:1"/>
<stop offset="100%" style="stop-color:rgb(134, 73, 42); stop-opacity:1"/>
</linearGradient>
<linearGradient id="grad_16" x1="0%" y1="82%" x2="100%" y2="82%">
<stop offset="0%" style="stop-color:rgb(135, 75, 44); stop-opacity:1"/>
<stop offset="100%" style="stop-color:rgb(135, 75, 44); stop-opacity:1"/>
</linearGradient>
<linearGradient id="grad_17" x1="85%" y1="0%" x2="82%" y2="102%">
<stop offset="0%" style="stop-color:rgb(255, 255, 255); stop-opacity:0.985029"/>
<stop offset="100%" style="stop-color:rgb(255, 255, 255); stop-opacity:0.993938"/>
</linearGradient>
<linearGradient id="grad_18" x1="0%" y1="98%" x2="100%" y2="98%">
<stop offset="0%" style="stop-color:rgb(0, 0, 0); stop-opacity:0.114612"/>
<stop offset="100%" style="stop-color:rgb(0, 0, 0); stop-opacity:0.114612"/>
</linearGradient>
<linearGradient id="grad_19" x1="23%" y1="0%" x2="69%" y2="102%">
<stop offset="0%" style="stop-color:rgb(255, 255, 255); stop-opacity:0.0858885"/>
<stop offset="100%" style="stop-color:rgb(255, 255, 255); stop-opacity:0.0885561"/>
</linearGradient>
<linearGradient id="grad_20" x1="0%" y1="78%" x2="100%" y2="78%">
<stop offset="0%" style="stop-color:rgb(0, 0, 0); stop-opacity:0.140735"/>
<stop offset="100%" style="stop-color:rgb(0, 0, 0); stop-opacity:0.140735"/>
</linearGradient>
<linearGradient id="grad_21" x1="0%" y1="60%" x2="100%" y2="60%">
<stop offset="0%" style="stop-color:rgb(0, 0, 0); stop-opacity:0.573962"/>
<stop offset="100%" style="stop-color:rgb(0, 0, 0); stop-opacity:0.573962"/>
</linearGradient>
<linearGradient id="grad_22" x1="15%" y1="0%" x2="32%" y2="114%">
<stop offset="0%" style="stop-color:rgb(0, 0, 0); stop-opacity:0.95103"/>
<stop offset="100%" style="stop-color:rgb(0, 0, 0); stop-opacity:0.969559"/>
</linearGradient>
<linearGradient id="grad_23" x1="0%" y1="85%" x2="100%" y2="85%">
<stop offset="0%" style="stop-color:rgb(0, 0, 0); stop-opacity:0.12296"/>
<stop offset="100%" style="stop-color:rgb(0, 0, 0); stop-opacity:0.12296"/>
</linearGradient>
<linearGradient id="grad_24" x1="0%" y1="53%" x2="100%" y2="53%">
<stop offset="0%" style="stop-color:rgb(0, 0, 0); stop-opacity:0.0418432"/>
<stop offset="100%" style="stop-color:rgb(0, 0, 0); stop-opacity:0.0418432"/>
</linearGradient>
</defs>
<g transform="translate(0.000000,752.000000) scale(0.100000,-0.100000)"
fill="url(#grad_0)" stroke="none">
<g>
<path d="M0 3760 l0 -3760 3525 0 3525 0 0 3760 0 3760 -3525 0 -3525 0 0
-3760z"/>
</g>
</g>
<g transform="translate(0.000000,752.000000) scale(0.100000,-0.100000)"
fill="url(#grad_1)" stroke="none">
<g>
<path d="M2569 7125 c-3 -2 -63 -7 -134 -10 -72 -3 -170 -10 -220 -16 -49 -6
-113 -12 -142 -15 -87 -7 -334 -51 -444 -79 -244 -62 -485 -160 -640 -260 -87
-56 -243 -205 -304 -290 -90 -125 -165 -305 -202 -485 -25 -123 -25 -464 0
-613 52 -308 200 -754 307 -924 22 -35 40 -73 40 -84 0 -37 144 -304 286 -532
l74 -117 -67 -78 c-38 -43 -109 -125 -159 -183 -304 -350 -463 -599 -558 -875
-229 -668 8 -1317 669 -1836 55 -44 111 -88 123 -98 28 -24 280 -74 449 -90
60 -5 151 -17 203 -26 110 -18 220 -29 415 -44 77 -6 190 -15 250 -20 270 -21
1160 -7 1282 20 23 5 100 13 170 16 70 4 135 10 143 14 8 5 78 14 155 20 77 7
145 16 150 20 9 6 101 20 233 35 30 3 61 10 70 15 10 5 43 14 74 20 64 13 87
27 271 178 220 179 417 422 537 661 48 97 108 285 126 398 18 114 15 369 -5
503 -18 122 -68 265 -148 425 -106 212 -251 411 -542 742 l-160 183 51 77
c210 317 456 830 557 1158 43 142 88 336 102 435 11 91 28 322 24 330 -2 3 -6
52 -9 110 -17 319 -152 616 -374 822 -195 180 -540 328 -967 413 -167 33 -247
42 -652 74 -119 10 -1026 15 -1034 6z"/>
</g>
</g>
<g transform="translate(0.000000,752.000000) scale(0.100000,-0.100000)"
fill="url(#grad_2)" stroke="none">
<g>
<path d="M3045 5156 c-49 -22 -81 -64 -140 -187 -65 -137 -88 -230 -83 -344
l3 -80 -185 -7 c-553 -20 -1066 -101 -1265 -200 -54 -27 -105 -77 -105 -104 0
-39 41 -76 129 -116 48 -21 94 -43 103 -48 28 -15 174 -50 210 -50 19 0 38 -4
44 -9 5 -5 50 -14 99 -20 50 -6 126 -16 170 -22 280 -37 617 -50 1150 -46 415
3 698 19 856 47 30 5 73 10 95 10 47 0 151 17 179 30 11 4 65 18 120 30 171
38 331 106 355 150 17 31 11 70 -14 95 -117 117 -551 205 -1237 250 l-96 7 5
98 c4 80 1 110 -16 167 -39 126 -128 236 -263 323 -69 44 -71 45 -114 26z"/>
</g>
</g>
<g transform="translate(0.000000,752.000000) scale(0.100000,-0.100000)"
fill="url(#grad_3)" stroke="none">
<g>
<path d="M2575 4359 c-92 -12 -169 -35 -185 -54 -19 -23 1 -39 90 -72 75 -28
75 -28 330 -27 286 1 378 10 438 44 48 27 48 38 1 21 -38 -13 -229 -15 -229
-2 0 5 -12 12 -27 16 -14 3 -40 21 -57 40 l-31 33 -130 5 c-71 3 -161 1 -200
-4z"/>
</g>
</g>
<g transform="translate(0.000000,752.000000) scale(0.100000,-0.100000)"
fill="url(#grad_4)" stroke="none">
<g>
<path d="M1915 4411 c-248 -37 -408 -80 -473 -128 -45 -34 -42 -77 7 -110 71
-48 323 -109 491 -119 47 -3 97 -10 111 -15 14 -6 98 -14 185 -19 87 -5 231
-14 319 -20 254 -17 1256 1 1291 23 6 3 80 11 165 17 85 6 158 15 163 20 6 6
30 10 55 10 56 0 235 40 314 70 64 24 117 64 117 87 0 8 -6 13 -13 10 -7 -3
-82 -17 -167 -31 -85 -15 -171 -31 -190 -36 -43 -11 -184 -27 -345 -40 -271
-22 -901 -5 -1095 30 -30 5 -101 14 -158 20 -132 14 -310 59 -388 98 -69 35
-124 91 -124 127 0 24 -2 25 -72 24 -40 -1 -127 -9 -193 -18z"/>
</g>
</g>
<g transform="translate(0.000000,752.000000) scale(0.100000,-0.100000)"
fill="url(#grad_5)" stroke="none">
<g>
<path d="M1300 3823 c0 -10 248 -70 465 -113 198 -39 520 -86 724 -105 189
-17 944 -22 983 -5 13 5 93 14 178 19 174 11 376 37 402 51 10 6 35 10 56 10
45 0 153 20 167 31 6 4 46 12 90 19 118 17 384 80 391 92 4 6 -4 8 -22 4 -16
-3 -83 -15 -149 -26 -66 -12 -128 -25 -137 -31 -10 -5 -35 -9 -55 -9 -21 -1
-126 -14 -233 -31 -107 -17 -244 -35 -305 -39 -60 -5 -148 -14 -195 -20 -214
-26 -343 -31 -680 -26 -335 5 -478 12 -700 35 -52 6 -120 13 -150 16 -128 12
-316 38 -325 45 -9 7 -90 19 -235 35 -30 4 -59 10 -65 14 -5 4 -44 13 -85 20
-41 7 -85 15 -97 18 -13 3 -23 1 -23 -4z"/>
</g>
</g>
<g transform="translate(0.000000,752.000000) scale(0.100000,-0.100000)"
fill="url(#grad_6)" stroke="none">
<g>
<path d="M2978 5063 c-53 -89 -86 -180 -104 -284 -19 -112 -14 -180 21 -286
57 -170 106 -210 244 -200 109 7 170 33 198 82 21 37 73 183 73 206 0 5 -24 9
-52 9 -68 1 -116 18 -161 59 -67 61 -135 222 -158 375 -16 105 -21 108 -61 39z"/>
</g>
</g>
<g transform="translate(0.000000,752.000000) scale(0.100000,-0.100000)"
fill="url(#grad_7)" stroke="none">
<g>
<path d="M1224 569 c11 -75 62 -165 111 -199 61 -42 101 -55 278 -89 609 -119
1260 -167 1792 -133 504 33 1170 136 1288 199 79 44 129 121 151 232 l6 34
-61 -7 c-34 -3 -67 -10 -73 -15 -6 -6 -36 -12 -66 -16 -135 -15 -226 -29 -235
-35 -5 -4 -73 -13 -150 -20 -77 -6 -147 -15 -155 -20 -8 -4 -73 -10 -143 -14
-70 -3 -147 -11 -170 -16 -122 -27 -1012 -41 -1282 -20 -60 5 -173 14 -250 20
-195 15 -305 26 -415 44 -52 9 -143 20 -201 26 -91 9 -331 48 -408 67 -23 6
-24 5 -17 -38z"/>
</g>
</g>
<g transform="translate(0.000000,752.000000) scale(0.100000,-0.100000)"
fill="url(#grad_8)" stroke="none">
<g>
<path d="M2889 7346 c-2 -3 -135 -9 -294 -16 -441 -16 -788 -50 -1030 -100
-685 -141 -1125 -421 -1331 -845 -49 -103 -97 -260 -89 -292 3 -12 0 -42 -5
-65 -20 -78 -30 -278 -19 -378 55 -520 336 -1145 852 -1895 126 -184 113 -175
170 -110 l47 54 -73 118 c-143 228 -287 495 -287 532 0 11 -18 49 -40 84 -107
170 -255 616 -307 924 -25 149 -25 490 0 613 37 180 112 360 202 485 61 85
217 234 304 290 155 100 396 198 640 260 110 28 357 72 444 79 29 3 95 10 147
15 166 19 264 22 741 28 447 4 501 3 879 -27 590 -46 1120 -225 1382 -468 222
-206 357 -503 374 -822 3 -58 7 -107 9 -110 4 -8 -13 -239 -24 -330 -14 -99
-59 -293 -102 -435 -101 -329 -347 -841 -558 -1159 l-52 -78 48 -52 c26 -28
51 -51 55 -51 4 0 54 68 112 151 478 693 748 1261 843 1774 25 137 25 463 0
578 -38 170 -92 299 -187 440 -79 117 -156 200 -264 284 -394 305 -962 462
-1796 498 -140 6 -331 15 -425 20 -175 11 -358 13 -366 6z"/>
</g>
</g>
<g transform="translate(0.000000,752.000000) scale(0.100000,-0.100000)"
fill="url(#grad_9)" stroke="none">
<g>
<path d="M620 4627 c0 -11 140 -287 145 -287 5 0 -132 279 -141 289 -2 2 -4 1
-4 -2z"/>
</g>
</g>
<g transform="translate(0.000000,752.000000) scale(0.100000,-0.100000)"
fill="url(#grad_10)" stroke="none">
<g>
<path d="M6340 4240 c-119 -13 -191 -32 -218 -55 l-26 -22 26 -17 c14 -9 61
-23 104 -32 43 -8 102 -20 131 -26 67 -14 403 -3 497 16 103 21 138 70 69 97
-94 36 -418 58 -583 39z"/>
</g>
</g>
<g transform="translate(0.000000,752.000000) scale(0.100000,-0.100000)"
fill="url(#grad_11)" stroke="none">
<g>
<path d="M6351 4200 c-25 -5 -51 -16 -59 -24 -12 -12 -11 -16 9 -28 18 -10 75
-13 224 -13 209 0 255 5 255 30 0 9 -12 21 -27 27 -35 14 -343 20 -402 8z"/>
</g>
</g>
<g transform="translate(0.000000,752.000000) scale(0.100000,-0.100000)"
fill="url(#grad_12)" stroke="none">
<g>
<path d="M1121 2093 c0 -100 40 -386 59 -423 4 -8 12 -40 19 -70 16 -69 51
-182 62 -195 4 -6 17 -35 29 -65 30 -76 119 -251 169 -333 22 -37 41 -71 41
-75 0 -4 13 -23 28 -42 16 -19 32 -42 35 -50 4 -8 35 -49 70 -90 66 -78 96
-98 187 -126 30 -9 64 -20 75 -25 16 -7 445 -38 445 -33 0 1 -16 26 -35 55
-19 30 -35 59 -35 65 0 6 -9 23 -20 37 -55 70 -233 468 -280 627 -12 41 -26
83 -31 92 -5 9 -12 36 -15 60 -4 24 -10 48 -14 53 -11 14 -40 148 -40 182 0
16 -4 33 -9 38 -6 6 -11 47 -13 92 l-3 83 -42 0 c-23 0 -44 4 -47 9 -3 5 -27
12 -53 15 -68 9 -146 27 -158 36 -5 5 -28 11 -50 15 -22 4 -44 11 -50 15 -5 4
-41 18 -80 30 -38 13 -106 38 -150 57 -44 18 -83 33 -87 33 -4 0 -8 -30 -7
-67z"/>
</g>
</g>
<g transform="translate(0.000000,752.000000) scale(0.100000,-0.100000)"
fill="url(#grad_13)" stroke="none">
<g>
<path d="M1572 3467 c-60 -64 -282 -460 -282 -502 0 -9 -11 -40 -24 -68 -13
-29 -27 -65 -31 -82 -3 -16 -15 -47 -25 -70 -24 -53 -46 -145 -55 -225 -3 -36
-11 -70 -16 -76 -5 -7 -12 -71 -16 -143 -3 -72 -8 -131 -10 -131 -13 0 -262
135 -286 156 -17 14 -40 30 -52 34 -20 8 -117 83 -212 164 l-41 36 -17 -52
c-10 -29 -21 -57 -25 -63 -14 -18 -42 -186 -55 -332 -11 -113 26 -421 54 -457
4 -6 11 -27 15 -46 8 -45 142 -313 167 -336 10 -9 19 -23 19 -29 0 -7 19 -35
43 -61 24 -27 64 -76 89 -109 44 -59 189 -197 298 -285 30 -24 79 -65 108 -91
45 -40 61 -47 109 -53 31 -4 62 -11 67 -16 6 -4 58 -14 116 -20 58 -6 109 -15
115 -19 5 -5 42 -11 80 -15 39 -3 97 -11 130 -16 33 -5 116 -14 183 -20 68 -5
128 -13 133 -16 45 -27 1318 -48 1491 -24 40 6 134 14 208 20 74 5 203 18 285
30 342 47 411 57 425 62 21 9 181 38 204 38 64 0 548 454 599 563 9 18 30 51
48 73 37 46 149 270 149 299 0 11 7 34 16 50 15 29 35 116 54 235 18 114 5
439 -18 462 -4 4 -25 -4 -46 -18 -51 -35 -361 -189 -411 -205 -22 -6 -53 -18
-70 -25 -46 -19 -191 -60 -280 -79 -44 -10 -84 -21 -90 -25 -5 -4 -40 -13 -76
-20 l-66 -13 -12 -81 c-7 -45 -17 -112 -22 -150 -5 -39 -13 -75 -18 -80 -4 -6
-16 -45 -26 -86 -10 -41 -21 -84 -26 -95 -5 -11 -24 -60 -43 -110 -51 -135
-120 -286 -154 -336 -16 -24 -38 -60 -48 -79 -11 -19 -31 -51 -46 -70 -15 -19
-33 -48 -41 -63 -26 -50 -125 -154 -170 -179 -67 -38 -235 -68 -412 -75 l-154
-6 27 51 c15 28 47 85 71 128 53 93 171 352 171 376 0 9 4 19 9 23 5 3 21 42
36 88 15 45 30 91 35 102 17 38 50 157 50 179 0 12 4 26 9 32 6 5 15 34 20 64
6 30 20 103 33 162 12 59 19 110 15 114 -4 4 -51 2 -104 -5 -253 -31 -1013
-23 -1313 15 -63 7 -140 14 -170 14 -53 1 -118 10 -315 44 -146 25 -137 29
-129 -61 3 -43 10 -82 15 -87 5 -6 9 -23 9 -39 0 -34 29 -168 40 -182 4 -5 10
-29 14 -53 3 -24 10 -51 15 -60 5 -9 19 -51 31 -92 47 -159 225 -557 280 -627
11 -14 20 -31 20 -37 0 -6 16 -35 35 -65 19 -29 35 -54 35 -55 0 -5 -429 26
-445 33 -11 5 -45 16 -75 25 -91 28 -121 48 -187 126 -35 41 -66 82 -70 90 -3
8 -19 31 -35 50 -15 19 -28 38 -28 42 0 4 -19 38 -41 75 -50 82 -139 257 -169
333 -12 30 -25 59 -29 65 -11 13 -46 126 -62 195 -7 30 -15 62 -19 70 -8 16
-38 186 -51 290 -10 85 -11 200 -1 200 4 0 43 -15 87 -33 44 -19 112 -44 150
-57 39 -12 75 -26 80 -30 6 -4 28 -11 50 -15 22 -4 45 -10 50 -15 12 -9 90
-27 158 -36 26 -3 50 -10 53 -15 3 -5 20 -9 37 -9 l33 0 -8 73 c-29 277 -36
537 -18 702 21 203 82 451 156 634 19 47 34 89 34 93 0 4 -53 8 -119 8 -65 0
-131 4 -147 9 -16 5 -52 12 -80 15 -44 4 -55 2 -72 -17z"/>
</g>
</g>
<g transform="translate(0.000000,752.000000) scale(0.100000,-0.100000)"
fill="url(#grad_14)" stroke="none">
<g>
<path d="M6030 4102 c-79 -86 -198 -263 -285 -426 -75 -140 -119 -188 -217
-241 l-55 -30 26 -52 c62 -124 74 -144 102 -179 36 -45 36 -52 2 -66 -16 -6
-42 -17 -60 -24 -17 -8 -40 -14 -51 -14 -12 0 -24 -4 -27 -10 -3 -5 -15 -10
-26 -10 -27 0 -24 -9 20 -71 60 -82 185 -342 220 -454 41 -133 53 -217 58
-419 l5 -168 121 5 c143 6 211 22 326 79 280 137 409 470 372 966 -6 92 -18
214 -27 272 -21 148 -21 244 1 310 43 132 142 286 285 446 45 49 76 90 70 92
-5 2 -34 -2 -62 -8 -75 -17 -407 -25 -471 -12 -29 6 -88 18 -132 26 -44 9 -92
25 -107 36 l-27 20 -61 -68z"/>
</g>
</g>
<g transform="translate(0.000000,752.000000) scale(0.100000,-0.100000)"
fill="url(#grad_15)" stroke="none">
<g>
<path d="M4505 1943 c-16 -3 -34 -8 -40 -13 -10 -7 -81 -18 -265 -41 -52 -6
-122 -15 -155 -20 -33 -5 -82 -9 -110 -9 l-50 0 -23 -113 c-12 -61 -27 -137
-33 -167 -5 -30 -14 -59 -20 -65 -5 -5 -9 -19 -9 -31 0 -22 -33 -141 -50 -179
-5 -11 -20 -57 -35 -102 -15 -46 -31 -85 -36 -88 -5 -4 -9 -14 -9 -23 0 -24
-118 -283 -171 -376 -24 -43 -56 -100 -71 -128 l-27 -51 154 6 c177 7 345 37
412 75 45 25 144 129 170 179 8 15 26 44 41 63 15 19 35 51 46 70 10 19 32 55
48 79 34 50 103 201 154 336 19 50 38 99 43 110 5 11 16 54 26 95 10 41 22 80
26 85 4 6 13 44 18 85 6 41 15 98 20 125 6 28 10 62 10 78 1 28 -1 29 -64 20z"/>
</g>
</g>
<g transform="translate(0.000000,752.000000) scale(0.100000,-0.100000)"
fill="url(#grad_16)" stroke="none">
<g>
<path d="M5360 3374 c-47 -12 -99 -23 -117 -23 -17 -1 -35 -6 -38 -11 -8 -13
-11 -8 115 -172 95 -124 113 -137 145 -107 5 5 18 9 28 9 10 0 33 6 50 14 18
7 44 18 60 24 33 14 34 23 3 59 -27 32 -75 116 -107 186 -24 54 -21 53 -139
21z"/>
</g>
</g>
<g transform="translate(0.000000,752.000000) scale(0.100000,-0.100000)"
fill="url(#grad_17)" stroke="none">
<g>
<path d="M2569 7125 c-3 -2 -63 -7 -134 -10 -72 -3 -170 -10 -220 -16 -49 -6
-113 -12 -142 -15 -87 -7 -334 -51 -444 -79 -244 -62 -485 -160 -640 -260 -87
-56 -243 -205 -304 -290 -90 -125 -165 -305 -202 -485 -25 -123 -25 -464 0
-613 52 -308 200 -754 307 -924 22 -35 40 -74 40 -85 0 -37 186 -377 318 -582
l44 -68 54 53 c30 29 54 60 54 67 0 8 -8 26 -19 40 -35 51 -44 100 -38 206 8
122 24 186 57 222 115 122 678 228 1340 252 l185 7 -3 80 c-5 114 18 207 83
344 61 125 99 174 152 192 31 10 39 8 89 -23 134 -80 237 -204 276 -331 17
-57 20 -87 16 -167 l-5 -98 96 -7 c581 -38 973 -105 1153 -196 77 -39 108 -70
108 -108 0 -16 4 -32 9 -35 18 -11 33 -170 22 -229 -10 -58 -33 -111 -51 -122
-21 -13 -8 -43 43 -93 63 -62 52 -69 149 88 326 527 564 1114 619 1530 11 91
28 322 24 330 -2 3 -6 52 -9 110 -17 319 -152 616 -374 822 -195 180 -540 328
-967 413 -167 33 -247 42 -652 74 -119 10 -1026 15 -1034 6z"/>
</g>
</g>
<g transform="translate(0.000000,752.000000) scale(0.100000,-0.100000)"
fill="url(#grad_18)" stroke="none">
<g>
<path d="M4065 3449 c-16 -5 -96 -12 -177 -16 -82 -3 -148 -8 -148 -11 0 -2
16 -44 35 -91 19 -48 41 -116 50 -151 9 -36 20 -74 25 -85 14 -32 31 -102 40
-174 5 -36 14 -88 19 -116 16 -80 24 -475 11 -610 -13 -148 -26 -260 -35 -303
l-7 -32 53 0 c30 0 81 4 114 9 33 5 103 14 155 20 182 22 255 34 265 41 6 4
31 10 56 14 57 8 59 16 59 180 0 405 -148 862 -407 1254 -56 85 -58 86 -108
71z"/>
</g>
</g>
<g transform="translate(0.000000,752.000000) scale(0.100000,-0.100000)"
fill="url(#grad_19)" stroke="none">
<g>
<path d="M6340 4240 c-109 -12 -189 -31 -211 -49 -17 -14 -20 -31 -23 -137 -2
-66 -8 -129 -14 -140 -6 -11 -13 -49 -17 -84 -4 -36 -10 -74 -15 -85 -4 -11
-18 -58 -30 -105 -55 -211 -184 -399 -335 -485 -27 -16 -52 -30 -54 -32 -2 -1
12 -29 31 -60 48 -78 178 -339 178 -357 0 -8 11 -36 25 -62 14 -26 25 -55 25
-64 0 -10 7 -31 15 -46 8 -16 15 -37 15 -48 0 -10 10 -66 21 -125 22 -107 22
-169 3 -353 -6 -53 -5 -58 13 -58 42 0 142 32 222 72 280 137 409 470 372 966
-6 92 -18 214 -27 272 -21 147 -21 244 1 310 46 143 179 340 340 503 91 93 97
109 48 128 -94 36 -418 58 -583 39z"/>
</g>
</g>
<g transform="translate(0.000000,752.000000) scale(0.100000,-0.100000)"
fill="url(#grad_20)" stroke="none">
<g>
<path d="M4600 3778 c-85 -20 -191 -42 -235 -48 -44 -7 -84 -15 -90 -19 -14
-11 -122 -31 -167 -31 -21 0 -46 -4 -56 -10 -26 -14 -228 -40 -402 -51 -85 -5
-165 -14 -178 -19 -39 -17 -794 -12 -983 5 -328 31 -718 96 -1032 172 l-148
36 -40 -39 c-44 -42 -47 -52 -21 -60 9 -4 49 -19 89 -35 39 -16 80 -29 90 -29
10 0 31 -7 46 -15 32 -16 112 -38 207 -56 36 -7 70 -15 75 -20 13 -9 168 -38
265 -49 41 -5 120 -15 175 -24 251 -38 827 -52 1130 -28 379 29 676 65 790 93
87 22 163 37 217 44 32 3 60 11 63 16 4 5 21 9 39 9 27 0 393 94 402 103 1 1
-16 22 -40 47 l-42 45 -154 -37z"/>
</g>
</g>
<g transform="translate(0.000000,752.000000) scale(0.100000,-0.100000)"
fill="url(#grad_21)" stroke="none">
<g>
<path d="M2540 7240 c-74 -4 -218 -10 -320 -14 -102 -4 -201 -11 -220 -16 -19
-5 -98 -16 -175 -25 -77 -9 -205 -29 -285 -45 -738 -147 -1195 -469 -1359
-957 -54 -161 -78 -372 -60 -537 57 -520 338 -1144 852 -1891 125 -182 115
-175 160 -120 l38 45 -54 83 c-29 45 -70 104 -90 130 -20 27 -37 53 -37 59 0
12 -96 175 -120 203 -36 42 -250 451 -250 478 0 14 -37 100 -91 213 -16 33
-29 67 -29 76 0 15 -42 146 -59 183 -5 11 -19 65 -32 120 -12 55 -25 105 -29
110 -35 47 -47 531 -18 688 10 49 22 94 27 101 6 7 17 37 25 67 20 70 92 211
149 291 51 72 244 264 279 277 13 5 43 24 68 42 58 42 341 184 400 199 25 7
59 18 75 25 17 7 50 16 75 19 24 4 49 11 55 15 15 12 99 31 134 31 16 0 32 4
36 9 3 5 31 12 63 16 31 3 93 12 137 20 85 15 207 27 475 47 221 17 1090 17
1365 0 290 -18 666 -68 700 -92 6 -4 46 -15 90 -25 105 -22 225 -57 231 -67 3
-4 15 -8 27 -8 12 0 49 -14 82 -31 33 -17 101 -49 150 -70 50 -22 106 -52 125
-67 19 -15 48 -34 64 -42 42 -22 291 -264 310 -302 8 -18 34 -62 55 -98 66
-107 72 -120 87 -178 8 -30 21 -69 28 -86 28 -64 51 -229 51 -366 0 -148 -20
-369 -35 -384 -6 -6 -10 -23 -10 -39 0 -32 -19 -117 -30 -132 -4 -5 -24 -66
-44 -135 -72 -238 -63 -217 -302 -705 -65 -134 -163 -298 -294 -496 -122 -184
-122 -185 -105 -199 12 -10 16 -9 22 6 5 11 53 87 109 169 387 576 624 1060
724 1480 12 50 26 98 31 108 28 52 35 574 8 602 -5 5 -9 24 -9 43 0 40 -49
190 -86 264 -84 168 -279 383 -445 491 -140 91 -317 174 -499 233 -179 59
-487 124 -585 124 -28 0 -55 4 -60 9 -6 5 -50 12 -100 15 -49 4 -146 10 -215
15 -69 5 -190 14 -270 19 -160 12 -779 13 -990 2z"/>
</g>
</g>
<g transform="translate(0.000000,752.000000) scale(0.100000,-0.100000)"
fill="url(#grad_22)" stroke="none">
<g>
<path d="M2560 7195 c-8 -2 -96 -8 -195 -14 -233 -15 -381 -29 -480 -46 -44
-8 -106 -17 -137 -20 -32 -4 -60 -11 -63 -16 -4 -5 -20 -9 -36 -9 -35 0 -119
-19 -134 -31 -6 -4 -31 -11 -55 -15 -25 -3 -58 -12 -75 -19 -16 -7 -50 -18
-75 -25 -59 -15 -342 -157 -400 -199 -25 -18 -55 -37 -68 -42 -35 -13 -228
-205 -279 -277 -57 -80 -129 -221 -149 -291 -8 -30 -19 -60 -25 -67 -5 -7 -17
-52 -27 -101 -29 -157 -17 -641 18 -688 4 -5 17 -55 29 -110 13 -55 27 -109
32 -120 17 -38 59 -169 59 -185 0 -9 9 -34 20 -55 12 -22 41 -85 65 -140 70
-160 255 -534 279 -563 30 -36 126 -197 126 -210 0 -6 17 -32 37 -59 20 -26
61 -85 91 -131 35 -53 58 -80 64 -74 6 6 -18 53 -65 128 -143 229 -287 496
-287 533 0 11 -18 49 -40 84 -107 170 -255 616 -307 924 -25 149 -25 490 0
613 37 180 112 360 202 485 61 85 217 234 304 290 155 100 396 198 640 260
110 28 357 72 444 79 29 3 95 10 147 15 166 19 264 22 741 28 447 4 501 3 879
-27 590 -46 1120 -225 1382 -468 222 -206 357 -503 374 -822 3 -58 7 -107 9
-110 4 -8 -13 -239 -24 -330 -14 -99 -59 -293 -102 -435 -101 -329 -347 -841
-558 -1160 -36 -54 -49 -81 -42 -88 13 -13 2 -27 101 128 46 72 91 139 100
150 31 36 171 278 225 390 29 61 91 189 138 285 88 182 100 214 163 420 20 69
40 130 44 135 11 15 30 100 30 132 0 16 4 33 10 39 15 15 35 236 35 384 0 137
-23 302 -51 366 -7 17 -20 56 -28 86 -15 58 -21 71 -87 178 -21 36 -47 80 -55
98 -19 38 -268 280 -310 302 -16 8 -45 27 -64 42 -19 15 -75 45 -125 67 -49
21 -117 53 -150 70 -33 17 -70 31 -82 31 -12 0 -24 4 -27 8 -6 10 -126 45
-231 67 -44 10 -84 21 -90 25 -31 22 -404 73 -670 91 -155 10 -1160 22 -1195
14z"/>
</g>
</g>
<g transform="translate(0.000000,752.000000) scale(0.100000,-0.100000)"
fill="url(#grad_23)" stroke="none">
<g>
<path d="M1253 4173 c-4 -21 -8 -85 -8 -143 0 -84 4 -112 19 -140 10 -19 23
-44 29 -56 26 -49 739 -186 1196 -229 189 -17 944 -22 983 -5 13 5 93 14 178
19 174 11 376 37 402 51 10 6 35 10 56 10 45 0 153 20 167 31 6 4 46 12 90 19
44 6 148 27 232 46 148 34 151 36 176 72 50 73 63 146 46 262 -11 81 -24 106
-40 77 -24 -42 -188 -110 -354 -147 -55 -12 -109 -26 -120 -30 -28 -13 -132
-30 -179 -30 -22 0 -65 -5 -95 -10 -158 -28 -441 -44 -856 -47 -533 -4 -870 9
-1150 46 -44 6 -120 16 -170 22 -49 6 -94 15 -99 20 -6 5 -25 9 -44 9 -36 0
-182 35 -210 50 -9 5 -55 27 -103 48 -47 21 -94 51 -106 65 -11 15 -23 27 -26
27 -4 0 -10 -17 -14 -37z"/>
</g>
</g>
<g transform="translate(0.000000,752.000000) scale(0.100000,-0.100000)"
fill="url(#grad_24)" stroke="none">
<g>
<path d="M2640 4538 c-553 -20 -1066 -101 -1265 -200 -54 -27 -105 -77 -105
-104 0 -39 41 -76 129 -116 48 -21 94 -43 103 -48 28 -15 174 -50 210 -50 19
0 38 -4 43 -9 6 -5 51 -14 100 -20 50 -6 126 -16 170 -22 280 -37 617 -50
1150 -46 415 3 698 19 856 47 30 5 73 10 95 10 47 0 151 17 179 30 11 4 65 18
120 30 171 38 331 106 355 150 17 31 11 70 -14 95 -117 117 -551 205 -1237
250 l-96 7 -7 -33 c-8 -43 -93 -219 -105 -219 -6 0 -32 -14 -60 -31 -70 -44
-142 -52 -451 -53 -255 -1 -255 -1 -330 27 -89 33 -109 49 -90 72 32 39 238
69 402 59 l110 -7 -18 34 c-9 19 -27 61 -38 94 l-21 60 -185 -7z"/>
</g>
</g>
</svg>
