<?xml version="1.0" standalone="no"?><!DOCTYPE svg PUBLIC "-//W3C//DTD SVG 20010904//EN" "http://www.w3.org/TR/2001/REC-SVG-20010904/DTD/svg10.dtd"><svg version="1.0" xmlns="http://www.w3.org/2000/svg" width="600pt" height="520pt" viewBox="0 0 600 520" preserveAspectRatio="xMidYMid meet"><defs><linearGradient id="linear-gradient-1-1" x1="0.00%" y1="0.00%" x2="120.75%" y2="51.25%"><stop offset="0%" style="stop-color:rgb(251,246,237);stop-opacity:1.000" /><stop offset="100%" style="stop-color:rgb(255,255,255);stop-opacity:1.000" /></linearGradient><linearGradient id="linear-gradient-2-1" x1="0.00%" y1="100.00%" x2="120.33%" y2="47.39%"><stop offset="0%" style="stop-color:rgb(17,0,0);stop-opacity:0.805" /><stop offset="100%" style="stop-color:rgb(92,36,0);stop-opacity:0.806" /></linearGradient><linearGradient id="linear-gradient-2-2" x1="0.00%" y1="100.00%" x2="0.00%" y2="-0.00%"><stop offset="0%" style="stop-color:rgb(130,119,115);stop-opacity:0.853" /><stop offset="100%" style="stop-color:rgb(162,151,147);stop-opacity:0.726" /></linearGradient><linearGradient id="linear-gradient-2-3" x1="0.00%" y1="0.00%" x2="80.21%" y2="126.71%"><stop offset="0%" style="stop-color:rgb(202,180,193);stop-opacity:0.141" /><stop offset="100%" style="stop-color:rgb(66,62,43);stop-opacity:0.754" /></linearGradient><linearGradient id="linear-gradient-3-1" x1="0.00%" y1="100.00%" x2="74.07%" y2="-129.48%"><stop offset="0%" style="stop-color:rgb(108,106,104);stop-opacity:0.654" /><stop offset="100%" style="stop-color:rgb(61,59,57);stop-opacity:0.840" /></linearGradient><linearGradient id="linear-gradient-3-2" x1="0.00%" y1="0.00%" x2="106.54%" y2="93.30%"><stop offset="0%" style="stop-color:rgb(74,69,67);stop-opacity:0.869" /><stop offset="100%" style="stop-color:rgb(183,185,183);stop-opacity:0.414" /></linearGradient><linearGradient id="linear-gradient-3-3" x1="0.00%" y1="100.00%" x2="0.00%" y2="-0.00%"><stop offset="0%" style="stop-color:rgb(0,18,7);stop-opacity:0.334" /><stop offset="100%" style="stop-color:rgb(6,7,0);stop-opacity:0.515" /></linearGradient><linearGradient id="linear-gradient-3-4" x1="0.00%" y1="100.00%" x2="119.16%" y2="17.78%"><stop offset="0%" style="stop-color:rgb(255,157,77);stop-opacity:0.789" /><stop offset="100%" style="stop-color:rgb(255,181,102);stop-opacity:0.834" /></linearGradient><linearGradient id="linear-gradient-3-5" x1="0.00%" y1="0.00%" x2="115.07%" y2="82.39%"><stop offset="0%" style="stop-color:rgb(108,91,87);stop-opacity:0.677" /><stop offset="100%" style="stop-color:rgb(136,137,134);stop-opacity:0.862" /></linearGradient><linearGradient id="linear-gradient-3-6" x1="0.00%" y1="100.00%" x2="121.59%" y2="40.61%"><stop offset="0%" style="stop-color:rgb(255,217,122);stop-opacity:0.839" /><stop offset="100%" style="stop-color:rgb(255,212,126);stop-opacity:0.810" /></linearGradient><linearGradient id="linear-gradient-3-7" x1="0.00%" y1="100.00%" x2="100.67%" y2="1.27%"><stop offset="0%" style="stop-color:rgb(27,24,10);stop-opacity:0.568" /><stop offset="100%" style="stop-color:rgb(30,25,16);stop-opacity:0.686" /></linearGradient><linearGradient id="linear-gradient-4-1" x1="0.00%" y1="100.00%" x2="109.59%" y2="2.41%"><stop offset="0%" style="stop-color:rgb(34,28,25);stop-opacity:0.736" /><stop offset="100%" style="stop-color:rgb(41,36,33);stop-opacity:0.807" /></linearGradient><linearGradient id="linear-gradient-4-2" x1="0.00%" y1="100.00%" x2="0.00%" y2="-0.00%"><stop offset="0%" style="stop-color:rgb(150,141,141);stop-opacity:0.752" /><stop offset="100%" style="stop-color:rgb(153,143,144);stop-opacity:0.751" /></linearGradient><linearGradient id="linear-gradient-4-3" x1="0.00%" y1="100.00%" x2="0.00%" y2="0.00%"><stop offset="0%" style="stop-color:rgb(190,182,181);stop-opacity:0.802" /><stop offset="100%" style="stop-color:rgb(199,190,189);stop-opacity:0.785" /></linearGradient><linearGradient id="linear-gradient-4-4" x1="0.00%" y1="0.00%" x2="104.60%" y2="51.84%"><stop offset="0%" style="stop-color:rgb(48,41,37);stop-opacity:0.784" /><stop offset="100%" style="stop-color:rgb(41,35,32);stop-opacity:0.803" /></linearGradient><linearGradient id="linear-gradient-4-5" x1="0.00%" y1="100.00%" x2="60.33%" y2="-5.90%"><stop offset="0%" style="stop-color:rgb(193,185,183);stop-opacity:0.801" /><stop offset="100%" style="stop-color:rgb(194,188,188);stop-opacity:0.798" /></linearGradient><linearGradient id="linear-gradient-4-6" x1="0.00%" y1="100.00%" x2="10.02%" y2="-7.41%"><stop offset="0%" style="stop-color:rgb(255,239,199);stop-opacity:0.283" /><stop offset="100%" style="stop-color:rgb(255,216,140);stop-opacity:0.828" /></linearGradient><linearGradient id="linear-gradient-4-7" x1="0.00%" y1="100.00%" x2="25.93%" y2="-17.09%"><stop offset="0%" style="stop-color:rgb(29,23,23);stop-opacity:0.493" /><stop offset="100%" style="stop-color:rgb(3,2,0);stop-opacity:0.597" /></linearGradient></defs><g id="layer-1"><path d="M2025 5053 c-11 -3 -67 -20 -125 -40 -252 -84 -386 -162 -490 -284 -30 -35 -61 -71 -70 -80 -27 -28 -118 -133 -141 -164 -13 -16 -26 -32 -29 -35 -3 -3 -30 -34 -60 -70 -30 -35 -62 -71 -71 -80 -9 -8 -45 -49 -79 -90 -35 -41 -104 -119 -154 -174 -112 -121 -97 -104 -183 -208 -68 -80 -73 -90 -73 -133 0 -42 -2 -46 -20 -40 -49 16 -78 -4 -202 -141 -68 -74 -126 -148 -130 -163 -5 -16 -15 -34 -23 -41 -20 -17 -19 -49 7 -133 20 -69 25 -74 162 -212 122 -122 212 -201 321 -280 15 -11 63 -40 108 -64 77 -41 84 -43 149 -39 l69 4 73 74 c85 87 168 185 214 253 18 26 39 47 47 47 28 0 83 65 101 120 32 101 112 220 147 220 21 0 163 -69 209 -101 14 -11 28 -19 31 -19 3 0 38 -22 77 -49 39 -27 93 -55 120 -62 27 -7 51 -18 52 -24 4 -17 3158 -2939 3182 -2948 12 -5 64 -9 116 -10 85 -1 101 1 150 25 63 31 121 84 207 189 176 216 221 348 155 460 -41 71 -85 114 -284 280 -100 83 -199 166 -218 183 -20 17 -55 47 -79 66 -23 19 -52 44 -65 55 -12 11 -44 38 -70 60 -26 22 -58 49 -70 60 -12 11 -42 36 -66 55 -24 19 -76 62 -115 95 -58 50 -307 258 -394 330 -13 11 -34 29 -47 40 -12 12 -41 36 -64 55 -23 19 -55 46 -70 60 -15 14 -45 39 -66 57 -22 17 -130 107 -240 200 -111 92 -221 184 -244 203 -24 19 -57 47 -74 62 -94 82 -357 303 -536 452 -113 93 -237 197 -276 230 -39 34 -90 77 -113 96 -24 19 -53 44 -66 55 -82 73 -151 132 -169 145 -12 8 -25 19 -31 25 -5 6 -29 26 -53 45 -36 27 -42 37 -37 57 8 35 -7 59 -195 293 -100 125 -110 140 -110 169 0 34 73 143 132 196 85 77 123 79 553 30 198 -22 250 -25 294 -16 91 18 134 76 135 176 0 69 -11 93 -71 157 -39 41 -56 50 -146 78 -56 17 -120 38 -142 45 -51 17 -225 72 -380 120 -66 20 -129 41 -140 46 -71 32 -254 50 -330 32z" fill="url(#linear-gradient-1-1)" id="region-1-1" transform="translate(0.000000,520.000000) scale(0.100000,-0.100000)"/></g><g id="layer-2"><path d="M1925 5010 c-96 -16 -160 -39 -285 -104 -103 -54 -167 -103 -230 -177 -30 -35 -61 -71 -70 -80 -27 -28 -118 -133 -141 -164 -13 -16 -26 -32 -29 -35 -3 -3 -30 -34 -60 -70 -30 -35 -62 -71 -71 -80 -9 -8 -45 -49 -79 -90 -35 -41 -104 -119 -154 -174 -112 -121 -97 -104 -183 -208 -68 -80 -73 -90 -73 -133 0 -42 -2 -46 -20 -40 -49 16 -77 -4 -204 -143 -108 -117 -126 -142 -126 -170 0 -30 14 -69 29 -82 3 -3 24 -27 46 -55 103 -130 334 -323 463 -389 90 -45 95 -43 237 118 33 37 69 78 81 90 11 13 26 38 33 57 27 70 34 79 61 79 34 0 80 35 80 60 0 20 35 100 68 156 34 58 80 109 116 128 35 19 36 19 105 -3 80 -25 192 -83 306 -156 111 -72 124 -78 156 -71 20 4 35 0 47 -12 10 -9 41 -37 68 -62 74 -67 189 -174 279 -259 45 -42 117 -110 162 -151 136 -127 374 -352 438 -415 34 -33 97 -91 139 -130 97 -87 127 -116 301 -284 77 -75 174 -168 216 -206 41 -39 80 -77 85 -86 5 -8 52 -52 104 -98 52 -46 107 -96 121 -110 22 -23 97 -92 313 -291 33 -30 66 -59 72 -65 6 -5 47 -44 91 -85 130 -123 168 -158 246 -223 41 -34 110 -93 153 -132 44 -38 106 -92 138 -120 33 -27 69 -59 82 -70 12 -11 41 -36 65 -55 23 -19 62 -52 86 -72 84 -72 157 -62 260 35 68 64 160 173 183 217 7 14 16 27 19 30 10 9 38 74 45 107 5 19 2 44 -8 67 -15 37 -158 186 -279 292 -38 32 -78 68 -91 79 -12 11 -42 36 -66 55 -80 64 -125 102 -141 119 -9 9 -37 34 -64 56 -26 22 -55 47 -64 56 -20 20 -146 127 -183 155 -26 21 -119 100 -163 139 -33 31 -120 104 -230 196 -55 46 -109 91 -120 101 -11 9 -40 33 -65 53 -25 20 -65 56 -90 79 -25 23 -61 53 -80 66 -19 14 -44 32 -55 42 -25 20 -90 73 -140 113 -20 17 -42 35 -49 40 -6 6 -27 22 -46 35 -19 13 -37 27 -40 30 -3 3 -18 16 -35 28 -50 37 -153 117 -275 211 -14 11 -95 76 -180 146 -85 69 -170 138 -188 153 -19 15 -48 39 -65 54 -18 15 -95 79 -172 144 -77 64 -171 144 -209 178 -38 33 -85 75 -105 92 -20 17 -51 44 -70 60 -68 58 -81 77 -81 117 0 32 -9 49 -62 110 -34 40 -64 74 -68 77 -4 3 -40 43 -80 90 -40 47 -81 94 -91 105 -88 97 -129 166 -129 218 0 95 171 314 280 358 51 20 277 15 495 -11 330 -40 328 -40 341 26 9 49 -14 78 -73 94 -26 7 -61 19 -78 26 -40 17 -372 126 -505 166 -206 62 -322 77 -445 58z" fill="url(#linear-gradient-2-1)" id="region-2-1" transform="translate(0.000000,520.000000) scale(0.100000,-0.100000)"/><path d="M3131 4742 c7 -19 9 -56 6 -84 -15 -125 -112 -180 -272 -153 -205 34 -508 57 -595 45 -61 -9 -68 -12 -120 -67 -66 -68 -119 -145 -126 -183 -5 -22 4 -39 47 -91 63 -77 90 -105 65 -69 -25 38 -20 68 25 137 53 82 129 150 182 164 53 14 160 8 462 -26 198 -22 250 -25 294 -16 91 18 134 76 135 176 0 70 -11 93 -71 155 l-43 45 11 -33z" fill="url(#linear-gradient-2-2)" id="region-2-2" transform="translate(0.000000,520.000000) scale(0.100000,-0.100000)"/><path d="M1411 3349 c-19 -27 -49 -86 -67 -131 -40 -100 -64 -133 -108 -149 -21 -8 -39 -24 -49 -43 -15 -32 -91 -125 -179 -220 -26 -28 -48 -54 -48 -59 0 -4 -21 -21 -47 -37 -64 -41 -127 -41 -212 0 -35 17 -77 41 -94 53 -63 44 -202 151 -212 163 -5 6 -30 28 -55 49 -25 21 -2 -5 50 -56 83 -82 183 -167 275 -234 15 -11 63 -40 108 -64 77 -41 84 -43 149 -39 l69 4 73 74 c85 87 168 185 214 253 18 26 39 47 47 47 28 0 83 65 101 120 32 101 112 220 147 220 21 0 163 -69 209 -101 14 -11 28 -19 31 -19 3 0 38 -22 77 -49 39 -27 93 -55 120 -62 27 -7 51 -18 52 -24 4 -17 3158 -2939 3182 -2948 12 -5 64 -9 116 -10 85 -1 101 1 150 25 109 54 285 260 360 421 53 115 34 221 -56 308 l-33 31 16 -43 c21 -63 10 -132 -38 -225 -42 -81 -53 -97 -135 -197 -152 -182 -281 -248 -405 -203 -83 29 -254 182 -1439 1280 -569 527 -1069 991 -1110 1031 -41 39 -138 129 -215 200 -77 71 -151 141 -165 155 -45 45 -267 250 -292 269 -12 10 -41 21 -63 25 -39 8 -87 29 -109 48 -61 53 -318 188 -358 188 -16 0 -33 -15 -57 -51z" fill="url(#linear-gradient-2-3)" id="region-2-3" transform="translate(0.000000,520.000000) scale(0.100000,-0.100000)"/></g><g id="layer-3"><path d="M1895 4926 c-62 -17 -169 -58 -135 -52 220 39 374 29 625 -42 l70 -20 -140 3 -140 4 110 -8 c61 -4 133 -13 160 -20 28 -6 100 -22 160 -35 61 -13 148 -33 195 -45 173 -44 106 -13 -165 76 -470 154 -436 145 -570 149 -80 2 -137 -1 -170 -10z" fill="url(#linear-gradient-3-1)" id="region-3-1" transform="translate(0.000000,520.000000) scale(0.100000,-0.100000)"/><path d="M1810 4882 c-53 -10 -113 -28 -135 -42 -96 -56 -143 -91 -185 -137 -80 -87 -163 -183 -179 -206 -9 -13 -25 -32 -36 -43 -11 -11 -90 -101 -175 -200 -85 -98 -163 -188 -175 -200 -11 -11 -35 -38 -54 -60 -30 -35 -78 -90 -178 -203 -30 -33 -32 -34 -33 -13 0 19 -3 21 -19 12 -32 -17 -64 -77 -56 -107 8 -32 80 -102 250 -244 51 -43 102 -88 129 -115 43 -42 142 -121 159 -127 35 -13 65 3 73 36 8 40 68 160 103 207 42 57 94 100 130 106 50 10 138 -19 269 -88 64 -33 119 -64 122 -68 3 -3 24 -17 48 -30 23 -13 42 -27 42 -31 0 -12 61 -32 69 -23 72 76 90 106 79 124 -12 19 -4 31 103 146 16 17 29 35 29 39 0 4 11 16 25 27 14 11 30 28 36 39 11 22 -4 46 -72 119 -37 39 -205 233 -259 299 -93 114 -108 208 -50 316 75 139 163 240 248 284 20 11 33 20 29 21 -21 1 -91 -45 -145 -95 -87 -80 -124 -70 -63 19 39 57 99 109 163 143 51 27 58 28 203 27 l150 0 -70 19 c-233 63 -416 79 -575 49z" fill="url(#linear-gradient-3-2)" id="region-3-2" transform="translate(0.000000,520.000000) scale(0.100000,-0.100000)"/><path d="M2090 4779 c-63 -35 -110 -76 -151 -136 -61 -88 -24 -98 63 -18 54 50 124 96 145 95 4 -1 -9 -10 -29 -21 -85 -44 -173 -145 -248 -284 -58 -108 -43 -202 50 -316 54 -66 222 -260 259 -299 68 -73 83 -97 72 -119 -6 -11 -22 -28 -36 -39 -30 -24 -31 -28 -4 -35 25 -7 73 35 89 78 11 28 7 38 -30 76 -8 9 -42 47 -75 84 -33 38 -73 83 -90 100 -16 18 -39 43 -50 56 -160 192 -175 217 -175 291 0 45 27 128 41 128 5 0 9 5 9 11 0 21 88 136 139 181 80 72 107 81 256 86 122 3 193 -2 510 -41 121 -15 159 -10 163 20 3 22 -5 24 -118 39 l-35 4 35 -14 c52 -21 12 -19 -82 5 -95 25 -326 75 -408 89 -30 6 -98 10 -150 10 -87 0 -100 -3 -150 -31z" fill="url(#linear-gradient-3-3)" id="region-3-3" transform="translate(0.000000,520.000000) scale(0.100000,-0.100000)"/><path d="M2219 3528 c-35 -40 -80 -91 -99 -113 -71 -80 -71 -69 0 -134 l64 -57 40 60 c23 34 72 94 111 133 68 70 70 73 51 89 -11 9 -38 34 -61 55 l-42 38 -64 -71z" fill="url(#linear-gradient-3-4)" id="region-3-4" transform="translate(0.000000,520.000000) scale(0.100000,-0.100000)"/><path d="M439 3522 c-30 -33 -72 -80 -94 -107 -22 -26 -47 -55 -56 -64 -26 -25 -9 -53 94 -155 101 -101 172 -163 257 -225 30 -22 60 -45 66 -50 6 -5 30 -19 53 -30 48 -25 64 -20 104 31 14 18 53 62 86 98 80 86 82 94 34 139 -97 89 -167 151 -171 151 -3 0 -14 10 -26 23 -12 12 -49 45 -81 72 -62 52 -160 140 -183 162 -7 7 -17 13 -21 13 -4 0 -32 -26 -62 -58z" fill="url(#linear-gradient-3-5)" id="region-3-5" transform="translate(0.000000,520.000000) scale(0.100000,-0.100000)"/><path d="M2329 3412 c-61 -66 -139 -169 -139 -185 0 -10 125 -130 329 -316 44 -40 271 -253 326 -306 121 -116 370 -351 500 -472 77 -72 215 -204 307 -294 92 -90 187 -182 210 -204 71 -64 267 -245 332 -306 34 -31 92 -85 130 -120 39 -35 86 -80 106 -99 58 -57 138 -128 255 -228 61 -52 117 -102 125 -111 9 -9 45 -41 80 -71 36 -30 70 -59 76 -65 6 -5 33 -28 58 -50 26 -21 58 -48 70 -60 191 -171 202 -175 295 -89 100 93 215 251 226 310 5 26 -4 39 -72 110 -76 79 -129 128 -248 229 -32 28 -69 60 -81 71 -12 12 -37 32 -56 45 -18 13 -40 31 -49 39 -8 8 -33 30 -55 48 -40 34 -144 127 -194 172 -15 14 -40 36 -56 49 -70 59 -149 126 -154 131 -3 3 -18 16 -35 29 -28 21 -107 89 -161 136 -12 11 -44 38 -70 60 -26 22 -80 67 -118 100 -39 33 -111 94 -161 135 -49 41 -92 77 -95 80 -7 8 -170 139 -206 165 -15 11 -75 58 -134 105 -59 47 -148 117 -199 155 -113 87 -108 83 -331 265 -236 193 -260 213 -274 225 -6 6 -51 43 -101 84 -49 41 -97 82 -106 90 -9 9 -38 34 -65 56 -26 22 -57 49 -69 60 -35 36 -112 95 -122 95 -6 0 -39 -31 -74 -68z" fill="url(#linear-gradient-3-6)" id="region-3-6" transform="translate(0.000000,520.000000) scale(0.100000,-0.100000)"/><path d="M833 3315 c-4 -13 10 -31 53 -69 120 -105 136 -123 130 -142 -3 -11 -33 -48 -67 -84 -33 -36 -72 -80 -86 -98 -40 -51 -56 -56 -104 -31 -23 11 -47 25 -53 30 -6 5 -41 32 -78 59 -37 28 -87 68 -110 90 -24 22 -49 40 -56 40 -30 0 -74 34 -136 105 -36 42 -66 71 -66 66 0 -43 392 -401 438 -401 5 0 15 -7 22 -14 6 -8 32 -23 57 -32 l46 -18 49 55 c106 115 198 231 198 248 0 18 -38 56 -153 156 -69 59 -75 62 -84 40z" fill="url(#linear-gradient-3-7)" id="region-3-7" transform="translate(0.000000,520.000000) scale(0.100000,-0.100000)"/></g><g id="layer-4"><path d="M2090 4800 c-154 -49 -296 -157 -367 -280 -15 -25 -32 -52 -39 -60 -19 -24 -64 -158 -64 -193 0 -18 13 -59 29 -92 24 -50 67 -97 263 -290 129 -126 246 -236 261 -244 24 -13 29 -12 48 5 50 45 46 61 -42 154 -37 39 -205 233 -259 299 -93 114 -108 208 -50 316 75 139 163 240 248 284 20 11 33 20 29 21 -21 1 -91 -45 -145 -95 -87 -80 -124 -70 -63 18 41 60 88 101 151 136 53 29 53 38 0 21z" fill="url(#linear-gradient-4-1)" id="region-4-1" transform="translate(0.000000,520.000000) scale(0.100000,-0.100000)"/><path d="M2090 4779 c-63 -35 -110 -76 -151 -136 -63 -90 -24 -98 68 -14 45 42 87 69 138 90 99 42 177 42 450 3 39 -6 106 -13 150 -15 l80 -5 -55 15 c-65 18 -301 70 -380 83 -30 6 -98 10 -150 10 -87 0 -100 -3 -150 -31z" fill="url(#linear-gradient-4-2)" id="region-4-2" transform="translate(0.000000,520.000000) scale(0.100000,-0.100000)"/><path d="M1640 4696 c-64 -24 -137 -76 -181 -128 -55 -66 -112 -131 -120 -138 -3 -3 -29 -32 -59 -65 -71 -80 -199 -222 -230 -255 -14 -15 -56 -62 -95 -106 -38 -43 -96 -107 -129 -141 -50 -53 -57 -66 -52 -89 8 -29 61 -86 115 -124 l34 -23 -37 54 c-20 29 -36 58 -36 62 0 10 2 12 397 487 149 179 288 341 310 361 57 53 116 88 176 104 l52 14 -55 0 c-30 0 -71 -6 -90 -13z" fill="url(#linear-gradient-4-3)" id="region-4-3" transform="translate(0.000000,520.000000) scale(0.100000,-0.100000)"/><path d="M1363 3759 c-75 -13 -152 -58 -235 -140 -44 -43 -94 -81 -125 -95 l-53 -24 -52 20 c-61 23 -135 80 -169 130 -13 19 -30 41 -36 48 -7 7 -16 20 -21 28 -11 19 -39 8 -48 -19 -7 -24 -5 -26 221 -222 126 -109 180 -157 251 -222 30 -27 52 -29 61 -5 30 90 107 216 164 272 89 86 174 80 380 -25 37 -19 83 -45 102 -57 19 -13 48 -31 63 -41 16 -9 43 -26 61 -37 l31 -21 36 37 c20 20 36 44 36 53 0 13 -99 103 -196 180 -23 19 -169 101 -179 101 -5 0 -23 7 -39 15 -30 16 -134 36 -176 34 -14 -1 -48 -5 -77 -10z" fill="url(#linear-gradient-4-4)" id="region-4-4" transform="translate(0.000000,520.000000) scale(0.100000,-0.100000)"/><path d="M385 3417 c-58 -56 -65 -67 -65 -101 0 -33 8 -46 68 -108 56 -58 123 -108 147 -108 3 0 -29 32 -70 71 -80 76 -95 105 -76 145 11 24 55 85 94 128 23 27 22 36 -8 36 -16 0 -46 -20 -90 -63z" fill="url(#linear-gradient-4-5)" id="region-4-5" transform="translate(0.000000,520.000000) scale(0.100000,-0.100000)"/><path d="M2142 3417 c-13 -16 46 -75 457 -457 74 -69 151 -141 171 -160 20 -19 101 -96 181 -170 79 -74 182 -172 229 -216 47 -45 110 -103 140 -128 30 -26 161 -154 290 -285 129 -131 262 -262 296 -292 90 -81 272 -248 329 -301 27 -27 52 -48 56 -48 3 0 24 -17 45 -37 74 -71 149 -134 259 -218 33 -25 73 -56 89 -68 16 -12 84 -68 153 -124 93 -78 125 -99 130 -88 9 25 -22 52 -352 315 -77 61 -163 132 -190 158 -28 26 -73 67 -100 91 -28 25 -106 97 -174 160 -68 64 -136 127 -151 141 -15 14 -60 54 -100 90 -82 73 -135 126 -331 326 -189 194 -403 401 -474 460 -33 27 -69 58 -81 69 -12 11 -39 36 -61 55 -152 134 -248 222 -483 446 -52 50 -120 113 -150 139 -30 27 -80 73 -111 103 -46 43 -58 51 -67 39z" fill="url(#linear-gradient-4-6)" id="region-4-6" transform="translate(0.000000,520.000000) scale(0.100000,-0.100000)"/><path d="M805 3290 c-4 -12 -35 -50 -70 -85 -69 -71 -148 -115 -205 -115 l-34 0 33 -31 c19 -17 64 -53 100 -80 36 -27 71 -53 77 -58 6 -5 30 -19 53 -30 48 -25 64 -20 104 31 14 18 53 62 86 98 80 86 82 94 34 139 -80 73 -167 151 -169 151 -1 0 -6 -9 -9 -20z" fill="url(#linear-gradient-4-7)" id="region-4-7" transform="translate(0.000000,520.000000) scale(0.100000,-0.100000)"/></g></svg>