<?xml version="1.0" standalone="no"?><!DOCTYPE svg PUBLIC "-//W3C//DTD SVG 20010904//EN" "http://www.w3.org/TR/2001/REC-SVG-20010904/DTD/svg10.dtd"><svg version="1.0" xmlns="http://www.w3.org/2000/svg" width="414pt" height="600pt" viewBox="0 0 414 600" preserveAspectRatio="xMidYMid meet"><defs><linearGradient id="linear-gradient-1-1" x1="0.00%" y1="100.00%" x2="124.24%" y2="57.97%"><stop offset="0%" style="stop-color:rgb(139,116,85);stop-opacity:1.000" /><stop offset="100%" style="stop-color:rgb(125,102,70);stop-opacity:1.000" /></linearGradient><linearGradient id="linear-gradient-1-2" x1="0.00%" y1="100.00%" x2="39.25%" y2="-67.77%"><stop offset="0%" style="stop-color:rgb(216,202,179);stop-opacity:0.992" /><stop offset="100%" style="stop-color:rgb(234,231,226);stop-opacity:0.992" /></linearGradient><linearGradient id="linear-gradient-1-3" x1="0.00%" y1="100.00%" x2="4.36%" y2="-56.38%"><stop offset="0%" style="stop-color:rgb(172,135,91);stop-opacity:1.000" /><stop offset="100%" style="stop-color:rgb(160,116,71);stop-opacity:1.000" /></linearGradient><linearGradient id="linear-gradient-1-4" x1="0.00%" y1="100.00%" x2="2.96%" y2="-6.79%"><stop offset="0%" style="stop-color:rgb(82,69,54);stop-opacity:1.000" /><stop offset="100%" style="stop-color:rgb(49,36,21);stop-opacity:1.000" /></linearGradient><linearGradient id="linear-gradient-1-5" x1="0.00%" y1="100.00%" x2="96.81%" y2="-5.02%"><stop offset="0%" style="stop-color:rgb(101,92,82);stop-opacity:0.993" /><stop offset="100%" style="stop-color:rgb(38,19,1);stop-opacity:0.993" /></linearGradient><linearGradient id="linear-gradient-1-6" x1="0.00%" y1="0.00%" x2="96.76%" y2="152.26%"><stop offset="0%" style="stop-color:rgb(251,212,154);stop-opacity:0.990" /><stop offset="100%" style="stop-color:rgb(179,132,84);stop-opacity:0.994" /></linearGradient><linearGradient id="linear-gradient-2-1" x1="0.00%" y1="100.00%" x2="2.95%" y2="-212.95%"><stop offset="0%" style="stop-color:rgb(122,69,21);stop-opacity:0.470" /><stop offset="100%" style="stop-color:rgb(129,64,0);stop-opacity:0.570" /></linearGradient><linearGradient id="linear-gradient-2-2" x1="0.00%" y1="100.00%" x2="1.54%" y2="-327.71%"><stop offset="0%" style="stop-color:rgb(168,92,17);stop-opacity:0.334" /><stop offset="100%" style="stop-color:rgb(145,71,0);stop-opacity:0.449" /></linearGradient><linearGradient id="linear-gradient-2-3" x1="0.00%" y1="100.00%" x2="1.49%" y2="-12.55%"><stop offset="0%" style="stop-color:rgb(255,240,193);stop-opacity:0.795" /><stop offset="100%" style="stop-color:rgb(255,250,203);stop-opacity:0.835" /></linearGradient><linearGradient id="linear-gradient-2-4" x1="0.00%" y1="0.00%" x2="144.30%" y2="31.25%"><stop offset="0%" style="stop-color:rgb(251,250,244);stop-opacity:0.679" /><stop offset="100%" style="stop-color:rgb(255,255,250);stop-opacity:0.701" /></linearGradient><linearGradient id="linear-gradient-2-5" x1="0.00%" y1="100.00%" x2="132.30%" y2="97.21%"><stop offset="0%" style="stop-color:rgb(232,231,223);stop-opacity:0.784" /><stop offset="100%" style="stop-color:rgb(239,238,229);stop-opacity:0.810" /></linearGradient><linearGradient id="linear-gradient-2-6" x1="0.00%" y1="100.00%" x2="68.01%" y2="-34.08%"><stop offset="0%" style="stop-color:rgb(222,216,205);stop-opacity:0.794" /><stop offset="100%" style="stop-color:rgb(226,220,209);stop-opacity:0.811" /></linearGradient><linearGradient id="linear-gradient-2-7" x1="0.00%" y1="0.00%" x2="2.71%" y2="169.57%"><stop offset="0%" style="stop-color:rgb(71,54,36);stop-opacity:0.813" /><stop offset="100%" style="stop-color:rgb(90,73,54);stop-opacity:0.781" /></linearGradient><linearGradient id="linear-gradient-2-8" x1="0.00%" y1="100.00%" x2="0.00%" y2="-0.00%"><stop offset="0%" style="stop-color:rgb(90,76,60);stop-opacity:0.799" /><stop offset="100%" style="stop-color:rgb(51,39,25);stop-opacity:0.808" /></linearGradient><linearGradient id="linear-gradient-2-9" x1="0.00%" y1="100.00%" x2="96.48%" y2="-7.99%"><stop offset="0%" style="stop-color:rgb(219,220,215);stop-opacity:0.785" /><stop offset="100%" style="stop-color:rgb(227,228,223);stop-opacity:0.816" /></linearGradient><linearGradient id="linear-gradient-2-10" x1="0.00%" y1="100.00%" x2="69.84%" y2="-255.82%"><stop offset="0%" style="stop-color:rgb(95,44,21);stop-opacity:0.317" /><stop offset="100%" style="stop-color:rgb(164,113,41);stop-opacity:0.588" /></linearGradient><linearGradient id="linear-gradient-2-11" x1="0.00%" y1="100.00%" x2="102.37%" y2="39.79%"><stop offset="0%" style="stop-color:rgb(207,202,197);stop-opacity:0.790" /><stop offset="100%" style="stop-color:rgb(215,210,205);stop-opacity:0.823" /></linearGradient><linearGradient id="linear-gradient-2-12" x1="0.00%" y1="100.00%" x2="89.48%" y2="-44.37%"><stop offset="0%" style="stop-color:rgb(209,202,195);stop-opacity:0.787" /><stop offset="100%" style="stop-color:rgb(214,207,201);stop-opacity:0.810" /></linearGradient><linearGradient id="linear-gradient-3-1" x1="0.00%" y1="100.00%" x2="118.25%" y2="36.32%"><stop offset="0%" style="stop-color:rgb(237,237,233);stop-opacity:0.768" /><stop offset="100%" style="stop-color:rgb(254,254,249);stop-opacity:0.832" /></linearGradient><linearGradient id="linear-gradient-3-2" x1="0.00%" y1="0.00%" x2="103.52%" y2="3.35%"><stop offset="0%" style="stop-color:rgb(235,233,228);stop-opacity:0.773" /><stop offset="100%" style="stop-color:rgb(243,241,236);stop-opacity:0.805" /></linearGradient></defs><g id="layer-1"><path d="M2041 5793 c0 -13 -5 -23 -10 -23 -5 0 -11 -18 -15 -41 -4 -22 -15 -58 -26 -80 -25 -47 -25 -68 -1 -96 15 -18 30 -23 68 -23 43 0 51 3 66 29 21 35 22 65 3 80 -8 7 -24 37 -37 69 -12 31 -26 59 -30 62 -4 3 -9 14 -12 25 -4 18 -5 18 -6 -2z" fill="url(#linear-gradient-1-1)" id="region-1-1" transform="translate(0.000000,600.000000) scale(0.100000,-0.100000)"/><path d="M1417 5510 c-302 -30 -324 -38 -345 -130 -6 -25 -45 -135 -87 -245 -169 -445 -350 -974 -510 -1493 -31 -101 -66 -199 -77 -218 -19 -32 -19 -36 -4 -59 34 -51 -7 -50 1566 -49 1448 1 1553 3 1713 35 l57 11 0 52 c0 29 -4 56 -9 62 -5 5 -50 137 -101 294 -190 593 -368 1108 -494 1435 -36 93 -66 181 -66 195 -1 35 -41 78 -81 84 -159 28 -397 39 -869 42 -433 2 -532 0 -693 -16z" fill="url(#linear-gradient-1-2)" id="region-1-2" transform="translate(0.000000,600.000000) scale(0.100000,-0.100000)"/><path d="M1610 3291 c0 -11 5 -23 10 -26 6 -4 10 -53 10 -114 0 -104 1 -109 23 -115 29 -8 795 -8 825 0 21 6 22 11 22 110 0 58 4 106 10 109 6 3 10 17 10 31 l0 24 -455 0 c-444 0 -455 0 -455 -19z" fill="url(#linear-gradient-1-3)" id="region-1-3" transform="translate(0.000000,600.000000) scale(0.100000,-0.100000)"/><path d="M1670 2805 c0 -266 7 -306 57 -324 19 -7 37 -19 40 -27 3 -8 11 -14 19 -14 23 0 16 -14 -17 -33 -61 -34 -15 -58 158 -82 108 -15 231 -9 363 17 79 16 110 46 73 73 -15 11 -15 15 6 44 12 17 26 31 30 31 5 0 21 19 36 41 l27 42 -7 228 -8 229 -388 0 -389 0 0 -225z" fill="url(#linear-gradient-1-4)" id="region-1-4" transform="translate(0.000000,600.000000) scale(0.100000,-0.100000)"/><path d="M2385 2475 c-38 -39 -43 -53 -20 -61 42 -17 1 -57 -75 -72 -132 -26 -255 -32 -363 -17 -173 24 -219 48 -158 82 33 19 40 33 17 33 -8 0 -16 6 -19 14 -3 8 -26 22 -51 31 -45 17 -48 17 -114 -4 -109 -36 -262 -118 -314 -168 -82 -81 -120 -208 -120 -408 -1 -184 20 -247 187 -585 190 -383 213 -479 150 -645 -14 -37 -25 -75 -25 -85 0 -31 71 -49 320 -81 140 -19 506 -4 667 26 193 36 211 49 178 128 -8 20 -24 70 -36 112 -19 70 -20 83 -8 144 13 68 77 205 183 391 71 124 156 295 156 312 0 7 7 33 16 58 13 37 15 72 10 196 -9 231 -50 360 -136 438 -39 35 -135 86 -162 86 -6 0 -26 12 -45 26 -34 26 -123 65 -175 78 -22 5 -34 0 -63 -29z" fill="url(#linear-gradient-1-5)" id="region-1-5" transform="translate(0.000000,600.000000) scale(0.100000,-0.100000)"/><path d="M1442 598 c-7 -7 -12 -26 -12 -43 0 -26 -6 -33 -42 -50 l-43 -20 -9 -78 c-10 -93 -4 -104 82 -135 250 -91 1034 -92 1276 -2 77 29 86 40 85 108 -1 83 -10 104 -52 127 -28 15 -37 26 -37 46 0 25 -29 76 -30 52 0 -23 -59 -43 -193 -68 -161 -30 -527 -45 -667 -26 -253 33 -320 50 -320 82 0 21 -20 25 -38 7z" fill="url(#linear-gradient-1-6)" id="region-1-6" transform="translate(0.000000,600.000000) scale(0.100000,-0.100000)"/></g><g id="layer-2"><path d="M1417 5510 c-298 -30 -327 -40 -342 -122 -4 -21 -5 -38 -3 -38 2 0 44 9 93 19 170 37 333 46 890 46 473 0 555 -3 758 -23 126 -12 233 -22 238 -22 18 0 8 56 -15 82 -28 31 -37 33 -256 55 -123 12 -295 17 -670 19 -433 2 -532 0 -693 -16z" fill="url(#linear-gradient-2-1)" id="region-2-1" transform="translate(0.000000,600.000000) scale(0.100000,-0.100000)"/><path d="M3240 3449 c-118 -4 -804 -7 -1524 -7 l-1310 0 -13 -27 c-13 -23 -12 -30 1 -50 34 -51 -5 -50 1566 -49 1448 1 1553 3 1713 35 l57 11 0 49 0 49 -137 -2 c-76 -1 -235 -5 -353 -9z" fill="url(#linear-gradient-2-2)" id="region-2-2" transform="translate(0.000000,600.000000) scale(0.100000,-0.100000)"/><path d="M1925 3226 c-13 -9 -28 -45 -41 -98 l-21 -83 215 -3 c118 -1 216 -1 218 1 2 1 -3 29 -11 62 -8 33 -17 77 -20 98 l-6 37 -53 0 c-52 0 -86 -19 -86 -47 0 -21 -34 -25 -50 -6 -41 51 -106 68 -145 39z" fill="url(#linear-gradient-2-3)" id="region-2-3" transform="translate(0.000000,600.000000) scale(0.100000,-0.100000)"/><path d="M1950 2950 c0 -68 1 -70 25 -70 24 0 25 2 25 70 0 68 -1 70 -25 70 -24 0 -25 -2 -25 -70z" fill="url(#linear-gradient-2-4)" id="region-2-4" transform="translate(0.000000,600.000000) scale(0.100000,-0.100000)"/><path d="M2160 2795 l0 -225 35 0 35 0 0 225 0 225 -35 0 -35 0 0 -225z" fill="url(#linear-gradient-2-5)" id="region-2-5" transform="translate(0.000000,600.000000) scale(0.100000,-0.100000)"/><path d="M1960 2595 c0 -20 5 -25 25 -25 20 0 25 5 25 25 0 20 -5 25 -25 25 -20 0 -25 -5 -25 -25z" fill="url(#linear-gradient-2-6)" id="region-2-6" transform="translate(0.000000,600.000000) scale(0.100000,-0.100000)"/><path d="M2385 2475 c-38 -39 -43 -53 -20 -61 42 -17 1 -57 -75 -72 -132 -26 -255 -32 -363 -17 -173 24 -219 48 -158 82 33 19 40 33 17 33 -8 0 -16 6 -19 14 -3 8 -26 22 -51 31 -44 17 -48 17 -114 -4 -37 -12 -72 -25 -77 -29 -15 -11 -55 -70 -55 -81 0 -14 60 -57 90 -65 14 -4 34 -11 45 -16 39 -16 233 -30 422 -30 186 0 437 23 553 51 123 29 101 104 -48 164 -100 39 -107 39 -147 0z" fill="url(#linear-gradient-2-7)" id="region-2-7" transform="translate(0.000000,600.000000) scale(0.100000,-0.100000)"/><path d="M1342 2278 c-23 -29 -63 -121 -82 -190 -64 -227 -22 -458 143 -793 94 -192 157 -360 157 -421 0 -20 8 -22 163 -35 221 -18 635 -18 753 0 l91 14 18 81 c13 62 40 127 115 276 163 323 200 421 221 587 10 84 10 114 -4 210 -19 126 -52 218 -90 247 l-26 19 -48 -35 c-92 -67 -242 -102 -500 -118 -474 -28 -650 -2 -827 125 -71 50 -70 50 -84 33z" fill="url(#linear-gradient-2-8)" id="region-2-8" transform="translate(0.000000,600.000000) scale(0.100000,-0.100000)"/><path d="M2174 724 c-9 -48 3 -58 56 -44 36 10 41 14 36 33 -3 12 -6 28 -6 35 0 7 -15 12 -40 12 -37 0 -39 -2 -46 -36z" fill="url(#linear-gradient-2-9)" id="region-2-9" transform="translate(0.000000,600.000000) scale(0.100000,-0.100000)"/><path d="M1442 598 c-15 -15 -16 -109 -1 -141 11 -25 105 -78 174 -97 23 -6 160 -14 316 -17 300 -6 462 4 551 37 29 10 78 26 108 35 91 28 100 36 100 103 0 36 -6 66 -15 78 -8 10 -15 13 -15 7 0 -23 -59 -43 -193 -68 -161 -30 -527 -45 -667 -26 -253 33 -320 50 -320 82 0 21 -20 25 -38 7z" fill="url(#linear-gradient-2-10)" id="region-2-10" transform="translate(0.000000,600.000000) scale(0.100000,-0.100000)"/><path d="M2180 545 c0 -24 2 -25 61 -25 57 0 60 1 57 23 -3 19 -10 22 -60 25 -56 3 -58 2 -58 -23z" fill="url(#linear-gradient-2-11)" id="region-2-11" transform="translate(0.000000,600.000000) scale(0.100000,-0.100000)"/><path d="M1900 530 c0 -17 7 -20 40 -20 33 0 40 3 40 20 0 17 -7 20 -40 20 -33 0 -40 -3 -40 -20z" fill="url(#linear-gradient-2-12)" id="region-2-12" transform="translate(0.000000,600.000000) scale(0.100000,-0.100000)"/></g><g id="layer-3"><path d="M2234 2053 c3 -32 8 -93 12 -135 l6 -78 67 0 68 0 12 93 c6 50 14 111 18 135 l6 42 -97 0 -97 0 5 -57z" fill="url(#linear-gradient-3-1)" id="region-3-1" transform="translate(0.000000,600.000000) scale(0.100000,-0.100000)"/><path d="M1802 1978 l3 -93 55 0 55 0 3 93 3 92 -61 0 -61 0 3 -92z" fill="url(#linear-gradient-3-2)" id="region-3-2" transform="translate(0.000000,600.000000) scale(0.100000,-0.100000)"/></g></svg>