<?xml version="1.0" standalone="no"?>
<!DOCTYPE svg PUBLIC "-//W3C//DTD SVG 20010904//EN"
 "http://www.w3.org/TR/2001/REC-SVG-20010904/DTD/svg10.dtd">
<svg version="1.0" xmlns="http://www.w3.org/2000/svg"
 width="414.000000pt" height="600.000000pt" viewBox="0 0 414.000000 600.000000"
 preserveAspectRatio="xMidYMid meet">
<defs>
<linearGradient id="grad_0" x1="0%" y1="100%" x2="100%" y2="100%">
<stop offset="0%" style="stop-color:rgb(254, 254, 254); stop-opacity:1"/>
<stop offset="100%" style="stop-color:rgb(254, 254, 254); stop-opacity:1"/>
</linearGradient>
<linearGradient id="grad_1" x1="0%" y1="79%" x2="98%" y2="51%">
<stop offset="0%" style="stop-color:rgb(59, 46, 30); stop-opacity:1"/>
<stop offset="100%" style="stop-color:rgb(75, 61, 44); stop-opacity:1"/>
</linearGradient>
<linearGradient id="grad_2" x1="0%" y1="100%" x2="100%" y2="100%">
<stop offset="0%" style="stop-color:rgb(215, 213, 206); stop-opacity:1"/>
<stop offset="100%" style="stop-color:rgb(215, 213, 206); stop-opacity:1"/>
</linearGradient>
<linearGradient id="grad_3" x1="0%" y1="100%" x2="100%" y2="100%">
<stop offset="0%" style="stop-color:rgb(220, 216, 210); stop-opacity:1"/>
<stop offset="100%" style="stop-color:rgb(220, 216, 210); stop-opacity:1"/>
</linearGradient>
<linearGradient id="grad_4" x1="0%" y1="100%" x2="100%" y2="100%">
<stop offset="0%" style="stop-color:rgb(196, 191, 186); stop-opacity:1"/>
<stop offset="100%" style="stop-color:rgb(196, 191, 186); stop-opacity:1"/>
</linearGradient>
<linearGradient id="grad_5" x1="92%" y1="100%" x2="92%" y2="-3%">
<stop offset="0%" style="stop-color:rgb(91, 77, 72); stop-opacity:1"/>
<stop offset="100%" style="stop-color:rgb(255, 221, 125); stop-opacity:1"/>
</linearGradient>
<linearGradient id="grad_6" x1="0%" y1="100%" x2="100%" y2="100%">
<stop offset="0%" style="stop-color:rgb(183, 175, 167); stop-opacity:1"/>
<stop offset="100%" style="stop-color:rgb(183, 175, 167); stop-opacity:1"/>
</linearGradient>
<linearGradient id="grad_7" x1="0%" y1="62%" x2="100%" y2="62%">
<stop offset="0%" style="stop-color:rgb(191, 188, 181); stop-opacity:1"/>
<stop offset="100%" style="stop-color:rgb(191, 188, 181); stop-opacity:1"/>
</linearGradient>
<linearGradient id="grad_8" x1="65%" y1="0%" x2="64%" y2="102%">
<stop offset="0%" style="stop-color:rgb(67, 49, 28); stop-opacity:1"/>
<stop offset="100%" style="stop-color:rgb(94, 78, 61); stop-opacity:1"/>
</linearGradient>
<linearGradient id="grad_9" x1="0%" y1="100%" x2="1%" y2="-1%">
<stop offset="0%" style="stop-color:rgb(149, 110, 68); stop-opacity:1"/>
<stop offset="100%" style="stop-color:rgb(255, 243, 166); stop-opacity:1"/>
</linearGradient>
<linearGradient id="grad_10" x1="0%" y1="100%" x2="100%" y2="100%">
<stop offset="0%" style="stop-color:rgb(201, 197, 189); stop-opacity:1"/>
<stop offset="100%" style="stop-color:rgb(201, 197, 189); stop-opacity:1"/>
</linearGradient>
<linearGradient id="grad_11" x1="0%" y1="100%" x2="100%" y2="100%">
<stop offset="0%" style="stop-color:rgb(203, 200, 192); stop-opacity:1"/>
<stop offset="100%" style="stop-color:rgb(203, 200, 192); stop-opacity:1"/>
</linearGradient>
<linearGradient id="grad_12" x1="0%" y1="0%" x2="100%" y2="0%">
<stop offset="0%" style="stop-color:rgb(251, 226, 182); stop-opacity:1"/>
<stop offset="100%" style="stop-color:rgb(251, 226, 182); stop-opacity:1"/>
</linearGradient>
<linearGradient id="grad_13" x1="0%" y1="57%" x2="100%" y2="57%">
<stop offset="0%" style="stop-color:rgb(201, 165, 128); stop-opacity:1"/>
<stop offset="100%" style="stop-color:rgb(201, 165, 128); stop-opacity:1"/>
</linearGradient>
<linearGradient id="grad_14" x1="19%" y1="96%" x2="38%" y2="-46%">
<stop offset="0%" style="stop-color:rgb(219, 207, 190); stop-opacity:1"/>
<stop offset="100%" style="stop-color:rgb(243, 237, 228); stop-opacity:1"/>
</linearGradient>
<linearGradient id="grad_15" x1="48%" y1="100%" x2="49%" y2="-1%">
<stop offset="0%" style="stop-color:rgb(132, 92, 61); stop-opacity:1"/>
<stop offset="100%" style="stop-color:rgb(196, 161, 116); stop-opacity:1"/>
</linearGradient>
<linearGradient id="grad_16" x1="98%" y1="100%" x2="97%" y2="-1%">
<stop offset="0%" style="stop-color:rgb(0, 0, 0); stop-opacity:0.679243"/>
<stop offset="100%" style="stop-color:rgb(0, 0, 0); stop-opacity:0.838552"/>
</linearGradient>
<linearGradient id="grad_17" x1="0%" y1="100%" x2="100%" y2="100%">
<stop offset="0%" style="stop-color:rgb(0, 129, 255); stop-opacity:0.211488"/>
<stop offset="100%" style="stop-color:rgb(0, 129, 255); stop-opacity:0.211488"/>
</linearGradient>
<linearGradient id="grad_18" x1="0%" y1="61%" x2="100%" y2="61%">
<stop offset="0%" style="stop-color:rgb(0, 0, 0); stop-opacity:0.124156"/>
<stop offset="100%" style="stop-color:rgb(0, 0, 0); stop-opacity:0.124156"/>
</linearGradient>
</defs>
<g transform="translate(0.000000,600.000000) scale(0.100000,-0.100000)"
fill="url(#grad_0)" stroke="none">
<g>
<path d="M0 3000 l0 -3000 2070 0 2070 0 0 3000 0 3000 -2070 0 -2070 0 0
-3000z"/>
</g>
</g>
<g transform="translate(0.000000,600.000000) scale(0.100000,-0.100000)"
fill="url(#grad_1)" stroke="none">
<g>
<path d="M1415 2399 c-185 -95 -247 -219 -247 -494 -1 -184 20 -247 187 -585
190 -383 213 -479 150 -645 -14 -37 -25 -75 -25 -85 0 -31 71 -49 320 -81 140
-19 506 -4 667 26 193 36 211 49 178 128 -8 20 -24 70 -36 112 -19 70 -20 83
-8 144 13 68 77 205 183 391 71 124 156 295 156 312 0 7 7 33 16 58 13 37 15
72 10 196 -12 294 -75 431 -233 500 -67 30 -73 30 -73 1 0 -52 -41 -66 -283
-97 -236 -30 -702 -24 -767 10 -9 4 -29 10 -46 14 -41 9 -99 58 -91 77 4 8 14
24 23 37 23 31 11 28 -81 -19z"/>
</g>
</g>
<g transform="translate(0.000000,600.000000) scale(0.100000,-0.100000)"
fill="url(#grad_2)" stroke="none">
<g>
<path d="M2234 2053 c3 -32 8 -93 12 -135 l6 -78 67 0 68 0 12 93 c6 50 14
111 18 135 l6 42 -97 0 -97 0 5 -57z"/>
</g>
</g>
<g transform="translate(0.000000,600.000000) scale(0.100000,-0.100000)"
fill="url(#grad_3)" stroke="none">
<g>
<path d="M1802 1978 l3 -93 55 0 55 0 3 93 3 92 -61 0 -61 0 3 -92z"/>
</g>
</g>
<g transform="translate(0.000000,600.000000) scale(0.100000,-0.100000)"
fill="url(#grad_4)" stroke="none">
<g>
<path d="M2180 545 c0 -24 2 -25 61 -25 57 0 60 1 57 23 -3 19 -10 22 -60 25
-56 3 -58 2 -58 -23z"/>
</g>
</g>
<g transform="translate(0.000000,600.000000) scale(0.100000,-0.100000)"
fill="url(#grad_5)" stroke="none">
<g>
<path d="M1442 598 c-7 -7 -12 -26 -12 -43 0 -26 -6 -33 -42 -50 l-43 -20 -9
-78 c-10 -93 -4 -104 82 -135 250 -91 1034 -92 1276 -2 77 29 86 40 85 108 -1
83 -10 104 -52 127 -28 15 -37 26 -37 46 0 25 -29 76 -30 52 0 -23 -59 -43
-193 -68 -161 -30 -527 -45 -667 -26 -253 33 -320 50 -320 82 0 21 -20 25 -38
7z"/>
</g>
</g>
<g transform="translate(0.000000,600.000000) scale(0.100000,-0.100000)"
fill="url(#grad_6)" stroke="none">
<g>
<path d="M1900 530 c0 -17 7 -20 40 -20 33 0 40 3 40 20 0 17 -7 20 -40 20
-33 0 -40 -3 -40 -20z"/>
</g>
</g>
<g transform="translate(0.000000,600.000000) scale(0.100000,-0.100000)"
fill="url(#grad_7)" stroke="none">
<g>
<path d="M2174 724 c-9 -48 3 -58 56 -44 36 10 41 14 36 33 -3 12 -6 28 -6 35
0 7 -15 12 -40 12 -37 0 -39 -2 -46 -36z"/>
</g>
</g>
<g transform="translate(0.000000,600.000000) scale(0.100000,-0.100000)"
fill="url(#grad_8)" stroke="none">
<g>
<path d="M2385 2475 c-38 -39 -43 -53 -20 -61 42 -17 1 -57 -75 -72 -132 -26
-255 -32 -363 -17 -173 24 -219 48 -158 82 33 19 40 33 17 33 -8 0 -16 6 -19
14 -3 8 -26 22 -51 31 -44 17 -48 17 -114 -4 -37 -12 -72 -25 -77 -29 -15 -11
-55 -70 -55 -81 0 -14 60 -57 90 -65 14 -4 34 -11 45 -16 39 -16 233 -30 422
-30 186 0 437 23 553 51 123 29 101 104 -48 164 -100 39 -107 39 -147 0z"/>
</g>
</g>
<g transform="translate(0.000000,600.000000) scale(0.100000,-0.100000)"
fill="url(#grad_9)" stroke="none">
<g>
<path d="M1610 3291 c0 -11 5 -23 10 -26 6 -4 10 -53 10 -114 0 -100 2 -109
20 -114 19 -5 20 -14 20 -231 0 -268 7 -307 57 -325 19 -7 37 -19 40 -27 3 -8
11 -14 19 -14 23 0 16 -14 -17 -33 -61 -34 -15 -58 158 -82 108 -15 231 -9
363 17 79 16 110 46 73 73 -15 11 -15 15 6 44 12 17 26 31 30 31 5 0 21 19 36
41 l27 42 -7 228 -8 228 27 7 c26 6 26 6 26 109 0 59 4 107 10 110 6 3 10 17
10 31 l0 24 -455 0 c-444 0 -455 0 -455 -19z"/>
</g>
</g>
<g transform="translate(0.000000,600.000000) scale(0.100000,-0.100000)"
fill="url(#grad_10)" stroke="none">
<g>
<path d="M1950 2950 c0 -68 1 -70 25 -70 24 0 25 2 25 70 0 68 -1 70 -25 70
-24 0 -25 -2 -25 -70z"/>
</g>
</g>
<g transform="translate(0.000000,600.000000) scale(0.100000,-0.100000)"
fill="url(#grad_11)" stroke="none">
<g>
<path d="M2160 2795 l0 -225 35 0 35 0 0 225 0 225 -35 0 -35 0 0 -225z"/>
</g>
</g>
<g transform="translate(0.000000,600.000000) scale(0.100000,-0.100000)"
fill="url(#grad_12)" stroke="none">
<g>
<path d="M1925 3226 c-13 -9 -28 -45 -41 -98 l-21 -83 215 -3 c118 -1 216 -1
218 1 2 1 -3 29 -11 62 -8 33 -17 77 -20 98 l-6 37 -53 0 c-52 0 -86 -19 -86
-47 0 -21 -34 -25 -50 -6 -41 51 -106 68 -145 39z"/>
</g>
</g>
<g transform="translate(0.000000,600.000000) scale(0.100000,-0.100000)"
fill="url(#grad_13)" stroke="none">
<g>
<path d="M3240 3449 c-118 -4 -804 -7 -1524 -7 l-1310 0 -13 -27 c-13 -23 -12
-30 1 -50 34 -51 -5 -50 1566 -49 1448 1 1553 3 1713 35 l57 11 0 49 0 49
-137 -2 c-76 -1 -235 -5 -353 -9z"/>
</g>
</g>
<g transform="translate(0.000000,600.000000) scale(0.100000,-0.100000)"
fill="url(#grad_14)" stroke="none">
<g>
<path d="M1585 5414 c-267 -16 -492 -47 -518 -73 -22 -22 -339 -903 -460
-1281 -129 -401 -189 -602 -182 -608 10 -10 2683 -8 3018 2 212 6 285 11 278
20 -5 6 -50 139 -101 296 -121 377 -221 677 -315 945 -84 241 -233 636 -243
647 -4 4 -110 17 -237 29 -194 18 -304 22 -705 24 -261 1 -502 1 -535 -1z"/>
</g>
</g>
<g transform="translate(0.000000,600.000000) scale(0.100000,-0.100000)"
fill="url(#grad_15)" stroke="none">
<g>
<path d="M2041 5793 c0 -13 -5 -23 -10 -23 -5 0 -11 -18 -15 -41 -4 -22 -15
-58 -26 -80 -24 -46 -25 -72 -5 -89 8 -7 15 -16 15 -21 0 -5 -80 -9 -177 -9
-174 0 -547 -29 -649 -50 -60 -13 -90 -40 -99 -92 -4 -21 -5 -38 -3 -38 2 0
44 9 93 19 170 37 333 46 890 46 473 0 555 -3 758 -23 126 -12 233 -22 238
-22 5 0 9 12 9 28 -1 37 -41 79 -81 86 -101 18 -395 38 -616 43 -139 3 -253 8
-253 12 0 3 7 15 15 25 19 25 19 60 1 75 -8 7 -24 37 -37 69 -12 31 -26 59
-30 62 -4 3 -9 14 -12 25 -4 18 -5 18 -6 -2z"/>
</g>
</g>
<g transform="translate(0.000000,600.000000) scale(0.100000,-0.100000)"
fill="url(#grad_16)" stroke="none">
<g>
<path d="M1670 2805 c0 -266 7 -306 57 -324 19 -7 37 -19 40 -27 3 -8 11 -14
19 -14 23 0 16 -14 -17 -33 -61 -34 -15 -58 158 -82 108 -15 231 -9 363 17 79
16 110 46 73 73 -15 11 -15 15 6 44 12 17 26 31 30 31 5 0 21 19 36 41 l27 42
-7 228 -8 229 -388 0 -389 0 0 -225z m330 145 c0 -68 -1 -70 -25 -70 -24 0
-25 2 -25 70 0 68 1 70 25 70 24 0 25 -2 25 -70z m230 -155 l0 -225 -35 0 -35
0 0 225 0 225 35 0 35 0 0 -225z m-220 -200 c0 -20 -5 -25 -25 -25 -20 0 -25
5 -25 25 0 20 5 25 25 25 20 0 25 -5 25 -25z"/>
</g>
</g>
<g transform="translate(0.000000,600.000000) scale(0.100000,-0.100000)"
fill="url(#grad_17)" stroke="none">
<g>
<path d="M1960 2595 c0 -20 5 -25 25 -25 20 0 25 5 25 25 0 20 -5 25 -25 25
-20 0 -25 -5 -25 -25z"/>
</g>
</g>
<g transform="translate(0.000000,600.000000) scale(0.100000,-0.100000)"
fill="url(#grad_18)" stroke="none">
<g>
<path d="M1380 502 c-34 -17 -35 -19 -44 -95 -10 -93 -4 -104 82 -135 250 -91
1034 -92 1276 -2 75 28 86 41 86 99 0 81 -10 111 -44 132 -41 25 -46 24 -46
-11 0 -35 -21 -51 -100 -75 -30 -9 -79 -25 -108 -35 -89 -33 -251 -43 -551
-37 -156 3 -293 11 -316 17 -22 6 -68 25 -102 42 -60 31 -83 58 -83 98 0 24
-6 25 -50 2z"/>
</g>
</g>
</svg>
