<?xml version="1.0" standalone="no"?><!DOCTYPE svg PUBLIC "-//W3C//DTD SVG 20010904//EN" "http://www.w3.org/TR/2001/REC-SVG-20010904/DTD/svg10.dtd"><svg version="1.0" xmlns="http://www.w3.org/2000/svg" width="400pt" height="400pt" viewBox="0 0 400 400" preserveAspectRatio="xMidYMid meet"><defs><linearGradient id="linear-gradient-1-1" x1="0.00%" y1="0.00%" x2="119.06%" y2="15.52%"><stop offset="0%" style="stop-color:rgb(255,113,75);stop-opacity:0.994" /><stop offset="100%" style="stop-color:rgb(91,3,0);stop-opacity:1.000" /></linearGradient><linearGradient id="linear-gradient-1-2" x1="0.00%" y1="0.00%" x2="130.66%" y2="54.58%"><stop offset="0%" style="stop-color:rgb(203,178,169);stop-opacity:1.000" /><stop offset="100%" style="stop-color:rgb(126,67,57);stop-opacity:1.000" /></linearGradient><linearGradient id="linear-gradient-1-3" x1="0.00%" y1="100.00%" x2="102.52%" y2="98.66%"><stop offset="0%" style="stop-color:rgb(175,42,23);stop-opacity:0.995" /><stop offset="100%" style="stop-color:rgb(242,97,75);stop-opacity:0.995" /></linearGradient><linearGradient id="linear-gradient-2-1" x1="0.00%" y1="100.00%" x2="92.02%" y2="-491.93%"><stop offset="0%" style="stop-color:rgb(114,20,12);stop-opacity:0.762" /><stop offset="100%" style="stop-color:rgb(255,119,87);stop-opacity:0.816" /></linearGradient><linearGradient id="linear-gradient-2-2" x1="0.00%" y1="100.00%" x2="197.41%" y2="13.64%"><stop offset="0%" style="stop-color:rgb(255,169,161);stop-opacity:0.861" /><stop offset="100%" style="stop-color:rgb(255,255,255);stop-opacity:0.350" /></linearGradient><linearGradient id="linear-gradient-2-3" x1="0.00%" y1="100.00%" x2="302.06%" y2="54.71%"><stop offset="0%" style="stop-color:rgb(137,79,73);stop-opacity:0.632" /><stop offset="100%" style="stop-color:rgb(153,144,138);stop-opacity:0.886" /></linearGradient><linearGradient id="linear-gradient-2-4" x1="0.00%" y1="100.00%" x2="141.06%" y2="65.59%"><stop offset="0%" style="stop-color:rgb(255,177,184);stop-opacity:0.306" /><stop offset="100%" style="stop-color:rgb(255,255,255);stop-opacity:0.677" /></linearGradient><linearGradient id="linear-gradient-2-5" x1="0.00%" y1="0.00%" x2="101.67%" y2="41.34%"><stop offset="0%" style="stop-color:rgb(174,219,225);stop-opacity:0.543" /><stop offset="100%" style="stop-color:rgb(218,255,255);stop-opacity:0.717" /></linearGradient><linearGradient id="linear-gradient-3-1" x1="0.00%" y1="0.00%" x2="30.72%" y2="371.71%"><stop offset="0%" style="stop-color:rgb(227,144,143);stop-opacity:0.728" /><stop offset="100%" style="stop-color:rgb(232,169,167);stop-opacity:0.824" /></linearGradient></defs><g id="layer-1"><path d="M665 3489 c-137 -5 -262 -14 -277 -20 -14 -6 -36 -21 -48 -34 -21 -23 -22 -32 -27 -338 -5 -326 8 -708 33 -977 8 -85 19 -220 24 -299 19 -271 100 -713 177 -961 74 -239 133 -405 149 -417 36 -26 184 -76 279 -93 288 -53 789 -58 1000 -10 28 6 63 13 80 15 16 2 31 9 33 15 2 5 19 10 38 10 91 0 204 101 204 182 0 11 5 29 12 41 6 12 13 40 16 61 2 22 14 74 28 115 13 42 24 82 24 89 0 8 -17 12 -53 12 -48 0 -55 3 -65 25 -20 44 -14 98 18 162 40 80 67 93 188 93 50 0 94 5 97 10 4 6 -10 10 -34 10 -75 0 -88 18 -50 71 11 16 23 46 25 66 3 21 11 67 19 103 29 132 65 338 80 455 21 161 55 526 55 590 0 30 6 60 16 73 8 12 19 36 24 52 10 34 7 35 -74 45 -46 6 -63 14 -86 38 -33 36 -45 95 -31 157 11 49 21 57 74 66 32 6 38 10 34 26 -4 12 5 32 24 53 l30 33 -1 206 c-2 223 -1 219 -62 237 -113 32 -1423 58 -1973 38z" fill="url(#linear-gradient-1-1)" id="region-1-1" transform="translate(0.000000,400.000000) scale(0.100000,-0.100000)"/><path d="M2667 2970 c-17 -19 -23 -37 -20 -53 4 -22 11 -26 56 -30 51 -4 264 -55 342 -82 114 -39 316 -156 415 -240 53 -46 139 -150 140 -170 0 -15 60 -138 75 -155 7 -8 23 -50 34 -93 19 -66 22 -97 18 -210 -3 -115 -7 -143 -32 -212 -16 -44 -37 -92 -47 -107 -10 -14 -18 -30 -18 -36 0 -5 -7 -15 -15 -22 -21 -17 -19 -50 3 -50 19 0 47 38 90 125 69 138 91 232 94 405 3 137 -15 207 -93 363 -60 121 -94 163 -171 219 -33 24 -66 48 -72 53 -6 6 -75 42 -151 81 -132 67 -211 99 -350 138 -33 10 -78 26 -100 35 -22 10 -56 22 -75 26 -19 4 -49 15 -67 25 l-32 19 -24 -29z" fill="url(#linear-gradient-1-2)" id="region-1-2" transform="translate(0.000000,400.000000) scale(0.100000,-0.100000)"/><path d="M2577 2888 c-17 -6 -29 -19 -33 -36 -3 -15 -8 -35 -11 -44 -9 -34 9 -103 34 -132 31 -36 111 -53 288 -60 164 -6 316 -49 444 -126 129 -77 229 -217 281 -389 19 -62 22 -86 16 -157 -15 -183 -59 -278 -191 -410 -88 -88 -217 -184 -248 -184 -8 0 -56 -13 -107 -30 -143 -47 -216 -61 -334 -65 -98 -4 -114 -2 -144 17 -18 11 -34 19 -36 17 -66 -89 -61 -109 25 -109 24 0 38 -4 34 -10 -3 -5 -47 -10 -97 -10 -121 0 -148 -13 -188 -93 -32 -63 -38 -118 -19 -161 10 -21 19 -25 71 -28 32 -2 62 0 66 4 4 4 37 14 72 22 64 15 98 25 290 87 206 68 437 181 572 281 87 64 228 214 235 250 3 15 12 33 19 39 8 6 14 16 14 21 0 6 8 22 18 36 10 15 31 63 47 107 25 69 29 97 32 212 4 113 1 144 -18 210 -11 43 -27 85 -34 93 -15 17 -75 140 -75 155 -1 20 -87 124 -140 170 -54 46 -144 105 -250 164 -107 60 -161 80 -295 111 -50 12 -110 27 -135 35 -62 18 -169 26 -203 13z" fill="url(#linear-gradient-1-3)" id="region-1-3" transform="translate(0.000000,400.000000) scale(0.100000,-0.100000)"/></g><g id="layer-2"><path d="M665 3489 c-137 -5 -262 -14 -277 -20 -14 -6 -36 -21 -47 -33 l-21 -23 302 -9 c391 -11 1500 -12 1826 0 210 7 250 11 241 22 -20 25 -82 34 -319 48 -291 18 -1362 27 -1705 15z" fill="url(#linear-gradient-2-1)" id="region-2-1" transform="translate(0.000000,400.000000) scale(0.100000,-0.100000)"/><path d="M641 2897 c1 -284 6 -542 10 -574 5 -32 13 -132 19 -223 6 -91 13 -192 16 -225 2 -33 9 -100 15 -150 6 -49 12 -110 14 -135 2 -25 6 -52 9 -60 3 -8 7 -40 10 -70 2 -30 7 -73 10 -95 4 -22 8 -56 10 -75 2 -19 6 -42 9 -50 3 -8 19 -89 36 -180 17 -91 43 -217 56 -280 14 -63 28 -127 30 -143 3 -15 15 -52 26 -82 11 -30 21 -58 22 -62 1 -9 7 -17 39 -54 20 -23 36 -28 115 -38 93 -11 167 -7 191 12 8 6 11 31 10 73 -3 54 0 66 21 88 14 14 35 26 49 26 l24 0 -6 113 c-3 61 -10 202 -16 312 -18 338 -29 1021 -20 1230 3 72 3 132 0 135 -6 5 -5 115 4 646 l6 351 -293 6 c-160 4 -320 10 -355 14 l-63 6 2 -516z" fill="url(#linear-gradient-2-2)" id="region-2-2" transform="translate(0.000000,400.000000) scale(0.100000,-0.100000)"/><path d="M2599 2614 c-2 -48 1 -58 27 -80 21 -17 23 -24 15 -50 -5 -16 -12 -76 -15 -134 -9 -177 -68 -595 -127 -894 -18 -91 -18 -101 -4 -123 33 -50 39 -33 99 287 40 214 96 704 96 845 0 30 6 60 16 73 8 12 19 36 24 52 10 33 7 35 -73 45 l-57 7 -1 -28z" fill="url(#linear-gradient-2-3)" id="region-2-3" transform="translate(0.000000,400.000000) scale(0.100000,-0.100000)"/><path d="M3222 2608 c3 -7 18 -19 34 -27 16 -8 33 -20 37 -28 4 -7 13 -13 20 -13 7 0 29 -16 50 -35 21 -19 42 -35 48 -35 5 0 8 -4 7 -8 -2 -4 11 -21 27 -38 17 -17 36 -39 43 -50 7 -10 27 -42 45 -70 55 -83 77 -138 99 -241 24 -119 20 -212 -16 -305 -28 -76 -84 -178 -97 -178 -5 0 -9 -6 -9 -14 0 -7 -11 -21 -25 -30 -14 -9 -25 -22 -25 -29 0 -15 -81 -97 -96 -97 -6 0 -20 -14 -33 -30 -12 -17 -26 -28 -30 -25 -5 3 -12 -2 -15 -11 -3 -8 -10 -13 -15 -10 -5 3 -12 -1 -15 -9 -3 -8 -9 -14 -13 -13 -9 2 -60 -24 -118 -60 -22 -14 -47 -27 -55 -28 -16 -2 -103 -30 -135 -44 -11 -4 -45 -19 -75 -32 -30 -14 -76 -31 -102 -38 -51 -15 -56 -21 -34 -39 42 -35 390 103 573 227 136 92 243 213 314 355 62 122 73 178 66 344 l-6 141 -50 101 c-49 99 -88 163 -103 169 -5 2 -8 9 -8 15 0 23 -137 139 -197 168 -66 31 -97 37 -91 17z" fill="url(#linear-gradient-2-4)" id="region-2-4" transform="translate(0.000000,400.000000) scale(0.100000,-0.100000)"/><path d="M3055 1323 c-126 -44 -226 -65 -339 -68 -98 -4 -114 -2 -144 17 -18 11 -34 19 -36 17 -49 -66 -57 -93 -30 -103 72 -28 414 43 582 119 110 51 91 61 -33 18z" fill="url(#linear-gradient-2-5)" id="region-2-5" transform="translate(0.000000,400.000000) scale(0.100000,-0.100000)"/></g><g id="layer-3"><path d="M1642 3453 c9 -10 18 -27 20 -38 3 -19 11 -20 285 -20 155 0 284 3 287 6 15 14 -9 39 -52 53 -37 13 -95 16 -300 16 -242 0 -254 -1 -240 -17z" fill="url(#linear-gradient-3-1)" id="region-3-1" transform="translate(0.000000,400.000000) scale(0.100000,-0.100000)"/></g></svg>