<?xml version="1.0" standalone="no"?>
<!DOCTYPE svg PUBLIC "-//W3C//DTD SVG 20010904//EN"
 "http://www.w3.org/TR/2001/REC-SVG-20010904/DTD/svg10.dtd">
<svg version="1.0" xmlns="http://www.w3.org/2000/svg"
 width="400.000000pt" height="400.000000pt" viewBox="0 0 400.000000 400.000000"
 preserveAspectRatio="xMidYMid meet">
<defs>
<linearGradient id="grad_0" x1="0%" y1="0%" x2="115%" y2="24%">
<stop offset="0%" style="stop-color:rgb(254, 251, 250); stop-opacity:1"/>
<stop offset="100%" style="stop-color:rgb(254, 254, 254); stop-opacity:1"/>
</linearGradient>
<linearGradient id="grad_1" x1="3%" y1="79%" x2="7%" y2="-404%">
<stop offset="0%" style="stop-color:rgb(136, 41, 29); stop-opacity:1"/>
<stop offset="100%" style="stop-color:rgb(215, 88, 100); stop-opacity:1"/>
</linearGradient>
<linearGradient id="grad_2" x1="0%" y1="2%" x2="110%" y2="15%">
<stop offset="0%" style="stop-color:rgb(195, 49, 26); stop-opacity:1"/>
<stop offset="100%" style="stop-color:rgb(217, 76, 54); stop-opacity:1"/>
</linearGradient>
<linearGradient id="grad_3" x1="53%" y1="100%" x2="120%" y2="85%">
<stop offset="0%" style="stop-color:rgb(237, 120, 107); stop-opacity:1"/>
<stop offset="100%" style="stop-color:rgb(244, 173, 171); stop-opacity:1"/>
</linearGradient>
<linearGradient id="grad_4" x1="0%" y1="100%" x2="100%" y2="100%">
<stop offset="0%" style="stop-color:rgb(224, 143, 137); stop-opacity:1"/>
<stop offset="100%" style="stop-color:rgb(224, 143, 137); stop-opacity:1"/>
</linearGradient>
<linearGradient id="grad_5" x1="43%" y1="96%" x2="97%" y2="94%">
<stop offset="0%" style="stop-color:rgb(56, 0, 0); stop-opacity:1"/>
<stop offset="100%" style="stop-color:rgb(193, 143, 136); stop-opacity:1"/>
</linearGradient>
<linearGradient id="grad_6" x1="6%" y1="62%" x2="19%" y2="-59%">
<stop offset="0%" style="stop-color:rgb(117, 45, 36); stop-opacity:1"/>
<stop offset="100%" style="stop-color:rgb(255, 184, 183); stop-opacity:1"/>
</linearGradient>
<linearGradient id="grad_7" x1="99%" y1="51%" x2="-3%" y2="65%">
<stop offset="0%" style="stop-color:rgb(0, 0, 0); stop-opacity:1"/>
<stop offset="100%" style="stop-color:rgb(255, 110, 70); stop-opacity:1"/>
</linearGradient>
<linearGradient id="grad_8" x1="0%" y1="95%" x2="100%" y2="95%">
<stop offset="0%" style="stop-color:rgb(255, 219, 200); stop-opacity:0.454681"/>
<stop offset="100%" style="stop-color:rgb(255, 219, 200); stop-opacity:0.454681"/>
</linearGradient>
<linearGradient id="grad_9" x1="18%" y1="99%" x2="111%" y2="54%">
<stop offset="0%" style="stop-color:rgb(255, 255, 255); stop-opacity:0.985488"/>
<stop offset="100%" style="stop-color:rgb(255, 255, 255); stop-opacity:0.995055"/>
</linearGradient>
<linearGradient id="grad_10" x1="100%" y1="6%" x2="-79%" y2="17%">
<stop offset="0%" style="stop-color:rgb(255, 255, 255); stop-opacity:0.393094"/>
<stop offset="100%" style="stop-color:rgb(255, 255, 255); stop-opacity:0.649442"/>
</linearGradient>
</defs>
<g transform="translate(0.000000,400.000000) scale(0.100000,-0.100000)"
fill="url(#grad_0)" stroke="none">
<g>
<path d="M0 2000 l0 -2000 2000 0 2000 0 0 2000 0 2000 -2000 0 -2000 0 0
-2000z"/>
</g>
</g>
<g transform="translate(0.000000,400.000000) scale(0.100000,-0.100000)"
fill="url(#grad_1)" stroke="none">
<g>
<path d="M670 3489 c-135 -5 -255 -11 -267 -14 -12 -3 -36 -17 -54 -32 l-33
-28 220 -7 c120 -3 425 -9 676 -13 l457 -8 -6 24 c-3 13 -13 32 -21 42 -14 16
-2 17 240 17 277 0 340 -9 354 -52 6 -20 11 -21 148 -15 77 4 181 7 230 7 77
0 87 2 76 15 -21 26 -79 35 -320 49 -289 18 -1360 27 -1700 15z"/>
</g>
</g>
<g transform="translate(0.000000,400.000000) scale(0.100000,-0.100000)"
fill="url(#grad_2)" stroke="none">
<g>
<path d="M2577 2888 c-17 -6 -29 -19 -33 -36 -3 -15 -8 -35 -11 -44 -10 -37 9
-105 37 -135 23 -24 40 -32 86 -38 81 -10 84 -11 74 -45 -5 -16 -16 -40 -24
-52 -10 -13 -16 -43 -16 -73 0 -64 -34 -429 -55 -590 -17 -134 -80 -480 -101
-557 -4 -11 7 -25 33 -42 36 -24 44 -25 148 -21 119 4 192 18 336 65 51 17 97
29 103 26 18 -7 -133 -72 -234 -101 -52 -15 -144 -36 -205 -47 -60 -10 -114
-23 -120 -29 -5 -5 -49 -9 -98 -9 -120 0 -147 -14 -187 -93 -32 -63 -38 -118
-19 -161 10 -21 19 -25 71 -28 32 -2 62 0 66 4 4 4 37 14 72 22 64 15 98 25
290 87 206 68 437 181 572 281 87 64 228 214 235 250 3 15 12 33 19 39 8 6 14
16 14 21 0 6 8 22 18 36 10 15 31 63 47 107 25 69 29 97 32 212 4 113 1 144
-18 210 -11 43 -27 85 -34 93 -15 17 -75 140 -75 155 -1 20 -87 124 -140 170
-54 46 -144 105 -250 164 -107 60 -161 80 -295 111 -50 12 -110 27 -135 35
-62 18 -169 26 -203 13z"/>
</g>
</g>
<g transform="translate(0.000000,400.000000) scale(0.100000,-0.100000)"
fill="url(#grad_3)" stroke="none">
<g>
<path d="M3222 2608 c3 -7 18 -19 34 -27 16 -8 33 -20 37 -28 4 -7 13 -13 20
-13 7 0 29 -16 50 -35 21 -19 42 -35 48 -35 5 0 8 -4 7 -8 -2 -4 11 -21 27
-38 17 -17 36 -39 43 -50 7 -10 27 -42 45 -70 55 -83 77 -138 99 -241 24 -119
20 -212 -16 -305 -28 -76 -84 -178 -97 -178 -5 0 -9 -6 -9 -14 0 -7 -11 -21
-25 -30 -14 -9 -25 -22 -25 -29 0 -15 -81 -97 -96 -97 -6 0 -20 -14 -33 -30
-12 -17 -26 -28 -30 -25 -5 3 -12 -2 -15 -11 -3 -8 -10 -13 -15 -10 -5 3 -12
-1 -15 -9 -3 -8 -9 -14 -13 -13 -9 2 -60 -24 -118 -60 -22 -14 -47 -27 -55
-28 -16 -2 -103 -30 -135 -44 -11 -4 -45 -19 -75 -32 -30 -14 -76 -31 -102
-38 -51 -15 -56 -21 -34 -39 42 -35 390 103 573 227 136 92 243 213 314 355
62 122 73 178 66 344 l-6 141 -50 101 c-49 99 -88 163 -103 169 -5 2 -8 9 -8
15 0 23 -137 139 -197 168 -66 31 -97 37 -91 17z"/>
</g>
</g>
<g transform="translate(0.000000,400.000000) scale(0.100000,-0.100000)"
fill="url(#grad_4)" stroke="none">
<g>
<path d="M1642 3453 c9 -10 18 -27 20 -38 3 -19 11 -20 285 -20 155 0 284 3
287 6 15 14 -9 39 -52 53 -37 13 -95 16 -300 16 -242 0 -254 -1 -240 -17z"/>
</g>
</g>
<g transform="translate(0.000000,400.000000) scale(0.100000,-0.100000)"
fill="url(#grad_5)" stroke="none">
<g>
<path d="M2599 2614 c-2 -48 1 -58 27 -80 21 -17 23 -24 15 -50 -5 -16 -12
-76 -15 -134 -9 -177 -68 -595 -127 -894 -18 -91 -18 -101 -4 -123 33 -50 39
-33 99 287 40 214 96 704 96 845 0 30 6 60 16 73 8 12 19 36 24 52 10 33 7 35
-73 45 l-57 7 -1 -28z"/>
</g>
</g>
<g transform="translate(0.000000,400.000000) scale(0.100000,-0.100000)"
fill="url(#grad_6)" stroke="none">
<g>
<path d="M3055 1323 c-126 -44 -226 -65 -339 -68 -98 -4 -114 -2 -144 17 -18
11 -34 19 -36 17 -49 -66 -57 -93 -30 -103 72 -28 414 43 582 119 110 51 91
61 -33 18z"/>
</g>
</g>
<g transform="translate(0.000000,400.000000) scale(0.100000,-0.100000)"
fill="url(#grad_7)" stroke="none">
<g>
<path d="M320 3409 c-1 -2 -3 -144 -6 -315 -6 -324 6 -703 32 -974 8 -85 19
-220 24 -299 19 -271 100 -713 177 -961 74 -239 133 -405 149 -417 36 -26 184
-76 279 -93 288 -53 789 -58 1000 -10 28 6 63 13 80 15 16 2 31 9 33 15 2 5
19 10 38 10 91 0 204 101 204 182 0 11 5 29 12 41 6 12 13 40 16 61 2 22 14
74 28 115 13 42 24 82 24 89 0 8 -17 12 -53 12 -48 0 -55 3 -65 25 -20 44 -14
98 18 162 40 80 67 93 188 93 50 0 94 5 97 10 4 6 -10 10 -34 10 -77 0 -87 17
-47 77 l25 36 -30 28 c-16 15 -29 29 -29 32 0 3 9 50 19 104 59 299 118 716
127 893 3 58 10 118 15 134 8 26 6 33 -18 51 -22 18 -26 29 -25 64 2 34 -4 48
-27 73 -41 44 -48 101 -25 190 8 27 61 39 139 29 69 -9 283 -60 360 -86 114
-39 316 -156 415 -240 53 -46 139 -150 140 -170 0 -15 60 -138 75 -155 7 -8
23 -50 34 -93 19 -66 22 -97 18 -210 -3 -115 -7 -143 -32 -212 -16 -44 -37
-92 -47 -107 -10 -14 -18 -30 -18 -36 0 -5 -7 -15 -15 -22 -21 -17 -19 -50 3
-50 19 0 47 38 90 125 69 138 91 232 94 405 3 137 -15 207 -93 363 -60 121
-94 163 -171 219 -33 24 -66 48 -72 53 -6 6 -75 42 -151 81 -132 67 -211 99
-350 138 -33 10 -78 26 -100 35 -22 10 -56 22 -75 26 -19 4 -47 14 -62 21
l-28 14 -2 208 -3 207 -250 -5 c-402 -8 -1494 -5 -1822 4 -167 5 -303 7 -303
5z"/>
</g>
</g>
<g transform="translate(0.000000,400.000000) scale(0.100000,-0.100000)"
fill="url(#grad_8)" stroke="none">
<g>
<path d="M2667 2970 c-17 -19 -23 -37 -20 -53 4 -22 11 -26 56 -30 51 -4 264
-55 342 -82 114 -39 316 -156 415 -240 53 -46 139 -150 140 -170 0 -15 60
-138 75 -155 7 -8 23 -50 34 -93 19 -66 22 -97 18 -210 -3 -115 -7 -143 -32
-212 -16 -44 -37 -92 -47 -107 -10 -14 -18 -30 -18 -36 0 -5 -7 -15 -15 -22
-21 -17 -19 -50 3 -50 19 0 47 38 90 125 69 138 91 232 94 405 3 137 -15 207
-93 363 -60 121 -94 163 -171 219 -33 24 -66 48 -72 53 -6 6 -75 42 -151 81
-132 67 -211 99 -350 138 -33 10 -78 26 -100 35 -22 10 -56 22 -75 26 -19 4
-49 15 -67 25 l-32 19 -24 -29z"/>
</g>
</g>
<g transform="translate(0.000000,400.000000) scale(0.100000,-0.100000)"
fill="url(#grad_9)" stroke="none">
<g>
<path d="M2743 2614 c-7 -3 -13 -13 -13 -22 0 -9 -9 -30 -20 -47 -13 -20 -20
-47 -20 -81 0 -63 -34 -429 -55 -589 -17 -134 -80 -480 -101 -557 -4 -11 7
-25 33 -42 36 -24 44 -25 148 -21 119 4 192 18 335 65 51 17 99 30 107 30 31
0 160 96 248 184 132 132 176 227 191 410 8 100 -13 183 -79 311 -85 163 -227
268 -447 330 -92 25 -296 44 -327 29z"/>
</g>
</g>
<g transform="translate(0.000000,400.000000) scale(0.100000,-0.100000)"
fill="url(#grad_10)" stroke="none">
<g>
<path d="M641 2897 c1 -284 6 -542 10 -574 5 -32 13 -132 19 -223 6 -91 13
-192 16 -225 2 -33 9 -100 15 -150 6 -49 12 -110 14 -135 2 -25 6 -52 9 -60 3
-8 7 -40 10 -70 2 -30 7 -73 10 -95 4 -22 8 -56 10 -75 2 -19 6 -42 9 -50 3
-8 19 -89 36 -180 17 -91 43 -217 56 -280 14 -63 28 -127 30 -143 3 -15 15
-52 26 -82 11 -30 21 -58 22 -62 1 -9 7 -17 39 -54 20 -23 36 -28 115 -38 93
-11 167 -7 191 12 8 6 11 31 10 73 -3 54 0 66 21 88 14 14 35 26 49 26 l24 0
-6 113 c-3 61 -10 202 -16 312 -18 338 -29 1021 -20 1230 3 72 3 132 0 135 -6
5 -5 115 4 646 l6 351 -293 6 c-160 4 -320 10 -355 14 l-63 6 2 -516z"/>
</g>
</g>
</svg>
