<?xml version="1.0" standalone="no"?>
<!DOCTYPE svg PUBLIC "-//W3C//DTD SVG 20010904//EN"
 "http://www.w3.org/TR/2001/REC-SVG-20010904/DTD/svg10.dtd">
<svg version="1.0" xmlns="http://www.w3.org/2000/svg"
 width="527.000000pt" height="624.000000pt" viewBox="0 0 527.000000 624.000000"
 preserveAspectRatio="xMidYMid meet">
<defs>
<linearGradient id="grad_0" x1="0%" y1="100%" x2="100%" y2="100%">
<stop offset="0%" style="stop-color:rgb(254, 254, 254); stop-opacity:1"/>
<stop offset="100%" style="stop-color:rgb(254, 254, 254); stop-opacity:1"/>
</linearGradient>
<linearGradient id="grad_1" x1="95%" y1="3%" x2="70%" y2="108%">
<stop offset="0%" style="stop-color:rgb(115, 71, 213); stop-opacity:1"/>
<stop offset="100%" style="stop-color:rgb(141, 107, 252); stop-opacity:1"/>
</linearGradient>
<linearGradient id="grad_2" x1="22%" y1="9%" x2="102%" y2="70%">
<stop offset="0%" style="stop-color:rgb(80, 61, 132); stop-opacity:1"/>
<stop offset="100%" style="stop-color:rgb(156, 138, 144); stop-opacity:1"/>
</linearGradient>
<linearGradient id="grad_3" x1="75%" y1="3%" x2="8%" y2="89%">
<stop offset="0%" style="stop-color:rgb(86, 85, 132); stop-opacity:1"/>
<stop offset="100%" style="stop-color:rgb(186, 198, 219); stop-opacity:1"/>
</linearGradient>
<linearGradient id="grad_4" x1="0%" y1="81%" x2="100%" y2="81%">
<stop offset="0%" style="stop-color:rgb(210, 247, 18); stop-opacity:1"/>
<stop offset="100%" style="stop-color:rgb(210, 247, 18); stop-opacity:1"/>
</linearGradient>
<linearGradient id="grad_5" x1="40%" y1="100%" x2="40%" y2="0%">
<stop offset="0%" style="stop-color:rgb(255, 173, 5); stop-opacity:1"/>
<stop offset="100%" style="stop-color:rgb(9, 126, 255); stop-opacity:1"/>
</linearGradient>
<linearGradient id="grad_6" x1="0%" y1="64%" x2="100%" y2="64%">
<stop offset="0%" style="stop-color:rgb(35, 5, 64); stop-opacity:1"/>
<stop offset="100%" style="stop-color:rgb(35, 5, 64); stop-opacity:1"/>
</linearGradient>
<linearGradient id="grad_7" x1="3%" y1="100%" x2="-30%" y2="58%">
<stop offset="0%" style="stop-color:rgb(121, 99, 124); stop-opacity:1"/>
<stop offset="100%" style="stop-color:rgb(133, 119, 196); stop-opacity:1"/>
</linearGradient>
<linearGradient id="grad_8" x1="0%" y1="46%" x2="55%" y2="109%">
<stop offset="0%" style="stop-color:rgb(115, 95, 136); stop-opacity:1"/>
<stop offset="100%" style="stop-color:rgb(217, 213, 224); stop-opacity:1"/>
</linearGradient>
<linearGradient id="grad_9" x1="0%" y1="92%" x2="100%" y2="92%">
<stop offset="0%" style="stop-color:rgb(255, 255, 255); stop-opacity:1"/>
<stop offset="100%" style="stop-color:rgb(255, 255, 255); stop-opacity:1"/>
</linearGradient>
<linearGradient id="grad_10" x1="0%" y1="94%" x2="100%" y2="94%">
<stop offset="0%" style="stop-color:rgb(160, 143, 176); stop-opacity:1"/>
<stop offset="100%" style="stop-color:rgb(160, 143, 176); stop-opacity:1"/>
</linearGradient>
<linearGradient id="grad_11" x1="43%" y1="100%" x2="43%" y2="0%">
<stop offset="0%" style="stop-color:rgb(163, 6, 129); stop-opacity:1"/>
<stop offset="100%" style="stop-color:rgb(74, 31, 158); stop-opacity:1"/>
</linearGradient>
<linearGradient id="grad_12" x1="0%" y1="95%" x2="142%" y2="82%">
<stop offset="0%" style="stop-color:rgb(26, 5, 32); stop-opacity:1"/>
<stop offset="100%" style="stop-color:rgb(95, 14, 94); stop-opacity:1"/>
</linearGradient>
<linearGradient id="grad_13" x1="90%" y1="100%" x2="65%" y2="0%">
<stop offset="0%" style="stop-color:rgb(49, 11, 64); stop-opacity:1"/>
<stop offset="100%" style="stop-color:rgb(60, 8, 103); stop-opacity:1"/>
</linearGradient>
<linearGradient id="grad_14" x1="0%" y1="0%" x2="7%" y2="103%">
<stop offset="0%" style="stop-color:rgb(57, 8, 94); stop-opacity:1"/>
<stop offset="100%" style="stop-color:rgb(68, 28, 153); stop-opacity:1"/>
</linearGradient>
<linearGradient id="grad_15" x1="3%" y1="100%" x2="3%" y2="0%">
<stop offset="0%" style="stop-color:rgb(60, 12, 91); stop-opacity:1"/>
<stop offset="100%" style="stop-color:rgb(63, 31, 125); stop-opacity:1"/>
</linearGradient>
<linearGradient id="grad_16" x1="0%" y1="100%" x2="100%" y2="100%">
<stop offset="0%" style="stop-color:rgb(103, 53, 168); stop-opacity:1"/>
<stop offset="100%" style="stop-color:rgb(103, 53, 168); stop-opacity:1"/>
</linearGradient>
<linearGradient id="grad_17" x1="50%" y1="100%" x2="49%" y2="0%">
<stop offset="0%" style="stop-color:rgb(48, 3, 59); stop-opacity:1"/>
<stop offset="100%" style="stop-color:rgb(50, 12, 80); stop-opacity:1"/>
</linearGradient>
<linearGradient id="grad_18" x1="0%" y1="0%" x2="13%" y2="104%">
<stop offset="0%" style="stop-color:rgb(57, 7, 85); stop-opacity:1"/>
<stop offset="100%" style="stop-color:rgb(69, 30, 158); stop-opacity:1"/>
</linearGradient>
<linearGradient id="grad_19" x1="40%" y1="100%" x2="42%" y2="0%">
<stop offset="0%" style="stop-color:rgb(93, 72, 115); stop-opacity:1"/>
<stop offset="100%" style="stop-color:rgb(224, 220, 230); stop-opacity:1"/>
</linearGradient>
<linearGradient id="grad_20" x1="0%" y1="100%" x2="100%" y2="100%">
<stop offset="0%" style="stop-color:rgb(102, 52, 168); stop-opacity:1"/>
<stop offset="100%" style="stop-color:rgb(102, 52, 168); stop-opacity:1"/>
</linearGradient>
<linearGradient id="grad_21" x1="67%" y1="97%" x2="27%" y2="6%">
<stop offset="0%" style="stop-color:rgb(78, 0, 32); stop-opacity:1"/>
<stop offset="100%" style="stop-color:rgb(160, 70, 182); stop-opacity:1"/>
</linearGradient>
<linearGradient id="grad_22" x1="4%" y1="0%" x2="25%" y2="102%">
<stop offset="0%" style="stop-color:rgb(54, 7, 84); stop-opacity:1"/>
<stop offset="100%" style="stop-color:rgb(70, 32, 151); stop-opacity:1"/>
</linearGradient>
<linearGradient id="grad_23" x1="0%" y1="100%" x2="100%" y2="100%">
<stop offset="0%" style="stop-color:rgb(103, 54, 170); stop-opacity:1"/>
<stop offset="100%" style="stop-color:rgb(103, 54, 170); stop-opacity:1"/>
</linearGradient>
<linearGradient id="grad_24" x1="62%" y1="0%" x2="62%" y2="100%">
<stop offset="0%" style="stop-color:rgb(201, 248, 1); stop-opacity:1"/>
<stop offset="100%" style="stop-color:rgb(251, 155, 49); stop-opacity:1"/>
</linearGradient>
<linearGradient id="grad_25" x1="0%" y1="100%" x2="100%" y2="100%">
<stop offset="0%" style="stop-color:rgb(166, 142, 255); stop-opacity:1"/>
<stop offset="100%" style="stop-color:rgb(166, 142, 255); stop-opacity:1"/>
</linearGradient>
<linearGradient id="grad_26" x1="0%" y1="100%" x2="100%" y2="100%">
<stop offset="0%" style="stop-color:rgb(0, 0, 0); stop-opacity:0.233726"/>
<stop offset="100%" style="stop-color:rgb(0, 0, 0); stop-opacity:0.233726"/>
</linearGradient>
<linearGradient id="grad_27" x1="100%" y1="53%" x2="0%" y2="47%">
<stop offset="0%" style="stop-color:rgb(255, 255, 255); stop-opacity:0.142498"/>
<stop offset="100%" style="stop-color:rgb(255, 255, 255); stop-opacity:0.315912"/>
</linearGradient>
<linearGradient id="grad_28" x1="40%" y1="1%" x2="88%" y2="87%">
<stop offset="0%" style="stop-color:rgb(255, 0, 0); stop-opacity:-0.0153986"/>
<stop offset="100%" style="stop-color:rgb(255, 0, 0); stop-opacity:0.759105"/>
</linearGradient>
</defs>
<g transform="translate(0.000000,624.000000) scale(0.100000,-0.100000)"
fill="url(#grad_0)" stroke="none">
<g>
<path d="M0 3120 l0 -3120 2635 0 2635 0 0 3120 0 3120 -2635 0 -2635 0 0
-3120z"/>
</g>
</g>
<g transform="translate(0.000000,624.000000) scale(0.100000,-0.100000)"
fill="url(#grad_1)" stroke="none">
<g>
<path d="M1210 5999 c-536 -125 -1026 -240 -1088 -255 l-112 -26 0 -57 c0 -52
263 -3273 274 -3351 2 -19 2 35 0 120 -8 283 -85 1326 -189 2574 -31 362 -53
661 -50 664 8 9 2179 483 2190 478 15 -5 56 -347 100 -821 19 -203 58 -590 87
-860 l52 -490 1 -1265 c0 -696 -2 -1164 -5 -1040 -6 225 -6 224 -8 -115 -1
-187 -7 -596 -13 -908 -6 -313 -10 -569 -8 -571 2 -1 60 1 129 5 69 4 382 10
695 14 581 6 795 15 1035 40 189 21 424 61 560 97 63 17 122 31 131 31 12 1
18 14 22 47 3 25 22 162 41 305 91 673 160 1444 196 2180 13 273 13 1715 0
1960 -20 372 -75 981 -89 997 -10 12 -2869 478 -2925 477 -29 0 -471 -99
-1026 -230z"/>
</g>
</g>
<g transform="translate(0.000000,624.000000) scale(0.100000,-0.100000)"
fill="url(#grad_2)" stroke="none">
<g>
<path d="M3697 5730 c-179 -32 -350 -126 -494 -269 -197 -197 -353 -501 -427
-834 -52 -228 -60 -312 -60 -607 1 -229 4 -299 22 -417 60 -402 167 -710 347
-998 162 -260 258 -365 425 -463 114 -68 181 -96 309 -129 119 -31 288 -36
393 -10 297 73 553 313 733 689 130 273 200 565 221 926 6 109 5 122 -9 116
-13 -5 -28 33 -82 202 -37 114 -88 264 -115 333 -55 146 -161 384 -167 377 -3
-2 11 -45 31 -94 152 -386 183 -879 80 -1287 -67 -262 -183 -478 -343 -635
-150 -147 -272 -202 -456 -204 -101 -1 -115 1 -169 27 -32 15 -57 30 -55 31 2
2 75 9 162 15 153 11 161 12 227 47 207 108 388 379 469 702 52 202 66 496 36
725 -75 570 -368 1004 -743 1102 -76 19 -239 19 -312 0 -297 -78 -536 -407
-610 -840 -11 -64 -21 -136 -21 -158 -1 -23 -3 -34 -6 -23 -7 28 15 237 38
351 25 127 81 294 114 343 14 20 25 43 25 51 0 8 14 39 31 70 128 227 327 383
536 422 32 6 105 9 163 6 188 -8 343 -77 501 -223 l84 -78 -75 78 c-122 127
-253 208 -410 257 -110 34 -246 32 -355 -5 -113 -39 -216 -106 -321 -211 -104
-103 -175 -195 -267 -345 -52 -85 -69 -106 -90 -108 -23 -3 -27 1 -33 34 -18
98 26 315 100 490 116 274 302 457 522 511 91 22 281 21 389 -2 158 -33 327
-115 461 -223 85 -68 95 -61 12 8 -137 115 -281 193 -425 231 -87 24 -304 34
-386 19z m-719 -2023 c27 -29 58 -100 115 -264 88 -252 156 -399 254 -548 68
-103 226 -279 281 -313 20 -13 141 -75 268 -137 126 -63 249 -131 271 -150 49
-41 77 -105 68 -152 -8 -44 -60 -102 -112 -125 -36 -16 -52 -17 -140 -8 -319
33 -471 106 -689 332 -115 119 -171 215 -228 389 -131 399 -201 999 -117 999
4 0 17 -10 29 -23z"/>
</g>
</g>
<g transform="translate(0.000000,624.000000) scale(0.100000,-0.100000)"
fill="url(#grad_3)" stroke="none">
<g>
<path d="M3664 4051 c-70 -43 -99 -115 -98 -246 0 -126 24 -194 88 -253 74
-68 157 -66 216 6 44 53 60 118 60 241 0 90 -4 113 -24 156 -27 58 -46 76
-104 98 -56 22 -100 21 -138 -2z m59 -422 c40 -40 57 -65 57 -83 0 -22 -4 -26
-30 -26 -17 0 -45 7 -61 16 -52 27 -115 150 -94 184 9 14 54 -18 128 -91z"/>
</g>
</g>
<g transform="translate(0.000000,624.000000) scale(0.100000,-0.100000)"
fill="url(#grad_4)" stroke="none">
<g>
<path d="M3703 4053 c-13 -3 -32 -16 -44 -31 -53 -68 32 -242 138 -283 74 -28
113 3 121 95 4 56 -20 129 -56 169 -29 33 -111 58 -159 50z"/>
</g>
</g>
<g transform="translate(0.000000,624.000000) scale(0.100000,-0.100000)"
fill="url(#grad_5)" stroke="none">
<g>
<path d="M3670 1481 c-93 -30 -188 -117 -233 -213 -79 -168 -76 -413 9 -580
35 -70 121 -153 192 -186 82 -38 184 -38 263 1 151 74 249 261 249 477 -1 292
-156 500 -380 507 -41 1 -86 -1 -100 -6z"/>
</g>
</g>
<g transform="translate(0.000000,624.000000) scale(0.100000,-0.100000)"
fill="url(#grad_6)" stroke="none">
<g>
<path d="M3664 1341 c-59 -27 -112 -84 -148 -160 -30 -63 -31 -72 -31 -191 0
-107 4 -133 23 -182 46 -114 162 -208 259 -208 226 0 362 347 234 597 -69 137
-215 199 -337 144z"/>
</g>
</g>
<g transform="translate(0.000000,624.000000) scale(0.100000,-0.100000)"
fill="url(#grad_7)" stroke="none">
<g>
<path d="M2932 3717 c-59 -70 17 -631 134 -986 57 -174 113 -270 228 -389 218
-226 370 -299 689 -332 88 -9 104 -8 140 8 52 23 104 81 112 125 9 47 -19 111
-68 152 -22 19 -145 87 -271 150 -127 62 -248 124 -268 137 -55 34 -213 210
-281 313 -98 149 -166 296 -254 548 -57 164 -88 235 -115 264 -25 26 -32 28
-46 10z"/>
</g>
</g>
<g transform="translate(0.000000,624.000000) scale(0.100000,-0.100000)"
fill="url(#grad_8)" stroke="none">
<g>
<path d="M3740 5713 c-271 -31 -483 -213 -616 -527 -74 -175 -118 -392 -100
-490 6 -33 10 -37 33 -34 21 2 38 23 90 108 92 150 163 242 267 345 105 105
208 172 321 211 109 37 245 39 355 5 150 -46 264 -115 383 -230 232 -224 410
-569 602 -1165 43 -135 70 -206 78 -203 16 5 11 214 -9 372 -40 320 -123 601
-253 860 -124 245 -250 402 -430 534 -216 159 -490 240 -721 214z"/>
</g>
</g>
<g transform="translate(0.000000,624.000000) scale(0.100000,-0.100000)"
fill="url(#grad_9)" stroke="none">
<g>
<path d="M4390 5425 c-29 -35 35 -168 105 -217 140 -97 183 24 58 163 -59 65
-133 90 -163 54z"/>
</g>
</g>
<g transform="translate(0.000000,624.000000) scale(0.100000,-0.100000)"
fill="url(#grad_10)" stroke="none">
<g>
<path d="M3595 3720 c-21 -34 42 -157 94 -184 16 -9 44 -16 61 -16 26 0 30 4
30 26 0 41 -169 200 -185 174z"/>
</g>
</g>
<g transform="translate(0.000000,624.000000) scale(0.100000,-0.100000)"
fill="url(#grad_11)" stroke="none">
<g>
<path d="M1127 5911 c-592 -131 -1080 -240 -1082 -243 -3 -3 19 -302 50 -664
112 -1341 183 -2323 191 -2624 2 -107 11 -328 19 -490 29 -582 55 -1277 55
-1459 l0 -116 993 -153 992 -153 1311 0 1311 1 18 125 c10 69 16 127 14 130
-3 2 -32 -4 -66 -15 -86 -27 -274 -65 -438 -89 -293 -44 -423 -51 -1100 -62
-363 -5 -725 -13 -805 -17 -80 -5 -147 -7 -149 -6 -2 2 2 258 8 571 28 1452
-2 2949 -84 4163 -14 203 -119 1263 -131 1318 -2 12 -10 22 -17 21 -6 0 -497
-108 -1090 -238z"/>
</g>
</g>
<g transform="translate(0.000000,624.000000) scale(0.100000,-0.100000)"
fill="url(#grad_12)" stroke="none">
<g>
<path d="M1135 5043 c-275 -42 -502 -77 -504 -79 -1 -1 31 -276 73 -611 145
-1156 246 -2158 246 -2429 l0 -64 417 0 416 0 -6 703 c-8 862 -28 1488 -63
2002 -8 121 -18 295 -21 388 l-6 167 -26 -1 c-14 -1 -251 -35 -526 -76z"/>
</g>
</g>
<g transform="translate(0.000000,624.000000) scale(0.100000,-0.100000)"
fill="url(#grad_13)" stroke="none">
<g>
<path d="M1238 4896 c-224 -34 -410 -65 -413 -67 -2 -3 11 -142 30 -310 18
-167 38 -344 43 -394 5 -49 21 -196 36 -325 56 -500 127 -1351 142 -1711 l7
-157 76 -13 c42 -8 139 -14 216 -13 117 0 160 5 260 28 66 15 124 31 129 34
11 6 1 1142 -14 1582 -14 425 -29 753 -45 1010 -26 402 -26 400 -44 399 -9 -1
-199 -29 -423 -63z m272 -286 c0 -5 8 -10 18 -10 38 -1 102 -86 139 -185 32
-85 40 -236 19 -335 -18 -86 -77 -215 -136 -299 l-41 -58 -67 -7 c-37 -3 -117
-6 -178 -6 -98 0 -116 3 -162 26 -81 40 -146 139 -179 271 -25 103 -23 280 4
368 38 122 125 216 212 231 20 3 41 7 46 9 26 9 325 4 325 -5z"/>
</g>
</g>
<g transform="translate(0.000000,624.000000) scale(0.100000,-0.100000)"
fill="url(#grad_14)" stroke="none">
<g>
<path d="M1300 3360 c8 -5 69 -10 134 -10 l119 0 39 -40 c40 -43 50 -83 22
-94 -28 -11 -107 -6 -164 9 -30 8 -55 15 -55 15 0 0 1 -39 3 -87 3 -76 0 -94
-20 -133 -13 -25 -38 -55 -57 -67 l-34 -23 135 0 c153 0 147 -3 195 90 25 50
28 64 27 152 0 93 -2 99 -31 135 -16 21 -45 43 -64 50 -42 15 -271 17 -249 3z"/>
</g>
</g>
<g transform="translate(0.000000,624.000000) scale(0.100000,-0.100000)"
fill="url(#grad_15)" stroke="none">
<g>
<path d="M3151 4239 c-90 -431 -9 -929 205 -1256 184 -283 448 -424 696 -372
365 76 631 587 604 1164 -7 160 -15 235 -26 235 -4 0 -23 -25 -43 -55 -131
-196 -383 -344 -633 -370 -57 -7 -71 -12 -91 -36 -29 -34 -83 -53 -130 -44
-40 7 -115 71 -132 113 -6 15 -33 41 -59 57 -160 101 -289 310 -344 559 l-25
109 -22 -104z"/>
</g>
</g>
<g transform="translate(0.000000,624.000000) scale(0.100000,-0.100000)"
fill="url(#grad_16)" stroke="none">
<g>
<path d="M1344 3325 c13 -14 29 -39 36 -55 14 -33 49 -47 142 -57 116 -12 140
22 70 97 l-39 40 -116 0 -116 0 23 -25z"/>
</g>
</g>
<g transform="translate(0.000000,624.000000) scale(0.100000,-0.100000)"
fill="url(#grad_17)" stroke="none">
<g>
<path d="M3698 4945 c-212 -53 -405 -259 -498 -529 -25 -75 -25 -90 4 -211 54
-222 158 -395 304 -505 37 -27 70 -50 73 -50 3 0 0 24 -8 53 -17 63 -12 196
10 247 46 107 120 142 219 103 58 -22 77 -40 104 -98 21 -43 24 -65 24 -160
-1 -81 -6 -124 -19 -164 l-19 -53 65 7 c250 27 495 172 634 376 l42 63 -22
100 c-58 257 -176 485 -330 636 -86 84 -175 141 -271 171 -84 27 -234 34 -312
14z"/>
</g>
</g>
<g transform="translate(0.000000,624.000000) scale(0.100000,-0.100000)"
fill="url(#grad_18)" stroke="none">
<g>
<path d="M1295 2830 c11 -5 71 -9 133 -9 l114 -1 29 -31 c32 -34 45 -70 35
-95 -6 -14 -20 -16 -101 -12 l-95 5 0 -76 c0 -102 -31 -169 -93 -201 l-42 -22
149 7 c168 7 157 2 203 95 24 46 28 68 28 135 0 65 -4 87 -23 120 -40 70 -68
81 -222 87 -75 3 -126 2 -115 -2z"/>
</g>
</g>
<g transform="translate(0.000000,624.000000) scale(0.100000,-0.100000)"
fill="url(#grad_19)" stroke="none">
<g>
<path d="M3813 5290 c-200 -42 -398 -202 -522 -421 -17 -31 -31 -62 -31 -70 0
-8 -11 -31 -25 -51 -33 -49 -89 -216 -114 -343 -23 -114 -45 -323 -38 -351 3
-11 5 0 6 23 0 22 10 94 21 158 74 433 313 762 610 840 73 19 236 19 312 0
321 -84 582 -409 699 -874 76 -301 80 -672 8 -953 -81 -323 -262 -594 -469
-702 -66 -35 -74 -36 -227 -47 -87 -6 -160 -13 -162 -15 -2 -1 23 -16 55 -31
54 -26 68 -28 169 -27 184 2 306 57 456 204 160 157 276 373 343 635 103 407
72 901 -79 1285 -19 48 -35 93 -35 100 0 18 -105 194 -162 272 -69 94 -206
221 -297 274 -119 70 -213 96 -356 100 -66 2 -139 -1 -162 -6z"/>
</g>
</g>
<g transform="translate(0.000000,624.000000) scale(0.100000,-0.100000)"
fill="url(#grad_20)" stroke="none">
<g>
<path d="M1359 2783 c16 -21 33 -50 36 -64 8 -31 38 -39 143 -39 47 0 64 4 68
15 10 24 -4 61 -35 94 -29 31 -29 31 -135 31 l-107 0 30 -37z"/>
</g>
</g>
<g transform="translate(0.000000,624.000000) scale(0.100000,-0.100000)"
fill="url(#grad_21)" stroke="none">
<g>
<path d="M3698 1591 c-111 -44 -196 -128 -253 -246 -96 -199 -100 -495 -10
-662 82 -153 173 -239 307 -292 112 -45 166 -43 249 10 144 93 247 234 290
396 27 102 30 286 5 388 -42 175 -153 329 -281 390 -51 25 -74 29 -160 32 -80
3 -109 -1 -147 -16z m205 -133 c107 -50 198 -175 232 -321 19 -81 19 -237 0
-312 -39 -148 -127 -270 -234 -322 -79 -39 -181 -39 -263 -1 -71 33 -157 116
-192 186 -85 167 -88 412 -9 580 45 96 140 183 233 213 52 17 172 5 233 -23z"/>
</g>
</g>
<g transform="translate(0.000000,624.000000) scale(0.100000,-0.100000)"
fill="url(#grad_22)" stroke="none">
<g>
<path d="M1255 4610 c17 -4 77 -9 135 -10 58 -1 116 -5 130 -9 38 -10 112
-110 138 -186 12 -36 20 -70 17 -75 -18 -29 -123 4 -179 57 l-29 27 7 -25 c90
-313 1 -607 -204 -670 -32 -10 78 -11 172 -3 l67 7 41 58 c59 84 118 213 136
299 21 99 13 250 -19 335 -37 99 -101 184 -139 185 -10 0 -18 5 -18 10 0 6
-53 10 -142 9 -88 -1 -131 -4 -113 -9z"/>
</g>
</g>
<g transform="translate(0.000000,624.000000) scale(0.100000,-0.100000)"
fill="url(#grad_23)" stroke="none">
<g>
<path d="M1352 4567 c24 -18 57 -57 75 -87 39 -68 85 -114 139 -140 43 -21 99
-26 109 -10 3 5 -5 39 -17 75 -26 76 -100 176 -138 186 -14 4 -67 7 -118 8
l-94 1 44 -33z"/>
</g>
</g>
<g transform="translate(0.000000,624.000000) scale(0.100000,-0.100000)"
fill="url(#grad_24)" stroke="none">
<g>
<path d="M1121 4264 c-23 -29 -29 -112 -12 -157 21 -55 73 -73 118 -42 44 31
47 162 6 207 -26 29 -87 24 -112 -8z"/>
</g>
</g>
<g transform="translate(0.000000,624.000000) scale(0.100000,-0.100000)"
fill="url(#grad_25)" stroke="none">
<g>
<path d="M2236 6119 c19 -131 108 -1034 124 -1254 41 -578 74 -1351 90 -2150
27 -1291 27 -1291 26 -5 l-2 1265 -52 490 c-29 270 -68 657 -87 862 -40 432
-84 804 -96 817 -5 5 -6 -6 -3 -25z"/>
</g>
</g>
<g transform="translate(0.000000,624.000000) scale(0.100000,-0.100000)"
fill="url(#grad_26)" stroke="none">
<g>
<path d="M370 314 c66 -16 1971 -304 2009 -304 44 0 49 2 55 26 4 15 5 29 2
31 -7 7 -2014 253 -2051 252 -16 -1 -23 -3 -15 -5z"/>
</g>
</g>
<g transform="translate(0.000000,624.000000) scale(0.100000,-0.100000)"
fill="url(#grad_27)" stroke="none">
<g>
<path d="M3715 5075 c-359 -99 -609 -535 -632 -1105 -13 -323 46 -624 184
-940 29 -67 141 -228 208 -299 82 -87 135 -126 240 -179 122 -61 148 -66 330
-53 151 11 159 12 225 47 207 108 388 379 469 702 52 202 66 496 36 725 -75
570 -368 1004 -743 1102 -74 19 -247 19 -317 0z m295 -144 c185 -59 367 -235
483 -466 129 -259 192 -641 157 -950 -23 -195 -62 -331 -140 -490 -239 -482
-681 -565 -1036 -193 -374 390 -474 1203 -213 1724 100 200 264 345 437 389
78 20 228 13 312 -14z"/>
</g>
</g>
<g transform="translate(0.000000,624.000000) scale(0.100000,-0.100000)"
fill="url(#grad_28)" stroke="none">
<g>
<path d="M3555 5725 c-538 -99 -918 -634 -1010 -1421 -17 -149 -20 -476 -5
-639 58 -629 263 -1136 595 -1471 157 -158 324 -263 512 -321 81 -25 101 -27
263 -27 165 0 180 1 260 28 308 102 559 336 744 696 59 116 117 264 116 300
-1 8 -16 -21 -34 -65 -181 -439 -458 -722 -784 -802 -105 -26 -274 -21 -393
10 -128 33 -195 61 -309 129 -167 98 -263 203 -425 463 -180 288 -287 596
-347 998 -28 188 -31 631 -5 800 42 271 99 463 201 672 179 366 455 603 763
655 l48 8 -60 0 c-33 0 -91 -6 -130 -13z"/>
</g>
</g>
</svg>
