<?xml version="1.0" encoding="utf-8"?>
<!-- Generator: Adobe Illustrator 26.5.0, SVG Export Plug-In . SVG Version: 6.00 Build 0)  -->
<svg version="1.1" xmlns="http://www.w3.org/2000/svg" xmlns:xlink="http://www.w3.org/1999/xlink" x="0px" y="0px"
	 viewBox="0 0 900 750" style="enable-background:new 0 0 900 750;" xml:space="preserve">
<style type="text/css">
	.st0{fill:none;}
	.st1{fill:#D3D3D3;}
	.st2{fill:url(#SVGID_1_);}
	.st3{fill:url(#SVGID_00000181793500285567071110000014195300193486920639_);}
	.st4{fill:url(#SVGID_00000036218238606670903670000015843913470959619263_);}
	.st5{fill:url(#SVGID_00000055693866909276959200000010915519726076275336_);}
	.st6{fill:url(#SVGID_00000155107554880113952590000012833465667363548577_);}
	.st7{fill:url(#SVGID_00000163793114351006743380000016025003971311004306_);}
	.st8{fill:url(#SVGID_00000166672433248174500210000004643844233293843112_);}
	.st9{fill:url(#SVGID_00000013180338538379584790000011329385221621526939_);}
	.st10{fill:url(#SVGID_00000170256748329767970270000011509848401067460003_);}
	.st11{fill:url(#SVGID_00000177463090700208005520000003632870130496979365_);}
	.st12{fill:url(#SVGID_00000016052664360020718160000014060581442371789724_);}
	.st13{fill:url(#SVGID_00000023251181546747869240000016896518382129381797_);}
	.st14{fill:url(#SVGID_00000073704846121166330590000003431285594632336798_);}
	.st15{fill:url(#SVGID_00000016063694528577434250000016071774553816563862_);}
	.st16{fill:url(#SVGID_00000034794700377459999780000012028746651681789096_);}
	.st17{fill:url(#SVGID_00000054231755031189735950000016042561100843869341_);}
	.st18{fill:url(#SVGID_00000133519948092758476250000013718569918822842003_);}
	.st19{fill:url(#SVGID_00000091013940651084400820000018061499804743721115_);}
	.st20{fill:url(#SVGID_00000063615909706867173180000008722961639810340996_);}
	.st21{fill:url(#SVGID_00000001659226508266689590000010556075904719136406_);}
	.st22{fill:url(#SVGID_00000155128436712071380900000007975819999754701726_);}
	.st23{fill:url(#SVGID_00000110447266414785385430000016190271713403484034_);}
	.st24{fill:url(#SVGID_00000089572316089795078920000007027714202206387866_);}
	.st25{clip-path:url(#SVGID_00000067932142104809043940000014177470337398060428_);fill:#C1C0BF;}
	.st26{clip-path:url(#SVGID_00000067932142104809043940000014177470337398060428_);fill:#C2C1C0;}
	.st27{clip-path:url(#SVGID_00000067932142104809043940000014177470337398060428_);fill:#C3C2C1;}
	.st28{clip-path:url(#SVGID_00000067932142104809043940000014177470337398060428_);fill:#C4C3C2;}
	.st29{clip-path:url(#SVGID_00000067932142104809043940000014177470337398060428_);fill:#C5C4C3;}
	.st30{clip-path:url(#SVGID_00000067932142104809043940000014177470337398060428_);fill:#C6C5C4;}
	.st31{clip-path:url(#SVGID_00000067932142104809043940000014177470337398060428_);fill:#C7C6C5;}
	.st32{clip-path:url(#SVGID_00000067932142104809043940000014177470337398060428_);fill:#C8C7C6;}
	.st33{clip-path:url(#SVGID_00000067932142104809043940000014177470337398060428_);fill:#C9C8C7;}
	.st34{clip-path:url(#SVGID_00000067932142104809043940000014177470337398060428_);fill:#CAC9C8;}
	.st35{clip-path:url(#SVGID_00000067932142104809043940000014177470337398060428_);fill:#CBCAC9;}
	.st36{clip-path:url(#SVGID_00000067932142104809043940000014177470337398060428_);fill:#CCCBCA;}
	.st37{clip-path:url(#SVGID_00000067932142104809043940000014177470337398060428_);fill:#CDCCCB;}
	.st38{clip-path:url(#SVGID_00000067932142104809043940000014177470337398060428_);fill:#CECDCC;}
	.st39{clip-path:url(#SVGID_00000067932142104809043940000014177470337398060428_);fill:#CFCECD;}
	.st40{clip-path:url(#SVGID_00000067932142104809043940000014177470337398060428_);fill:#D0CFCE;}
	.st41{clip-path:url(#SVGID_00000067932142104809043940000014177470337398060428_);fill:#D1D0CF;}
	.st42{clip-path:url(#SVGID_00000067932142104809043940000014177470337398060428_);fill:#D2D1D0;}
	.st43{clip-path:url(#SVGID_00000067932142104809043940000014177470337398060428_);fill:#D3D2D1;}
	.st44{clip-path:url(#SVGID_00000067932142104809043940000014177470337398060428_);fill:#D4D3D2;}
	.st45{clip-path:url(#SVGID_00000067932142104809043940000014177470337398060428_);fill:#D5D4D3;}
	.st46{clip-path:url(#SVGID_00000067932142104809043940000014177470337398060428_);fill:#D6D5D4;}
	.st47{clip-path:url(#SVGID_00000067932142104809043940000014177470337398060428_);fill:#D7D6D5;}
	.st48{clip-path:url(#SVGID_00000067932142104809043940000014177470337398060428_);fill:#D7D7D7;}
	.st49{clip-path:url(#SVGID_00000067932142104809043940000014177470337398060428_);fill:#D8D8D8;}
	.st50{clip-path:url(#SVGID_00000067932142104809043940000014177470337398060428_);fill:#D9D9D9;}
	.st51{clip-path:url(#SVGID_00000067932142104809043940000014177470337398060428_);fill:#DADADA;}
	.st52{clip-path:url(#SVGID_00000067932142104809043940000014177470337398060428_);fill:#DBDBDB;}
	.st53{clip-path:url(#SVGID_00000067932142104809043940000014177470337398060428_);fill:#DCDCDC;}
	.st54{clip-path:url(#SVGID_00000067932142104809043940000014177470337398060428_);fill:#DDDDDD;}
	.st55{clip-path:url(#SVGID_00000067932142104809043940000014177470337398060428_);fill:#DEDEDE;}
	.st56{clip-path:url(#SVGID_00000067932142104809043940000014177470337398060428_);fill:#DFDFDF;}
	.st57{clip-path:url(#SVGID_00000067932142104809043940000014177470337398060428_);fill:#E0E0E0;}
	.st58{clip-path:url(#SVGID_00000067932142104809043940000014177470337398060428_);fill:#E1E1E1;}
	.st59{clip-path:url(#SVGID_00000067932142104809043940000014177470337398060428_);fill:#E2E2E2;}
	.st60{clip-path:url(#SVGID_00000067932142104809043940000014177470337398060428_);fill:#E3E3E3;}
	.st61{clip-path:url(#SVGID_00000067932142104809043940000014177470337398060428_);fill:#E4E4E4;}
	.st62{clip-path:url(#SVGID_00000067932142104809043940000014177470337398060428_);fill:#E5E5E5;}
	.st63{clip-path:url(#SVGID_00000067932142104809043940000014177470337398060428_);fill:#E6E6E6;}
	.st64{clip-path:url(#SVGID_00000067932142104809043940000014177470337398060428_);fill:#E7E7E7;}
	.st65{clip-path:url(#SVGID_00000067932142104809043940000014177470337398060428_);fill:#E8E8E8;}
	.st66{clip-path:url(#SVGID_00000067932142104809043940000014177470337398060428_);fill:#E9E9E9;}
	.st67{clip-path:url(#SVGID_00000067932142104809043940000014177470337398060428_);fill:#EAEAEA;}
	.st68{clip-path:url(#SVGID_00000067932142104809043940000014177470337398060428_);fill:#EBEBEB;}
	.st69{clip-path:url(#SVGID_00000067932142104809043940000014177470337398060428_);fill:#ECECEC;}
	.st70{clip-path:url(#SVGID_00000067932142104809043940000014177470337398060428_);fill:#EDEDED;}
	.st71{fill:url(#SVGID_00000177459655886455843920000011791055776119208126_);}
	.st72{fill:url(#SVGID_00000171721780064354103800000004354844084340805053_);}
	.st73{fill:url(#SVGID_00000023271816431575363280000009800345556922325123_);}
	.st74{clip-path:url(#SVGID_00000050638028910749245540000017865301926130269864_);fill:#FFFFFF;}
	.st75{clip-path:url(#SVGID_00000139289684251041716510000011614874565862236298_);fill:#FFFFFF;}
	.st76{fill:url(#SVGID_00000102503170824276633830000006634211257628318374_);}
	.st77{clip-path:url(#SVGID_00000096028402831697129050000009387801737278438016_);}
	.st78{clip-path:url(#SVGID_00000112594064909019672690000001364485162067330716_);fill:#FFFFFF;}
	.st79{fill:url(#SVGID_00000015321678068278733340000001201634290056947134_);stroke:#000000;stroke-width:2;stroke-miterlimit:10;}
	.st80{clip-path:url(#SVGID_00000116206040266605732960000015917451506805837755_);fill:#FFFFFF;}
	.st81{fill:url(#SVGID_00000081646363553968335130000010208917036539493281_);stroke:#000000;stroke-width:2;stroke-miterlimit:10;}
	.st82{clip-path:url(#SVGID_00000136376879167851191280000004190051600526902919_);}
	.st83{clip-path:url(#SVGID_00000173127530768405423950000008575883427784804028_);fill:#FFFFFF;}
	.st84{fill:none;stroke:#000000;stroke-width:2;stroke-miterlimit:10;}
</style>
<pattern  width="40" height="40" patternUnits="userSpaceOnUse" id="a2ed1d96-aebd-4bf9-a4b3-645f1ac" viewBox="0 -40 40 40" style="overflow:visible;">
	<g>
		<rect y="-40" class="st0" width="40" height="40"/>
		<rect y="-40" class="st0" width="40" height="40"/>
		<rect y="-40" class="st1" width="20" height="20"/>
		<rect x="20" y="-20" class="st1" width="20" height="20"/>
	</g>
</pattern>
<g id="图层_1">
	<pattern  id="SVGID_1_" xlink:href="#a2ed1d96-aebd-4bf9-a4b3-645f1ac" patternTransform="matrix(1 0 0 1 -48 275.24)">
	</pattern>
	<rect x="0" y="0" class="st2" width="900" height="750"/>
</g>
<g id="图层_2">
	<g transform="translate(0.000000,650.000000) scale(0.100000,-0.100000)">
		<g>
			
				<linearGradient id="SVGID_00000112634191782638426320000001136606180886606517_" gradientUnits="userSpaceOnUse" x1="975.0685" y1="-1124.5419" x2="974.6486" y2="-1125.0234" gradientTransform="matrix(82.9492 0 0 131.62 -75980.6719 152546.1562)">
				<stop  offset="0" style="stop-color:#FBEFD8"/>
				<stop  offset="1" style="stop-color:#FBF0D9"/>
			</linearGradient>
			<path style="fill:url(#SVGID_00000112634191782638426320000001136606180886606517_);" d="M4714.3,4542.8
				c-7.8-1.1-30.2-6.7-49.8-12.3c-45.9-12.3-80.6-43.7-86.2-77.3c-6.7-38.6-3.9-77.3,6.7-100.2c9-20.2,61-81.2,69.4-81.2
				c5,0,82.9-81.8,90.7-95.8c35.3-64.4,41.4-86.8,35.8-131c-4.5-32.5-7.8-47.6-21.8-95.2c-7.8-24.6-46.5-103.6-62.7-127.1
				c-13.4-19-7.8-19.6,32.5-1.7c37,16.2,100.8,75,112.6,103.6c5,10.6,15.7,28.6,24.6,39.8c9,11.2,16.2,22.4,16.2,24.1
				c0,2.2,9,21.3,19.6,43.1c24.6,49.8,25.8,81.8,5,126c-7.8,16.8-16.8,30.2-19.6,30.2c-2.8,0-24.6,17.9-48.2,39.8
				c-24.1,21.8-49.8,44.2-57.7,48.7c-7.8,5-20.7,15.7-28.6,23.5c-7.8,7.8-21.3,18.5-29.1,23.5c-16.2,11.2-25.2,48.7-16.2,68.3
				c3.4,6.2,7.3,16.2,9,21.3c3.4,12.3,35.8,25.8,73.4,31.4c35.8,5.6,98-5.6,124.9-22.4c11.2-7.3,29.7-17.4,40.3-22.4
				s30.2-17.4,43.1-27.4c25.2-19,40.9-19,40.9,0.6c0,21.3-63.8,98-109.2,131.6C4895.8,4529.4,4767,4552.4,4714.3,4542.8z"/>
		</g>
	</g>
	<g transform="translate(0.000000,650.000000) scale(0.100000,-0.100000)">
		<g>
			
				<linearGradient id="SVGID_00000163756380802868004020000010286166588018787971_" gradientUnits="userSpaceOnUse" x1="966.502" y1="-1113.3755" x2="966.4963" y2="-1113.9354" gradientTransform="matrix(539.9464 0 0 387.6456 -517088.5 435383.2812)">
				<stop  offset="0" style="stop-color:#7F7F7F"/>
				<stop  offset="1" style="stop-color:#CACACA"/>
			</linearGradient>
			<path style="fill:url(#SVGID_00000163756380802868004020000010286166588018787971_);" d="M4465.1,3781.2
				c-502.9-27.4-783.4-89.6-874.2-194.9l-20.2-23l2.8-75.6c3.9-94.6,15.7-191,43.7-369.6c23-147.3,85.7-357.3,151.8-510.7
				c15.7-35.8,26.3-67.8,24.6-71.1c-2.2-3.4-12.9-7.3-24.6-9.5c-48.7-9-222.3-75.6-291.2-112c-113.1-59.9-184.2-123.2-221.2-197.1
				c-18.5-37.5-20.7-46.5-20.7-85.1c0-38.6,2.2-47.6,20.7-84.6c43.7-87.9,152.3-169.7,326.5-244.7c95.8-41.4,297.4-96.9,459.2-126.6
				c432.9-79,978.3-79,1411.2,0c272.7,49.8,491.1,124.9,635.6,218.4c113.7,73.4,168.6,150.1,170.2,238c1.1,39.2-0.6,45.4-21.8,86.8
				c-37,72.2-91.3,121.5-201,183.7c-76.2,43.7-222.3,100.8-318.1,125.4c-20.7,5.6-38.1,12.3-39.2,15.7
				c-3.9,11.2,23.5,44.2,35.3,42.6c5.6-1.1,50.4-3.4,99.7-5c95.8-3.4,117,0,192.6,30.8c53.2,21.3,111.4,80.1,131,132.7
				c25.8,67.8,29.1,86.2,28.6,168c-0.6,203.8-65.5,301.3-210.6,316.4c-25.2,2.2-53.2,3.4-61.6,1.7l-16.2-3.4l3.4,26.3
				c13.4,105.3,25.8,237.4,25.8,272.7c0,25.8-2.8,35.3-15.7,53.2c-63.8,87.4-290.6,152.9-639.5,183.7
				C4979.2,3789.1,4712.6,3794.7,4465.1,3781.2z"/>
		</g>
	</g>
	<g transform="translate(0.000000,650.000000) scale(0.100000,-0.100000)">
		<g>
			
				<linearGradient id="SVGID_00000120544650858014769080000004426594342258729625_" gradientUnits="userSpaceOnUse" x1="970.5943" y1="-1148.0618" x2="970.5943" y2="-1147.5018" gradientTransform="matrix(142.7398 0 0 35.6682 -133808 44346.3203)">
				<stop  offset="0" style="stop-color:#7A583B"/>
				<stop  offset="1" style="stop-color:#91755C"/>
			</linearGradient>
			<path style="fill:url(#SVGID_00000120544650858014769080000004426594342258729625_);" d="M4475.2,3594.8
				c-112.6-3.4-119.8-3.9-131-15.7c-11.2-11.2-11.8-14-5-29.7c10.1-24.1,47.6-61,85.1-82.9c76.7-45.4,180.3-68.9,304.1-69.4
				c124.9-0.6,202.2,15.1,292.9,57.7c67.8,32.5,126,96.9,110.3,122.1c-1.7,3.4-12.9,8.4-24.1,11.2
				C5081.7,3594.8,4636.5,3599.8,4475.2,3594.8z"/>
		</g>
	</g>
	<g transform="translate(0.000000,650.000000) scale(0.100000,-0.100000)">
		<g>
			
				<linearGradient id="SVGID_00000102539109355854791000000010852307431900442269_" gradientUnits="userSpaceOnUse" x1="966.9111" y1="-1141.3381" x2="966.9111" y2="-1140.8397" gradientTransform="matrix(332.9385 0 0 34.7198 -316981 42693.0547)">
				<stop  offset="0" style="stop-color:#0E0E0E"/>
				<stop  offset="1" style="stop-color:#2E2E2E"/>
			</linearGradient>
			<path style="fill:url(#SVGID_00000102539109355854791000000010852307431900442269_);" d="M5855.6,3252
				c-30.8-22.4-76.7-43.7-141.7-65.5c-65-21.8-81.8-25.8-170.8-42.6c-180.9-34.7-510.2-59.4-793-59.4c-234.1,0-595.8,21.3-723,43.1
				c-15.7,2.2-18.5,1.1-18.5-8.4c0-9.5,6.2-11.8,43.7-17.4c188.7-28,333.8-35.8,692.7-35.8c344.4-0.6,453,5,635.6,30.2
				c44.8,6.2,97.4,13.4,117.6,16.2c20.2,2.8,41.4,6.2,47.6,7.8c6.2,1.7,42.6,10.6,81.2,20.2c96.9,24.1,184.8,62.2,229.6,100.2
				C5879.1,3259.3,5878.6,3268.3,5855.6,3252z"/>
		</g>
	</g>
	<g transform="translate(0.000000,650.000000) scale(0.100000,-0.100000)">
		<g>
			
				<linearGradient id="SVGID_00000127015383002347605570000000440773844424479666_" gradientUnits="userSpaceOnUse" x1="967.0018" y1="-1142.5653" x2="967.0018" y2="-1142.0054" gradientTransform="matrix(398 0 0 46.8856 -380130 57039.5664)">
				<stop  offset="0" style="stop-color:#C1C0BF"/>
				<stop  offset="1" style="stop-color:#EDEDED"/>
			</linearGradient>
			<path style="fill:url(#SVGID_00000127015383002347605570000000440773844424479666_);" d="M4367.1,3723
				c-361.8-22.4-549.9-52.6-661.9-104.7c-43.7-20.7-82.9-53.8-82.9-70c0-13.4,49.3-52.6,84-67.2c35.3-14,37-14.6,44.8-4.5
				c23.5,28.6,92.4,54.3,224,83.4c31.9,7.3,202.7,26.3,299,34.2c93.5,7.3,848.4,7.3,935.8,0c110.3-9.5,264.3-28,306.9-36.4
				c105.8-22.4,183.1-51.5,203.8-77.3c7.8-10.1,13.4-12.3,24.1-9.5c47,12.9,106.4,56.6,106.4,77.8c0,15.1-20.2,38.1-46.5,53.2
				c-89,52.1-282.2,91.8-533.1,109.8c-46.5,3.4-114.2,9-151.2,12.3c-37,3.4-184.2,6.7-327.6,7.8
				C4587.8,3733.1,4497,3731.4,4367.1,3723z"/>
		</g>
	</g>
	<g transform="translate(0.000000,650.000000) scale(0.100000,-0.100000)">
		<g>
			
				<linearGradient id="SVGID_00000016071287525201311360000009800949344125003452_" gradientUnits="userSpaceOnUse" x1="967.5056" y1="-1117.088" x2="967.5056" y2="-1116.5223" gradientTransform="matrix(314.9648 0 0 72.1 -299983.8125 82398)">
				<stop  offset="0" style="stop-color:#6B6B6B"/>
				<stop  offset="1" style="stop-color:#B6B6B6"/>
			</linearGradient>
			<path style="fill:url(#SVGID_00000016071287525201311360000009800949344125003452_);" d="M5441.8,2203.2
				c-32.5-31.4-66.1-62.2-75-68.9c-59.4-43.7-88.5-63.8-123.2-83.4c-41.4-23-140-69.4-148.4-69.4c-2.8,0-11.8-2.8-20.7-6.7
				c-8.4-3.4-17.9-6.7-21.3-7.3c-2.8-1.1-19.6-5.6-37-10.6c-28.6-8.4-107.5-23-156.2-28c-23-2.8-219-2.8-243.6-0.6
				c-9,1.1-25.8,3.4-36.4,5c-10.6,2.2-33.6,5.6-50.4,8.4c-16.8,2.8-37.5,6.7-45.4,9c-7.8,1.7-17.9,3.9-22.4,5s-15.1,4.5-24.1,8.4
				c-9,3.4-20.2,7.3-25.2,8.4s-14,3.4-20.2,5.6c-6.2,2.8-20.2,7.8-30.8,11.8c-66.6,24.6-191,96.3-245.3,141.1
				c-46.5,38.6-75.6,65-101.9,92.4l-28,29.7l-31.4-16.2c-36.4-19-77.8-63.3-86.8-93c-31.4-104.2,137.8-205,426.2-254.8
				c178.6-30.2,212.2-33,450.8-33c243.6,0,289.5,3.4,471,35.8c201,36.4,355.6,105.3,401,178.1c15.1,25.2,15.1,73.4-1.1,99.1
				c-15.7,25.8-53.8,58.2-87.9,76.2l-28.6,14.6L5441.8,2203.2z"/>
		</g>
	</g>
	<g transform="translate(0.000000,650.000000) scale(0.100000,-0.100000)">
		<g>
			
				<linearGradient id="SVGID_00000165207840525132715010000014901920066182117565_" gradientUnits="userSpaceOnUse" x1="967.2508" y1="-1139.2441" x2="967.2508" y2="-1139.8153" gradientTransform="matrix(353 0 0 39.648 -336700 48767.6758)">
				<stop  offset="0" style="stop-color:#5C3412"/>
				<stop  offset="1" style="stop-color:#613A19"/>
			</linearGradient>
			<path style="fill:url(#SVGID_00000165207840525132715010000014901920066182117565_);" d="M4260.7,3593.6
				c-240.8-19.6-398.7-49.8-472.1-90.7c-20.7-11.8-37.5-24.6-37.5-28.6c0-16.2,191-57.1,331.5-70.6
				c198.8-19.6,287.3-23.5,567.3-26.3c507.9-5,830.5,19.6,1046.1,80.6c17.4,5,31.9,10.6,31.9,12.9s-5.6,9-12.3,15.1
				c-42.6,38.6-163.5,71.1-338.8,90.7c-169.1,19.6-229.6,23-365.7,21.8l-131.6-1.1l114.8-2.8c115.9-3.4,140-7.8,140-25.8
				c0-32.5-51.5-84.6-113.7-114.2c-90.2-42.6-167.4-58.2-292.3-57.7c-123.8,0.6-227.4,24.1-304.1,69.4c-37.5,21.8-75,58.8-85.1,82.9
				c-6.7,15.7-6.2,18.5,5,29.7c11.2,11.8,18.5,12.3,131,15.7l118.7,2.8l-137.2,0.6C4381.1,3598.1,4293.2,3595.9,4260.7,3593.6z"/>
		</g>
	</g>
	<g transform="translate(0.000000,650.000000) scale(0.100000,-0.100000)">
		<g>
			
				<linearGradient id="SVGID_00000176011427681619238090000009083313869662623415_" gradientUnits="userSpaceOnUse" x1="966.4591" y1="-1115.2867" x2="966.4591" y2="-1114.7211" gradientTransform="matrix(540 0 0 101.8064 -517140 115055.8203)">
				<stop  offset="0" style="stop-color:#333333"/>
				<stop  offset="1" style="stop-color:#ACACAC"/>
			</linearGradient>
			<path style="fill:url(#SVGID_00000176011427681619238090000009083313869662623415_);" d="M3235.9,2078.3
				c0-31.4,37.5-98.6,75.6-136.1c14-13.4,25.2-27.4,25.2-31.4c0-7.8,59.9-69.4,95.2-98c133.3-107.5,412.2-206.6,714-253.7
				c159.6-24.6,221.2-31.4,378-40.3c399.8-23,818.7,16.8,1134,108.1c169.1,48.7,324.2,119.8,404.9,184.8
				c48.7,39.8,95.8,91.3,89.6,98.6c-0.6,0.6,11.8,13.4,27.4,28c40.9,38.6,80.1,107.5,80.1,140.6c0,7.8-3.9,3.4-11.8-13.4
				c-30.2-66.1-78.4-118.2-159-170.2c-144.5-93.5-362.9-168.6-635.6-218.4c-432.9-79-978.3-79-1411.2,0
				c-161.8,29.7-363.4,85.1-459.2,126.6c-174.2,75-282.8,156.8-326.5,244.7C3244.9,2070.4,3235.9,2084.4,3235.9,2078.3z"/>
		</g>
	</g>
	<g transform="translate(0.000000,650.000000) scale(0.100000,-0.100000)">
		<g>
			
				<linearGradient id="SVGID_00000174602968028848167660000006242606458353382804_" gradientUnits="userSpaceOnUse" x1="963.6591" y1="-1112.4194" x2="964.2191" y2="-1112.4194" gradientTransform="matrix(540.0109 0 0 87.5494 -517150.5 99227.2422)">
				<stop  offset="0" style="stop-color:#FFFFFF;stop-opacity:0.9146"/>
				<stop  offset="1" style="stop-color:#FFFFFF;stop-opacity:0.9146"/>
			</linearGradient>
			<path style="fill:url(#SVGID_00000174602968028848167660000006242606458353382804_);" d="M3235.9,2078.3
				c0-53.8,70.6-145,154.6-199.9c17.9-11.8,39.8-26.3,48.7-32.5c40.9-28,207.8-100.2,273.8-118.7c16.2-4.5,52.6-14.6,80.1-22.4
				c180.3-51,376.9-83.4,630-104.7c114.8-9.5,441.8-12.9,551.6-5.6c224.6,14.6,237.4,16.2,453,48.7c72.8,10.6,262.6,55.4,343.3,80.1
				c259.8,80.1,439,201,482.2,324.8c11.2,32.5,7.8,45.4-5,17.4c-30.2-66.1-78.4-118.2-159-170.2
				c-144.5-93.5-362.9-168.6-635.6-218.4c-432.9-79-978.3-79-1411.2,0c-161.8,29.7-363.4,85.1-459.2,126.6
				c-174.2,75-282.8,156.8-326.5,244.7C3244.9,2070.4,3235.9,2084.4,3235.9,2078.3z"/>
		</g>
	</g>
	<g transform="translate(0.000000,650.000000) scale(0.100000,-0.100000)">
		<g>
			
				<linearGradient id="SVGID_00000035531241198146844530000003513607449396553640_" gradientUnits="userSpaceOnUse" x1="963.6954" y1="-1116.6656" x2="964.2554" y2="-1116.6656" gradientTransform="matrix(463.6097 0 0 289.0397 -443208.3438 325496.5938)">
				<stop  offset="0" style="stop-color:#FFFFFF;stop-opacity:0.5648"/>
				<stop  offset="1" style="stop-color:#FFFFFF;stop-opacity:0.5648"/>
			</linearGradient>
			<path style="fill:url(#SVGID_00000035531241198146844530000003513607449396553640_);" d="M5902.6,3543.2
				c-1.7-15.1-26.3-43.1-56.6-64.4c-109.2-74.5-357.8-128.2-702.8-150.6c-151.2-10.1-637.3-11.8-781.8-2.8
				c-208.9,12.9-376.9,35.8-516.3,70c-126,31.4-205,68.3-251.4,118.7l-23.5,25.8l3.4-63.8c5-89.6,17.9-194.9,43.7-357.8
				c7.8-52.1,41.4-194.3,62.2-263.2c55.4-188.7,134.4-362.3,221.2-487.2c52.1-74.5,61-86.8,75-101.9c7.3-7.8,24.6-26.3,38.6-41.4
				c23-25.2,55.4-54.9,101.9-93.5c53.8-44.2,178.6-116.5,245.3-141.1c10.6-3.9,24.6-9,30.8-11.8c6.2-2.2,15.1-4.5,20.2-5.6
				s16.2-5,25.2-8.4c9-3.9,19.6-7.3,24.1-8.4s14.6-3.4,22.4-5c7.8-2.2,28.6-6.2,45.4-9c16.8-2.8,39.8-6.2,50.4-8.4
				c10.6-1.7,27.4-3.9,36.4-5c24.6-2.2,220.6-2.2,243.6,0.6c48.7,5,127.7,19.6,156.2,28c17.4,5,34.2,9.5,37,10.6
				c3.4,0.6,12.9,3.9,21.3,7.3c9,3.9,17.9,6.7,20.7,6.7c8.4,0,107,46.5,148.4,69.4c34.7,19.6,65.5,40.3,123.2,83.4
				c59.9,44.8,183.1,183.1,225.1,253.1c53.2,89,76.7,131,85.7,156.2c15.7,42,24.6,48.2,56,42.6c44.2-9,171.9-6.7,206.6,3.4
				c73.4,21.3,101.4,36.4,142.8,77.3c33.6,33,43.1,46.5,54.9,79c25.8,67.8,29.1,86.2,28.6,168c-0.6,203.8-65.5,301.3-210.6,316.4
				c-25.2,2.2-52.6,3.4-61,1.7c-9-1.7-15.7-2.2-15.7-1.1c0,1.1,3.4,33.6,7.8,72.2c14.6,126.6,21.3,209.4,19,229.6
				C5904.3,3543.2,5902.6,3548.3,5902.6,3543.2z M3832.3,3317c37-7.3,78.4-16.2,92.4-19.6c14-3.4,40.9-9,59.9-12.3l34.7-6.7
				l-3.4-73.9l-3.4-73.9l16.2-2.8c103-20.2,487.8-43.1,721.3-43.1c282.8,0,612.1,24.6,793,59.4c89,16.8,105.8,20.7,170.8,42.6
				c66.1,22.4,109.2,42,142.8,66.1c24.6,17.4,20.7,3.9-4.5-15.7c-47-37.5-129.9-72.8-226.8-96.3c-37.5-9.5-73.4-18.5-79.5-20.2
				c-6.2-1.7-27.4-5-47.6-7.8c-20.2-2.8-72.8-10.1-117.6-16.2c-204.4-28.6-535.4-39.2-873.6-29.1
				c-403.8,12.3-668.6,54.9-823.8,132.7c-30.2,15.1-83.4,56-83.4,64.4c0,3.4,7.8-0.6,17.4-8.4c30.8-25.8,128.2-70,128.2-57.7
				c0,0.6-3.9,31.9-8.4,68.3c-4.5,37-8.4,68.3-8.4,69.4c0,1.1,8.4,0,18.5-1.7C3756.7,3332.1,3795.4,3324.3,3832.3,3317z
				 M3687.3,3169.7c71.7-36.4,306.3-90.2,443-101.9c39.2-3.4,93-8.4,119.3-11.2c127.1-13.4,306.9-17.9,561.1-15.1
				c249.2,2.8,320.3,6.2,483.3,20.7c146.2,13.4,324.2,45.4,408.8,73.9c49.3,16.2,131.6,54.3,148.4,68.3
				c13.4,11.2,24.6,16.8,20.7,10.6c-7.3-11.8-65.5-53.2-93.5-66.6c-136.6-66.1-362.9-106.4-686-122.6
				c-207.8-10.6-504.6-10.6-708.4,0c-155.1,7.8-208.3,12.9-373.5,36.4c-171.4,23.5-316.4,73.9-379.7,131.6l-28,25.8l30.8-19
				C3650.3,3189.9,3674.4,3175.9,3687.3,3169.7z M5959.2,3065c31.4-14.6,47.6-46.5,53.8-105.3c5-50.4,0-95.8-13.4-121.5
				c-30.2-56.6-105.3-94.6-202.7-102.5c-25.8-2.2-35.3-1.1-35.3,3.9c0,3.9,6.2,25.8,14.6,48.7c7.8,23,17.4,54.3,21.8,69.4
				c3.9,15.7,14,52.1,22.4,81.2c8.4,29.1,18.5,70.6,23,91.8c3.9,21.3,10.6,41.4,14.6,43.7C5869,3082.4,5936.2,3076.2,5959.2,3065z"
				/>
		</g>
	</g>
	<g transform="translate(0.000000,650.000000) scale(0.100000,-0.100000)">
		<g>
			
				<linearGradient id="SVGID_00000099644819943661841900000002412021651404965006_" gradientUnits="userSpaceOnUse" x1="964.1106" y1="-1136.7958" x2="964.6706" y2="-1136.7958" gradientTransform="matrix(332.9769 0 0 35.8815 -317017.7812 43908.4844)">
				<stop  offset="0" style="stop-color:#000000;stop-opacity:0.9061"/>
				<stop  offset="1" style="stop-color:#000000;stop-opacity:0.9061"/>
			</linearGradient>
			<path style="fill:url(#SVGID_00000099644819943661841900000002412021651404965006_);" d="M5855.6,3208.4
				c-23-17.9-99.7-54.3-152.9-72.2c-51-17.4-215-51.5-296.8-62.2c-51-6.2-144.5-15.1-254.8-23.5c-122.1-9.5-594.2-12.9-726.3-5.6
				c-161.8,9-386.4,29.7-407.7,37.5c-5.6,2.2-8.4,0-8.4-7.8c0-12.9,0.6-13.4,126-29.1c207.2-26.3,642.9-35.3,957.6-19.6
				c323.1,16.2,549.4,56.6,686,122.6c35.8,17.4,106.4,70.6,93.5,70.6C5870.7,3219,5863.4,3214,5855.6,3208.4z"/>
		</g>
	</g>
	<g transform="translate(0.000000,650.000000) scale(0.100000,-0.100000)">
		<g>
			
				<linearGradient id="SVGID_00000103968986757456684840000004549637985569609382_" gradientUnits="userSpaceOnUse" x1="993.514" y1="-1172.1609" x2="994.074" y2="-1172.1609" gradientTransform="matrix(47.0127 0 0 14.1196 -42962.3164 19700.8262)">
				<stop  offset="0" style="stop-color:#000000;stop-opacity:0.3367"/>
				<stop  offset="1" style="stop-color:#000000;stop-opacity:0.3367"/>
			</linearGradient>
			<path style="fill:url(#SVGID_00000103968986757456684840000004549637985569609382_);" d="M3745.5,3180.9
				c0-7.3,8.4-12.9,29.7-19.6c48.2-16.2,161.3-43.1,198.8-48.2c30.8-3.9,34.7-3.4,34.7,5.6c0,10.6-8.4,12.9-113.7,33
				c-33.6,6.2-80.1,17.9-103,25.2C3741.6,3193.8,3745.5,3193.2,3745.5,3180.9z"/>
		</g>
	</g>
	<g transform="translate(0.000000,650.000000) scale(0.100000,-0.100000)">
		<g>
			
				<linearGradient id="SVGID_00000142854508202511313930000003040786647778781090_" gradientUnits="userSpaceOnUse" x1="964.1102" y1="-1128.4291" x2="964.6702" y2="-1128.4291" gradientTransform="matrix(416.5085 0 0 83.7131 -397988.1562 98018.2891)">
				<stop  offset="0" style="stop-color:#FFFFFF;stop-opacity:0.802"/>
				<stop  offset="1" style="stop-color:#FFFFFF;stop-opacity:0.802"/>
			</linearGradient>
			<path style="fill:url(#SVGID_00000142854508202511313930000003040786647778781090_);" d="M4465.1,3781.2
				c-435.1-23.5-701.1-73.4-827.1-154c-34.2-21.8-66.1-58.8-66.1-76.2c0-16.2,37-57.1,71.7-79.5c113.1-71.7,374.1-124.9,717.9-146.2
				c144.5-9,630.6-7.3,781.8,2.8c345.5,22.4,593.6,76.2,702.8,151.2c29.7,20.2,51.5,45.4,57.7,67.8c5,16.2-21.8,51-59.4,76.7
				c-95.2,65-305.2,114.8-592.5,140.6C4979.2,3789.1,4712.6,3794.7,4465.1,3781.2z M5120.3,3724.1c37-3.4,104.7-9,151.2-12.3
				c297.9-21.3,518-74.5,567.8-137.8c16.2-20.7,14.6-32.5-8.4-54.9c-24.6-24.1-58.2-39.8-119.8-57.1
				c-125.4-34.2-211.7-48.7-378-63.8c-218.4-19.6-368.5-24.1-683.2-20.7c-438.5,4.5-682.6,26.9-864.6,80.1
				c-16.2,5-35.8,10.1-43.7,11.2c-42,7.8-119.3,59.9-119.3,80.6c0,2.8,8.4,14.6,17.9,25.8c49.3,56.6,224,104.2,469.3,128.2
				c221.8,21.8,413.8,30.2,683.2,28.6C4936.1,3730.8,5083.4,3727.5,5120.3,3724.1z"/>
		</g>
	</g>
	<g transform="translate(0.000000,650.000000) scale(0.100000,-0.100000)">
		<g>
			
				<linearGradient id="SVGID_00000019649747455252532320000006845059533305784992_" gradientUnits="userSpaceOnUse" x1="1022.1879" y1="-1166.7672" x2="1022.7479" y2="-1166.7672" gradientTransform="matrix(27.0445 0 0 15.8753 -24034.3535 21691.8965)">
				<stop  offset="0" style="stop-color:#000000;stop-opacity:0.8017"/>
				<stop  offset="1" style="stop-color:#000000;stop-opacity:0.8017"/>
			</linearGradient>
			<path style="fill:url(#SVGID_00000019649747455252532320000006845059533305784992_);" d="M3613.9,3207.8
				c19-20.7,59.9-47.6,102.5-67.2c22.4-10.1,42-17.4,43.1-15.7c7.3,6.7-5,20.7-21.3,24.6c-21.8,4.5-62.7,24.6-104.7,51.5
				C3611.1,3215.1,3605.5,3217.3,3613.9,3207.8z"/>
		</g>
	</g>
	<g transform="translate(0.000000,650.000000) scale(0.100000,-0.100000)">
		<g>
			
				<linearGradient id="SVGID_00000039091956745742011580000007461724607009680298_" gradientUnits="userSpaceOnUse" x1="959.8127" y1="-1125.0046" x2="960.3727" y2="-1125.0046" gradientTransform="matrix(45.2395 0 0 61.4727 -37659.9219 72062.9688)">
				<stop  offset="0" style="stop-color:#FFFFFF;stop-opacity:0.9897"/>
				<stop  offset="1" style="stop-color:#FFFFFF;stop-opacity:0.9897"/>
			</linearGradient>
			<path style="fill:url(#SVGID_00000039091956745742011580000007461724607009680298_);" d="M5857.8,3074.5
				c-3.9-2.2-10.6-22.4-14.6-43.7c-4.5-21.3-14.6-62.7-23-91.8c-8.4-29.1-18.5-65.5-22.4-81.2c-4.5-15.1-14-46.5-21.8-69.4
				c-8.4-23-14.6-44.8-14.6-48.7c0-16.2,113.7,3.9,163.5,29.1c71.7,36.4,97.4,93,87.9,191c-6.2,58.8-22.4,90.7-53.8,105.3
				C5936.2,3076.2,5869,3082.4,5857.8,3074.5z"/>
		</g>
	</g>
	<g transform="translate(0.000000,650.000000) scale(0.100000,-0.100000)">
		<g>
			
				<linearGradient id="SVGID_00000032638384452653205370000014868164377433811594_" gradientUnits="userSpaceOnUse" x1="1024.9972" y1="-1167.814" x2="1025.5573" y2="-1167.814" gradientTransform="matrix(26 0 0 16.3157 -23050.0059 22273.6094)">
				<stop  offset="0" style="stop-color:#000000;stop-opacity:0.7668"/>
				<stop  offset="1" style="stop-color:#000000;stop-opacity:0.7668"/>
			</linearGradient>
			<path style="fill:url(#SVGID_00000032638384452653205370000014868164377433811594_);" d="M3599.9,3264.4
				c0-10.6,57.7-52.1,99.1-71.7c21.8-10.1,41.4-18.5,43.1-18.5c1.7,0,3.4,5,3.4,11.2c0,7.3-3.9,11.2-10.1,11.2
				c-14.6,0-97.4,41.4-118.2,59.4C3607.8,3263.8,3599.9,3267.7,3599.9,3264.4z"/>
		</g>
	</g>
	<g transform="translate(0.000000,650.000000) scale(0.100000,-0.100000)">
		<g>
			
				<linearGradient id="SVGID_00000047040509650886228720000008535671504795000477_" gradientUnits="userSpaceOnUse" x1="995.1533" y1="-1171.2415" x2="995.7133" y2="-1171.2415" gradientTransform="matrix(44.5068 0 0 13.6685 -40531.6211 19110.6855)">
				<stop  offset="0" style="stop-color:#000000;stop-opacity:0.3143"/>
				<stop  offset="1" style="stop-color:#000000;stop-opacity:0.3143"/>
			</linearGradient>
			<path style="fill:url(#SVGID_00000047040509650886228720000008535671504795000477_);" d="M3760.6,3130c2.2-7.8,14-14.6,40.3-22.4
				c48.7-15.1,146.7-38.1,181.4-42.6c24.1-3.4,26.3-2.2,26.3,7.8c0,6.7-1.7,11.8-3.9,11.8c-14.6,0.6-193.8,39.8-213.9,47
				C3759.5,3142.8,3757.3,3142.8,3760.6,3130z"/>
		</g>
	</g>
	<g transform="translate(0.000000,650.000000) scale(0.100000,-0.100000)">
		<g>
			
				<linearGradient id="SVGID_00000149379511871820766120000009059470137369680282_" gradientUnits="userSpaceOnUse" x1="990.6113" y1="-1138.6121" x2="991.1713" y2="-1138.6121" gradientTransform="matrix(51.9 0 0 36.9331 -47684.0117 45285.5234)">
				<stop  offset="0" style="stop-color:#FFFFFF;stop-opacity:0.6724"/>
				<stop  offset="1" style="stop-color:#FFFFFF;stop-opacity:0.6724"/>
			</linearGradient>
			<path style="fill:url(#SVGID_00000149379511871820766120000009059470137369680282_);" d="M3728.7,3336c0-1.1,3.9-32.5,8.4-69.4
				c4.5-36.4,8.4-68.3,8.4-70.6c0-6.7,86.8-32.5,149.5-44.2c33.6-6.7,72.8-14.6,87.4-17.9c14.6-2.8,27.4-5,28.6-3.9
				c1.1,1.1,3.4,35.3,5,75.6l3.4,72.8l-34.7,6.7c-19,3.4-45.9,9-59.9,12.3c-14,3.4-55.4,12.3-92.4,19.6s-75.6,15.1-85.1,17.4
				C3737.1,3336,3728.7,3337.2,3728.7,3336z"/>
		</g>
	</g>
</g>
<g id="图层_3">
	<g transform="translate(0.000000,650.000000) scale(0.100000,-0.100000)">
		<g>
			
				<linearGradient id="SVGID_00000092427687116637271280000005839070945474780572_" gradientUnits="userSpaceOnUse" x1="973.4017" y1="-1114.8446" x2="972.9817" y2="-1115.3262" gradientTransform="matrix(82.9492 0 0 131.62 -75980.6719 152546.1562)">
				<stop  offset="0" style="stop-color:#FBEFD8"/>
				<stop  offset="1" style="stop-color:#FBF0D9"/>
			</linearGradient>
			<path style="fill:url(#SVGID_00000092427687116637271280000005839070945474780572_);" d="M4576.1,5819.2
				c-7.8-1.1-30.2-6.7-49.8-12.3c-45.9-12.3-80.6-43.7-86.2-77.3c-6.7-38.6-3.9-77.3,6.7-100.2c9-20.2,61-81.2,69.4-81.2
				c5,0,82.9-81.8,90.7-95.8c35.3-64.4,41.4-86.8,35.8-131c-4.5-32.5-7.8-47.6-21.8-95.2c-7.8-24.6-46.5-103.6-62.7-127.1
				c-13.4-19-7.8-19.6,32.5-1.7c37,16.2,100.8,75,112.6,103.6c5,10.6,15.7,28.6,24.6,39.8c9,11.2,16.2,22.4,16.2,24.1
				c0,2.2,9,21.3,19.6,43.1c24.6,49.8,25.8,81.8,5,126c-7.8,16.8-16.8,30.2-19.6,30.2c-2.8,0-24.6,17.9-48.2,39.8
				c-24.1,21.8-49.8,44.2-57.7,48.7c-7.8,5-20.7,15.7-28.6,23.5c-7.8,7.8-21.3,18.5-29.1,23.5c-16.2,11.2-25.2,48.7-16.2,68.3
				c3.4,6.2,7.3,16.2,9,21.3c3.4,12.3,35.8,25.8,73.4,31.4c35.8,5.6,98-5.6,124.9-22.4c11.2-7.3,29.7-17.4,40.3-22.4
				s30.2-17.4,43.1-27.4c25.2-19,40.9-19,40.9,0.6c0,21.3-63.8,98-109.2,131.6C4757.5,5805.8,4628.7,5828.7,4576.1,5819.2z"/>
		</g>
	</g>
	<g transform="translate(0.000000,650.000000) scale(0.100000,-0.100000)">
		<g>
			
				<linearGradient id="SVGID_00000078033508774416984840000016384581300614339207_" gradientUnits="userSpaceOnUse" x1="960.6342" y1="-1113.488" x2="960.6286" y2="-1114.048" gradientTransform="matrix(539.9464 0 0 387.6456 -517088.5 435383.2812)">
				<stop  offset="0" style="stop-color:#7F7F7F"/>
				<stop  offset="1" style="stop-color:#CACACA"/>
			</linearGradient>
			<path style="fill:url(#SVGID_00000078033508774416984840000016384581300614339207_);" d="M1296.9,3737.6
				c-502.9-27.4-783.4-89.6-874.2-194.9l-20.2-23l2.8-75.6c3.9-94.6,15.7-191,43.7-369.6c23-147.3,85.7-357.3,151.8-510.7
				c15.7-35.8,26.3-67.8,24.6-71.1c-2.2-3.4-12.9-7.3-24.6-9.5c-48.7-9-222.3-75.6-291.2-112c-113.1-59.9-184.2-123.2-221.2-197.1
				c-18.5-37.5-20.7-46.5-20.7-85.1c0-38.6,2.2-47.6,20.7-84.6c43.7-87.9,152.3-169.7,326.5-244.7c95.8-41.4,297.4-96.9,459.2-126.6
				c432.9-79,978.3-79,1411.2,0c272.7,49.8,491.1,124.9,635.6,218.4c113.7,73.4,168.6,150.1,170.2,238c1.1,39.2-0.6,45.4-21.8,86.8
				c-37,72.2-91.3,121.5-201,183.7c-76.2,43.7-222.3,100.8-318.1,125.4c-20.7,5.6-38.1,12.3-39.2,15.7
				c-3.9,11.2,23.5,44.2,35.3,42.6c5.6-1.1,50.4-3.4,99.7-5c95.8-3.4,117,0,192.6,30.8c53.2,21.3,111.4,80.1,131,132.7
				c25.8,67.8,29.1,86.2,28.6,168c-0.6,203.8-65.5,301.3-210.6,316.4c-25.2,2.2-53.2,3.4-61.6,1.7l-16.2-3.4l3.4,26.3
				c13.4,105.3,25.8,237.4,25.8,272.7c0,25.8-2.8,35.3-15.7,53.2c-63.8,87.4-290.6,152.9-639.5,183.7
				C1810.9,3745.4,1544.4,3751,1296.9,3737.6z"/>
		</g>
	</g>
	<g transform="translate(0.000000,650.000000) scale(0.100000,-0.100000)">
		<g>
			
				<linearGradient id="SVGID_00000024699302853520322170000006518853430749082507_" gradientUnits="userSpaceOnUse" x1="961.0086" y1="-1100.5023" x2="961.0086" y2="-1099.9423" gradientTransform="matrix(142.7398 0 0 35.6682 -133808 44346.3203)">
				<stop  offset="0" style="stop-color:#7A583B"/>
				<stop  offset="1" style="stop-color:#91755C"/>
			</linearGradient>
			<path style="fill:url(#SVGID_00000024699302853520322170000006518853430749082507_);" d="M3106.9,5291.1
				c-112.6-3.4-119.8-3.9-131-15.7c-11.2-11.2-11.8-14-5-29.7c10.1-24.1,47.6-61,85.1-82.9c76.7-45.4,180.3-68.9,304.1-69.4
				c124.9-0.6,202.2,15.1,292.9,57.7c67.8,32.5,126,96.9,110.3,122.1c-1.7,3.4-12.9,8.4-24.1,11.2
				C3713.4,5291.1,3268.2,5296.2,3106.9,5291.1z"/>
		</g>
	</g>
	<g transform="translate(0.000000,650.000000) scale(0.100000,-0.100000)">
		<g>
			
				<linearGradient id="SVGID_00000151529358692123261700000015674998242561209774_" gradientUnits="userSpaceOnUse" x1="975.4464" y1="-1141.731" x2="975.4464" y2="-1141.2325" gradientTransform="matrix(332.9385 0 0 34.7198 -316981 42693.0547)">
				<stop  offset="0" style="stop-color:#0E0E0E"/>
				<stop  offset="1" style="stop-color:#2E2E2E"/>
			</linearGradient>
			<path style="fill:url(#SVGID_00000151529358692123261700000015674998242561209774_);" d="M8697.3,3238.4
				c-30.8-22.4-76.7-43.7-141.7-65.5s-81.8-25.8-170.8-42.6c-180.9-34.7-510.2-59.4-793-59.4c-234.1,0-595.8,21.3-723,43.1
				c-15.7,2.2-18.5,1.1-18.5-8.4s6.2-11.8,43.7-17.4c188.7-28,333.8-35.8,692.7-35.8c344.4-0.6,453,5,635.6,30.2
				c44.8,6.2,97.4,13.4,117.6,16.2c20.2,2.8,41.4,6.2,47.6,7.8s42.6,10.6,81.2,20.2c96.9,24.1,184.8,62.2,229.6,100.2
				C8720.9,3245.7,8720.3,3254.6,8697.3,3238.4z"/>
		</g>
	</g>
	<g transform="translate(0.000000,650.000000) scale(0.100000,-0.100000)">
		<g>
			<g>
				<g>
					<defs>
						<path id="SVGID_00000002381062853878837370000011885386481330844827_" d="M7408.9,5349.4c-361.8-22.4-549.9-52.6-661.9-104.7
							c-43.7-20.7-82.9-53.8-82.9-70c0-13.4,49.3-52.6,84-67.2c35.3-14,37-14.6,44.8-4.5c23.5,28.6,92.4,54.3,224,83.4
							c31.9,7.3,202.7,26.3,299,34.2c93.5,7.3,848.4,7.3,935.8,0c110.3-9.5,264.3-28,306.9-36.4c105.8-22.4,183.1-51.5,203.8-77.3
							c7.8-10.1,13.4-12.3,24.1-9.5c47,12.9,106.4,56.6,106.4,77.8c0,15.1-20.2,38.1-46.5,53.2c-89,52.1-282.2,91.8-533.1,109.8
							c-46.5,3.4-114.2,9-151.2,12.3c-37,3.4-184.2,6.7-327.6,7.8C7629.5,5359.4,7538.8,5357.8,7408.9,5349.4z"/>
					</defs>
					<clipPath id="SVGID_00000008109648024810636860000010729071489354891963_">
						<use xlink:href="#SVGID_00000002381062853878837370000011885386481330844827_"  style="overflow:visible;"/>
					</clipPath>
					
						<rect x="7667" y="5094.3" style="clip-path:url(#SVGID_00000008109648024810636860000010729071489354891963_);fill:#C1C0BF;" width="222.9" height="0.3"/>
					
						<rect x="7667" y="5098.6" style="clip-path:url(#SVGID_00000008109648024810636860000010729071489354891963_);fill:#C1C0BF;" width="222.9" height="0.6"/>
					
						<rect x="7667" y="5104.3" style="clip-path:url(#SVGID_00000008109648024810636860000010729071489354891963_);fill:#C2C1C0;" width="222.9" height="0.6"/>
					
						<rect x="7667" y="5110.1" style="clip-path:url(#SVGID_00000008109648024810636860000010729071489354891963_);fill:#C3C2C1;" width="222.9" height="0.6"/>
					
						<rect x="7667" y="5115.8" style="clip-path:url(#SVGID_00000008109648024810636860000010729071489354891963_);fill:#C4C3C2;" width="222.9" height="0.6"/>
					
						<rect x="7667" y="5121.5" style="clip-path:url(#SVGID_00000008109648024810636860000010729071489354891963_);fill:#C5C4C3;" width="222.9" height="0.6"/>
					
						<rect x="7667" y="5127.2" style="clip-path:url(#SVGID_00000008109648024810636860000010729071489354891963_);fill:#C6C5C4;" width="222.9" height="0.6"/>
					
						<rect x="7667" y="5132.9" style="clip-path:url(#SVGID_00000008109648024810636860000010729071489354891963_);fill:#C7C6C5;" width="222.9" height="0.6"/>
					
						<rect x="7667" y="5138.6" style="clip-path:url(#SVGID_00000008109648024810636860000010729071489354891963_);fill:#C8C7C6;" width="222.9" height="0.6"/>
					
						<rect x="7667" y="5144.3" style="clip-path:url(#SVGID_00000008109648024810636860000010729071489354891963_);fill:#C9C8C7;" width="222.9" height="0.6"/>
					
						<rect x="7667" y="5150" style="clip-path:url(#SVGID_00000008109648024810636860000010729071489354891963_);fill:#CAC9C8;" width="222.9" height="0.6"/>
					
						<rect x="7667" y="5155.7" style="clip-path:url(#SVGID_00000008109648024810636860000010729071489354891963_);fill:#CBCAC9;" width="222.9" height="0.6"/>
					
						<rect x="7667" y="5161.4" style="clip-path:url(#SVGID_00000008109648024810636860000010729071489354891963_);fill:#CCCBCA;" width="222.9" height="0.6"/>
					
						<rect x="7667" y="5167.1" style="clip-path:url(#SVGID_00000008109648024810636860000010729071489354891963_);fill:#CDCCCB;" width="222.9" height="0.6"/>
					
						<rect x="7667" y="5172.8" style="clip-path:url(#SVGID_00000008109648024810636860000010729071489354891963_);fill:#CECDCC;" width="222.9" height="0.6"/>
					
						<rect x="7667" y="5178.5" style="clip-path:url(#SVGID_00000008109648024810636860000010729071489354891963_);fill:#CFCECD;" width="222.9" height="0.6"/>
					
						<rect x="7667" y="5184.3" style="clip-path:url(#SVGID_00000008109648024810636860000010729071489354891963_);fill:#D0CFCE;" width="222.9" height="0.6"/>
					
						<rect x="7667" y="5190" style="clip-path:url(#SVGID_00000008109648024810636860000010729071489354891963_);fill:#D1D0CF;" width="222.9" height="0.6"/>
					
						<rect x="7667" y="5195.7" style="clip-path:url(#SVGID_00000008109648024810636860000010729071489354891963_);fill:#D2D1D0;" width="222.9" height="0.6"/>
					
						<rect x="7667" y="5201.4" style="clip-path:url(#SVGID_00000008109648024810636860000010729071489354891963_);fill:#D3D2D1;" width="222.9" height="0.6"/>
					
						<rect x="7667" y="5207.1" style="clip-path:url(#SVGID_00000008109648024810636860000010729071489354891963_);fill:#D4D3D2;" width="222.9" height="0.6"/>
					
						<rect x="7667" y="5212.8" style="clip-path:url(#SVGID_00000008109648024810636860000010729071489354891963_);fill:#D5D4D3;" width="222.9" height="0.6"/>
					
						<rect x="7667" y="5218.5" style="clip-path:url(#SVGID_00000008109648024810636860000010729071489354891963_);fill:#D6D5D4;" width="222.9" height="0.6"/>
					
						<rect x="7667" y="5224.2" style="clip-path:url(#SVGID_00000008109648024810636860000010729071489354891963_);fill:#D7D6D5;" width="222.9" height="0.6"/>
					
						<rect x="7667" y="5229.9" style="clip-path:url(#SVGID_00000008109648024810636860000010729071489354891963_);fill:#D7D7D7;" width="222.9" height="0.6"/>
					
						<rect x="7667" y="5235.6" style="clip-path:url(#SVGID_00000008109648024810636860000010729071489354891963_);fill:#D8D8D8;" width="222.9" height="0.6"/>
					
						<rect x="7667" y="5241.3" style="clip-path:url(#SVGID_00000008109648024810636860000010729071489354891963_);fill:#D9D9D9;" width="222.9" height="0.6"/>
					
						<rect x="7667" y="5247" style="clip-path:url(#SVGID_00000008109648024810636860000010729071489354891963_);fill:#DADADA;" width="222.9" height="0.6"/>
					
						<rect x="7667" y="5252.7" style="clip-path:url(#SVGID_00000008109648024810636860000010729071489354891963_);fill:#DBDBDB;" width="222.9" height="0.6"/>
					
						<rect x="7667" y="5258.5" style="clip-path:url(#SVGID_00000008109648024810636860000010729071489354891963_);fill:#DCDCDC;" width="222.9" height="0.6"/>
					
						<rect x="7667" y="5264.2" style="clip-path:url(#SVGID_00000008109648024810636860000010729071489354891963_);fill:#DDDDDD;" width="222.9" height="0.6"/>
					
						<rect x="7667" y="5269.9" style="clip-path:url(#SVGID_00000008109648024810636860000010729071489354891963_);fill:#DEDEDE;" width="222.9" height="0.6"/>
					
						<rect x="7667" y="5275.6" style="clip-path:url(#SVGID_00000008109648024810636860000010729071489354891963_);fill:#DFDFDF;" width="222.9" height="0.6"/>
					
						<rect x="7667" y="5281.3" style="clip-path:url(#SVGID_00000008109648024810636860000010729071489354891963_);fill:#E0E0E0;" width="222.9" height="0.6"/>
					
						<rect x="7667" y="5287" style="clip-path:url(#SVGID_00000008109648024810636860000010729071489354891963_);fill:#E1E1E1;" width="222.9" height="0.6"/>
					
						<rect x="7667" y="5292.7" style="clip-path:url(#SVGID_00000008109648024810636860000010729071489354891963_);fill:#E2E2E2;" width="222.9" height="0.6"/>
					
						<rect x="7667" y="5298.4" style="clip-path:url(#SVGID_00000008109648024810636860000010729071489354891963_);fill:#E3E3E3;" width="222.9" height="0.6"/>
					
						<rect x="7667" y="5304.1" style="clip-path:url(#SVGID_00000008109648024810636860000010729071489354891963_);fill:#E4E4E4;" width="222.9" height="0.6"/>
					
						<rect x="7667" y="5309.8" style="clip-path:url(#SVGID_00000008109648024810636860000010729071489354891963_);fill:#E5E5E5;" width="222.9" height="0.6"/>
					
						<rect x="7667" y="5315.5" style="clip-path:url(#SVGID_00000008109648024810636860000010729071489354891963_);fill:#E6E6E6;" width="222.9" height="0.6"/>
					
						<rect x="7667" y="5321.2" style="clip-path:url(#SVGID_00000008109648024810636860000010729071489354891963_);fill:#E7E7E7;" width="222.9" height="0.6"/>
					
						<rect x="7667" y="5326.9" style="clip-path:url(#SVGID_00000008109648024810636860000010729071489354891963_);fill:#E8E8E8;" width="222.9" height="0.6"/>
					
						<rect x="7667" y="5332.7" style="clip-path:url(#SVGID_00000008109648024810636860000010729071489354891963_);fill:#E9E9E9;" width="222.9" height="0.6"/>
					
						<rect x="7667" y="5338.4" style="clip-path:url(#SVGID_00000008109648024810636860000010729071489354891963_);fill:#EAEAEA;" width="222.9" height="0.6"/>
					
						<rect x="7667" y="5344.1" style="clip-path:url(#SVGID_00000008109648024810636860000010729071489354891963_);fill:#EBEBEB;" width="222.9" height="0.6"/>
					
						<rect x="7667" y="5349.8" style="clip-path:url(#SVGID_00000008109648024810636860000010729071489354891963_);fill:#ECECEC;" width="222.9" height="0.6"/>
					
						<rect x="7667" y="5355.5" style="clip-path:url(#SVGID_00000008109648024810636860000010729071489354891963_);fill:#EDEDED;" width="222.9" height="0.6"/>
					
						<rect x="7667" y="5359" style="clip-path:url(#SVGID_00000008109648024810636860000010729071489354891963_);fill:#EDEDED;" width="222.9" height="0.1"/>
				</g>
				<path d="M6782.9,5091c-6.9,0-17.2,4.1-36.6,11.8c-32.1,13.4-87.2,54-87.2,71.8c0,20.2,44.3,54.9,85.7,74.5
					c113,52.5,305.3,83,663.8,105.2c128,8.3,215.6,10.1,425.9,9c148.2-1.2,292.3-4.6,328-7.9c35.6-3.2,103.5-8.9,151.1-12.3
					c250.8-17.9,445.9-58.2,535.3-110.4c28.3-16.3,48.9-40.5,48.9-57.5c0-26.1-64-70.1-110.1-82.7c-12.6-3.3-20.3-0.4-29.3,11.3
					c-19.7,24.5-96.7,53.4-200.9,75.5c-44,8.7-198.6,27-306.3,36.3c-88.6,7.4-840.1,7.4-934.9,0c-95.7-7.8-266.2-26.7-298.3-34
					c-130.2-28.8-198.4-54-221.3-81.7C6792.1,5093.8,6788.7,5091,6782.9,5091z M7786.1,5231.1c211.2,0,421.6-1.9,466-5.6
					c108-9.3,263.1-27.7,307.4-36.5c108.1-22.9,185.3-52.4,206.8-79.1c7.1-9.2,10.8-9.9,18.9-7.8c46.6,12.8,102.7,55.7,102.7,73
					c0,11.4-16.8,33.3-44,48.9c-88.1,51.5-281.6,91.3-531,109.1c-47.7,3.5-115.7,9.1-151.3,12.3c-35.5,3.2-179.2,6.7-327.2,7.8
					c-210,1.2-297.4-0.7-425.2-9h0c-357.2-22.1-548.4-52.3-660.1-104.3c-44.3-21-80-53-80-65.5c0-9.5,44.5-47.3,80.9-62.6
					c33.3-13.2,33.3-13.2,38.9-6c24.4,29.7,94.4,55.9,226.9,85.3c32.5,7.4,203.7,26.4,299.7,34.3
					C7363,5229.2,7574.9,5231.1,7786.1,5231.1z"/>
			</g>
		</g>
	</g>
	<g transform="translate(0.000000,650.000000) scale(0.100000,-0.100000)">
		<g>
			
				<linearGradient id="SVGID_00000098220860541349901730000018037020503980837304_" gradientUnits="userSpaceOnUse" x1="967.9873" y1="-1141.9651" x2="967.9873" y2="-1141.3995" gradientTransform="matrix(314.9648 0 0 72.1 -299983.8125 82398)">
				<stop  offset="0" style="stop-color:#6B6B6B"/>
				<stop  offset="1" style="stop-color:#B6B6B6"/>
			</linearGradient>
			<path style="fill:url(#SVGID_00000098220860541349901730000018037020503980837304_);" d="M5593.5,409.5
				c-32.5-31.4-66.1-62.2-75-68.9c-59.4-43.7-88.5-63.8-123.2-83.4c-41.4-23-140-69.4-148.4-69.4c-2.8,0-11.8-2.8-20.7-6.7
				c-8.4-3.4-17.9-6.7-21.3-7.3c-2.8-1.1-19.6-5.6-37-10.6c-28.6-8.4-107.5-23-156.2-28c-23-2.8-219-2.8-243.6-0.6
				c-9,1.1-25.8,3.4-36.4,5c-10.6,2.2-33.6,5.6-50.4,8.4c-16.8,2.8-37.5,6.7-45.4,9c-7.8,1.7-17.9,3.9-22.4,5s-15.1,4.5-24.1,8.4
				c-9,3.4-20.2,7.3-25.2,8.4s-14,3.4-20.2,5.6c-6.2,2.8-20.2,7.8-30.8,11.8c-66.6,24.6-191,96.3-245.3,141.1
				c-46.5,38.6-75.6,65-101.9,92.4l-28,29.7l-31.4-16.2c-36.4-19-77.8-63.3-86.8-93c-31.4-104.2,137.8-205,426.2-254.8
				c178.6-30.2,212.2-33,450.8-33c243.6,0,289.5,3.4,471,35.8c201,36.4,355.6,105.3,401,178.1c15.1,25.2,15.1,73.4-1.1,99.1
				c-15.7,25.8-53.8,58.2-87.9,76.2l-28.6,14.6L5593.5,409.5z"/>
		</g>
	</g>
	<g transform="translate(0.000000,650.000000) scale(0.100000,-0.100000)">
		<g>
			
				<linearGradient id="SVGID_00000008141337381028322010000006827126560230891954_" gradientUnits="userSpaceOnUse" x1="975.8676" y1="-1140.597" x2="975.8676" y2="-1141.1682" gradientTransform="matrix(353 0 0 39.648 -336700 48767.6758)">
				<stop  offset="0" style="stop-color:#5C3412"/>
				<stop  offset="1" style="stop-color:#613A19"/>
			</linearGradient>
			<path style="fill:url(#SVGID_00000008141337381028322010000006827126560230891954_);" d="M7302.5,3540
				c-240.8-19.6-398.7-49.8-472.1-90.7c-20.7-11.8-37.5-24.6-37.5-28.6c0-16.2,191-57.1,331.5-70.6
				c198.8-19.6,287.3-23.5,567.3-26.3c507.9-5,830.5,19.6,1046.1,80.6c17.4,5,31.9,10.6,31.9,12.9s-5.6,9-12.3,15.1
				c-42.6,38.6-163.5,71.1-338.8,90.7c-169.1,19.6-229.6,23-365.7,21.8l-131.6-1.1l114.8-2.8c115.9-3.4,140-7.8,140-25.8
				c0-32.5-51.5-84.6-113.7-114.2c-90.2-42.6-167.4-58.2-292.3-57.7c-123.8,0.6-227.4,24.1-304.1,69.4c-37.5,21.8-75,58.8-85.1,82.9
				c-6.7,15.7-6.2,18.5,5,29.7c11.2,11.8,18.5,12.3,131,15.7l118.7,2.8l-137.2,0.6C7422.9,3544.5,7334.9,3542.2,7302.5,3540z"/>
		</g>
	</g>
	<g transform="translate(0.000000,650.000000) scale(0.100000,-0.100000)">
		<g>
			
				<linearGradient id="SVGID_00000164498967136194674280000001959880351884679864_" gradientUnits="userSpaceOnUse" x1="960.7772" y1="-1125.7344" x2="960.7772" y2="-1125.1688" gradientTransform="matrix(540 0 0 101.8064 -517140 115055.8203)">
				<stop  offset="0" style="stop-color:#333333"/>
				<stop  offset="1" style="stop-color:#ACACAC"/>
			</linearGradient>
			<path style="fill:url(#SVGID_00000164498967136194674280000001959880351884679864_);" d="M167.7,1014.6
				c0-31.4,37.5-98.6,75.6-136.1c14-13.4,25.2-27.4,25.2-31.4c0-7.8,59.9-69.4,95.2-98c133.3-107.5,412.2-206.6,714-253.7
				c159.6-24.6,221.2-31.4,378-40.3c399.8-23,818.7,16.8,1134,108.1c169.1,48.7,324.2,119.8,404.9,184.8
				c48.7,39.8,95.8,91.3,89.6,98.6c-0.6,0.6,11.8,13.4,27.4,28c40.9,38.6,80.1,107.5,80.1,140.6c0,7.8-3.9,3.4-11.8-13.4
				c-30.2-66.1-78.4-118.2-159-170.2C2876.4,738,2658,663,2385.3,613.1c-432.9-79-978.3-79-1411.2,0
				c-161.8,29.7-363.4,85.1-459.2,126.6c-174.2,75-282.8,156.8-326.5,244.7C176.6,1006.8,167.7,1020.8,167.7,1014.6z"/>
		</g>
	</g>
	<g transform="translate(0.000000,650.000000) scale(0.100000,-0.100000)">
		<g>
			<g>
				<g>
					<defs>
						<path id="SVGID_00000086655812384671952550000000685982563797520779_" d="M67.7,1574.6c0-53.8,70.6-145,154.6-199.9
							c17.9-11.8,39.8-26.3,48.7-32.5c40.9-28,207.8-100.2,273.8-118.7c16.2-4.5,52.6-14.6,80.1-22.4c180.3-51,376.9-83.4,630-104.7
							c114.8-9.5,441.8-12.9,551.6-5.6c224.6,14.6,237.4,16.2,453,48.7c72.8,10.6,262.6,55.4,343.3,80.1
							c259.8,80.1,439,201,482.2,324.8c11.2,32.5,7.8,45.4-5,17.4c-30.2-66.1-78.4-118.2-159-170.2
							c-144.5-93.5-362.9-168.6-635.6-218.4c-432.9-79-978.3-79-1411.2,0c-161.8,29.7-363.4,85.1-459.2,126.6
							c-174.2,75-282.8,156.8-326.5,244.7C76.6,1566.8,67.7,1580.8,67.7,1574.6z"/>
					</defs>
					<clipPath id="SVGID_00000056399611799054051670000017462569062807331218_">
						<use xlink:href="#SVGID_00000086655812384671952550000000685982563797520779_"  style="overflow:visible;"/>
					</clipPath>
					<path style="clip-path:url(#SVGID_00000056399611799054051670000017462569062807331218_);fill:#FFFFFF;" d="M67.7,1589.8
						v-506.2V1589.8z"/>
					
						<rect x="1428.5" y="1311.3" style="clip-path:url(#SVGID_00000056399611799054051670000017462569062807331218_);fill:#FFFFFF;" width="302.4" height="50.6"/>
					
						<rect x="3093.7" y="1311.3" style="clip-path:url(#SVGID_00000056399611799054051670000017462569062807331218_);fill:#FFFFFF;" width="0.4" height="50.6"/>
				</g>
				<path d="M1615.2,1081.8c-132.8,0-287.8,3.6-360.8,9.6c-255.7,21.5-450.3,53.8-630.9,104.9c-27.4,7.8-63.8,17.9-80,22.4
					c-67,18.7-234.2,91.3-275.3,119.4c-9,6.2-30.7,20.7-48.6,32.4c-85,55.5-156.8,149-156.8,204.1c0,5,3.6,6.1,4.3,6.3
					c3.9,1,6.9,1.7,25.8-34.2c43.2-86.9,152.2-168.4,324-242.5c94.9-41.1,296.2-96.5,458.1-126.2c434.7-79.3,974.7-79.3,1409.4,0
					c271.2,49.6,490.3,124.8,633.8,217.7c78.8,50.9,127.3,102.7,157.2,168.1c5.9,12.9,10.8,20.4,17.1,17.9c2.8-1.1,9.4-3.8-2.7-38.9
					c-43.6-125.1-225.1-247.7-485.4-327.9c-77.7-23.7-268.7-69.2-344-80.3c-212.9-32.1-225.6-34-453.4-48.8
					C1765.5,1083.1,1694.3,1081.8,1615.2,1081.8z M74.4,1559.6c11.1-53.1,75.6-131.6,150.6-180.6c18-11.8,39.8-26.4,48.8-32.5
					c40.6-27.8,206-99.5,272.4-118c16.2-4.5,52.7-14.6,80.1-22.4c180-50.8,374-83.1,629-104.5c116.1-9.6,440.4-12.9,550.8-5.6
					c227.4,14.7,240.1,16.7,452.6,48.7c75,11,265.2,56.3,342.6,79.9c257.3,79.3,436.4,199.5,478.9,321.7c1.8,5.3,3.1,9.7,4.1,13.4
					c-30.8-67.1-80.4-120.2-160.8-172.1c-144.5-93.5-364.9-169.3-637.4-219.1c-435.8-79.5-977.2-79.5-1413,0
					c-162.6,29.8-364.8,85.6-460.3,126.9c-174.1,75-284.8,158.1-329,247.1C80.1,1549.5,76.9,1555.2,74.4,1559.6z M72.7,1574.7l-5,0
					L72.7,1574.7C72.7,1574.6,72.7,1574.7,72.7,1574.7z"/>
			</g>
		</g>
	</g>
	<g transform="translate(0.000000,650.000000) scale(0.100000,-0.100000)">
		<g>
			<g>
				<g>
					<defs>
						<path id="SVGID_00000033335933316035217760000007233169124115696814_" d="M8704.4,1409.6c-1.7-15.1-26.3-43.1-56.6-64.4
							c-109.2-74.5-357.8-128.2-702.8-150.6c-151.2-10.1-637.3-11.8-781.8-2.8c-208.9,12.9-376.9,35.8-516.3,70
							c-126,31.4-205,68.3-251.4,118.7l-23.5,25.8l3.4-63.8c5-89.6,17.9-194.9,43.7-357.8c7.8-52.1,41.4-194.3,62.2-263.2
							c55.4-188.7,134.4-362.3,221.2-487.2c52.1-74.5,61-86.8,75-101.9c7.3-7.8,24.6-26.3,38.6-41.4c23-25.2,55.4-54.9,101.9-93.5
							c53.8-44.2,178.6-116.5,245.3-141.1c10.6-3.9,24.6-9,30.8-11.8c6.2-2.2,15.1-4.5,20.2-5.6s16.2-5,25.2-8.4
							c9-3.9,19.6-7.3,24.1-8.4s14.6-3.4,22.4-5c7.8-2.2,28.6-6.2,45.4-9c16.8-2.8,39.8-6.2,50.4-8.4c10.6-1.7,27.4-3.9,36.4-5
							c24.6-2.2,220.6-2.2,243.6,0.6c48.7,5,127.7,19.6,156.2,28c17.4,5,34.2,9.5,37,10.6c3.4,0.6,12.9,3.9,21.3,7.3
							c9,3.9,17.9,6.7,20.7,6.7c8.4,0,107,46.5,148.4,69.4c34.7,19.6,65.5,40.3,123.2,83.4c59.9,44.8,183.1,183.1,225.1,253.1
							c53.2,89,76.7,131,85.7,156.2c15.7,42,24.6,48.2,56,42.6c44.2-9,171.9-6.7,206.6,3.4c73.4,21.3,101.4,36.4,142.8,77.3
							c33.6,33,43.1,46.5,54.9,79c25.8,67.8,29.1,86.2,28.6,168c-0.6,203.8-65.5,301.3-210.6,316.4c-25.2,2.2-52.6,3.4-61,1.7
							c-9-1.7-15.7-2.2-15.7-1.1s3.4,33.6,7.8,72.2c14.6,126.6,21.3,209.4,19,229.6C8706.1,1409.6,8704.4,1414.6,8704.4,1409.6z
							 M6634.1,1183.4c37-7.3,78.4-16.2,92.4-19.6s40.9-9,59.9-12.3l34.7-6.7l-3.4-73.9l-3.4-73.9l16.2-2.8
							c103-20.2,487.8-43.1,721.3-43.1c282.8,0,612.1,24.6,793,59.4c89,16.8,105.8,20.7,170.8,42.6c66.1,22.4,109.2,42,142.8,66.1
							c24.6,17.4,20.7,3.9-4.5-15.7c-47-37.5-129.9-72.8-226.8-96.3c-37.5-9.5-73.4-18.5-79.5-20.2s-27.4-5-47.6-7.8
							c-20.2-2.8-72.8-10.1-117.6-16.2c-204.4-28.6-535.4-39.2-873.6-29.1c-403.8,12.3-668.6,54.9-823.8,132.7
							c-30.2,15.1-83.4,56-83.4,64.4c0,3.4,7.8-0.6,17.4-8.4c30.8-25.8,128.2-70,128.2-57.7c0,0.6-3.9,31.9-8.4,68.3
							c-4.5,37-8.4,68.3-8.4,69.4s8.4,0,18.5-1.7C6558.5,1198.5,6597.1,1190.6,6634.1,1183.4z M6489,1036.1
							c71.7-36.4,306.3-90.2,443-101.9c39.2-3.4,93-8.4,119.3-11.2c127.1-13.4,306.9-17.9,561.1-15.1
							c249.2,2.8,320.3,6.2,483.3,20.7c146.2,13.4,324.2,45.4,408.8,73.9c49.3,16.2,131.6,54.3,148.4,68.3
							c13.4,11.2,24.6,16.8,20.7,10.6c-7.3-11.8-65.5-53.2-93.5-66.6c-136.6-66.1-362.9-106.4-686-122.6
							c-207.8-10.6-504.6-10.6-708.4,0c-155.1,7.8-208.3,12.9-373.5,36.4c-171.4,23.5-316.4,73.9-379.7,131.6l-28,25.8l30.8-19
							C6452.1,1056.2,6476.1,1042.2,6489,1036.1z M8760.9,931.4c31.4-14.6,47.6-46.5,53.8-105.3c5-50.4,0-95.8-13.4-121.5
							C8771,648,8696,609.9,8598.5,602.1c-25.8-2.2-35.3-1.1-35.3,3.9c0,3.9,6.2,25.8,14.6,48.7c7.8,23,17.4,54.3,21.8,69.4
							c3.9,15.7,14,52.1,22.4,81.2c8.4,29.1,18.5,70.6,23,91.8c3.9,21.3,10.6,41.4,14.6,43.7C8670.8,948.7,8738,942.6,8760.9,931.4z
							"/>
					</defs>
					<clipPath id="SVGID_00000044154362004683866190000010447411237585150366_">
						<use xlink:href="#SVGID_00000033335933316035217760000007233169124115696814_"  style="overflow:visible;"/>
					</clipPath>
					
						<rect x="8678.7" y="756.8" style="clip-path:url(#SVGID_00000044154362004683866190000010447411237585150366_);fill:#FFFFFF;" width="25.6" height="34.9"/>
					
						<rect x="7427.3" y="974.3" style="clip-path:url(#SVGID_00000044154362004683866190000010447411237585150366_);fill:#FFFFFF;" width="227.3" height="20.6"/>
					
						<rect x="7428.3" y="1049.5" style="clip-path:url(#SVGID_00000044154362004683866190000010447411237585150366_);fill:#FFFFFF;" width="228.1" height="28"/>
					<path style="clip-path:url(#SVGID_00000044154362004683866190000010447411237585150366_);fill:#FFFFFF;" d="M6372,1414.6
						V-207.7V1414.6z"/>
					
						<rect x="7540.3" y="522.4" style="clip-path:url(#SVGID_00000044154362004683866190000010447411237585150366_);fill:#FFFFFF;" width="259.6" height="162.2"/>
					
						<rect x="8968.4" y="522.4" style="clip-path:url(#SVGID_00000044154362004683866190000010447411237585150366_);fill:#FFFFFF;" width="0.1" height="162.2"/>
				</g>
				<path d="M7534.1-212c-53.4,0-105.3,0.6-116.5,1.6c-9.2,1.1-26,3.4-36.7,5.1c-7.2,1.5-19.8,3.5-32.1,5.4c-6.3,1-12.7,2-18.3,3
					c-16.3,2.7-37.7,6.7-45.9,9.1c-7.6,1.6-17.7,3.9-22.2,5c-4.9,1.2-15.9,4.7-24.9,8.7c-10.7,4-20.3,7.2-24.3,8.1
					c-5.7,1.3-14.6,3.5-20.8,5.8c-5.5,2.5-16.4,6.5-26.1,10l-4.7,1.7c-66.8,24.7-191.3,96.3-246.7,142
					c-47.2,39.2-79.8,69.1-102.5,94c-8.7,9.4-18.8,20.2-26.9,28.8l-11.7,12.6c-14.5,15.7-24.7,29.8-75.5,102.5
					C6610.8,357.2,6532,530.7,6476.4,720c-20.7,68.8-54.5,211.9-62.3,263.9c-26,164.4-38.7,268.2-43.7,358.3l-4.1,77.8l32.9-36.1
					c45.8-49.6,122.5-85.8,249-117.2c139.8-34.2,308.4-57.1,515.4-69.9c143.1-8.9,632.3-7.1,781.1,2.8
					c342.6,22.2,591.3,75.4,700.3,149.8c31.7,22.3,52.8,48.7,54.4,60.6c0.1,5.4,3.1,6.5,4.9,6.6c5.7,0.3,6.5-4.9,8.4-16.8
					c2.4-21.3-4.6-105.4-19-231c-3.5-30.1-6.3-56.5-7.4-67.1c2.1,0.2,5.1,0.6,9.3,1.4c9.4,1.9,38.1,0.5,62.4-1.6
					c148.2-15.4,214.6-114.6,215.1-321.4c0.6-81.8-2.7-100.9-28.9-169.8c-11.8-32.7-21.8-47.1-56-80.8
					c-42.1-41.5-70.5-56.9-144.9-78.5c-35.6-10.4-164.5-12.5-209-3.5c-27.5,4.9-34.8,2.1-50.3-39.4c-8.7-24.3-29.6-62.5-86.1-157.1
					c-42.5-70.8-165.2-208.8-226.4-254.6c-57-42.6-88.2-63.7-123.7-83.8c-35.8-19.8-139.8-70.1-150.9-70.1c-1.6,0-9.3-2.2-18.7-6.3
					c-6.1-2.4-17.1-6.6-21.9-7.5c-2.2-0.8-7.5-2.3-16.8-4.9c-6-1.7-13-3.7-20.1-5.7c-27.5-8.1-107.1-23-157.1-28.2
					C7649.9-211.4,7591.2-212,7534.1-212z M6410.4,1073.6c4-27.4,8.5-56.7,13.5-88.3c7.8-51.7,41.4-194,62-262.5
					c55.3-188.2,133.6-360.7,220.5-485.8c52.8-75.4,61.1-86.8,74.6-101.4l11.7-12.5c8.1-8.7,18.2-19.4,26.9-28.9
					c22.4-24.6,54.6-54.1,101.4-93.1c53.7-44.2,179.1-116.3,243.8-140.3l4.7-1.7c9.8-3.6,21-7.7,26.5-10.2
					c5.7-2.1,14.8-4.3,19.2-5.3c5.4-1.2,16.9-5.2,25.9-8.6c8.7-3.8,19-7.1,23.5-8.2c4.4-1.1,14.5-3.3,22.2-5
					c7.8-2.2,28.6-6.2,45.1-8.9c5.6-0.9,12-1.9,18.3-2.9c12.4-2,25.1-4,32.3-5.5c10.4-1.6,27.1-3.9,36-5
					c22.8-2.1,218.8-2.3,242.4,0.6c49.7,5.1,128.3,19.8,155.4,27.8c7.2,2.1,14.2,4.1,20.2,5.8c7.6,2.1,14.9,4.2,16.3,4.7l1,0.3
					c2.7,0.4,11.6,3.5,20.2,7c7.9,3.5,18.4,7.1,22.6,7.1c8.6,1,101.9,44.4,146,68.8c35.1,19.8,66.1,40.8,122.6,83.1
					c59.2,44.3,182.7,183.1,223.8,251.7c56.1,93.9,76.8,131.7,85.3,155.4c16.3,43.8,27.3,51.9,61.6,45.8
					c42.6-8.6,170.5-6.6,204.4,3.2c72.4,21,100,35.9,140.7,76c33.3,32.7,42.3,45.7,53.7,77.1c25.6,67.5,28.8,86.1,28.3,166.3
					c-0.5,200.6-64.1,296.7-206.1,311.5c-27.3,2.4-52.4,3.2-59.6,1.7c-16.4-3.1-18.2-1.5-19.7-0.3l-1.8,1.5l-0.1,2.6
					c0,0.9,0.9,10.1,2.4,23.3c-3.1-5.5-10.1-12.6-21.2-21.1c-47.7-38.1-131.1-73.5-228.7-97.2l-42.8-10.8
					c-18.8-4.7-32.9-8.3-36.6-9.3c-7-1.9-30.4-5.5-48.2-8c-20.2-2.8-72.8-10.1-117.6-16.2c-204-28.5-530.9-39.4-874.4-29.2
					c-407,12.4-669.5,54.8-825.9,133.3c-19.1,9.5-61.8,38.6-78.9,57c1.3-9.5,2.7-19.3,4.2-29.3l29.8-18.4
					c16.1-10.2,40.4-24.4,53.3-30.5l0.1,0c70.3-35.7,305.3-89.7,441.1-101.4c39.3-3.4,92.9-8.4,119.4-11.2
					c124.2-13.1,302.3-18,560.5-15.1c244.4,2.7,316.6,5.8,482.9,20.7c148.4,13.6,323.7,45.3,407.6,73.7
					c47.9,15.8,130.2,53.6,146.8,67.4c21.9,18.2,25.9,14.6,27.8,12.9c1.1-1,3.4-3.9,0.3-8.8c-8.4-13.5-68.2-55.3-95.6-68.5
					c-137.5-66.5-362.5-106.8-687.9-123.1c-207.3-10.6-505.5-10.6-708.9,0c-157.3,7.9-209.7,13.1-374,36.4
					c-171.8,23.6-318.3,74.5-382.4,132.9L6410.4,1073.6z M6450.8,1051.5c68.8-51.9,204.5-96.4,362.1-118
					c163.9-23.3,216.2-28.4,373.1-36.4c203.1-10.6,500.8-10.6,707.9,0c324,16.3,547.8,56.2,684.1,122.1c13,6.2,31.8,18.1,49,30.2
					c-33.4-17.4-85.5-40.1-120.9-51.7c-84.6-28.6-260.8-60.4-409.9-74.2c-166.6-14.9-239-18-483.7-20.7
					c-258.6-2.8-437.1,2-561.7,15.2c-26.4,2.8-79.9,7.8-119.2,11.2c-139.5,12-372.2,65.6-444.7,102.4
					C6477.6,1036,6463.8,1043.8,6450.8,1051.5z M6434,1105.7c16.4-12.6,37.1-26.8,53.4-35C6642.4,993,6903.5,951,7309,938.6
					c343-10.2,669.3,0.6,872.7,29.1c44.8,6.2,97.5,13.4,117.6,16.2c22.8,3.2,41.7,6.3,47,7.7c3.7,1,17.9,4.6,36.8,9.4l42.8,10.8
					c96.2,23.4,178.2,58.1,224.9,95.4c1.3,1.1,2.6,2.1,3.8,3.1c-32.3-21.8-74.1-40.6-137.4-62.1c-66-22.2-83.1-26.1-171.5-42.7
					c-182.3-35-508.8-59.4-793.9-59.4c-234.3,0-619,23-722.2,43.2l-20.5,3.5l6.7,147.9l-30.5,5.9c-20,3.5-46.8,9.2-60.1,12.4
					c-13.5,3.2-55.1,12.2-92.2,19.6l0,0c-33.7,6.6-75.1,15-85.3,17.4c-5.7,0.9-9.4,1.5-11.8,1.7c0.7-5.8,2-16.2,3.4-27.7l9.3-76.1
					c3.5-28.4,3.5-28.5,3.5-29.1c0-2.7-1.5-5-4-6.2C6535.7,1052.6,6470.7,1082.7,6434,1105.7z M6819.6,1001.1l11.9-2.1
					c102.9-20.1,486.6-43,720.4-43c284.5,0,610.2,24.4,792,59.3c87.8,16.6,104.8,20.4,170.2,42.4c66.8,22.6,109.1,42.2,141.5,65.4
					c11.1,7.8,19.3,11.9,23.3,6.5c0.1-0.1,0.2-0.3,0.3-0.4c1.3,12.3,2.9,26.8,4.6,40.9c13.1,114.1,20.2,195.9,19.4,223.1
					c-10.4-17.2-31.8-37.4-52.4-51.9c-110.5-75.4-361-129.2-705.4-151.5c-149.1-9.9-639-11.7-782.4-2.8
					c-207.6,12.8-376.8,35.7-517.2,70.1c-128.4,32-206.7,69-253.9,120.2l-14.1,15.5l2.6-49.9c3.3-58.4,9.8-122.7,21.1-205.9
					c2.6,0.6,7.9,0,20.8-10.6c27.7-23.1,102.9-57.1,119.7-58.7c-0.5,4.4-1.7,13.3-3.1,25l-9.3,76.1c-3.5,28.8-4,32.9-4,33.8v2.3
					l1.9,1.7c2.1,1.8,3.7,2.4,22.4-0.7c9.2-2.1,45.7-9.6,85.3-17.4l0,0c38.7-7.6,79.3-16.5,92.6-19.6c13.2-3.2,39.8-8.8,59.6-12.3
					l39-7.5L6819.6,1001.1z M8578.3,596c-9.5,0-14.4,1.2-17.3,3.9c-1.8,1.6-2.7,3.8-2.7,6.2c0,5.2,6.9,28.8,14.9,50.4
					c9.1,26.5,19.7,62.2,21.7,69.1c3.7,14.8,13.5,50.5,22.4,81.2c8.2,28.5,18.3,69.7,22.9,91.5c0.3,1.6,7.8,41.7,17,47
					c13.4,9.4,83,1.9,106-9.3c32.8-15.3,50.3-49,56.6-109.3c5.1-51.3-0.1-97.7-14-124.3c-31-57.9-108.3-97.2-206.8-105.1
					C8590.4,596.3,8583.6,596,8578.3,596z M8568.4,606.9c2.2-0.8,9.1-1.7,29.7,0.2c95.1,7.6,169.4,45,198.7,99.9
					c13,24.9,17.8,69.3,12.9,118.7c-6,57.2-21.2,87.5-50.9,101.2l-0.1,0c-24,11.7-88.1,15.6-96.3,9.9c-2.2-2.1-8.3-17.9-12.5-40.5
					c-4.7-22.1-14.8-63.6-23.1-92.3c-8.8-30.5-18.6-66.1-22.3-81c-2.1-7.1-12.8-43.1-22-69.9C8574.5,631,8569.2,612,8568.4,606.9z"
					/>
			</g>
		</g>
	</g>
	<g transform="translate(0.000000,650.000000) scale(0.100000,-0.100000)">
		<g>
			
				<linearGradient id="SVGID_00000111870235961464397030000009253452865535314845_" gradientUnits="userSpaceOnUse" x1="972.6449" y1="-1141.0776" x2="973.2049" y2="-1141.0776" gradientTransform="matrix(332.9769 0 0 35.8815 -317017.7812 43908.4844)">
				<stop  offset="0" style="stop-color:#000000;stop-opacity:0.9061"/>
				<stop  offset="1" style="stop-color:#000000;stop-opacity:0.9061"/>
			</linearGradient>
			<path style="fill:url(#SVGID_00000111870235961464397030000009253452865535314845_);" d="M8697.3,3054.7
				c-23-17.9-99.7-54.3-152.9-72.2c-51-17.4-215-51.5-296.8-62.2c-51-6.2-144.5-15.1-254.8-23.5c-122.1-9.5-594.2-12.9-726.3-5.6
				c-161.8,9-386.4,29.7-407.7,37.5c-5.6,2.2-8.4,0-8.4-7.8c0-12.9,0.6-13.4,126-29.1c207.2-26.3,642.9-35.3,957.6-19.6
				c323.1,16.2,549.4,56.6,686,122.6c35.8,17.4,106.4,70.6,93.5,70.6C8712.5,3065.4,8705.2,3060.3,8697.3,3054.7z"/>
		</g>
	</g>
	<g transform="translate(0.000000,650.000000) scale(0.100000,-0.100000)">
		<g>
			<g>
				<g>
					<defs>
						<path id="SVGID_00000079477467048812342700000014567308220638437265_" d="M2087.3,4917.3c0-7.3,8.4-12.9,29.7-19.6
							c48.2-16.2,161.3-43.1,198.8-48.2c30.8-3.9,34.7-3.4,34.7,5.6c0,10.6-8.4,12.9-113.7,33c-33.6,6.2-80.1,17.9-103,25.2
							C2083.3,4930.2,2087.3,4929.6,2087.3,4917.3z"/>
					</defs>
					<clipPath id="SVGID_00000141430068490034422100000002958954479697926803_">
						<use xlink:href="#SVGID_00000079477467048812342700000014567308220638437265_"  style="overflow:visible;"/>
					</clipPath>
					
						<rect x="2085.1" y="4883.6" style="clip-path:url(#SVGID_00000141430068490034422100000002958954479697926803_);" width="0.4" height="8.5"/>
					
						<rect x="2205.7" y="4883.6" style="clip-path:url(#SVGID_00000141430068490034422100000002958954479697926803_);" width="26.3" height="8.5"/>
					<path style="clip-path:url(#SVGID_00000141430068490034422100000002958954479697926803_);" d="M2350.5,4845.6v84.6V4845.6z"/>
				</g>
				<path d="M2340.3,4842.2c-5.7,0-13.6,0.9-25.1,2.4c-37,5-150.5,31.8-199.8,48.4c-20.4,6.4-33.1,12.8-33.1,24.3l0,2.4
					c-0.1,3.7-0.2,7.6,3.2,10.1c4.7,3.5,10.4,1.6,41.8-8.9l8.1-2.7c22.6-7.1,69.1-18.9,102.4-25c109.5-21,117.8-22.9,117.8-38
					c0-3.1-0.4-7-3.5-9.8C2349.4,4843.1,2346,4842.2,2340.3,4842.2z M2092.2,4921.2c0-0.4,0-0.9,0-1.3l0-2.6
					c0-4.4,8.6-9.3,26.2-14.8c48.9-16.5,161.4-43.1,198-48c9.8-1.2,26.4-3.3,28.9-1.6l0,0c-0.1,0,0.1,0.6,0.1,2.3
					c0,6.6-18,10.6-109.6,28.1c-33.6,6.2-80.7,18.1-103.6,25.3l-8.2,2.7C2108.1,4916.7,2096.8,4920.4,2092.2,4921.2z"/>
			</g>
		</g>
	</g>
	<g transform="translate(0.000000,650.000000) scale(0.100000,-0.100000)">
		<g>
			<g>
				<g>
					<defs>
						<path id="SVGID_00000170251890388802404020000000770226865512763550_" d="M7506.9,4487.6c-435.1-23.5-701.1-73.4-827.1-154
							c-34.2-21.8-66.1-58.8-66.1-76.2c0-16.2,37-57.1,71.7-79.5c113.1-71.7,374.1-124.9,717.9-146.2c144.5-9,630.6-7.3,781.8,2.8
							c345.5,22.4,593.6,76.2,702.8,151.2c29.7,20.2,51.5,45.4,57.7,67.8c5,16.2-21.8,51-59.4,76.7
							c-95.2,65-305.2,114.8-592.5,140.6C8020.9,4495.4,7754.4,4501,7506.9,4487.6z M8162.1,4430.5c37-3.4,104.7-9,151.2-12.3
							c297.9-21.3,518-74.5,567.8-137.8c16.2-20.7,14.6-32.5-8.4-54.9c-24.6-24.1-58.2-39.8-119.8-57.1
							c-125.4-34.2-211.7-48.7-378-63.8c-218.4-19.6-368.5-24.1-683.2-20.7c-438.5,4.5-682.6,26.9-864.6,80.1
							c-16.2,5-35.8,10.1-43.7,11.2c-42,7.8-119.3,59.9-119.3,80.6c0,2.8,8.4,14.6,17.9,25.8c49.3,56.6,224,104.2,469.3,128.2
							c221.8,21.8,413.8,30.2,683.2,28.6C7977.8,4437.2,8125.1,4433.8,8162.1,4430.5z"/>
					</defs>
					<clipPath id="SVGID_00000016068931482780163760000016477645289666272690_">
						<use xlink:href="#SVGID_00000170251890388802404020000000770226865512763550_"  style="overflow:visible;"/>
					</clipPath>
					
						<rect x="7669" y="4242.3" style="clip-path:url(#SVGID_00000016068931482780163760000016477645289666272690_);fill:#FFFFFF;" width="223.3" height="36"/>
					
						<rect x="7663.3" y="4238" style="clip-path:url(#SVGID_00000016068931482780163760000016477645289666272690_);fill:#FFFFFF;" width="233.2" height="47.8"/>
					
						<rect x="8948.1" y="4238" style="clip-path:url(#SVGID_00000016068931482780163760000016477645289666272690_);fill:#FFFFFF;" width="0.4" height="47.8"/>
				</g>
				<path d="M7735,4021c-138.7,0-268.9,1.9-332,5.8c-344,21.3-606.5,74.8-720.3,146.9c-33.5,21.6-74,63.8-74,83.7
					c0,21,36.1,59.7,68.4,80.4c128,81.9,391.6,131.1,829.5,154.8l0,0c249.3,13.5,514.2,7.9,787.5-16.8
					c287.8-25.8,499-76,594.9-141.4c35.2-24.2,67.8-61.6,61.3-82.3c-6.3-23-28.6-49.3-59.6-70.4
					c-110.2-75.7-360.7-129.7-705.3-152.1C8101.9,4024,7911.5,4021,7735,4021z M7507.1,4482.6c-430.2-23.3-699.9-73.4-824.7-153.2
					c-35.3-22.6-63.8-57.8-63.8-72c0-13.1,34.3-52.7,69.4-75.3c112.3-71.2,373.2-124.2,715.5-145.4c143.1-8.9,632.3-7.1,781.1,2.8
					c342.9,22.2,591.6,75.6,700.3,150.3c29.1,19.8,50,44.1,55.7,65c3.9,12.5-19.9,45.5-57.4,71.3c-94.4,64.4-304,114-590.1,139.7
					C8020.4,4490.5,7755.9,4496.1,7507.1,4482.6L7507.1,4482.6z M7861.8,4077.8c-51.3,0-107.4,0.4-170.2,1
					c-440.9,4.5-683.8,27-866,80.3c-16.2,5-35.4,10-43,11c-42.7,8-123.6,60.4-123.6,85.6c0,5.7,12,20.6,19.1,29
					c49.9,57.2,226.5,105.8,472.6,130c225.7,22.2,417.4,30.3,683.7,28.6c148.2-1.2,292.3-4.6,328-7.9l0,0
					c35.6-3.2,103.5-8.9,151.1-12.3c301.6-21.5,520.5-75,571.4-139.6c18-23,16-37.4-8.8-61.6c-24.8-24.2-59-40.6-122-58.4
					c-126.4-34.4-211.4-48.8-378.9-64C8199.5,4083.8,8070.1,4077.8,7861.8,4077.8z M7768.8,4433.5c-232.8,0-410.7-8.4-617-28.7
					c-243.6-23.9-417.8-71.2-466-126.5c-10-11.7-16.1-21-16.8-23.1c0.1-16.1,73.6-67.3,115.3-75.1c7.9-1.1,27.4-6.1,44.2-11.3
					c181.2-53,423.3-75.4,863.2-79.9c317.2-3.4,463.9,1.1,682.7,20.7c166.8,15.2,251.4,29.5,377.1,63.7
					c61.2,17.2,94.2,32.9,117.7,55.9c22.4,21.8,21.7,30.7,8,48.2c-48.4,61.5-269.9,114.8-564.3,135.9
					c-47.7,3.5-115.7,9.1-151.3,12.3c-35.5,3.2-179.2,6.7-327.2,7.8C7812,4433.5,7790.2,4433.5,7768.8,4433.5z"/>
			</g>
		</g>
	</g>
	<g transform="translate(0.000000,650.000000) scale(0.100000,-0.100000)">
		<g>
			
				<linearGradient id="SVGID_00000034791420732791453570000006619184905913494714_" gradientUnits="userSpaceOnUse" x1="967.8973" y1="-1095.8167" x2="968.4573" y2="-1095.8167" gradientTransform="matrix(27.0445 0 0 15.8753 -24034.3535 21691.8965)">
				<stop  offset="0" style="stop-color:#000000;stop-opacity:0.8017"/>
				<stop  offset="1" style="stop-color:#000000;stop-opacity:0.8017"/>
			</linearGradient>
			
				<path style="fill:url(#SVGID_00000034791420732791453570000006619184905913494714_);stroke:#000000;stroke-width:2;stroke-miterlimit:10;" d="
				M2145.7,4334.2c19-20.7,59.9-47.6,102.5-67.2c22.4-10.1,42-17.4,43.1-15.7c7.3,6.7-5,20.7-21.3,24.6
				c-21.8,4.5-62.7,24.6-104.7,51.5C2142.9,4341.4,2137.3,4343.7,2145.7,4334.2z"/>
		</g>
	</g>
	<g transform="translate(0.000000,650.000000) scale(0.100000,-0.100000)">
		<g>
			<g>
				<g>
					<defs>
						<path id="SVGID_00000072270061737326514400000016762048559445392264_" d="M7079.6,2600.9c-3.9-2.2-10.6-22.4-14.6-43.7
							c-4.5-21.3-14.6-62.7-23-91.8c-8.4-29.1-18.5-65.5-22.4-81.2c-4.5-15.1-14-46.5-21.8-69.4c-8.4-23-14.6-44.8-14.6-48.7
							c0-16.2,113.7,3.9,163.5,29.1c71.7,36.4,97.4,93,87.9,191c-6.2,58.8-22.4,90.7-53.8,105.3
							C7158,2602.6,7090.8,2608.7,7079.6,2600.9z"/>
					</defs>
					<clipPath id="SVGID_00000143611536976350509740000009661025430026427582_">
						<use xlink:href="#SVGID_00000072270061737326514400000016762048559445392264_"  style="overflow:visible;"/>
					</clipPath>
					<path style="clip-path:url(#SVGID_00000143611536976350509740000009661025430026427582_);fill:#FFFFFF;" d="M6983.3,2608.7
						v-359V2608.7z"/>
					
						<rect x="7097.3" y="2411.3" style="clip-path:url(#SVGID_00000143611536976350509740000009661025430026427582_);fill:#FFFFFF;" width="25.3" height="35.9"/>
					
						<rect x="7240" y="2411.3" style="clip-path:url(#SVGID_00000143611536976350509740000009661025430026427582_);fill:#FFFFFF;" width="0.8" height="35.9"/>
				</g>
				<path d="M7002.6,2255.1c-9.1,0-16.1,1-19.9,3.4c-3.9,2.4-4.5,5.7-4.5,7.5c0,5.2,6.9,28.8,14.9,50.4
					c9.1,26.5,19.7,62.2,21.7,69.1c3.7,14.8,13.5,50.5,22.4,81.2c8.2,28.5,18.3,69.7,22.9,91.5c0.3,1.6,7.6,41,16.7,46.8
					c14.1,9.5,83.3,2,106.3-9.2c32.8-15.2,50.2-48.9,56.5-109.3c9.7-100.1-17.4-158.7-90.6-195.9
					C7114.1,2273,7040.3,2255.1,7002.6,2255.1z M6988.3,2266.8c11.2-6.8,106.4,7.6,156.2,32.8c69.9,35.5,94.6,89.4,85.2,186
					c-6,57.2-21.2,87.5-50.9,101.2c-24.1,11.7-88.2,15.7-96.4,10l-0.1-0.1c-2.2-2.4-8.3-18-12.4-40.4c-4.6-22.1-14.8-63.6-23.1-92.3
					c-8.8-30.5-18.6-66.1-22.3-81c-2.1-7.1-12.8-43.1-22-69.8C6994.4,2290.8,6989.1,2271.7,6988.3,2266.8z"/>
			</g>
		</g>
	</g>
	<g transform="translate(0.000000,650.000000) scale(0.100000,-0.100000)">
		<g>
			
				<linearGradient id="SVGID_00000109749385488772402430000000733552661818790826_" gradientUnits="userSpaceOnUse" x1="968.9102" y1="-1120.2305" x2="969.4702" y2="-1120.2305" gradientTransform="matrix(26 0 0 16.3157 -23050.0059 22273.6094)">
				<stop  offset="0" style="stop-color:#000000;stop-opacity:0.7668"/>
				<stop  offset="1" style="stop-color:#000000;stop-opacity:0.7668"/>
			</linearGradient>
			
				<path style="fill:url(#SVGID_00000109749385488772402430000000733552661818790826_);stroke:#000000;stroke-width:2;stroke-miterlimit:10;" d="
				M2141.7,4040.7c0-10.6,57.7-52.1,99.1-71.7c21.8-10.1,41.4-18.5,43.1-18.5c1.7,0,3.4,5,3.4,11.2c0,7.3-3.9,11.2-10.1,11.2
				c-14.6,0-97.4,41.4-118.2,59.4C2149.5,4040.2,2141.7,4044.1,2141.7,4040.7z"/>
		</g>
	</g>
	<g transform="translate(0.000000,650.000000) scale(0.100000,-0.100000)">
		<g>
			<g>
				<g>
					<defs>
						<path id="SVGID_00000052085881574088313700000015484437301792745878_" d="M2092.4,4606.3c2.2-7.8,14-14.6,40.3-22.4
							c48.7-15.1,146.7-38.1,181.4-42.6c24.1-3.4,26.3-2.2,26.3,7.8c0,6.7-1.7,11.8-3.9,11.8c-14.6,0.6-193.8,39.8-213.9,47
							C2091.3,4619.2,2089,4619.2,2092.4,4606.3z"/>
					</defs>
					<clipPath id="SVGID_00000131346498061696944930000015685471062756333485_">
						<use xlink:href="#SVGID_00000052085881574088313700000015484437301792745878_"  style="overflow:visible;"/>
					</clipPath>
					
						<rect x="2090" y="4574.5" style="clip-path:url(#SVGID_00000131346498061696944930000015685471062756333485_);" width="0.2" height="8.1"/>
					
						<rect x="2203.4" y="4574.5" style="clip-path:url(#SVGID_00000131346498061696944930000015685471062756333485_);" width="24.9" height="8.1"/>
				</g>
				<path d="M2331.2,4534.6c-4.4,0-10.1,0.7-17.8,1.8c-34.9,4.5-133.7,27.7-182.2,42.7c-28.5,8.5-40.8,15.7-43.6,25.8l0,0.1
					c-1.2,4.6-2.7,10.4,1.2,14c4.7,4.3,12.3,1.9,35.6-6.4c19-6.9,197.7-46.2,212.4-46.8c0,0,0,0,0,0c5.4,0,8.7-6.3,8.7-16.8
					c0-4-0.3-8.6-3.8-11.6C2339.3,4535.5,2336.1,4534.6,2331.2,4534.6z M2097.2,4607.6c2.6-8.7,28.4-16.4,36.9-18.9
					c48.2-15,146.1-37.9,180.7-42.4c5.5-0.8,18.3-2.6,20.4-1.2c0,0.1,0.3,0.9,0.3,4c0,3.4-0.5,5.7-0.9,6.9
					c-25.2,2.9-193.9,40-213.6,47.2c-8.5,3-19.7,7-24.5,7.8C2096.6,4610.3,2096.8,4609.2,2097.2,4607.6z M2336.2,4556
					c0.1,0,0.2,0,0.4,0C2336.4,4556,2336.3,4556,2336.2,4556z"/>
			</g>
		</g>
	</g>
	<g transform="translate(0.000000,650.000000) scale(0.100000,-0.100000)">
		<g>
			<g>
				<g>
					<defs>
						<path id="SVGID_00000134965873682958102560000011118293551308549534_" d="M2130.5,5462.4c0-1.1,3.9-32.5,8.4-69.4
							c4.5-36.4,8.4-68.3,8.4-70.6c0-6.7,86.8-32.5,149.5-44.2c33.6-6.7,72.8-14.6,87.4-17.9c14.6-2.8,27.4-5,28.6-3.9
							c1.1,1.1,3.4,35.3,5,75.6l3.4,72.8l-34.7,6.7c-19,3.4-45.9,9-59.9,12.3c-14,3.4-55.4,12.3-92.4,19.6
							c-37,7.3-75.6,15.1-85.1,17.4C2138.9,5462.4,2130.5,5463.5,2130.5,5462.4z"/>
					</defs>
					<clipPath id="SVGID_00000072279170744644646850000006125463839584927158_">
						<use xlink:href="#SVGID_00000134965873682958102560000011118293551308549534_"  style="overflow:visible;"/>
					</clipPath>
					
						<rect x="2261.3" y="5348.9" style="clip-path:url(#SVGID_00000072279170744644646850000006125463839584927158_);fill:#FFFFFF;" width="29.1" height="20.8"/>
				</g>
				<path d="M2411.1,5251c-4,0-11.7,1.2-27.9,4.3c-14.6,3.4-53.1,11.1-87,17.9c-18.6,3.5-153.9,33.2-153.9,49.2
					c-0.1,2.9-4.7,40.1-8.4,69.9l-4.6,37.7c-3.4,27.6-3.8,31.5-3.8,32.4v2.3l1.9,1.7c2.1,1.7,3.7,2.4,22.4-0.7
					c9.1-2.1,45.6-9.6,85.3-17.4c38.6-7.6,79.3-16.4,92.6-19.6c13.2-3.2,39.7-8.7,59.6-12.3l39-7.6l-3.6-77.1
					c-3.1-75.6-5.1-77.5-6.5-78.9C2415.2,5251.7,2414.2,5251,2411.1,5251z M2152.1,5324.2c9.8-7,83.6-29.5,145.6-41.1
					c34.5-6.9,73-14.6,87.6-18c13.1-2.5,19.8-3.6,23.3-3.9c1,9.1,2.7,35.6,4.2,71l3.2,68.5l-30.5,5.9c-20,3.5-46.8,9.2-60.1,12.4
					c-13.5,3.3-55.2,12.3-92.2,19.6c-33.8,6.7-75.2,15-85.3,17.4c-5.7,0.9-9.4,1.5-11.8,1.7c0.7-5.6,1.8-15.2,3.2-26.4l4.6-37.7
					C2149.2,5349.8,2151.6,5330.1,2152.1,5324.2z M2152.3,5322.5c0,0,0-0.1,0-0.1C2152.3,5322.5,2152.3,5322.5,2152.3,5322.5z"/>
			</g>
		</g>
	</g>
	<line class="st84" x1="341" y1="131" x2="457" y2="300"/>
	<line class="st84" x1="558.5" y1="303.5" x2="673.5" y2="306.5"/>
	<line class="st84" x1="579.5" y1="328.5" x2="681.5" y2="339.5"/>
	<line class="st84" x1="579.5" y1="334.5" x2="681.5" y2="356.5"/>
	<line class="st84" x1="596.5" y1="358.5" x2="699.5" y2="402.5"/>
	<line class="st84" x1="526.5" y1="411.5" x2="698.5" y2="523.5"/>
	<line class="st84" x1="587.5" y1="292.5" x2="664.5" y2="232.5"/>
	<line class="st84" x1="544.5" y1="285.5" x2="666.5" y2="140.5"/>
	<line class="st84" x1="470.5" y1="200.5" x2="465.5" y2="141.5"/>
	<line class="st84" x1="379.5" y1="326.5" x2="248.5" y2="127.5"/>
	<line class="st84" x1="378.5" y1="333.5" x2="242.5" y2="170.5"/>
	<line class="st84" x1="378.5" y1="337.5" x2="242.5" y2="200.5"/>
	<line class="st84" x1="362" y1="325" x2="235" y2="227"/>
	<line class="st84" x1="364" y1="331" x2="234" y2="256"/>
	<line class="st84" x1="525" y1="454" x2="494" y2="624"/>
	<line class="st84" x1="362" y1="413" x2="295" y2="413"/>
	<line class="st84" x1="345" y1="464" x2="314" y2="488"/>
	<line class="st84" x1="375" y1="481" x2="324" y2="548"/>
</g>
</svg>
