<?xml version="1.0" encoding="utf-8"?>
<!-- Generator: Adobe Illustrator 26.5.0, SVG Export Plug-In . SVG Version: 6.00 Build 0)  -->
<svg version="1.1" id="图层_1" xmlns="http://www.w3.org/2000/svg" xmlns:xlink="http://www.w3.org/1999/xlink" x="0px" y="0px"
	 viewBox="0 0 800 360" style="enable-background:new 0 0 800 360;" xml:space="preserve">
<style type="text/css">
	.st0{fill:none;}
	.st1{fill:#D3D3D3;}
	.st2{fill:url(#SVGID_00000035517920187946252080000010966986971919885728_);}
	.st3{fill:url(#SVGID_00000181071572221989116080000013407777852151958447_);}
	.st4{fill:url(#SVGID_00000124871460666399941330000003294251133321273012_);}
	.st5{fill:url(#SVGID_00000113316043747754208260000005209767385200325262_);}
	.st6{fill:url(#SVGID_00000031174656660278118750000009437153160035515267_);}
	.st7{fill:url(#SVGID_00000083061868926033371430000018172154637187180216_);}
	.st8{fill:url(#SVGID_00000051346950166018303180000012649431502492482230_);}
	.st9{fill:url(#SVGID_00000003097882026495924550000012458596734759565706_);}
	.st10{fill:url(#SVGID_00000150813345848082205520000010021028749128325814_);}
	.st11{fill:url(#SVGID_00000169517875325642850820000015863660522162837897_);}
	.st12{fill:url(#SVGID_00000090987522645669026340000003442623605543857055_);}
	.st13{fill:url(#SVGID_00000144337874429854416490000013185400060418227881_);}
	.st14{fill:url(#SVGID_00000083069549658980420630000000499933968345604796_);}
	.st15{fill:url(#SVGID_00000171715704509168501310000001775268897715736718_);}
	.st16{fill:url(#SVGID_00000094602621181412190950000008871591754577401790_);}
	.st17{fill:url(#SVGID_00000026157733923959707100000003904940506439926410_);}
	.st18{fill:url(#SVGID_00000005262754025559863360000005830257878450547860_);}
	.st19{fill:url(#SVGID_00000051351251036799150430000005637182683249032620_);}
	.st20{fill:url(#SVGID_00000126304289258610620760000017652974799028360608_);}
	.st21{fill:url(#SVGID_00000140704008546899817280000010229490065096026500_);}
	.st22{fill:url(#SVGID_00000061444365550286396230000006305997595129929903_);}
	.st23{fill:url(#SVGID_00000163037305581048298200000010772736478475729056_);}
	
		.st24{fill:url(#SVGID_00000026879554679777951380000018304468017645150884_);stroke:#000000;stroke-width:1.000000e-02;stroke-miterlimit:1;}
	
		.st25{fill:url(#SVGID_00000036221948207910160980000017513655811454280579_);stroke:#000000;stroke-width:1.000000e-02;stroke-miterlimit:1;}
	.st26{fill:none;stroke:#FF0000;stroke-width:3;stroke-miterlimit:10;}
	.st27{fill:none;stroke:#3FA9F5;stroke-width:4;stroke-linecap:round;stroke-miterlimit:10;}
	.st28{fill:#3FA9F5;}
</style>
<pattern  y="360" width="40" height="40" patternUnits="userSpaceOnUse" id="SVGID_1_" viewBox="0 -40 40 40" style="overflow:visible;">
	<g>
		<rect y="-40" class="st0" width="40" height="40"/>
		<g>
			<rect y="-40" class="st0" width="40" height="40"/>
			<g>
				<rect y="-40" class="st0" width="40" height="40"/>
				<g>
					<rect y="-40" class="st0" width="40" height="40"/>
					<g>
						<rect y="-40" class="st0" width="40" height="40"/>
						<g>
							<rect y="-40" class="st0" width="40" height="40"/>
							<g>
								<rect y="-40" class="st0" width="40" height="40"/>
								<g>
									<rect y="-40" class="st0" width="40" height="40"/>
									<rect y="-40" class="st0" width="40" height="40"/>
									<rect y="-20" class="st1" width="20" height="20"/>
									<rect x="20" y="-40" class="st1" width="20" height="20"/>
								</g>
							</g>
						</g>
					</g>
				</g>
			</g>
		</g>
	</g>
</pattern>
<g id="图层_1_00000157288352502879121620000001827616579138560703_">
	
		<pattern  id="SVGID_00000147903097124767484600000006228972200856732058_" xlink:href="#SVGID_1_" patternTransform="matrix(0.8889 0 0 -1 -5877.522 -66280.7422)">
	</pattern>
	<rect y="0.5" style="fill:url(#SVGID_00000147903097124767484600000006228972200856732058_);" width="800" height="360"/>
</g>
<g id="图层_2_00000095308818835489184870000002149091850158331799_">
	<g transform="translate(0.000000,650.000000) scale(0.100000,-0.100000)">
		<g>
			
				<linearGradient id="SVGID_00000176753433636095729700000016278998241079974331_" gradientUnits="userSpaceOnUse" x1="-194232.4219" y1="84285.0703" x2="-194265.2812" y2="84252.25" gradientTransform="matrix(8.295002e-06 0 0 1.316000e-05 -64409.5039 -51628.2461)">
				<stop  offset="0" style="stop-color:#FBEFD8"/>
				<stop  offset="1" style="stop-color:#FBF0D9"/>
			</linearGradient>
			<path style="fill:url(#SVGID_00000176753433636095729700000016278998241079974331_);" d="M6164.3,6407.8
				c-7.8-1.1-30.2-6.7-49.8-12.3c-45.9-12.3-80.6-43.7-86.2-77.3c-6.7-38.6-3.9-77.3,6.7-100.2c9-20.2,61-81.2,69.4-81.2
				c5,0,82.9-81.8,90.7-95.8c35.3-64.4,41.4-86.8,35.8-131c-4.5-32.5-7.8-47.6-21.8-95.2c-7.8-24.6-46.5-103.6-62.7-127.1
				c-13.4-19-7.8-19.6,32.5-1.7c37,16.2,100.8,75,112.6,103.6c5,10.6,15.7,28.6,24.6,39.8c9,11.2,16.2,22.4,16.2,24.1
				c0,2.2,9,21.3,19.6,43.1c24.6,49.8,25.8,81.8,5,126c-7.8,16.8-16.8,30.2-19.6,30.2c-2.8,0-24.6,17.9-48.2,39.8
				c-24.1,21.8-49.8,44.2-57.7,48.7c-7.8,5-20.7,15.7-28.6,23.5c-7.8,7.8-21.3,18.5-29.1,23.5c-16.2,11.2-25.2,48.7-16.2,68.3
				c3.4,6.2,7.3,16.2,9,21.3c3.4,12.3,35.8,25.8,73.4,31.4c35.8,5.6,98-5.6,124.9-22.4c11.2-7.3,29.7-17.4,40.3-22.4
				s30.2-17.4,43.1-27.4c25.2-19,40.9-19,40.9,0.6c0,21.3-63.8,98-109.2,131.6C6345.8,6394.4,6217,6417.4,6164.3,6407.8z"/>
		</g>
	</g>
	<g transform="translate(0.000000,650.000000) scale(0.100000,-0.100000)">
		<g>
			
				<linearGradient id="SVGID_00000005264311146481934800000009868161589719172285_" gradientUnits="userSpaceOnUse" x1="-158654.3594" y1="280057.75" x2="-158656.3906" y2="279755.375" gradientTransform="matrix(5.400000e-05 0 0 3.876000e-05 -226241.2656 -218400.4062)">
				<stop  offset="0" style="stop-color:#7F7F7F"/>
				<stop  offset="1" style="stop-color:#CACACA"/>
			</linearGradient>
			<path style="fill:url(#SVGID_00000005264311146481934800000009868161589719172285_);" d="M5915.1,5646.2
				c-502.9-27.4-783.4-89.6-874.2-194.9l-20.2-23l2.8-75.6c3.9-94.6,15.7-191,43.7-369.6c23-147.3,85.7-357.3,151.8-510.7
				c15.7-35.8,26.3-67.8,24.6-71.1c-2.2-3.4-12.9-7.3-24.6-9.5c-48.7-9-222.3-75.6-291.2-112c-113.1-59.9-184.2-123.2-221.2-197.1
				c-18.5-37.5-20.7-46.5-20.7-85.1s2.2-47.6,20.7-84.6c43.7-87.9,152.3-169.7,326.5-244.7c95.8-41.4,297.4-96.9,459.2-126.6
				c432.9-79,978.3-79,1411.2,0c272.7,49.8,491.1,124.9,635.6,218.4c113.7,73.4,168.6,150.1,170.2,238c1.1,39.2-0.6,45.4-21.8,86.8
				c-37,72.2-91.3,121.5-201,183.7c-76.2,43.7-222.3,100.8-318.1,125.4c-20.7,5.6-38.1,12.3-39.2,15.7
				c-3.9,11.2,23.5,44.2,35.3,42.6c5.6-1.1,50.4-3.4,99.7-5c95.8-3.4,117,0,192.6,30.8c53.2,21.3,111.4,80.1,131,132.7
				c25.8,67.8,29.1,86.2,28.6,168c-0.6,203.8-65.5,301.3-210.6,316.4c-25.2,2.2-53.2,3.4-61.6,1.7l-16.2-3.4l3.4,26.3
				c13.4,105.3,25.8,237.4,25.8,272.7c0,25.8-2.8,35.3-15.7,53.2c-63.8,87.4-290.6,152.9-639.5,183.7
				C6429.2,5654.1,6162.6,5659.7,5915.1,5646.2z"/>
		</g>
	</g>
	<g transform="translate(0.000000,650.000000) scale(0.100000,-0.100000)">
		<g>
			
				<linearGradient id="SVGID_00000127044781650153832310000001108956280859803838_" gradientUnits="userSpaceOnUse" x1="3338.0432" y1="170304.7812" x2="3338.0432" y2="170384.7188" gradientTransform="matrix(1.427000e-05 0 0 3.567000e-06 -85698.1562 8674.0605)">
				<stop  offset="0" style="stop-color:#7A583B"/>
				<stop  offset="1" style="stop-color:#91755C"/>
			</linearGradient>
			<path style="fill:url(#SVGID_00000127044781650153832310000001108956280859803838_);" d="M5925.2,5459.8
				c-112.6-3.4-119.8-3.9-131-15.7c-11.2-11.2-11.8-14-5-29.7c10.1-24.1,47.6-61,85.1-82.9c76.7-45.4,180.3-68.9,304.1-69.4
				c124.9-0.6,202.2,15.1,292.9,57.7c67.8,32.5,126,96.9,110.3,122.1c-1.7,3.4-12.9,8.4-24.1,11.2
				C6531.7,5459.8,6086.5,5464.8,5925.2,5459.8z"/>
		</g>
	</g>
	<g transform="translate(0.000000,650.000000) scale(0.100000,-0.100000)">
		<g>
			
				<linearGradient id="SVGID_00000088132611285300632530000002421933891061046166_" gradientUnits="userSpaceOnUse" x1="3671.7729" y1="169978.5938" x2="3671.7729" y2="170165.0625" gradientTransform="matrix(3.329000e-05 0 0 3.472000e-06 -152638.6406 8686.3193)">
				<stop  offset="0" style="stop-color:#0E0E0E"/>
				<stop  offset="1" style="stop-color:#2E2E2E"/>
			</linearGradient>
			<path style="fill:url(#SVGID_00000088132611285300632530000002421933891061046166_);" d="M7305.6,5117
				c-30.8-22.4-76.7-43.7-141.7-65.5s-81.8-25.8-170.8-42.6c-180.9-34.7-510.2-59.4-793-59.4c-234.1,0-595.8,21.3-723,43.1
				c-15.7,2.2-18.5,1.1-18.5-8.4s6.2-11.8,43.7-17.4c188.7-28,333.8-35.8,692.7-35.8c344.4-0.6,453,5,635.6,30.2
				c44.8,6.2,97.4,13.4,117.6,16.2c20.2,2.8,41.4,6.2,47.6,7.8c6.2,1.7,42.6,10.6,81.2,20.2c96.9,24.1,184.8,62.2,229.6,100.2
				C7329.1,5124.3,7328.6,5133.3,7305.6,5117z"/>
		</g>
	</g>
	<g transform="translate(0.000000,650.000000) scale(0.100000,-0.100000)">
		<g>
			
				<linearGradient id="SVGID_00000124842072018214339950000014734260050839096756_" gradientUnits="userSpaceOnUse" x1="3234.0227" y1="169592.2969" x2="3234.0227" y2="169815.1875" gradientTransform="matrix(3.980000e-05 0 0 4.689000e-06 -176027.8125 1668.2543)">
				<stop  offset="0" style="stop-color:#C1C0BF"/>
				<stop  offset="1" style="stop-color:#EDEDED"/>
			</linearGradient>
			<path style="fill:url(#SVGID_00000124842072018214339950000014734260050839096756_);" d="M5817.1,5588
				c-361.8-22.4-549.9-52.6-661.9-104.7c-43.7-20.7-82.9-53.8-82.9-70c0-13.4,49.3-52.6,84-67.2c35.3-14,37-14.6,44.8-4.5
				c23.5,28.6,92.4,54.3,224,83.4c31.9,7.3,202.7,26.3,299,34.2c93.5,7.3,848.4,7.3,935.8,0c110.3-9.5,264.3-28,306.9-36.4
				c105.8-22.4,183.1-51.5,203.8-77.3c7.8-10.1,13.4-12.3,24.1-9.5c47,12.9,106.4,56.6,106.4,77.8c0,15.1-20.2,38.1-46.5,53.2
				c-89,52.1-282.2,91.8-533.1,109.8c-46.5,3.4-114.2,9-151.2,12.3c-37,3.4-184.2,6.7-327.6,7.8
				C6037.8,5598.1,5947,5596.4,5817.1,5588z"/>
		</g>
	</g>
	<g transform="translate(0.000000,650.000000) scale(0.100000,-0.100000)">
		<g>
			
				<linearGradient id="SVGID_00000155840214802375748420000007839978356187609783_" gradientUnits="userSpaceOnUse" x1="4777" y1="169834.375" x2="4777" y2="170010.7656" gradientTransform="matrix(3.150000e-05 0 0 7.210001e-06 -146625.2656 -17252.6152)">
				<stop  offset="0" style="stop-color:#6B6B6B"/>
				<stop  offset="1" style="stop-color:#B6B6B6"/>
			</linearGradient>
			<path style="fill:url(#SVGID_00000155840214802375748420000007839978356187609783_);" d="M6891.8,4068.2
				c-32.5-31.4-66.1-62.2-75-68.9c-59.4-43.7-88.5-63.8-123.2-83.4c-41.4-23-140-69.4-148.4-69.4c-2.8,0-11.8-2.8-20.7-6.7
				c-8.4-3.4-17.9-6.7-21.3-7.3c-2.8-1.1-19.6-5.6-37-10.6c-28.6-8.4-107.5-23-156.2-28c-23-2.8-219-2.8-243.6-0.6
				c-9,1.1-25.8,3.4-36.4,5c-10.6,2.2-33.6,5.6-50.4,8.4c-16.8,2.8-37.5,6.7-45.4,9c-7.8,1.7-17.9,3.9-22.4,5s-15.1,4.5-24.1,8.4
				c-9,3.4-20.2,7.3-25.2,8.4c-5,1.1-14,3.4-20.2,5.6c-6.2,2.8-20.2,7.8-30.8,11.8c-66.6,24.6-191,96.3-245.3,141.1
				c-46.5,38.6-75.6,65-101.9,92.4l-28,29.7l-31.4-16.2c-36.4-19-77.8-63.3-86.8-93c-31.4-104.2,137.8-205,426.2-254.8
				c178.6-30.2,212.2-33,450.8-33c243.6,0,289.5,3.4,471,35.8c201,36.4,355.6,105.3,401,178.1c15.1,25.2,15.1,73.4-1.1,99.1
				c-15.7,25.8-53.8,58.2-87.9,76.2l-28.6,14.6L6891.8,4068.2z"/>
		</g>
	</g>
	<g transform="translate(0.000000,650.000000) scale(0.100000,-0.100000)">
		<g>
			
				<linearGradient id="SVGID_00000154386549601976036100000007111084304777419942_" gradientUnits="userSpaceOnUse" x1="-159167.25" y1="280590" x2="-159167.25" y2="280392.3125" gradientTransform="matrix(3.530000e-05 0 0 3.965000e-06 -160097.8125 6106.2954)">
				<stop  offset="0" style="stop-color:#5C3412"/>
				<stop  offset="1" style="stop-color:#613A19"/>
			</linearGradient>
			<path style="fill:url(#SVGID_00000154386549601976036100000007111084304777419942_);" d="M5710.7,5458.6
				c-240.8-19.6-398.7-49.8-472.1-90.7c-20.7-11.8-37.5-24.6-37.5-28.6c0-16.2,191-57.1,331.5-70.6
				c198.8-19.6,287.3-23.5,567.3-26.3c507.9-5,830.5,19.6,1046.1,80.6c17.4,5,31.9,10.6,31.9,12.9c0,2.2-5.6,9-12.3,15.1
				c-42.6,38.6-163.5,71.1-338.8,90.7c-169.1,19.6-229.6,23-365.7,21.8l-131.6-1.1l114.8-2.8c115.9-3.4,140-7.8,140-25.8
				c0-32.5-51.5-84.6-113.7-114.2c-90.2-42.6-167.4-58.2-292.3-57.7c-123.8,0.6-227.4,24.1-304.1,69.4c-37.5,21.8-75,58.8-85.1,82.9
				c-6.7,15.7-6.2,18.5,5,29.7c11.2,11.8,18.5,12.3,131,15.7l118.7,2.8l-137.2,0.6C5831.1,5463.1,5743.2,5460.9,5710.7,5458.6z"/>
		</g>
	</g>
	<g transform="translate(0.000000,650.000000) scale(0.100000,-0.100000)">
		<g>
			
				<linearGradient id="SVGID_00000049936394709421463780000016348609279228156069_" gradientUnits="userSpaceOnUse" x1="5037.4775" y1="169205.9062" x2="5037.4775" y2="169508.2969" gradientTransform="matrix(5.400000e-05 0 0 1.018000e-05 -226260.0469 -36762.5898)">
				<stop  offset="0" style="stop-color:#333333"/>
				<stop  offset="1" style="stop-color:#ACACAC"/>
			</linearGradient>
			<path style="fill:url(#SVGID_00000049936394709421463780000016348609279228156069_);" d="M4685.9,3943.3
				c0-31.4,37.5-98.6,75.6-136.1c14-13.4,25.2-27.4,25.2-31.4c0-7.8,59.9-69.4,95.2-98c133.3-107.5,412.2-206.6,714-253.7
				c159.6-24.6,221.2-31.4,378-40.3c399.8-23,818.7,16.8,1134,108.1c169.1,48.7,324.2,119.8,404.9,184.8
				c48.7,39.8,95.8,91.3,89.6,98.6c-0.6,0.6,11.8,13.4,27.4,28c40.9,38.6,80.1,107.5,80.1,140.6c0,7.8-3.9,3.4-11.8-13.4
				c-30.2-66.1-78.4-118.2-159-170.2c-144.5-93.5-362.9-168.6-635.6-218.4c-432.9-79-978.3-79-1411.2,0
				c-161.8,29.7-363.4,85.1-459.2,126.6c-174.2,75-282.8,156.8-326.5,244.7C4694.9,3935.4,4685.9,3949.4,4685.9,3943.3z"/>
		</g>
	</g>
	<g transform="translate(0.000000,650.000000) scale(0.100000,-0.100000)">
		<g>
			
				<linearGradient id="SVGID_00000010306148008471389740000012187699814397196972_" gradientUnits="userSpaceOnUse" x1="468590" y1="3700.7151" x2="468892.4062" y2="3700.7151" gradientTransform="matrix(5.400000e-05 0 0 8.755002e-06 -226263.8906 -27554.1504)">
				<stop  offset="0" style="stop-color:#FFFFFF;stop-opacity:0.9146"/>
				<stop  offset="1" style="stop-color:#FFFFFF;stop-opacity:0.9146"/>
			</linearGradient>
			<path style="fill:url(#SVGID_00000010306148008471389740000012187699814397196972_);" d="M4685.9,3943.3
				c0-53.8,70.6-145,154.6-199.9c17.9-11.8,39.8-26.3,48.7-32.5c40.9-28,207.8-100.2,273.8-118.7c16.2-4.5,52.6-14.6,80.1-22.4
				c180.3-51,376.9-83.4,630-104.7c114.8-9.5,441.8-12.9,551.6-5.6c224.6,14.6,237.4,16.2,453,48.7c72.8,10.6,262.6,55.4,343.3,80.1
				c259.8,80.1,439,201,482.2,324.8c11.2,32.5,7.8,45.4-5,17.4c-30.2-66.1-78.4-118.2-159-170.2
				c-144.5-93.5-362.9-168.6-635.6-218.4c-432.9-79-978.3-79-1411.2,0c-161.8,29.7-363.4,85.1-459.2,126.6
				c-174.2,75-282.8,156.8-326.5,244.7C4694.9,3935.4,4685.9,3949.4,4685.9,3943.3z"/>
		</g>
	</g>
	<g transform="translate(0.000000,650.000000) scale(0.100000,-0.100000)">
		<g>
			
				<linearGradient id="SVGID_00000049186101534533780650000004540450541397488796_" gradientUnits="userSpaceOnUse" x1="502020.0938" y1="4601.0078" x2="502279.7188" y2="4601.0078" gradientTransform="matrix(4.636000e-05 0 0 2.890000e-05 -199011.3281 -155124.2969)">
				<stop  offset="0" style="stop-color:#FFFFFF;stop-opacity:0.5648"/>
				<stop  offset="1" style="stop-color:#FFFFFF;stop-opacity:0.5648"/>
			</linearGradient>
			<path style="fill:url(#SVGID_00000049186101534533780650000004540450541397488796_);" d="M7352.6,5408.2
				c-1.7-15.1-26.3-43.1-56.6-64.4c-109.2-74.5-357.8-128.2-702.8-150.6c-151.2-10.1-637.3-11.8-781.8-2.8
				c-208.9,12.9-376.9,35.8-516.3,70c-126,31.4-205,68.3-251.4,118.7l-23.5,25.8l3.4-63.8c5-89.6,17.9-194.9,43.7-357.8
				c7.8-52.1,41.4-194.3,62.2-263.2c55.4-188.7,134.4-362.3,221.2-487.2c52.1-74.5,61-86.8,75-101.9c7.3-7.8,24.6-26.3,38.6-41.4
				c23-25.2,55.4-54.9,101.9-93.5c53.8-44.2,178.6-116.5,245.3-141.1c10.6-3.9,24.6-9,30.8-11.8c6.2-2.2,15.1-4.5,20.2-5.6
				c5-1.1,16.2-5,25.2-8.4c9-3.9,19.6-7.3,24.1-8.4c4.5-1.1,14.6-3.4,22.4-5c7.8-2.2,28.6-6.2,45.4-9s39.8-6.2,50.4-8.4
				c10.6-1.7,27.4-3.9,36.4-5c24.6-2.2,220.6-2.2,243.6,0.6c48.7,5,127.7,19.6,156.2,28c17.4,5,34.2,9.5,37,10.6
				c3.4,0.6,12.9,3.9,21.3,7.3c9,3.9,17.9,6.7,20.7,6.7c8.4,0,107,46.5,148.4,69.4c34.7,19.6,65.5,40.3,123.2,83.4
				c59.9,44.8,183.1,183.1,225.1,253.1c53.2,89,76.7,131,85.7,156.2c15.7,42,24.6,48.2,56,42.6c44.2-9,171.9-6.7,206.6,3.4
				c73.4,21.3,101.4,36.4,142.8,77.3c33.6,33,43.1,46.5,54.9,79c25.8,67.8,29.1,86.2,28.6,168c-0.6,203.8-65.5,301.3-210.6,316.4
				c-25.2,2.2-52.6,3.4-61,1.7c-9-1.7-15.7-2.2-15.7-1.1s3.4,33.6,7.8,72.2c14.6,126.6,21.3,209.4,19,229.6
				C7354.3,5408.2,7352.6,5413.3,7352.6,5408.2z M5282.3,5182c37-7.3,78.4-16.2,92.4-19.6s40.9-9,59.9-12.3l34.7-6.7l-3.4-73.9
				l-3.4-73.9l16.2-2.8c103-20.2,487.8-43.1,721.3-43.1c282.8,0,612.1,24.6,793,59.4c89,16.8,105.8,20.7,170.8,42.6
				c66.1,22.4,109.2,42,142.8,66.1c24.6,17.4,20.7,3.9-4.5-15.7c-47-37.5-129.9-72.8-226.8-96.3c-37.5-9.5-73.4-18.5-79.5-20.2
				c-6.2-1.7-27.4-5-47.6-7.8s-72.8-10.1-117.6-16.2c-204.4-28.6-535.4-39.2-873.6-29.1c-403.8,12.3-668.6,54.9-823.8,132.7
				c-30.2,15.1-83.4,56-83.4,64.4c0,3.4,7.8-0.6,17.4-8.4c30.8-25.8,128.2-70,128.2-57.7c0,0.6-3.9,31.9-8.4,68.3
				c-4.5,37-8.4,68.3-8.4,69.4s8.4,0,18.5-1.7C5206.7,5197.1,5245.4,5189.3,5282.3,5182z M5137.3,5034.7
				c71.7-36.4,306.3-90.2,443-101.9c39.2-3.4,93-8.4,119.3-11.2c127.1-13.4,306.9-17.9,561.1-15.1c249.2,2.8,320.3,6.2,483.3,20.7
				c146.2,13.4,324.2,45.4,408.8,73.9c49.3,16.2,131.6,54.3,148.4,68.3c13.4,11.2,24.6,16.8,20.7,10.6
				c-7.3-11.8-65.5-53.2-93.5-66.6c-136.6-66.1-362.9-106.4-686-122.6c-207.8-10.6-504.6-10.6-708.4,0
				c-155.1,7.8-208.3,12.9-373.5,36.4c-171.4,23.5-316.4,73.9-379.7,131.6l-28,25.8l30.8-19
				C5100.3,5054.9,5124.4,5040.9,5137.3,5034.7z M7409.2,4930c31.4-14.6,47.6-46.5,53.8-105.3c5-50.4,0-95.8-13.4-121.5
				c-30.2-56.6-105.3-94.6-202.7-102.5c-25.8-2.2-35.3-1.1-35.3,3.9c0,3.9,6.2,25.8,14.6,48.7c7.8,23,17.4,54.3,21.8,69.4
				c3.9,15.7,14,52.1,22.4,81.2s18.5,70.6,23,91.8c3.9,21.3,10.6,41.4,14.6,43.7C7319,4947.4,7386.2,4941.2,7409.2,4930z"/>
		</g>
	</g>
	<g transform="translate(0.000000,650.000000) scale(0.100000,-0.100000)">
		<g>
			
				<linearGradient id="SVGID_00000089561895717958014440000000061828739313280685_" gradientUnits="userSpaceOnUse" x1="545870.0625" y1="4983.6294" x2="546056.5625" y2="4983.6294" gradientTransform="matrix(3.330000e-05 0 0 3.588000e-06 -152651.9062 7861.5508)">
				<stop  offset="0" style="stop-color:#000000;stop-opacity:0.9061"/>
				<stop  offset="1" style="stop-color:#000000;stop-opacity:0.9061"/>
			</linearGradient>
			<path style="fill:url(#SVGID_00000089561895717958014440000000061828739313280685_);" d="M7305.6,5073.4
				c-23-17.9-99.7-54.3-152.9-72.2c-51-17.4-215-51.5-296.8-62.2c-51-6.2-144.5-15.1-254.8-23.5c-122.1-9.5-594.2-12.9-726.3-5.6
				c-161.8,9-386.4,29.7-407.7,37.5c-5.6,2.2-8.4,0-8.4-7.8c0-12.9,0.6-13.4,126-29.1c207.2-26.3,642.9-35.3,957.6-19.6
				c323.1,16.2,549.4,56.6,686,122.6c35.8,17.4,106.4,70.6,93.5,70.6C7320.7,5084,7313.4,5079,7305.6,5073.4z"/>
		</g>
	</g>
	<g transform="translate(0.000000,650.000000) scale(0.100000,-0.100000)">
		<g>
			
				<linearGradient id="SVGID_00000124129404722773835590000004599221375238273212_" gradientUnits="userSpaceOnUse" x1="5195.4302" y1="5015.3359" x2="5221.7568" y2="5015.3359" gradientTransform="matrix(4.701000e-06 0 0 1.412000e-06 -53352.3359 21870.2363)">
				<stop  offset="0" style="stop-color:#000000;stop-opacity:0.3367"/>
				<stop  offset="1" style="stop-color:#000000;stop-opacity:0.3367"/>
			</linearGradient>
			<path style="fill:url(#SVGID_00000124129404722773835590000004599221375238273212_);" d="M5195.5,5045.9
				c0-7.3,8.4-12.9,29.7-19.6c48.2-16.2,161.3-43.1,198.8-48.2c30.8-3.9,34.7-3.4,34.7,5.6c0,10.6-8.4,12.9-113.7,33
				c-33.6,6.2-80.1,17.9-103,25.2C5191.6,5058.8,5195.5,5058.2,5195.5,5045.9z"/>
		</g>
	</g>
	<g transform="translate(0.000000,650.000000) scale(0.100000,-0.100000)">
		<g>
			
				<linearGradient id="SVGID_00000176003192058721668500000008775788501972316295_" gradientUnits="userSpaceOnUse" x1="502190" y1="5418.8975" x2="502423.25" y2="5418.8975" gradientTransform="matrix(4.165000e-05 0 0 8.371001e-06 -182575.1875 -22026.291)">
				<stop  offset="0" style="stop-color:#FFFFFF;stop-opacity:0.802"/>
				<stop  offset="1" style="stop-color:#FFFFFF;stop-opacity:0.802"/>
			</linearGradient>
			<path style="fill:url(#SVGID_00000176003192058721668500000008775788501972316295_);" d="M5915.1,5646.2
				c-435.1-23.5-701.1-73.4-827.1-154c-34.2-21.8-66.1-58.8-66.1-76.2c0-16.2,37-57.1,71.7-79.5c113.1-71.7,374.1-124.9,717.9-146.2
				c144.5-9,630.6-7.3,781.8,2.8c345.5,22.4,593.6,76.2,702.8,151.2c29.7,20.2,51.5,45.4,57.7,67.8c5,16.2-21.8,51-59.4,76.7
				c-95.2,65-305.2,114.8-592.5,140.6C6429.2,5654.1,6162.6,5659.7,5915.1,5646.2z M6570.3,5589.1c37-3.4,104.7-9,151.2-12.3
				c297.9-21.3,518-74.5,567.8-137.8c16.2-20.7,14.6-32.5-8.4-54.9c-24.6-24.1-58.2-39.8-119.8-57.1
				c-125.4-34.2-211.7-48.7-378-63.8c-218.4-19.6-368.5-24.1-683.2-20.7c-438.5,4.5-682.6,26.9-864.6,80.1
				c-16.2,5-35.8,10.1-43.7,11.2c-42,7.8-119.3,59.9-119.3,80.6c0,2.8,8.4,14.6,17.9,25.8c49.3,56.6,224,104.2,469.3,128.2
				c221.8,21.8,413.8,30.2,683.2,28.6C6386.1,5595.8,6533.4,5592.5,6570.3,5589.1z"/>
		</g>
	</g>
	<g transform="translate(0.000000,650.000000) scale(0.100000,-0.100000)">
		<g>
			
				<linearGradient id="SVGID_00000013874951552511837700000006434048459697167293_" gradientUnits="userSpaceOnUse" x1="5060.1924" y1="5034.1128" x2="5075.3384" y2="5034.1128" gradientTransform="matrix(2.704000e-06 0 0 1.587000e-06 -46627.1602 20778.1133)">
				<stop  offset="0" style="stop-color:#000000;stop-opacity:0.8017"/>
				<stop  offset="1" style="stop-color:#000000;stop-opacity:0.8017"/>
			</linearGradient>
			<path style="fill:url(#SVGID_00000013874951552511837700000006434048459697167293_);" d="M5063.9,5072.8
				c19-20.7,59.9-47.6,102.5-67.2c22.4-10.1,42-17.4,43.1-15.7c7.3,6.7-5,20.7-21.3,24.6c-21.8,4.5-62.7,24.6-104.7,51.5
				C5061.1,5080.1,5055.5,5082.3,5063.9,5072.8z"/>
		</g>
	</g>
	<g transform="translate(0.000000,650.000000) scale(0.100000,-0.100000)">
		<g>
			
				<linearGradient id="SVGID_00000140693191942598834710000002566141701862764986_" gradientUnits="userSpaceOnUse" x1="7211.3999" y1="4770.9624" x2="7236.7295" y2="4770.9624" gradientTransform="matrix(4.524000e-06 0 0 6.147000e-06 -49133.5352 -8924.8994)">
				<stop  offset="0" style="stop-color:#FFFFFF;stop-opacity:0.9897"/>
				<stop  offset="1" style="stop-color:#FFFFFF;stop-opacity:0.9897"/>
			</linearGradient>
			<path style="fill:url(#SVGID_00000140693191942598834710000002566141701862764986_);" d="M7307.8,4939.5
				c-3.9-2.2-10.6-22.4-14.6-43.7c-4.5-21.3-14.6-62.7-23-91.8s-18.5-65.5-22.4-81.2c-4.5-15.1-14-46.5-21.8-69.4
				c-8.4-23-14.6-44.8-14.6-48.7c0-16.2,113.7,3.9,163.5,29.1c71.7,36.4,97.4,93,87.9,191c-6.2,58.8-22.4,90.7-53.8,105.3
				C7386.2,4941.2,7319,4947.4,7307.8,4939.5z"/>
		</g>
	</g>
	<g transform="translate(0.000000,650.000000) scale(0.100000,-0.100000)">
		<g>
			
				<linearGradient id="SVGID_00000172421432583873507350000015847422356372561563_" gradientUnits="userSpaceOnUse" x1="5049.8999" y1="5084.8887" x2="5064.46" y2="5084.8887" gradientTransform="matrix(2.600000e-06 0 0 1.632000e-06 -46281.1211 20586.3926)">
				<stop  offset="0" style="stop-color:#000000;stop-opacity:0.7668"/>
				<stop  offset="1" style="stop-color:#000000;stop-opacity:0.7668"/>
			</linearGradient>
			<path style="fill:url(#SVGID_00000172421432583873507350000015847422356372561563_);" d="M5049.9,5129.4
				c0-10.6,57.7-52.1,99.1-71.7c21.8-10.1,41.4-18.5,43.1-18.5s3.4,5,3.4,11.2c0,7.3-3.9,11.2-10.1,11.2
				c-14.6,0-97.4,41.4-118.2,59.4C5057.8,5128.8,5049.9,5132.7,5049.9,5129.4z"/>
		</g>
	</g>
	<g transform="translate(0.000000,650.000000) scale(0.100000,-0.100000)">
		<g>
			
				<linearGradient id="SVGID_00000070810077845322084030000000810206626074917026_" gradientUnits="userSpaceOnUse" x1="5209.4673" y1="4966.5483" x2="5234.3804" y2="4966.5483" gradientTransform="matrix(4.451000e-06 0 0 1.367000e-06 -52452.9922 22072.2773)">
				<stop  offset="0" style="stop-color:#000000;stop-opacity:0.3143"/>
				<stop  offset="1" style="stop-color:#000000;stop-opacity:0.3143"/>
			</linearGradient>
			<path style="fill:url(#SVGID_00000070810077845322084030000000810206626074917026_);" d="M5210.6,4995c2.2-7.8,14-14.6,40.3-22.4
				c48.7-15.1,146.7-38.1,181.4-42.6c24.1-3.4,26.3-2.2,26.3,7.8c0,6.7-1.7,11.8-3.9,11.8c-14.6,0.6-193.8,39.8-213.9,47
				C5209.5,5007.8,5207.3,5007.8,5210.6,4995z"/>
		</g>
	</g>
	<g transform="translate(0.000000,650.000000) scale(0.100000,-0.100000)">
		<g>
			
				<linearGradient id="SVGID_00000053518499884721213630000012564956310341057926_" gradientUnits="userSpaceOnUse" x1="5178.7002" y1="5098.0991" x2="5207.77" y2="5098.0991" gradientTransform="matrix(5.190000e-06 0 0 3.693000e-06 -55087.3516 7391.9268)">
				<stop  offset="0" style="stop-color:#FFFFFF;stop-opacity:0.6724"/>
				<stop  offset="1" style="stop-color:#FFFFFF;stop-opacity:0.6724"/>
			</linearGradient>
			<path style="fill:url(#SVGID_00000053518499884721213630000012564956310341057926_);" d="M5178.7,5201c0-1.1,3.9-32.5,8.4-69.4
				c4.5-36.4,8.4-68.3,8.4-70.6c0-6.7,86.8-32.5,149.5-44.2c33.6-6.7,72.8-14.6,87.4-17.9c14.6-2.8,27.4-5,28.6-3.9s3.4,35.3,5,75.6
				l3.4,72.8l-34.7,6.7c-19,3.4-45.9,9-59.9,12.3s-55.4,12.3-92.4,19.6c-37,7.3-75.6,15.1-85.1,17.4
				C5187.1,5201,5178.7,5202.2,5178.7,5201z"/>
		</g>
	</g>
</g>
<g transform="translate(0.000000,650.000000) scale(0.100000,-0.100000)">
	<g>
		
			<linearGradient id="SVGID_00000033364993096561824830000017497517048712663480_" gradientUnits="userSpaceOnUse" x1="-156053.9062" y1="688694.1875" x2="-156055.9219" y2="688391.875" gradientTransform="matrix(5.400000e-05 0 0 3.876000e-05 -226241.2656 -218400.4062)">
			<stop  offset="0" style="stop-color:#7F7F7F"/>
			<stop  offset="1" style="stop-color:#CACACA"/>
		</linearGradient>
		<path style="fill:url(#SVGID_00000033364993096561824830000017497517048712663480_);" d="M1836.9,5532.6
			c-502.9-27.4-783.4-89.6-874.2-194.9l-20.2-23l2.8-75.6c3.9-94.6,15.7-191,43.7-369.6c23-147.3,85.7-357.3,151.8-510.7
			c15.7-35.8,26.3-67.8,24.6-71.1c-2.2-3.4-12.9-7.3-24.6-9.5c-48.7-9-222.3-75.6-291.2-112c-113.1-59.9-184.2-123.2-221.2-197.1
			c-18.5-37.5-20.7-46.5-20.7-85.1s2.2-47.6,20.7-84.6c43.7-87.9,152.3-169.7,326.5-244.7c95.8-41.4,297.4-96.9,459.2-126.6
			c432.9-79,978.3-79,1411.2,0c272.7,49.8,491.1,124.9,635.6,218.4c113.7,73.4,168.6,150.1,170.2,238c1.1,39.2-0.6,45.4-21.8,86.8
			c-37,72.2-91.3,121.5-201,183.7c-76.2,43.7-222.3,100.8-318.1,125.4c-20.7,5.6-38.1,12.3-39.2,15.7c-3.9,11.2,23.5,44.2,35.3,42.6
			c5.6-1.1,50.4-3.4,99.7-5c95.8-3.4,117,0,192.6,30.8c53.2,21.3,111.4,80.1,131,132.7c25.8,67.8,29.1,86.2,28.6,168
			c-0.6,203.8-65.5,301.3-210.6,316.4c-25.2,2.2-53.2,3.4-61.6,1.7l-16.2-3.4l3.4,26.3c13.4,105.3,25.8,237.4,25.8,272.7
			c0,25.8-2.8,35.3-15.7,53.2c-63.8,87.4-290.6,152.9-639.5,183.7C2350.9,5540.4,2084.4,5546,1836.9,5532.6z"/>
	</g>
</g>
<g transform="translate(0.000000,650.000000) scale(0.100000,-0.100000)">
	<g>
		
			<linearGradient id="SVGID_00000136410145053787700290000001464826535642484887_" gradientUnits="userSpaceOnUse" x1="2655.395" y1="166060.2969" x2="2655.395" y2="166246.7656" gradientTransform="matrix(3.329000e-05 0 0 3.472000e-06 -152638.6406 8686.3193)">
			<stop  offset="0" style="stop-color:#0E0E0E"/>
			<stop  offset="1" style="stop-color:#2E2E2E"/>
		</linearGradient>
		<path style="fill:url(#SVGID_00000136410145053787700290000001464826535642484887_);" d="M3387.3,6133.4
			c-30.8-22.4-76.7-43.7-141.7-65.5s-81.8-25.8-170.8-42.6c-180.9-34.7-510.2-59.4-793-59.4c-234.1,0-595.8,21.3-723,43.1
			c-15.7,2.2-18.5,1.1-18.5-8.4s6.2-11.8,43.7-17.4c188.7-28,333.8-35.8,692.7-35.8c344.4-0.6,453,5,635.6,30.2
			c44.8,6.2,97.4,13.4,117.6,16.2c20.2,2.8,41.4,6.2,47.6,7.8c6.2,1.7,42.6,10.6,81.2,20.2c96.9,24.1,184.8,62.2,229.6,100.2
			C3410.9,6140.7,3410.3,6149.6,3387.3,6133.4z"/>
	</g>
</g>
<g transform="translate(0.000000,650.000000) scale(0.100000,-0.100000)">
	<g>
		
			<linearGradient id="SVGID_00000097481593443947599840000009475687044852417169_" gradientUnits="userSpaceOnUse" x1="152040" y1="5769.9297" x2="152226.4688" y2="5769.9297" gradientTransform="matrix(3.330000e-05 0 0 3.588000e-06 -152651.9062 7861.5508)">
			<stop  offset="0" style="stop-color:#000000;stop-opacity:0.9061"/>
			<stop  offset="1" style="stop-color:#000000;stop-opacity:0.9061"/>
		</linearGradient>
		<path style="fill:url(#SVGID_00000097481593443947599840000009475687044852417169_);" d="M3367.3,5859.7
			c-23-17.9-99.7-54.3-152.9-72.2c-51-17.4-215-51.5-296.8-62.2c-51-6.2-144.5-15.1-254.8-23.5c-122.1-9.5-594.2-12.9-726.3-5.6
			c-161.8,9-386.4,29.7-407.7,37.5c-5.6,2.2-8.4,0-8.4-7.8c0-12.9,0.6-13.4,126-29.1c207.2-26.3,642.9-35.3,957.6-19.6
			c323.1,16.2,549.4,56.6,686,122.6c35.8,17.4,106.4,70.6,93.5,70.6C3382.5,5870.4,3375.2,5865.3,3367.3,5859.7z"/>
	</g>
</g>
<g transform="translate(0.000000,650.000000) scale(0.100000,-0.100000)">
	<g>
		<g>
			<g>
				<g>
					<path id="SVGID_00000088132694634120131830000011467056303484684426_" d="M1380.3,5997.2c-5.7,0-13.6,0.9-25.2,2.4
						c-37,5-150.5,31.9-199.8,48.4c-19.8,6.2-33.1,12.8-33.1,24.3v2.4c-0.1,3.7-0.2,7.6,3.1,10c4.7,3.5,10.4,1.6,41.9-9l8.1-2.7
						c22.1-7,68.5-18.8,102.3-25c109.5-20.9,117.8-22.8,117.8-37.9c0-3.1-0.4-7.1-3.5-9.8
						C1389.5,5998.1,1386.1,5997.2,1380.3,5997.2z M1132.2,6076.2c0-0.4,0-0.8,0-1.2v-2.7c0-4.4,8.6-9.3,26.2-14.8
						c48.9-16.4,161.4-43,198-48c9.8-1.2,26.4-3.4,28.9-1.7l0,0c-0.1,0,0.1,0.6,0.1,2.3c0,6.6-18,10.6-109.6,28.1
						c-34.2,6.3-81.2,18.2-103.6,25.3l-8.2,2.7C1148.1,6071.6,1136.8,6075.4,1132.2,6076.2z"/>
				</g>
			</g>
			<g>
				<path d="M1380.4,6001.7c-5.2,0-12.9,0.8-24.7,2.3c-36.8,5-149.8,31.7-198.9,48.2c-21.6,6.8-30,12.4-30,20.1c0,0.9,0,1.7,0,2.5
					c-0.1,3-0.1,5.2,1.3,6.3c2.8,2.1,10.9-0.6,37.8-9.6l8.1-2.7c22.3-7.1,68.9-18.9,102.9-25.2c106.6-20.4,114.1-22.6,114.1-33.5
					c0-2.4-0.2-4.9-2-6.4C1387.5,6002.3,1384.9,6001.7,1380.4,6001.7z M1130.7,6080.8c-0.9,0-1.6-0.2-2-0.5c-1-0.8-1-2.6-0.9-5.5
					c0-0.8,0-1.6,0-2.5c0-7,8.5-12.6,29.4-19.1c49-16.5,162-43.2,198.7-48.2c21.4-2.7,29.5-3.2,32.5-0.6c1.2,1.1,1.7,2.6,1.7,5.7
					c0,10.1-8.5,12.5-113.3,32.5c-34,6.3-80.8,18.1-103.1,25.2l-8.1,2.7C1145,6077.4,1135,6080.8,1130.7,6080.8z"/>
				<path d="M1380.4,5996.7c-5.6,0-13.8,0.9-25.3,2.4c-37,5-150.6,31.9-199.9,48.4c-20.6,6.5-33.4,12.9-33.4,24.8v2.1
					c-0.1,3.9-0.2,8.1,3.3,10.7c5,3.7,10.7,1.7,42.3-8.9l8.1-2.7c22-7,68.4-18.8,102.3-25c109.9-21,118.2-22.9,118.2-38.4
					c0-2.1,0-6.9-3.7-10.2C1389.1,5997.1,1384.5,5996.7,1380.4,5996.7z M1132.7,6075.5c0-0.2,0-0.4,0-0.6v-2.7
					c0-4.1,8.7-9,25.9-14.4c48.9-16.4,161.3-43,197.9-48c8.9-1.1,25.4-3.2,28.4-1.8c-0.1,0.1,0,0.7,0,1.9
					c0,6.1-20.7,10.7-109.2,27.6c-34.2,6.3-81.2,18.2-103.6,25.4l-8.2,2.7C1148.1,6071.1,1137.6,6074.6,1132.7,6075.5z"/>
			</g>
		</g>
	</g>
</g>
<g transform="translate(0.000000,650.000000) scale(0.100000,-0.100000)">
	<g>
		
			<linearGradient id="SVGID_00000073711480158904299790000002250365383172725922_" gradientUnits="userSpaceOnUse" x1="851.9924" y1="6160.4985" x2="867.1385" y2="6160.4985" gradientTransform="matrix(2.704000e-06 0 0 1.587000e-06 -46627.1602 20778.1133)">
			<stop  offset="0" style="stop-color:#000000;stop-opacity:0.8017"/>
			<stop  offset="1" style="stop-color:#000000;stop-opacity:0.8017"/>
		</linearGradient>
		
			<path style="fill:url(#SVGID_00000073711480158904299790000002250365383172725922_);stroke:#000000;stroke-width:1.000000e-02;stroke-miterlimit:1;" d="
			M855.7,6199.2c19-20.7,59.9-47.6,102.5-67.2c22.4-10.1,42-17.4,43.1-15.7c7.3,6.7-5,20.7-21.3,24.6
			c-21.8,4.5-62.7,24.6-104.7,51.5C852.9,6206.4,847.3,6208.7,855.7,6199.2z"/>
	</g>
</g>
<g transform="translate(0.000000,650.000000) scale(0.100000,-0.100000)">
	<g>
		
			<linearGradient id="SVGID_00000054983071535031015480000002059623584439947169_" gradientUnits="userSpaceOnUse" x1="851.7" y1="5861.2168" x2="866.26" y2="5861.2168" gradientTransform="matrix(2.600000e-06 0 0 1.632000e-06 -46281.1211 20586.3926)">
			<stop  offset="0" style="stop-color:#000000;stop-opacity:0.7668"/>
			<stop  offset="1" style="stop-color:#000000;stop-opacity:0.7668"/>
		</linearGradient>
		
			<path style="fill:url(#SVGID_00000054983071535031015480000002059623584439947169_);stroke:#000000;stroke-width:1.000000e-02;stroke-miterlimit:1;" d="
			M851.7,5905.7c0-10.6,57.7-52.1,99.1-71.7c21.8-10.1,41.4-18.5,43.1-18.5s3.4,5,3.4,11.2c0,7.3-3.9,11.2-10.1,11.2
			c-14.6,0-97.4,41.4-118.2,59.4C859.5,5905.2,851.7,5909.1,851.7,5905.7z"/>
	</g>
</g>
<g transform="translate(0.000000,650.000000) scale(0.100000,-0.100000)">
	<g>
		<g>
			<g>
				<g>
					<path id="SVGID_00000112618326611293797880000011007111967697124765_" d="M1321.1,5729.6c-4.4,0-10.2,0.7-17.7,1.8
						c-34.8,4.5-133.6,27.7-182.2,42.8c-28.2,8.3-40.8,15.8-43.6,25.8v0.1c-1.2,4.7-2.8,10.4,1.2,14c4.8,4.4,12.3,1.9,35.6-6.5
						c19-6.8,197.7-46.1,212.4-46.7l0,0c5.4,0,8.7-6.3,8.7-16.8c0-4-0.3-8.6-3.8-11.6C1329.2,5730.4,1325.9,5729.6,1321.1,5729.6z
						 M1087.2,5802.6c1.7-5.8,14.1-12.2,36.9-18.9c48.3-15,146.2-38,180.6-42.4c5-0.7,18.3-2.6,20.4-1.2c0,0.1,0.3,0.9,0.3,4
						c0,3.4-0.5,5.8-0.9,7c-25.2,2.9-193.8,40-213.6,47.1c-8,2.9-19.6,7.1-24.5,7.9C1086.6,5805.3,1086.8,5804.2,1087.2,5802.6z
						 M1326.1,5750.9c0.1,0,0.3,0,0.4,0C1326.4,5750.9,1326.2,5750.9,1326.1,5750.9z"/>
				</g>
			</g>
			<g>
				<path d="M1321.2,5734.1c-4,0-9.5,0.6-17.1,1.7c-34.7,4.5-133,27.6-181.5,42.6c-26.2,7.8-38.3,14.6-40.6,22.7l0,0
					c-1.3,5.1-1.8,8.1-0.1,9.6c2.7,2.5,10.7-0.1,31-7.4c19.1-6.9,198.9-46.4,213.7-47c2.9,0,4.4-6.2,4.4-12.3c0-4-0.4-6.6-2.2-8.2
					C1327.2,5734.6,1324.9,5734.1,1321.2,5734.1z M1082.9,5801.4c2.2-7.7,14.5-14.5,40-22.1c48.4-15,146.7-38.1,181.3-42.6
					c14-2,21.2-2.5,23.9-0.1c1.6,1.4,1.9,3.8,1.9,7.4c0,6.8-1.8,11.3-3.4,11.3c-14.9,0.6-194.9,40.2-214.1,47
					c-19.1,6.9-27.7,9.7-30,7.6C1081.2,5808.9,1081.7,5806,1082.9,5801.4z"/>
				<path d="M1321.2,5729.1c-4.5,0-10.4,0.7-17.8,1.8c-34.8,4.5-133.6,27.7-182.3,42.8c-28.3,8.4-41.1,16-44,26.2
					c-1.2,4.6-2.9,10.8,1.3,14.6c5,4.6,12.6,2.1,36.1-6.4c19-6.8,197.5-46.1,212.3-46.7l0,0c5.7,0,9.2-6.5,9.2-17.3
					c0-4.1-0.3-8.8-3.9-12C1328.9,5729.4,1324.6,5729.1,1321.2,5729.1z M1087.7,5802.8c1.6-5.6,13.9-11.9,36.6-18.6
					c48.3-15,146.1-38,180.5-42.4c4.9-0.7,17.7-2.5,20.1-1.2c-0.3-0.1,0,0.7,0,3.6c0,3.2-0.4,5.4-0.8,6.5
					c-26.2,3.3-194.8,40.4-213.3,47.1c-7.2,2.6-18.4,6.7-23.7,7.7C1087.2,5804.7,1087.4,5803.9,1087.7,5802.8z"/>
			</g>
		</g>
	</g>
</g>
<g transform="translate(0.000000,650.000000) scale(0.100000,-0.100000)">
	<g>
		<g>
			<g>
				<g>
					<path id="SVGID_00000169526200909302358960000001059413124525745561_" d="M581.2,5156.1c-4,0-11.6,1.1-28,4.3
						c-11.9,2.7-41.3,8.7-87.4,17.9c-18.2,3.4-153.5,33-153.5,49.1c-0.1,3.2-5.7,48.3-8.4,70l-3.6,29.5c-4.2,34.3-4.8,39.6-4.8,40.6
						v2.3l1.8,1.7c2.1,1.8,3.8,2.3,22.5-0.6c10.4-2.5,52.4-10.9,85.3-17.4c36.9-7.3,78.4-16.2,92.6-19.6
						c13.2-3.1,39.8-8.7,59.6-12.2l39-7.5l-3.6-77.1c-3-75.4-5.2-77.6-6.5-78.9C585.2,5156.8,584.4,5156.1,581.2,5156.1z
						 M322.2,5229.2c9.9-7.1,83.6-29.5,145.5-41.1c46.3-9.2,75.8-15.3,87.6-17.9c13.1-2.5,19.9-3.6,23.3-3.9
						c1,8.9,2.7,34.7,4.2,70.9l3.2,68.5l-30.5,5.9c-19.9,3.6-46.7,9.2-60.1,12.3c-14.2,3.4-55.5,12.3-92.2,19.6
						c-33,6.5-75.2,15-85.3,17.5c-5.7,0.9-9.4,1.4-11.9,1.6c0.8-6.9,2.4-20,4.2-34.5l3.6-29.4
						C319.3,5254.5,321.6,5235.1,322.2,5229.2z M322.3,5227.5v-0.1C322.3,5227.5,322.3,5227.5,322.3,5227.5z"/>
				</g>
			</g>
			<g>
				<path d="M581,5160.6c-3.2,0-10.5,1-26.9,4.2c-11.8,2.7-41.2,8.7-87.4,17.9c-57.8,10.8-149.9,37.1-149.9,44.7
					c0,2.3-4,35.2-8.4,70.5c-1.3,10.4-2.5,20.4-3.6,29.4c-3.2,25.8-4.8,39.2-4.8,40c0,0.2,0.1,0.4,0.3,0.6c0.8,0.7,4.2,0.6,18.9-1.7
					c10.1-2.4,52.2-10.9,85.1-17.4c36.8-7.3,78.2-16.2,92.4-19.6c13.3-3.1,40-8.7,59.9-12.3l35.1-6.8v-0.4l-3.4-72.8
					c-1.2-30.6-3.6-74.4-5.1-75.9C582.9,5160.8,582.2,5160.6,581,5160.6z M301,5367.2c0.2-1.9,2.2-18.7,4.8-39.7
					c1.1-9,2.3-19,3.6-29.4c5-40.8,8.4-68.5,8.4-70.7c0-5.9,84.7-31.7,149.1-43.7c46.2-9.2,75.6-15.2,87.4-17.9
					c6.6-1.3,26.7-5.1,28.2-4c0.9,1.6,3.2,32.9,4.8,75.2l3.4,72.4l-34.3,6.6c-19.9,3.6-46.6,9.2-59.9,12.3
					c-14.2,3.4-55.6,12.3-92.4,19.6c-33,6.5-75,15-85.1,17.4C308.2,5367,302.1,5367.6,301,5367.2z"/>
				<path d="M581,5155.6c-3.9,0-12,1.2-27.8,4.3c-11.8,2.7-41.2,8.7-87.4,17.9c-1.5,0.3-153.9,31.9-153.9,49.6
					c-0.1,3.2-5.7,48.3-8.4,69.9l-3.6,29.5c-4.3,34.7-4.8,39.6-4.8,40.6v2.3l0.7,0.7v0.2l0.3,0.1l1,1c2.4,2.1,4.8,2.3,22.9-0.5
					c10.4-2.5,52.4-10.9,85.3-17.4c36.8-7.3,78.4-16.2,92.6-19.6c13.2-3.1,39.7-8.7,59.6-12.2l39.4-7.6l-3.6-77.6
					c-3-75.6-5.2-77.8-6.6-79.2C584.8,5155.8,582.7,5155.6,581,5155.6z M322.7,5229.4c10-6.5,81.8-29,145.2-40.8
					c46.4-9.3,75.9-15.3,87.6-17.9c13.1-2.5,19.7-3.5,23-3.9c0.7,7.9,2.4,33.1,3.9,70.4l3.2,68.1l-30,5.8
					c-19.9,3.6-46.7,9.2-60.1,12.3c-14.2,3.4-55.5,12.3-92.2,19.6c-33,6.5-75.2,15-85.3,17.5c-5.3,0.8-8.8,1.3-11.2,1.6
					c0.9-7.2,2.5-20.3,4.1-33.9l3.6-29.5C320.3,5251,322.2,5234.6,322.7,5229.4z"/>
			</g>
		</g>
	</g>
</g>
<rect x="508.5" y="138" class="st26" width="46" height="36"/>
<g>
	<g>
		<line class="st27" x1="404.2" y1="151.5" x2="479" y2="151.5"/>
		<g>
			<polygon class="st28" points="376,151.5 415.8,167.8 406.4,151.5 415.8,135.2 			"/>
		</g>
	</g>
</g>
<rect x="67" y="19" class="st26" width="296.1" height="71.3"/>
</svg>
