<?xml version="1.0" encoding="utf-8"?>
<!-- Generator: Adobe Illustrator 26.5.0, SVG Export Plug-In . SVG Version: 6.00 Build 0)  -->
<svg version="1.1" id="图层_1" xmlns="http://www.w3.org/2000/svg" xmlns:xlink="http://www.w3.org/1999/xlink" x="0px" y="0px"
	 viewBox="0 0 800 800" style="enable-background:new 0 0 800 800;" xml:space="preserve">
<style type="text/css">
	.st0{fill:none;}
	.st1{fill:#D3D3D3;}
	.st2{fill:url(#SVGID_00000085956860612858131650000011740461868226521745_);}
	.st3{fill:url(#SVGID_00000119801202294453682230000004799513188259303857_);}
	.st4{fill:url(#SVGID_00000088846990159063254970000012313644030832405940_);}
	.st5{fill:url(#SVGID_00000149355151163109011040000008182825874196544179_);}
	.st6{fill:url(#SVGID_00000173118912446381905080000004419873252807301564_);}
	.st7{fill:url(#SVGID_00000095327535975666863150000017947559022547029439_);}
	.st8{fill:url(#SVGID_00000042005621097098871200000010464951866108826768_);}
	.st9{fill:url(#SVGID_00000154414245752586593660000011938342902170305672_);}
	.st10{fill:url(#SVGID_00000021800634224292953480000002414168011131184524_);}
	.st11{fill:url(#SVGID_00000147215313076086048440000007349058091037438858_);}
	.st12{fill:url(#SVGID_00000107560476168494204800000015144557349705347970_);}
	.st13{fill:url(#SVGID_00000102513332500213582930000008633912398203002011_);}
	.st14{fill:url(#SVGID_00000075854756733646501310000003773515154950145436_);}
	.st15{fill:url(#SVGID_00000154396842954478399640000010003989982161634457_);}
	.st16{fill:url(#SVGID_00000135661657471572416250000008055366922308375198_);}
	.st17{fill:url(#SVGID_00000018941548722124870720000004803750773443290783_);}
	.st18{fill:url(#SVGID_00000102531252441482660420000011803054497434848169_);}
	.st19{fill:url(#SVGID_00000124849680393353087100000000794045349185479869_);}
	.st20{fill:url(#SVGID_00000098213768817633746010000012899807716835863481_);}
	.st21{fill:url(#SVGID_00000021106958475642500500000016156828094576036784_);}
	.st22{fill:url(#SVGID_00000083084891873584191980000007991671916971642291_);}
	.st23{fill:url(#SVGID_00000044164562700074949450000017458891300358429619_);}
	.st24{fill:url(#SVGID_00000153671371858152805310000012952948024345758894_);}
	.st25{fill:url(#SVGID_00000111177087828157195860000010674452745468392078_);}
	.st26{fill:url(#SVGID_00000078018965078892517960000012743409397642829206_);}
	.st27{fill:url(#SVGID_00000176022650073046893860000008232691750302447773_);}
	.st28{fill:url(#SVGID_00000096749674694274935650000000031954868057776532_);}
	.st29{fill:url(#SVGID_00000069371531244514263880000016633759586709749943_);}
	.st30{fill:url(#SVGID_00000032638601529296549200000010306335539909581460_);}
	.st31{fill:url(#SVGID_00000145036018577379278100000005880731310822559387_);}
	.st32{fill:url(#SVGID_00000024683472112838893890000007002672811926641298_);}
	.st33{fill:url(#SVGID_00000089570082540814585810000006114703473871692461_);}
	.st34{fill:url(#SVGID_00000059311728894420809460000012157745886909072309_);}
	.st35{fill:url(#SVGID_00000110448338327279895040000014672557080798386333_);}
	.st36{fill:url(#SVGID_00000042730105830002147710000018350662122459266712_);}
	.st37{fill:url(#SVGID_00000119813530795820340400000015998363236474149265_);}
	.st38{fill:url(#SVGID_00000170962482506041766510000008563594284166819486_);}
	
		.st39{fill:url(#SVGID_00000181798376743152318330000012500428154754023829_);stroke:#000000;stroke-width:0.1;stroke-miterlimit:1;}
	.st40{fill:url(#SVGID_00000168081621546716836230000006100014580686399133_);}
	.st41{fill:url(#SVGID_00000000912396679218533640000009439910746011241384_);}
	.st42{fill:url(#SVGID_00000023977689648919302560000005347077846160142214_);}
	.st43{fill:url(#SVGID_00000165924900041808142630000004418335309528710792_);}
	.st44{fill:url(#SVGID_00000074436731408523981730000003635045113438105480_);}
	
		.st45{fill:url(#SVGID_00000107568482275734392830000013959813059430037415_);stroke:#000000;stroke-width:0.1;stroke-miterlimit:1;}
	.st46{fill:url(#SVGID_00000123427915856887637430000014582116510545598338_);}
	.st47{fill:url(#SVGID_00000086653421360902734200000006023145756432160409_);}
	.st48{fill:url(#SVGID_00000065793147049481728610000005216487680795838871_);}
	.st49{fill:url(#SVGID_00000015322689585333661900000000630119657240291227_);}
	.st50{fill:url(#SVGID_00000122681746897341549200000014583681961988686211_);}
	
		.st51{fill:url(#SVGID_00000056402595738170278200000014618897954289224857_);stroke:#000000;stroke-width:0.1;stroke-miterlimit:1;}
	
		.st52{fill:url(#SVGID_00000062900746071017928390000001376865025717845428_);stroke:#000000;stroke-width:0.1;stroke-miterlimit:1;}
	.st53{fill:none;stroke:#000000;stroke-miterlimit:10;}
</style>
<pattern  y="800" width="40" height="40" patternUnits="userSpaceOnUse" id="SVGID_1_" viewBox="0 -40 40 40" style="overflow:visible;">
	<g>
		<rect y="-40" class="st0" width="40" height="40"/>
		<g>
			<rect y="-40" class="st0" width="40" height="40"/>
			<rect y="-40" class="st0" width="40" height="40"/>
			<rect y="-20" class="st1" width="20" height="20"/>
			<rect x="20" y="-40" class="st1" width="20" height="20"/>
		</g>
	</g>
</pattern>
<g id="图层_1_00000177467244256885520720000015941660812042061998_">
	
		<pattern  id="SVGID_00000003796053820220188000000014926512901969177218_" xlink:href="#SVGID_1_" patternTransform="matrix(1 0 0 -1 29 -16123.0098)">
	</pattern>
	<rect x="-0.4" y="0.9" style="fill:url(#SVGID_00000003796053820220188000000014926512901969177218_);" width="800" height="799"/>
	<g transform="translate(0.000000,568.000000) scale(0.100000,-0.100000)">
		<g>
			
				<linearGradient id="SVGID_00000110449701980467876980000006962455512409647514_" gradientUnits="userSpaceOnUse" x1="-5303.3896" y1="-27119.5957" x2="-5302.8174" y2="-27119.5957" gradientTransform="matrix(42.2388 0 0 11.3 226986.9688 306834)">
				<stop  offset="0" style="stop-color:#5A5B58"/>
				<stop  offset="1" style="stop-color:#5A5B58"/>
			</linearGradient>
			<path style="fill:url(#SVGID_00000110449701980467876980000006962455512409647514_);" d="M5360.7,631.5
				c-2.9-71-4-76.1-22.3-113.9c-25.8-51.5-95.6-125.3-156.8-166c-196.9-130.5-473.9-197.4-890.5-215.8
				c-387.4-17.2-729.1,35.5-950,145.9c-182.6,91-306.8,224.9-334.2,358.8l-7.4,36.6l-10.3-31.5c-14.3-41.2-14.3-112.7-0.6-152.8
				c60.7-178,349.1-334.2,741.7-401.8c162-27.5,221.5-32,455-32c235.2,0,287.3,3.4,446.4,29.2c230.6,37.8,441.8,110.4,579.2,199.7
				c72.1,46.9,139.1,115.6,164.8,168.8c19.5,41.8,20,44.6,20,111.6c0,63.5-1.1,71-16.6,103l-16,34.3L5360.7,631.5z"/>
		</g>
	</g>
	<g transform="translate(0.000000,568.000000) scale(0.100000,-0.100000)">
		<g>
			
				<linearGradient id="SVGID_00000163794606962907979360000001405728332129229967_" gradientUnits="userSpaceOnUse" x1="-4413.8813" y1="-28109.1309" x2="-4413.3091" y2="-28109.1309" gradientTransform="matrix(6.25 0 0 2.397 32112.5 69272.0703)">
				<stop  offset="0" style="stop-color:#A7A39E"/>
				<stop  offset="1" style="stop-color:#A7A39E"/>
			</linearGradient>
			<path style="fill:url(#SVGID_00000163794606962907979360000001405728332129229967_);" d="M4525.7,1958.7c0-2.9,10.9-11.4,24-18.9
				c32.6-18.9,69.2-53.8,90.4-87c10.3-15.4,22.3-28,28-28c18.3,0.6,107,22.3,140.2,34.3c18.9,7.4,42.9,21.2,54.4,32.1l20.6,18.3
				l-13.7,14.9c-7.4,8-15.5,13.7-17.2,12c-2.3-1.1-32,2.9-66.4,9.2C4717.5,1957.6,4525.7,1967.3,4525.7,1958.7z"/>
		</g>
	</g>
	<g transform="translate(0.000000,568.000000) scale(0.100000,-0.100000)">
		<g>
			
				<linearGradient id="SVGID_00000152978964986981523250000001008173217572959666_" gradientUnits="userSpaceOnUse" x1="-5216.0249" y1="-27095.1426" x2="-5215.4526" y2="-27095.1426" gradientTransform="matrix(27.5836 0 0 27.4997 147289.9062 747616.4375)">
				<stop  offset="0" style="stop-color:#B3BCBA"/>
				<stop  offset="1" style="stop-color:#B3BCBA"/>
			</linearGradient>
			<path style="fill:url(#SVGID_00000152978964986981523250000001008173217572959666_);" d="M4091.9,3283.6
				c-100.7-21.2-199.2-65.2-289.6-129.9c-91.6-65.2-209.5-196.9-250.7-280.4c-16.6-33.8-17.7-38.3-14.3-84.7
				c2.9-46.4,1.7-52.1-14.3-87.6c-25.8-57.2-58.4-156.2-75-226.6c-28.6-120.8-34.9-183.7-34.9-334.8
				c-0.6-159.7,6.3-212.3,41.2-317.6c25.8-79.6,43.5-100.2,84.7-100.2c72.1,0,116.2,70.4,82.4,132.8c-14.9,28-36.6,96.2-32.1,100.7
				c2.3,1.7,8.6,0.6,13.7-3.4c5.1-3.4,29.2-17.2,53.2-29.2c189.4-98.4,519.1-137.9,906.5-108.2c44.1,2.9,83.6,7.4,87,9.7
				c17.2,9.2-52.1,88.1-100.7,116.2c-13.2,7.4-23.5,15.4-23.5,18.3c0,8.6,191.7-1.1,260.4-13.2c34.3-6.3,64.1-10.3,66.4-8.6
				c2.3,1.1,13.2-8,24.6-20.6c24-26.9,22.3-28.6,48.1,51.5c68.7,211.2,84.7,421.2,45.8,600.9c-6.3,29.8-22.9,86.4-37.2,125.9
				c-13.7,39.5-25.2,75.5-24.6,80.1c5.7,49.8-12,97.3-64.1,174.6c-119,175.1-295.3,299.3-480.7,337.1
				C4300.3,3299.6,4161.2,3298.4,4091.9,3283.6z"/>
		</g>
	</g>
	<g transform="translate(0.000000,568.000000) scale(0.100000,-0.100000)">
		<g>
			
				<linearGradient id="SVGID_00000148621006834724536680000011105604324165539726_" gradientUnits="userSpaceOnUse" x1="-5005.915" y1="-27897.7344" x2="-5005.3428" y2="-27897.7344" gradientTransform="matrix(14.9204 0 0 3.0961 78550.7734 88448)">
				<stop  offset="0" style="stop-color:#A7A39E"/>
				<stop  offset="1" style="stop-color:#A7A39E"/>
			</linearGradient>
			<path style="fill:url(#SVGID_00000148621006834724536680000011105604324165539726_);" d="M3956.3,2148.1
				c-28-7.4-61.2-17.2-73.8-21.2l-21.8-8l21.8-19.5c57.8-50.4,137.9-88.7,223.2-105.9c71-14.3,183.7-9.7,255.2,9.7
				c89.3,24.6,177.4,34.9,275.9,31.5c53.8-1.7,82.4-0.6,77.3,2.9c-33.8,22.9-152.8,73.8-216.9,93.3c-13.7,4.6-13.7,4-4-10.3
				c9.2-14.3,9.2-14.9-9.2-20.6c-77.8-24.6-264.4-34.9-347.4-18.9c-45.8,9.2-103.6,27.5-117.3,37.8c-10.3,7.4-9.7,8.6,2.3,25.8
				l12.6,17.7H4021C4013.5,2161.9,3984.9,2155.6,3956.3,2148.1z"/>
		</g>
	</g>
	<g transform="translate(0.000000,568.000000) scale(0.100000,-0.100000)">
		<g>
			
				<linearGradient id="SVGID_00000171717860391033045600000013447363136899143356_" gradientUnits="userSpaceOnUse" x1="-4985.2886" y1="-27166.4277" x2="-4984.7163" y2="-27166.4277" gradientTransform="matrix(16.1814 0 0 12.6527 83266.4219 345156.4688)">
				<stop  offset="0" style="stop-color:#B3BCBA"/>
				<stop  offset="1" style="stop-color:#B3BCBA"/>
			</linearGradient>
			<path style="fill:url(#SVGID_00000171717860391033045600000013447363136899143356_);" d="M2759.6,1779
				c-52.6-26.3-105.9-88.1-140.8-164.2c-16-34.3-18.3-45.8-20.6-101.9c-2.3-57.8-1.1-64.1,10.3-78.4c6.3-8.6,21.2-20,32.1-25.2
				c11.4-5.7,26.9-20,34.3-32.1c18.3-28.6,54.9-51.5,112.7-71c25.2-8.6,123.6-52.7,218.1-97.9c143.1-69.2,175.7-87,191.1-105.3
				c22.9-26.3,64.1-41.2,100.7-36.1c109.3,16.6,215.2,165.4,224.9,314.2c4,65.8-6.3,107-34.9,135.1c-30.3,29.2-79.6,42.3-106.4,28
				c-8.6-4.6-54.4,16-238.6,108.7c-202,101.3-231.8,114.5-255.8,114.5c-18.9,0-32.1,3.4-41.8,11.4
				C2826,1793.9,2789.9,1793.9,2759.6,1779z"/>
		</g>
	</g>
	<g transform="translate(0.000000,568.000000) scale(0.100000,-0.100000)">
		<g>
			
				<linearGradient id="SVGID_00000137100815986475511910000002029458439784319677_" gradientUnits="userSpaceOnUse" x1="-5298.8501" y1="-27045.0234" x2="-5298.2778" y2="-27045.0234" gradientTransform="matrix(41.1232 0 0 31.8664 220912.7344 862870.8125)">
				<stop  offset="0" style="stop-color:#228F92"/>
				<stop  offset="1" style="stop-color:#228F92"/>
			</linearGradient>
			<path style="fill:url(#SVGID_00000137100815986475511910000002029458439784319677_);" d="M3587.2,1951.8
				c0-10.3,24-77.8,34.9-97.9c32.6-61.2-11.4-132.2-82.4-132.2c-35.5,0-56.1,17.7-72.7,64.1c-7.4,20-13.7,36.6-14.9,37.8
				c-6.9,9.7-179.7-213.5-179.7-232.3c0-9.2,100.7-52.1,109.3-46.4c10.9,6.9,44.6,5.7,67-2.9c89.9-32.1,101.3-180.8,25.2-326.8
				c-40.1-75.5-115-139.1-176.3-148.2c-36.1-5.2-79,9.7-97.9,34.9c-10.9,13.7-30.9,27.5-63.5,42.3c-26.3,12.6-49.8,21.2-52.6,19.5
				c-6.3-4-37.2-133.3-50.9-214.6c-15.4-92.1-23.5-168.8-25.2-251.8c-1.1-66.4,0-74.4,13.7-107.6c26.9-63,52.6-99.6,111-159.1
				c64.1-64.7,119.6-104.2,208.9-148.8c220.9-110.4,562.6-163.1,950-145.9c416.6,18.3,693.6,85.3,890.5,215.8
				c61.2,40.6,131.1,114.5,156.8,166c18.3,37.2,19.5,43.5,21.8,111.6c6.3,198.6-59,524.8-150.5,749.7
				c-67,164.2-170.5,338.2-285.6,481.3l-40.1,49.8l-21.2-19.5c-52.1-46.9-180.9-72.7-416.1-83c-268.4-12-524.2,14.9-689.1,72.1
				c-60.1,21.2-144.2,60.7-150.5,71C3603.2,1957.6,3587.2,1958.7,3587.2,1951.8z"/>
		</g>
	</g>
	<g transform="translate(0.000000,568.000000) scale(0.100000,-0.100000)">
		<g>
			
				<linearGradient id="SVGID_00000120520189138110229360000018255184150108162965_" gradientUnits="userSpaceOnUse" x1="-3445.9756" y1="-27466.9336" x2="-3445.4031" y2="-27466.9336" gradientTransform="matrix(3.3906 0 0 4.4746 15935.7432 124092.2891)">
				<stop  offset="0" style="stop-color:#4AA3A6"/>
				<stop  offset="1" style="stop-color:#4AA3A6"/>
			</linearGradient>
			<path style="fill:url(#SVGID_00000120520189138110229360000018255184150108162965_);" d="M4283.7,1296.5
				c-59-59.5-32-194,45.8-228.3c45.2-20,83.6-5.7,105.3,39.5c17.7,37.2,13.7,101.3-9.7,144.8c-23.5,42.9-52.6,62.9-91.6,62.9
				C4306.5,1315.4,4300.8,1313.1,4283.7,1296.5z"/>
		</g>
	</g>
	<g transform="translate(0.000000,568.000000) scale(0.100000,-0.100000)">
		<g>
			
				<linearGradient id="SVGID_00000067925674914428804730000010188290589271968699_" gradientUnits="userSpaceOnUse" x1="-3851.8357" y1="-27630.0137" x2="-3851.9329" y2="-27629.4355" gradientTransform="matrix(4.3722 0 0 4.8854 21123.5781 137174.6875)">
				<stop  offset="0" style="stop-color:#333431"/>
				<stop  offset="1" style="stop-color:#C8C8C7"/>
			</linearGradient>
			<path style="fill:url(#SVGID_00000067925674914428804730000010188290589271968699_);" d="M4199,2458.3c-15.5-8-32.6-24-44.6-41.8
				c-18.9-27.5-18.9-28.6-16.6-82.4c1.7-47.5,4-58.4,17.7-81.8c22.9-38.3,53.8-57.2,98.4-60.1c61.2-4,108.2,30.9,126.5,93.9
				c12,41.8,8,74.4-16.6,122.5c-24,48.1-47.5,62.9-101.9,62.9C4233.3,2471.5,4217.8,2468,4199,2458.3z"/>
		</g>
	</g>
	<g transform="translate(0.000000,568.000000) scale(0.100000,-0.100000)">
		<g>
			
				<linearGradient id="SVGID_00000083779683991293805650000006831585404834034359_" gradientUnits="userSpaceOnUse" x1="-3453.5442" y1="-28106.9121" x2="-3452.9719" y2="-28106.9121" gradientTransform="matrix(3.443 0 0 2.7295 16033.8965 79104.7656)">
				<stop  offset="0" style="stop-color:#84817D"/>
				<stop  offset="1" style="stop-color:#84817D"/>
			</linearGradient>
			<path style="fill:url(#SVGID_00000083779683991293805650000006831585404834034359_);" d="M4204.7,2452.6
				c-35.5-18.3-63.5-61.2-61.2-92.1c1.7-20.6,4.6-24.6,26.3-37.2c27.5-14.9,75.5-18.3,89.9-6.3c4.6,4,8.6,13.2,8.6,20.6
				c0,14.3,17.2,54.4,30.9,72.7c5.1,6.9,13.7,9.7,24,8.6c25.8-2.9,21.8,17.7-6.3,33.8C4285.4,2470.3,4239,2470.3,4204.7,2452.6z"/>
		</g>
		<g>
			
				<linearGradient id="SVGID_00000006696123546789203500000003085827375951931279_" gradientUnits="userSpaceOnUse" x1="-1739.0641" y1="-27912.5547" x2="-1738.4918" y2="-27912.5547" gradientTransform="matrix(1.8453 0 0 3.239 7472.7275 92721.0469)">
				<stop  offset="0" style="stop-color:#84817D"/>
				<stop  offset="1" style="stop-color:#84817D"/>
			</linearGradient>
			<path style="fill:url(#SVGID_00000006696123546789203500000003085827375951931279_);" d="M4333.5,2395.9
				c-7.4-23.5-32-56.1-52.1-68.1c-19.5-12-19.5-12.6-16-41.8c9.2-67,26.3-80.7,62.4-49.2c44.1,38.9,56.1,131.1,21.2,162.5
				C4338.6,2409.1,4337.5,2408.5,4333.5,2395.9z"/>
		</g>
	</g>
	<g transform="translate(0.000000,568.000000) scale(0.100000,-0.100000)">
		<g>
			
				<linearGradient id="SVGID_00000097484498551237545150000017345912198066840727_" gradientUnits="userSpaceOnUse" x1="-3124.7881" y1="-27164.6035" x2="-3124.2158" y2="-27164.6035" gradientTransform="matrix(3.1864 0 0 16.0456 13397.7021 438108.4375)">
				<stop  offset="0" style="stop-color:#A7A39E"/>
				<stop  offset="1" style="stop-color:#A7A39E"/>
			</linearGradient>
			<path style="fill:url(#SVGID_00000097484498551237545150000017345912198066840727_);" d="M3559.7,2599.1
				c-61.2-166.5-72.7-231.8-72.7-410.9c0-69.2,1.7-142.5,4-163.1l3.4-37.2l-8,25.8c-4.6,14.3-10.9,71-14.3,125.9
				c-3.4,54.9-7.4,103.6-8.6,108.2c-5.7,18.9-13.2-5.7-19.5-64.7c-8.6-77.3-0.6-167.1,22.9-258.7c16-60.7,42.4-136.8,52.1-147.7
				c2.3-2.9,6.3,13.7,8.6,36.1c2.3,22.9,8.6,50.9,14.3,62.4c13.7,26.3,13.7,54.4-0.6,152.8c-6.9,44.1-13.2,125.3-15.4,180.3
				c-5.1,153.9,12,247.2,73.2,400.6c26.3,66.4,28,72.1,18.9,78.4c-5.7,4-13.2,7.4-16.6,7.4
				C3597.5,2694.7,3578.6,2651.8,3559.7,2599.1z"/>
		</g>
	</g>
	<g transform="translate(0.000000,568.000000) scale(0.100000,-0.100000)">
		<g>
			
				<linearGradient id="SVGID_00000031914308688554568990000001267165543223492753_" gradientUnits="userSpaceOnUse" x1="-5154.4355" y1="-27143.8477" x2="-5153.8633" y2="-27143.8477" gradientTransform="matrix(22.1695 0 0 19.3426 117842.2656 527544.3125)">
				<stop  offset="0" style="stop-color:#F2FFFC"/>
				<stop  offset="1" style="stop-color:#F2FFFC"/>
			</linearGradient>
			<path style="fill:url(#SVGID_00000031914308688554568990000001267165543223492753_);" d="M4216.7,3058.1
				c-148.8-29.8-316.5-152.2-421.2-308.5c-24-35.5-61.2-72.1-74.4-72.1c-12.6,0-83-164.8-111.6-260.4
				c-25.2-84.1-34.3-143.6-37.8-246.1c-3.4-89.3,5.1-205.5,15.4-211.8c2.3-1.7,14.3,6.3,26.3,17.7
				c80.7,74.4,259.8,158.5,383.4,180.3c30.3,5.1,43.5,10.9,58.4,24.6c9.7,9.2,18.3,20,18.3,23.5c0,10.3,29.8,24,61.2,28.6l29.2,4
				l-12,20.6c-9.7,16-12.6,32.6-14.3,75.5c-2.3,53.8-2.3,54.9,16.6,82.4c26.3,38.9,57.8,54.9,107.6,54.9
				c55.5,0,77.8-14.3,103.6-65.8c26.3-52.1,28-98.4,5.1-144.2l-14.3-29.8l20.6-3.4c27.5-4.6,56.1-22.3,62.4-38.9
				c12.6-31.5,42.4-53.8,97.9-72.7c64.7-21.8,141.4-57.2,200.3-93.3l42.9-26.3l9.7,44.1c18.9,83.6,44.6,250.1,48.6,307.3
				c5.7,94.4-15.5,209.5-58.4,315.9c-18.9,48.1-21.2,50.9-45.2,60.7c-27.5,11.4-33.2,18.9-89.3,113.3
				c-61.2,104.7-116.2,160.8-192.3,196.9C4390.1,3065.5,4297.4,3074.1,4216.7,3058.1z"/>
		</g>
	</g>
	<g transform="translate(0.000000,568.000000) scale(0.100000,-0.100000)">
		<g>
			
				<linearGradient id="SVGID_00000048500903735880647770000010697154131752658831_" gradientUnits="userSpaceOnUse" x1="-5179.8008" y1="-27304.6582" x2="-5179.228" y2="-27304.6582" gradientTransform="matrix(24.0673 0 0 10.8497 128199.5938 299231.9062)">
				<stop  offset="0" style="stop-color:#000000;stop-opacity:0.3455"/>
				<stop  offset="1" style="stop-color:#000000;stop-opacity:0.3455"/>
			</linearGradient>
			<path style="fill:url(#SVGID_00000048500903735880647770000010697154131752658831_);" d="M4091.9,3283.6
				c-183.7-38.3-357.1-154.5-483.6-322.8c-56.1-74.4-72.7-110.4-72.7-155.7c0-61.2,16.6-85.9,77.3-114.5c26.9-12.6,42.9-16,72.7-16
				c33.8,0,40.1,1.7,60.1,17.7c12,9.7,34.3,35.5,49.2,57.2c135.6,196.3,330.8,317.6,509.4,317.1c81.3-0.6,150.5-23.5,215.2-72.1
				c43.5-32.6,82.4-80.1,126.5-156.2c54.9-92.7,58.4-97.9,81.3-109.9c53.2-27.5,149.9-1.7,179.1,48.1c12.6,21.2,8,45.8-18.3,98.4
				c-101.9,203.7-310.8,368-523.7,411.5C4300.3,3299.6,4161.2,3298.4,4091.9,3283.6z"/>
		</g>
	</g>
	<g transform="translate(0.000000,568.000000) scale(0.100000,-0.100000)">
		<g>
			
				<linearGradient id="SVGID_00000098215792118121343240000017072496926140969365_" gradientUnits="userSpaceOnUse" x1="-5155.5493" y1="-27811.2246" x2="-5154.9771" y2="-27811.2246" gradientTransform="matrix(22.1669 0 0 3.2242 117887.6875 91527.3203)">
				<stop  offset="0" style="stop-color:#FF5F51;stop-opacity:0.233"/>
				<stop  offset="1" style="stop-color:#FF5F51;stop-opacity:0.233"/>
			</linearGradient>
			<path style="fill:url(#SVGID_00000098215792118121343240000017072496926140969365_);" d="M3626.7,1928.4
				c36.6-35.5,121.9-79,197.4-100.7c131.6-37.8,258.7-54.4,445.8-58.4l141.9-3.4l-3.4,14.3l-3.4,14.3l90.4,3.4
				c104.2,4,159.7,10.9,231.8,29.2c41.2,10.3,51.5,11.4,54.9,5.2c8-13.7,72.7,28.6,88.1,58.4c5.7,10.3,5.1,10.3-7.4-1.1
				c-49.2-44.6-186-72.1-416.1-81.8c-268.4-12-524.2,14.9-689.1,72.1c-57.8,20-128.8,53.2-150.5,69.2
				C3600.9,1954.1,3609.5,1944.4,3626.7,1928.4z"/>
		</g>
	</g>
	<g transform="translate(0.000000,568.000000) scale(0.100000,-0.100000)">
		<g>
			
				<linearGradient id="SVGID_00000040568080274830525070000014139103001767660214_" gradientUnits="userSpaceOnUse" x1="-5011.9092" y1="-27703.4824" x2="-5011.3369" y2="-27703.4824" gradientTransform="matrix(14.891 0 0 3.775 78631.375 106508.5234)">
				<stop  offset="0" style="stop-color:#000000;stop-opacity:0.2334"/>
				<stop  offset="1" style="stop-color:#000000;stop-opacity:0.2334"/>
			</linearGradient>
			<path style="fill:url(#SVGID_00000040568080274830525070000014139103001767660214_);" d="M4474.8,2027.9
				c-109.3-16.6-223.8-52.1-325.6-100.2c-65.2-30.9-149.9-80.1-149.9-86.4c0-5.7,18.3-9.2,87.6-16.6l56.1-6.3l26.9,17.2
				c82.4,52.7,209.5,99.6,321.6,118.5c85.3,13.7,253,5.2,348-18.9c22.9-5.7,13.2,6.9-28.6,38.3c-78.4,58.4-79,58.9-187.1,60.7
				C4561.2,2035.4,4510.3,2033.1,4474.8,2027.9z"/>
		</g>
	</g>
	<g transform="translate(0.000000,568.000000) scale(0.100000,-0.100000)">
		<g>
			
				<linearGradient id="SVGID_00000092447469962774605400000011268559924844090017_" gradientUnits="userSpaceOnUse" x1="-3862.1218" y1="-27569.4883" x2="-3861.813" y2="-27569.8672" gradientTransform="matrix(4.6716 0 0 4.3208 21568.416 120939.2031)">
				<stop  offset="0" style="stop-color:#555555;stop-opacity:0.9755"/>
				<stop  offset="1" style="stop-color:#555555;stop-opacity:0.976"/>
			</linearGradient>
			<path style="fill:url(#SVGID_00000092447469962774605400000011268559924844090017_);" d="M3610.1,1879.1c0-1.7,5.1-12.6,11.4-24
				c23.5-44.1,9.7-95-31.5-119c-46.4-27.5-96.1-14.9-114.5,28l-8,17.7l-8.6-21.2c-18.3-42.9-6.3-87.6,30.3-111.6
				c28-18.9,83.6-18.3,124.8,1.1c64.7,29.8,110.4,91.6,103,137.9c-4.6,28.6-30.3,69.8-51.5,83
				C3649,1880.9,3610.1,1886.6,3610.1,1879.1z"/>
		</g>
	</g>
	<g transform="translate(0.000000,568.000000) scale(0.100000,-0.100000)">
		<g>
			
				<linearGradient id="SVGID_00000132071443393584931560000015915465247830829485_" gradientUnits="userSpaceOnUse" x1="-4454.2881" y1="-29204.3711" x2="-4453.7158" y2="-29204.3711" gradientTransform="matrix(6.5801 0 0 1.1859 33715.8164 36434.7422)">
				<stop  offset="0" style="stop-color:#FF7362;stop-opacity:0.2528"/>
				<stop  offset="1" style="stop-color:#FF7362;stop-opacity:0.2528"/>
			</linearGradient>
			<path style="fill:url(#SVGID_00000132071443393584931560000015915465247830829485_);" d="M4724.3,1826.5
				c-69.8-17.7-124.8-24.6-228.4-28.6c-90.4-3.4-97.3-5.2-85.3-24c4.6-6.9,18.9-7.4,79-4.6c151.1,8,314.8,44.6,290.7,65.2
				C4777,1837.4,4753.5,1833.9,4724.3,1826.5z"/>
		</g>
	</g>
	<g transform="translate(0.000000,568.000000) scale(0.100000,-0.100000)">
		<g>
			
				<linearGradient id="SVGID_00000106110387449929915950000013515121562527617951_" gradientUnits="userSpaceOnUse" x1="-4711.1011" y1="-27356.666" x2="-4711.6104" y2="-27356.2891" gradientTransform="matrix(9.6606 0 0 4.5845 49958.9219 125879.5234)">
				<stop  offset="0" style="stop-color:#FFFFFF;stop-opacity:0.2083"/>
				<stop  offset="1" style="stop-color:#FFFFFF;stop-opacity:0.2101"/>
			</linearGradient>
			<path style="fill:url(#SVGID_00000106110387449929915950000013515121562527617951_);" d="M4282.5,634.4
				c-125.3-26.9-222.1-79.5-248.9-134.5c-22.3-46.4-8-75.5,48.6-100.7c41.8-18.9,156.2-22.3,231.8-6.3
				c148.8,31.5,254.1,96.7,261.5,162.5c2.3,21.2,0.6,28-12,42.9c-8,9.7-28,23.5-44.6,30.9C4476,648.1,4357.5,650.4,4282.5,634.4z"/>
		</g>
	</g>
	<g transform="translate(0.000000,568.000000) scale(0.100000,-0.100000)">
		<g>
			
				<linearGradient id="SVGID_00000150100037789485867010000017804508051317600938_" gradientUnits="userSpaceOnUse" x1="-4333.2642" y1="-29762.8477" x2="-4332.6919" y2="-29762.8477" gradientTransform="matrix(6.1018 0 0 1.0548 30521.6543 33592.582)">
				<stop  offset="0" style="stop-color:#000000;stop-opacity:0.3455"/>
				<stop  offset="1" style="stop-color:#000000;stop-opacity:0.3455"/>
			</linearGradient>
			<path style="fill:url(#SVGID_00000150100037789485867010000017804508051317600938_);" d="M4125.1,2226
				c-24-5.1-46.4-18.3-44.1-26.3c2.9-8.6,51.5-19.5,123-26.3c49.2-5.1,81.8-5.1,139.6,0c87,8,96.1,10.9,79.5,25.8
				c-12,10.9-48.6,25.8-65.2,26.3c-5.7,0-20-6.9-30.9-15.4c-18.9-14.3-25.8-16-65.2-16c-40.6,0-46.4,1.7-70.4,18.9
				C4164,2231.7,4159.5,2232.8,4125.1,2226z"/>
		</g>
	</g>
	<g transform="translate(0.000000,568.000000) scale(0.100000,-0.100000)">
		<g>
			
				<linearGradient id="SVGID_00000144316514207941570220000011971942901161485489_" gradientUnits="userSpaceOnUse" x1="-4916.6616" y1="-27028.2285" x2="-4917.1426" y2="-27028.7656" gradientTransform="matrix(14.7768 0 0 27.73 76826.0625 751248.9375)">
				<stop  offset="0" style="stop-color:#FFFFFF;stop-opacity:8.750000e-02"/>
				<stop  offset="1" style="stop-color:#FFFFFF;stop-opacity:8.760000e-02"/>
			</linearGradient>
			<path style="fill:url(#SVGID_00000144316514207941570220000011971942901161485489_);" d="M3789.2,1749.2
				c-131.1-243.2-257-525.9-327.4-734.3c-72.1-214-143.1-533.4-136.8-616.4l1.7-24l54.4-21.8c147.6-60.1,309.6-104.7,405.8-111.6
				l52.1-3.4v39.5c0,163.7,38.3,522.5,77.8,725.1c48.1,250.1,146.5,556.9,234.6,731.4l18.9,37.8l-49.8,4
				c-72.7,5.7-162,18.9-228.9,34.9c-32.6,8-60.1,14.3-60.7,14.3S3811.5,1790.4,3789.2,1749.2z"/>
		</g>
	</g>
	<g transform="translate(0.000000,568.000000) scale(0.100000,-0.100000)">
		<g>
			
				<linearGradient id="SVGID_00000115497524164814734520000000085479179015539646_" gradientUnits="userSpaceOnUse" x1="-4965.1035" y1="-27082.7949" x2="-4965.6011" y2="-27082.2852" gradientTransform="matrix(14.4 0 0 26.7608 76666 725145.6875)">
				<stop  offset="0" style="stop-color:#FFFFFF;stop-opacity:0.1476"/>
				<stop  offset="1" style="stop-color:#FFFFFF;stop-opacity:0.1477"/>
			</linearGradient>
			<path style="fill:url(#SVGID_00000115497524164814734520000000085479179015539646_);" d="M4753.5,1812.8
				c-56.1-21.8-210.6-45.2-300.5-45.2c-20.6,0-36-2.3-36-5.7s19.5-44.6,42.9-91.6c178.6-356,268.4-621.5,334.2-987.2
				c30.3-166.5,50.4-352,41.2-376.6c-3.4-8.6-4-15.5-1.1-15.5s39.5,11.5,81.3,25.2c132.8,42.9,232.9,89.9,298.7,139.6
				c21.8,16.6,26.9,24,26.9,38.3c0,32.1-39.5,291.3-60.1,394.3c-51.5,257-101.3,396.6-231.2,647.3
				c-60.7,117.3-156.8,285-164.2,286.7C4782.7,1823.1,4768.4,1818.5,4753.5,1812.8z"/>
		</g>
	</g>
	<g transform="translate(0.000000,568.000000) scale(0.100000,-0.100000)">
		<g>
			
				<linearGradient id="SVGID_00000151544485935842935490000014586599186249217457_" gradientUnits="userSpaceOnUse" x1="-4279.8721" y1="-27275.3398" x2="-4279.2998" y2="-27275.3398" gradientTransform="matrix(6.7072 0 0 8.2484 31370.75 226509.7031)">
				<stop  offset="0" style="stop-color:#000000;stop-opacity:0.5136"/>
				<stop  offset="1" style="stop-color:#000000;stop-opacity:0.5136"/>
			</linearGradient>
			<path style="fill:url(#SVGID_00000151544485935842935490000014586599186249217457_);" d="M2879.2,1757.2
				c17.7-19.5,26.9-51.5,26.9-95.6c0-76.7-33.8-150.5-96.7-210.6c-40.1-38.3-76.1-55.5-116.2-55.5h-28.6l10.9-18.3
				c14.9-25.8,56.1-52.1,109.3-69.8c42.4-14.3,45.8-14.9,69.8-6.3c76.1,25.8,168.8,144.2,188.9,241.5c9.7,44.6,4.6,112.7-9.7,145.4
				c-10.9,24.6-16,28.6-64.7,53.2c-36.6,18.3-59.5,26.3-76.1,26.3C2871.2,1767.5,2870.6,1767,2879.2,1757.2z"/>
		</g>
	</g>
	<g transform="translate(0.000000,568.000000) scale(0.100000,-0.100000)">
		<g>
			
				<linearGradient id="SVGID_00000076580060786919290440000006118223833286387105_" gradientUnits="userSpaceOnUse" x1="-4197.4834" y1="-27248.4766" x2="-4196.9111" y2="-27248.4766" gradientTransform="matrix(5.9811 0 0 8.4526 28286.6348 231627.6719)">
				<stop  offset="0" style="stop-color:#000000;stop-opacity:0.5136"/>
				<stop  offset="1" style="stop-color:#000000;stop-opacity:0.5136"/>
			</linearGradient>
			<path style="fill:url(#SVGID_00000076580060786919290440000006118223833286387105_);" d="M3378.3,1542.1
				c-10.3-7.4-9.7-8.6,12-19.5c26.9-13.7,58.9-44.6,65.8-62.9c15.4-40.6-0.6-126.5-36.6-200.9c-47.5-97.9-119.6-148.8-188.9-133.9
				c-16.6,3.4-34.3,8-39.5,10.3c-28,10.9,8-41.8,38.3-57.2c117.3-57.8,281,111.6,293,303.3c4,65.8-6.3,107-34.9,135.1
				C3455.5,1547.2,3402.3,1559.8,3378.3,1542.1z"/>
		</g>
	</g>
	<g transform="translate(0.000000,568.000000) scale(0.100000,-0.100000)">
		<g>
			
				<linearGradient id="SVGID_00000039127686315581872170000006107715333319122872_" gradientUnits="userSpaceOnUse" x1="-3110.0305" y1="-27504.7676" x2="-3109.4983" y2="-27504.8242" gradientTransform="matrix(3.4225 0 0 4.7114 13282.543 131198.5312)">
				<stop  offset="0" style="stop-color:#FFFFFF;stop-opacity:0.773"/>
				<stop  offset="1" style="stop-color:#FFFFFF;stop-opacity:0.7751"/>
			</linearGradient>
			<path style="fill:url(#SVGID_00000039127686315581872170000006107715333319122872_);" d="M2736.7,1717.2
				c-65.8-48.1-112.2-140.8-102.4-204.9c4-26.9,23.5-48.1,45.2-48.1c40.6,0.6,101.3,55.5,131.1,119c15.4,32.6,18.3,44.6,18.3,81.8
				c0,35.5-2.3,46.4-10.9,56.1C2801.4,1739.5,2764.8,1737.8,2736.7,1717.2z M2751.6,1630.2c0-32.1-30.3-73.8-48.6-67
				c-24.6,9.7,9.2,84.1,38.3,84.1C2748.8,1647.4,2751.6,1642.8,2751.6,1630.2z"/>
		</g>
	</g>
	<g transform="translate(0.000000,568.000000) scale(0.100000,-0.100000)">
		<g>
			
				<linearGradient id="SVGID_00000038407447313073256890000011890154941717976506_" gradientUnits="userSpaceOnUse" x1="466.5667" y1="-29600.0137" x2="467.1389" y2="-29600.0137" gradientTransform="matrix(1.172 0 0 1.172 3637.1414 37072.2227)">
				<stop  offset="0" style="stop-color:#FFF9F1;stop-opacity:0.5085"/>
				<stop  offset="1" style="stop-color:#FFF9F1;stop-opacity:0.5085"/>
			</linearGradient>
			<path style="fill:url(#SVGID_00000038407447313073256890000011890154941717976506_);" d="M4190.4,2399.4
				c-21.2-31.5,14.3-67,45.8-45.8c17.2,10.9,20,37.2,5.7,51.5C4227.6,2419.4,4201.2,2416.5,4190.4,2399.4z"/>
		</g>
	</g>
</g>
<g transform="translate(0.000000,568.000000) scale(0.100000,-0.100000)">
	<g>
		
			<linearGradient id="SVGID_00000134943404418685500780000008673674784403430019_" gradientUnits="userSpaceOnUse" x1="-5307.8877" y1="-27295.7031" x2="-5307.3154" y2="-27295.7031" gradientTransform="matrix(42.2388 0 0 11.3 226986.9688 306834)">
			<stop  offset="0" style="stop-color:#5A5B58"/>
			<stop  offset="1" style="stop-color:#5A5B58"/>
		</linearGradient>
		<path style="fill:url(#SVGID_00000134943404418685500780000008673674784403430019_);" d="M5170.7-1358.5
			c-2.9-71-4-76.1-22.3-113.9c-25.8-51.5-95.6-125.3-156.8-166c-196.9-130.5-473.9-197.4-890.5-215.8
			c-387.4-17.2-729.1,35.5-950,145.9c-182.6,91-306.8,224.9-334.2,358.8l-7.4,36.6l-10.3-31.5c-14.3-41.2-14.3-112.7-0.6-152.8
			c60.7-178,349.1-334.2,741.7-401.8c162-27.5,221.5-32.1,455-32.1c235.2,0,287.3,3.4,446.4,29.2
			c230.6,37.8,441.8,110.4,579.2,199.7c72.1,46.9,139.1,115.6,164.8,168.8c19.5,41.8,20,44.6,20,111.6c0,63.5-1.1,71-16.6,103
			l-16,34.3L5170.7-1358.5z"/>
	</g>
</g>
<g transform="translate(0.000000,568.000000) scale(0.100000,-0.100000)">
	<g>
		
			<linearGradient id="SVGID_00000088820203739022473670000011384796294484142738_" gradientUnits="userSpaceOnUse" x1="-4076.2815" y1="-28071.584" x2="-4075.7092" y2="-28071.584" gradientTransform="matrix(6.25 0 0 2.397 32112.5 69272.0703)">
			<stop  offset="0" style="stop-color:#A7A39E"/>
			<stop  offset="1" style="stop-color:#A7A39E"/>
		</linearGradient>
		<path style="fill:url(#SVGID_00000088820203739022473670000011384796294484142738_);" d="M6635.7,2048.7c0-2.9,10.9-11.4,24-18.9
			c32.6-18.9,69.2-53.8,90.4-87c10.3-15.4,22.3-28,28-28c18.3,0.6,107,22.3,140.2,34.3c18.9,7.4,42.9,21.2,54.4,32.1l20.6,18.3
			l-13.7,14.9c-7.4,8-15.5,13.7-17.2,12c-2.3-1.1-32,2.9-66.4,9.2C6827.5,2047.6,6635.7,2057.3,6635.7,2048.7z"/>
	</g>
</g>
<g transform="translate(0.000000,568.000000) scale(0.100000,-0.100000)">
	<g>
		
			<linearGradient id="SVGID_00000157306188296688293440000004344858139245821879_" gradientUnits="userSpaceOnUse" x1="-5119.2285" y1="-27038.0527" x2="-5118.6562" y2="-27038.0527" gradientTransform="matrix(27.5836 0 0 27.4997 147289.9062 747616.4375)">
			<stop  offset="0" style="stop-color:#B3BCBA"/>
			<stop  offset="1" style="stop-color:#B3BCBA"/>
		</linearGradient>
		<path style="fill:url(#SVGID_00000157306188296688293440000004344858139245821879_);" d="M6761.9,4853.6
			c-100.7-21.2-199.2-65.2-289.6-129.9c-91.6-65.2-209.5-196.9-250.7-280.4c-16.6-33.8-17.7-38.3-14.3-84.7
			c2.9-46.4,1.7-52.1-14.3-87.6c-25.8-57.2-58.4-156.2-75-226.6c-28.6-120.8-34.9-183.7-34.9-334.8c-0.6-159.7,6.3-212.3,41.2-317.6
			c25.8-79.6,43.5-100.1,84.7-100.1c72.1,0,116.2,70.4,82.4,132.8c-14.9,28-36.6,96.1-32,100.7c2.3,1.7,8.6,0.6,13.7-3.4
			c5.1-3.4,29.2-17.2,53.2-29.2c189.4-98.4,519.1-137.9,906.5-108.2c44.1,2.9,83.6,7.4,87,9.7c17.2,9.2-52.1,88.1-100.7,116.2
			c-13.2,7.4-23.5,15.4-23.5,18.3c0,8.6,191.7-1.1,260.4-13.2c34.3-6.3,64.1-10.3,66.4-8.6c2.3,1.1,13.2-8,24.6-20.6
			c24-26.9,22.3-28.6,48.1,51.5c68.7,211.2,84.7,421.2,45.8,600.9c-6.3,29.8-22.9,86.4-37.2,125.9c-13.7,39.5-25.2,75.5-24.6,80.1
			c5.7,49.8-12,97.3-64.1,174.5c-119,175.1-295.3,299.3-480.7,337.1C6970.3,4869.6,6831.2,4868.5,6761.9,4853.6z"/>
	</g>
</g>
<g transform="translate(0.000000,568.000000) scale(0.100000,-0.100000)">
	<g>
		
			<linearGradient id="SVGID_00000142878045953472592330000002255424393806997670_" gradientUnits="userSpaceOnUse" x1="-4836.3481" y1="-27627.2109" x2="-4835.7759" y2="-27627.2109" gradientTransform="matrix(14.9204 0 0 3.0961 78550.7734 88448)">
			<stop  offset="0" style="stop-color:#A7A39E"/>
			<stop  offset="1" style="stop-color:#A7A39E"/>
		</linearGradient>
		<path style="fill:url(#SVGID_00000142878045953472592330000002255424393806997670_);" d="M6486.3,2985.7
			c-28-7.4-61.2-17.2-73.8-21.2l-21.8-8l21.8-19.5c57.8-50.4,137.9-88.7,223.2-105.9c71-14.3,183.7-9.7,255.2,9.7
			c89.3,24.6,177.4,34.9,275.9,31.5c53.8-1.7,82.4-0.6,77.3,2.9c-33.8,22.9-152.8,73.8-216.9,93.3c-13.7,4.6-13.7,4-4-10.3
			c9.2-14.3,9.2-14.9-9.2-20.6c-77.8-24.6-264.4-34.9-347.4-18.9c-45.8,9.2-103.6,27.5-117.3,37.8c-10.3,7.4-9.7,8.6,2.3,25.8
			l12.6,17.7H6551C6543.5,2999.4,6514.9,2993.1,6486.3,2985.7z"/>
	</g>
</g>
<g transform="translate(0.000000,568.000000) scale(0.100000,-0.100000)">
	<g>
		
			<linearGradient id="SVGID_00000163786417201391565670000017110054980461553556_" gradientUnits="userSpaceOnUse" x1="-5102.7075" y1="-27228.0742" x2="-5102.1348" y2="-27228.0742" gradientTransform="matrix(16.1814 0 0 12.6527 83266.4219 345156.4688)">
			<stop  offset="0" style="stop-color:#B3BCBA"/>
			<stop  offset="1" style="stop-color:#B3BCBA"/>
		</linearGradient>
		<path style="fill:url(#SVGID_00000163786417201391565670000017110054980461553556_);" d="M859.6,999
			c-52.7-26.3-105.9-88.1-140.8-164.2c-16-34.3-18.3-45.8-20.6-101.9c-2.3-57.8-1.1-64.1,10.3-78.4c6.3-8.6,21.2-20,32-25.2
			c11.5-5.7,26.9-20,34.3-32c18.3-28.6,54.9-51.5,112.7-71c25.2-8.6,123.6-52.6,218.1-97.9c143.1-69.2,175.7-87,191.2-105.3
			c22.9-26.3,64.1-41.2,100.7-36c109.3,16.6,215.2,165.4,224.9,314.2c4,65.8-6.3,107-34.9,135.1c-30.3,29.2-79.6,42.3-106.4,28
			c-8.6-4.6-54.4,16-238.7,108.7c-202,101.3-231.8,114.5-255.8,114.5c-18.9,0-32,3.4-41.8,11.5C926,1013.9,890,1013.9,859.6,999z"/>
	</g>
</g>
<g transform="translate(0.000000,568.000000) scale(0.100000,-0.100000)">
	<g>
		
			<linearGradient id="SVGID_00000029023664608866935250000002970505910564777898_" gradientUnits="userSpaceOnUse" x1="-5238.3008" y1="-27119.3965" x2="-5237.7285" y2="-27119.3965" gradientTransform="matrix(41.1232 0 0 31.8664 220912.7344 862870.8125)">
			<stop  offset="0" style="stop-color:#228F92"/>
			<stop  offset="1" style="stop-color:#228F92"/>
		</linearGradient>
		<path style="fill:url(#SVGID_00000029023664608866935250000002970505910564777898_);" d="M6077.2-418.2c0-10.3,24-77.8,34.9-97.9
			c32.6-61.2-11.5-132.2-82.4-132.2c-35.5,0-56.1,17.7-72.7,64.1c-7.4,20-13.7,36.6-14.9,37.8c-6.9,9.7-179.7-213.5-179.7-232.3
			c0-9.2,100.7-52.1,109.3-46.4c10.9,6.9,44.6,5.7,67-2.9c89.9-32,101.3-180.8,25.2-326.8c-40.1-75.5-115-139.1-176.3-148.2
			c-36-5.2-79,9.7-97.9,34.9c-10.9,13.7-30.9,27.5-63.5,42.3c-26.3,12.6-49.8,21.2-52.6,19.5c-6.3-4-37.2-133.3-50.9-214.6
			c-15.5-92.1-23.5-168.8-25.2-251.8c-1.1-66.4,0-74.4,13.7-107.6c26.9-62.9,52.6-99.6,111-159.1c64.1-64.7,119.6-104.2,208.9-148.8
			c220.9-110.4,562.6-163.1,950-145.9c416.6,18.3,693.6,85.3,890.5,215.8c61.2,40.6,131.1,114.5,156.8,166
			c18.3,37.2,19.5,43.5,21.8,111.6c6.3,198.6-59,524.8-150.5,749.7c-67,164.2-170.5,338.2-285.6,481.3L7374-460l-21.2-19.5
			c-52.1-46.9-180.9-72.7-416.1-83c-268.4-12-524.2,14.9-689,72.1c-60.1,21.2-144.2,60.7-150.5,71
			C6093.2-412.5,6077.2-411.3,6077.2-418.2z"/>
	</g>
</g>
<g transform="translate(0.000000,568.000000) scale(0.100000,-0.100000)">
	<g>
		
			<linearGradient id="SVGID_00000075875687985060689930000002343599141075182246_" gradientUnits="userSpaceOnUse" x1="-3602.2886" y1="-27866.9648" x2="-3601.7163" y2="-27866.9648" gradientTransform="matrix(3.3906 0 0 4.4746 15935.7432 124092.2891)">
			<stop  offset="0" style="stop-color:#4AA3A6"/>
			<stop  offset="1" style="stop-color:#4AA3A6"/>
		</linearGradient>
		<path style="fill:url(#SVGID_00000075875687985060689930000002343599141075182246_);" d="M3753.7-493.5
			c-58.9-59.5-32.1-194,45.8-228.4c45.2-20,83.6-5.7,105.3,39.5c17.7,37.2,13.7,101.3-9.7,144.8c-23.5,42.9-52.6,63-91.6,63
			C3776.6-474.6,3770.8-476.9,3753.7-493.5z"/>
	</g>
</g>
<g transform="translate(0.000000,568.000000) scale(0.100000,-0.100000)">
	<g>
		
			<linearGradient id="SVGID_00000060000576840033782980000006922429161046476988_" gradientUnits="userSpaceOnUse" x1="-4149.1689" y1="-27496.9629" x2="-4149.2661" y2="-27496.3848" gradientTransform="matrix(4.3722 0 0 4.8854 21123.5781 137174.6875)">
			<stop  offset="0" style="stop-color:#333431"/>
			<stop  offset="1" style="stop-color:#C8C8C7"/>
		</linearGradient>
		<path style="fill:url(#SVGID_00000060000576840033782980000006922429161046476988_);" d="M2899,3108.3c-15.4-8-32.6-24-44.6-41.8
			c-18.9-27.5-18.9-28.6-16.6-82.4c1.7-47.5,4-58.4,17.7-81.8c22.9-38.3,53.8-57.2,98.4-60.1c61.2-4,108.2,30.9,126.5,93.9
			c12,41.8,8,74.4-16.6,122.5c-24,48.1-47.5,62.9-101.9,62.9C2933.3,3121.5,2917.8,3118,2899,3108.3z"/>
	</g>
</g>
<g transform="translate(0.000000,568.000000) scale(0.100000,-0.100000)">
	<g>
		
			<linearGradient id="SVGID_00000122696069831325708680000017762445589006976670_" gradientUnits="userSpaceOnUse" x1="-3595.8616" y1="-27689.248" x2="-3595.2893" y2="-27689.248" gradientTransform="matrix(3.443 0 0 2.7295 16033.8965 79104.7656)">
			<stop  offset="0" style="stop-color:#84817D"/>
			<stop  offset="1" style="stop-color:#84817D"/>
		</linearGradient>
		<path style="fill:url(#SVGID_00000122696069831325708680000017762445589006976670_);" d="M3714.7,3592.6
			c-35.5-18.3-63.5-61.2-61.2-92.1c1.7-20.6,4.6-24.6,26.3-37.2c27.5-14.9,75.5-18.3,89.9-6.3c4.6,4,8.6,13.2,8.6,20.6
			c0,14.3,17.2,54.4,30.9,72.7c5.1,6.9,13.7,9.7,24,8.6c25.8-2.9,21.8,17.7-6.3,33.8C3795.4,3610.3,3749,3610.3,3714.7,3592.6z"/>
	</g>
	<g>
		
			<linearGradient id="SVGID_00000098925190589914919710000001399610742897271948_" gradientUnits="userSpaceOnUse" x1="-2004.6023" y1="-27560.5898" x2="-2004.0299" y2="-27560.5898" gradientTransform="matrix(1.8453 0 0 3.239 7472.7275 92721.0469)">
			<stop  offset="0" style="stop-color:#84817D"/>
			<stop  offset="1" style="stop-color:#84817D"/>
		</linearGradient>
		<path style="fill:url(#SVGID_00000098925190589914919710000001399610742897271948_);" d="M3843.4,3535.9
			c-7.4-23.5-32.1-56.1-52.1-68.1c-19.5-12-19.5-12.6-16-41.8c9.2-67,26.3-80.7,62.4-49.2c44.1,38.9,56.1,131.1,21.2,162.5
			C3848.6,3549.1,3847.5,3548.5,3843.4,3535.9z"/>
	</g>
</g>
<g transform="translate(0.000000,568.000000) scale(0.100000,-0.100000)">
	<g>
		
			<linearGradient id="SVGID_00000086651515539491070670000003349616135235272122_" gradientUnits="userSpaceOnUse" x1="-3454.3093" y1="-27098.541" x2="-3453.7371" y2="-27098.541" gradientTransform="matrix(3.1864 0 0 16.0456 13397.7021 438108.4375)">
			<stop  offset="0" style="stop-color:#A7A39E"/>
			<stop  offset="1" style="stop-color:#A7A39E"/>
		</linearGradient>
		<path style="fill:url(#SVGID_00000086651515539491070670000003349616135235272122_);" d="M2509.7,3659.1
			c-61.2-166.5-72.7-231.8-72.7-410.9c0-69.2,1.7-142.5,4-163.1l3.4-37.2l-8,25.8c-4.6,14.3-10.9,71-14.3,125.9
			c-3.4,54.9-7.4,103.6-8.6,108.2c-5.7,18.9-13.2-5.7-19.5-64.7c-8.6-77.3-0.6-167.1,22.9-258.7c16-60.7,42.4-136.8,52.1-147.6
			c2.3-2.9,6.3,13.7,8.6,36.1c2.3,22.9,8.6,50.9,14.3,62.4c13.7,26.3,13.7,54.4-0.6,152.8c-6.9,44.1-13.2,125.3-15.4,180.3
			c-5.1,153.9,12,247.2,73.2,400.6c26.3,66.4,28,72.1,18.9,78.4c-5.7,4-13.2,7.4-16.6,7.4
			C2547.5,3754.7,2528.6,3711.8,2509.7,3659.1z"/>
	</g>
</g>
<g transform="translate(0.000000,568.000000) scale(0.100000,-0.100000)">
	<g>
		
			<linearGradient id="SVGID_00000005971891331689918620000003061632459720212098_" gradientUnits="userSpaceOnUse" x1="-5102.1118" y1="-27056.9922" x2="-5101.5396" y2="-27056.9922" gradientTransform="matrix(22.1695 0 0 19.3426 117842.2656 527544.3125)">
			<stop  offset="0" style="stop-color:#F2FFFC"/>
			<stop  offset="1" style="stop-color:#F2FFFC"/>
		</linearGradient>
		
			<path style="fill:url(#SVGID_00000005971891331689918620000003061632459720212098_);stroke:#000000;stroke-width:0.1;stroke-miterlimit:1;" d="
			M5376.7,4738.1c-148.8-29.8-316.5-152.2-421.2-308.5c-24-35.5-61.2-72.1-74.4-72.1c-12.6,0-83-164.8-111.6-260.4
			c-25.2-84.1-34.3-143.6-37.8-246.1c-3.4-89.3,5.1-205.5,15.5-211.8c2.3-1.7,14.3,6.3,26.3,17.7c80.7,74.4,259.8,158.5,383.4,180.3
			c30.3,5.1,43.5,10.9,58.4,24.6c9.7,9.2,18.3,20,18.3,23.5c0,10.3,29.8,24,61.2,28.6l29.2,4l-12,20.6c-9.7,16-12.6,32.6-14.3,75.5
			c-2.3,53.8-2.3,54.9,16.6,82.4c26.3,38.9,57.8,54.9,107.6,54.9c55.5,0,77.8-14.3,103.6-65.8c26.3-52.1,28-98.4,5.1-144.2
			l-14.3-29.8l20.6-3.4c27.5-4.6,56.1-22.3,62.4-38.9c12.6-31.5,42.4-53.8,97.9-72.7c64.7-21.8,141.4-57.2,200.3-93.3l42.9-26.3
			l9.7,44.1c18.9,83.6,44.6,250.1,48.6,307.3c5.7,94.4-15.5,209.5-58.4,315.9c-18.9,48.1-21.2,50.9-45.2,60.7
			c-27.5,11.5-33.2,18.9-89.3,113.3c-61.2,104.7-116.2,160.8-192.3,196.9C5550.1,4745.5,5457.4,4754.1,5376.7,4738.1z"/>
	</g>
</g>
<g transform="translate(0.000000,568.000000) scale(0.100000,-0.100000)">
	<g>
		
			<linearGradient id="SVGID_00000124879381582861132570000010188343299044889276_" gradientUnits="userSpaceOnUse" x1="-5202.2378" y1="-27165.4844" x2="-5201.6655" y2="-27165.4844" gradientTransform="matrix(24.0673 0 0 10.8497 128199.5938 299231.9062)">
			<stop  offset="0" style="stop-color:#000000;stop-opacity:0.3455"/>
			<stop  offset="1" style="stop-color:#000000;stop-opacity:0.3455"/>
		</linearGradient>
		<path style="fill:url(#SVGID_00000124879381582861132570000010188343299044889276_);" d="M3551.9,4793.6
			c-183.7-38.3-357.1-154.5-483.6-322.8c-56.1-74.4-72.7-110.5-72.7-155.7c0-61.2,16.6-85.9,77.3-114.5c26.9-12.6,42.9-16,72.7-16
			c33.8,0,40.1,1.7,60.1,17.7c12,9.7,34.3,35.5,49.2,57.2c135.6,196.3,330.8,317.6,509.4,317.1c81.3-0.6,150.5-23.5,215.2-72.1
			c43.5-32.6,82.4-80.1,126.5-156.2c54.9-92.7,58.4-97.9,81.3-109.9c53.2-27.5,149.9-1.7,179.1,48.1c12.6,21.2,8,45.8-18.3,98.4
			c-101.9,203.7-310.8,368-523.7,411.5C3760.3,4809.6,3621.2,4808.5,3551.9,4793.6z"/>
	</g>
</g>
<g transform="translate(0.000000,568.000000) scale(0.100000,-0.100000)">
	<g>
		
			<linearGradient id="SVGID_00000001640371775072135980000014019895651809940111_" gradientUnits="userSpaceOnUse" x1="-5022.4683" y1="-27891.8652" x2="-5021.896" y2="-27891.8652" gradientTransform="matrix(22.1669 0 0 3.2242 117887.6875 91527.3203)">
			<stop  offset="0" style="stop-color:#FF5F51;stop-opacity:0.233"/>
			<stop  offset="1" style="stop-color:#FF5F51;stop-opacity:0.233"/>
		</linearGradient>
		<path style="fill:url(#SVGID_00000001640371775072135980000014019895651809940111_);" d="M6576.7,1668.4
			c36.6-35.5,121.9-79,197.4-100.7c131.6-37.8,258.7-54.4,445.8-58.4l141.9-3.4l-3.4,14.3l-3.4,14.3l90.4,3.4
			c104.2,4,159.7,10.9,231.8,29.2c41.2,10.3,51.5,11.4,54.9,5.2c8-13.7,72.7,28.6,88.1,58.4c5.7,10.3,5.1,10.3-7.4-1.1
			c-49.2-44.6-186-72.1-416.1-81.8c-268.4-12-524.2,14.9-689,72.1c-57.8,20-128.8,53.2-150.5,69.2
			C6550.9,1694.1,6559.5,1684.4,6576.7,1668.4z"/>
	</g>
</g>
<g transform="translate(0.000000,568.000000) scale(0.100000,-0.100000)">
	<g>
		
			<linearGradient id="SVGID_00000022542719453543004290000001677235347837839513_" gradientUnits="userSpaceOnUse" x1="-4854.7671" y1="-27576.332" x2="-4854.1948" y2="-27576.332" gradientTransform="matrix(14.891 0 0 3.775 78631.375 106508.5234)">
			<stop  offset="0" style="stop-color:#000000;stop-opacity:0.2334"/>
			<stop  offset="1" style="stop-color:#000000;stop-opacity:0.2334"/>
		</linearGradient>
		<path style="fill:url(#SVGID_00000022542719453543004290000001677235347837839513_);" d="M6814.8,2507.9
			c-109.3-16.6-223.8-52.1-325.6-100.1c-65.2-30.9-149.9-80.1-149.9-86.4c0-5.7,18.3-9.2,87.6-16.6l56.1-6.3l26.9,17.2
			c82.4,52.6,209.5,99.6,321.6,118.5c85.3,13.7,253,5.1,348-18.9c22.9-5.7,13.2,6.9-28.6,38.3c-78.4,58.4-79,58.9-187.1,60.7
			C6901.2,2515.4,6850.3,2513.1,6814.8,2507.9z"/>
	</g>
</g>
<g transform="translate(0.000000,568.000000) scale(0.100000,-0.100000)">
	<g>
		
			<linearGradient id="SVGID_00000128453339853790258110000016517307305697702554_" gradientUnits="userSpaceOnUse" x1="-4230.3013" y1="-27358.875" x2="-4229.9922" y2="-27359.2539" gradientTransform="matrix(4.6716 0 0 4.3208 21568.416 120939.2031)">
			<stop  offset="0" style="stop-color:#555555;stop-opacity:0.9755"/>
			<stop  offset="1" style="stop-color:#555555;stop-opacity:0.976"/>
		</linearGradient>
		<path style="fill:url(#SVGID_00000128453339853790258110000016517307305697702554_);" d="M1890.1,2789.1c0-1.7,5.2-12.6,11.4-24
			c23.5-44.1,9.7-95-31.5-119c-46.4-27.5-96.2-14.9-114.5,28l-8,17.7l-8.6-21.2c-18.3-42.9-6.3-87.6,30.3-111.6
			c28-18.9,83.6-18.3,124.8,1.1c64.7,29.8,110.4,91.6,103,137.9c-4.6,28.6-30.3,69.8-51.5,83
			C1929,2790.9,1890.1,2796.6,1890.1,2789.1z"/>
	</g>
</g>
<g transform="translate(0.000000,568.000000) scale(0.100000,-0.100000)">
	<g>
		
			<linearGradient id="SVGID_00000074401460917559674110000003397424946179246733_" gradientUnits="userSpaceOnUse" x1="-4060.6763" y1="-29634.4277" x2="-4060.104" y2="-29634.4277" gradientTransform="matrix(6.5801 0 0 1.1859 33715.8164 36434.7422)">
			<stop  offset="0" style="stop-color:#FF7362;stop-opacity:0.2528"/>
			<stop  offset="1" style="stop-color:#FF7362;stop-opacity:0.2528"/>
		</linearGradient>
		<path style="fill:url(#SVGID_00000074401460917559674110000003397424946179246733_);" d="M7314.3,1316.5
			c-69.8-17.7-124.8-24.6-228.4-28.6c-90.4-3.4-97.3-5.2-85.3-24c4.6-6.9,18.9-7.4,79-4.6c151.1,8,314.8,44.6,290.7,65.2
			C7367,1327.4,7343.5,1323.9,7314.3,1316.5z"/>
	</g>
</g>
<g transform="translate(0.000000,568.000000) scale(0.100000,-0.100000)">
	<g>
		
			<linearGradient id="SVGID_00000068637923165001687320000004419860122999629987_" gradientUnits="userSpaceOnUse" x1="-4711.1011" y1="-27662.043" x2="-4711.6104" y2="-27661.6641" gradientTransform="matrix(9.6606 0 0 4.5845 49958.9219 125879.5234)">
			<stop  offset="0" style="stop-color:#FFFFFF;stop-opacity:0.2083"/>
			<stop  offset="1" style="stop-color:#FFFFFF;stop-opacity:0.2101"/>
		</linearGradient>
		
			<path style="fill:url(#SVGID_00000068637923165001687320000004419860122999629987_);stroke:#000000;stroke-width:0.1;stroke-miterlimit:1;" d="
			M4282.5-765.6c-125.3-26.9-222.1-79.5-248.9-134.5c-22.3-46.4-8-75.5,48.6-100.7c41.8-18.9,156.2-22.3,231.8-6.3
			c148.8,31.5,254.1,96.7,261.5,162.5c2.3,21.2,0.6,28-12,42.9c-8,9.7-28,23.5-44.6,30.9C4476-751.9,4357.5-749.6,4282.5-765.6z"/>
	</g>
</g>
<g transform="translate(0.000000,568.000000) scale(0.100000,-0.100000)">
	<g>
		
			<linearGradient id="SVGID_00000078747448144288445890000015127581027515965321_" gradientUnits="userSpaceOnUse" x1="-4333.2642" y1="-29762.8477" x2="-4332.6919" y2="-29762.8477" gradientTransform="matrix(6.1018 0 0 1.0548 30521.6543 33592.582)">
			<stop  offset="0" style="stop-color:#000000;stop-opacity:0.3455"/>
			<stop  offset="1" style="stop-color:#000000;stop-opacity:0.3455"/>
		</linearGradient>
		<path style="fill:url(#SVGID_00000078747448144288445890000015127581027515965321_);" d="M4125.1,2226
			c-24-5.1-46.4-18.3-44.1-26.3c2.9-8.6,51.5-19.5,123-26.3c49.2-5.1,81.8-5.1,139.6,0c87,8,96.1,10.9,79.5,25.8
			c-12,10.9-48.6,25.8-65.2,26.3c-5.7,0-20-6.9-30.9-15.4c-18.9-14.3-25.8-16-65.2-16c-40.6,0-46.4,1.7-70.4,18.9
			C4164,2231.7,4159.5,2232.8,4125.1,2226z"/>
	</g>
</g>
<g transform="translate(0.000000,568.000000) scale(0.100000,-0.100000)">
	<g>
		<g>
			
				<linearGradient id="SVGID_00000102543672617470012700000007978038022177847197_" gradientUnits="userSpaceOnUse" x1="-5018.4419" y1="-27100.7129" x2="-5018.9229" y2="-27101.252" gradientTransform="matrix(14.7768 0 0 27.73 76826.0625 751248.9375)">
				<stop  offset="0" style="stop-color:#FFFFFF;stop-opacity:8.750000e-02"/>
				<stop  offset="1" style="stop-color:#FFFFFF;stop-opacity:8.760000e-02"/>
			</linearGradient>
			<path style="fill:url(#SVGID_00000102543672617470012700000007978038022177847197_);" d="M2285.2-260.8
				c-131.1-243.2-257-525.9-327.4-734.3c-72.1-214-143.1-533.4-136.8-616.4l1.7-24l54.4-21.8c147.7-60.1,309.6-104.7,405.8-111.6
				l52.1-3.4v39.5c0,163.7,38.3,522.5,77.8,725.1c48.1,250.1,146.5,556.8,234.6,731.4l18.9,37.8l-49.8,4
				c-72.7,5.7-162,18.9-228.9,34.9c-32.6,8-60.1,14.3-60.7,14.3S2307.5-219.6,2285.2-260.8z"/>
			<path d="M2334.7-1777.2l-52.1,3.4c-95.9,6.8-259.6,51.8-407.3,112l-54.3,21.7l-3.1,4.3l-1.7,24c-6.4,83.9,64.1,401.7,137,618.3
				c70.9,209.9,196.5,491.6,327.7,735l0,0c42.3,78.2,42.3,78.2,46.2,78.2c2.1,0,45.6-10.5,61.9-14.5
				c63.7-15.2,153.2-28.9,228.1-34.8l49.8-4l4.1-7.2l-18.9-37.8c-87.8-174-186.3-481-234.2-730.1c-39.2-201.3-77.7-560-77.7-724.2
				v-39.5L2334.7-1777.2z M1827.6-1632l51.5-20.6c146.9-59.8,309.3-104.5,404.3-111.2l46.7-3.1v34.1c0,164.7,38.6,524.3,77.9,726.1
				c48,249.9,146.9,558,235.1,732.7l15.6,31.1l-42.4,3.4c-76.5,6-164.5,19.4-229.7,35c-26.3,6.5-49,11.7-57.1,13.6
				c-4.4-7.5-17.4-31-39.8-72.3c-130.9-243-256.2-524.1-327-733.5c-71.2-211.5-142.7-533-136.5-614.4L1827.6-1632z"/>
		</g>
	</g>
</g>
<g transform="translate(0.000000,568.000000) scale(0.100000,-0.100000)">
	<g>
		<g>
			
				<linearGradient id="SVGID_00000067918519865961285840000002360133379803059899_" gradientUnits="userSpaceOnUse" x1="-4869.9644" y1="-27107.832" x2="-4870.4624" y2="-27107.3223" gradientTransform="matrix(14.4 0 0 26.7608 76666 725145.6875)">
				<stop  offset="0" style="stop-color:#FFFFFF;stop-opacity:0.1476"/>
				<stop  offset="1" style="stop-color:#FFFFFF;stop-opacity:0.1477"/>
			</linearGradient>
			<path style="fill:url(#SVGID_00000067918519865961285840000002360133379803059899_);" d="M6123.5,1142.8
				c-56.1-21.8-210.6-45.2-300.5-45.2c-20.6,0-36-2.3-36-5.7s19.5-44.6,42.9-91.6c178.6-356,268.4-621.5,334.2-987.2
				c30.3-166.5,50.4-352,41.2-376.6c-3.4-8.6-4-15.5-1.1-15.5s39.5,11.5,81.3,25.2c132.8,42.9,232.9,89.9,298.7,139.6
				c21.8,16.6,26.9,24,26.9,38.3c0,32.1-39.5,291.3-60.1,394.3c-51.5,257-101.3,396.6-231.2,647.3
				c-60.7,117.3-156.8,285-164.2,286.7C6152.7,1153.1,6138.4,1148.5,6123.5,1142.8z"/>
			<path d="M6204.2-384c-2.2,0-4.2,1-5.4,2.9c-3.1,4.5-0.7,13.1,1.9,19.4c8,21.5-9.5,198.3-41.5,373.8
				c-65.6,364.3-156,631.5-333.8,985.9c-13.1,26.1-43.4,87.6-43.4,93.8c0,3.5,0,10.7,41,10.7c88.9,0,242.4,23.1,298.7,44.9l0,0
				c13.2,5.1,30,10.9,34.8,10c12.4-2.9,125.3-207.2,167.7-289.3c130.1-251.1,179.9-390.6,231.7-648.6
				c20.8-104.1,60.2-362.7,60.2-395.3c0-17.2-7.6-26.1-28.9-42.3c-66.4-50.3-167.4-97.5-300.2-140.4
				C6263.8-366.2,6209.1-384,6204.2-384z M5792.7,1089.9c3.4-8.6,18.8-41.5,41.7-87.4c178.2-355.3,268.9-623.2,334.7-988.6
				c30.8-168.9,50.7-353.1,41-379.2c-1.3-3.3-2.1-6-2.4-7.9c9.4,2.6,36.4,11,76.3,24.1c131.8,42.6,231.8,89.3,297.3,138.9
				c21.5,16.4,24.9,22.7,24.9,34.4c0,31.4-39.8,292.4-60,393.3c-51.5,256.9-101.1,395.8-230.8,645.9
				c-60.5,117-148.5,270-161.6,284.1c-2.9-0.5-13.1-3.5-28.5-9.4c-57.1-22.1-212.4-45.5-302.3-45.5
				C5806.3,1092.5,5796.6,1091,5792.7,1089.9z"/>
		</g>
	</g>
</g>
<g transform="translate(0.000000,568.000000) scale(0.100000,-0.100000)">
	<g>
		
			<linearGradient id="SVGID_00000027563667492382662340000007032500125058170252_" gradientUnits="userSpaceOnUse" x1="-4537.8037" y1="-27300.2598" x2="-4537.2314" y2="-27300.2598" gradientTransform="matrix(6.7072 0 0 8.2484 31370.75 226509.7031)">
			<stop  offset="0" style="stop-color:#000000;stop-opacity:0.5136"/>
			<stop  offset="1" style="stop-color:#000000;stop-opacity:0.5136"/>
		</linearGradient>
		<path style="fill:url(#SVGID_00000027563667492382662340000007032500125058170252_);" d="M1149.2,1551.7
			c17.7-19.5,26.9-51.5,26.9-95.6c0-76.7-33.8-150.5-96.7-210.6c-40.1-38.3-76.1-55.5-116.2-55.5h-28.6l10.9-18.3
			c14.9-25.8,56.1-52.1,109.3-69.8c42.3-14.3,45.8-14.9,69.8-6.3c76.1,25.8,168.8,144.2,188.9,241.5c9.7,44.6,4.6,112.7-9.7,145.4
			c-10.9,24.6-16,28.6-64.7,53.2c-36.6,18.3-59.5,26.3-76.1,26.3C1141.2,1562,1140.7,1561.4,1149.2,1551.7z"/>
	</g>
</g>
<g transform="translate(0.000000,568.000000) scale(0.100000,-0.100000)">
	<g>
		
			<linearGradient id="SVGID_00000106837590141661645820000007876546506363035047_" gradientUnits="userSpaceOnUse" x1="-4478.3677" y1="-27411.7402" x2="-4477.7954" y2="-27411.7402" gradientTransform="matrix(5.9811 0 0 8.4526 28286.6348 231627.6719)">
			<stop  offset="0" style="stop-color:#000000;stop-opacity:0.5136"/>
			<stop  offset="1" style="stop-color:#000000;stop-opacity:0.5136"/>
		</linearGradient>
		<path style="fill:url(#SVGID_00000106837590141661645820000007876546506363035047_);" d="M1698.3,162.1c-10.3-7.4-9.7-8.6,12-19.5
			c26.9-13.7,58.9-44.6,65.8-62.9c15.4-40.6-0.6-126.5-36.6-200.9c-47.5-97.9-119.6-148.8-188.9-133.9c-16.6,3.4-34.3,8-39.5,10.3
			c-28,10.9,8-41.8,38.3-57.2c117.3-57.8,281,111.6,293,303.3c4,65.8-6.3,107-34.9,135.1C1775.5,167.2,1722.3,179.8,1698.3,162.1z"
			/>
	</g>
</g>
<g transform="translate(0.000000,568.000000) scale(0.100000,-0.100000)">
	<g>
		
			<linearGradient id="SVGID_00000036972544683062155520000009464015103594289320_" gradientUnits="userSpaceOnUse" x1="-3539.5356" y1="-27385.918" x2="-3539.0034" y2="-27385.9746" gradientTransform="matrix(3.4225 0 0 4.7114 13282.543 131198.5312)">
			<stop  offset="0" style="stop-color:#FFFFFF;stop-opacity:0.773"/>
			<stop  offset="1" style="stop-color:#FFFFFF;stop-opacity:0.7751"/>
		</linearGradient>
		
			<path style="fill:url(#SVGID_00000036972544683062155520000009464015103594289320_);stroke:#000000;stroke-width:0.1;stroke-miterlimit:1;" d="
			M1266.7,2277.2c-65.8-48.1-112.2-140.8-102.4-204.9c4-26.9,23.5-48.1,45.2-48.1c40.6,0.6,101.3,55.5,131.1,119
			c15.4,32.6,18.3,44.6,18.3,81.8c0,35.5-2.3,46.4-10.9,56.1C1331.4,2299.5,1294.8,2297.8,1266.7,2277.2z M1281.6,2190.2
			c0-32.1-30.3-73.8-48.7-67c-24.6,9.7,9.2,84.1,38.3,84.1C1278.8,2207.4,1281.6,2202.8,1281.6,2190.2z"/>
	</g>
</g>
<g transform="translate(0.000000,568.000000) scale(0.100000,-0.100000)">
	<g>
		
			<linearGradient id="SVGID_00000091725436073292666640000012174541315902741903_" gradientUnits="userSpaceOnUse" x1="-463.4594" y1="-28866.2305" x2="-462.8871" y2="-28866.2305" gradientTransform="matrix(1.172 0 0 1.172 3637.1414 37072.2227)">
			<stop  offset="0" style="stop-color:#FFF9F1;stop-opacity:0.5085"/>
			<stop  offset="1" style="stop-color:#FFF9F1;stop-opacity:0.5085"/>
		</linearGradient>
		
			<path style="fill:url(#SVGID_00000091725436073292666640000012174541315902741903_);stroke:#000000;stroke-width:0.1;stroke-miterlimit:1;" d="
			M3100.4,3259.4c-21.2-31.5,14.3-67,45.8-45.8c17.2,10.9,20,37.2,5.7,51.5C3137.6,3279.4,3111.2,3276.5,3100.4,3259.4z"/>
	</g>
</g>
<line class="st53" x1="467" y1="539" x2="585" y2="634"/>
<line class="st53" x1="453" y1="560" x2="517" y2="704"/>
<line class="st53" x1="421.5" y1="529.5" x2="421.5" y2="646.5"/>
<line class="st53" x1="426" y1="456" x2="380.5" y2="615.5"/>
<line class="st53" x1="338.5" y1="532.5" x2="266.5" y2="591.5"/>
<line class="st53" x1="330" y1="461" x2="184" y2="568"/>
<line class="st53" x1="301" y1="447" x2="153.5" y2="491.5"/>
<line class="st53" x1="273.5" y1="434.5" x2="131.5" y2="434.5"/>
<line class="st53" x1="186.5" y1="455.5" x2="184.5" y2="455.5"/>
<line class="st53" x1="266.5" y1="408.5" x2="131.5" y2="357.5"/>
<line class="st53" x1="349" y1="396" x2="193.5" y2="309.5"/>
<line class="st53" x1="585.5" y1="473.5" x2="499.5" y2="477.5"/>
<line class="st53" x1="250" y1="269" x2="348.5" y2="372.5"/>
<line class="st0" x1="329" y1="158" x2="382" y2="261"/>
<line class="st53" x1="306.5" y1="278.5" x2="418.5" y2="338.5"/>
<line class="st53" x1="314.5" y1="246.5" x2="421.5" y2="329.5"/>
<line class="st53" x1="384" y1="230" x2="428.5" y2="324.5"/>
<line class="st53" x1="422" y1="145" x2="432" y2="247"/>
<line class="st53" x1="499.5" y1="189.5" x2="452.5" y2="277.5"/>
<line class="st53" x1="609.5" y1="219.5" x2="488.5" y2="300.5"/>
<line class="st53" x1="677" y1="411" x2="476" y2="385"/>
<line class="st53" x1="700.5" y1="441.5" x2="459.5" y2="388.5"/>
<line class="st53" x1="672" y1="369" x2="476" y2="379"/>
<line class="st53" x1="642.5" y1="337.5" x2="470.5" y2="369.5"/>
<line class="st53" x1="644.5" y1="276.5" x2="452.5" y2="360.5"/>
</svg>
