<?xml version="1.0" encoding="utf-8"?>
<!-- Generator: Adobe Illustrator 26.5.0, SVG Export Plug-In . SVG Version: 6.00 Build 0)  -->
<svg version="1.1" id="图层_1" xmlns="http://www.w3.org/2000/svg" xmlns:xlink="http://www.w3.org/1999/xlink" x="0px" y="0px"
	 viewBox="0 0 2000 1000" style="enable-background:new 0 0 2000 1000;" xml:space="preserve">
<style type="text/css">
	.st0{fill:none;}
	.st1{fill:#D3D3D3;}
	.st2{clip-path:url(#SVGID_00000013177776009697419340000014875825938854716814_);}
	.st3{fill:url(#SVGID_00000149342521496241054160000013894338771500938894_);}
	.st4{fill:url(#SVGID_00000075861359357577532210000004985398489334414500_);}
	.st5{fill:url(#SVGID_00000090269029920499379850000013928734360726208688_);}
	.st6{fill:url(#SVGID_00000049181913226020716740000018045370837234897819_);}
	.st7{fill:url(#SVGID_00000124147489648083545420000009182515682941564351_);}
	.st8{fill:url(#SVGID_00000106843636854620768200000018020770184455038864_);}
	.st9{fill:url(#SVGID_00000121965309660873427010000014760175421118703033_);}
	.st10{fill:url(#SVGID_00000013894209616909127310000001452464694792862364_);}
	.st11{fill:url(#SVGID_00000107568755067191634180000012061803784318459790_);}
	.st12{fill:url(#SVGID_00000081610455926747671560000009755501530621177001_);}
	.st13{fill:url(#SVGID_00000134932887563554970040000001027918603720841644_);}
	.st14{fill:url(#SVGID_00000052807262009631182410000001964796249581375126_);}
	.st15{fill:url(#SVGID_00000150783989585471861020000001203592827093499825_);}
	.st16{fill:url(#SVGID_00000136401176431810769550000005063774911424902805_);}
	.st17{fill:url(#SVGID_00000054249987792342690070000005921219891510511019_);}
	.st18{fill:url(#SVGID_00000002381199603629875300000002447350811948536490_);}
	.st19{fill:url(#SVGID_00000115496269507029818000000017123720214098775211_);}
	.st20{fill:url(#SVGID_00000027601400357408191150000017532773119342309292_);}
	.st21{fill:url(#SVGID_00000162315548224399298310000009291993825717394580_);}
	.st22{fill:url(#SVGID_00000055708270467385371150000000128751754989292167_);}
	.st23{fill:url(#SVGID_00000098214464959105089560000011161135170544537494_);}
	.st24{fill:url(#SVGID_00000065796544864266781420000001917237846434405284_);}
	.st25{fill:url(#SVGID_00000087407856265089411290000015581895145025959848_);}
	.st26{fill:url(#SVGID_00000022529915420252806460000016050353743325687204_);stroke:#000000;stroke-miterlimit:10;}
	.st27{fill:url(#SVGID_00000084515211523439934470000003839112418431565977_);stroke:#000000;stroke-miterlimit:10;}
	.st28{fill:none;stroke:#0000FF;stroke-width:4;stroke-miterlimit:10;}
	.st29{fill:none;stroke:#3FA9F5;stroke-width:4;stroke-linecap:round;stroke-miterlimit:10;}
	.st30{fill:#3FA9F5;}
</style>
<pattern  y="1000" width="40" height="40" patternUnits="userSpaceOnUse" id="SVGID_0000010469821956920283411" viewBox="0 -40 40 40" style="overflow:visible;">
	<g>
		<rect y="-40" class="st0" width="40" height="40"/>
		<g>
			<rect y="-40" class="st0" width="40" height="40"/>
			<g>
				<rect y="-40" class="st0" width="40" height="40"/>
				<g>
					<rect y="-40" class="st0" width="40" height="40"/>
					<g>
						<rect y="-40" class="st0" width="40" height="40"/>
						<g>
							<rect y="-40" class="st0" width="40" height="40"/>
							<g>
								<rect y="-40" class="st0" width="40" height="40"/>
								<g>
									<polygon class="st0" points="0,0 40,0 40,-40 0,-40 									"/>
									<polygon class="st1" points="0,-20 20,-20 20,-40 0,-40 									"/>
									<polygon class="st1" points="20,0 40,0 40,-20 20,-20 									"/>
								</g>
							</g>
						</g>
					</g>
				</g>
			</g>
		</g>
	</g>
</pattern>
<g>
	<g>
		<g>
			<defs>
				<rect id="SVGID_1_" width="2000" height="1000"/>
			</defs>
			<clipPath id="SVGID_00000003821508369665990810000005859120262210567040_">
				<use xlink:href="#SVGID_1_"  style="overflow:visible;"/>
			</clipPath>
			<g style="clip-path:url(#SVGID_00000003821508369665990810000005859120262210567040_);">
				
					<pattern  id="SVGID_00000172433372061698623760000000835150070774822837_" xlink:href="#SVGID_0000010469821956920283411" patternTransform="matrix(1 0 0 1 -93.5 18603.1094)">
				</pattern>
				<rect style="fill:url(#SVGID_00000172433372061698623760000000835150070774822837_);" width="1998.7" height="999.3"/>
			</g>
		</g>
	</g>
</g>
<linearGradient id="SVGID_00000005953432599015418470000013135247452606610603_" gradientUnits="userSpaceOnUse" x1="-78.9927" y1="309.9132" x2="-77.9928" y2="309.9132" gradientTransform="matrix(746.68 0 0 -147.82 58992.2539 46648.082)">
	<stop  offset="0" style="stop-color:#951C4D"/>
	<stop  offset="1" style="stop-color:#951C4D"/>
</linearGradient>
<path style="fill:url(#SVGID_00000005953432599015418470000013135247452606610603_);" d="M11.4,765.5c0.1,1.6,0.6,5.7,1.3,9.3
	l1.1,6.4l14.5,4.4c60.1,18,116,35.9,269,86.4c79.6,26.3,117.2,38.3,121,38.6c5.3,0.3,11.1-1.9,171-66.3
	c91-36.7,165.9-67.1,166.4-67.6c1-0.9,2.9-12.9,2.2-13.6c-0.4-0.4-330.4,125.6-335.8,128.2c-2.5,1.2-4.9,0.8-24.5-4.6
	C322.3,866.1,183.9,821.8,43,773.4c-16.9-5.8-31-10.6-31.2-10.6C11.6,762.8,11.4,764,11.4,765.5L11.4,765.5z"/>
<linearGradient id="SVGID_00000051354375903889629800000015862031598129676458_" gradientUnits="userSpaceOnUse" x1="-78.9558" y1="309.6536" x2="-77.9551" y2="309.6536" gradientTransform="matrix(146.21 0 0 -377.78 11924.3691 117269.8516)">
	<stop  offset="0" style="stop-color:#E8935D"/>
	<stop  offset="1" style="stop-color:#E8935D"/>
</linearGradient>
<path style="fill:url(#SVGID_00000051354375903889629800000015862031598129676458_);" d="M387.6,100.6c-3.4,0.4-6.5,1-6.8,1.4
	c-0.4,0.4,0.4,8.3,1.9,17.5c4.1,27.2,8,57.4,17.1,134.8c17,144.1,20.5,169.3,30.2,208.7l3.6,14.8h5.6c7.3,0,37.2-2.6,52.7-4.6
	c12.4-1.5,34.5-5.1,35.1-5.6c0.1-0.2-1.5-6.6-3.7-14.3c-21.2-74.4-65.7-255-82.4-334c-1.6-7.2-3.3-13.5-3.9-14.2
	C433.5,101.4,404.8,98.8,387.6,100.6L387.6,100.6z"/>
<linearGradient id="SVGID_00000085943224504340595010000014115475644972867763_" gradientUnits="userSpaceOnUse" x1="-78.7991" y1="315.6323" x2="-77.7992" y2="315.6323" gradientTransform="matrix(31.48 0 0 -10.55 2874.0801 3441.9902)">
	<stop  offset="0" style="stop-color:#F9F2EB"/>
	<stop  offset="1" style="stop-color:#F9F2EB"/>
</linearGradient>
<path style="fill:url(#SVGID_00000085943224504340595010000014115475644972867763_);" d="M394.5,108.4c0.5,2.7,10.1,7.2,17.8,8.5
	c7.4,1.2,12.6-0.1,13.4-3.2c1.1-4.2-1.4-4.9-22.7-6.5C394.7,106.5,394.2,106.6,394.5,108.4z"/>
<linearGradient id="SVGID_00000075883676525575781340000017545466999820751034_" gradientUnits="userSpaceOnUse" x1="-78.9935" y1="309.8915" x2="-77.9935" y2="309.8915" gradientTransform="matrix(744.36 0 0 -161.06 58810.0703 50722.457)">
	<stop  offset="0" style="stop-color:#FE7E27"/>
	<stop  offset="1" style="stop-color:#FE7E27"/>
</linearGradient>
<path style="fill:url(#SVGID_00000075883676525575781340000017545466999820751034_);" d="M607.5,736.9c2.7,8.8,2.5,14.7-1,22.2
	c-1.6,3.4-4,7.4-5.3,8.9c-3.4,3.9-11.3,9.5-18.2,13c-3.4,1.7-6.4,3.5-6.7,3.9c-0.9,1.5-17.7,7.9-30,11.4
	c-23.5,6.8-50.4,11.5-86.9,15.2c-22.2,2.2-103.3,2.6-125.5,0.5c-31.1-2.9-54.2-6.4-76-11.7c-42-10.1-67.8-25.2-73-42.7
	c-1.9-6.4-1.9-9.6,0-17.7c0.9-3.5,1.4-6.6,1.2-6.8c-0.4-0.4-23.9,3.4-111.2,17.7c-26.9,4.4-52.3,8.5-56.2,9.1
	c-4,0.6-7.3,1.5-7.3,1.9c0,0.8,6.3,3,88,30.7c123.8,41.9,231.6,75.9,298.3,94.2c19.6,5.4,22,5.8,24.5,4.6
	c1.5-0.7,77-29.7,167.7-64.5c90.8-34.7,165.4-63.5,165.8-64c1-0.9-9.7-3.5-44.8-11.1c-27.5-6-101.7-20.9-103.8-20.9
	C605.8,730.8,605.8,731.7,607.5,736.9L607.5,736.9z"/>
<linearGradient id="SVGID_00000001663314751836808000000004879779370936005308_" gradientUnits="userSpaceOnUse" x1="-78.1699" y1="310.159" x2="-78.8599" y2="309.359" gradientTransform="matrix(392.63 0 0 -210.71 31194.3711 65981.8828)">
	<stop  offset="0" style="stop-color:#CB4938"/>
	<stop  offset="1" style="stop-color:#961B4D"/>
</linearGradient>
<path style="fill:url(#SVGID_00000001663314751836808000000004879779370936005308_);" d="M212,628.5c-3.3,14.2-11,46.5-17.3,71.7
	c-6.2,25.3-11.3,47.4-11.3,49.1c0,5.5,2.9,13.2,7,18.4c17.3,21.9,67,37.2,143.5,44.3c18.8,1.7,102.2,1.8,120,0
	c37.7-3.7,65.3-8.2,88.9-14.7c13.1-3.6,34.1-11.3,33.2-12.2c-0.3-0.3-3.5,0.6-7.3,2.1c-13.5,5-34,10.3-35.3,9
	c-1.3-1.5-46.1-138.3-56.9-174l-2.2-7l-7.2,1.2c-20.1,3.5-35.4,4.6-68.8,5.1c-60.1,1-105.6-3.7-177.4-18.2l-3-0.7L212,628.5
	L212,628.5z"/>
<linearGradient id="SVGID_00000140012583642056482670000004147684387114173830_" gradientUnits="userSpaceOnUse" x1="-78.9516" y1="309.8028" x2="-77.9516" y2="309.8028" gradientTransform="matrix(134.39 0 0 -213.27 11085.832 66761.4844)">
	<stop  offset="0" style="stop-color:#D36C4D"/>
	<stop  offset="1" style="stop-color:#D36C4D"/>
</linearGradient>
<path style="fill:url(#SVGID_00000140012583642056482670000004147684387114173830_);" d="M545.8,589.9
	c-20.2,10.6-49.7,21.3-67.8,24.5c-3.2,0.5-3.7,0.9-3.1,2.8c6.6,22.9,57.1,177.5,58.4,179c1.8,1.9,31.8-6.9,45.7-13.4
	c15.3-7.1,22.9-13.7,27.5-23.9c4.6-9.9,4.2-12.2-11-60.6c-7.2-23.1-18-58.4-24.1-78.5c-6-20-11.3-36.5-11.8-36.6
	C559.3,583.1,553.1,586.1,545.8,589.9L545.8,589.9z"/>
<linearGradient id="SVGID_00000091014540653652159410000017248106280328895882_" gradientUnits="userSpaceOnUse" x1="-78.9525" y1="310.1812" x2="-77.9525" y2="310.1812" gradientTransform="matrix(124.69 0 0 -91.28 10156.4316 28451.9082)">
	<stop  offset="0" style="stop-color:#DF5B27"/>
	<stop  offset="1" style="stop-color:#DF5B27"/>
</linearGradient>
<path style="fill:url(#SVGID_00000091014540653652159410000017248106280328895882_);" d="M361.9,94.4c-15.6,2.4-26.1,6.3-28.9,10.7
	c-1.8,2.7-21.2,74.5-20.4,75.2c1,0.8,77.6,4.6,78.7,3.8c0.4-0.3-5.1-42.4-8.5-64.6c-1.5-9.2-2.3-17.1-2-17.5
	c1-0.9,13.7-2.1,24.3-2.1c10.4-0.1,22.5,1.4,28.3,3.4c4.8,1.7,5.2,0.5,0.8-2.8c-3.7-2.8-10.5-5.1-19.2-6.6
	C406.5,92.4,372.6,92.7,361.9,94.4L361.9,94.4z"/>
<linearGradient id="SVGID_00000074416979341202076750000001228596403024409229_" gradientUnits="userSpaceOnUse" x1="-79.0151" y1="309.8771" x2="-77.945" y2="310.147" gradientTransform="matrix(117.52 0 0 -113.21 9565.0488 35338.0781)">
	<stop  offset="0" style="stop-color:#A08CA7"/>
	<stop  offset="1" style="stop-color:#CEBBB9"/>
</linearGradient>
<path style="fill:url(#SVGID_00000074416979341202076750000001228596403024409229_);" d="M312,181.5c-1,1.7-12.6,49.4-24.1,99.3
	c-0.9,4.2-1.1,6.7-0.4,7.1c1,0.6,20.8,2.2,48.3,3.9c8.3,0.5,27.1,1.2,41.9,1.6l26.9,0.7l-0.6-3.9c-0.3-2.1-3.2-26.4-6.3-53.8
	c-4-33.9-6.3-50.3-7.2-51.3c-1-0.9-4.6-1.3-13-1.3c-6.4,0-18.4-0.5-26.7-1C315.2,180.6,312.6,180.5,312,181.5L312,181.5z"/>
<linearGradient id="SVGID_00000081645732341934567650000014550565322678916740_" gradientUnits="userSpaceOnUse" x1="-79.0367" y1="309.654" x2="-78.1167" y2="310.014" gradientTransform="matrix(255.12 0 0 -160.64 20366.2578 50320.3164)">
	<stop  offset="0" style="stop-color:#665891"/>
	<stop  offset="1" style="stop-color:#C0A9B2"/>
</linearGradient>
<path style="fill:url(#SVGID_00000081645732341934567650000014550565322678916740_);" d="M248.5,464c-0.5,1.8-5.3,23.3-10.6,47.8
	c-5.3,24.5-11.8,54.4-14.5,66.6c-2.8,12.1-5,22.5-5,23.1c0,1.3,3.5,2.1,29.4,6.9c23.6,4.3,55.1,8.8,76.6,11
	c21.9,2.1,80.1,3,102.5,1.5c15.4-1.1,44.9-4.6,46.6-5.6c0.3-0.3-3-12-7.3-26.2c-9.9-32.1-24.4-81.7-28.9-98.4l-3.3-12.6l-15.1,0.5
	c-16.6,0.5-52.8-1.1-76-3.3c-25.2-2.5-66.1-8.9-90.6-14.1C249.8,460.7,249.4,461,248.5,464L248.5,464z"/>
<linearGradient id="SVGID_00000045604618254630693020000009642632108902995362_" gradientUnits="userSpaceOnUse" x1="-78.9491" y1="309.8958" x2="-77.9491" y2="309.8958" gradientTransform="matrix(125.61 0 0 -146.44 10351.2988 45922.2148)">
	<stop  offset="0" style="stop-color:#DACBC9"/>
	<stop  offset="1" style="stop-color:#DACBC9"/>
</linearGradient>
<path style="fill:url(#SVGID_00000045604618254630693020000009642632108902995362_);" d="M511.3,470.3c-17.6,3-37.2,5.2-59.2,6.7
	c-9.8,0.7-17.8,1.6-17.8,2.2c0,2.8,17.8,64.3,31.3,108.1l8.3,27l3.9-0.2c5.8-0.4,28.2-6.8,41.3-11.9c16.3-6.3,41.4-19.3,40.8-21.1
	c-0.3-0.8-7.1-24.2-15.1-52.1c-18.3-64.1-17.4-61.2-18.8-61.1C525.3,468,518.8,469.1,511.3,470.3z"/>
<linearGradient id="SVGID_00000120554962777758312700000014660691459431723907_" gradientUnits="userSpaceOnUse" x1="-77.9783" y1="310.0436" x2="-79.0184" y2="309.4135" gradientTransform="matrix(184.39 0 0 -190.47 14808.3496 59393.1133)">
	<stop  offset="0" style="stop-color:#E15C25"/>
	<stop  offset="1" style="stop-color:#BD3E3F"/>
</linearGradient>
<path style="fill:url(#SVGID_00000120554962777758312700000014660691459431723907_);" d="M286,289.5c-1.4,4.9-25.9,117.7-34.2,157.8
	c-1.4,6.6-2.7,12.9-3,14c-0.4,1.4-0.3,1.6,0.4,0.7c0.7-1,3.3-0.8,13.3,1.2c41.3,8.2,76.9,12.6,118.9,14.7
	c22.2,1.1,50.3,0.9,51.5-0.3c0.3-0.3-0.7-5.9-2.4-12.4c-7.7-30.7-11.6-54.8-19.6-119.9c-3.1-24.8-5.8-46.5-6.1-48.3l-0.5-3.2H393
	c-23,0-97.3-3.9-104.4-5.5C287.1,287.9,286.3,288.3,286,289.5L286,289.5z"/>
<linearGradient id="SVGID_00000155128471359874388190000006654274307432084100_" gradientUnits="userSpaceOnUse" x1="-78.9029" y1="309.9158" x2="-77.9229" y2="310.2258" gradientTransform="matrix(89.6 0 0 -109.76 7463.5 34270.9766)">
	<stop  offset="0" style="stop-color:#FFFFFF;stop-opacity:0.65"/>
	<stop  offset="1" style="stop-color:#FFFFFF;stop-opacity:0.76"/>
</linearGradient>
<path style="fill:url(#SVGID_00000155128471359874388190000006654274307432084100_);" d="M416.2,184.5l-24.7,0.3l0.5,2.8
	c0.4,2.6,12.4,104.3,12.4,105.8c0,0.8,55.2-0.2,68.6-1.3l8.1-0.6l-2.3-9.6c-7.8-32.5-22.5-94-22.9-95.9c-0.5-2.1-1-2.2-7.8-2
	C444.1,184.2,429.8,184.4,416.2,184.5L416.2,184.5z"/>
<linearGradient id="SVGID_00000027567638867846433160000016297804381372355974_" gradientUnits="userSpaceOnUse" x1="-78.3513" y1="309.681" x2="-78.4613" y2="310.7111" gradientTransform="matrix(74.12 0 0 -84.79 6229.4097 26447.1914)">
	<stop  offset="0" style="stop-color:#FFFFFF;stop-opacity:0.13"/>
	<stop  offset="1" style="stop-color:#FFFFFF;stop-opacity:0.18"/>
</linearGradient>
<path style="fill:url(#SVGID_00000027567638867846433160000016297804381372355974_);" d="M387.6,100.6c-3.4,0.4-6.5,1-6.8,1.4
	c-0.4,0.4,0.4,8.3,1.9,17.5c2.7,18.1,8.6,61.5,8.6,64c0,1.4,3.5,1.5,31.5,1.1c17.4-0.3,31.8-0.7,32-0.9s-1.6-9-4-19.4
	c-2.5-10.5-6.3-27.8-8.6-38.5s-4.7-20-5.3-20.7C433.5,101.4,404.9,98.8,387.6,100.6L387.6,100.6z M417.7,108.5
	c6.4,0.6,8.8,2.2,8,5.2c-0.8,3.1-6,4.4-13.4,3.2c-7.7-1.3-17.3-5.8-17.8-8.5c-0.3-1.8,0.2-1.9,8.5-1.2
	C407.9,107.5,414.5,108.1,417.7,108.5z"/>
<linearGradient id="SVGID_00000021082458836350677010000007993028620431358342_" gradientUnits="userSpaceOnUse" x1="-72.4958" y1="309.7272" x2="-71.4958" y2="309.7272" gradientTransform="matrix(146.21 0 0 -377.78 11924.3691 117269.8516)">
	<stop  offset="0" style="stop-color:#E8935D"/>
	<stop  offset="1" style="stop-color:#E8935D"/>
</linearGradient>
<path style="fill:url(#SVGID_00000021082458836350677010000007993028620431358342_);" d="M1332.7,72.8c-3.4,0.4-6.5,1-6.8,1.4
	c-0.4,0.4,0.4,8.3,1.9,17.5c4.1,27.2,8,57.4,17.1,134.8c16.9,144.1,20.5,169.3,30.1,208.7l3.6,14.8h5.6c7.3,0,37.2-2.6,52.7-4.6
	c12.4-1.5,34.5-5.1,35.1-5.6c0.1-0.2-1.5-6.6-3.7-14.3c-21.2-74.4-65.7-255-82.4-334c-1.6-7.2-3.3-13.5-3.9-14.2
	C1378.5,73.6,1349.8,71,1332.7,72.8L1332.7,72.8z"/>
<linearGradient id="SVGID_00000092439152536266505580000018114745257103019660_" gradientUnits="userSpaceOnUse" x1="-48.4291" y1="316.2958" x2="-47.4301" y2="316.2958" gradientTransform="matrix(31.48 0 0 -10.55 2874.0801 3441.9902)">
	<stop  offset="0" style="stop-color:#F9F2EB"/>
	<stop  offset="1" style="stop-color:#F9F2EB"/>
</linearGradient>
<path style="fill:url(#SVGID_00000092439152536266505580000018114745257103019660_);" d="M1350.4,101.4c0.5,2.7,10.1,7.2,17.8,8.5
	c7.4,1.2,12.6-0.1,13.4-3.2c1.1-4.2-1.4-4.9-22.7-6.5C1350.7,99.5,1350.2,99.6,1350.4,101.4L1350.4,101.4z"/>
<linearGradient id="SVGID_00000047766128983741475590000000697292516443921292_" gradientUnits="userSpaceOnUse" x1="-75.9288" y1="309.8488" x2="-76.6188" y2="309.0488" gradientTransform="matrix(392.63 0 0 -210.71 31194.3711 65981.8828)">
	<stop  offset="0" style="stop-color:#CB4938"/>
	<stop  offset="1" style="stop-color:#961B4D"/>
</linearGradient>
<path style="fill:url(#SVGID_00000047766128983741475590000000697292516443921292_);" d="M1090.9,694.5c-3.3,14.2-11,46.5-17.3,71.7
	c-6.2,25.3-11.3,47.4-11.3,49.1c0,5.5,2.9,13.2,7,18.4c17.3,21.9,67,37.2,143.5,44.3c18.8,1.7,102.2,1.8,120,0
	c37.7-3.7,65.3-8.2,88.9-14.7c13.1-3.6,34.1-11.3,33.2-12.2c-0.3-0.3-3.5,0.6-7.3,2.1c-13.5,5-34,10.3-35.3,9
	c-1.3-1.5-46.1-138.3-56.9-174l-2.2-7l-7.2,1.2c-20.1,3.5-35.4,4.6-68.8,5.1c-60.1,1-105.6-3.7-177.4-18.2l-3-0.7L1090.9,694.5
	L1090.9,694.5z"/>
<linearGradient id="SVGID_00000074442289962434436850000011221922761285466030_" gradientUnits="userSpaceOnUse" x1="-71.7816" y1="309.4605" x2="-70.7816" y2="309.4605" gradientTransform="matrix(134.39 0 0 -213.27 11085.832 66761.4844)">
	<stop  offset="0" style="stop-color:#D36C4D"/>
	<stop  offset="1" style="stop-color:#D36C4D"/>
</linearGradient>
<path style="fill:url(#SVGID_00000074442289962434436850000011221922761285466030_);" d="M1509.8,662.9
	c-20.2,10.6-49.7,21.3-67.8,24.5c-3.2,0.5-3.7,0.9-3.1,2.8c6.6,22.9,57.1,177.5,58.4,179c1.8,1.9,31.8-6.9,45.7-13.4
	c15.3-7.1,22.9-13.7,27.5-23.9c4.6-9.9,4.2-12.2-11-60.6c-7.2-23.1-18-58.4-24.1-78.5c-6-20-11.3-36.5-11.8-36.6
	C1523.2,656.1,1517,659.1,1509.8,662.9L1509.8,662.9z"/>
<linearGradient id="SVGID_00000153680334527792952770000010924544274151556796_" gradientUnits="userSpaceOnUse" x1="-72.0824" y1="310.3565" x2="-71.0824" y2="310.3565" gradientTransform="matrix(124.69 0 0 -91.28 10156.4316 28451.9082)">
	<stop  offset="0" style="stop-color:#DF5B27"/>
	<stop  offset="1" style="stop-color:#DF5B27"/>
</linearGradient>
<path style="fill:url(#SVGID_00000153680334527792952770000010924544274151556796_);" d="M1217.8,78.4c-15.6,2.4-26.1,6.3-28.9,10.7
	c-1.8,2.7-21.2,74.5-20.4,75.2c1,0.8,77.6,4.6,78.7,3.8c0.4-0.3-5.1-42.4-8.5-64.6c-1.5-9.2-2.3-17.1-2-17.5
	c1-0.9,13.7-2.1,24.3-2.1c10.4-0.1,22.5,1.4,28.3,3.4c4.8,1.7,5.2,0.5,0.8-2.8c-3.7-2.8-10.5-5.1-19.2-6.6
	C1262.6,76.4,1228.7,76.7,1217.8,78.4L1217.8,78.4z"/>
<linearGradient id="SVGID_00000150784342816964149430000015736270541900897414_" gradientUnits="userSpaceOnUse" x1="-71.705" y1="309.8042" x2="-70.635" y2="310.0741" gradientTransform="matrix(117.52 0 0 -113.21 9565.0488 35338.0781)">
	<stop  offset="0" style="stop-color:#A08CA7"/>
	<stop  offset="1" style="stop-color:#CEBBB9"/>
</linearGradient>
<path style="fill:url(#SVGID_00000150784342816964149430000015736270541900897414_);" d="M1172.1,189.5c-1,1.7-12.6,49.4-24.1,99.3
	c-0.9,4.2-1.1,6.7-0.4,7.1c1,0.6,20.8,2.2,48.3,3.9c8.3,0.5,27.1,1.2,41.9,1.6l26.9,0.7l-0.6-3.9c-0.3-2.1-3.2-26.4-6.3-53.8
	c-4-33.9-6.3-50.3-7.2-51.3c-1-0.9-4.6-1.3-13-1.3c-6.4,0-18.4-0.5-26.7-1C1175.3,188.6,1172.7,188.5,1172.1,189.5L1172.1,189.5z"/>
<linearGradient id="SVGID_00000059272392677827674290000001619039827329126548_" gradientUnits="userSpaceOnUse" x1="-75.6064" y1="309.3228" x2="-74.6864" y2="309.6828" gradientTransform="matrix(255.12 0 0 -160.64 20366.2578 50320.3164)">
	<stop  offset="0" style="stop-color:#665891"/>
	<stop  offset="1" style="stop-color:#C0A9B2"/>
</linearGradient>
<path style="fill:url(#SVGID_00000059272392677827674290000001619039827329126548_);" d="M1124.4,517c-0.5,1.8-5.3,23.3-10.6,47.8
	c-5.3,24.5-11.8,54.4-14.5,66.6c-2.8,12.1-5,22.5-5,23.1c0,1.3,3.5,2.1,29.4,6.9c23.6,4.3,55.1,8.8,76.6,11
	c21.9,2.1,80.1,3,102.5,1.5c15.4-1.1,44.9-4.6,46.6-5.6c0.3-0.3-3-12-7.3-26.2c-9.9-32.1-24.4-81.7-28.9-98.4l-3.3-12.6l-15.1,0.5
	c-16.6,0.5-52.8-1.1-76-3.3c-25.2-2.5-66.1-8.9-90.6-14.1C1125.8,513.7,1125.4,514,1124.4,517L1124.4,517z"/>
<linearGradient id="SVGID_00000115491852167666740040000010097691426226932120_" gradientUnits="userSpaceOnUse" x1="-71.3992" y1="309.7729" x2="-70.3992" y2="309.7729" gradientTransform="matrix(125.61 0 0 -146.44 10351.2988 45922.2148)">
	<stop  offset="0" style="stop-color:#DACBC9"/>
	<stop  offset="1" style="stop-color:#DACBC9"/>
</linearGradient>
<path style="fill:url(#SVGID_00000115491852167666740040000010097691426226932120_);" d="M1459.3,488.3c-17.6,3-37.2,5.2-59.2,6.7
	c-9.8,0.7-17.8,1.6-17.8,2.2c0,2.8,17.8,64.3,31.3,108.1l8.3,27l3.9-0.2c5.8-0.4,28.2-6.8,41.3-11.9c16.3-6.3,41.4-19.3,40.8-21.1
	c-0.3-0.8-7.1-24.2-15.1-52.1c-18.3-64.1-17.4-61.2-18.8-61.1C1473.4,486,1466.8,487.1,1459.3,488.3L1459.3,488.3z"/>
<linearGradient id="SVGID_00000093174703545516132940000007765676919455632264_" gradientUnits="userSpaceOnUse" x1="-73.2904" y1="309.8569" x2="-74.3303" y2="309.227" gradientTransform="matrix(184.39 0 0 -190.47 14808.3496 59393.1133)">
	<stop  offset="0" style="stop-color:#E15C25"/>
	<stop  offset="1" style="stop-color:#BD3E3F"/>
</linearGradient>
<path style="fill:url(#SVGID_00000093174703545516132940000007765676919455632264_);" d="M1150.9,324.7
	c-1.4,4.9-25.9,117.7-34.2,157.8c-1.4,6.6-2.7,12.9-3,14c-0.4,1.4-0.3,1.6,0.4,0.7c0.7-1,3.3-0.8,13.3,1.2
	c41.3,8.2,76.9,12.6,118.9,14.7c22.2,1.1,50.3,0.9,51.5-0.3c0.3-0.3-0.7-5.9-2.4-12.4c-7.7-30.7-11.6-54.8-19.6-119.9
	c-3.1-24.8-5.8-46.5-6.1-48.3l-0.5-3.2H1258c-23,0-97.3-3.9-104.4-5.5C1152.2,323.1,1151.4,323.5,1150.9,324.7L1150.9,324.7z"/>
<linearGradient id="SVGID_00000127007887134280240820000008641630606137203099_" gradientUnits="userSpaceOnUse" x1="-64.7977" y1="309.6059" x2="-63.8177" y2="309.9159" gradientTransform="matrix(89.6 0 0 -109.76 7463.5 34270.9766)">
	<stop  offset="0" style="stop-color:#FFFFFF;stop-opacity:0.65"/>
	<stop  offset="1" style="stop-color:#FFFFFF;stop-opacity:0.76"/>
</linearGradient>
<path style="fill:url(#SVGID_00000127007887134280240820000008641630606137203099_);stroke:#000000;stroke-miterlimit:10;" d="
	M1679.9,218.6l-24.7,0.3l0.5,2.8c0.4,2.6,12.4,104.3,12.4,105.8c0,0.8,55.2-0.2,68.6-1.3l8.1-0.6l-2.3-9.6
	c-7.8-32.5-22.5-94-22.9-95.9c-0.5-2.1-1-2.2-7.8-2C1707.8,218.3,1693.4,218.5,1679.9,218.6L1679.9,218.6z"/>
<linearGradient id="SVGID_00000146497605203110049920000009743040045645063859_" gradientUnits="userSpaceOnUse" x1="-61.4769" y1="309.8503" x2="-61.5869" y2="310.8803" gradientTransform="matrix(74.12 0 0 -84.79 6229.4097 26447.1914)">
	<stop  offset="0" style="stop-color:#FFFFFF;stop-opacity:0.13"/>
	<stop  offset="1" style="stop-color:#FFFFFF;stop-opacity:0.18"/>
</linearGradient>
<path style="fill:url(#SVGID_00000146497605203110049920000009743040045645063859_);stroke:#000000;stroke-miterlimit:10;" d="
	M1638.4,86.7c-3.4,0.4-6.5,1-6.8,1.4c-0.4,0.4,0.4,8.3,1.9,17.5c2.7,18.1,8.6,61.5,8.6,64c0,1.4,3.5,1.5,31.5,1.1
	c17.4-0.3,31.8-0.7,32-0.9s-1.6-9-4-19.4c-2.5-10.5-6.3-27.8-8.6-38.5c-2.3-10.7-4.7-20-5.3-20.7
	C1684.2,87.5,1655.5,84.9,1638.4,86.7L1638.4,86.7z M1668.4,94.6c6.4,0.6,8.8,2.2,8,5.2c-0.8,3.1-6,4.4-13.4,3.2
	c-7.7-1.3-17.3-5.8-17.8-8.5c-0.3-1.8,0.2-1.9,8.5-1.2C1658.5,93.6,1665.1,94.2,1668.4,94.6L1668.4,94.6z"/>
<rect x="326" y="77" class="st28" width="281" height="744"/>
<g>
	<line class="st29" x1="1018.2" y1="477.6" x2="705.5" y2="477.6"/>
	<polygon class="st30" points="1050.6,477.6 1004.9,493.9 1015.7,477.6 1004.9,461.3 	"/>
</g>
</svg>
