<?xml version="1.0" encoding="utf-8"?>
<!-- Generator: Adobe Illustrator 26.5.0, SVG Export Plug-In . SVG Version: 6.00 Build 0)  -->
<svg version="1.1" id="图层_1" xmlns="http://www.w3.org/2000/svg" xmlns:xlink="http://www.w3.org/1999/xlink" x="0px" y="0px"
	 viewBox="0 0 2000 1000" style="enable-background:new 0 0 2000 1000;" xml:space="preserve">
<style type="text/css">
	.st0{fill:none;}
	.st1{fill:#D3D3D3;}
	.st2{clip-path:url(#SVGID_00000163791803920464115390000004075639914215924150_);}
	.st3{fill:url(#SVGID_00000131326124079728763160000006967956754937596307_);}
	.st4{fill:url(#region-1-1_00000089540973138260257900000009878883414342218380_);}
	.st5{fill:url(#region-1-2_00000141419553313051047160000011720300669455423653_);}
	.st6{fill:url(#region-1-3_00000111182310636207543910000006596256163823409303_);}
	.st7{fill:url(#region-1-4_00000128454472473882031850000003979782895821811081_);}
	.st8{fill:url(#region-2-1_00000069364156319240175450000017469146076943151542_);}
	.st9{fill:url(#region-2-2_00000066475975009679055590000005617246725737194151_);}
	.st10{fill:url(#region-2-3_00000016786709854561145210000006282781998449217186_);}
	.st11{fill:url(#region-3-1_00000158732865807098534280000009153297357224896417_);}
	.st12{fill:url(#region-4-1_00000104681097151217133790000002708138157263638401_);}
	.st13{fill:none;stroke:#0000FF;stroke-width:4;stroke-miterlimit:10;}
	.st14{fill:none;stroke:#3FA9F5;stroke-width:4;stroke-linecap:round;stroke-miterlimit:10;}
	.st15{fill:#3FA9F5;}
	.st16{fill:url(#region-1-3_00000095333780260169531580000014406482735965082266_);}
	.st17{fill:url(#region-1-1_00000114062934005875776530000008380822752037389220_);}
	.st18{fill:url(#region-1-2_00000077316685187231890300000004163214218745613501_);}
	.st19{fill:url(#region-2-1_00000132804345362006372770000007417887933167264411_);}
	.st20{fill:url(#region-2-2_00000090986253097816851910000017620990423990972859_);}
	.st21{fill:url(#region-3-1_00000103977523816598843500000008224437640134402469_);stroke:#000000;stroke-miterlimit:10;}
	.st22{fill:url(#region-4-1_00000083795342268837532790000002567040020379423159_);}
</style>
<pattern  y="1000" width="40" height="40" patternUnits="userSpaceOnUse" id="SVGID_0000002541729029589025173" viewBox="0 -40 40 40" style="overflow:visible;">
	<g>
		<rect y="-40" class="st0" width="40" height="40"/>
		<g>
			<rect y="-40" class="st0" width="40" height="40"/>
			<g>
				<rect y="-40" class="st0" width="40" height="40"/>
				<g>
					<rect y="-40" class="st0" width="40" height="40"/>
					<g>
						<rect y="-40" class="st0" width="40" height="40"/>
						<g>
							<rect y="-40" class="st0" width="40" height="40"/>
							<g>
								<polygon class="st0" points="0,-40 40,-40 40,0 0,0 								"/>
								<polygon class="st1" points="0,-20 20,-20 20,0 0,0 								"/>
								<polygon class="st1" points="20,-40 40,-40 40,-20 20,-20 								"/>
							</g>
						</g>
					</g>
				</g>
			</g>
		</g>
	</g>
</pattern>
<g>
	<g>
		<g>
			<defs>
				<rect id="SVGID_1_" y="-0.5" width="2000" height="1000"/>
			</defs>
			<clipPath id="SVGID_00000166661467017794174930000012818697850239326619_">
				<use xlink:href="#SVGID_1_"  style="overflow:visible;"/>
			</clipPath>
			<g style="clip-path:url(#SVGID_00000166661467017794174930000012818697850239326619_);">
				
					<pattern  id="SVGID_00000039844990831578382680000003798644126898844080_" xlink:href="#SVGID_0000002541729029589025173" patternTransform="matrix(1 0 0 -1 17546.5 -49844.1094)">
				</pattern>
				<rect y="-0.5" style="fill:url(#SVGID_00000039844990831578382680000003798644126898844080_);" width="1998.7" height="999.4"/>
			</g>
		</g>
	</g>
</g>
<linearGradient id="region-1-1_00000119084522806442740640000000471716886386111908_" gradientUnits="userSpaceOnUse" x1="-168.3545" y1="749.5782" x2="-167.3364" y2="749.6143" gradientTransform="matrix(142.4377 0 0 91.5853 24288.1523 -68514.8438)">
	<stop  offset="0" style="stop-color:#DE582A;stop-opacity:0.996"/>
	<stop  offset="1" style="stop-color:#DF5F1A;stop-opacity:0.998"/>
</linearGradient>
<path id="region-1-1" style="fill:url(#region-1-1_00000119084522806442740640000000471716886386111908_);" d="M359.9,93.2
	c-15.6,2.4-26.1,6.3-28.9,10.7c-1.8,2.7-21.3,74.5-20.4,75.1c0.6,0.6,37.1,2.6,64.8,3.7c24,1,76.5,0.7,77.6-0.3
	c0.1-0.2-0.8-5.1-2.2-10.8c-1.4-5.8-5.4-23.8-9-40c-6.1-27.8-6.6-29.6-9.4-32.1c-3.2-2.7-10.1-5.2-19.4-6.8
	C404.5,91.2,370.8,91.5,359.9,93.2z"/>
<linearGradient id="region-1-2_00000181065040380837316460000001340571323233662088_" gradientUnits="userSpaceOnUse" x1="-168.8237" y1="750.5385" x2="-167.4415" y2="750.0359" gradientTransform="matrix(341.614 0 0 440.7425 57854.7656 -330294.8125)">
	<stop  offset="0" style="stop-color:#A02656;stop-opacity:0.998"/>
	<stop  offset="1" style="stop-color:#FF7C00;stop-opacity:0.998"/>
</linearGradient>
<path id="region-1-2" style="fill:url(#region-1-2_00000181065040380837316460000001340571323233662088_);" d="M310,180.3
	c-2,3.3-28,115.7-44,189.8c-2.5,11.5-10.9,50.7-18.6,87c-7.8,36.3-17.9,83.2-22.5,104.2c-4.7,21-8.5,38.7-8.5,39.2
	c0,2.5,68.4,13.9,106,17.7c21.9,2.1,80.1,3,102.5,1.5c48.8-3.3,81.7-11.8,118.7-30.8c10.2-5.2,14.7-8,14.4-8.9
	c-2.6-6.7-44.2-154.5-54-191.4c-11.4-43.4-41.1-164.1-50.1-203.5c-0.4-2-1.3-2-43.2-2.1c-23.5,0-50.9-0.6-60.8-1.2
	C313.8,179.4,310.6,179.3,310,180.3z"/>
<linearGradient id="region-1-3_00000093165244350287899630000015266279845643333769_" gradientUnits="userSpaceOnUse" x1="-168.7325" y1="750.6799" x2="-167.7962" y2="749.5405" gradientTransform="matrix(425.7732 0 0 230.1024 72042.6641 -171912.4219)">
	<stop  offset="0" style="stop-color:#911455;stop-opacity:0.987"/>
	<stop  offset="1" style="stop-color:#DB571D;stop-opacity:0.992"/>
</linearGradient>
<path id="region-1-3" style="fill:url(#region-1-3_00000093165244350287899630000015266279845643333769_);" d="M543.8,588.8
	c-34.5,18.2-70,27.6-117,30.9c-18.4,1.3-66.3,1.3-85.7,0c-35.5-2.5-77.1-8.4-122.3-17.5l-3-0.7l-5.9,25.9
	c-3.3,14.2-11,46.5-17.3,71.7c-6.2,25.3-11.3,47.4-11.3,49.1c0,28.2,45.5,50.1,124.5,59.9c28.3,3.5,40.3,4.1,87,4.1
	c37.6,0,50.5-0.4,64.5-1.8c36.5-3.7,63.4-8.4,86.9-15.2c12.3-3.5,29.1-9.9,30-11.4c0.3-0.4,3.3-2.2,6.7-3.9
	c6.9-3.5,14.8-9.1,18.2-13c1.3-1.5,3.7-5.6,5.4-9.2c4.6-9.8,4.2-12-11-60.5c-7.2-23.1-18-58.4-24.1-78.5c-6-20-11.3-36.5-11.8-36.6
	C557.2,582,551,585,543.8,588.8z"/>
<linearGradient id="region-1-4_00000142888045566669401670000011248744267940149412_" gradientUnits="userSpaceOnUse" x1="-168.3751" y1="749.538" x2="-168.3661" y2="750.6461" gradientTransform="matrix(746.5781 0 0 179.8202 126086.7031 -134053.1406)">
	<stop  offset="0" style="stop-color:#FE7E26;stop-opacity:0.997"/>
	<stop  offset="1" style="stop-color:#FF7E26;stop-opacity:0.999"/>
</linearGradient>
<path id="region-1-4" style="fill:url(#region-1-4_00000142888045566669401670000011248744267940149412_);" d="M605.5,735.8
	c2.7,8.8,2.5,14.7-1,22.2c-1.6,3.4-4,7.4-5.3,8.9c-3.4,3.9-11.3,9.5-18.2,13c-3.4,1.7-6.4,3.5-6.7,3.9c-0.9,1.5-17.7,7.9-30,11.4
	c-23.5,6.8-50.4,11.5-86.9,15.2c-22.2,2.2-103.3,2.6-125.5,0.5c-31.1-2.9-54.2-6.4-76-11.7c-42-10.1-67.8-25.2-73-42.7
	c-1.9-6.4-1.9-9.6,0-17.7c0.9-3.5,1.4-6.6,1.2-6.8c-0.4-0.4-23.9,3.4-111.2,17.7c-26.9,4.4-52.3,8.5-56.2,9.1l-7.3,1.1l0.1,3.7
	c0.1,2,0.6,6.5,1.3,10.1l1.1,6.4l14.5,4.4c60.1,18,116,35.9,269,86.4c79.6,26.3,117.2,38.3,121,38.6c5.3,0.3,11.1-1.9,171-66.3
	c91-36.7,165.9-67.1,166.4-67.6c0.5-0.4,1.3-3.6,1.8-7c0.6-4.7,0.5-6.5-0.4-7.1c-3.5-2.1-143.5-31.8-150.1-31.8
	C603.8,729.7,603.8,730.5,605.5,735.8z"/>
<g id="layer-2">
	
		<linearGradient id="region-2-1_00000132086138926532958880000013405921437195073664_" gradientUnits="userSpaceOnUse" x1="-168.607" y1="749.9614" x2="-167.5191" y2="749.6286" gradientTransform="matrix(193.943 0 0 112.3456 32967.1211 -83997.0625)">
		<stop  offset="0" style="stop-color:#9DACCE;stop-opacity:0.719"/>
		<stop  offset="1" style="stop-color:#D9E8FF;stop-opacity:0.829"/>
	</linearGradient>
	<path id="region-2-1" style="fill:url(#region-2-1_00000132086138926532958880000013405921437195073664_);" d="M310,180.3
		c-1,1.7-12.6,49.4-24.1,99.3c-0.9,4.1-1.1,6.7-0.5,7.1c1,0.6,15.5,1.8,49.9,4.1c20.3,1.4,115,1.7,132.1,0.5l11.6-0.9l-2.3-9.6
		c-8.6-36-22.5-94-22.9-95.7c-0.4-2-1.3-2-43.2-2.1c-23.5,0-50.9-0.6-60.8-1.2C313.8,179.4,310.6,179.3,310,180.3z"/>
	
		<linearGradient id="region-2-2_00000140708630457792418660000017831701851763976581_" gradientUnits="userSpaceOnUse" x1="-168.826" y1="750.1116" x2="-167.7709" y2="749.8245" gradientTransform="matrix(341.5421 0 0 160.6133 57842.6211 -119917.7422)">
		<stop  offset="0" style="stop-color:#6C78A3;stop-opacity:0.765"/>
		<stop  offset="1" style="stop-color:#D1DCF7;stop-opacity:0.818"/>
	</linearGradient>
	<path id="region-2-2" style="fill:url(#region-2-2_00000140708630457792418660000017831701851763976581_);" d="M246.5,462.9
		c-0.5,1.8-5.3,23.3-10.6,47.8c-5.3,24.5-11.8,54.4-14.5,66.6c-2.8,12.1-5,22.5-5,23.1c0,1.3,3.5,2.1,29.4,6.9
		c49.8,9.1,82.1,12.4,127.6,13.1c79.4,1.2,121.7-6.6,170.2-31.4c10.9-5.5,14.8-8,14.3-9c-0.3-0.8-6.2-21.4-13.1-45.6
		c-12.5-44.2-19.2-66.8-19.7-67.4c-0.2-0.1-5.5,0.6-11.8,1.7c-65.3,11-134.4,11.5-205.4,1.4c-14.7-2.1-45.7-7.5-57.6-10
		C247.9,459.5,247.5,459.9,246.5,462.9z"/>
	
		<linearGradient id="region-2-3_00000054241635518764707160000000317816935347900078_" gradientUnits="userSpaceOnUse" x1="-168.3738" y1="749.4399" x2="-168.3684" y2="750.5378" gradientTransform="matrix(746.6773 0 0 147.8202 126103.5312 -110021.1328)">
		<stop  offset="0" style="stop-color:#760057;stop-opacity:0.779"/>
		<stop  offset="1" style="stop-color:#7A0356;stop-opacity:0.802"/>
	</linearGradient>
	<path id="region-2-3" style="fill:url(#region-2-3_00000054241635518764707160000000317816935347900078_);" d="M9.4,764.3
		c0.1,1.6,0.6,5.7,1.3,9.3l1.1,6.4l14.5,4.4c60.1,18,116,35.9,269,86.4c79.6,26.3,117.2,38.3,121,38.6c5.3,0.3,11.1-1.9,171-66.3
		c91-36.7,165.9-67.1,166.4-67.6c1-0.9,2.9-12.9,2.2-13.6c-0.4-0.4-330.4,125.6-335.8,128.2c-2.5,1.2-4.9,0.8-24.5-4.6
		C320.4,865,181.9,820.7,41,772.2c-16.9-5.8-31-10.6-31.2-10.6C9.5,761.7,9.3,762.8,9.4,764.3z"/>
</g>
<g id="layer-3">
	
		<linearGradient id="region-3-1_00000164490579977373652100000000129966238176851095_" gradientUnits="userSpaceOnUse" x1="-168.0871" y1="749.8817" x2="-168.0871" y2="750.8817" gradientTransform="matrix(228.3757 0 0 696.4473 38879.8906 -522154.25)">
		<stop  offset="0" style="stop-color:#FFFFDC;stop-opacity:0.473"/>
		<stop  offset="1" style="stop-color:#FFFFD1;stop-opacity:0.153"/>
	</linearGradient>
	<path id="region-3-1" style="fill:url(#region-3-1_00000164490579977373652100000000129966238176851095_);" d="M385.6,99.4
		c-3.4,0.4-6.5,1-6.8,1.4c-0.4,0.4,0.4,8.3,1.9,17.5c4.1,27.2,8,57.4,17.1,134.8c21,179.1,22.6,188,51.1,284.5
		c21.3,72.1,79.7,254.5,82.4,257.4c1.8,1.9,31.8-6.9,45.7-13.4c15.3-7.1,22.9-13.7,27.5-23.9c4.6-9.9,4.2-12.2-11-60.6
		C564,602.3,524.8,467.5,504,388.6c-19-71.8-53.5-215.6-65.1-270.5c-1.6-7.2-3.3-13.5-3.9-14.2C431.5,100.2,402.9,97.6,385.6,99.4z"
		/>
</g>
<g id="layer-4">
	
		<linearGradient id="region-4-1_00000106135620684611574490000002622120349431044523_" gradientUnits="userSpaceOnUse" x1="-165.5212" y1="742.1618" x2="-165.4401" y2="743.4948" gradientTransform="matrix(31.4756 0 0 10.5452 5617.4116 -7720.9141)">
		<stop  offset="0" style="stop-color:#FBFFFF;stop-opacity:0.813"/>
		<stop  offset="1" style="stop-color:#FBFFFF;stop-opacity:0.813"/>
	</linearGradient>
	<path id="region-4-1" style="fill:url(#region-4-1_00000106135620684611574490000002622120349431044523_);" d="M392.5,107.2
		c0.5,2.7,10.1,7.2,17.8,8.5c7.4,1.2,12.6-0.1,13.4-3.2c1.1-4.2-1.4-4.9-22.7-6.5C392.6,105.3,392.1,105.4,392.5,107.2z"/>
</g>
<rect x="368.4" y="138" class="st13" width="238.6" height="682"/>
<g>
	<line class="st14" x1="885.8" y1="423.6" x2="623" y2="423.6"/>
	<polygon class="st15" points="913,423.6 874.6,449 883.7,423.6 874.6,398.3 	"/>
</g>
<linearGradient id="region-1-3_00000164504046207604981110000004758167703163512210_" gradientUnits="userSpaceOnUse" x1="-167.1006" y1="750.7125" x2="-166.1643" y2="749.5731" gradientTransform="matrix(425.7732 0 0 230.1024 72042.6641 -171912.4219)">
	<stop  offset="0" style="stop-color:#911455;stop-opacity:0.987"/>
	<stop  offset="1" style="stop-color:#DB571D;stop-opacity:0.992"/>
</linearGradient>
<path id="region-1-3_00000039092826145055716890000015891180787359181231_" style="fill:url(#region-1-3_00000164504046207604981110000004758167703163512210_);" d="
	M1238.6,596.3c-34.5,18.2-70,27.6-117,30.9c-18.4,1.3-66.3,1.3-85.7,0c-35.5-2.5-77.1-8.4-122.3-17.5l-3-0.7l-5.9,25.9
	c-3.3,14.2-11,46.5-17.3,71.7c-6.2,25.3-11.3,47.4-11.3,49.1c0,28.2,45.5,50.1,124.5,59.9c28.3,3.5,40.3,4.1,87,4.1
	c37.6,0,50.5-0.4,64.5-1.8c36.5-3.7,63.4-8.4,86.9-15.2c12.3-3.5,29.1-9.9,30-11.4c0.3-0.4,3.3-2.2,6.7-3.9
	c6.9-3.5,14.8-9.1,18.2-13c1.3-1.5,3.7-5.6,5.4-9.2c4.6-9.8,4.2-12-11-60.5c-7.2-23.1-18-58.4-24.1-78.5c-6-20-11.3-36.5-11.8-36.6
	C1252,589.5,1245.8,592.5,1238.6,596.3z"/>
<linearGradient id="region-1-1_00000075877679408594855970000009395002538002432391_" gradientUnits="userSpaceOnUse" x1="-163.4707" y1="749.6665" x2="-162.4525" y2="749.7027" gradientTransform="matrix(142.4377 0 0 91.5853 24288.1523 -68514.8438)">
	<stop  offset="0" style="stop-color:#DE582A;stop-opacity:0.996"/>
	<stop  offset="1" style="stop-color:#DF5F1A;stop-opacity:0.998"/>
</linearGradient>
<path id="region-1-1_00000024715129152985111170000006477418325609654149_" style="fill:url(#region-1-1_00000075877679408594855970000009395002538002432391_);" d="
	M1055.5,101.3c-15.6,2.4-26.1,6.3-28.9,10.7c-1.8,2.7-21.3,74.5-20.4,75.1c0.6,0.6,37.1,2.6,64.8,3.7c24,1,76.5,0.7,77.6-0.3
	c0.1-0.2-0.8-5.1-2.2-10.8c-1.4-5.8-5.4-23.8-9-40c-6.1-27.8-6.6-29.6-9.4-32.1c-3.2-2.7-10.1-5.2-19.4-6.8
	C1100.2,99.3,1066.4,99.6,1055.5,101.3z"/>
<g id="图层_2_00000025432179137376100920000003220044499771679899_">
	
		<linearGradient id="region-1-2_00000159440566202949673290000009721132868714943109_" gradientUnits="userSpaceOnUse" x1="-166.7892" y1="750.5566" x2="-165.407" y2="750.0541" gradientTransform="matrix(341.614 0 0 440.7425 57854.7656 -330294.8125)">
		<stop  offset="0" style="stop-color:#A02656;stop-opacity:0.998"/>
		<stop  offset="1" style="stop-color:#FF7C00;stop-opacity:0.998"/>
	</linearGradient>
	
		<path id="region-1-2_00000181778935992520400270000006322619810253624714_" style="fill:url(#region-1-2_00000159440566202949673290000009721132868714943109_);" d="
		M1005.1,188.3c-2,3.3-28.1,115.6-44.1,189.8c-2.5,11.5-10.9,50.7-18.6,87c-7.8,36.3-17.9,83.2-22.5,104.2
		c-4.7,21-8.5,38.7-8.5,39.2c0,2.5,68.4,13.9,106,17.7c21.9,2.1,80.1,3,102.5,1.5c48.8-3.3,81.7-11.8,118.7-30.8
		c10.2-5.2,14.7-8,14.4-8.9c-2.6-6.7-44.2-154.5-54-191.4c-11.4-43.4-41.1-164.1-50.1-203.5c-0.4-2-1.3-2-43.2-2.1
		c-23.5,0-50.9-0.6-60.8-1.2C1008.8,187.4,1005.7,187.3,1005.1,188.3z"/>
	
		<linearGradient id="region-2-1_00000021088770193586380250000003378614548746397601_" gradientUnits="userSpaceOnUse" x1="-162.9609" y1="750.0684" x2="-161.873" y2="749.7355" gradientTransform="matrix(193.943 0 0 112.3456 32967.1211 -83997.0625)">
		<stop  offset="0" style="stop-color:#9DACCE;stop-opacity:0.719"/>
		<stop  offset="1" style="stop-color:#D9E8FF;stop-opacity:0.829"/>
	</linearGradient>
	
		<path id="region-2-1_00000041268321477649165850000003105043664265602485_" style="fill:url(#region-2-1_00000021088770193586380250000003378614548746397601_);" d="
		M1405.1,192.3c-1,1.7-12.6,49.4-24.1,99.3c-0.9,4.1-1.1,6.7-0.5,7.1c1,0.6,15.5,1.8,49.9,4.1c20.3,1.4,115,1.7,132.1,0.5l11.6-0.9
		l-2.3-9.6c-8.6-36-22.5-94-22.9-95.7c-0.4-2-1.3-2-43.2-2.1c-23.5,0-50.9-0.6-60.8-1.2C1408.8,191.4,1405.7,191.3,1405.1,192.3z"/>
	
		<linearGradient id="region-2-2_00000090252385826336648110000007764002007077762460_" gradientUnits="userSpaceOnUse" x1="-165.6141" y1="750.1177" x2="-164.559" y2="749.8306" gradientTransform="matrix(341.5421 0 0 160.6133 57842.6211 -119917.7422)">
		<stop  offset="0" style="stop-color:#6C78A3;stop-opacity:0.765"/>
		<stop  offset="1" style="stop-color:#D1DCF7;stop-opacity:0.818"/>
	</linearGradient>
	
		<path id="region-2-2_00000047049405736727737600000015871645151891711922_" style="fill:url(#region-2-2_00000090252385826336648110000007764002007077762460_);" d="
		M1343.4,463.9c-0.5,1.8-5.3,23.3-10.6,47.8c-5.3,24.5-11.8,54.4-14.5,66.6c-2.8,12.1-5,22.5-5,23.1c0,1.3,3.5,2.1,29.4,6.9
		c49.8,9.1,82.1,12.4,127.6,13.1c79.4,1.2,121.7-6.6,170.2-31.4c10.9-5.5,14.8-8,14.3-9c-0.3-0.8-6.2-21.4-13.1-45.6
		c-12.5-44.2-19.2-66.8-19.7-67.4c-0.2-0.1-5.5,0.6-11.8,1.7c-65.3,11-134.4,11.5-205.4,1.4c-14.7-2.1-45.7-7.5-57.6-10
		C1344.8,460.5,1344.4,460.9,1343.4,463.9z"/>
	
		<linearGradient id="region-3-1_00000078739960666991052640000000050033228968353981_" gradientUnits="userSpaceOnUse" x1="-162.2892" y1="749.9003" x2="-162.2892" y2="750.9003" gradientTransform="matrix(228.3757 0 0 696.4473 38879.8906 -522154.25)">
		<stop  offset="0" style="stop-color:#FFFFDC;stop-opacity:0.473"/>
		<stop  offset="1" style="stop-color:#FFFFD1;stop-opacity:0.153"/>
	</linearGradient>
	
		<path id="region-3-1_00000119809169572003657830000006009911241076952507_" style="fill:url(#region-3-1_00000078739960666991052640000000050033228968353981_);stroke:#000000;stroke-miterlimit:10;" d="
		M1709.7,112.4c-3.4,0.4-6.5,1-6.8,1.4c-0.4,0.4,0.4,8.3,1.9,17.5c4.1,27.2,8,57.4,17.1,134.8c21,179.1,22.6,188,51.1,284.5
		c21.3,72.1,79.7,254.5,82.4,257.4c1.8,1.9,31.8-6.9,45.7-13.4c15.3-7.1,22.9-13.7,27.5-23.9c4.6-9.9,4.2-12.2-11-60.6
		c-29.6-94.8-68.8-229.7-89.6-308.5c-18.9-71.9-53.5-215.6-65.1-270.5c-1.6-7.2-3.3-13.5-3.9-14.2
		C1755.6,113.2,1726.8,110.6,1709.7,112.4z"/>
	
		<linearGradient id="region-4-1_00000098191832842480087890000013690518037317828026_" gradientUnits="userSpaceOnUse" x1="-129.0834" y1="742.162" x2="-129.0022" y2="743.4949" gradientTransform="matrix(31.4756 0 0 10.5452 5617.4116 -7720.9141)">
		<stop  offset="0" style="stop-color:#FBFFFF;stop-opacity:0.813"/>
		<stop  offset="1" style="stop-color:#FBFFFF;stop-opacity:0.813"/>
	</linearGradient>
	
		<path id="region-4-1_00000123432650499688819600000003070214944382181539_" style="fill:url(#region-4-1_00000098191832842480087890000013690518037317828026_);" d="
		M1539.4,107.2c0.5,2.7,10.1,7.2,17.8,8.5c7.4,1.2,12.6-0.1,13.4-3.2c1.1-4.2-1.4-4.9-22.7-6.5
		C1539.7,105.3,1539.2,105.4,1539.4,107.2z"/>
</g>
</svg>
