<?xml version="1.0" standalone="no"?>
<!DOCTYPE svg PUBLIC "-//W3C//DTD SVG 20010904//EN"
 "http://www.w3.org/TR/2001/REC-SVG-20010904/DTD/svg10.dtd">
<svg version="1.0" xmlns="http://www.w3.org/2000/svg"
 width="925.000000pt" height="820.000000pt" viewBox="0 0 925.000000 820.000000"
 preserveAspectRatio="xMidYMid meet">
<defs>
<linearGradient id="grad_0" x1="0%" y1="100%" x2="100%" y2="100%">
<stop offset="0%" style="stop-color:rgb(255, 255, 255); stop-opacity:1"/>
<stop offset="100%" style="stop-color:rgb(255, 255, 255); stop-opacity:1"/>
</linearGradient>
<linearGradient id="grad_1" x1="0%" y1="100%" x2="100%" y2="100%">
<stop offset="0%" style="stop-color:rgb(149, 28, 77); stop-opacity:1"/>
<stop offset="100%" style="stop-color:rgb(149, 28, 77); stop-opacity:1"/>
</linearGradient>
<linearGradient id="grad_2" x1="0%" y1="99%" x2="100%" y2="99%">
<stop offset="0%" style="stop-color:rgb(232, 147, 93); stop-opacity:1"/>
<stop offset="100%" style="stop-color:rgb(232, 147, 93); stop-opacity:1"/>
</linearGradient>
<linearGradient id="grad_3" x1="0%" y1="100%" x2="100%" y2="100%">
<stop offset="0%" style="stop-color:rgb(249, 242, 235); stop-opacity:1"/>
<stop offset="100%" style="stop-color:rgb(249, 242, 235); stop-opacity:1"/>
</linearGradient>
<linearGradient id="grad_4" x1="0%" y1="81%" x2="100%" y2="81%">
<stop offset="0%" style="stop-color:rgb(254, 126, 39); stop-opacity:1"/>
<stop offset="100%" style="stop-color:rgb(254, 126, 39); stop-opacity:1"/>
</linearGradient>
<linearGradient id="grad_5" x1="73%" y1="94%" x2="4%" y2="14%">
<stop offset="0%" style="stop-color:rgb(203, 73, 56); stop-opacity:1"/>
<stop offset="100%" style="stop-color:rgb(150, 27, 77); stop-opacity:1"/>
</linearGradient>
<linearGradient id="grad_6" x1="0%" y1="84%" x2="100%" y2="84%">
<stop offset="0%" style="stop-color:rgb(211, 108, 77); stop-opacity:1"/>
<stop offset="100%" style="stop-color:rgb(211, 108, 77); stop-opacity:1"/>
</linearGradient>
<linearGradient id="grad_7" x1="0%" y1="6%" x2="100%" y2="6%">
<stop offset="0%" style="stop-color:rgb(223, 91, 39); stop-opacity:1"/>
<stop offset="100%" style="stop-color:rgb(223, 91, 39); stop-opacity:1"/>
</linearGradient>
<linearGradient id="grad_8" x1="0%" y1="5%" x2="107%" y2="32%">
<stop offset="0%" style="stop-color:rgb(160, 140, 167); stop-opacity:1"/>
<stop offset="100%" style="stop-color:rgb(206, 187, 185); stop-opacity:1"/>
</linearGradient>
<linearGradient id="grad_9" x1="0%" y1="11%" x2="92%" y2="47%">
<stop offset="0%" style="stop-color:rgb(102, 88, 145); stop-opacity:1"/>
<stop offset="100%" style="stop-color:rgb(192, 169, 178); stop-opacity:1"/>
</linearGradient>
<linearGradient id="grad_10" x1="0%" y1="93%" x2="100%" y2="93%">
<stop offset="0%" style="stop-color:rgb(218, 203, 201); stop-opacity:1"/>
<stop offset="100%" style="stop-color:rgb(218, 203, 201); stop-opacity:1"/>
</linearGradient>
<linearGradient id="grad_11" x1="84%" y1="96%" x2="-20%" y2="33%">
<stop offset="0%" style="stop-color:rgb(225, 92, 37); stop-opacity:1"/>
<stop offset="100%" style="stop-color:rgb(189, 62, 63); stop-opacity:1"/>
</linearGradient>
<linearGradient id="grad_12" x1="14%" y1="0%" x2="112%" y2="31%">
<stop offset="0%" style="stop-color:rgb(255, 255, 255); stop-opacity:0.647617"/>
<stop offset="100%" style="stop-color:rgb(255, 255, 255); stop-opacity:0.757831"/>
</linearGradient>
<linearGradient id="grad_13" x1="100%" y1="1%" x2="89%" y2="104%">
<stop offset="0%" style="stop-color:rgb(255, 255, 255); stop-opacity:0.126728"/>
<stop offset="100%" style="stop-color:rgb(255, 255, 255); stop-opacity:0.178438"/>
</linearGradient>
</defs>
<g transform="translate(0.000000,820.000000) scale(0.100000,-0.100000)"
fill="url(#grad_0)" stroke="none">
<g>
<path d="M0 4100 l0 -4100 4625 0 4625 0 0 4100 0 4100 -4625 0 -4625 0 0
-4100z"/>
</g>
</g>
<g transform="translate(0.000000,820.000000) scale(0.100000,-0.100000)"
fill="url(#grad_1)" stroke="none">
<g>
<path d="M841 1463 c1 -16 6 -57 13 -93 l11 -64 145 -44 c601 -180 1160 -359
2690 -864 796 -263 1172 -383 1210 -386 53 -3 111 19 1710 663 910 367 1659
671 1664 676 10 9 29 129 22 136 -4 4 -3304 -1256 -3358 -1282 -25 -12 -49 -8
-245 46 -753 206 -2137 649 -3546 1133 -169 58 -310 106 -312 106 -3 0 -5 -12
-4 -27z"/>
</g>
</g>
<g transform="translate(0.000000,820.000000) scale(0.100000,-0.100000)"
fill="url(#grad_2)" stroke="none">
<g>
<path d="M4603 8112 c-34 -4 -65 -10 -68 -14 -4 -4 4 -83 19 -175 41 -272 80
-574 171 -1348 169 -1441 205 -1693 301 -2087 l36 -148 56 0 c73 0 372 26 527
46 124 15 345 51 351 56 1 2 -15 66 -37 143 -212 744 -657 2550 -824 3340 -16
72 -33 135 -39 142 -34 37 -321 63 -493 45z"/>
</g>
</g>
<g transform="translate(0.000000,820.000000) scale(0.100000,-0.100000)"
fill="url(#grad_3)" stroke="none">
<g>
<path d="M4671 8034 c5 -27 101 -72 178 -85 74 -12 126 1 134 32 11 42 -14 49
-227 65 -83 7 -88 6 -85 -12z"/>
</g>
</g>
<g transform="translate(0.000000,820.000000) scale(0.100000,-0.100000)"
fill="url(#grad_4)" stroke="none">
<g>
<path d="M6801 1749 c27 -88 25 -147 -10 -222 -16 -34 -40 -74 -53 -89 -34
-39 -113 -95 -182 -130 -34 -17 -64 -35 -67 -39 -9 -15 -177 -79 -300 -114
-235 -68 -504 -115 -869 -152 -222 -22 -1033 -26 -1255 -5 -311 29 -542 64
-760 117 -420 101 -678 252 -730 427 -19 64 -19 96 0 177 9 35 14 66 12 68 -4
4 -239 -34 -1112 -177 -269 -44 -523 -85 -562 -91 -40 -6 -73 -15 -73 -19 0
-8 63 -30 880 -307 1238 -419 2316 -759 2983 -942 196 -54 220 -58 245 -46 15
7 770 297 1677 645 908 347 1654 635 1658 640 10 9 -97 35 -448 111 -275 60
-1017 209 -1038 209 -13 0 -12 -9 4 -61z"/>
</g>
</g>
<g transform="translate(0.000000,820.000000) scale(0.100000,-0.100000)"
fill="url(#grad_5)" stroke="none">
<g>
<path d="M2846 2833 c-33 -142 -110 -465 -173 -717 -62 -253 -113 -474 -113
-491 0 -55 29 -132 70 -184 173 -219 670 -372 1435 -443 188 -17 1022 -18
1200 0 377 37 653 82 889 147 131 36 341 113 332 122 -3 3 -35 -6 -73 -21
-135 -50 -340 -103 -353 -90 -13 15 -461 1383 -569 1740 l-22 70 -72 -12
c-201 -35 -354 -46 -688 -51 -601 -10 -1056 37 -1774 182 l-30 7 -59 -259z"/>
</g>
</g>
<g transform="translate(0.000000,820.000000) scale(0.100000,-0.100000)"
fill="url(#grad_6)" stroke="none">
<g>
<path d="M6185 3219 c-202 -106 -497 -213 -678 -245 -32 -5 -37 -9 -31 -28 66
-229 571 -1775 584 -1790 18 -19 318 69 457 134 153 71 229 137 275 239 46 99
42 122 -110 606 -72 231 -180 584 -241 785 -60 200 -113 365 -118 366 -4 1
-66 -29 -138 -67z"/>
</g>
</g>
<g transform="translate(0.000000,820.000000) scale(0.100000,-0.100000)"
fill="url(#grad_7)" stroke="none">
<g>
<path d="M4345 8174 c-156 -24 -261 -63 -289 -107 -18 -27 -212 -745 -204
-752 10 -8 776 -46 787 -38 4 3 -51 424 -85 646 -15 92 -23 171 -20 175 10 9
137 21 243 21 104 1 225 -14 283 -34 48 -17 52 -5 8 28 -37 28 -105 51 -192
66 -84 15 -423 12 -531 -5z"/>
</g>
</g>
<g transform="translate(0.000000,820.000000) scale(0.100000,-0.100000)"
fill="url(#grad_8)" stroke="none">
<g>
<path d="M3847 7303 c-10 -17 -126 -494 -241 -993 -9 -42 -11 -67 -4 -71 10
-6 208 -22 483 -39 83 -5 271 -12 419 -16 l269 -7 -6 39 c-3 21 -32 264 -63
538 -40 339 -63 503 -72 513 -10 9 -46 13 -130 13 -64 0 -184 5 -267 10 -356
22 -382 23 -388 13z"/>
</g>
</g>
<g transform="translate(0.000000,820.000000) scale(0.100000,-0.100000)"
fill="url(#grad_9)" stroke="none">
<g>
<path d="M3211 4478 c-5 -18 -53 -233 -106 -478 -53 -245 -118 -544 -145 -666
-28 -121 -50 -225 -50 -231 0 -13 35 -21 294 -69 236 -43 551 -88 766 -110
219 -21 801 -30 1025 -15 154 11 449 46 466 56 3 3 -30 120 -73 262 -99 321
-244 817 -289 984 l-33 126 -151 -5 c-166 -5 -528 11 -760 33 -252 25 -661 89
-906 141 -24 5 -28 2 -38 -28z"/>
</g>
</g>
<g transform="translate(0.000000,820.000000) scale(0.100000,-0.100000)"
fill="url(#grad_10)" stroke="none">
<g>
<path d="M5840 4415 c-176 -30 -372 -52 -592 -67 -98 -7 -178 -16 -178 -22 0
-28 178 -643 313 -1081 l83 -270 39 2 c58 4 282 68 413 119 163 63 414 193
408 211 -3 8 -71 242 -151 521 -183 641 -174 612 -188 611 -7 -1 -73 -12 -147
-24z"/>
</g>
</g>
<g transform="translate(0.000000,820.000000) scale(0.100000,-0.100000)"
fill="url(#grad_11)" stroke="none">
<g>
<path d="M3586 6223 c-14 -49 -259 -1177 -342 -1578 -14 -66 -27 -129 -30
-140 -4 -14 -3 -16 4 -7 7 10 33 8 133 -12 413 -82 769 -126 1189 -147 222
-11 503 -9 515 3 3 3 -7 59 -24 124 -77 307 -116 548 -196 1199 -31 248 -58
465 -61 483 l-5 32 -112 0 c-230 0 -973 39 -1044 55 -15 4 -23 0 -27 -12z"/>
</g>
</g>
<g transform="translate(0.000000,820.000000) scale(0.100000,-0.100000)"
fill="url(#grad_12)" stroke="none">
<g>
<path d="M4888 7273 l-247 -3 5 -28 c4 -26 124 -1043 124 -1058 0 -8 552 2
686 13 l81 6 -23 96 c-78 325 -225 940 -229 959 -5 21 -10 22 -78 20 -39 -2
-183 -4 -319 -5z"/>
</g>
</g>
<g transform="translate(0.000000,820.000000) scale(0.100000,-0.100000)"
fill="url(#grad_13)" stroke="none">
<g>
<path d="M4603 8112 c-34 -4 -65 -10 -68 -14 -4 -4 4 -83 19 -175 27 -181 86
-615 86 -640 0 -14 35 -15 315 -11 174 3 318 7 320 9 2 2 -16 90 -40 194 -25
105 -63 278 -86 385 -23 107 -47 200 -53 207 -34 37 -321 63 -493 45z m300
-79 c64 -6 88 -22 80 -52 -8 -31 -60 -44 -134 -32 -77 13 -173 58 -178 85 -3
18 2 19 85 12 49 -3 115 -9 147 -13z"/>
</g>
</g>
</svg>
