<?xml version="1.0" standalone="no"?>
<!DOCTYPE svg PUBLIC "-//W3C//DTD SVG 20010904//EN"
 "http://www.w3.org/TR/2001/REC-SVG-20010904/DTD/svg10.dtd">
<svg version="1.0" xmlns="http://www.w3.org/2000/svg"
 width="718.000000pt" height="766.000000pt" viewBox="0 0 718.000000 766.000000"
 preserveAspectRatio="xMidYMid meet">
<defs>
<linearGradient id="grad_0" x1="0%" y1="100%" x2="100%" y2="100%">
<stop offset="0%" style="stop-color:rgb(254, 219, 189); stop-opacity:1"/>
<stop offset="100%" style="stop-color:rgb(254, 219, 189); stop-opacity:1"/>
</linearGradient>
<linearGradient id="grad_1" x1="0%" y1="71%" x2="100%" y2="71%">
<stop offset="0%" style="stop-color:rgb(197, 121, 82); stop-opacity:1"/>
<stop offset="100%" style="stop-color:rgb(197, 121, 82); stop-opacity:1"/>
</linearGradient>
<linearGradient id="grad_2" x1="0%" y1="93%" x2="100%" y2="93%">
<stop offset="0%" style="stop-color:rgb(240, 165, 110); stop-opacity:1"/>
<stop offset="100%" style="stop-color:rgb(240, 165, 110); stop-opacity:1"/>
</linearGradient>
<linearGradient id="grad_3" x1="0%" y1="86%" x2="100%" y2="86%">
<stop offset="0%" style="stop-color:rgb(120, 85, 63); stop-opacity:1"/>
<stop offset="100%" style="stop-color:rgb(120, 85, 63); stop-opacity:1"/>
</linearGradient>
<linearGradient id="grad_4" x1="0%" y1="59%" x2="100%" y2="59%">
<stop offset="0%" style="stop-color:rgb(237, 156, 111); stop-opacity:1"/>
<stop offset="100%" style="stop-color:rgb(237, 156, 111); stop-opacity:1"/>
</linearGradient>
<linearGradient id="grad_5" x1="0%" y1="45%" x2="100%" y2="45%">
<stop offset="0%" style="stop-color:rgb(237, 156, 112); stop-opacity:1"/>
<stop offset="100%" style="stop-color:rgb(237, 156, 112); stop-opacity:1"/>
</linearGradient>
<linearGradient id="grad_6" x1="21%" y1="6%" x2="54%" y2="106%">
<stop offset="0%" style="stop-color:rgb(236, 156, 112); stop-opacity:1"/>
<stop offset="100%" style="stop-color:rgb(236, 157, 112); stop-opacity:1"/>
</linearGradient>
<linearGradient id="grad_7" x1="0%" y1="100%" x2="100%" y2="100%">
<stop offset="0%" style="stop-color:rgb(252, 216, 184); stop-opacity:1"/>
<stop offset="100%" style="stop-color:rgb(252, 216, 184); stop-opacity:1"/>
</linearGradient>
<linearGradient id="grad_8" x1="96%" y1="55%" x2="93%" y2="-19%">
<stop offset="0%" style="stop-color:rgb(220, 63, 104); stop-opacity:1"/>
<stop offset="100%" style="stop-color:rgb(207, 69, 108); stop-opacity:1"/>
</linearGradient>
<linearGradient id="grad_9" x1="0%" y1="34%" x2="100%" y2="34%">
<stop offset="0%" style="stop-color:rgb(176, 108, 73); stop-opacity:1"/>
<stop offset="100%" style="stop-color:rgb(176, 108, 73); stop-opacity:1"/>
</linearGradient>
<linearGradient id="grad_10" x1="0%" y1="64%" x2="100%" y2="64%">
<stop offset="0%" style="stop-color:rgb(237, 157, 111); stop-opacity:1"/>
<stop offset="100%" style="stop-color:rgb(237, 157, 111); stop-opacity:1"/>
</linearGradient>
<linearGradient id="grad_11" x1="0%" y1="5%" x2="48%" y2="-2%">
<stop offset="0%" style="stop-color:rgb(209, 197, 184); stop-opacity:1"/>
<stop offset="100%" style="stop-color:rgb(243, 238, 227); stop-opacity:1"/>
</linearGradient>
<linearGradient id="grad_12" x1="0%" y1="43%" x2="100%" y2="43%">
<stop offset="0%" style="stop-color:rgb(237, 157, 111); stop-opacity:1"/>
<stop offset="100%" style="stop-color:rgb(237, 157, 111); stop-opacity:1"/>
</linearGradient>
<linearGradient id="grad_13" x1="40%" y1="9%" x2="-1%" y2="43%">
<stop offset="0%" style="stop-color:rgb(196, 118, 79); stop-opacity:1"/>
<stop offset="100%" style="stop-color:rgb(199, 125, 86); stop-opacity:1"/>
</linearGradient>
<linearGradient id="grad_14" x1="0%" y1="53%" x2="100%" y2="53%">
<stop offset="0%" style="stop-color:rgb(218, 136, 94); stop-opacity:1"/>
<stop offset="100%" style="stop-color:rgb(218, 136, 94); stop-opacity:1"/>
</linearGradient>
<linearGradient id="grad_15" x1="0%" y1="98%" x2="100%" y2="98%">
<stop offset="0%" style="stop-color:rgb(227, 62, 55); stop-opacity:1"/>
<stop offset="100%" style="stop-color:rgb(227, 62, 55); stop-opacity:1"/>
</linearGradient>
<linearGradient id="grad_16" x1="0%" y1="53%" x2="100%" y2="53%">
<stop offset="0%" style="stop-color:rgb(174, 55, 81); stop-opacity:1"/>
<stop offset="100%" style="stop-color:rgb(174, 55, 81); stop-opacity:1"/>
</linearGradient>
<linearGradient id="grad_17" x1="0%" y1="39%" x2="100%" y2="39%">
<stop offset="0%" style="stop-color:rgb(254, 156, 106); stop-opacity:0.274915"/>
<stop offset="100%" style="stop-color:rgb(254, 156, 106); stop-opacity:0.274915"/>
</linearGradient>
<linearGradient id="grad_18" x1="0%" y1="70%" x2="100%" y2="70%">
<stop offset="0%" style="stop-color:rgb(254, 156, 106); stop-opacity:0.541157"/>
<stop offset="100%" style="stop-color:rgb(254, 156, 106); stop-opacity:0.541157"/>
</linearGradient>
<linearGradient id="grad_19" x1="0%" y1="45%" x2="100%" y2="45%">
<stop offset="0%" style="stop-color:rgb(254, 156, 106); stop-opacity:0.535376"/>
<stop offset="100%" style="stop-color:rgb(254, 156, 106); stop-opacity:0.535376"/>
</linearGradient>
<linearGradient id="grad_20" x1="0%" y1="94%" x2="100%" y2="94%">
<stop offset="0%" style="stop-color:rgb(0, 0, 0); stop-opacity:0.202037"/>
<stop offset="100%" style="stop-color:rgb(0, 0, 0); stop-opacity:0.202037"/>
</linearGradient>
<linearGradient id="grad_21" x1="0%" y1="100%" x2="100%" y2="100%">
<stop offset="0%" style="stop-color:rgb(254, 156, 106); stop-opacity:0.272659"/>
<stop offset="100%" style="stop-color:rgb(254, 156, 106); stop-opacity:0.272659"/>
</linearGradient>
<linearGradient id="grad_22" x1="0%" y1="97%" x2="100%" y2="97%">
<stop offset="0%" style="stop-color:rgb(0, 255, 135); stop-opacity:0.209252"/>
<stop offset="100%" style="stop-color:rgb(0, 255, 135); stop-opacity:0.209252"/>
</linearGradient>
<linearGradient id="grad_23" x1="0%" y1="46%" x2="100%" y2="46%">
<stop offset="0%" style="stop-color:rgb(0, 0, 0); stop-opacity:0.450666"/>
<stop offset="100%" style="stop-color:rgb(0, 0, 0); stop-opacity:0.450666"/>
</linearGradient>
<linearGradient id="grad_24" x1="0%" y1="23%" x2="100%" y2="23%">
<stop offset="0%" style="stop-color:rgb(0, 0, 0); stop-opacity:0.545223"/>
<stop offset="100%" style="stop-color:rgb(0, 0, 0); stop-opacity:0.545223"/>
</linearGradient>
<linearGradient id="grad_25" x1="89%" y1="81%" x2="14%" y2="14%">
<stop offset="0%" style="stop-color:rgb(28, 28, 28); stop-opacity:0.547851"/>
<stop offset="100%" style="stop-color:rgb(28, 28, 28); stop-opacity:0.567912"/>
</linearGradient>
<linearGradient id="grad_26" x1="65%" y1="97%" x2="32%" y2="2%">
<stop offset="0%" style="stop-color:rgb(28, 28, 28); stop-opacity:0.568919"/>
<stop offset="100%" style="stop-color:rgb(28, 28, 28); stop-opacity:0.58496"/>
</linearGradient>
</defs>
<g transform="translate(0.000000,766.000000) scale(0.100000,-0.100000)"
fill="url(#grad_0)" stroke="none">
<g>
<path d="M0 3830 l0 -3830 3590 0 3590 0 0 3830 0 3830 -3590 0 -3590 0 0
-3830z"/>
</g>
</g>
<g transform="translate(0.000000,766.000000) scale(0.100000,-0.100000)"
fill="url(#grad_1)" stroke="none">
<g>
<path d="M1995 7240 c-271 -58 -629 -404 -710 -684 -13 -43 -16 -84 -13 -150
5 -121 43 -201 143 -302 118 -119 248 -182 422 -205 l91 -11 -23 -52 c-66
-149 -123 -387 -132 -553 l-6 -102 49 16 c32 10 103 17 200 20 206 7 343 -16
638 -108 70 -22 129 -39 130 -37 2 2 17 23 34 48 38 56 142 157 205 200 139
93 295 140 487 147 157 6 247 -5 375 -48 249 -83 436 -264 501 -484 18 -63 25
-217 11 -267 l-7 -28 58 0 c189 0 420 58 612 155 73 37 231 140 269 176 l24
22 -6 186 c-7 247 -42 427 -121 622 l-34 84 57 8 c162 22 278 68 388 151 173
131 246 315 198 501 -36 135 -106 246 -255 398 -216 223 -402 319 -585 303
-225 -20 -449 -264 -491 -531 l-6 -41 -131 66 c-153 77 -305 129 -467 162
-100 20 -144 23 -340 23 -169 0 -247 -4 -315 -17 -188 -36 -400 -110 -545
-192 l-78 -44 -17 77 c-45 208 -202 407 -372 471 -64 24 -176 34 -238 20z"/>
</g>
</g>
<g transform="translate(0.000000,766.000000) scale(0.100000,-0.100000)"
fill="url(#grad_2)" stroke="none">
<g>
<path d="M4363 5693 c-18 -7 -16 -74 3 -101 35 -50 124 -70 144 -31 28 51 -39
140 -103 138 -18 0 -38 -3 -44 -6z"/>
</g>
</g>
<g transform="translate(0.000000,766.000000) scale(0.100000,-0.100000)"
fill="url(#grad_3)" stroke="none">
<g>
<path d="M2772 5688 c-29 -29 -2 -102 48 -132 33 -19 81 -21 98 -4 44 44 -24
148 -96 148 -21 0 -43 -5 -50 -12z"/>
</g>
</g>
<g transform="translate(0.000000,766.000000) scale(0.100000,-0.100000)"
fill="url(#grad_4)" stroke="none">
<g>
<path d="M4953 6955 c-138 -64 -234 -244 -220 -415 10 -133 69 -241 176 -322
86 -66 173 -92 289 -86 139 8 251 65 329 166 97 128 74 282 -68 451 -72 85
-167 161 -250 201 -85 40 -178 42 -256 5z"/>
</g>
</g>
<g transform="translate(0.000000,766.000000) scale(0.100000,-0.100000)"
fill="url(#grad_5)" stroke="none">
<g>
<path d="M1928 6961 c-120 -47 -292 -211 -354 -337 -45 -90 -54 -168 -29 -243
25 -77 108 -161 203 -208 75 -37 78 -38 192 -38 114 0 117 1 193 38 272 135
339 479 136 701 -69 76 -133 106 -223 106 -44 -1 -89 -8 -118 -19z"/>
</g>
</g>
<g transform="translate(0.000000,766.000000) scale(0.100000,-0.100000)"
fill="url(#grad_6)" stroke="none">
<g>
<path d="M3400 5463 c-134 -22 -282 -80 -386 -150 -81 -55 -192 -175 -232
-250 -118 -222 -89 -477 73 -638 174 -174 512 -263 856 -226 397 43 647 224
690 500 28 188 -37 368 -191 521 -126 126 -293 209 -480 239 -62 10 -278 13
-330 4z"/>
</g>
</g>
<g transform="translate(0.000000,766.000000) scale(0.100000,-0.100000)"
fill="url(#grad_7)" stroke="none">
<g>
<path d="M5342 3163 c10 -49 30 -135 43 -193 31 -137 55 -265 55 -299 0 -20 7
-31 24 -39 13 -6 54 -39 91 -74 61 -57 74 -77 142 -216 59 -120 79 -174 95
-250 10 -53 20 -97 21 -97 1 -1 38 13 81 31 l79 32 -49 25 c-115 58 -202 211
-320 559 -87 255 -142 386 -219 515 -31 51 -57 93 -59 93 -2 0 6 -39 16 -87z"/>
</g>
</g>
<g transform="translate(0.000000,766.000000) scale(0.100000,-0.100000)"
fill="url(#grad_8)" stroke="none">
<g>
<path d="M2011 3979 c-6 -18 -11 -64 -11 -103 0 -131 53 -206 207 -295 227
-129 538 -244 817 -301 322 -66 696 -71 1016 -14 189 34 517 134 527 162 9 22
-34 145 -66 190 l-30 40 -128 -43 c-134 -45 -299 -85 -443 -107 -134 -20 -547
-17 -690 5 -256 41 -540 129 -775 242 -140 68 -320 176 -365 220 -20 19 -39
35 -42 35 -3 0 -11 -14 -17 -31z"/>
</g>
</g>
<g transform="translate(0.000000,766.000000) scale(0.100000,-0.100000)"
fill="url(#grad_9)" stroke="none">
<g>
<path d="M5101 3978 c24 -69 24 -125 -1 -199 -11 -33 -18 -65 -14 -71 4 -6 28
-38 53 -72 59 -78 103 -162 150 -284 20 -53 62 -140 94 -193 79 -131 134 -260
221 -517 118 -348 205 -501 320 -559 l49 -25 -79 -32 c-43 -18 -80 -32 -81
-31 -1 0 -11 44 -21 97 -16 76 -36 130 -95 250 -68 139 -81 159 -142 216 -37
35 -78 68 -91 74 -18 8 -24 19 -24 42 0 28 -57 326 -63 333 -2 1 -1 -64 1
-146 5 -165 0 -186 -72 -294 -110 -165 -300 -277 -501 -294 l-72 -6 -12 -80
c-22 -140 -67 -262 -117 -316 -13 -14 -42 -48 -63 -75 -152 -189 -412 -290
-820 -317 -292 -20 -584 8 -791 77 -333 111 -498 320 -541 687 -31 265 25 576
147 819 46 92 151 255 180 279 12 10 -10 21 -123 64 -170 65 -270 110 -386
176 -107 62 -151 104 -184 176 -13 29 -28 53 -32 53 -17 0 -149 -100 -204
-154 -133 -132 -182 -220 -322 -586 -111 -289 -184 -450 -249 -548 -86 -129
-199 -213 -307 -228 -53 -7 -151 15 -224 51 -27 13 -51 22 -54 19 -3 -2 9 -34
27 -70 35 -70 94 -140 156 -186 36 -25 37 -28 15 -28 -40 0 -182 -54 -230 -87
-24 -17 -62 -49 -84 -72 -22 -22 -45 -41 -51 -41 -17 0 -80 -125 -100 -200
-16 -54 -18 -100 -18 -280 1 -118 7 -244 14 -280 15 -81 60 -221 70 -215 4 2
18 -19 31 -48 60 -129 178 -276 291 -364 33 -25 69 -55 81 -67 25 -24 158 -83
209 -92 18 -3 69 -14 113 -24 170 -40 342 -35 575 16 311 69 741 253 1136 487
l141 84 69 -10 c97 -15 849 -15 948 0 l80 12 135 -81 c296 -177 622 -329 906
-423 193 -65 318 -92 490 -107 134 -11 157 -9 390 32 87 16 212 70 297 129 72
49 140 111 123 111 -4 0 14 24 42 53 67 71 128 163 176 266 22 47 44 88 48 92
5 3 18 41 30 85 30 108 39 479 15 592 -47 222 -201 380 -413 423 l-61 13 45
30 c217 143 287 555 157 918 -117 326 -387 613 -746 794 -162 82 -449 176
-609 199 l-47 7 19 -54z"/>
</g>
</g>
<g transform="translate(0.000000,766.000000) scale(0.100000,-0.100000)"
fill="url(#grad_10)" stroke="none">
<g>
<path d="M785 1576 c-230 -72 -310 -387 -169 -672 99 -201 288 -335 474 -338
110 -1 170 23 246 98 76 76 104 143 111 267 21 333 -251 660 -547 658 -41 0
-93 -6 -115 -13z"/>
</g>
</g>
<g transform="translate(0.000000,766.000000) scale(0.100000,-0.100000)"
fill="url(#grad_11)" stroke="none">
<g>
<path d="M1776 3203 c-88 -137 -167 -317 -251 -573 -51 -154 -211 -465 -265
-514 -22 -20 -51 -38 -65 -42 -14 -3 -25 -9 -25 -13 0 -3 33 -19 73 -36 39
-16 75 -31 79 -33 5 -2 8 10 8 26 0 65 51 230 104 337 54 110 134 209 209 261
25 17 29 29 43 124 19 126 71 334 112 448 17 45 29 82 26 82 -2 0 -24 -30 -48
-67z"/>
</g>
</g>
<g transform="translate(0.000000,766.000000) scale(0.100000,-0.100000)"
fill="url(#grad_12)" stroke="none">
<g>
<path d="M6095 1576 c-170 -54 -320 -204 -390 -389 -53 -143 -54 -307 -1 -423
67 -146 221 -224 381 -195 297 54 533 412 475 722 -24 130 -108 238 -216 279
-63 23 -185 26 -249 6z"/>
</g>
</g>
<g transform="translate(0.000000,766.000000) scale(0.100000,-0.100000)"
fill="url(#grad_13)" stroke="none">
<g>
<path d="M1905 4005 c-584 -136 -1007 -439 -1209 -866 -109 -229 -141 -477
-91 -698 l16 -66 57 -27 c82 -39 177 -61 231 -54 108 15 221 99 307 228 65 98
138 259 249 548 54 140 115 289 135 330 74 147 197 286 329 370 l70 45 0 66
c1 37 8 85 16 108 17 48 24 47 -110 16z"/>
</g>
</g>
<g transform="translate(0.000000,766.000000) scale(0.100000,-0.100000)"
fill="url(#grad_14)" stroke="none">
<g>
<path d="M4501 3394 c-180 -70 -429 -129 -641 -154 -147 -17 -458 -15 -611 4
-149 19 -289 46 -416 82 -51 15 -99 24 -107 21 -24 -9 -122 -154 -181 -268
-130 -252 -188 -563 -156 -836 43 -367 208 -576 541 -687 207 -69 499 -97 791
-77 408 27 668 128 820 317 21 27 50 61 64 76 50 54 103 204 120 341 l7 57
-78 0 c-91 0 -254 27 -254 43 0 5 14 53 31 106 79 245 140 535 155 733 7 97
-2 269 -14 267 -4 0 -36 -12 -71 -25z"/>
</g>
</g>
<g transform="translate(0.000000,766.000000) scale(0.100000,-0.100000)"
fill="url(#grad_15)" stroke="none">
<g>
<path d="M1853 5205 c-35 -8 -67 -17 -73 -20 -15 -9 -12 -186 5 -300 22 -143
58 -264 120 -392 59 -125 91 -175 176 -279 l58 -71 -30 -22 c-16 -12 -43 -40
-59 -62 l-29 -40 44 -40 c56 -51 228 -155 370 -224 235 -113 519 -201 775
-242 143 -22 556 -25 690 -5 144 22 309 62 443 107 l128 43 29 -40 c89 -122
111 -367 60 -675 -22 -134 -81 -376 -129 -524 -17 -53 -31 -101 -31 -107 0 -5
43 -18 95 -27 141 -26 351 -17 460 18 171 56 306 170 389 330 35 67 36 71 36
185 -1 439 -163 812 -448 1033 l-33 25 62 39 c34 21 76 51 95 67 32 28 33 31
19 57 -7 15 -32 44 -55 65 -46 41 -47 36 25 121 115 137 207 320 255 511 28
110 48 234 37 234 -3 0 -41 -25 -83 -55 -239 -172 -541 -275 -804 -275 l-56 0
-23 -56 c-69 -164 -231 -287 -460 -348 -246 -66 -556 -57 -779 22 -376 133
-514 440 -358 794 7 14 -11 23 -121 57 -272 85 -416 111 -603 110 -74 0 -163
-7 -197 -14z"/>
</g>
</g>
<g transform="translate(0.000000,766.000000) scale(0.100000,-0.100000)"
fill="url(#grad_16)" stroke="none">
<g>
<path d="M5064 3989 c-10 -11 -51 -41 -91 -66 l-74 -47 33 -25 c18 -14 58 -49
89 -79 l57 -53 16 43 c25 60 30 128 16 187 -14 61 -21 67 -46 40z"/>
</g>
</g>
<g transform="translate(0.000000,766.000000) scale(0.100000,-0.100000)"
fill="url(#grad_17)" stroke="none">
<g>
<path d="M1890 3405 c-28 -60 -54 -115 -58 -121 -80 -120 -106 -163 -142 -234
-49 -97 -110 -254 -165 -420 -45 -138 -209 -461 -257 -507 -18 -18 -50 -39
-72 -48 -34 -14 -45 -15 -90 -3 -29 7 -102 13 -171 12 -103 0 -131 -4 -200
-28 -94 -32 -155 -69 -216 -131 -24 -25 -49 -45 -55 -45 -17 0 -80 -125 -101
-200 -15 -55 -18 -100 -16 -285 1 -238 13 -325 59 -439 30 -75 24 -40 -12 74
-36 114 -45 328 -20 444 36 162 146 315 269 374 156 76 405 69 575 -15 282
-141 497 -464 531 -798 41 -401 -183 -708 -519 -708 -141 0 -245 25 -359 89
-52 29 -68 24 -20 -6 43 -26 182 -80 207 -80 10 0 52 -9 93 -19 214 -55 493
-26 824 84 135 45 356 135 459 187 l59 30 -57 31 c-158 88 -333 252 -458 428
-124 173 -236 417 -293 635 -50 189 -69 515 -42 708 l12 91 6 -210 c4 -122 14
-247 23 -298 9 -48 18 -103 21 -121 7 -57 54 -185 103 -281 204 -396 585 -616
1219 -702 190 -26 851 -26 1043 0 718 97 1129 377 1296 884 14 43 32 92 39
109 33 72 49 222 49 473 l1 244 17 -74 c24 -103 40 -306 33 -414 -8 -116 -23
-221 -34 -243 -6 -9 -20 -62 -32 -117 -103 -470 -413 -921 -766 -1115 -24 -13
-43 -27 -43 -30 0 -9 266 -127 390 -173 342 -127 641 -178 850 -143 191 32
216 38 297 70 85 35 208 114 258 166 42 44 21 36 -36 -13 -56 -49 -160 -113
-234 -144 -63 -27 -189 -53 -252 -53 -131 1 -263 53 -358 141 -72 68 -114 136
-152 244 -25 74 -27 91 -27 235 0 130 4 169 23 240 76 283 277 538 520 660 75
38 134 49 286 57 185 8 285 -26 395 -138 63 -64 121 -170 145 -264 34 -134 28
-329 -14 -465 -10 -33 -15 -60 -11 -60 10 0 36 96 50 180 15 99 12 422 -5 503
-8 38 -31 103 -51 145 -128 266 -473 364 -808 230 l-86 -35 -6 36 c-19 113
-42 180 -108 316 -67 136 -80 156 -141 213 -37 35 -78 68 -91 74 -18 8 -24 19
-24 42 0 28 -57 326 -63 333 -2 1 -1 -64 1 -146 4 -133 2 -152 -16 -194 -75
-170 -227 -305 -407 -364 -109 -35 -319 -44 -460 -18 -56 10 -95 22 -95 28 0
7 16 62 36 122 41 130 110 408 120 483 l7 52 -55 -25 c-125 -57 -336 -91 -498
-80 -306 20 -561 101 -1142 359 -499 221 -643 271 -833 285 l-94 6 -51 -110z"/>
</g>
</g>
<g transform="translate(0.000000,766.000000) scale(0.100000,-0.100000)"
fill="url(#grad_18)" stroke="none">
<g>
<path d="M755 1888 c-178 -33 -333 -202 -381 -414 -23 -105 -15 -327 16 -434
27 -94 94 -238 150 -321 55 -81 187 -213 265 -264 229 -150 505 -172 689 -54
266 168 338 585 166 955 -125 270 -360 481 -588 529 -79 16 -236 18 -317 3z
m287 -322 c295 -104 485 -497 377 -781 -31 -82 -122 -174 -199 -201 -256 -88
-571 131 -656 456 -25 95 -22 229 6 310 39 114 116 195 215 226 68 21 181 17
257 -10z"/>
</g>
</g>
<g transform="translate(0.000000,766.000000) scale(0.100000,-0.100000)"
fill="url(#grad_19)" stroke="none">
<g>
<path d="M6090 1890 c-14 -4 -41 -8 -60 -9 -44 -1 -165 -58 -245 -116 -76 -55
-189 -171 -244 -254 -60 -89 -125 -230 -152 -331 -19 -71 -23 -110 -23 -240 0
-144 2 -161 27 -235 38 -108 80 -176 152 -244 95 -88 227 -140 358 -141 63 0
189 26 252 53 199 84 390 267 494 475 102 204 135 452 86 647 -24 94 -82 200
-145 264 -69 70 -130 107 -212 126 -67 16 -245 19 -288 5z m254 -320 c173 -65
260 -272 211 -505 -50 -240 -255 -457 -470 -496 -262 -48 -459 176 -415 474
36 250 207 464 425 533 64 20 186 17 249 -6z"/>
</g>
</g>
<g transform="translate(0.000000,766.000000) scale(0.100000,-0.100000)"
fill="url(#grad_20)" stroke="none">
<g>
<path d="M2011 3979 c-6 -18 -11 -64 -11 -103 0 -84 28 -153 83 -208 92 -93
438 -252 720 -333 265 -76 485 -107 762 -107 266 -1 444 22 692 88 l133 36 27
-33 c42 -49 75 -97 120 -172 l40 -68 7 47 c23 171 -15 398 -84 492 l-29 40
-128 -43 c-134 -45 -299 -85 -443 -107 -134 -20 -547 -17 -690 5 -256 41 -540
129 -775 242 -140 68 -320 176 -365 220 -20 19 -39 35 -42 35 -3 0 -11 -14
-17 -31z"/>
</g>
</g>
<g transform="translate(0.000000,766.000000) scale(0.100000,-0.100000)"
fill="url(#grad_21)" stroke="none">
<g>
<path d="M5101 3978 c10 -29 18 -76 19 -104 0 -48 2 -51 41 -73 71 -40 187
-139 245 -208 81 -99 137 -199 201 -363 155 -400 189 -483 239 -581 167 -327
349 -423 590 -310 35 16 64 27 67 25 13 -13 41 145 45 256 11 318 -112 619
-358 874 -181 187 -363 305 -637 412 -110 43 -332 105 -424 119 l-47 7 19 -54z"/>
</g>
</g>
<g transform="translate(0.000000,766.000000) scale(0.100000,-0.100000)"
fill="url(#grad_22)" stroke="none">
<g>
<path d="M1853 5205 c-35 -8 -67 -17 -73 -20 -15 -9 -12 -186 5 -300 8 -55 27
-140 41 -190 30 -105 114 -286 174 -375 234 -345 623 -572 1135 -661 150 -27
548 -38 707 -20 771 88 1303 487 1458 1097 28 110 48 234 37 234 -3 0 -41 -25
-83 -55 -239 -172 -541 -275 -804 -275 l-56 0 -23 -56 c-69 -164 -231 -287
-460 -348 -246 -66 -556 -57 -779 22 -376 133 -514 440 -358 794 7 14 -11 23
-121 57 -272 85 -416 111 -603 110 -74 0 -163 -7 -197 -14z"/>
</g>
</g>
<g transform="translate(0.000000,766.000000) scale(0.100000,-0.100000)"
fill="url(#grad_23)" stroke="none">
<g>
<path d="M3463 5340 c-109 -23 -174 -73 -176 -135 -1 -30 5 -43 31 -66 46 -41
101 -54 237 -54 137 0 202 14 245 55 65 61 20 151 -93 185 -65 19 -188 27
-244 15z"/>
</g>
</g>
<g transform="translate(0.000000,766.000000) scale(0.100000,-0.100000)"
fill="url(#grad_24)" stroke="none">
<g>
<path d="M3244 5226 c-40 -39 -44 -48 -44 -91 0 -41 5 -52 35 -80 42 -41 103
-62 217 -76 l88 -12 0 -120 c0 -145 -12 -172 -95 -212 -43 -22 -62 -26 -94
-20 -52 9 -98 40 -136 92 -33 46 -34 47 -55 33 -18 -11 -1 -45 49 -96 54 -54
87 -68 161 -68 72 0 133 25 168 68 l19 25 24 -25 c54 -58 149 -85 224 -64 78
22 189 139 153 161 -20 13 -22 12 -41 -20 -46 -79 -138 -123 -212 -101 -104
31 -125 70 -125 228 l0 120 58 6 c224 25 324 106 267 216 -14 27 -73 80 -89
80 -4 0 -2 -9 4 -19 32 -62 -9 -126 -97 -152 -61 -18 -272 -18 -331 -1 -65 20
-106 61 -105 106 1 20 7 43 13 51 10 12 10 15 0 15 -7 0 -32 -20 -56 -44z"/>
</g>
</g>
<g transform="translate(0.000000,766.000000) scale(0.100000,-0.100000)"
fill="url(#grad_25)" stroke="none">
<g>
<path d="M2697 5756 c-186 -51 -234 -305 -79 -423 183 -140 444 37 379 257
-39 131 -168 203 -300 166z m198 -91 c56 -57 46 -125 -18 -125 -57 0 -117 57
-117 112 0 34 18 48 62 48 29 0 45 -7 73 -35z"/>
</g>
</g>
<g transform="translate(0.000000,766.000000) scale(0.100000,-0.100000)"
fill="url(#grad_26)" stroke="none">
<g>
<path d="M4272 5752 c-201 -72 -217 -345 -27 -445 84 -44 215 -20 283 51 84
90 83 250 -4 336 -68 67 -164 89 -252 58z"/>
</g>
</g>
</svg>
