<?xml version="1.0" encoding="utf-8"?>
<!-- Generator: Adobe Illustrator 16.0.0, SVG Export Plug-In . SVG Version: 6.00 Build 0)  -->
<!DOCTYPE svg PUBLIC "-//W3C//DTD SVG 1.1//EN" "http://www.w3.org/Graphics/SVG/1.1/DTD/svg11.dtd">
<svg version="1.1" id="图层_1" xmlns="http://www.w3.org/2000/svg" xmlns:xlink="http://www.w3.org/1999/xlink" x="0px" y="0px"
	 width="600px" height="600px" viewBox="0 0 600 600" enable-background="new 0 0 600 600" xml:space="preserve">
<pattern  x="0.5" y="600.5" width="30" height="30" patternUnits="userSpaceOnUse" id="SVGID_1_" viewBox="0 -30 30 30" overflow="visible">
	<g>
		<polygon fill="none" points="0,0 30,0 30,-30 0,-30 		"/>
		<g>
			<polygon fill="none" points="0,0 30,0 30,-30 0,-30 			"/>
			<polygon fill="none" points="0,0 30,0 30,-30 0,-30 			"/>
			<polygon fill="#D3D3D3" points="0,0 15,0 15,-15 0,-15 			"/>
			<polygon fill="#D3D3D3" points="15,-15 30,-15 30,-30 15,-30 			"/>
		</g>
	</g>
</pattern>
<g id="图层_1_1_">
	<pattern  id="SVGID_2_" xlink:href="#SVGID_1_" patternTransform="matrix(0.75 0 0 -0.75 -1981.125 -14155.4629)">
	</pattern>
	<rect fill="url(#SVGID_2_)" width="600" height="599.25"/>
	<g id="layer-1">
		
			<linearGradient id="region-1-1_1_" gradientUnits="userSpaceOnUse" x1="1.936" y1="-200.3457" x2="2.1854" y2="-200.9728" gradientTransform="matrix(497.2252 0 0 -379.9166 -740.6785 -75912.3125)">
			<stop  offset="0" style="stop-color:#FA705B;stop-opacity:0.99"/>
			<stop  offset="1" style="stop-color:#F9725E"/>
		</linearGradient>
		<path id="region-1-1" fill="url(#region-1-1_1_)" d="M234.885,217.17c-4.41,1.395-8.602,5.513-11.805,11.655
			c-4.71,9.045-12.683,30.3-16.77,44.715c-0.735,2.498-1.658,4.485-3.863,8.092c-5.55,9.233-10.44,18.345-13.492,25.223
			c-0.585,1.319-2.28,3.967-3.788,5.879c-3.638,4.636-7.612,10.666-8.895,13.493c-1.433,3.09-1.583,5.955-1.103,18.128
			c0.772,18.899,2.093,30.149,4.23,36.584c1.583,4.711,2.647,6.586,4.928,8.716c3.6,3.382,8.752,5.077,20.482,6.728
			c22.65,3.202,44.385,5.22,64.973,6.104c12.352,0.518,56.445-0.075,68.685-0.952c25.484-1.801,56.625-5.475,62.325-7.357
			c8.422-2.76,11.287-5.662,13.972-14.16c2.093-6.728,3.458-20.662,3.75-38.609l0.188-12.684l-0.952-2.205
			c-1.215-2.685-5.513-9.232-9.232-13.973c-1.508-1.949-3.202-4.56-3.713-5.813c-2.317-5.512-7.387-15-12.87-24.194
			c-3.127-5.183-3.6-6.218-5.077-11.212c-4.853-16.215-12.098-35.115-16.62-43.425c-3.053-5.625-7.095-9.412-11.438-10.77
			c-2.354-0.735-3.232-0.735-62.032-0.697C238.71,216.435,237.09,216.465,234.885,217.17z"/>
		
			<linearGradient id="region-1-2_1_" gradientUnits="userSpaceOnUse" x1="4.6479" y1="-207.6768" x2="4.8226" y2="-208.3385" gradientTransform="matrix(57.005 0 0 -35.2411 -81.1659 -7059.9727)">
			<stop  offset="0" style="stop-color:#FF705C;stop-opacity:0.992"/>
			<stop  offset="1" style="stop-color:#FF705C;stop-opacity:0.992"/>
		</linearGradient>
		<path id="region-1-2" fill="url(#region-1-2_1_)" d="M187.522,260.558c-5.407,0.623-8.055,1.987-10.26,5.22
			c-1.695,2.498-2.798,5.738-2.798,8.348c0,3.57-0.518,3.42,13.35,3.458c8.933,0.038,12.022-0.075,12.652-0.442
			c1.32-0.735,1.95-3.6,1.95-8.678c0-5.04-0.405-7.02-1.545-7.612C199.845,260.295,191.272,260.115,187.522,260.558z"/>
		
			<linearGradient id="region-1-3_1_" gradientUnits="userSpaceOnUse" x1="0.709" y1="-207.7544" x2="0.864" y2="-208.4176" gradientTransform="matrix(57.3726 0 0 -34.775 358.1574 -6964.2617)">
			<stop  offset="0" style="stop-color:#FF715D;stop-opacity:0.995"/>
			<stop  offset="1" style="stop-color:#FF715D;stop-opacity:0.996"/>
		</linearGradient>
		<path id="region-1-3" fill="url(#region-1-3_1_)" d="M392.228,261.877c-1.725,0.33-2.093,1.62-2.093,7.462
			c0.038,5.513,0.442,7.98,1.545,8.865c0.48,0.405,3.016,0.518,12.833,0.518c11.475,0,12.247-0.038,12.982-0.698
			c0.952-0.885,1.027-2.94,0.188-5.775c-0.848-2.865-1.838-4.598-3.675-6.585c-2.025-2.167-4.268-3.165-8.235-3.638
			C402.78,261.623,393.952,261.547,392.228,261.877z"/>
		
			<linearGradient id="region-1-4_1_" gradientUnits="userSpaceOnUse" x1="4.3823" y1="-209.855" x2="4.4528" y2="-210.5242" gradientTransform="matrix(63.5302 0 0 -26.8782 -87.9424 -5370.5234)">
			<stop  offset="0" style="stop-color:#232F35;stop-opacity:0.992"/>
			<stop  offset="1" style="stop-color:#253137;stop-opacity:0.993"/>
		</linearGradient>
		<path id="region-1-4" fill="url(#region-1-4_1_)" d="M205.47,270.885c-1.763,0.368-3.015,1.8-3.713,4.23
			c-0.255,0.885-0.81,1.762-1.29,2.025c-0.622,0.367-3.712,0.48-12.682,0.442c-6.51,0-11.843,0.075-11.843,0.188
			c0,0.66,1.583,2.685,2.355,2.94c0.735,0.292,15.593,1.14,20.002,1.14c1.178,0,1.62,0.15,1.763,0.623
			c0.623,2.025,0.66,1.987,3.015-1.838c1.507-2.535,2.572-4.815,3.202-6.877c0.48-1.725,0.848-3.127,0.81-3.127
			C207.053,270.592,206.317,270.705,205.47,270.885z"/>
		
			<linearGradient id="region-1-5_1_" gradientUnits="userSpaceOnUse" x1="0.8911" y1="-211.5703" x2="0.8911" y2="-212.0605" gradientTransform="matrix(60.0001 0 0 -22.9753 348.6021 -4588.6479)">
			<stop  offset="0" style="stop-color:#243036;stop-opacity:0.992"/>
			<stop  offset="1" style="stop-color:#243036;stop-opacity:0.993"/>
		</linearGradient>
		<path id="region-1-5" fill="url(#region-1-5_1_)" d="M387.367,272.73c0,1.357,1.357,4.522,3.203,7.575
			c1.582,2.61,2.205,3.345,2.647,3.165c0.33-0.113,4.08-0.368,8.31-0.555c9.12-0.368,12.21-0.585,13.088-1.065
			c0.518-0.292,2.167-2.535,2.167-2.978c0-0.075-5.512-0.15-12.247-0.15c-13.718,0-13.237,0.112-13.897-2.647
			C390.053,273.87,387.367,271.072,387.367,272.73z"/>
		
			<linearGradient id="region-1-6_1_" gradientUnits="userSpaceOnUse" x1="3.3389" y1="-200.8706" x2="4.0225" y2="-201.267" gradientTransform="matrix(88.3228 0 0 -151.7783 -128.1194 -30104.2578)">
			<stop  offset="0" style="stop-color:#243037;stop-opacity:0.995"/>
			<stop  offset="1" style="stop-color:#253137;stop-opacity:0.999"/>
		</linearGradient>
		<path id="region-1-6" fill="url(#region-1-6_1_)" d="M175.425,365.348c-1.657,35.152-1.177,51.217,1.838,61.665
			c2.092,7.17,4.597,8.122,21.472,8.16c4.343,0,9.045-0.188,10.403-0.368c4.485-0.66,7.282-2.685,8.347-6.067
			c0.48-1.433,0.368-13.162-0.255-25.815l-0.217-4.852l-1.508-0.218c-20.625-2.835-22.282-3.165-27.39-5.587
			c-2.43-1.178-5.182-3.601-6.472-5.813c-2.393-4.08-4.448-12.982-5.183-22.133C176.092,359.25,175.688,359.617,175.425,365.348z"/>
		
			<linearGradient id="region-1-7_1_" gradientUnits="userSpaceOnUse" x1="1.2256" y1="-200.6982" x2="1.3964" y2="-201.2239" gradientTransform="matrix(88.3227 0 0 -139.3519 279.9035 -27603.1309)">
			<stop  offset="0" style="stop-color:#253137;stop-opacity:0.997"/>
			<stop  offset="1" style="stop-color:#253137"/>
		</linearGradient>
		<path id="region-1-7" fill="url(#region-1-7_1_)" d="M416.16,374.025c-0.255,1.582-0.885,4.268-1.396,5.992
			c-3.532,11.145-7.942,13.897-26.107,16.402c-5.04,0.66-9.6,1.252-10.109,1.252c-0.698,0-1.216,0.443-2.093,1.764l-1.178,1.725
			l-0.367,11.362c-0.697,20.04-0.585,21.548,1.508,23.978c2.76,3.165,5.145,3.57,19.597,3.383
			c10.665-0.15,11.513-0.188,13.388-0.953c2.978-1.177,4.305-2.685,5.37-5.992c1.912-6.067,2.685-12.502,3.015-25.373
			c0.218-9.007-0.479-35.002-0.952-35.924C416.678,371.377,416.385,372.487,416.16,374.025z"/>
	</g>
	<g id="layer-2">
		
			<linearGradient id="region-2-1_1_" gradientUnits="userSpaceOnUse" x1="2.126" y1="-202.5171" x2="2.126" y2="-203.0079" gradientTransform="matrix(357.225 0 0 -107.1706 -464.1052 -21475.9277)">
			<stop  offset="0" style="stop-color:#00232F;stop-opacity:0.815"/>
			<stop  offset="1" style="stop-color:#00232F;stop-opacity:0.815"/>
		</linearGradient>
		<path id="region-2-1" fill="url(#region-2-1_1_)" d="M231.652,228.127c-5.512,0.555-5.107,0.292-7.425,5.107
			c-9.413,19.928-16.658,39.712-16.658,45.555v1.695l57.653-0.217c31.695-0.15,71.077-0.255,87.547-0.255h29.933l-0.217-3.233
			c-0.188-3.458-0.585-4.71-5.625-18.127c-6.766-18.127-10.92-27.907-12.173-28.605c-1.253-0.66-6.585-1.103-17.393-1.507
			C334.425,228.053,235.732,227.723,231.652,228.127z"/>
		
			<linearGradient id="region-2-2_1_" gradientUnits="userSpaceOnUse" x1="9.4155" y1="-203.7739" x2="10.624" y2="-204.1525" gradientTransform="matrix(14.2517 0 0 -64.875 94.0988 -12928.4063)">
			<stop  offset="0" style="stop-color:#00242F;stop-opacity:0.822"/>
			<stop  offset="1" style="stop-color:#00242F;stop-opacity:0.822"/>
		</linearGradient>
		<path id="region-2-2" fill="url(#region-2-2_1_)" d="M229.11,284.018c-0.555,4.305,0.443,13.313,2.167,19.342
			c1.028,3.57,4.005,10.111,4.598,10.111c0.218,0-0.112-0.953-0.697-2.131c-3.383-6.689-5.333-15.922-5.663-26.73l-0.075-2.94
			L229.11,284.018z"/>
		
			<linearGradient id="region-2-3_1_" gradientUnits="userSpaceOnUse" x1="0.2769" y1="-203.7324" x2="1.1084" y2="-204.1926" gradientTransform="matrix(14.7213 0 0 -64.2846 349.968 -12808.7578)">
			<stop  offset="0" style="stop-color:#00242F;stop-opacity:0.822"/>
			<stop  offset="1" style="stop-color:#00242F;stop-opacity:0.822"/>
		</linearGradient>
		<path id="region-2-3" fill="url(#region-2-3_1_)" d="M361.155,288.353c-0.255,8.752-2.093,16.732-5.295,23.056
			c-0.698,1.357-1.178,2.572-1.103,2.646c0.255,0.256,0.885-0.66,2.205-3.345c3.052-6.143,4.635-13.275,4.927-22.17
			c0.15-3.9,0.075-5.955-0.149-5.955C361.515,282.585,361.298,284.857,361.155,288.353z"/>
		
			<linearGradient id="region-2-4_1_" gradientUnits="userSpaceOnUse" x1="4.3818" y1="-205.124" x2="4.6972" y2="-205.7019" gradientTransform="matrix(48.761 0 0 -46.3361 -8.4379 -9217.5264)">
			<stop  offset="0" style="stop-color:#FFA89B;stop-opacity:0.795"/>
			<stop  offset="1" style="stop-color:#FFA79B;stop-opacity:0.8"/>
		</linearGradient>
		<path id="region-2-4" fill="url(#region-2-4_1_)" d="M212.415,290.19c-1.103,3.127-3.382,7.755-4.71,9.488
			c-0.555,0.735-1.583,1.657-2.317,2.025l-1.32,0.659l0.923,0.405c0.517,0.217,3.825,1.47,7.357,2.835
			c3.532,1.365,7.725,3.015,9.262,3.712c2.43,1.104,3.09,1.253,4.485,1.065c0.922-0.149,1.762-0.405,1.875-0.622
			c0.15-0.188-2.723-5.221-6.323-11.175c-5.775-9.563-6.652-10.845-7.462-10.845S213.158,288.022,212.415,290.19z"/>
		
			<linearGradient id="region-2-5_1_" gradientUnits="userSpaceOnUse" x1="0.939" y1="-205.0923" x2="1.4347" y2="-205.5775" gradientTransform="matrix(49.239 0 0 -46.8436 313.806 -9315.7891)">
			<stop  offset="0" style="stop-color:#FFA89C;stop-opacity:0.784"/>
			<stop  offset="1" style="stop-color:#FFA79B;stop-opacity:0.806"/>
		</linearGradient>
		<path id="region-2-5" fill="url(#region-2-5_1_)" d="M375.495,289.748c-0.66,0.66-13.275,21.51-13.088,21.661
			c0.075,0.037,0.99,0.292,2.063,0.517c1.763,0.368,2.025,0.33,3.495-0.479c1.695-0.923,8.272-3.6,14.558-5.881
			c3.75-1.357,4.853-2.024,3.42-2.024c-1.875,0-5.295-5.22-7.612-11.513C377.22,289.087,376.635,288.615,375.495,289.748z"/>
		
			<linearGradient id="region-2-6_1_" gradientUnits="userSpaceOnUse" x1="2.4072" y1="-207.9102" x2="2.4072" y2="-208.4004" gradientTransform="matrix(160.3351 0 0 -30.2272 -110.6924 -5990.1255)">
			<stop  offset="0" style="stop-color:#FFA79B;stop-opacity:0.791"/>
			<stop  offset="1" style="stop-color:#FFA89B;stop-opacity:0.801"/>
		</linearGradient>
		<path id="region-2-6" fill="url(#region-2-6_1_)" d="M238.087,295.042c0,0.405-0.48,1.14-1.103,1.62
			c-1.32,1.14-1.32,1.395-0.217,7.792l0.81,4.777l1.252-0.037c0.697-0.037,5.917-0.256,11.58-0.48
			c5.662-0.217,22.432-0.404,37.245-0.404c14.783,0,26.917-0.113,26.917-0.293c0-0.15-1.064-1.695-2.354-3.42l-2.355-3.165
			l-2.865-0.255c-6.585-0.518-31.987-1.725-43.169-2.063c-12.315-0.33-14.415-0.585-19.485-2.243
			c-1.32-0.442-3.202-1.178-4.192-1.658C237.938,294.165,238.087,294.203,238.087,295.042z"/>
		
			<linearGradient id="region-2-7_1_" gradientUnits="userSpaceOnUse" x1="2.1738" y1="-202.7852" x2="2.1738" y2="-203.2748" gradientTransform="matrix(252.7411 0 0 -71.1254 -253.1926 -14108.957)">
			<stop  offset="0" style="stop-color:#002430;stop-opacity:0.805"/>
			<stop  offset="1" style="stop-color:#002430;stop-opacity:0.807"/>
		</linearGradient>
		<path id="region-2-7" fill="url(#region-2-7_1_)" d="M237.09,314.79c-2.025,1.027-2.835,2.76-2.978,6.614
			c-0.188,3.969,0.443,10.846,1.215,13.936c1.395,5.332,4.155,9.301,7.755,11.07c2.835,1.395,7.425,1.875,21.84,2.393
			c15.593,0.555,81.847,0.188,84.39-0.443c3.232-0.81,6.18-4.372,7.095-8.602c0.255-1.027,0.698-5.775,0.99-10.628l0.585-8.753
			l-0.848-1.694c-1.582-3.202-1.29-3.128-14.527-3.42c-16.545-0.405-72.953-1.065-90.015-1.065
			C240.217,314.205,238.118,314.311,237.09,314.79z"/>
		
			<linearGradient id="region-2-8_1_" gradientUnits="userSpaceOnUse" x1="3.0254" y1="-201.4551" x2="3.5418" y2="-201.9332" gradientTransform="matrix(99.8495 0 0 -140.717 -120.1597 -28058.9102)">
			<stop  offset="0" style="stop-color:#622A22;stop-opacity:0.475"/>
			<stop  offset="1" style="stop-color:#853B31;stop-opacity:0.612"/>
		</linearGradient>
		<path id="region-2-8" fill="url(#region-2-8_1_)" d="M205.103,283.83c-4.522,6.18-12.21,19.71-13.823,24.412
			c-0.66,1.988-1.215,4.523-1.432,6.84c-0.188,2.063-1.028,7.357-1.838,11.843c-1.657,9.3-1.657,9.525,1.103,11.985
			c3.09,2.797,7.613,4.484,18.09,6.689c10.035,2.131,26.362,5.003,28.387,5.003c0.66,0,0.075-0.735-3.015-3.862
			c-2.13-2.131-4.042-3.863-4.305-3.863c-0.255,0-0.555-0.367-0.623-0.847c-0.112-0.442-0.697-3.383-1.32-6.511
			c-1.395-6.765-2.61-11.879-3.938-16.327c-1.178-3.825-2.76-5.85-6.653-8.46c-4.23-2.797-17.572-9.045-19.342-9.045
			c-0.292,0-0.623-0.15-0.735-0.293c-0.218-0.367,5.145-9.637,8.933-15.442C207.563,281.408,207.893,280.005,205.103,283.83z"/>
		
			<linearGradient id="region-2-9_1_" gradientUnits="userSpaceOnUse" x1="1.4009" y1="-201.2915" x2="1.6145" y2="-201.8248" gradientTransform="matrix(100.1618 0 0 -147.4421 221.746 -29402.3965)">
			<stop  offset="0" style="stop-color:#6F3229;stop-opacity:0.517"/>
			<stop  offset="1" style="stop-color:#8A3D32;stop-opacity:0.644"/>
		</linearGradient>
		<path id="region-2-9" fill="url(#region-2-9_1_)" d="M382.59,280.853c0,0.15,0.885,1.62,1.95,3.27
			c1.987,3.052,6.473,10.808,9.412,16.177c1.396,2.573,1.471,2.865,0.848,2.865c-1.987,0-14.782,5.851-19.38,8.864
			c-3.938,2.573-5.737,4.523-6.728,7.358c-1.14,3.271-3.09,11.287-4.522,18.712c-0.697,3.42-1.433,6.248-1.62,6.248
			c-0.33,0-1.47,1.178-6.585,6.915c-0.81,0.847-1.357,1.657-1.252,1.725c0.518,0.518,31.072-5.22,37.215-6.989
			c6.247-1.801,11.175-5.003,11.842-7.688c0.188-0.698-0.255-4.006-1.252-9.563c-0.848-4.673-1.583-9.818-1.695-11.438
			c-0.075-1.621-0.442-4.118-0.81-5.514c-0.99-3.938-8.272-17.947-13.793-26.512C384.285,282.322,382.59,280.23,382.59,280.853z"/>
		
			<linearGradient id="region-2-10_1_" gradientUnits="userSpaceOnUse" x1="2.0889" y1="-206.4795" x2="2.0891" y2="-207.0048" gradientTransform="matrix(489.7704 0 0 -29.3933 -726.5101 -5727.4619)">
			<stop  offset="0" style="stop-color:#001A28;stop-opacity:0.805"/>
			<stop  offset="1" style="stop-color:#0C1E22;stop-opacity:0.78"/>
		</linearGradient>
		<path id="region-2-10" fill="url(#region-2-10_1_)" d="M413.7,343.433c-4.74,3.675-11.985,6.69-19.522,8.235
			c-13.275,2.685-38.865,3.532-96.705,3.202c-55.193-0.33-67.988-0.81-83.835-3.015c-7.688-1.065-18.713-3.128-23.715-4.373
			c-2.902-0.734-11.542-3.42-13.125-4.08c-0.255-0.112-0.48-0.074-0.48,0.113c0,0.33,6.84,2.76,11.58,4.117
			c10.335,2.977,24.893,5.332,39.893,6.435c31.92,2.393,97.44,2.647,144.135,0.585c17.243-0.772,26.88-2.535,35.04-6.436
			c4.268-1.986,10.035-6.029,9.412-6.584C416.31,341.558,415.095,342.367,413.7,343.433z"/>
		
			<linearGradient id="region-2-11_1_" gradientUnits="userSpaceOnUse" x1="2.2046" y1="-206.5708" x2="2.3039" y2="-208.9135" gradientTransform="matrix(334.1717 0 0 -28.0705 -468.6026 -5451.0103)">
			<stop  offset="0" style="stop-color:#77342B;stop-opacity:0.548"/>
			<stop  offset="1" style="stop-color:#914034;stop-opacity:0.677"/>
		</linearGradient>
		<path id="region-2-11" fill="url(#region-2-11_1_)" d="M188.962,348.473c4.23,3.383,13.973,7.612,22.688,9.817
			c11.88,3.015,20.52,3.638,40.778,3.052c23.752-0.734,78.615-3.861,97.627-5.587c3.232-0.292,2.94-0.292-2.572-0.149
			c-18.645,0.479-56.775,0.584-74.828,0.188c-37.395-0.811-52.725-1.801-68.205-4.485c-4.155-0.735-14.19-2.903-15.81-3.458
			C188.115,347.662,188.19,347.85,188.962,348.473z"/>
		
			<linearGradient id="region-2-12_1_" gradientUnits="userSpaceOnUse" x1="1.3076" y1="-204.3267" x2="1.4099" y2="-205.0139" gradientTransform="matrix(77.9354 0 0 -38.1782 281.9673 -7441.4351)">
			<stop  offset="0" style="stop-color:#883D31;stop-opacity:0.634"/>
			<stop  offset="1" style="stop-color:#904134;stop-opacity:0.68"/>
		</linearGradient>
		<path id="region-2-12" fill="url(#region-2-12_1_)" d="M386.197,362.67l-18.314,2.025v7.32c0,6.727,0.037,7.281,0.66,7.281
			c0.885,0,17.063-2.092,21.585-2.797c2.024-0.293,5.107-0.885,6.877-1.29c2.835-0.66,3.345-0.923,4.522-2.243
			c1.545-1.694,2.46-3.637,3.713-7.979c1.103-3.862,1.14-4.447,0.075-4.409C404.835,360.607,396.232,361.529,386.197,362.67z"/>
		
			<linearGradient id="region-2-13_1_" gradientUnits="userSpaceOnUse" x1="3.6646" y1="-204.2153" x2="3.9605" y2="-204.9701" gradientTransform="matrix(78.2818 0 0 -38.325 -86.3613 -7466.3081)">
			<stop  offset="0" style="stop-color:#763A2C;stop-opacity:0.548"/>
			<stop  offset="1" style="stop-color:#863930;stop-opacity:0.624"/>
		</linearGradient>
		<path id="region-2-13" fill="url(#region-2-13_1_)" d="M187.928,365.018c1.762,7.612,3.712,10.808,7.282,11.88
			c2.46,0.735,11.07,2.13,20.257,3.308c4.042,0.518,8.055,0.99,8.933,1.141l1.545,0.188v-7.358c0-4.079-0.075-7.388-0.188-7.388
			c-0.112,0-8.422-0.922-18.495-2.024c-10.035-1.103-18.645-2.025-19.08-2.025C187.417,362.737,187.417,362.775,187.928,365.018z"/>
		
			<linearGradient id="region-2-14_1_" gradientUnits="userSpaceOnUse" x1="2.1934" y1="-203.1577" x2="2.2188" y2="-203.9119" gradientTransform="matrix(220.8844 0 0 -48.975 -189.3824 -9583.6982)">
			<stop  offset="0" style="stop-color:#00232F;stop-opacity:0.817"/>
			<stop  offset="1" style="stop-color:#00232F;stop-opacity:0.818"/>
		</linearGradient>
		<path id="region-2-14" fill="url(#region-2-14_1_)" d="M243.195,367.117c-0.555,0.405-1.103,1.178-1.215,1.658
			c-0.112,0.518,0,3.232,0.33,6.066c0.81,7.906,1.875,11.656,3.495,12.541c2.797,1.508,31.545,2.939,59.198,2.939
			c17.647,0,27.832-0.404,34.192-1.32c4.635-0.697,5.737-1.102,7.245-2.834c1.987-2.281,3.787-9.338,3.787-14.963
			c0-2.902-0.66-3.676-3.458-4.08c-1.177-0.15-24.75-0.405-52.357-0.555l-50.265-0.256L243.195,367.117z"/>
		
			<linearGradient id="region-2-15_1_" gradientUnits="userSpaceOnUse" x1="2.0923" y1="-204.8491" x2="2.0935" y2="-205.5004" gradientTransform="matrix(472.855 0 0 -31.309 -692.9216 -6035.7632)">
			<stop  offset="0" style="stop-color:#00232F;stop-opacity:0.819"/>
			<stop  offset="1" style="stop-color:#00242F;stop-opacity:0.823"/>
		</linearGradient>
		<path id="region-2-15" fill="url(#region-2-15_1_)" d="M405.022,379.32c-36.952,9.232-77.258,13.68-118.035,13.088
			c-34.23-0.518-65.452-4.08-99.172-11.326c-6.69-1.432-7.755-1.619-7.387-1.252c0.33,0.33,14.085,3.345,22.357,4.928
			c28.462,5.369,54.637,7.979,84.202,8.385c41.55,0.585,79.643-3.676,117.697-13.125c3.308-0.811,6.36-1.658,6.766-1.838l0.734-0.33
			l-0.734,0.038C411.053,377.888,408.143,378.547,405.022,379.32z"/>
	</g>
	<g id="layer-3">
		
			<linearGradient id="region-3-1_1_" gradientUnits="userSpaceOnUse" x1="2.1284" y1="-202.771" x2="2.1311" y2="-203.2872" gradientTransform="matrix(340.5 0 0 -98.1227 -430.75 -19666.5605)">
			<stop  offset="0" style="stop-color:#628997;stop-opacity:0.459"/>
			<stop  offset="1" style="stop-color:#648C9B;stop-opacity:0.441"/>
		</linearGradient>
		<path id="region-3-1" fill="url(#region-3-1_1_)" d="M238.965,230.408c-5.002,0.292-7.942,0.772-9.817,1.545
			c-1.14,0.48-1.62,1.252-5.145,8.197c-7.058,13.973-12.39,26.917-12.39,30.113c0,2.092,1.028,4.192,2.835,5.662
			c2.94,2.43-3.42,2.243,84.391,2.243h79.717v-1.95c0-2.835-0.772-5.407-4.192-14.047c-6.689-16.808-11.692-27.69-13.162-28.643
			c-4.118-2.535-28.275-3.57-83.948-3.458C258.638,230.07,241.433,230.22,238.965,230.408z"/>
		
			<linearGradient id="region-3-2_1_" gradientUnits="userSpaceOnUse" x1="1.1001" y1="-201.7437" x2="1.8501" y2="-202.0167" gradientTransform="matrix(77.3311 0 0 -129.7427 273.0737 -25871.3789)">
			<stop  offset="0" style="stop-color:#01313E;stop-opacity:0.77"/>
			<stop  offset="1" style="stop-color:#002029;stop-opacity:0.808"/>
		</linearGradient>
		<path id="region-3-2" fill="url(#region-3-2_1_)" d="M382.59,280.853c0,0.15,0.885,1.62,1.95,3.27
			c1.987,3.052,6.473,10.808,9.412,16.177c1.396,2.573,1.471,2.865,0.848,2.865c-1.987,0-14.782,5.851-19.38,8.864
			c-4.229,2.761-5.775,4.523-6.915,7.943c-1.508,4.635-5.407,21.697-5.407,23.715c0,0.848,1.95,0.885,7.905,0.075
			c7.5-0.952,29.234-5.183,29.819-5.775c0.112-0.112,0.188-4.965,0.188-10.771c0.038-14.489-0.188-15.479-5.587-25.814
			c-3.533-6.765-6.285-11.617-9.195-16.103C384.285,282.322,382.59,280.23,382.59,280.853z"/>
		
			<linearGradient id="region-3-3_1_" gradientUnits="userSpaceOnUse" x1="3.7256" y1="-201.6372" x2="3.7256" y2="-202.1274" gradientTransform="matrix(78 0 0 -125.192 -81.9375 -24961.7363)">
			<stop  offset="0" style="stop-color:#022F3C;stop-opacity:0.781"/>
			<stop  offset="1" style="stop-color:#001D25;stop-opacity:0.81"/>
		</linearGradient>
		<path id="region-3-3" fill="url(#region-3-3_1_)" d="M205.103,283.83c-4.448,6.067-12.21,19.71-13.755,24.27
			c-1.545,4.41-1.8,7.021-1.8,18.277v10.148l1.028,0.217c16.875,3.6,27.615,5.475,34.012,5.992l3.203,0.256l-0.218-1.253
			c-1.395-7.575-3.637-17.354-5.182-22.537c-1.178-3.825-2.76-5.851-6.653-8.46c-4.23-2.798-17.572-9.045-19.342-9.045
			c-0.292,0-0.623-0.15-0.735-0.293c-0.218-0.367,5.145-9.637,8.932-15.442C207.563,281.408,207.893,280.005,205.103,283.83z"/>
		
			<linearGradient id="region-3-4_1_" gradientUnits="userSpaceOnUse" x1="2.1528" y1="-202.8574" x2="2.2642" y2="-203.8199" gradientTransform="matrix(249.2066 0 0 -68.95 -246.4687 -13674.2832)">
			<stop  offset="0" style="stop-color:#FFFFFF;stop-opacity:0.806"/>
			<stop  offset="1" style="stop-color:#FFFFFF;stop-opacity:0.816"/>
		</linearGradient>
		<path id="region-3-4" fill="url(#region-3-4_1_)" d="M237.42,315.308c-2.28,1.396-2.647,2.497-2.647,8.272
			c0,15.404,4.343,22.47,14.527,23.715c8.753,1.027,48.135,1.395,85.493,0.772l14.159-0.218l1.763-1.027
			c4.117-2.43,5.146-5.475,5.918-17.505c0.622-9.638,0.479-10.665-1.695-12.247c-1.065-0.735-1.695-0.811-12.758-1.065
			c-11.692-0.33-89.865-1.433-98.767-1.433C239.295,314.572,238.455,314.686,237.42,315.308z"/>
		
			<linearGradient id="region-3-5_1_" gradientUnits="userSpaceOnUse" x1="0.0947" y1="-206.0254" x2="0.4768" y2="-206.6025" gradientTransform="matrix(34.725 0 0 -28.1383 385.513 -5436.9248)">
			<stop  offset="0" style="stop-color:#EFFFFF;stop-opacity:0.841"/>
			<stop  offset="1" style="stop-color:#F4FFFF;stop-opacity:0.831"/>
		</linearGradient>
		<path id="region-3-5" fill="url(#region-3-5_1_)" d="M394.508,362.115l-6.69,0.734l-0.218,1.695
			c-0.112,0.923-0.33,3.676-0.442,6.143l-0.255,4.447l3.638-0.518c6.548-0.885,9.375-2.092,10.665-4.56
			c0.555-1.065,2.723-7.83,2.723-8.46C403.92,361.154,402.3,361.23,394.508,362.115z"/>
		
			<linearGradient id="region-3-6_1_" gradientUnits="userSpaceOnUse" x1="6.1538" y1="-205.9697" x2="6.1538" y2="-206.46" gradientTransform="matrix(35.0368 0 0 -28.2412 -17.4797 -5453.6768)">
			<stop  offset="0" style="stop-color:#F0FFFF;stop-opacity:0.838"/>
			<stop  offset="1" style="stop-color:#F2FFFF;stop-opacity:0.834"/>
		</linearGradient>
		<path id="region-3-6" fill="url(#region-3-6_1_)" d="M189.547,363.255c0,0.075,0.585,2.024,1.29,4.306
			c1.545,4.852,2.535,6.359,5.107,7.537c1.8,0.81,10.298,2.317,10.74,1.875c0.112-0.113,0-2.865-0.255-6.105
			c-0.33-4.268-0.585-5.917-0.923-5.917c-0.517,0-12.502-1.358-14.557-1.657C190.17,363.18,189.547,363.18,189.547,363.255z"/>
		
			<linearGradient id="region-3-7_1_" gradientUnits="userSpaceOnUse" x1="2.2036" y1="-203.4878" x2="2.2037" y2="-203.9789" gradientTransform="matrix(216.5381 0 0 -44.8803 -181.579 -8765.8115)">
			<stop  offset="0" style="stop-color:#597885;stop-opacity:0.566"/>
			<stop  offset="1" style="stop-color:#597885;stop-opacity:0.568"/>
		</linearGradient>
		<path id="region-3-7" fill="url(#region-3-7_1_)" d="M243.563,367.891c-1.065,1.027-1.103,1.215-0.885,3.201
			c0.99,8.754,2.167,13.793,3.457,14.963c1.658,1.508,18.458,2.43,49.125,2.686c29.01,0.255,43.793-0.443,48.098-2.242
			c2.76-1.141,4.71-6.105,5.258-13.531c0.217-2.572,0.149-3.201-0.33-3.674c-0.811-0.773-5.258-0.953-30.96-1.215
			c-27.173-0.256-64.53-0.848-69.053-1.104l-3.6-0.188L243.563,367.891z"/>
	</g>
	<g id="layer-4">
		
			<linearGradient id="region-4-1_1_" gradientUnits="userSpaceOnUse" x1="2.5093" y1="-203.0522" x2="2.9462" y2="-203.6135" gradientTransform="matrix(128.0475 0 0 -88.8827 -99.0864 -17817.1133)">
			<stop  offset="0" style="stop-color:#9DA9AE;stop-opacity:0.632"/>
			<stop  offset="1" style="stop-color:#A2ADB2;stop-opacity:0.599"/>
		</linearGradient>
		<path id="region-4-1" fill="url(#region-4-1_1_)" d="M256.65,233.197c-9.742,0.33-18.09,1.395-21.03,2.685
			c-1.875,0.81-2.647,2.025-5.445,8.272c-3.675,8.31-12.615,31.62-12.247,31.988c0.112,0.112,5.88,0.292,12.832,0.405
			c13.05,0.255,22.943-0.15,26.108-1.065l1.62-0.48l3.713-7.132c2.063-3.938,7.057-13.313,11.107-20.775l7.387-13.605l-1.725-0.255
			C277.32,233.018,262.868,232.98,256.65,233.197z"/>
		
			<linearGradient id="region-4-2_1_" gradientUnits="userSpaceOnUse" x1="3.7539" y1="-202.5034" x2="3.8181" y2="-203.0296" gradientTransform="matrix(74.4 0 0 -81.3392 -75.1357 -16171.123)">
			<stop  offset="0" style="stop-color:#FFFFFF;stop-opacity:0.899"/>
			<stop  offset="1" style="stop-color:#FFFFFF;stop-opacity:0.893"/>
		</linearGradient>
		<path id="region-4-2" fill="url(#region-4-2_1_)" d="M193.995,303.758c-0.585,0.99-1.658,3.383-2.317,5.295l-1.178,3.494
			l-0.15,11.656l-0.15,11.617l2.722,0.622c9.705,2.205,24.855,4.89,31.29,5.513c1.913,0.188,2.46,0.15,2.46-0.255
			c0-0.698-2.355-11.985-3.27-15.735c-1.62-6.51-2.685-9.525-3.967-11.032c-2.573-2.978-9.158-6.915-17.91-10.665
			C195.322,301.59,195.36,301.59,193.995,303.758z"/>
		
			<linearGradient id="region-4-3_1_" gradientUnits="userSpaceOnUse" x1="1.0835" y1="-202.5942" x2="1.6951" y2="-202.9276" gradientTransform="matrix(74.4514 0 0 -81.7194 279.2778 -16244.1348)">
			<stop  offset="0" style="stop-color:#FFFFFF;stop-opacity:0.895"/>
			<stop  offset="1" style="stop-color:#FFFFFF;stop-opacity:0.894"/>
		</linearGradient>
		<path id="region-4-3" fill="url(#region-4-3_1_)" d="M391.785,304.68c-4.192,1.695-13.492,6.322-16.065,8.055
			c-4.005,2.648-5.475,4.41-6.547,7.83c-1.62,5.003-5.513,22.613-5.107,23.018c0.555,0.586,16.77-1.986,28.642-4.484l7.358-1.582
			l0.292-4.373c0.442-6.84,0.037-17.176-0.848-20.625c-0.772-3.016-3.015-8.197-3.787-8.678
			C395.055,303.428,394.8,303.465,391.785,304.68z"/>
		
			<linearGradient id="region-4-4_1_" gradientUnits="userSpaceOnUse" x1="6.8169" y1="-204.2246" x2="7.5439" y2="-204.6567" gradientTransform="matrix(19.4078 0 0 -48.9223 105.7297 -9670.9805)">
			<stop  offset="0" style="stop-color:#000A11;stop-opacity:0.807"/>
			<stop  offset="1" style="stop-color:#000B12;stop-opacity:0.812"/>
		</linearGradient>
		<path id="region-4-4" fill="url(#region-4-4_1_)" d="M241.5,318.652c-0.623,0.188-1.583,0.848-2.092,1.471
			c-0.885,1.027-0.953,1.357-0.953,4.852c0,4.891,0.518,8.018,1.8,10.771c1.508,3.232,4.08,5.55,7.245,6.548
			c0.735,0.217,0.697,0-0.772-11.806l-1.47-12.06l-1.29-0.075C243.27,318.322,242.167,318.465,241.5,318.652z"/>
		
			<linearGradient id="region-4-5_1_" gradientUnits="userSpaceOnUse" x1="5.5825" y1="-203.9976" x2="6.2654" y2="-204.439" gradientTransform="matrix(22.125 0 0 -51.525 126.4063 -10190.1455)">
			<stop  offset="0" style="stop-color:#000A11;stop-opacity:0.808"/>
			<stop  offset="1" style="stop-color:#000A12;stop-opacity:0.81"/>
		</linearGradient>
		<path id="region-4-5" fill="url(#region-4-5_1_)" d="M250.77,319.537c0.112,0.586,0.697,6.143,1.32,12.315
			c0.623,6.181,1.14,11.25,1.178,11.25c0.038,0.038,1.913,0.149,4.117,0.292l4.043,0.256l-0.66-12.428
			c-0.405-6.84-0.735-12.465-0.772-12.465c0-0.037-2.13-0.15-4.74-0.218l-4.672-0.149L250.77,319.537z"/>
		
			<linearGradient id="region-4-6_1_" gradientUnits="userSpaceOnUse" x1="5.7002" y1="-203.9712" x2="6.4578" y2="-204.4125" gradientTransform="matrix(17.85 0 0 -51.975 162.9661 -10279.4795)">
			<stop  offset="0" style="stop-color:#000A11;stop-opacity:0.808"/>
			<stop  offset="1" style="stop-color:#000A12;stop-opacity:0.811"/>
		</linearGradient>
		<path id="region-4-6" fill="url(#region-4-6_1_)" d="M265.515,321.998c0.112,1.875,0.33,7.424,0.48,12.352
			c0.188,4.891,0.367,8.971,0.442,9.045c0.075,0.076,1.837,0.256,3.938,0.405l3.75,0.292v-3.637c0-2.025-0.112-7.725-0.255-12.758
			l-0.218-9.082h-4.155h-4.118L265.515,321.998z"/>
		
			<linearGradient id="region-4-7_1_" gradientUnits="userSpaceOnUse" x1="3.8472" y1="-203.9717" x2="4.3863" y2="-204.4504" gradientTransform="matrix(25.65 0 0 -51.975 178.7214 -10279.6982)">
			<stop  offset="0" style="stop-color:#000A11;stop-opacity:0.808"/>
			<stop  offset="1" style="stop-color:#000A12;stop-opacity:0.811"/>
		</linearGradient>
		<path id="region-4-7" fill="url(#region-4-7_1_)" d="M279.045,320.678c0.113,1.215,0.292,5.88,0.405,10.439
			c0.112,4.561,0.292,9.301,0.405,10.553l0.217,2.317h5.663h5.663l-0.188-1.027c-0.112-0.555-0.518-4.305-0.922-8.348
			c-1.065-10.515-0.698-9.375-3.968-11.729c-1.545-1.104-3.42-2.43-4.117-2.94c-0.698-0.518-1.763-1.027-2.355-1.177l-1.028-0.256
			L279.045,320.678z"/>
		
			<linearGradient id="region-4-8_1_" gradientUnits="userSpaceOnUse" x1="2.998" y1="-219.8281" x2="2.998" y2="-220.3184" gradientTransform="matrix(44.25 0 0 -11.25 162.9688 -2154.0859)">
			<stop  offset="0" style="stop-color:#FDFCFC;stop-opacity:0.755"/>
			<stop  offset="1" style="stop-color:#FFFFFE;stop-opacity:0.765"/>
		</linearGradient>
		<path id="region-4-8" fill="url(#region-4-8_1_)" d="M284.783,319.237c0,0.188,1.725,1.396,3.787,2.761l3.788,2.497h3.383h3.382
			l3.676-2.46c2.024-1.32,3.675-2.572,3.675-2.76c0-0.15-4.891-0.293-10.845-0.293C289.672,318.982,284.783,319.096,284.783,319.237
			z"/>
		
			<linearGradient id="region-4-9_1_" gradientUnits="userSpaceOnUse" x1="3.0947" y1="-204.0615" x2="3.6402" y2="-204.5394" gradientTransform="matrix(24.225 0 0 -50.25 225.2473 -9933.8438)">
			<stop  offset="0" style="stop-color:#000911;stop-opacity:0.807"/>
			<stop  offset="1" style="stop-color:#000B12;stop-opacity:0.811"/>
		</linearGradient>
		<path id="region-4-9" fill="url(#region-4-9_1_)" d="M306.405,322.147c-1.875,1.545-3.57,2.902-3.713,3.053
			c-0.292,0.292-2.093,15.63-2.093,17.76v1.027h5.476h5.444l0.256-3.968c0.112-2.167,0.33-7.688,0.442-12.314l0.255-8.348h-1.32
			C310.08,319.35,309.27,319.83,306.405,322.147z"/>
		
			<linearGradient id="region-4-10_1_" gradientUnits="userSpaceOnUse" x1="2.6724" y1="-204.0728" x2="3.2641" y2="-204.5488" gradientTransform="matrix(18.225 0 0 -50.25 267.9973 -9933.8438)">
			<stop  offset="0" style="stop-color:#000A11;stop-opacity:0.808"/>
			<stop  offset="1" style="stop-color:#000A12;stop-opacity:0.811"/>
		</linearGradient>
		<path id="region-4-10" fill="url(#region-4-10_1_)" d="M317.73,328.064c-0.113,4.815-0.293,10.373-0.405,12.315l-0.188,3.601
			h4.005h3.968l0.255-4.343c0.112-2.354,0.33-7.905,0.442-12.315l0.255-7.98h-4.043h-4.079L317.73,328.064z"/>
		
			<linearGradient id="region-4-11_1_" gradientUnits="userSpaceOnUse" x1="1.8936" y1="-204.0991" x2="2.3572" y2="-204.5936" gradientTransform="matrix(21.8285 0 0 -49.5 288.778 -9783.4688)">
			<stop  offset="0" style="stop-color:#000A11;stop-opacity:0.809"/>
			<stop  offset="1" style="stop-color:#000A12;stop-opacity:0.811"/>
		</linearGradient>
		<path id="region-4-11" fill="url(#region-4-11_1_)" d="M331.335,322.553c-0.112,1.582-0.367,6.105-0.585,10.035
			c-0.188,3.938-0.442,8.122-0.555,9.262l-0.218,2.131h4.155h4.192l1.178-11.693c0.659-6.396,1.215-11.879,1.177-12.135
			c0-0.33-1.177-0.442-4.56-0.442h-4.561L331.335,322.553z"/>
		
			<linearGradient id="region-4-12_1_" gradientUnits="userSpaceOnUse" x1="1.1724" y1="-204.3125" x2="1.7078" y2="-204.796" gradientTransform="matrix(18.1946 0 0 -47.5756 321.6712 -9399.1318)">
			<stop  offset="0" style="stop-color:#000910;stop-opacity:0.807"/>
			<stop  offset="1" style="stop-color:#000B12;stop-opacity:0.813"/>
		</linearGradient>
		<path id="region-4-12" fill="url(#region-4-12_1_)" d="M346.185,320.047c0,0.113-0.659,5.333-1.432,11.618
			c-0.772,6.247-1.358,11.476-1.32,11.513c0.255,0.293,2.723-0.735,4.343-1.763c3.165-1.987,3.532-2.978,4.192-11.107
			c0.33-3.899,0.479-7.575,0.33-8.122c-0.113-0.556-0.585-1.215-1.065-1.508C350.415,320.16,346.185,319.643,346.185,320.047z"/>
	</g>
</g>
<linearGradient id="region-1-1_2_" gradientUnits="userSpaceOnUse" x1="1.9409" y1="-199.7944" x2="2.1903" y2="-200.4214" gradientTransform="matrix(497.2252 0 0 -379.9166 -740.6785 -75912.3125)">
	<stop  offset="0" style="stop-color:#FA705B;stop-opacity:0.99"/>
	<stop  offset="1" style="stop-color:#F9725E"/>
</linearGradient>
<path id="region-1-1_00000138571142666206450160000014041690542924245431_" fill="url(#region-1-1_2_)" d="M237.87,7.92
	c-4.41,1.395-8.603,5.513-11.805,11.655c-4.71,9.045-12.683,30.3-16.77,44.715c-0.735,2.498-1.657,4.485-3.862,8.092
	c-5.55,9.233-10.44,18.345-13.493,25.223c-0.585,1.32-2.28,3.967-3.788,5.88c-3.637,4.635-7.612,10.665-8.895,13.493
	c-1.432,3.09-1.583,5.955-1.103,18.127c0.773,18.9,2.093,30.15,4.23,36.585c1.583,4.71,2.648,6.585,4.928,8.715
	c3.6,3.383,8.752,5.078,20.482,6.728c22.65,3.203,44.385,5.22,64.973,6.105c12.353,0.518,56.445-0.075,68.685-0.952
	c25.485-1.8,56.625-5.475,62.325-7.357c8.423-2.76,11.288-5.663,13.973-14.16c2.093-6.728,3.457-20.663,3.75-38.61l0.188-12.683
	l-0.952-2.205c-1.216-2.685-5.513-9.232-9.232-13.973c-1.508-1.95-3.203-4.56-3.713-5.813c-2.317-5.512-7.388-15-12.87-24.195
	c-3.127-5.183-3.6-6.218-5.077-11.212c-4.853-16.215-12.098-35.115-16.62-43.425c-3.053-5.625-7.095-9.412-11.438-10.77
	c-2.355-0.735-3.232-0.735-62.032-0.697C241.695,7.185,240.075,7.215,237.87,7.92z"/>
<linearGradient id="region-1-2_2_" gradientUnits="userSpaceOnUse" x1="3.0039" y1="-206.2505" x2="3.1789" y2="-206.9134" gradientTransform="matrix(57.005 0 0 -35.2411 -81.1659 -7059.9727)">
	<stop  offset="0" style="stop-color:#FF705C;stop-opacity:0.992"/>
	<stop  offset="1" style="stop-color:#FF705C;stop-opacity:0.992"/>
</linearGradient>
<path id="region-1-2_00000167383833485847441120000000650013716305441928_" fill="url(#region-1-2_2_)" d="M93.772,210.308
	c-5.407,0.623-8.055,1.987-10.26,5.22c-1.695,2.498-2.798,5.738-2.798,8.348c0,3.57-0.518,3.42,13.35,3.458
	c8.933,0.038,12.022-0.075,12.652-0.442c1.32-0.735,1.95-3.6,1.95-8.678c0-5.04-0.405-7.02-1.545-7.612
	C106.095,210.045,97.522,209.865,93.772,210.308z"/>
<linearGradient id="region-1-3_2_" gradientUnits="userSpaceOnUse" x1="1.48" y1="-206.8701" x2="1.635" y2="-207.5334" gradientTransform="matrix(57.3726 0 0 -34.775 358.1574 -6964.2617)">
	<stop  offset="0" style="stop-color:#FF715D;stop-opacity:0.995"/>
	<stop  offset="1" style="stop-color:#FF715D;stop-opacity:0.996"/>
</linearGradient>
<path id="region-1-3_00000043453564380726170210000002338701241631120274_" fill="url(#region-1-3_2_)" d="M436.478,231.127
	c-1.725,0.33-2.093,1.62-2.093,7.462c0.038,5.513,0.442,7.98,1.545,8.865c0.48,0.405,3.016,0.518,12.833,0.518
	c11.475,0,12.247-0.038,12.982-0.698c0.952-0.885,1.027-2.94,0.188-5.775c-0.848-2.865-1.838-4.598-3.675-6.585
	c-2.025-2.167-4.268-3.165-8.235-3.638C447.03,230.873,438.202,230.797,436.478,231.127z"/>
<linearGradient id="region-1-4_2_" gradientUnits="userSpaceOnUse" x1="2.8833" y1="-208.4316" x2="2.9538" y2="-209.1015" gradientTransform="matrix(63.5302 0 0 -26.8782 -87.9424 -5370.5234)">
	<stop  offset="0" style="stop-color:#232F35;stop-opacity:0.992"/>
	<stop  offset="1" style="stop-color:#253137;stop-opacity:0.993"/>
</linearGradient>
<path id="region-1-4_00000142861999129040652570000000591244193715160743_" fill="url(#region-1-4_2_)" d="M110.22,232.635
	c-1.763,0.368-3.015,1.8-3.713,4.23c-0.255,0.885-0.81,1.762-1.29,2.025c-0.622,0.367-3.712,0.48-12.682,0.442
	c-6.51,0-11.843,0.075-11.843,0.188c0,0.66,1.583,2.685,2.355,2.94c0.735,0.292,15.593,1.14,20.002,1.14
	c1.178,0,1.62,0.15,1.763,0.623c0.623,2.025,0.66,1.987,3.015-1.838c1.507-2.535,2.572-4.815,3.202-6.877
	c0.48-1.725,0.848-3.127,0.81-3.127C111.803,232.342,111.067,232.455,110.22,232.635z"/>
<linearGradient id="region-1-5_2_" gradientUnits="userSpaceOnUse" x1="1.8535" y1="-211.0151" x2="1.8535" y2="-211.5059" gradientTransform="matrix(60.0001 0 0 -22.9753 348.6021 -4588.6479)">
	<stop  offset="0" style="stop-color:#243036;stop-opacity:0.992"/>
	<stop  offset="1" style="stop-color:#243036;stop-opacity:0.993"/>
</linearGradient>
<path id="region-1-5_00000028295728885717698030000017074241036850511529_" fill="url(#region-1-5_2_)" d="M445.117,259.98
	c0,1.357,1.357,4.522,3.203,7.575c1.582,2.61,2.205,3.345,2.647,3.165c0.33-0.113,4.08-0.368,8.31-0.555
	c9.12-0.368,12.21-0.585,13.088-1.065c0.518-0.292,2.167-2.535,2.167-2.978c0-0.075-5.512-0.15-12.247-0.15
	c-13.718,0-13.237,0.112-13.897-2.647C447.803,261.12,445.117,258.322,445.117,259.98z"/>
<linearGradient id="region-1-6_2_" gradientUnits="userSpaceOnUse" x1="1.7773" y1="-201.0874" x2="2.4606" y2="-201.4836" gradientTransform="matrix(88.3228 0 0 -151.7783 -128.1194 -30104.2578)">
	<stop  offset="0" style="stop-color:#243037;stop-opacity:0.995"/>
	<stop  offset="1" style="stop-color:#253137;stop-opacity:0.999"/>
</linearGradient>
<path id="region-1-6_00000138534850147714005820000007536895415005527468_" fill="url(#region-1-6_2_)" d="M37.425,398.348
	c-1.657,35.152-1.177,51.218,1.838,61.665c2.092,7.17,4.597,8.122,21.472,8.16c4.343,0,9.045-0.188,10.403-0.368
	c4.485-0.66,7.282-2.685,8.347-6.067c0.48-1.433,0.368-13.162-0.255-25.814l-0.217-4.853l-1.508-0.218
	c-20.625-2.835-22.282-3.165-27.39-5.588c-2.43-1.177-5.183-3.6-6.473-5.812c-2.393-4.08-4.448-12.982-5.183-22.133
	C38.092,392.25,37.688,392.617,37.425,398.348z"/>
<linearGradient id="region-1-7_2_" gradientUnits="userSpaceOnUse" x1="2.7705" y1="-200.9292" x2="2.9411" y2="-201.4543" gradientTransform="matrix(88.3227 0 0 -139.3519 279.9035 -27603.1309)">
	<stop  offset="0" style="stop-color:#253137;stop-opacity:0.997"/>
	<stop  offset="1" style="stop-color:#253137"/>
</linearGradient>
<path id="region-1-7_00000077296806992048307660000010951454409049323420_" fill="url(#region-1-7_2_)" d="M552.66,406.275
	c-0.255,1.582-0.885,4.268-1.396,5.992c-3.532,11.145-7.942,13.897-26.107,16.402c-5.04,0.66-9.6,1.253-10.109,1.253
	c-0.698,0-1.216,0.442-2.093,1.762l-1.178,1.726l-0.367,11.362c-0.697,20.04-0.585,21.548,1.508,23.978
	c2.76,3.165,5.145,3.57,19.597,3.383c10.665-0.15,11.513-0.188,13.388-0.953c2.978-1.177,4.305-2.685,5.37-5.992
	c1.912-6.067,2.685-12.503,3.015-25.372c0.218-9.008-0.479-35.003-0.952-35.925C553.178,403.627,552.885,404.737,552.66,406.275z"/>
<linearGradient id="region-2-1_2_" gradientUnits="userSpaceOnUse" x1="2.9146" y1="-200.6646" x2="2.9147" y2="-201.1555" gradientTransform="matrix(357.1959 4.5621 1.3687 -107.1619 -258.7282 -21470.1152)">
	<stop  offset="0" style="stop-color:#00232F;stop-opacity:0.815"/>
	<stop  offset="1" style="stop-color:#00232F;stop-opacity:0.815"/>
</linearGradient>
<path id="region-2-1_00000043450695319698244770000015855833146858762129_" fill="url(#region-2-1_2_)" d="M444.285,46.161
	c-5.519,0.483-5.11,0.23-7.495,5.017c-9.669,19.805-17.16,39.493-17.237,45.345l-0.024,1.695l57.656,0.514
	c31.697,0.259,71.072,0.648,87.548,0.857l29.931,0.381l-0.179-3.243c-0.138-3.456-0.528-4.712-5.391-18.198
	c-6.536-18.212-10.566-28.046-11.804-28.76c-1.241-0.677-6.565-1.19-17.371-1.726C547.049,47.401,448.373,45.813,444.285,46.161z"/>
<linearGradient id="region-2-2_2_" gradientUnits="userSpaceOnUse" x1="2.7324" y1="-202.3521" x2="3.9409" y2="-202.7306" gradientTransform="matrix(14.2517 0 0 -64.875 94.0988 -12928.4063)">
	<stop  offset="0" style="stop-color:#00242F;stop-opacity:0.822"/>
	<stop  offset="1" style="stop-color:#00242F;stop-opacity:0.822"/>
</linearGradient>
<path id="region-2-2_00000134938364693028547580000004073275976965533590_" fill="url(#region-2-2_2_)" d="M133.86,191.768
	c-0.555,4.305,0.443,13.313,2.167,19.342c1.028,3.57,4.005,10.11,4.598,10.11c0.217,0-0.112-0.953-0.697-2.13
	c-3.383-6.69-5.333-15.922-5.663-26.73l-0.075-2.94L133.86,191.768z"/>
<linearGradient id="region-2-3_2_" gradientUnits="userSpaceOnUse" x1="8.9888" y1="-201.749" x2="9.8203" y2="-202.2092" gradientTransform="matrix(14.7213 0 0 -64.2846 349.968 -12808.7578)">
	<stop  offset="0" style="stop-color:#00242F;stop-opacity:0.822"/>
	<stop  offset="1" style="stop-color:#00242F;stop-opacity:0.822"/>
</linearGradient>
<path id="region-2-3_00000101823070149312686650000016814207152293620887_" fill="url(#region-2-3_2_)" d="M489.405,160.853
	c-0.255,8.752-2.093,16.732-5.295,23.055c-0.698,1.357-1.178,2.572-1.103,2.647c0.255,0.255,0.885-0.66,2.205-3.345
	c3.052-6.143,4.635-13.275,4.927-22.17c0.15-3.9,0.075-5.955-0.149-5.955C489.772,155.078,489.548,157.357,489.405,160.853z"/>
<linearGradient id="region-2-4_2_" gradientUnits="userSpaceOnUse" x1="2.1821" y1="-204.5898" x2="2.4975" y2="-205.1677" gradientTransform="matrix(48.761 0 0 -46.3361 -8.4379 -9217.5264)">
	<stop  offset="0" style="stop-color:#FFA89B;stop-opacity:0.795"/>
	<stop  offset="1" style="stop-color:#FFA79B;stop-opacity:0.8"/>
</linearGradient>
<path id="region-2-4_00000163038672010792811220000000960166789482883213_" fill="url(#region-2-4_2_)" d="M105.165,265.44
	c-1.103,3.127-3.382,7.755-4.71,9.488c-0.555,0.735-1.583,1.657-2.317,2.025l-1.32,0.66l0.923,0.405
	c0.517,0.217,3.825,1.47,7.357,2.835c3.532,1.357,7.725,3.015,9.262,3.712c2.43,1.103,3.09,1.252,4.485,1.065
	c0.922-0.15,1.762-0.405,1.875-0.622c0.15-0.188-2.723-5.22-6.323-11.175c-5.775-9.563-6.652-10.845-7.462-10.845
	C106.125,262.98,105.908,263.272,105.165,265.44z"/>
<linearGradient id="region-2-5_2_" gradientUnits="userSpaceOnUse" x1="2.4478" y1="-205.2041" x2="2.9435" y2="-205.6893" gradientTransform="matrix(49.239 0 0 -46.8436 313.806 -9315.7891)">
	<stop  offset="0" style="stop-color:#FFA89C;stop-opacity:0.784"/>
	<stop  offset="1" style="stop-color:#FFA79B;stop-opacity:0.806"/>
</linearGradient>
<path id="region-2-5_00000093855038812030149390000014889432983301816212_" fill="url(#region-2-5_2_)" d="M449.745,294.998
	c-0.66,0.66-13.275,21.51-13.088,21.661c0.075,0.037,0.99,0.292,2.063,0.517c1.763,0.368,2.025,0.33,3.495-0.479
	c1.695-0.923,8.272-3.6,14.558-5.881c3.75-1.357,4.853-2.024,3.42-2.024c-1.875,0-5.295-5.22-7.612-11.513
	C451.47,294.337,450.885,293.865,449.745,294.998z"/>
<linearGradient id="region-2-6_2_" gradientUnits="userSpaceOnUse" x1="2.4307" y1="-204.7095" x2="2.4307" y2="-205.2003" gradientTransform="matrix(160.3351 0 0 -30.2272 -110.6924 -5990.1255)">
	<stop  offset="0" style="stop-color:#FFA79B;stop-opacity:0.791"/>
	<stop  offset="1" style="stop-color:#FFA89B;stop-opacity:0.801"/>
</linearGradient>
<path id="region-2-6_00000060751205425891338000000014964334140286203785_" fill="url(#region-2-6_2_)" d="M241.837,198.292
	c0,0.405-0.48,1.14-1.103,1.62c-1.32,1.14-1.32,1.395-0.217,7.792l0.81,4.777l1.252-0.038c0.697-0.037,5.917-0.255,11.58-0.48
	c5.662-0.217,22.432-0.405,37.245-0.405c14.783,0,26.917-0.113,26.917-0.292c0-0.15-1.064-1.695-2.354-3.42l-2.355-3.165
	l-2.865-0.255c-6.585-0.518-31.987-1.725-43.169-2.063c-12.315-0.33-14.415-0.585-19.485-2.243c-1.32-0.442-3.202-1.178-4.192-1.658
	C241.688,197.415,241.837,197.453,241.837,198.292z"/>
<linearGradient id="region-2-7_2_" gradientUnits="userSpaceOnUse" x1="1.5327" y1="-205.4741" x2="1.5327" y2="-205.9644" gradientTransform="matrix(252.7411 0 0 -71.1254 -253.1926 -14108.957)">
	<stop  offset="0" style="stop-color:#002430;stop-opacity:0.805"/>
	<stop  offset="1" style="stop-color:#002430;stop-opacity:0.807"/>
</linearGradient>
<path id="region-2-7_00000096760973490457640500000013738993200741852845_" fill="url(#region-2-7_2_)" d="M75.09,506.04
	c-2.025,1.027-2.835,2.76-2.978,6.615c-0.188,3.967,0.443,10.845,1.215,13.935c1.395,5.333,4.155,9.3,7.755,11.07
	c2.835,1.395,7.425,1.875,21.84,2.393c15.593,0.555,81.848,0.188,84.39-0.442c3.232-0.811,6.18-4.373,7.095-8.603
	c0.255-1.027,0.697-5.775,0.99-10.628l0.585-8.752l-0.848-1.695c-1.582-3.202-1.29-3.128-14.527-3.42
	c-16.545-0.405-72.953-1.065-90.015-1.065C78.217,505.455,76.118,505.56,75.09,506.04z"/>
<linearGradient id="region-2-8_2_" gradientUnits="userSpaceOnUse" x1="1.3716" y1="-201.7759" x2="1.888" y2="-202.254" gradientTransform="matrix(99.8495 0 0 -140.717 -120.1597 -28058.9102)">
	<stop  offset="0" style="stop-color:#622A22;stop-opacity:0.475"/>
	<stop  offset="1" style="stop-color:#853B31;stop-opacity:0.612"/>
</linearGradient>
<path id="region-2-8_00000018224849705723946610000008196868979836048289_" fill="url(#region-2-8_2_)" d="M40.103,328.83
	c-4.522,6.18-12.21,19.71-13.823,24.412c-0.66,1.988-1.215,4.523-1.432,6.84c-0.188,2.063-1.028,7.357-1.838,11.843
	c-1.657,9.3-1.657,9.525,1.103,11.985c3.09,2.797,7.613,4.484,18.09,6.689c10.035,2.131,26.362,5.003,28.387,5.003
	c0.66,0,0.075-0.735-3.015-3.862c-2.13-2.131-4.042-3.863-4.305-3.863s-0.555-0.367-0.623-0.848c-0.112-0.441-0.697-3.382-1.32-6.51
	c-1.395-6.765-2.61-11.879-3.938-16.327c-1.178-3.825-2.76-5.851-6.653-8.46c-4.237-2.782-17.587-9.029-19.35-9.029
	c-0.292,0-0.623-0.15-0.735-0.293c-0.217-0.367,5.145-9.638,8.933-15.443C42.563,326.408,42.893,325.005,40.103,328.83z"/>
<linearGradient id="region-2-9_2_" gradientUnits="userSpaceOnUse" x1="3.3105" y1="-201.311" x2="3.5241" y2="-201.8444" gradientTransform="matrix(100.1618 0 0 -147.4421 221.746 -29402.3965)">
	<stop  offset="0" style="stop-color:#6F3229;stop-opacity:0.517"/>
	<stop  offset="1" style="stop-color:#8A3D32;stop-opacity:0.644"/>
</linearGradient>
<path id="region-2-9_00000024717704268850268030000006650065478213521562_" fill="url(#region-2-9_2_)" d="M573.84,283.853
	c0,0.15,0.885,1.62,1.95,3.27c1.987,3.052,6.473,10.808,9.412,16.177c1.396,2.573,1.471,2.865,0.848,2.865
	c-1.987,0-14.782,5.851-19.38,8.864c-3.938,2.573-5.737,4.523-6.728,7.358c-1.14,3.271-3.09,11.287-4.522,18.712
	c-0.697,3.42-1.433,6.248-1.62,6.248c-0.33,0-1.47,1.178-6.585,6.915c-0.81,0.847-1.357,1.657-1.252,1.725
	c0.518,0.518,31.072-5.22,37.215-6.989c6.247-1.801,11.175-5.003,11.842-7.688c0.188-0.698-0.255-4.006-1.252-9.563
	c-0.848-4.673-1.583-9.818-1.695-11.438c-0.075-1.621-0.442-4.118-0.81-5.514c-0.99-3.938-8.272-17.947-13.793-26.512
	C575.535,285.322,573.84,283.23,573.84,283.853z"/>
<linearGradient id="region-2-10_2_" gradientUnits="userSpaceOnUse" x1="1.8286" y1="-214.5161" x2="1.8288" y2="-215.0414" gradientTransform="matrix(489.7704 0 0 -29.3933 -726.5101 -5727.4619)">
	<stop  offset="0" style="stop-color:#001A28;stop-opacity:0.805"/>
	<stop  offset="1" style="stop-color:#0C1E22;stop-opacity:0.78"/>
</linearGradient>
<path id="region-2-10_00000103963151628996756640000017022875844666934424_" fill="url(#region-2-10_2_)" d="M286.2,579.683
	c-4.74,3.675-11.985,6.689-19.522,8.234c-13.275,2.686-38.865,3.533-96.705,3.203c-55.193-0.33-67.988-0.811-83.835-3.016
	c-7.688-1.064-18.713-3.127-23.715-4.372c-2.902-0.735-11.542-3.42-13.125-4.08c-0.255-0.112-0.48-0.075-0.48,0.112
	c0,0.33,6.84,2.761,11.58,4.118c10.335,2.978,24.893,5.332,39.893,6.435c31.92,2.393,97.44,2.647,144.135,0.585
	c17.243-0.772,26.88-2.535,35.04-6.435c4.268-1.988,10.035-6.03,9.413-6.585C288.81,577.808,287.595,578.617,286.2,579.683z"/>
<linearGradient id="region-2-11_2_" gradientUnits="userSpaceOnUse" x1="2.2739" y1="-206.7354" x2="2.3732" y2="-209.0781" gradientTransform="matrix(334.1621 2.5315 0.2126 -28.0697 -619.7837 -5328.5283)">
	<stop  offset="0" style="stop-color:#77342B;stop-opacity:0.548"/>
	<stop  offset="1" style="stop-color:#914034;stop-opacity:0.677"/>
</linearGradient>
<path id="region-2-11_00000124135749959681975650000014069174784656746654_" fill="url(#region-2-11_2_)" d="M17.257,480.607
	c4.2,3.412,13.913,7.718,22.613,9.99c11.85,3.104,20.49,3.795,40.755,3.359c23.76-0.555,78.645-3.262,97.665-4.852
	c3.24-0.271,2.947-0.271-2.573-0.165c-18.645,0.337-56.775,0.157-74.827-0.383c-37.388-1.095-52.71-2.197-68.175-5.003
	c-4.147-0.765-14.167-3.015-15.787-3.577C16.417,479.79,16.493,479.978,17.257,480.607z"/>
<linearGradient id="region-2-12_2_" gradientUnits="userSpaceOnUse" x1="2.687" y1="-205.0542" x2="2.7893" y2="-205.7415" gradientTransform="matrix(77.9354 0 0 -38.1782 281.9673 -7441.4351)">
	<stop  offset="0" style="stop-color:#883D31;stop-opacity:0.634"/>
	<stop  offset="1" style="stop-color:#904134;stop-opacity:0.68"/>
</linearGradient>
<path id="region-2-12_00000163774457713219218360000008427904423051537820_" fill="url(#region-2-12_2_)" d="M493.815,390.42
	l-18.315,2.025v7.32c0,6.727,0.037,7.281,0.66,7.281c0.885,0,17.063-2.092,21.585-2.797c2.024-0.293,5.107-0.885,6.877-1.29
	c2.835-0.66,3.346-0.923,4.522-2.242c1.546-1.695,2.461-3.638,3.713-7.98c1.103-3.862,1.141-4.447,0.075-4.409
	C512.452,388.357,503.85,389.279,493.815,390.42z"/>
<linearGradient id="region-2-13_2_" gradientUnits="userSpaceOnUse" x1="2.6069" y1="-205.0186" x2="2.9029" y2="-205.7734" gradientTransform="matrix(78.2818 0 0 -38.325 -86.3613 -7466.3081)">
	<stop  offset="0" style="stop-color:#763A2C;stop-opacity:0.548"/>
	<stop  offset="1" style="stop-color:#863930;stop-opacity:0.624"/>
</linearGradient>
<path id="region-2-13_00000113322604366972715880000006137532056702175414_" fill="url(#region-2-13_2_)" d="M105.232,395.768
	c1.763,7.612,3.712,10.808,7.283,11.88c2.46,0.735,11.07,2.13,20.257,3.308c4.042,0.518,8.055,0.99,8.933,1.141l1.545,0.188v-7.358
	c0-4.079-0.075-7.388-0.188-7.388s-8.422-0.922-18.495-2.024c-10.035-1.103-18.645-2.025-19.08-2.025
	C104.715,393.487,104.715,393.525,105.232,395.768z"/>
<linearGradient id="region-2-14_2_" gradientUnits="userSpaceOnUse" x1="2.7813" y1="-206.0859" x2="2.8069" y2="-206.8409" gradientTransform="matrix(220.8844 0 0 -48.975 -189.3824 -9583.6982)">
	<stop  offset="0" style="stop-color:#00232F;stop-opacity:0.817"/>
	<stop  offset="1" style="stop-color:#00232F;stop-opacity:0.818"/>
</linearGradient>
<path id="region-2-14_00000114070236046544025580000008910788292840135351_" fill="url(#region-2-14_2_)" d="M372.945,510.555
	c-0.556,0.405-1.103,1.178-1.215,1.658c-0.113,0.518,0,3.232,0.329,6.067c0.811,7.904,1.875,11.654,3.495,12.54
	c2.798,1.507,31.545,2.939,59.198,2.939c17.647,0,27.832-0.404,34.192-1.327c4.635-0.697,5.737-1.103,7.245-2.835
	c1.987-2.28,3.787-9.338,3.787-14.963c0-2.902-0.66-3.675-3.458-4.08c-1.177-0.149-24.75-0.404-52.357-0.555l-50.265-0.255
	L372.945,510.555z"/>
<linearGradient id="region-2-15_2_" gradientUnits="userSpaceOnUse" x1="2.3667" y1="-210.4058" x2="2.3679" y2="-211.0571" gradientTransform="matrix(472.855 0 0 -31.309 -692.9216 -6035.7632)">
	<stop  offset="0" style="stop-color:#00232F;stop-opacity:0.819"/>
	<stop  offset="1" style="stop-color:#00242F;stop-opacity:0.823"/>
</linearGradient>
<path id="region-2-15_00000148620558795687482950000005595953101856611728_" fill="url(#region-2-15_2_)" d="M534.772,553.32
	c-36.952,9.232-77.258,13.68-118.035,13.087c-34.229-0.518-65.452-4.08-99.172-11.324c-6.69-1.433-7.756-1.62-7.388-1.253
	c0.33,0.33,14.085,3.345,22.357,4.928c28.462,5.37,54.638,7.979,84.202,8.385c41.55,0.585,79.643-3.675,117.697-13.125
	c3.308-0.81,6.36-1.657,6.766-1.838l0.734-0.33l-0.734,0.038C540.803,551.888,537.893,552.548,534.772,553.32z"/>
<linearGradient id="region-3-1_2_" gradientUnits="userSpaceOnUse" x1="1.5566" y1="-200.2427" x2="1.5594" y2="-200.7594" gradientTransform="matrix(340.4951 1.833 0.5282 -98.1214 -331.7688 -19620.7617)">
	<stop  offset="0" style="stop-color:#628997;stop-opacity:0.459"/>
	<stop  offset="1" style="stop-color:#648C9B;stop-opacity:0.441"/>
</linearGradient>
<path id="region-3-1_00000024721341655637674600000004489160461887723957_" fill="url(#region-3-1_2_)" d="M37.048,30.375
	c-5.006,0.27-7.949,0.729-9.827,1.488c-1.144,0.469-1.623,1.238-5.193,8.173C14.896,53.969,9.494,66.881,9.48,70.079
	c-0.011,2.094,1.005,4.195,2.799,5.68c2.931,2.444-3.433,2.226,84.371,2.698l79.716,0.428l0.008-1.951
	c0.018-2.834-0.747-5.409-4.113-14.068c-6.601-16.84-11.546-27.75-13.008-28.714c-4.103-2.561-28.256-3.719-83.924-3.91
	C56.724,30.148,39.514,30.201,37.048,30.375z"/>
<linearGradient id="region-3-2_2_" gradientUnits="userSpaceOnUse" x1="3.2251" y1="-201.3159" x2="3.9751" y2="-201.5888" gradientTransform="matrix(77.3311 0 0 -129.7427 273.0737 -25871.3789)">
	<stop  offset="0" style="stop-color:#01313E;stop-opacity:0.77"/>
	<stop  offset="1" style="stop-color:#002029;stop-opacity:0.808"/>
</linearGradient>
<path id="region-3-2_00000051373626991266843630000015698843038461950399_" fill="url(#region-3-2_2_)" d="M546.84,225.353
	c0,0.15,0.885,1.62,1.95,3.27c1.987,3.052,6.473,10.808,9.412,16.177c1.396,2.573,1.471,2.865,0.848,2.865
	c-1.987,0-14.782,5.85-19.38,8.865c-4.23,2.76-5.775,4.523-6.915,7.943c-1.508,4.635-5.407,21.697-5.407,23.715
	c0,0.848,1.95,0.885,7.904,0.075c7.5-0.953,29.235-5.183,29.82-5.775c0.112-0.112,0.188-4.965,0.188-10.77
	c0.038-14.49-0.188-15.48-5.587-25.815c-3.533-6.765-6.285-11.617-9.195-16.103C548.535,226.822,546.84,224.73,546.84,225.353z"/>
<linearGradient id="region-3-3_2_" gradientUnits="userSpaceOnUse" x1="1.7378" y1="-201.3618" x2="1.7378" y2="-201.8521" gradientTransform="matrix(78 0 0 -125.192 -81.9375 -24961.7363)">
	<stop  offset="0" style="stop-color:#022F3C;stop-opacity:0.781"/>
	<stop  offset="1" style="stop-color:#001D25;stop-opacity:0.81"/>
</linearGradient>
<path id="region-3-3_00000052804952547603020940000013308109858209847478_" fill="url(#region-3-3_2_)" d="M50.055,249.33
	c-4.448,6.067-12.21,19.71-13.755,24.27c-1.545,4.41-1.8,7.02-1.8,18.277v10.148l1.027,0.217c16.875,3.6,27.615,5.475,34.013,5.992
	l3.203,0.256l-0.218-1.253c-1.395-7.575-3.637-17.355-5.183-22.537c-1.177-3.825-2.76-5.85-6.652-8.46
	c-4.23-2.798-17.572-9.045-19.342-9.045c-0.292,0-0.623-0.15-0.735-0.292c-0.217-0.367,5.145-9.637,8.933-15.442
	C52.515,246.908,52.845,245.505,50.055,249.33z"/>
<linearGradient id="region-3-4_2_" gradientUnits="userSpaceOnUse" x1="2.1255" y1="-205.5049" x2="2.2371" y2="-206.469" gradientTransform="matrix(249.2066 0 0 -68.95 -246.4687 -13674.2832)">
	<stop  offset="0" style="stop-color:#FFFFFF;stop-opacity:0.806"/>
	<stop  offset="1" style="stop-color:#FFFFFF;stop-opacity:0.816"/>
</linearGradient>
<path id="region-3-4_00000155139816259258348350000014678324025250595739_" fill="url(#region-3-4_2_)" stroke="#000000" stroke-miterlimit="10" d="
	M230.67,497.865c-2.28,1.395-2.647,2.497-2.647,8.272c0,15.405,4.343,22.47,14.527,23.715c8.753,1.027,48.135,1.395,85.493,0.772
	l14.159-0.218l1.763-1.027c4.117-2.43,5.146-5.475,5.918-17.505c0.622-9.638,0.479-10.665-1.695-12.247
	c-1.065-0.735-1.695-0.811-12.758-1.065c-11.692-0.33-89.865-1.433-98.767-1.433C232.545,497.13,231.705,497.235,230.67,497.865z"/>
<linearGradient id="region-3-5_2_" gradientUnits="userSpaceOnUse" x1="2.9033" y1="-206.1318" x2="3.2853" y2="-206.7092" gradientTransform="matrix(34.725 0 0 -28.1383 385.513 -5436.9248)">
	<stop  offset="0" style="stop-color:#EFFFFF;stop-opacity:0.841"/>
	<stop  offset="1" style="stop-color:#F4FFFF;stop-opacity:0.831"/>
</linearGradient>
<path id="region-3-5_00000048480259922677175890000009333800860925482902_" fill="url(#region-3-5_2_)" stroke="#000000" stroke-miterlimit="10" d="
	M492.008,365.115l-6.69,0.734l-0.218,1.695c-0.112,0.923-0.33,3.676-0.442,6.143l-0.255,4.447l3.638-0.518
	c6.548-0.885,9.375-2.092,10.665-4.56c0.555-1.065,2.723-7.83,2.723-8.46C501.42,364.154,499.8,364.23,492.008,365.115z"/>
<linearGradient id="region-3-6_2_" gradientUnits="userSpaceOnUse" x1="4.4844" y1="-206.1289" x2="4.4844" y2="-206.6196" gradientTransform="matrix(35.0368 0 0 -28.2412 -17.4797 -5453.6768)">
	<stop  offset="0" style="stop-color:#F0FFFF;stop-opacity:0.838"/>
	<stop  offset="1" style="stop-color:#F2FFFF;stop-opacity:0.834"/>
</linearGradient>
<path id="region-3-6_00000136411529299663979890000014885501882480500124_" fill="url(#region-3-6_2_)" stroke="#000000" stroke-miterlimit="10" d="
	M131.047,367.755c0,0.075,0.585,2.024,1.29,4.306c1.545,4.852,2.535,6.359,5.107,7.537c1.8,0.81,10.298,2.317,10.74,1.875
	c0.112-0.113,0-2.865-0.255-6.105c-0.33-4.268-0.585-5.917-0.923-5.917c-0.517,0-12.502-1.358-14.557-1.657
	C131.67,367.68,131.047,367.68,131.047,367.755z"/>
<linearGradient id="region-3-7_2_" gradientUnits="userSpaceOnUse" x1="2.9375" y1="-205.8442" x2="2.9376" y2="-206.3353" gradientTransform="matrix(216.5381 0 0 -44.8803 -181.579 -8765.8115)">
	<stop  offset="0" style="stop-color:#597885;stop-opacity:0.566"/>
	<stop  offset="1" style="stop-color:#597885;stop-opacity:0.568"/>
</linearGradient>
<path id="region-3-7_00000132064292913568694290000003196168393479905177_" fill="url(#region-3-7_2_)" d="M402.563,473.64
	c-1.065,1.028-1.103,1.216-0.885,3.203c0.99,8.752,2.167,13.792,3.457,14.962c1.658,1.508,18.458,2.431,49.125,2.686
	c29.01,0.255,43.793-0.442,48.098-2.243c2.76-1.14,4.71-6.104,5.258-13.529c0.217-2.572,0.149-3.203-0.33-3.675
	c-0.811-0.772-5.258-0.953-30.96-1.216c-27.173-0.255-64.53-0.847-69.053-1.103l-3.6-0.188L402.563,473.64z"/>
<linearGradient id="region-4-1_2_" gradientUnits="userSpaceOnUse" x1="1.1392" y1="-201.7188" x2="1.5763" y2="-202.2804" gradientTransform="matrix(128.0475 0 0 -88.8827 -99.0864 -17817.1133)">
	<stop  offset="0" style="stop-color:#9DA9AE;stop-opacity:0.632"/>
	<stop  offset="1" style="stop-color:#A2ADB2;stop-opacity:0.599"/>
</linearGradient>
<path id="region-4-1_00000106864341088601228990000010073833724874009532_" fill="url(#region-4-1_2_)" d="M81.15,114.697
	c-9.742,0.33-18.09,1.395-21.03,2.685c-1.875,0.81-2.647,2.025-5.445,8.272c-3.675,8.31-12.607,31.62-12.24,31.995
	c0.112,0.113,5.88,0.292,12.833,0.405c13.05,0.255,22.942-0.15,26.107-1.065l1.62-0.48l3.712-7.132
	c2.063-3.938,7.058-13.313,11.107-20.775l7.388-13.605l-1.725-0.255C101.82,114.518,87.368,114.48,81.15,114.697z"/>
<linearGradient id="region-4-2_2_" gradientUnits="userSpaceOnUse" x1="2.2412" y1="-202.605" x2="2.3054" y2="-203.1312" gradientTransform="matrix(74.4 0 0 -81.3392 -75.1357 -16171.123)">
	<stop  offset="0" style="stop-color:#FFFFFF;stop-opacity:0.899"/>
	<stop  offset="1" style="stop-color:#FFFFFF;stop-opacity:0.893"/>
</linearGradient>
<path id="region-4-2_00000104688627083058368510000004185813648136208304_" fill="url(#region-4-2_2_)" stroke="#000000" stroke-miterlimit="10" d="
	M81.495,312.008c-0.585,0.99-1.658,3.383-2.317,5.295L78,320.797l-0.15,11.656L77.7,344.07l2.722,0.622
	c9.705,2.205,24.855,4.89,31.29,5.513c1.913,0.188,2.46,0.15,2.46-0.255c0-0.698-2.355-11.985-3.27-15.735
	c-1.62-6.51-2.685-9.525-3.967-11.032c-2.573-2.978-9.158-6.915-17.91-10.665C82.822,309.84,82.86,309.84,81.495,312.008z"/>
<linearGradient id="region-4-3_2_" gradientUnits="userSpaceOnUse" x1="2.6235" y1="-202.5957" x2="3.2351" y2="-202.9291" gradientTransform="matrix(74.4514 0 0 -81.7194 279.2778 -16244.1348)">
	<stop  offset="0" style="stop-color:#FFFFFF;stop-opacity:0.895"/>
	<stop  offset="1" style="stop-color:#FFFFFF;stop-opacity:0.894"/>
</linearGradient>
<path id="region-4-3_00000113352525802512133400000007138438954171940228_" fill="url(#region-4-3_2_)" stroke="#000000" stroke-miterlimit="10" d="
	M506.535,304.68c-4.192,1.695-13.492,6.322-16.065,8.055c-4.005,2.648-5.475,4.41-6.547,7.83c-1.62,5.003-5.513,22.613-5.107,23.018
	c0.555,0.586,16.77-1.986,28.642-4.484l7.358-1.582l0.292-4.373c0.442-6.84,0.037-17.176-0.848-20.625
	c-0.772-3.016-3.015-8.197-3.787-8.678C509.805,303.428,509.55,303.465,506.535,304.68z"/>
<linearGradient id="region-4-4_2_" gradientUnits="userSpaceOnUse" x1="6.9717" y1="-206.646" x2="7.6987" y2="-207.0781" gradientTransform="matrix(19.4078 0 0 -48.9223 105.7297 -9670.9805)">
	<stop  offset="0" style="stop-color:#000A11;stop-opacity:0.807"/>
	<stop  offset="1" style="stop-color:#000B12;stop-opacity:0.812"/>
</linearGradient>
<path id="region-4-4_00000096028829414306536310000006293113257874716046_" fill="url(#region-4-4_2_)" d="M244.5,437.152
	c-0.623,0.188-1.583,0.848-2.092,1.47c-0.885,1.028-0.953,1.358-0.953,4.853c0,4.891,0.518,8.018,1.8,10.771
	c1.508,3.232,4.08,5.55,7.245,6.547c0.735,0.218,0.697,0-0.772-11.805l-1.47-12.06l-1.29-0.075
	C246.27,436.822,245.167,436.965,244.5,437.152z"/>
<linearGradient id="region-4-5_2_" gradientUnits="userSpaceOnUse" x1="5.7173" y1="-206.2979" x2="6.3999" y2="-206.7391" gradientTransform="matrix(22.125 0 0 -51.525 126.4063 -10190.1455)">
	<stop  offset="0" style="stop-color:#000A11;stop-opacity:0.808"/>
	<stop  offset="1" style="stop-color:#000A12;stop-opacity:0.81"/>
</linearGradient>
<path id="region-4-5_00000014593295385831229320000013270201776110115252_" fill="url(#region-4-5_2_)" d="M253.77,438.037
	c0.112,0.585,0.697,6.143,1.32,12.315c0.623,6.18,1.14,11.25,1.178,11.25c0.038,0.037,1.913,0.15,4.117,0.292l4.043,0.256
	l-0.66-12.428c-0.405-6.84-0.735-12.465-0.772-12.465c0-0.038-2.13-0.15-4.74-0.218l-4.672-0.15L253.77,438.037z"/>
<linearGradient id="region-4-6_2_" gradientUnits="userSpaceOnUse" x1="5.8672" y1="-206.252" x2="6.6248" y2="-206.6931" gradientTransform="matrix(17.85 0 0 -51.975 162.9661 -10279.4795)">
	<stop  offset="0" style="stop-color:#000A11;stop-opacity:0.808"/>
	<stop  offset="1" style="stop-color:#000A12;stop-opacity:0.811"/>
</linearGradient>
<path id="region-4-6_00000114066587503637215110000007352481090538427061_" fill="url(#region-4-6_2_)" d="M268.515,440.497
	c0.112,1.875,0.33,7.426,0.48,12.353c0.188,4.891,0.367,8.971,0.442,9.045c0.075,0.075,1.837,0.256,3.938,0.405l3.75,0.293v-3.638
	c0-2.025-0.112-7.725-0.255-12.758l-0.218-9.082h-4.155h-4.118L268.515,440.497z"/>
<linearGradient id="region-4-7_2_" gradientUnits="userSpaceOnUse" x1="3.9629" y1="-206.2524" x2="4.5019" y2="-206.7313" gradientTransform="matrix(25.65 0 0 -51.975 178.7214 -10279.6982)">
	<stop  offset="0" style="stop-color:#000A11;stop-opacity:0.808"/>
	<stop  offset="1" style="stop-color:#000A12;stop-opacity:0.811"/>
</linearGradient>
<path id="region-4-7_00000163786049841329222500000015634867985238276258_" fill="url(#region-4-7_2_)" d="M282.045,439.178
	c0.113,1.215,0.292,5.88,0.405,10.439c0.112,4.561,0.292,9.301,0.405,10.553l0.217,2.317h5.663h5.663l-0.188-1.027
	c-0.112-0.555-0.518-4.305-0.922-8.348c-1.065-10.515-0.698-9.375-3.968-11.729c-1.545-1.103-3.42-2.431-4.117-2.94
	c-0.698-0.518-1.763-1.027-2.355-1.178l-1.028-0.255L282.045,439.178z"/>
<linearGradient id="region-4-8_2_" gradientUnits="userSpaceOnUse" x1="2.981" y1="-229.084" x2="2.981" y2="-229.5742" gradientTransform="matrix(44.25 0 0 -11.25 162.9688 -2154.0859)">
	<stop  offset="0" style="stop-color:#FDFCFC;stop-opacity:0.755"/>
	<stop  offset="1" style="stop-color:#FFFFFE;stop-opacity:0.765"/>
</linearGradient>
<path id="region-4-8_00000142870083538909189470000005190231090963653817_" fill="url(#region-4-8_2_)" stroke="#000000" stroke-miterlimit="10" d="
	M284.033,423.367c0,0.188,1.725,1.396,3.787,2.761l3.788,2.497h3.383h3.382l3.676-2.46c2.024-1.32,3.675-2.572,3.675-2.76
	c0-0.15-4.891-0.293-10.845-0.293C288.922,423.112,284.033,423.218,284.033,423.367z"/>
<linearGradient id="region-4-9_2_" gradientUnits="userSpaceOnUse" x1="8.6987" y1="-204.9009" x2="9.2442" y2="-205.3788" gradientTransform="matrix(11.3882 21.3812 44.3512 -23.6227 9347.4434 -4605.1572)">
	<stop  offset="0" style="stop-color:#000911;stop-opacity:0.807"/>
	<stop  offset="1" style="stop-color:#000B12;stop-opacity:0.811"/>
</linearGradient>
<path id="region-4-9_00000041285400022033349140000013877507591913728930_" fill="url(#region-4-9_2_)" d="M360.067,427.522
	c-2.242-0.93-4.237-1.785-4.439-1.845c-0.397-0.12-14.775,5.497-16.658,6.502l-0.907,0.488l2.572,4.837l2.558,4.8l3.623-1.643
	c1.965-0.922,6.938-3.322,11.077-5.399l7.485-3.697l-0.623-1.17C364.26,429.45,363.457,428.963,360.067,427.522z"/>
<linearGradient id="region-4-10_2_" gradientUnits="userSpaceOnUse" x1="10.1216" y1="-204.9111" x2="10.7134" y2="-205.3871" gradientTransform="matrix(8.5676 16.0856 44.3512 -23.6227 9367.5176 -4567.4253)">
	<stop  offset="0" style="stop-color:#000A11;stop-opacity:0.808"/>
	<stop  offset="1" style="stop-color:#000A12;stop-opacity:0.811"/>
</linearGradient>
<path id="region-4-10_00000001656875593164890510000004218083002189100427_" fill="url(#region-4-10_2_)" d="M360.165,440.303
	c-4.305,2.167-9.293,4.612-11.063,5.43l-3.271,1.53l1.883,3.54l1.867,3.502l3.953-1.814c2.13-1.013,7.133-3.428,11.077-5.4
	l7.163-3.524l-1.905-3.57l-1.92-3.601L360.165,440.303z"/>
<linearGradient id="region-4-11_2_" gradientUnits="userSpaceOnUse" x1="8.0361" y1="-205.0313" x2="8.4996" y2="-205.5257" gradientTransform="matrix(10.9195 18.901 42.8614 -24.7619 9073.2852 -4781.9009)">
	<stop  offset="0" style="stop-color:#000A11;stop-opacity:0.809"/>
	<stop  offset="1" style="stop-color:#000A12;stop-opacity:0.811"/>
</linearGradient>
<path id="region-4-11_00000010290202058427151030000009540881875647359637_" fill="url(#region-4-11_2_)" d="M370.98,449.595
	c-1.426,0.698-5.468,2.738-8.985,4.516c-3.495,1.808-7.26,3.683-8.303,4.154l-1.957,0.878l2.077,3.6l2.1,3.63l10.71-4.829
	c5.873-2.625,10.891-4.891,11.093-5.048c0.285-0.165-0.21-1.237-1.897-4.17l-2.28-3.945L370.98,449.595z"/>
<linearGradient id="region-4-12_2_" gradientUnits="userSpaceOnUse" x1="8.541" y1="-205.2832" x2="9.0763" y2="-205.7668" gradientTransform="matrix(9.1017 15.7544 41.195 -23.7992 8756.9883 -4561.1714)">
	<stop  offset="0" style="stop-color:#000910;stop-opacity:0.807"/>
	<stop  offset="1" style="stop-color:#000B12;stop-opacity:0.813"/>
</linearGradient>
<path id="region-4-12_00000138550972708839279220000015758618313496864957_" fill="url(#region-4-12_2_)" d="M380.572,461.213
	c-0.098,0.052-4.95,2.092-10.777,4.567c-5.798,2.46-10.612,4.56-10.627,4.612c-0.128,0.367,1.994,1.987,3.697,2.872
	c3.3,1.748,4.342,1.568,11.715-1.927c3.54-1.665,6.795-3.375,7.2-3.78c0.42-0.375,0.757-1.117,0.772-1.68
	C382.598,464.925,380.925,461.01,380.572,461.213z"/>
<line fill="none" stroke="#000000" stroke-miterlimit="10" x1="354.75" y1="191.25" x2="352.5" y2="222.75"/>
<line fill="none" stroke="#000000" stroke-miterlimit="10" x1="514.125" y1="108.375" x2="364.875" y2="232.875"/>
<line fill="none" stroke="#000000" stroke-miterlimit="10" x1="95.625" y1="78.375" x2="229.125" y2="232.875"/>
<line fill="none" stroke="#000000" stroke-miterlimit="10" x1="90" y1="143.25" x2="234" y2="243.75"/>
<line fill="none" stroke="#000000" stroke-miterlimit="10" x1="108.375" y1="214.125" x2="175.875" y2="265.875"/>
<line fill="none" stroke="#000000" stroke-miterlimit="10" x1="107.625" y1="242.625" x2="178.125" y2="280.875"/>
<line fill="none" stroke="#000000" stroke-miterlimit="10" x1="435.75" y1="246" x2="411.75" y2="264.75"/>
<line fill="none" stroke="#000000" stroke-miterlimit="10" x1="448.125" y1="267.375" x2="412.125" y2="280.875"/>
<line fill="none" stroke="#000000" stroke-miterlimit="10" x1="489.375" y1="160.875" x2="362.25" y2="288.75"/>
<line fill="none" stroke="#000000" stroke-miterlimit="10" x1="444.75" y1="302.25" x2="379.5" y2="299.25"/>
<line fill="none" stroke="#000000" stroke-miterlimit="10" x1="480.375" y1="333.375" x2="396.375" y2="324.375"/>
<line fill="none" stroke="#000000" stroke-miterlimit="10" x1="529.125" y1="280.125" x2="390.375" y2="293.625"/>
<line fill="none" stroke="#000000" stroke-miterlimit="10" x1="547.125" y1="354.375" x2="396.375" y2="341.625"/>
<line fill="none" stroke="#000000" stroke-miterlimit="10" x1="484.5" y1="370.5" x2="400.5" y2="364.5"/>
<line fill="none" stroke="#000000" stroke-miterlimit="10" x1="475.125" y1="397.875" x2="382.125" y2="376.875"/>
<line fill="none" stroke="#000000" stroke-miterlimit="10" x1="511.5" y1="451.5" x2="412.5" y2="418.5"/>
<line fill="none" stroke="#000000" stroke-miterlimit="10" x1="264.375" y1="432.375" x2="285.375" y2="342.375"/>
<line fill="none" stroke="#000000" stroke-miterlimit="10" x1="346.125" y1="428.625" x2="321.375" y2="343.875"/>
<line fill="none" stroke="#000000" stroke-miterlimit="10" x1="295.125" y1="423.375" x2="295.875" y2="324.375"/>
<line fill="none" stroke="#000000" stroke-miterlimit="10" x1="314.625" y1="496.875" x2="309.375" y2="344.625"/>
<line fill="none" stroke="#000000" stroke-miterlimit="10" x1="188.625" y1="506.625" x2="249" y2="347.25"/>
<line fill="none" stroke="#000000" stroke-miterlimit="10" x1="448.125" y1="473.625" x2="345.375" y2="376.875"/>
<line fill="none" stroke="#000000" stroke-miterlimit="10" x1="411.75" y1="509.25" x2="346.5" y2="386.25"/>
<line fill="none" stroke="#000000" stroke-miterlimit="10" x1="149.25" y1="489" x2="225.75" y2="358.5"/>
<line fill="none" stroke="#000000" stroke-miterlimit="10" x1="208.875" y1="591.375" x2="253.875" y2="354.375"/>
<line fill="none" stroke="#000000" stroke-miterlimit="10" x1="372" y1="564.75" x2="324" y2="393"/>
<line fill="none" stroke="#000000" stroke-miterlimit="10" x1="147.75" y1="375" x2="195.75" y2="368.25"/>
<line fill="none" stroke="#000000" stroke-miterlimit="10" x1="142.875" y1="404.625" x2="195.375" y2="376.875"/>
<line fill="none" stroke="#000000" stroke-miterlimit="10" x1="79.875" y1="448.125" x2="176.625" y2="420.375"/>
<line fill="none" stroke="#000000" stroke-miterlimit="10" x1="58.875" y1="367.875" x2="196.125" y2="341.625"/>
<line fill="none" stroke="#000000" stroke-miterlimit="10" x1="112.125" y1="338.625" x2="196.125" y2="331.875"/>
<line fill="none" stroke="#000000" stroke-miterlimit="10" x1="69.375" y1="292.125" x2="198.375" y2="296.625"/>
<line fill="none" stroke="#000000" stroke-miterlimit="10" x1="137.25" y1="207" x2="229.5" y2="286.5"/>
<line fill="none" stroke="#000000" stroke-miterlimit="10" x1="116.25" y1="276.75" x2="211.5" y2="292.5"/>
</svg>
