<?xml version="1.0" encoding="utf-8"?>
<!-- Generator: Adobe Illustrator 16.0.0, SVG Export Plug-In . SVG Version: 6.00 Build 0)  -->
<!DOCTYPE svg PUBLIC "-//W3C//DTD SVG 1.1//EN" "http://www.w3.org/Graphics/SVG/1.1/DTD/svg11.dtd">
<svg version="1.1" id="图层_1" xmlns="http://www.w3.org/2000/svg" xmlns:xlink="http://www.w3.org/1999/xlink" x="0px" y="0px"
	 width="600px" height="600px" viewBox="0 0 600 600" enable-background="new 0 0 600 600" xml:space="preserve">
<pattern  x="0.5" y="600.5" width="30" height="30" patternUnits="userSpaceOnUse" id="SVGID_1_" viewBox="0 -30 30 30" overflow="visible">
	<g>
		<polygon fill="none" points="0,0 30,0 30,-30 0,-30 		"/>
		<g>
			<polygon fill="none" points="0,0 30,0 30,-30 0,-30 			"/>
			<polygon fill="none" points="0,0 30,0 30,-30 0,-30 			"/>
			<polygon fill="#D3D3D3" points="0,0 15,0 15,-15 0,-15 			"/>
			<polygon fill="#D3D3D3" points="15,-15 30,-15 30,-30 15,-30 			"/>
		</g>
	</g>
</pattern>
<g id="图层_1_1_">
	<pattern  id="SVGID_2_" xlink:href="#SVGID_1_" patternTransform="matrix(0.75 0 0 -0.75 -1981.125 -14155.4629)">
	</pattern>
	<rect x="-0.27" y="0.675" fill="url(#SVGID_2_)" width="600" height="599.25"/>
	<g transform="translate(0.000000,609.000000) scale(0.100000,-0.100000)">
		<g>
			
				<linearGradient id="SVGID_3_" gradientUnits="userSpaceOnUse" x1="139.5215" y1="-19127.3906" x2="140.011" y2="-19127.3906" gradientTransform="matrix(49.7225 0 0 37.9917 -5168.0664 729690.625)">
				<stop  offset="0" style="stop-color:#FE715D"/>
				<stop  offset="1" style="stop-color:#FE715D"/>
			</linearGradient>
			<path fill="url(#SVGID_3_)" d="M2368.247,3931.562c-44.058-13.95-85.908-55.073-117.852-116.382
				c-46.992-90.313-126.66-302.51-167.412-446.426c-7.344-24.971-16.523-44.79-38.55-80.771
				c-55.439-92.153-104.268-183.193-134.736-251.851c-5.874-13.213-22.764-39.648-37.817-58.73
				c-36.343-46.27-75.996-106.475-88.843-134.746c-14.321-30.84-15.791-59.473-11.021-180.996
				c7.71-188.711,20.928-301.055,42.217-365.293c15.791-46.992,26.431-65.722,49.194-87.011
				c35.977-33.77,87.373-50.664,204.497-67.188c226.152-31.934,443.12-52.129,648.716-60.938
				c123.354-5.137,563.545,0.732,685.801,9.551c254.424,17.988,565.381,54.697,622.285,73.418
				c84.072,27.539,112.705,56.543,139.502,141.347c20.928,67.188,34.512,206.328,37.451,385.488l1.836,126.66l-9.541,22.021
				c-12.119,26.797-55.078,92.158-92.158,139.502c-15.049,19.463-31.943,45.527-37.08,58.008
				c-23.125,55.078-73.789,149.795-128.496,241.577c-31.211,51.768-35.977,62.051-50.664,111.978
				c-48.467,161.899-120.781,350.61-165.947,433.584c-30.469,56.167-70.85,93.979-114.18,107.568
				c-23.496,7.344-32.305,7.344-619.346,6.978C2406.426,3938.901,2390.273,3938.535,2368.247,3931.562z"/>
		</g>
	</g>
	<g transform="translate(0.000000,609.000000) scale(0.100000,-0.100000)">
		<g>
			
				<linearGradient id="SVGID_4_" gradientUnits="userSpaceOnUse" x1="148.5547" y1="-19365.916" x2="149.0442" y2="-19365.916" gradientTransform="matrix(25.2741 0 0 7.1125 -1394.4783 140529.4531)">
				<stop  offset="0" style="stop-color:#263238"/>
				<stop  offset="1" style="stop-color:#263238"/>
			</linearGradient>
			<path fill="url(#SVGID_4_)" d="M2390.273,2956.836c-20.19-10.293-28.267-27.539-29.736-66.094
				c-1.841-39.648,4.399-108.301,12.109-139.141c13.95-53.223,41.484-92.881,77.471-110.498
				c28.267-13.955,74.16-18.721,218.076-23.867c155.664-5.498,817.227-1.836,842.568,4.404c32.305,8.076,61.68,43.691,70.85,85.898
				c2.568,10.293,6.973,57.637,9.912,106.113l5.879,87.363l-8.447,16.895c-15.791,31.943-12.852,31.211-145.01,34.141
				c-165.215,4.043-728.389,10.654-898.735,10.654C2421.479,2962.705,2400.556,2961.601,2390.273,2956.836z"/>
		</g>
	</g>
	<g transform="translate(0.000000,609.000000) scale(0.100000,-0.100000)">
		<g>
			
				<linearGradient id="SVGID_5_" gradientUnits="userSpaceOnUse" x1="234.5019" y1="-21059.1387" x2="234.9915" y2="-21059.1387" gradientTransform="matrix(4.425 0 0 1.125 1828.7727 26578.9727)">
				<stop  offset="0" style="stop-color:#F5F5F5"/>
				<stop  offset="1" style="stop-color:#F5F5F5"/>
			</linearGradient>
			<path fill="url(#SVGID_5_)" d="M2866.44,2912.402c0-1.836,17.256-13.945,37.813-27.529l37.817-24.971h33.774h33.774
				l36.709,24.609c20.186,13.213,36.709,25.703,36.709,27.529c0,1.475-48.818,2.939-108.296,2.939
				C2915.273,2914.98,2866.44,2913.877,2866.44,2912.402z"/>
		</g>
	</g>
	<g transform="translate(0.000000,609.000000) scale(0.100000,-0.100000)">
		<g>
			
				<linearGradient id="SVGID_6_" gradientUnits="userSpaceOnUse" x1="57.2412" y1="-19590.7598" x2="57.7307" y2="-19590.7598" gradientTransform="matrix(4.9239 0 0 4.6844 3359.5781 94868)">
				<stop  offset="0" style="stop-color:#FF9D8F"/>
				<stop  offset="1" style="stop-color:#FF9D8F"/>
			</linearGradient>
			<path fill="url(#SVGID_6_)" d="M3772.158,3206.85c-6.611-6.606-132.539-214.771-130.693-216.245
				c0.732-0.361,9.912-2.93,20.557-5.137c17.617-3.672,20.186-3.301,34.873,4.775c16.885,9.18,82.607,35.977,145.39,58.74
				c37.441,13.574,48.457,20.195,34.131,20.195c-18.711,0-52.861,52.124-75.996,114.907
				C3789.404,3213.457,3783.535,3218.227,3772.158,3206.85z"/>
		</g>
	</g>
	<g transform="translate(0.000000,609.000000) scale(0.100000,-0.100000)">
		<g>
			
				<linearGradient id="SVGID_7_" gradientUnits="userSpaceOnUse" x1="151.7627" y1="-19434.8223" x2="152.2522" y2="-19434.8223" gradientTransform="matrix(21.6538 0 0 4.488 -841.2687 89551.9531)">
				<stop  offset="0" style="stop-color:#455A64"/>
				<stop  offset="1" style="stop-color:#455A64"/>
			</linearGradient>
			<path fill="url(#SVGID_7_)" d="M2454.892,2426.699c-10.649-10.293-11.016-12.119-8.813-31.953
				c9.917-87.373,21.66-137.676,34.507-149.414c16.523-15.058,184.297-24.238,490.488-26.797
				c289.668-2.578,437.246,4.395,480.205,22.383c27.539,11.386,47.002,60.957,52.5,135.117c2.207,25.703,1.475,31.934-3.301,36.709
				c-8.076,7.705-52.5,9.541-309.131,12.109c-271.313,2.568-644.312,8.447-689.468,11.025l-35.977,1.836L2454.892,2426.699z"/>
		</g>
	</g>
	<g transform="translate(0.000000,609.000000) scale(0.100000,-0.100000)">
		<g>
			
				<linearGradient id="SVGID_8_" gradientUnits="userSpaceOnUse" x1="314.3847" y1="-19340.291" x2="314.8742" y2="-19340.291" gradientTransform="matrix(7.44 0 0 8.1339 -416.8095 160196.0469)">
				<stop  offset="0" style="stop-color:#F5F5F5"/>
				<stop  offset="1" style="stop-color:#F5F5F5"/>
			</linearGradient>
			<path fill="url(#SVGID_8_)" d="M1960,3066.972c-5.874-9.922-16.523-33.779-23.135-52.871l-11.743-34.883l-1.47-116.367
				l-1.47-116.016l27.163-6.24c96.924-22.021,248.184-48.818,312.432-55.068c19.087-1.836,24.6-1.475,24.6,2.568
				c0,6.982-23.501,119.688-32.681,157.139c-16.152,64.98-26.797,95.078-39.653,110.137
				c-25.698,29.736-91.416,69.023-178.789,106.465C1973.213,3088.628,1973.579,3088.628,1960,3066.972z"/>
		</g>
	</g>
	<g transform="translate(0.000000,609.000000) scale(0.100000,-0.100000)">
		<g>
			
				<linearGradient id="SVGID_9_" gradientUnits="userSpaceOnUse" x1="172.7637" y1="-19315.9355" x2="172.6805" y2="-19316.7383" gradientTransform="matrix(35.7225 0 0 10.7171 -3032.3616 210828.9375)">
				<stop  offset="0" style="stop-color:#1E2F36"/>
				<stop  offset="1" style="stop-color:#3B383B"/>
			</linearGradient>
			<path fill="url(#SVGID_9_)" d="M2335.942,3822.158c-55.073-5.508-51.03-2.939-74.16-51.03
				c-93.984-198.984-166.313-396.504-166.313-454.878v-16.89l575.664,2.207c316.475,1.47,709.668,2.573,874.141,2.573h298.847
				l-2.207,32.31c-1.836,34.507-5.869,46.997-56.172,180.996c-67.549,181.001-109.033,278.657-121.523,285.63
				c-12.48,6.611-65.713,11.021-173.652,15.054C3362.07,3822.89,2376.689,3826.191,2335.942,3822.158z"/>
		</g>
	</g>
	<g transform="translate(0.000000,609.000000) scale(0.100000,-0.100000)">
		<g>
			
				<linearGradient id="SVGID_10_" gradientUnits="userSpaceOnUse" x1="164.2334" y1="-19753.2988" x2="164.2334" y2="-19752.5898" gradientTransform="matrix(48.977 0 0 2.9393 -5061.6392 60616.5469)">
				<stop  offset="0" style="stop-color:#392A2A"/>
				<stop  offset="1" style="stop-color:#10323D"/>
			</linearGradient>
			<path fill="url(#SVGID_10_)" d="M4153.603,2670.84c-47.363-36.719-119.688-66.816-194.941-82.236
				c-132.539-26.797-388.066-35.244-965.556-31.943c-551.06,3.301-678.823,8.076-837.056,30.107
				c-76.733,10.654-186.87,31.201-236.802,43.682c-28.999,7.344-115.278,34.141-131.059,40.762
				c-2.573,1.094-4.771,0.732-4.771-1.104c0-3.311,68.286-27.529,115.64-41.123c103.164-29.727,248.55-53.223,398.345-64.238
				c318.667-23.867,972.891-26.426,1439.15-5.879c172.187,7.715,268.369,25.342,349.873,64.248
				c42.588,19.824,100.234,60.215,93.984,65.713C4179.667,2689.56,4167.558,2681.484,4153.603,2670.84z"/>
		</g>
	</g>
	<g transform="translate(0.000000,609.000000) scale(0.100000,-0.100000)">
		<g>
			
				<linearGradient id="SVGID_11_" gradientUnits="userSpaceOnUse" x1="123.4033" y1="-19262.6445" x2="122.8747" y2="-19262.3945" gradientTransform="matrix(7.7331 0 0 12.9743 3078.9243 252672.8594)">
				<stop  offset="0" style="stop-color:#20292E"/>
				<stop  offset="1" style="stop-color:#28353C"/>
			</linearGradient>
			<path fill="url(#SVGID_11_)" d="M3843.007,3295.693c0-1.47,8.809-16.152,19.453-32.676
				c19.824-30.474,64.609-107.939,93.984-161.533c13.945-25.703,14.688-28.633,8.447-28.633
				c-19.824,0-147.588-58.379-193.476-88.477c-42.217-27.539-57.646-45.156-69.023-79.297
				c-15.059-46.27-53.975-216.611-53.975-236.797c0-8.457,19.453-8.818,78.936-0.742c74.892,9.551,291.865,51.768,297.744,57.637
				c1.094,1.104,1.836,49.561,1.836,107.578c0.361,144.648-1.836,154.551-55.801,257.72
				c-35.244,67.554-62.783,116.011-91.787,160.801C3859.902,3281.01,3843.007,3301.933,3843.007,3295.693z"/>
		</g>
	</g>
	<g transform="translate(0.000000,609.000000) scale(0.100000,-0.100000)">
		<g>
			
				<linearGradient id="SVGID_12_" gradientUnits="userSpaceOnUse" x1="140.1123" y1="-19569.3828" x2="140.6018" y2="-19569.3828" gradientTransform="matrix(47.2855 0 0 3.1309 -4801.3633 63520.293)">
				<stop  offset="0" style="stop-color:#263238"/>
				<stop  offset="1" style="stop-color:#263238"/>
			</linearGradient>
			<path fill="url(#SVGID_12_)" d="M4066.953,2312.519c-368.955-92.148-771.328-136.572-1178.486-130.693
				c-341.797,5.137-653.491,40.752-990.151,113.076c-66.816,14.316-77.466,16.152-73.789,12.48
				c3.306-3.301,140.61-33.418,223.213-49.199c284.16-53.594,545.557-79.658,840.728-83.701
				c414.854-5.869,795.205,36.709,1175.185,131.064c33.047,8.076,63.516,16.523,67.549,18.359l7.344,3.301l-7.344-0.361
				C4127.167,2326.836,4098.164,2320.234,4066.953,2312.519z"/>
		</g>
	</g>
	<g transform="translate(0.000000,609.000000) scale(0.100000,-0.100000)">
		<g>
			
				<linearGradient id="SVGID_13_" gradientUnits="userSpaceOnUse" x1="299.9072" y1="-19160.5059" x2="300.3968" y2="-19160.5059" gradientTransform="matrix(8.8323 0 0 15.1778 -883.7304 292941.2188)">
				<stop  offset="0" style="stop-color:#263238"/>
				<stop  offset="1" style="stop-color:#263238"/>
			</linearGradient>
			<path fill="url(#SVGID_13_)" d="M1774.599,2452.031c-16.523-350.976-11.748-511.416,18.359-615.674
				c20.923-71.592,45.889-81.143,214.399-81.504c43.32,0,90.317,1.836,103.901,3.672c44.79,6.611,72.686,26.797,83.34,60.576
				c4.771,14.316,3.672,131.426-2.573,257.725l-2.207,48.457l-15.054,2.197c-205.957,28.281-222.476,31.582-273.506,55.82
				c-24.233,11.738-51.767,35.977-64.614,57.998c-23.867,40.752-44.424,129.599-51.763,221.006
				C1781.206,2512.969,1777.168,2509.297,1774.599,2452.031z"/>
		</g>
	</g>
	<g transform="translate(0.000000,609.000000) scale(0.100000,-0.100000)">
		<g>
			
				<linearGradient id="SVGID_14_" gradientUnits="userSpaceOnUse" x1="407.0215" y1="-19857.5566" x2="407.511" y2="-19857.5566" gradientTransform="matrix(5.7005 0 0 3.5241 -555.2049 73394.9141)">
				<stop  offset="0" style="stop-color:#FE725E"/>
				<stop  offset="1" style="stop-color:#FE725E"/>
			</linearGradient>
			<path fill="url(#SVGID_14_)" d="M1895.385,3498.344c-53.97-6.24-80.4-19.824-102.427-52.134
				c-16.89-24.966-27.9-57.271-27.9-83.34c0-35.61-5.137-34.141,133.266-34.507c89.214-0.366,120.054,0.737,126.294,4.404
				c13.213,7.344,19.453,35.977,19.453,86.641c0,50.293-4.033,70.122-15.42,75.996
				C2018.369,3500.918,1932.832,3502.754,1895.385,3498.344z"/>
		</g>
	</g>
	<g transform="translate(0.000000,609.000000) scale(0.100000,-0.100000)">
		<g>
			
				<linearGradient id="SVGID_15_" gradientUnits="userSpaceOnUse" x1="373.5888" y1="-20072.127" x2="374.0783" y2="-20072.127" gradientTransform="matrix(6.353 0 0 2.6878 -593.67 57282.3047)">
				<stop  offset="0" style="stop-color:#263238"/>
				<stop  offset="1" style="stop-color:#263238"/>
			</linearGradient>
			<path fill="url(#SVGID_15_)" d="M2074.546,3395.18c-17.627-3.672-30.107-17.993-37.08-42.217
				c-2.573-8.813-8.076-17.622-12.847-20.19c-6.24-3.672-37.08-4.771-126.66-4.399c-64.98,0-118.218-0.737-118.218-1.841
				c0-6.606,15.791-26.797,23.501-29.37c7.339-2.939,155.659-11.377,199.717-11.377c11.743,0,16.152-1.47,17.622-6.24
				c6.24-20.19,6.611-19.819,30.107,18.359c15.054,25.337,25.703,48.101,31.943,68.657c4.771,17.256,8.442,31.206,8.076,31.206
				C2090.332,3398.125,2082.988,3397.021,2074.546,3395.18z"/>
		</g>
	</g>
	<g transform="translate(0.000000,609.000000) scale(0.100000,-0.100000)">
		<g>
			
				<linearGradient id="SVGID_16_" gradientUnits="userSpaceOnUse" x1="-36.167" y1="-19690.2324" x2="-35.6775" y2="-19690.2324" gradientTransform="matrix(3.4725 0 0 2.8138 4011.5432 57828.3008)">
				<stop  offset="0" style="stop-color:#E7EFE3"/>
				<stop  offset="1" style="stop-color:#E7EFE3"/>
			</linearGradient>
			<path fill="url(#SVGID_16_)" d="M3961.953,2484.336l-66.816-7.344l-2.197-16.885c-1.104-9.189-3.311-36.709-4.404-61.318
				l-2.578-44.414l36.348,5.137c65.352,8.809,93.613,20.918,106.475,45.527c5.498,10.645,27.158,78.193,27.158,84.434
				C4055.947,2493.877,4039.794,2493.144,3961.953,2484.336z"/>
		</g>
	</g>
	<g transform="translate(0.000000,609.000000) scale(0.100000,-0.100000)">
		<g>
			
				<linearGradient id="SVGID_17_" gradientUnits="userSpaceOnUse" x1="-0.6152" y1="-19451.8926" x2="-0.1257" y2="-19451.8926" gradientTransform="matrix(1.4721 0 0 6.4285 3565.917 128166.8594)">
				<stop  offset="0" style="stop-color:#263238"/>
				<stop  offset="1" style="stop-color:#263238"/>
			</linearGradient>
			<path fill="url(#SVGID_17_)" d="M3628.974,3220.801c-2.578-87.378-20.928-167.051-52.871-230.195
				c-6.973-13.574-11.748-25.703-11.016-26.426c2.568-2.578,8.809,6.602,22.031,33.418c30.469,61.309,46.26,132.529,49.189,221.372
				c1.465,38.916,0.732,59.478-1.475,59.478C3632.636,3278.447,3630.439,3255.674,3628.974,3220.801z"/>
		</g>
	</g>
	<g transform="translate(0.000000,609.000000) scale(0.100000,-0.100000)">
		<g>
			
				<linearGradient id="SVGID_18_" gradientUnits="userSpaceOnUse" x1="13.6914" y1="-19864.4902" x2="14.181" y2="-19864.4902" gradientTransform="matrix(5.7373 0 0 3.4775 3839.7278 72480.8984)">
				<stop  offset="0" style="stop-color:#FF725E"/>
				<stop  offset="1" style="stop-color:#FF725E"/>
			</linearGradient>
			<path fill="url(#SVGID_18_)" d="M3939.199,3485.132c-17.266-3.311-20.928-16.157-20.928-74.531
				c0.361-55.068,4.404-79.663,15.42-88.477c4.766-4.033,30.107-5.137,128.125-5.137c114.551,0,122.266,0.366,129.6,6.978
				c9.551,8.809,10.283,29.365,1.846,57.637c-8.447,28.633-18.359,45.889-36.719,65.713c-20.186,21.66-42.578,31.577-82.236,36.348
				C4044.56,3487.705,3956.455,3488.437,3939.199,3485.132z"/>
		</g>
	</g>
	<g transform="translate(0.000000,609.000000) scale(0.100000,-0.100000)">
		<g>
			
				<linearGradient id="SVGID_19_" gradientUnits="userSpaceOnUse" x1="22.4658" y1="-20240.3105" x2="22.9554" y2="-20240.3105" gradientTransform="matrix(6 0 0 2.2975 3755.9143 49828.2773)">
				<stop  offset="0" style="stop-color:#263238"/>
				<stop  offset="1" style="stop-color:#263238"/>
			</linearGradient>
			<path fill="url(#SVGID_19_)" d="M3890.742,3376.831c0-13.584,13.574-45.156,31.934-75.63
				c15.791-26.064,22.031-33.413,26.436-31.577c3.311,1.104,40.752,3.677,82.969,5.508c91.055,3.672,121.895,5.869,130.693,10.649
				c5.137,2.939,21.66,25.332,21.66,29.736c0,0.732-55.068,1.47-122.256,1.47c-136.943,0-132.158-1.104-138.77,26.431
				C3917.539,3365.444,3890.742,3393.354,3890.742,3376.831z"/>
		</g>
	</g>
	<g transform="translate(0.000000,609.000000) scale(0.100000,-0.100000)">
		<g>
			
				<linearGradient id="SVGID_20_" gradientUnits="userSpaceOnUse" x1="551.5869" y1="-19680.9941" x2="552.0764" y2="-19680.9941" gradientTransform="matrix(3.5037 0 0 2.8241 -16.9921 57985.9531)">
				<stop  offset="0" style="stop-color:#E6EEE2"/>
				<stop  offset="1" style="stop-color:#E6EEE2"/>
			</linearGradient>
			<path fill="url(#SVGID_20_)" d="M1915.576,2472.949c0-0.732,5.869-20.186,12.847-42.949c15.42-48.457,25.337-63.516,51.03-75.264
				c17.993-8.076,102.793-23.135,107.202-18.721c1.104,1.104,0,28.633-2.568,60.947c-3.311,42.588-5.874,59.111-9.18,59.111
				c-5.142,0-124.824,13.574-145.381,16.523C1921.816,2473.691,1915.576,2473.691,1915.576,2472.949z"/>
		</g>
	</g>
	<g transform="translate(0.000000,609.000000) scale(0.100000,-0.100000)">
		<g>
			
				<linearGradient id="SVGID_21_" gradientUnits="userSpaceOnUse" x1="64.0918" y1="-19163.2207" x2="64.5813" y2="-19163.2207" gradientTransform="matrix(8.8323 0 0 13.9352 3196.3701 269091.4688)">
				<stop  offset="0" style="stop-color:#263238"/>
				<stop  offset="1" style="stop-color:#263238"/>
			</linearGradient>
			<path fill="url(#SVGID_21_)" d="M4178.193,2365.39c-2.568-15.791-8.809-42.588-13.945-59.844
				c-35.244-111.24-79.297-138.769-260.664-163.74c-50.293-6.611-95.82-12.48-100.957-12.48c-6.973,0-12.109-4.404-20.928-17.627
				l-11.738-17.256l-3.682-113.447c-6.973-200.088-5.869-215.137,15.059-239.365c27.529-31.582,51.396-35.615,195.684-33.779
				c106.465,1.475,114.912,1.846,133.633,9.551c29.736,11.748,42.949,26.797,53.604,59.844
				c19.082,60.576,26.797,124.824,30.107,253.32c2.197,89.942-4.775,349.512-9.551,358.691
				C4183.339,2391.816,4180.4,2380.801,4178.193,2365.39z"/>
		</g>
	</g>
	<g transform="translate(0.000000,609.000000) scale(0.100000,-0.100000)">
		<g>
			
				<linearGradient id="SVGID_22_" gradientUnits="userSpaceOnUse" x1="176.2158" y1="-19379.0313" x2="176.1718" y2="-19379.8438" gradientTransform="matrix(22.0884 0 0 4.8975 -899.668 97347.8047)">
				<stop  offset="0" style="stop-color:#333333;stop-opacity:0.9953"/>
				<stop  offset="1" style="stop-color:#333333"/>
			</linearGradient>
			<path fill="url(#SVGID_22_)" d="M2451.216,2434.404c-5.503-4.033-11.016-11.748-12.109-16.523
				c-1.104-5.137,0-32.314,3.306-60.576c8.076-78.926,18.721-116.386,34.873-125.195c27.9-15.049,315-29.365,591.084-29.365
				c176.221,0,277.92,4.033,341.436,13.213c46.26,6.973,57.266,11.016,72.314,28.262c19.824,22.773,37.822,93.252,37.822,149.433
				c0,29.004-6.611,36.709-34.512,40.752c-11.748,1.475-247.08,4.033-522.793,5.498l-501.87,2.578L2451.216,2434.404z
				 M2761.806,2430.371c123.354-1.836,316.475-4.404,429.541-5.508c256.631-2.578,301.055-4.404,309.131-12.109
				c4.766-4.775,5.498-11.016,3.301-36.719c-5.498-74.16-24.961-123.711-52.5-135.097c-42.949-17.998-190.537-24.971-480.205-22.402
				c-306.191,2.578-473.965,11.748-490.488,26.797c-12.847,11.748-24.6,62.051-34.507,149.424
				c-2.202,19.824-1.836,21.66,8.813,31.943l11.016,11.016l35.981-1.836C2521.709,2434.765,2638.823,2432.207,2761.806,2430.371z"/>
		</g>
	</g>
	<g transform="translate(0.000000,609.000000) scale(0.100000,-0.100000)">
		<g>
			
				<linearGradient id="SVGID_23_" gradientUnits="userSpaceOnUse" x1="89.5361" y1="-19387.8691" x2="90.0256" y2="-19387.8691" gradientTransform="matrix(10.0305 0 0 6.4491 2666.4375 127768.0313)">
				<stop  offset="0" style="stop-color:#000000;stop-opacity:0.301"/>
				<stop  offset="1" style="stop-color:#000000;stop-opacity:0.301"/>
			</linearGradient>
			<path fill="url(#SVGID_23_)" d="M4027.314,2808.515c-0.371-45.156-1.475-82.979-2.578-83.711
				c-2.568-2.578-113.076-26.074-185.4-39.287c-82.236-15.049-147.949-23.867-178.056-23.867h-22.021l-24.238-26.426
				c-13.213-14.688-30.098-33.779-37.813-42.588c-8.076-8.438-13.584-16.523-12.48-17.256
				c5.137-5.137,310.224,52.139,371.533,69.756c74.531,21.66,120.059,55.439,119.316,88.848c0,5.508-6.24,43.32-13.945,83.34
				l-13.584,73.418L4027.314,2808.515z"/>
		</g>
	</g>
	<g transform="translate(0.000000,609.000000) scale(0.100000,-0.100000)">
		<g>
			
				<linearGradient id="SVGID_24_" gradientUnits="userSpaceOnUse" x1="937.0848" y1="-19449.832" x2="937.4814" y2="-19449.8066" gradientTransform="matrix(1.4252 0 0 6.4875 1005.1395 129308.1641)">
				<stop  offset="0" style="stop-color:#333333;stop-opacity:0.9823"/>
				<stop  offset="1" style="stop-color:#333333"/>
			</linearGradient>
			<path fill="url(#SVGID_24_)" d="M2310.605,3264.121c-5.503-42.954,4.404-132.9,21.66-193.105
				c10.283-35.615,40.02-100.957,45.894-100.957c2.207,0-1.104,9.541-6.973,21.289c-33.774,66.816-53.237,158.965-56.538,266.899
				l-0.732,29.37L2310.605,3264.121z"/>
		</g>
	</g>
	<g transform="translate(0.000000,609.000000) scale(0.100000,-0.100000)">
		<g>
			
				<linearGradient id="SVGID_25_" gradientUnits="userSpaceOnUse" x1="340.2881" y1="-19231.3457" x2="340.1511" y2="-19231.8066" gradientTransform="matrix(7.8 0 0 12.5192 -468.102 244001.8125)">
				<stop  offset="0" style="stop-color:#2A2A2A;stop-opacity:0.9922"/>
				<stop  offset="1" style="stop-color:#2A2A2A"/>
			</linearGradient>
			<path fill="url(#SVGID_25_)" d="M2070.869,3265.957c-44.424-60.576-121.89-196.777-137.31-242.305
				c-15.42-44.053-17.993-70.117-17.993-182.461v-101.328l10.283-2.207c168.511-35.977,275.718-54.707,339.595-59.844l31.938-2.568
				l-2.202,12.48c-13.95,75.635-36.348,173.291-51.768,225.049c-11.743,38.184-27.529,58.379-66.45,84.443
				c-42.217,27.9-175.483,90.317-193.105,90.317c-2.944,0-6.24,1.47-7.344,2.939c-2.207,3.672,51.396,96.187,89.209,154.189
				C2095.469,3290.18,2098.769,3304.14,2070.869,3265.957z M2035.259,3061.836c87.378-37.451,153.091-76.738,178.794-106.475
				c12.847-15.049,23.496-45.156,39.653-110.137c9.18-37.451,32.676-150.166,32.676-157.139c0-4.033-5.503-4.395-24.6-2.568
				c-64.243,6.24-215.503,33.047-312.427,55.068l-27.163,6.25l1.47,116.006l1.47,116.377l11.743,34.873
				c6.606,19.092,17.256,42.959,23.13,52.861C1973.579,3088.628,1973.213,3088.628,2035.259,3061.836z"/>
		</g>
	</g>
	<g transform="translate(0.000000,609.000000) scale(0.100000,-0.100000)">
		<g>
			
				<linearGradient id="SVGID_26_" gradientUnits="userSpaceOnUse" x1="67.5049" y1="-19521.209" x2="67.9944" y2="-19521.209" gradientTransform="matrix(7.7935 0 0 3.8178 3170.0908 76934.6484)">
				<stop  offset="0" style="stop-color:#000000;stop-opacity:0.301"/>
				<stop  offset="1" style="stop-color:#000000;stop-opacity:0.301"/>
			</linearGradient>
			<path fill="url(#SVGID_26_)" d="M3878.984,2478.828l-182.822-20.195v-73.057c0-67.178,0.361-72.686,6.602-72.686
				c8.818,0,170.351,20.918,215.508,27.891c20.186,2.949,51.025,8.818,68.652,12.852c28.271,6.611,33.408,9.18,45.156,22.402
				c15.42,16.885,24.6,36.338,37.08,79.658c11.016,38.545,11.377,44.424,0.742,44.053
				C4065.117,2499.394,3979.218,2490.215,3878.984,2478.828z M4055.947,2489.472c0-6.23-21.66-73.789-27.168-84.434
				c-12.842-24.609-41.113-36.719-106.465-45.527l-36.348-5.137l2.578,44.414c1.094,24.609,3.301,52.139,4.395,61.318l2.207,16.885
				l66.816,7.344C4039.794,2493.144,4055.947,2493.877,4055.947,2489.472z"/>
		</g>
	</g>
	<g transform="translate(0.000000,609.000000) scale(0.100000,-0.100000)">
		<g>
			
				<linearGradient id="SVGID_27_" gradientUnits="userSpaceOnUse" x1="264.4824" y1="-19401.502" x2="264.9719" y2="-19401.502" gradientTransform="matrix(9.985 0 0 6.2475 -751.9493 123963.0547)">
				<stop  offset="0" style="stop-color:#000000;stop-opacity:0.301"/>
				<stop  offset="1" style="stop-color:#000000;stop-opacity:0.301"/>
			</linearGradient>
			<path fill="url(#SVGID_27_)" d="M1899.785,2829.804c-16.152-86.27-15.786-89.219,11.382-113.809
				c30.84-27.91,75.996-44.795,180.63-66.816c100.229-21.299,263.232-49.941,283.423-49.941c6.606,0,1.104,7.344-29.736,38.184
				l-37.817,37.822l-37.08,2.568c-64.609,4.043-168.14,22.031-344.736,59.844l-10.283,1.836l-0.732,82.969l-1.104,82.617
				L1899.785,2829.804z"/>
		</g>
	</g>
	<g transform="translate(0.000000,609.000000) scale(0.100000,-0.100000)">
		<g>
			
				<linearGradient id="SVGID_28_" gradientUnits="userSpaceOnUse" x1="307.5049" y1="-19513.4551" x2="307.9944" y2="-19513.4551" gradientTransform="matrix(7.8282 0 0 3.8325 -511.3698 77169.5859)">
				<stop  offset="0" style="stop-color:#000000;stop-opacity:0.301"/>
				<stop  offset="1" style="stop-color:#000000;stop-opacity:0.301"/>
			</linearGradient>
			<path fill="url(#SVGID_28_)" d="M1899.419,2455.332c17.627-75.996,37.08-107.949,72.69-118.594
				c24.6-7.334,110.508-21.289,202.29-33.037c40.386-5.137,80.4-9.912,89.214-11.377l15.42-1.836v73.418
				c0,40.762-0.737,73.789-1.836,73.789c-1.104,0-84.077,9.189-184.668,20.195c-100.229,11.016-186.133,20.195-190.537,20.195
				C1894.282,2478.086,1894.282,2477.724,1899.419,2455.332z M2006.626,2463.398c35.239-4.023,65.713-7.334,68.286-7.334
				c3.306,0,5.874-16.523,9.18-59.111c2.573-32.305,3.677-59.844,2.573-60.938c-4.404-4.414-89.214,10.645-107.207,18.711
				c-25.698,11.748-35.61,26.797-51.03,75.264c-6.973,22.764-12.847,42.217-12.847,42.959c0,0.732,6.24,0.732,13.95-0.371
				C1936.865,2471.484,1971.748,2467.441,2006.626,2463.398z"/>
		</g>
	</g>
	<g transform="translate(0.000000,609.000000) scale(0.100000,-0.100000)">
		<g>
			
				<linearGradient id="SVGID_29_" gradientUnits="userSpaceOnUse" x1="152.2168" y1="-19742.0879" x2="152.7063" y2="-19742.0879" gradientTransform="matrix(33.4172 0 0 2.807 -3183.2871 57975.7031)">
				<stop  offset="0" style="stop-color:#000000;stop-opacity:0.301"/>
				<stop  offset="1" style="stop-color:#000000;stop-opacity:0.301"/>
			</linearGradient>
			<path fill="url(#SVGID_29_)" d="M1909.702,2620.537c42.217-33.77,139.507-75.996,226.523-98.018
				c118.584-30.117,204.854-36.348,407.144-30.479c237.168,7.344,784.932,38.545,974.727,55.811
				c32.314,2.93,29.375,2.93-25.693,1.465c-186.143-4.766-566.855-5.869-747.119-1.836c-373.369,8.076-526.46,17.988-681.025,44.785
				c-41.484,7.344-141.714,29.004-157.871,34.512C1901.26,2628.613,1901.992,2626.777,1909.702,2620.537z"/>
		</g>
	</g>
	<g transform="translate(0.000000,609.000000) scale(0.100000,-0.100000)">
		<g>
			
				<linearGradient id="SVGID_30_" gradientUnits="userSpaceOnUse" x1="86.1914" y1="-19326.2578" x2="86.4018" y2="-19326.6191" gradientTransform="matrix(7.4451 0 0 8.1719 3128.0417 160890.25)">
				<stop  offset="0" style="stop-color:#FFFFFF;stop-opacity:0.949"/>
				<stop  offset="1" style="stop-color:#FFFFFF;stop-opacity:0.9505"/>
			</linearGradient>
			<path fill="url(#SVGID_30_)" d="M3934.794,3057.793c-41.855-16.895-134.736-63.145-160.439-80.4
				c-40.02-26.426-54.697-44.053-65.342-78.193c-16.152-49.932-55.078-225.801-51.035-229.824
				c5.508-5.879,167.422,19.824,286.006,44.785l73.418,15.781l2.939,43.691c4.404,68.291,0.371,171.445-8.438,205.957
				c-7.715,30.107-30.107,81.875-37.822,86.641C3967.47,3070.273,3964.902,3069.902,3934.794,3057.793z"/>
		</g>
	</g>
	<g transform="translate(0.000000,609.000000) scale(0.100000,-0.100000)">
		<g>
			
				<linearGradient id="SVGID_31_" gradientUnits="userSpaceOnUse" x1="438.3837" y1="-19597.6641" x2="437.9578" y2="-19597.7578" gradientTransform="matrix(4.8761 0 0 4.6336 135.1623 93932.7578)">
				<stop  offset="0" style="stop-color:#FFFFFF;stop-opacity:0.3035"/>
				<stop  offset="1" style="stop-color:#FFFFFF;stop-opacity:0.3044"/>
			</linearGradient>
			<path fill="url(#SVGID_31_)" d="M2143.926,3202.441c-11.016-31.211-33.77-77.471-46.992-94.717
				c-5.508-7.344-15.786-16.523-23.13-20.19l-13.218-6.616l9.18-4.023c5.142-2.207,38.184-14.688,73.428-28.271
				c35.239-13.584,77.1-30.107,92.52-37.08c24.233-11.016,30.84-12.48,44.79-10.645c9.18,1.465,17.627,4.023,18.721,6.23
				c1.47,1.836-27.168,52.139-63.149,111.611c-57.642,95.454-66.45,108.301-74.531,108.301
				C2153.476,3227.041,2151.269,3224.101,2143.926,3202.441z"/>
		</g>
	</g>
	<g transform="translate(0.000000,609.000000) scale(0.100000,-0.100000)">
		<g>
			
				<linearGradient id="SVGID_32_" gradientUnits="userSpaceOnUse" x1="166.289" y1="-19347.6348" x2="166.5827" y2="-19348.623" gradientTransform="matrix(24.9207 0 0 6.895 -1343.3132 136385.5625)">
				<stop  offset="0" style="stop-color:#FFFFFF;stop-opacity:0.8505"/>
				<stop  offset="1" style="stop-color:#FFFFFF;stop-opacity:0.8505"/>
			</linearGradient>
			<path fill="url(#SVGID_32_)" d="M2393.579,2951.699c-22.764-13.955-26.431-24.98-26.431-82.617
				c0-153.818,43.32-224.316,145.02-236.797c87.378-10.273,480.576-13.945,853.574-7.705l141.348,2.207l17.627,10.283
				c41.113,24.229,51.396,54.707,59.102,174.756c6.24,96.182,4.775,106.475-16.885,122.256
				c-10.654,7.344-16.895,8.076-127.393,10.645c-116.748,3.32-897.275,14.316-986.118,14.316
				C2412.3,2959.033,2403.862,2957.929,2393.579,2951.699z M2486.46,2800.058c14.688-117.842,15.054-120.039,7.71-117.842
				c-31.577,9.912-57.271,33.047-72.324,65.342c-12.847,27.539-17.988,58.75-17.988,107.578c0,34.883,0.732,38.184,9.546,48.457
				c10.283,12.48,26.069,18.721,45.522,17.627l12.852-0.732L2486.46,2800.058z M2618.999,2917.177
				c0.366,0,3.677-56.162,7.71-124.453l6.606-124.092l-40.386,2.578c-22.026,1.465-40.757,2.568-41.113,2.93
				c-0.371,0-5.508,50.664-11.748,112.344s-12.109,117.119-13.213,122.988l-1.836,11.387l46.626-1.475
				C2597.7,2918.652,2618.999,2917.539,2618.999,2917.177z M2757.407,2827.969c1.47-50.293,2.568-107.207,2.568-127.402v-36.348
				l-37.446,2.949c-20.923,1.465-38.55,3.301-39.282,4.033c-0.737,0.732-2.573,41.475-4.404,90.313
				c-1.47,49.189-3.677,104.639-4.771,123.35l-1.47,33.779h41.113h41.484L2757.407,2827.969z M2840.747,2905.429
				c6.973-5.137,25.698-18.359,41.113-29.365c32.676-23.506,29.004-12.119,39.653-117.119c4.033-40.381,8.076-77.832,9.18-83.34
				l1.836-10.273h-56.533h-56.533l-2.207,23.125c-1.104,12.48-2.939,59.844-4.033,105.371c-1.099,45.527-2.944,92.148-4.038,104.258
				l-2.202,21.66l10.283-2.568C2823.12,2915.713,2833.769,2910.566,2840.747,2905.429z M3083.047,2912.041
				c0-1.836-16.523-14.316-36.709-27.529l-36.719-24.609h-33.77h-33.77l-37.817,24.971c-20.557,13.584-37.817,25.703-37.817,27.529
				c0,1.475,48.828,2.578,108.301,2.578S3083.047,2913.515,3083.047,2912.041z M3140.322,2827.969
				c-1.104-46.27-3.301-101.328-4.404-122.988l-2.568-39.648h-54.336h-54.707v10.273c0,21.299,17.998,174.395,20.928,177.324
				c1.465,1.475,18.359,15.059,37.08,30.469c28.633,23.135,36.709,27.91,47.363,27.91h13.213L3140.322,2827.969z M3276.162,2831.64
				c-1.104-44.063-3.311-99.492-4.404-122.988l-2.578-43.32h-39.648h-40.02l1.836,35.977c1.104,19.453,2.939,74.902,4.033,122.988
				l2.207,87.012h40.752h40.391L3276.162,2831.64z M3424.482,2903.222c0.371-2.568-5.137-57.266-11.738-121.152l-11.748-116.738
				h-41.855h-41.475l2.197,21.289c1.104,11.377,3.682,53.232,5.508,92.52c2.207,39.277,4.775,84.443,5.869,100.234l2.207,28.262
				h45.527C3412.734,2907.636,3424.482,2906.533,3424.482,2903.222z M3529.844,2898.086c4.775-2.93,9.551-9.541,10.654-15.049
				c1.465-5.498,0-42.217-3.311-81.133c-6.611-81.143-10.283-91.045-41.846-110.869c-16.162-10.293-40.762-20.566-43.32-17.637
				c-0.371,0.371,5.498,52.5,13.213,114.922c7.705,62.783,14.316,114.922,14.316,116.016
				C3479.551,2908.379,3521.767,2903.222,3529.844,2898.086z"/>
		</g>
	</g>
	<g transform="translate(0.000000,609.000000) scale(0.100000,-0.100000)">
		<g>
			
				<linearGradient id="SVGID_33_" gradientUnits="userSpaceOnUse" x1="144.1992" y1="-19365.3887" x2="144.6887" y2="-19365.3887" gradientTransform="matrix(34.05 0 0 9.8123 -2774.321 193581.1563)">
				<stop  offset="0" style="stop-color:#BDE6FE;stop-opacity:0.2095"/>
				<stop  offset="1" style="stop-color:#BDE6FE;stop-opacity:0.2095"/>
			</linearGradient>
			<path fill="url(#SVGID_33_)" d="M2408.999,3799.394c-49.927-2.939-79.297-7.71-98.022-15.42
				c-11.377-4.771-16.157-12.48-51.396-81.87c-70.493-139.507-123.721-268.74-123.721-300.684c0-20.923,10.283-41.851,28.267-56.533
				c29.37-24.233-34.141-22.397,842.563-22.397h795.937v19.458c0,28.267-7.705,53.97-41.846,140.244
				c-66.816,167.773-116.748,276.45-131.435,285.996c-41.113,25.332-282.324,35.61-838.154,34.507
				C2605.41,3802.705,2433.598,3801.23,2408.999,3799.394z M2808.437,3771.128l17.256-2.573l-73.794-135.84
				c-40.386-74.526-90.313-168.145-110.874-207.427l-37.08-71.221l-16.152-4.771c-31.577-9.18-130.327-13.213-260.664-10.649
				c-69.39,1.104-127.026,2.939-128.13,4.033c-3.672,3.677,85.547,236.431,122.261,319.404
				c27.896,62.417,35.605,74.526,54.336,82.603c29.37,12.852,112.71,23.501,210,26.802
				C2647.636,3773.691,2791.914,3773.325,2808.437,3771.128z"/>
		</g>
	</g>
	<g transform="translate(0.000000,609.000000) scale(0.100000,-0.100000)">
		<g>
			
				<linearGradient id="SVGID_34_" gradientUnits="userSpaceOnUse" x1="181.1621" y1="-19883.9824" x2="181.6369" y2="-19883.6895" gradientTransform="matrix(16.0335 0 0 3.0227 -386.0047 63165.0625)">
				<stop  offset="0" style="stop-color:#FFFFFF;stop-opacity:0.3048"/>
				<stop  offset="1" style="stop-color:#FFFFFF;stop-opacity:0.3051"/>
			</linearGradient>
			<path fill="url(#SVGID_34_)" d="M2400.185,3153.984c0-4.038-4.766-11.377-11.016-16.157
				c-13.213-11.377-13.213-13.95-2.207-77.837l8.081-47.725l12.48,0.371c6.973,0.361,59.106,2.568,115.64,4.766
				c56.538,2.207,223.95,4.033,371.904,4.033c147.588,0,268.74,1.104,268.74,2.939c0,1.465-10.654,16.895-23.496,34.141
				l-23.496,31.572l-28.643,2.573c-65.713,5.142-319.399,17.261-431.006,20.557c-122.988,3.311-143.916,5.874-194.58,22.397
				c-13.218,4.404-31.943,11.743-41.851,16.523C2398.716,3162.788,2400.185,3162.427,2400.185,3153.984z"/>
		</g>
	</g>
	<g transform="translate(0.000000,609.000000) scale(0.100000,-0.100000)">
		<g>
			
				<linearGradient id="SVGID_35_" gradientUnits="userSpaceOnUse" x1="204.1211" y1="-19395.7793" x2="204.6106" y2="-19395.7793" gradientTransform="matrix(12.8048 0 0 8.8883 -414.8373 175950.3594)">
				<stop  offset="0" style="stop-color:#D2E9FE;stop-opacity:0.4684"/>
				<stop  offset="1" style="stop-color:#D2E9FE;stop-opacity:0.4684"/>
			</linearGradient>
			<path fill="url(#SVGID_35_)" d="M2585.586,3771.494c-97.29-3.306-180.63-13.95-210-26.797
				c-18.721-8.076-26.431-20.19-54.336-82.603c-36.714-82.974-125.923-315.737-122.256-319.404
				c1.099-1.104,58.74-2.939,128.13-4.033c130.327-2.573,229.087,1.47,260.659,10.649l16.157,4.771l37.08,71.216
				c20.557,39.287,70.493,132.9,110.874,207.432l73.789,135.84l-17.256,2.568
				C2791.914,3773.325,2647.636,3773.691,2585.586,3771.494z"/>
		</g>
	</g>
</g>
<g>
	
		<linearGradient id="SVGID_36_" gradientUnits="userSpaceOnUse" x1="1.8452" y1="-200.0596" x2="2.335" y2="-200.0596" gradientTransform="matrix(497.2252 0 0 -379.9166 -740.6777 -75912.3125)">
		<stop  offset="0" style="stop-color:#FE715D"/>
		<stop  offset="1" style="stop-color:#FE715D"/>
	</linearGradient>
	<path fill="url(#SVGID_36_)" d="M236.655,1.343c-4.402,1.395-8.587,5.505-11.782,11.64c-4.703,9.03-12.667,30.255-16.74,44.64
		c-0.735,2.498-1.65,4.478-3.855,8.078c-5.542,9.217-10.425,18.322-13.47,25.185c-0.585,1.32-2.272,3.968-3.78,5.873
		c-3.637,4.627-7.597,10.65-8.887,13.47c-1.433,3.083-1.575,5.947-1.103,18.098c0.772,18.87,2.092,30.105,4.222,36.532
		c1.575,4.703,2.64,6.57,4.92,8.7c3.6,3.375,8.737,5.07,20.452,6.72c22.613,3.195,44.31,5.213,64.875,6.098
		c12.338,0.518,56.355-0.075,68.581-0.953c25.439-1.8,56.534-5.467,62.228-7.342c8.407-2.752,11.272-5.655,13.949-14.138
		c2.093-6.72,3.45-20.632,3.743-38.55l0.18-12.667l-0.952-2.205c-1.216-2.678-5.505-9.217-9.218-13.95
		c-1.508-1.942-3.195-4.552-3.705-5.797c-2.31-5.505-7.38-14.978-12.848-24.157c-3.12-5.175-3.6-6.203-5.07-11.198
		c-4.845-16.192-12.074-35.063-16.597-43.357c-3.045-5.618-7.088-9.397-11.415-10.755c-2.348-0.735-3.232-0.735-61.936-0.698
		C240.473,0.607,238.86,0.645,236.655,1.343z"/>
</g>
<g>
	
		<linearGradient id="SVGID_37_" gradientUnits="userSpaceOnUse" x1="2.7129" y1="-204.9697" x2="3.2021" y2="-204.9697" gradientTransform="matrix(252.7411 0 0 -71.1254 -253.1922 -14108.957)">
		<stop  offset="0" style="stop-color:#263238"/>
		<stop  offset="1" style="stop-color:#263238"/>
	</linearGradient>
	<path fill="url(#SVGID_37_)" d="M435.525,452.82c-2.018,1.027-2.828,2.752-2.978,6.607c-0.181,3.967,0.442,10.83,1.215,13.912
		c1.395,5.325,4.147,9.285,7.747,11.048c2.828,1.395,7.418,1.875,21.811,2.385c15.569,0.548,81.72,0.18,84.255-0.442
		c3.232-0.811,6.165-4.373,7.087-8.588c0.256-1.027,0.698-5.768,0.99-10.612l0.585-8.737l-0.847-1.688
		c-1.575-3.195-1.283-3.12-14.506-3.413c-16.522-0.404-72.84-1.064-89.872-1.064C438.645,452.228,436.553,452.34,435.525,452.82z"/>
</g>
<g>
	
		<linearGradient id="SVGID_38_" gradientUnits="userSpaceOnUse" x1="2.8115" y1="-228.73" x2="3.3013" y2="-228.73" gradientTransform="matrix(44.25 0 0 -11.25 162.9688 -2154.0859)">
		<stop  offset="0" style="stop-color:#F5F5F5"/>
		<stop  offset="1" style="stop-color:#F5F5F5"/>
	</linearGradient>
	<path fill="url(#SVGID_38_)" stroke="#000000" stroke-miterlimit="10" d="M287.393,416.625c0,0.18,1.725,1.395,3.78,2.752
		l3.78,2.498h3.375h3.375l3.676-2.46c2.017-1.32,3.675-2.573,3.675-2.753c0-0.149-4.883-0.292-10.83-0.292
		C292.275,416.37,287.393,416.475,287.393,416.625z"/>
</g>
<g>
	
		<linearGradient id="SVGID_39_" gradientUnits="userSpaceOnUse" x1="2.8198" y1="-204.8896" x2="3.3091" y2="-204.8896" gradientTransform="matrix(49.239 0 0 -46.8436 313.8061 -9315.7891)">
		<stop  offset="0" style="stop-color:#FF9D8F"/>
		<stop  offset="1" style="stop-color:#FF9D8F"/>
	</linearGradient>
	<path fill="url(#SVGID_39_)" d="M465.713,271.065c-0.66,0.66-13.253,21.48-13.073,21.623c0.075,0.038,0.99,0.292,2.056,0.518
		c1.762,0.367,2.018,0.33,3.487-0.48c1.688-0.915,8.258-3.6,14.535-5.873c3.742-1.357,4.845-2.018,3.412-2.018
		c-1.875,0-5.287-5.212-7.598-11.49C467.438,270.405,466.853,269.925,465.713,271.065z"/>
</g>
<g>
	
		<linearGradient id="SVGID_40_" gradientUnits="userSpaceOnUse" x1="2.0439" y1="-206.4219" x2="2.5332" y2="-206.4219" gradientTransform="matrix(216.5381 0 0 -44.8803 -181.5787 -8765.8115)">
		<stop  offset="0" style="stop-color:#455A64"/>
		<stop  offset="1" style="stop-color:#455A64"/>
	</linearGradient>
	<path fill="url(#SVGID_40_)" d="M261.99,488.58c-1.065,1.027-1.103,1.215-0.878,3.195c0.99,8.737,2.167,13.77,3.45,14.939
		c1.65,1.508,18.428,2.423,49.05,2.678c28.965,0.255,43.726-0.442,48.022-2.242c2.753-1.141,4.703-6.098,5.25-13.508
		c0.218-2.572,0.15-3.195-0.33-3.675c-0.81-0.772-5.25-0.953-30.915-1.215c-27.127-0.256-64.432-0.848-68.947-1.103l-3.6-0.181
		L261.99,488.58z"/>
</g>
<g>
	
		<linearGradient id="SVGID_41_" gradientUnits="userSpaceOnUse" x1="1.8999" y1="-202.3931" x2="2.3892" y2="-202.3931" gradientTransform="matrix(74.4 0 0 -81.3392 -75.1356 -16171.123)">
		<stop  offset="0" style="stop-color:#F5F5F5"/>
		<stop  offset="1" style="stop-color:#F5F5F5"/>
	</linearGradient>
	<path fill="url(#SVGID_41_)" stroke="#000000" stroke-miterlimit="10" d="M69.998,273.053c-0.585,0.99-1.65,3.375-2.31,5.287
		l-1.178,3.488l-0.15,11.64l-0.15,11.603l2.715,0.622c9.69,2.205,24.818,4.883,31.245,5.505c1.913,0.18,2.46,0.15,2.46-0.255
		c0-0.697-2.347-11.97-3.27-15.712c-1.612-6.495-2.677-9.51-3.967-11.018c-2.573-2.97-9.143-6.9-17.88-10.65
		C71.325,270.885,71.355,270.885,69.998,273.053z"/>
</g>
<g>
	
		<linearGradient id="SVGID_42_" gradientUnits="userSpaceOnUse" x1="2.9619" y1="-200.7222" x2="2.8789" y2="-201.5235" gradientTransform="matrix(357.1564 7.0005 2.1002 -107.15 -114.0902 -21482.4375)">
		<stop  offset="0" style="stop-color:#1E2F36"/>
		<stop  offset="1" style="stop-color:#3B383B"/>
	</linearGradient>
	<path fill="url(#SVGID_42_)" d="M441.741,43.796c-5.517,0.442-5.106,0.189-7.515,4.953c-9.789,19.712-17.406,39.318-17.518,45.153
		l-0.034,1.688l57.557,0.905c31.644,0.472,70.957,1.13,87.405,1.458l29.879,0.586l-0.154-3.235
		c-0.116-3.457-0.493-4.714-5.261-18.211c-6.401-18.231-10.352-28.074-11.591-28.794c-1.238-0.687-6.545-1.229-17.33-1.847
		C544.335,45.73,445.822,43.468,441.741,43.796z"/>
</g>
<g>
	
		<linearGradient id="SVGID_43_" gradientUnits="userSpaceOnUse" x1="1.8286" y1="-213.2876" x2="1.8286" y2="-212.5778" gradientTransform="matrix(489.7704 0 0 -29.3933 -726.5093 -5727.4619)">
		<stop  offset="0" style="stop-color:#392A2A"/>
		<stop  offset="1" style="stop-color:#10323D"/>
	</linearGradient>
	<path fill="url(#SVGID_43_)" d="M286.357,530.168c-4.732,3.675-11.97,6.682-19.492,8.22c-13.253,2.678-38.805,3.524-96.555,3.195
		c-55.11-0.33-67.882-0.811-83.708-3.008c-7.672-1.065-18.69-3.12-23.678-4.373c-2.902-0.734-11.527-3.412-13.11-4.072
		c-0.255-0.112-0.48-0.075-0.48,0.112c0,0.33,6.825,2.753,11.565,4.11c10.32,2.97,24.855,5.325,39.833,6.428
		c31.868,2.385,97.29,2.64,143.917,0.585c17.22-0.772,26.835-2.535,34.988-6.428c4.26-1.979,10.02-6.022,9.397-6.57
		C288.967,528.293,287.752,529.103,286.357,530.168z"/>
</g>
<g>
	
		<linearGradient id="SVGID_44_" gradientUnits="userSpaceOnUse" x1="4.0991" y1="-201.9419" x2="3.5704" y2="-201.6923" gradientTransform="matrix(77.3311 0 0 -129.7427 273.0738 -25871.3789)">
		<stop  offset="0" style="stop-color:#20292E"/>
		<stop  offset="1" style="stop-color:#28353C"/>
	</linearGradient>
	<path fill="url(#SVGID_44_)" d="M571.05,274.928c0,0.15,0.878,1.612,1.942,3.27c1.98,3.045,6.465,10.793,9.397,16.155
		c1.396,2.572,1.471,2.865,0.848,2.865c-1.979,0-14.76,5.835-19.35,8.85c-4.223,2.753-5.768,4.515-6.9,7.928
		c-1.507,4.628-5.399,21.659-5.399,23.677c0,0.848,1.942,0.878,7.89,0.076c7.492-0.953,29.19-5.176,29.775-5.768
		c0.112-0.113,0.18-4.958,0.18-10.756c0.037-14.467-0.18-15.457-5.58-25.77c-3.525-6.758-6.277-11.603-9.18-16.08
		C572.737,276.397,571.05,274.305,571.05,274.928z"/>
</g>
<g>
	
		<linearGradient id="SVGID_45_" gradientUnits="userSpaceOnUse" x1="2.1226" y1="-210.3613" x2="2.6118" y2="-210.3613" gradientTransform="matrix(472.855 0 0 -31.309 -692.9209 -6035.7632)">
		<stop  offset="0" style="stop-color:#263238"/>
		<stop  offset="1" style="stop-color:#263238"/>
	</linearGradient>
	<path fill="url(#SVGID_45_)" d="M534.945,544.245c-36.9,9.218-77.138,13.657-117.848,13.072
		c-34.178-0.518-65.348-4.072-99.016-11.31c-6.682-1.433-7.747-1.613-7.38-1.245c0.33,0.33,14.063,3.337,22.32,4.92
		c28.418,5.362,54.555,7.965,84.075,8.37c41.482,0.585,79.522-3.675,117.518-13.11c3.308-0.81,6.353-1.65,6.757-1.838l0.735-0.329
		l-0.735,0.037C540.968,542.82,538.065,543.48,534.945,544.245z"/>
</g>
<g>
	
		<linearGradient id="SVGID_46_" gradientUnits="userSpaceOnUse" x1="2.022" y1="-201.2617" x2="2.5117" y2="-201.2617" gradientTransform="matrix(88.3228 0 0 -151.7783 -128.1193 -30104.2578)">
		<stop  offset="0" style="stop-color:#263238"/>
		<stop  offset="1" style="stop-color:#263238"/>
	</linearGradient>
	<path fill="url(#SVGID_46_)" d="M51.458,410.295c-1.65,35.1-1.178,51.143,1.837,61.567c2.093,7.163,4.59,8.115,21.442,8.152
		c4.335,0,9.03-0.18,10.388-0.367c4.478-0.66,7.268-2.678,8.333-6.06c0.48-1.433,0.368-13.141-0.255-25.771l-0.218-4.845
		l-1.507-0.218c-20.595-2.827-22.245-3.157-27.353-5.58c-2.422-1.178-5.175-3.6-6.465-5.797c-2.385-4.073-4.44-12.96-5.175-22.103
		C52.118,404.205,51.72,404.572,51.458,410.295z"/>
</g>
<g>
	
		<linearGradient id="SVGID_47_" gradientUnits="userSpaceOnUse" x1="3.415" y1="-207.3291" x2="3.9043" y2="-207.3291" gradientTransform="matrix(57.005 0 0 -35.2411 -81.1659 -7059.9727)">
		<stop  offset="0" style="stop-color:#FE725E"/>
		<stop  offset="1" style="stop-color:#FE725E"/>
	</linearGradient>
	<path fill="url(#SVGID_47_)" d="M126.54,238.163c-5.4,0.623-8.04,1.98-10.245,5.212c-1.688,2.498-2.79,5.73-2.79,8.333
		c0,3.563-0.518,3.413,13.328,3.45c8.925,0.037,12.007-0.075,12.63-0.443c1.32-0.735,1.942-3.6,1.942-8.662
		c0-5.033-0.405-7.013-1.545-7.598C138.84,237.908,130.283,237.728,126.54,238.163z"/>
</g>
<g>
	
		<linearGradient id="SVGID_48_" gradientUnits="userSpaceOnUse" x1="3.2646" y1="-209.9863" x2="3.7544" y2="-209.9863" gradientTransform="matrix(63.5302 0 0 -26.8782 -87.9423 -5370.5234)">
		<stop  offset="0" style="stop-color:#263238"/>
		<stop  offset="1" style="stop-color:#263238"/>
	</linearGradient>
	<path fill="url(#SVGID_48_)" d="M148.958,267.232c-1.763,0.368-3.007,1.8-3.705,4.223c-0.255,0.877-0.81,1.762-1.282,2.018
		c-0.623,0.367-3.705,0.48-12.667,0.442c-6.495,0-11.82,0.075-11.82,0.18c0,0.66,1.575,2.677,2.348,2.94
		c0.735,0.292,15.57,1.14,19.973,1.14c1.177,0,1.612,0.15,1.762,0.623c0.623,2.018,0.66,1.98,3.007-1.837
		c1.508-2.535,2.573-4.808,3.195-6.862c0.48-1.725,0.848-3.12,0.81-3.12C150.533,266.94,149.797,267.045,148.958,267.232z"/>
</g>
<g>
	
		<linearGradient id="SVGID_49_" gradientUnits="userSpaceOnUse" x1="2.2485" y1="-206.3857" x2="2.7383" y2="-206.3857" gradientTransform="matrix(34.725 0 0 -28.1383 385.513 -5436.9248)">
		<stop  offset="0" style="stop-color:#E7EFE3"/>
		<stop  offset="1" style="stop-color:#E7EFE3"/>
	</linearGradient>
	<path fill="url(#SVGID_49_)" stroke="#000000" stroke-miterlimit="10" d="M471.195,364.32l-6.683,0.734l-0.218,1.688
		c-0.112,0.916-0.33,3.676-0.442,6.128l-0.255,4.44l3.638-0.518c6.532-0.878,9.359-2.093,10.649-4.553
		c0.548-1.065,2.715-7.822,2.715-8.445C480.593,363.359,478.98,363.436,471.195,364.32z"/>
</g>
<g>
	
		<linearGradient id="SVGID_50_" gradientUnits="userSpaceOnUse" x1="6.8115" y1="-202.2241" x2="7.3018" y2="-202.2241" gradientTransform="matrix(14.7213 0 0 -64.2846 349.9681 -12808.7578)">
		<stop  offset="0" style="stop-color:#263238"/>
		<stop  offset="1" style="stop-color:#263238"/>
	</linearGradient>
	<path fill="url(#SVGID_50_)" d="M456.645,181.17c-0.255,8.737-2.092,16.703-5.287,23.018c-0.697,1.357-1.178,2.572-1.103,2.64
		c0.255,0.255,0.878-0.66,2.205-3.337c3.045-6.128,4.628-13.253,4.92-22.14c0.15-3.893,0.075-5.948-0.149-5.948
		C457.005,175.402,456.795,177.683,456.645,181.17z"/>
</g>
<g>
	
		<linearGradient id="SVGID_51_" gradientUnits="userSpaceOnUse" x1="1.5542" y1="-206.8096" x2="2.0435" y2="-206.8096" gradientTransform="matrix(57.3726 0 0 -34.775 358.1575 -6964.2617)">
		<stop  offset="0" style="stop-color:#FF725E"/>
		<stop  offset="1" style="stop-color:#FF725E"/>
	</linearGradient>
	<path fill="url(#SVGID_51_)" d="M449.423,219.24c-1.726,0.33-2.093,1.612-2.093,7.455c0.037,5.505,0.442,7.965,1.545,8.85
		c0.48,0.405,3.008,0.518,12.81,0.518c11.453,0,12.226-0.038,12.96-0.697c0.953-0.878,1.028-2.94,0.181-5.768
		c-0.848-2.865-1.838-4.59-3.675-6.57c-2.018-2.167-4.261-3.157-8.221-3.637C459.96,218.978,451.147,218.91,449.423,219.24z"/>
</g>
<g>
	
		<linearGradient id="SVGID_52_" gradientUnits="userSpaceOnUse" x1="1.6118" y1="-210.5786" x2="2.1016" y2="-210.5786" gradientTransform="matrix(60.0001 0 0 -22.9753 348.6022 -4588.6479)">
		<stop  offset="0" style="stop-color:#263238"/>
		<stop  offset="1" style="stop-color:#263238"/>
	</linearGradient>
	<path fill="url(#SVGID_52_)" d="M445.32,244.32c0,1.358,1.357,4.515,3.194,7.56c1.575,2.61,2.205,3.337,2.641,3.158
		c0.33-0.113,4.072-0.368,8.295-0.547c9.104-0.368,12.188-0.585,13.072-1.065c0.518-0.292,2.168-2.535,2.168-2.97
		c0-0.075-5.506-0.15-12.226-0.15c-13.695,0-13.215,0.112-13.875-2.64C448.005,245.453,445.32,242.663,445.32,244.32z"/>
</g>
<g>
	
		<linearGradient id="SVGID_53_" gradientUnits="userSpaceOnUse" x1="4.2109" y1="-206.7725" x2="4.7002" y2="-206.7725" gradientTransform="matrix(35.0368 0 0 -28.2412 -17.4796 -5453.6768)">
		<stop  offset="0" style="stop-color:#E6EEE2"/>
		<stop  offset="1" style="stop-color:#E6EEE2"/>
	</linearGradient>
	<path fill="url(#SVGID_53_)" stroke="#000000" stroke-miterlimit="10" d="M130.058,378.953c0,0.074,0.585,2.018,1.282,4.297
		c1.545,4.846,2.535,6.353,5.1,7.522c1.8,0.81,10.283,2.31,10.718,1.875c0.112-0.112,0-2.864-0.255-6.098
		c-0.33-4.26-0.585-5.909-0.915-5.909c-0.517,0-12.48-1.357-14.535-1.65C130.68,378.877,130.058,378.877,130.058,378.953z"/>
</g>
<g>
	
		<linearGradient id="SVGID_54_" gradientUnits="userSpaceOnUse" x1="2.5005" y1="-201.0254" x2="2.9897" y2="-201.0254" gradientTransform="matrix(88.3227 0 0 -139.3519 279.9036 -27603.1309)">
		<stop  offset="0" style="stop-color:#263238"/>
		<stop  offset="1" style="stop-color:#263238"/>
	</linearGradient>
	<path fill="url(#SVGID_54_)" d="M542.317,378.465c-0.255,1.575-0.877,4.26-1.395,5.985c-3.525,11.122-7.928,13.875-26.07,16.372
		c-5.032,0.66-9.585,1.245-10.095,1.245c-0.698,0-1.215,0.442-2.093,1.763l-1.178,1.725l-0.367,11.348
		c-0.697,20.01-0.585,21.518,1.508,23.94c2.752,3.157,5.137,3.563,19.567,3.375c10.649-0.15,11.49-0.181,13.365-0.953
		c2.977-1.178,4.297-2.678,5.362-5.984c1.912-6.061,2.677-12.48,3.007-25.335c0.218-8.992-0.479-34.95-0.952-35.865
		C542.835,375.817,542.543,376.92,542.317,378.465z"/>
</g>
<g>
	
		<linearGradient id="SVGID_55_" gradientUnits="userSpaceOnUse" x1="2.103" y1="-204.937" x2="2.059" y2="-205.7504" gradientTransform="matrix(220.8844 0 0 -48.975 -189.3821 -9583.6982)">
		<stop  offset="0" style="stop-color:#333333;stop-opacity:0.9953"/>
		<stop  offset="1" style="stop-color:#333333"/>
	</linearGradient>
	<path fill="url(#SVGID_55_)" d="M221.123,453.548c-0.547,0.404-1.103,1.177-1.215,1.649c-0.113,0.518,0,3.232,0.33,6.061
		c0.81,7.89,1.875,11.64,3.488,12.518c2.79,1.507,31.5,2.939,59.107,2.939c17.625,0,27.795-0.405,34.14-1.32
		c4.627-0.697,5.729-1.102,7.229-2.827c1.98-2.272,3.78-9.322,3.78-14.939c0-2.903-0.66-3.676-3.45-4.073
		c-1.177-0.149-24.705-0.404-52.282-0.547l-50.19-0.255L221.123,453.548z M252.18,453.952c12.337,0.181,31.65,0.443,42.952,0.548
		c25.666,0.255,30.105,0.442,30.916,1.215c0.479,0.48,0.547,1.103,0.33,3.675c-0.548,7.418-2.498,12.375-5.25,13.508
		c-4.298,1.8-19.058,2.498-48.023,2.242c-30.615-0.255-47.4-1.177-49.05-2.677c-1.283-1.178-2.46-6.203-3.45-14.94
		c-0.217-1.979-0.18-2.167,0.877-3.195l1.103-1.103l3.6,0.181C228.172,453.518,239.88,453.772,252.18,453.952z"/>
</g>
<g>
	
		<linearGradient id="SVGID_56_" gradientUnits="userSpaceOnUse" x1="3.1997" y1="-203.4609" x2="3.689" y2="-203.4609" gradientTransform="matrix(100.3054 0 0 -64.4914 221.4852 -12770.8096)">
		<stop  offset="0" style="stop-color:#000000;stop-opacity:0.301"/>
		<stop  offset="1" style="stop-color:#000000;stop-opacity:0.301"/>
	</linearGradient>
	<path fill="url(#SVGID_56_)" d="M588.675,343.064c-0.037,4.516-0.149,8.295-0.255,8.371c-0.255,0.254-11.31,2.609-18.54,3.93
		c-8.22,1.508-14.798,2.385-17.805,2.385h-2.205l-2.423,2.641c-1.319,1.469-3.007,3.375-3.779,4.26
		c-0.811,0.848-1.357,1.649-1.245,1.725c0.518,0.518,31.02-5.213,37.154-6.975c7.455-2.168,12.008-5.543,11.933-8.888
		c0-0.548-0.622-4.335-1.395-8.333l-1.357-7.342L588.675,343.064z"/>
</g>
<g>
	
		<linearGradient id="SVGID_57_" gradientUnits="userSpaceOnUse" x1="2.8745" y1="-202.4492" x2="3.271" y2="-202.4247" gradientTransform="matrix(14.2517 0 0 -64.875 94.0988 -12928.4063)">
		<stop  offset="0" style="stop-color:#333333;stop-opacity:0.9823"/>
		<stop  offset="1" style="stop-color:#333333"/>
	</linearGradient>
	<path fill="url(#SVGID_57_)" d="M132.06,191.835c-0.547,4.297,0.442,13.29,2.167,19.313c1.027,3.563,4.005,10.095,4.59,10.095
		c0.218,0-0.112-0.953-0.697-2.13c-3.375-6.682-5.325-15.9-5.655-26.692l-0.075-2.94L132.06,191.835z"/>
</g>
<g>
	
		<linearGradient id="SVGID_58_" gradientUnits="userSpaceOnUse" x1="1.7476" y1="-201.7412" x2="1.6106" y2="-202.2014" gradientTransform="matrix(78 0 0 -125.192 -81.9374 -24961.7363)">
		<stop  offset="0" style="stop-color:#2A2A2A;stop-opacity:0.9922"/>
		<stop  offset="1" style="stop-color:#2A2A2A"/>
	</linearGradient>
	<path fill="url(#SVGID_58_)" d="M42.84,292.155c-4.44,6.06-12.188,19.68-13.732,24.233c-1.545,4.402-1.8,7.013-1.8,18.247v10.133
		l1.027,0.217c16.853,3.601,27.57,5.469,33.96,5.986l3.195,0.254l-0.218-1.244c-1.395-7.561-3.638-17.326-5.175-22.508
		c-1.178-3.818-2.752-5.835-6.645-8.445c-4.223-2.79-17.55-9.029-19.313-9.029c-0.292,0-0.623-0.15-0.735-0.293
		c-0.217-0.367,5.138-9.623,8.925-15.42C45.3,289.732,45.63,288.337,42.84,292.155z M39.277,312.57
		c8.738,3.742,15.308,7.672,17.88,10.65c1.282,1.507,2.347,4.514,3.967,11.017c0.915,3.743,3.27,15.015,3.27,15.713
		c0,0.405-0.547,0.442-2.46,0.255c-6.428-0.623-21.547-3.308-31.245-5.505l-2.715-0.622l0.15-11.604l0.15-11.64l1.178-3.487
		c0.66-1.912,1.725-4.298,2.31-5.287C33.105,309.885,33.075,309.885,39.277,312.57z"/>
</g>
<g>
	
		<linearGradient id="SVGID_59_" gradientUnits="userSpaceOnUse" x1="2.2231" y1="-205.2896" x2="2.7124" y2="-205.2896" gradientTransform="matrix(77.9354 0 0 -38.1782 281.9675 -7441.4351)">
		<stop  offset="0" style="stop-color:#000000;stop-opacity:0.301"/>
		<stop  offset="1" style="stop-color:#000000;stop-opacity:0.301"/>
	</linearGradient>
	<path fill="url(#SVGID_59_)" stroke="#000000" stroke-miterlimit="10" d="M473.535,388.867l-18.285,2.018v7.305
		c0,6.721,0.037,7.268,0.66,7.268c0.877,0,17.032-2.092,21.547-2.789c2.018-0.293,5.101-0.878,6.863-1.283
		c2.827-0.66,3.337-0.914,4.515-2.242c1.545-1.688,2.46-3.638,3.705-7.965c1.103-3.855,1.14-4.44,0.075-4.402
		C492.15,386.813,483.555,387.728,473.535,388.867z M491.228,387.803c0,0.622-2.168,7.38-2.715,8.445
		c-1.282,2.459-4.11,3.674-10.65,4.552l-3.638,0.518l0.256-4.44c0.112-2.459,0.329-5.212,0.442-6.127l0.217-1.688l6.683-0.734
		C489.615,387.436,491.228,387.359,491.228,387.803z"/>
</g>
<g>
	
		<linearGradient id="SVGID_60_" gradientUnits="userSpaceOnUse" x1="1.6597" y1="-203.9531" x2="2.1489" y2="-203.9531" gradientTransform="matrix(99.85 0 0 -62.475 -120.105 -12371.4482)">
		<stop  offset="0" style="stop-color:#000000;stop-opacity:0.301"/>
		<stop  offset="1" style="stop-color:#000000;stop-opacity:0.301"/>
	</linearGradient>
	<path fill="url(#SVGID_60_)" d="M46.732,362.768c-1.612,8.625-1.575,8.925,1.14,11.377c3.083,2.791,7.598,4.479,18.06,6.684
		c10.02,2.129,26.325,4.994,28.342,4.994c0.66,0,0.113-0.734-2.978-3.817l-3.78-3.78l-3.705-0.254
		c-6.465-0.406-16.815-2.205-34.47-5.986l-1.027-0.18l-0.075-8.295l-0.113-8.258L46.732,362.768z"/>
</g>
<g>
	
		<linearGradient id="SVGID_61_" gradientUnits="userSpaceOnUse" x1="2.626" y1="-205.522" x2="3.1152" y2="-205.522" gradientTransform="matrix(78.2818 0 0 -38.325 -86.3612 -7466.3081)">
		<stop  offset="0" style="stop-color:#000000;stop-opacity:0.301"/>
		<stop  offset="1" style="stop-color:#000000;stop-opacity:0.301"/>
	</linearGradient>
	<path fill="url(#SVGID_61_)" stroke="#000000" stroke-miterlimit="10" d="M119.535,403.215c1.762,7.598,3.705,10.793,7.268,11.857
		c2.46,0.735,11.047,2.131,20.227,3.308c4.035,0.518,8.04,0.99,8.925,1.14l1.545,0.181v-7.343c0-4.072-0.075-7.38-0.18-7.38
		s-8.407-0.915-18.465-2.018c-10.02-1.103-18.615-2.018-19.058-2.018C119.025,400.942,119.025,400.98,119.535,403.215z
		 M130.26,402.412c3.525,0.405,6.57,0.735,6.825,0.735c0.33,0,0.585,1.649,0.915,5.91c0.255,3.232,0.368,5.985,0.255,6.097
		c-0.442,0.443-8.925-1.064-10.717-1.875c-2.573-1.177-3.563-2.677-5.1-7.521c-0.697-2.273-1.283-4.223-1.283-4.298
		s0.623-0.075,1.395,0.038C123.285,401.603,126.772,402.008,130.26,402.412z"/>
</g>
<g>
	
		<linearGradient id="SVGID_62_" gradientUnits="userSpaceOnUse" x1="1.8867" y1="-212.6738" x2="2.3765" y2="-212.6738" gradientTransform="matrix(334.1717 0 0 -28.0705 -468.6021 -5451.0103)">
		<stop  offset="0" style="stop-color:#000000;stop-opacity:0.301"/>
		<stop  offset="1" style="stop-color:#000000;stop-opacity:0.301"/>
	</linearGradient>
	<path fill="url(#SVGID_62_)" d="M162.473,512.692c4.222,3.375,13.95,7.598,22.65,9.803c11.857,3.008,20.482,3.638,40.717,3.045
		c23.715-0.735,78.495-3.855,97.47-5.58c3.233-0.292,2.94-0.292-2.572-0.15c-18.615,0.48-56.685,0.586-74.707,0.181
		c-37.335-0.811-52.65-1.8-68.1-4.478c-4.147-0.735-14.167-2.902-15.788-3.45C161.625,511.89,161.7,512.07,162.473,512.692z"/>
</g>
<g>
	
		<linearGradient id="SVGID_63_" gradientUnits="userSpaceOnUse" x1="3.4165" y1="-202.1265" x2="3.627" y2="-202.4888" gradientTransform="matrix(74.4514 0 0 -81.7194 279.2779 -16244.1348)">
		<stop  offset="0" style="stop-color:#FFFFFF;stop-opacity:0.949"/>
		<stop  offset="1" style="stop-color:#FFFFFF;stop-opacity:0.9505"/>
	</linearGradient>
	<path fill="url(#SVGID_63_)" stroke="#000000" stroke-miterlimit="10" d="M550.23,263.467c-4.186,1.688-13.471,6.315-16.043,8.04
		c-4.005,2.64-5.468,4.403-6.532,7.823c-1.612,4.995-5.505,22.574-5.101,22.98c0.548,0.584,16.74-1.98,28.598-4.478l7.343-1.575
		l0.292-4.373c0.443-6.825,0.038-17.145-0.847-20.595c-0.772-3.007-3.008-8.19-3.78-8.663
		C553.5,262.223,553.237,262.26,550.23,263.467z"/>
</g>
<g>
	
		<linearGradient id="SVGID_64_" gradientUnits="userSpaceOnUse" x1="3.3887" y1="-205.3428" x2="2.9628" y2="-205.4357" gradientTransform="matrix(48.761 0 0 -46.3361 -8.4378 -9217.5264)">
		<stop  offset="0" style="stop-color:#FFFFFF;stop-opacity:0.3035"/>
		<stop  offset="1" style="stop-color:#FFFFFF;stop-opacity:0.3044"/>
	</linearGradient>
	<path fill="url(#SVGID_64_)" stroke="#000000" stroke-miterlimit="10" d="M143.895,289.507c-1.103,3.12-3.375,7.748-4.703,9.473
		c-0.547,0.735-1.575,1.65-2.31,2.018l-1.32,0.66l0.915,0.404c0.518,0.218,3.817,1.471,7.342,2.828
		c3.525,1.357,7.71,3.007,9.255,3.705c2.422,1.102,3.083,1.244,4.478,1.064c0.915-0.15,1.762-0.405,1.875-0.623
		c0.15-0.18-2.715-5.212-6.315-11.16c-5.767-9.547-6.645-10.83-7.455-10.83C144.848,287.047,144.63,287.34,143.895,289.507z"/>
</g>
<g>
	
		<linearGradient id="SVGID_65_" gradientUnits="userSpaceOnUse" x1="2.7676" y1="-205.5132" x2="3.0613" y2="-206.502" gradientTransform="matrix(249.2066 0 0 -68.95 -246.4683 -13674.2832)">
		<stop  offset="0" style="stop-color:#FFFFFF;stop-opacity:0.8505"/>
		<stop  offset="1" style="stop-color:#FFFFFF;stop-opacity:0.8505"/>
	</linearGradient>
	<path fill="url(#SVGID_65_)" stroke="#000000" stroke-miterlimit="10" d="M402.855,499.08c-2.273,1.395-2.641,2.497-2.641,8.258
		c0,15.382,4.335,22.432,14.505,23.677c8.737,1.028,48.061,1.396,85.357,0.772l14.138-0.217l1.763-1.027
		c4.11-2.423,5.138-5.468,5.91-17.476c0.622-9.622,0.479-10.649-1.688-12.225c-1.065-0.735-1.688-0.811-12.743-1.065
		c-11.677-0.33-89.729-1.433-98.609-1.433C404.73,498.345,403.883,498.457,402.855,499.08z M412.147,514.245
		c1.47,11.782,1.508,12.008,0.772,11.782c-3.157-0.99-5.729-3.308-7.229-6.532c-1.283-2.753-1.801-5.873-1.801-10.755
		c0-3.487,0.075-3.817,0.953-4.846c1.027-1.244,2.609-1.875,4.552-1.762l1.283,0.074L412.147,514.245z M425.4,502.53
		c0.037,0,0.367,5.617,0.772,12.442l0.659,12.412l-4.034-0.255c-2.205-0.15-4.073-0.255-4.11-0.292
		c-0.037,0-0.548-5.07-1.178-11.235s-1.215-11.715-1.319-12.3l-0.181-1.141l4.665,0.15C423.27,502.388,425.4,502.492,425.4,502.53z
		 M439.237,511.455c0.15,5.032,0.255,10.718,0.255,12.742v3.638l-3.742-0.293c-2.093-0.149-3.855-0.329-3.93-0.404
		c-0.075-0.075-0.255-4.147-0.442-9.03c-0.15-4.92-0.368-10.463-0.48-12.338l-0.15-3.375h4.11h4.147L439.237,511.455z
		 M447.577,503.707c0.698,0.518,2.573,1.838,4.11,2.94c3.27,2.348,2.902,1.215,3.968,11.715c0.404,4.035,0.81,7.785,0.915,8.333
		l0.18,1.027h-5.655h-5.654l-0.218-2.311c-0.112-1.245-0.293-5.984-0.405-10.537s-0.292-9.218-0.405-10.425l-0.217-2.168
		l1.027,0.255C445.815,502.68,446.88,503.19,447.577,503.707z M471.803,503.048c0,0.18-1.65,1.432-3.675,2.752l-3.676,2.46h-3.375
		h-3.375l-3.779-2.497c-2.056-1.357-3.78-2.572-3.78-2.753c0-0.149,4.883-0.255,10.83-0.255S471.803,502.897,471.803,503.048z
		 M477.532,511.455c-0.112,4.627-0.33,10.133-0.442,12.3l-0.255,3.968h-5.43h-5.468v-1.027c0-2.13,1.8-17.438,2.093-17.73
		c0.149-0.149,1.837-1.508,3.705-3.045c2.864-2.31,3.675-2.79,4.732-2.79h1.319L477.532,511.455z M491.115,511.088
		c-0.112,4.402-0.33,9.952-0.442,12.3l-0.255,4.335h-3.968h-4.005l0.18-3.601c0.112-1.942,0.293-7.492,0.405-12.3l0.217-8.7h4.073
		h4.034L491.115,511.088z M505.95,503.925c0.037,0.255-0.518,5.73-1.178,12.112l-1.178,11.678h-4.185h-4.147l0.217-2.13
		c0.113-1.14,0.368-5.325,0.548-9.255c0.218-3.93,0.48-8.445,0.585-10.021l0.218-2.827h4.553
		C504.772,503.49,505.95,503.595,505.95,503.925z M516.487,504.442c0.48,0.293,0.953,0.953,1.065,1.508
		c0.149,0.547,0,4.223-0.33,8.115c-0.66,8.114-1.027,9.104-4.186,11.085c-1.612,1.027-4.072,2.055-4.335,1.762
		c-0.037-0.037,0.548-5.25,1.32-11.489c0.772-6.277,1.433-11.49,1.433-11.603C511.455,503.415,515.678,503.925,516.487,504.442z"/>
</g>
<g>
	
		<linearGradient id="SVGID_66_" gradientUnits="userSpaceOnUse" x1="9.9004" y1="63.75" x2="151.4722" y2="63.75" gradientTransform="matrix(0.7431 0.6692 -0.6692 0.7431 78.7165 -34.6721)">
		<stop  offset="0" style="stop-color:#BDE6FE;stop-opacity:0.2095"/>
		<stop  offset="1" style="stop-color:#BDE6FE;stop-opacity:0.2095"/>
	</linearGradient>
	<path fill="url(#SVGID_66_)" stroke="#000000" stroke-miterlimit="10" d="M38.224,34.731c-4.991,0.32-7.923,0.818-9.789,1.601
		c-1.132,0.484-1.607,1.258-5.088,8.216c-6.961,13.997-12.205,26.948-12.187,30.144c0.014,2.092,1.053,4.178,2.86,5.634
		c2.951,2.405-3.397,2.259,84.268,1.721l79.596-0.487l-0.012-1.948c-0.016-2.83-0.803-5.396-4.27-13.999
		c-6.782-16.734-11.848-27.574-13.32-28.516c-4.13-2.508-28.254-3.391-83.837-2.939C57.866,34.281,40.683,34.533,38.224,34.731z
		 M78.188,37.312l1.729,0.244l-7.295,13.626c-3.99,7.479-8.931,16.867-10.96,20.813l-3.667,7.144l-1.609,0.488
		c-3.154,0.935-13.023,1.404-26.06,1.221c-6.939-0.072-12.703-0.217-12.815-0.327c-0.369-0.363,8.408-23.695,12.031-32.01
		c2.752-6.262,3.512-7.476,5.38-8.296c2.927-1.3,11.26-2.417,20.979-2.809C62.104,37.15,76.531,37.101,78.188,37.312z"/>
</g>
<g>
	
		<linearGradient id="SVGID_67_" gradientUnits="userSpaceOnUse" x1="2.1494" y1="-204.79" x2="2.6242" y2="-204.4963" gradientTransform="matrix(160.3351 0 0 -30.2272 -110.6922 -5990.1255)">
		<stop  offset="0" style="stop-color:#FFFFFF;stop-opacity:0.3048"/>
		<stop  offset="1" style="stop-color:#FFFFFF;stop-opacity:0.3051"/>
	</linearGradient>
	<path fill="url(#SVGID_67_)" stroke="#000000" stroke-miterlimit="10" d="M222.022,190.853c0,0.405-0.48,1.14-1.103,1.612
		c-1.32,1.14-1.32,1.395-0.217,7.785l0.81,4.77l1.245-0.038c0.698-0.038,5.91-0.255,11.565-0.48
		c5.655-0.217,22.395-0.405,37.193-0.405c14.76,0,26.873-0.113,26.873-0.292c0-0.15-1.065-1.688-2.348-3.413l-2.348-3.158
		l-2.865-0.255c-6.57-0.518-31.943-1.725-43.103-2.055c-12.3-0.33-14.393-0.585-19.455-2.242c-1.32-0.442-3.195-1.178-4.185-1.65
		C221.873,189.967,222.022,190.005,222.022,190.853z"/>
</g>
<g>
	
		<linearGradient id="SVGID_68_" gradientUnits="userSpaceOnUse" x1="1.2554" y1="-202.3462" x2="1.7451" y2="-202.3462" gradientTransform="matrix(128.0475 0 0 -88.8827 -99.0862 -17817.1133)">
		<stop  offset="0" style="stop-color:#D2E9FE;stop-opacity:0.4684"/>
		<stop  offset="1" style="stop-color:#D2E9FE;stop-opacity:0.4684"/>
	</linearGradient>
	<path fill="url(#SVGID_68_)" stroke="#000000" stroke-miterlimit="10" d="M100.313,146.348c-9.728,0.33-18.06,1.395-21,2.677
		c-1.875,0.81-2.64,2.018-5.43,8.258c-3.675,8.295-12.592,31.575-12.225,31.942c0.112,0.112,5.872,0.292,12.81,0.405
		c13.035,0.255,22.913-0.15,26.07-1.065l1.612-0.48l3.705-7.125c2.055-3.93,7.05-13.29,11.085-20.745l7.38-13.583l-1.725-0.255
		C120.945,146.167,106.515,146.13,100.313,146.348z"/>
</g>
<line fill="none" stroke="#000000" stroke-miterlimit="10" x1="304.5" y1="186.75" x2="304.5" y2="218.25"/>
<line fill="none" stroke="#000000" stroke-miterlimit="10" x1="105.375" y1="87.375" x2="233.625" y2="233.625"/>
<line fill="none" stroke="#000000" stroke-miterlimit="10" x1="115.125" y1="163.875" x2="238.125" y2="241.875"/>
<line fill="none" stroke="#000000" stroke-miterlimit="10" x1="489.375" y1="100.125" x2="364.875" y2="229.875"/>
<line fill="none" stroke="#000000" stroke-miterlimit="10" x1="132.375" y1="202.875" x2="231.375" y2="286.125"/>
<line fill="none" stroke="#000000" stroke-miterlimit="10" x1="141.375" y1="246.375" x2="183.375" y2="266.625"/>
<line fill="none" stroke="#000000" stroke-miterlimit="10" x1="146.625" y1="277.125" x2="181.875" y2="277.875"/>
<line fill="none" stroke="#000000" stroke-miterlimit="10" x1="153.375" y1="298.125" x2="213.375" y2="296.625"/>
<line fill="none" stroke="#000000" stroke-miterlimit="10" x1="102.375" y1="310.875" x2="199.875" y2="317.625"/>
<line fill="none" stroke="#000000" stroke-miterlimit="10" x1="61.125" y1="334.125" x2="192.375" y2="331.125"/>
<line fill="none" stroke="#000000" stroke-miterlimit="10" x1="91.125" y1="382.125" x2="210.375" y2="341.625"/>
<line fill="none" stroke="#000000" stroke-miterlimit="10" x1="147" y1="386.25" x2="198" y2="368.25"/>
<line fill="none" stroke="#000000" stroke-miterlimit="10" x1="157.125" y1="404.625" x2="213.375" y2="377.625"/>
<line fill="none" stroke="#000000" stroke-miterlimit="10" x1="93.75" y1="454.5" x2="185.25" y2="423"/>
<line fill="none" stroke="#000000" stroke-miterlimit="10" x1="298.125" y1="416.625" x2="297.375" y2="322.875"/>
<line fill="none" stroke="#000000" stroke-miterlimit="10" x1="443.625" y1="454.125" x2="349.875" y2="333.375"/>
<line fill="none" stroke="#000000" stroke-miterlimit="10" x1="413.625" y1="498.375" x2="352.125" y2="342.375"/>
<line fill="none" stroke="#000000" stroke-miterlimit="10" x1="259.125" y1="452.625" x2="252.375" y2="385.875"/>
<line fill="none" stroke="#000000" stroke-miterlimit="10" x1="331.875" y1="490.125" x2="329.625" y2="381.75"/>
<line fill="none" stroke="#000000" stroke-miterlimit="10" x1="257.625" y1="202.875" x2="263.625" y2="300.375"/>
<line fill="none" stroke="#000000" stroke-miterlimit="10" x1="199.875" y1="517.875" x2="234.75" y2="357.75"/>
<line fill="none" stroke="#000000" stroke-miterlimit="10" x1="361.125" y1="387.375" x2="376.125" y2="556.125"/>
<line fill="none" stroke="#000000" stroke-miterlimit="10" x1="147.375" y1="542.625" x2="227.625" y2="352.125"/>
<line fill="none" stroke="#000000" stroke-miterlimit="10" x1="454.5" y1="197.25" x2="363" y2="287.25"/>
<line fill="none" stroke="#000000" stroke-miterlimit="10" x1="447" y1="226.5" x2="413.25" y2="262.5"/>
<line fill="none" stroke="#000000" stroke-miterlimit="10" x1="451.5" y1="255" x2="411" y2="279"/>
<line fill="none" stroke="#000000" stroke-miterlimit="10" x1="454.5" y1="290.25" x2="380.25" y2="298.5"/>
<line fill="none" stroke="#000000" stroke-miterlimit="10" x1="463.875" y1="373.125" x2="400.125" y2="364.875"/>
<line fill="none" stroke="#000000" stroke-miterlimit="10" x1="455.625" y1="397.875" x2="398.625" y2="373.875"/>
<line fill="none" stroke="#000000" stroke-miterlimit="10" x1="525.375" y1="287.625" x2="397.125" y2="312.375"/>
<line fill="none" stroke="#000000" stroke-miterlimit="10" x1="553.125" y1="330.375" x2="402.375" y2="336.375"/>
<line fill="none" stroke="#000000" stroke-miterlimit="10" x1="547.125" y1="360.375" x2="391.875" y2="343.125"/>
<line fill="none" stroke="#000000" stroke-miterlimit="10" x1="500.625" y1="430.875" x2="417.375" y2="403.875"/>
</svg>
