<?xml version="1.0" standalone="no"?><!DOCTYPE svg PUBLIC "-//W3C//DTD SVG 20010904//EN" "http://www.w3.org/TR/2001/REC-SVG-20010904/DTD/svg10.dtd"><svg version="1.0" xmlns="http://www.w3.org/2000/svg" width="500.0pt" height="500.0pt" viewBox="0 0 500.0 500.0" preserveAspectRatio="xMidYMid meet"><defs><linearGradient id="linear-gradient-0" x1="0.00%" y1="100.00%" x2="165.13%" y2="28.25%"><stop offset="0%" style="stop-color:rgb(48,254,0);stop-opacity:1.000" /><stop offset="100%" style="stop-color:rgb(170,254,0);stop-opacity:1.000" /></linearGradient><linearGradient id="linear-gradient-1" x1="0.00%" y1="100.00%" x2="64.61%" y2="-19.18%"><stop offset="0%" style="stop-color:rgb(0,144,110);stop-opacity:1.000" /><stop offset="100%" style="stop-color:rgb(254,255,0);stop-opacity:1.000" /></linearGradient><linearGradient id="linear-gradient-2" x1="0.00%" y1="100.00%" x2="94.31%" y2="-1.67%"><stop offset="0%" style="stop-color:rgb(111,17,18);stop-opacity:0.548" /><stop offset="100%" style="stop-color:rgb(23,98,105);stop-opacity:0.419" /></linearGradient><linearGradient id="linear-gradient-3" x1="0.00%" y1="100.00%" x2="51.66%" y2="-11.60%"><stop offset="0%" style="stop-color:rgb(7,7,124);stop-opacity:0.585" /><stop offset="100%" style="stop-color:rgb(121,121,65);stop-opacity:0.478" /></linearGradient><linearGradient id="linear-gradient-4" x1="0.00%" y1="100.00%" x2="124.32%" y2="5.43%"><stop offset="0%" style="stop-color:rgb(136,2,29);stop-opacity:0.211" /><stop offset="100%" style="stop-color:rgb(89,10,120);stop-opacity:0.355" /></linearGradient><linearGradient id="linear-gradient-5" x1="0.00%" y1="100.00%" x2="117.61%" y2="2.55%"><stop offset="0%" style="stop-color:rgb(225,52,0);stop-opacity:0.694" /><stop offset="100%" style="stop-color:rgb(255,198,0);stop-opacity:0.085" /></linearGradient></defs><g fill="url(#linear-gradient-0)" transform="translate(0.000000,500.000000) scale(0.100000,-0.100000)">
<path d="M0 2500 l0 -2500 2500 0 2500 0 0 2500 0 2500 -2500 0 -2500 0 0 -2500z"/>
</g><g fill="url(#linear-gradient-1)" transform="translate(0.000000,500.000000) scale(0.100000,-0.100000)">
<path d="M2493 3674 c-397 -676 -723 -1235 -725 -1242 -3 -12 1380 -880 1424 -893 24 -7 29 -4 34 17 4 14 3 773 -2 1686 l-9 1662 -722 -1230z"/>
</g><g fill="url(#linear-gradient-2)" transform="translate(0.000000,500.000000) scale(0.100000,-0.100000)">
<path d="M320 2665 l0 -1615 910 0 910 0 0 1615 0 1615 -910 0 -910 0 0 -1615z"/>
</g><g fill="url(#linear-gradient-3)" transform="translate(0.000000,500.000000) scale(0.100000,-0.100000)">
<path d="M657 3878 c-306 -562 -555 -1023 -553 -1025 3 -3 1457 325 1462 330 4 4 -344 1708 -349 1714 -3 2 -254 -456 -560 -1019z"/>
</g><g fill="url(#linear-gradient-4)" transform="translate(0.000000,500.000000) scale(0.100000,-0.100000)">
<path d="M2590 2870 l0 -2080 860 0 860 0 0 2080 0 2080 -860 0 -860 0 0 -2080z"/>
</g><g fill="url(#linear-gradient-5)" transform="translate(0.000000,500.000000) scale(0.100000,-0.100000)">
<path d="M3400 2420 l0 -2200 765 0 765 0 0 2200 0 2200 -765 0 -765 0 0 -2200z"/>
</g></svg>