<?xml version="1.0" standalone="no"?><!DOCTYPE svg PUBLIC "-//W3C//DTD SVG 20010904//EN" "http://www.w3.org/TR/2001/REC-SVG-20010904/DTD/svg10.dtd"><svg version="1.0" xmlns="http://www.w3.org/2000/svg" width="500pt" height="500pt" viewBox="0 0 500 500" preserveAspectRatio="xMidYMid meet"><defs><linearGradient id="linear-gradient-1-1" x1="0.00%" y1="100.00%" x2="104.78%" y2="5.28%"><stop offset="0%" style="stop-color:rgb(0,255,0);stop-opacity:0.991" /><stop offset="100%" style="stop-color:rgb(255,250,0);stop-opacity:1.000" /></linearGradient><linearGradient id="linear-gradient-2-1" x1="0.00%" y1="100.00%" x2="86.59%" y2="-1.32%"><stop offset="0%" style="stop-color:rgb(21,22,114);stop-opacity:0.498" /><stop offset="100%" style="stop-color:rgb(205,208,24);stop-opacity:0.516" /></linearGradient><linearGradient id="linear-gradient-2-2" x1="0.00%" y1="100.00%" x2="62.69%" y2="-19.56%"><stop offset="0%" style="stop-color:rgb(125,57,61);stop-opacity:0.509" /><stop offset="100%" style="stop-color:rgb(81,181,70);stop-opacity:0.861" /></linearGradient><linearGradient id="linear-gradient-3-1" x1="0.00%" y1="100.00%" x2="7.47%" y2="-6.49%"><stop offset="0%" style="stop-color:rgb(2,111,14);stop-opacity:0.557" /><stop offset="100%" style="stop-color:rgb(0,77,28);stop-opacity:0.458" /></linearGradient><linearGradient id="linear-gradient-3-2" x1="0.00%" y1="100.00%" x2="144.50%" y2="7.10%"><stop offset="0%" style="stop-color:rgb(115,97,0);stop-opacity:0.323" /><stop offset="100%" style="stop-color:rgb(116,0,127);stop-opacity:0.374" /></linearGradient><linearGradient id="linear-gradient-4-1" x1="0.00%" y1="100.00%" x2="35.61%" y2="-19.23%"><stop offset="0%" style="stop-color:rgb(0,111,65);stop-opacity:0.151" /><stop offset="100%" style="stop-color:rgb(4,79,126);stop-opacity:0.199" /></linearGradient></defs><g id="layer-1"><path d="M0 2500 l0 -2500 2500 0 2500 0 0 2500 0 2500 -2500 0 -2500 0 0 -2500z" fill="url(#linear-gradient-1-1)" id="region-1-1" transform="translate(0.000000,500.000000) scale(0.100000,-0.100000)"/></g><g id="layer-2"><path d="M90 2795 l0 -1835 620 0 620 0 0 1835 0 1835 -620 0 -620 0 0 -1835z" fill="url(#linear-gradient-2-1)" id="region-2-1" transform="translate(0.000000,500.000000) scale(0.100000,-0.100000)"/><path d="M3655 3848 c-405 -28 -780 -287 -961 -663 -154 -320 -155 -695 -4 -1014 118 -247 309 -439 555 -557 323 -155 697 -155 1020 0 246 118 437 310 555 557 150 316 150 692 0 1008 -28 57 -70 132 -95 166 -25 35 -45 66 -45 68 0 12 -176 175 -237 220 -94 69 -269 151 -388 182 -118 31 -262 43 -400 33z" fill="url(#linear-gradient-2-2)" id="region-2-2" transform="translate(0.000000,500.000000) scale(0.100000,-0.100000)"/></g><g id="layer-3"><path d="M1164 3779 c-268 -19 -510 -134 -705 -336 -207 -212 -310 -468 -310 -768 0 -300 103 -554 310 -769 215 -222 485 -337 796 -337 311 0 581 115 796 337 207 215 310 469 310 769 0 300 -103 556 -310 768 -238 246 -540 360 -887 336z" fill="url(#linear-gradient-3-1)" id="region-3-1" transform="translate(0.000000,500.000000) scale(0.100000,-0.100000)"/><path d="M4496 4698 c-36 -112 -290 -900 -565 -1753 -276 -852 -497 -1552 -493 -1556 19 -19 1457 -1098 1459 -1095 4 4 -326 4599 -331 4603 -2 3 -34 -87 -70 -199z" fill="url(#linear-gradient-3-2)" id="region-3-2" transform="translate(0.000000,500.000000) scale(0.100000,-0.100000)"/></g><g id="layer-4"><path d="M2423 3039 c-150 -14 -282 -78 -399 -194 -132 -132 -195 -282 -195 -470 0 -121 17 -192 73 -305 80 -163 249 -298 433 -345 78 -20 242 -20 320 0 236 60 430 254 490 490 20 78 20 242 0 320 -57 222 -232 408 -453 480 -68 22 -179 32 -269 24z" fill="url(#linear-gradient-4-1)" id="region-4-1" transform="translate(0.000000,500.000000) scale(0.100000,-0.100000)"/></g></svg>