<?xml version="1.0" standalone="no"?><!DOCTYPE svg PUBLIC "-//W3C//DTD SVG 20010904//EN" "http://www.w3.org/TR/2001/REC-SVG-20010904/DTD/svg10.dtd"><svg version="1.0" xmlns="http://www.w3.org/2000/svg" width="500.0pt" height="500.0pt" viewBox="0 0 500.0 500.0" preserveAspectRatio="xMidYMid meet"><defs><linearGradient id="linear-gradient-0" x1="0.00%" y1="100.00%" x2="100.03%" y2="0.03%"><stop offset="0%" style="stop-color:rgb(96,254,0);stop-opacity:1.000" /><stop offset="100%" style="stop-color:rgb(163,254,0);stop-opacity:1.000" /></linearGradient><linearGradient id="linear-gradient-1" x1="0.00%" y1="100.00%" x2="70.64%" y2="-17.63%"><stop offset="0%" style="stop-color:rgb(5,255,0);stop-opacity:1.000" /><stop offset="100%" style="stop-color:rgb(194,199,39);stop-opacity:1.000" /></linearGradient><linearGradient id="linear-gradient-2" x1="0.00%" y1="100.00%" x2="36.65%" y2="-19.44%"><stop offset="0%" style="stop-color:rgb(0,108,12);stop-opacity:0.545" /><stop offset="100%" style="stop-color:rgb(0,68,37);stop-opacity:0.437" /></linearGradient><linearGradient id="linear-gradient-3" x1="0.00%" y1="100.00%" x2="99.55%" y2="-0.05%"><stop offset="0%" style="stop-color:rgb(110,8,19);stop-opacity:0.193" /><stop offset="100%" style="stop-color:rgb(147,42,98);stop-opacity:0.474" /></linearGradient><linearGradient id="linear-gradient-4" x1="0.00%" y1="100.00%" x2="60.80%" y2="-19.88%"><stop offset="0%" style="stop-color:rgb(137,53,56);stop-opacity:0.537" /><stop offset="100%" style="stop-color:rgb(38,106,108);stop-opacity:0.538" /></linearGradient><linearGradient id="linear-gradient-5" x1="0.00%" y1="100.00%" x2="56.56%" y2="-2.70%"><stop offset="0%" style="stop-color:rgb(16,10,120);stop-opacity:0.469" /><stop offset="100%" style="stop-color:rgb(183,115,41);stop-opacity:0.216" /></linearGradient></defs><g fill="url(#linear-gradient-0)" transform="translate(0.000000,500.000000) scale(0.100000,-0.100000)">
<path d="M0 2500 l0 -2500 2500 0 2500 0 0 2500 0 2500 -2500 0 -2500 0 0 -2500z"/>
</g><g fill="url(#linear-gradient-1)" transform="translate(0.000000,500.000000) scale(0.100000,-0.100000)">
<path d="M2423 3039 c-150 -14 -282 -78 -399 -194 -132 -132 -195 -282 -195 -470 0 -121 17 -192 73 -305 80 -163 249 -298 433 -345 78 -20 242 -20 320 0 236 60 430 254 490 490 20 78 20 242 0 320 -57 222 -232 408 -453 480 -68 22 -179 32 -269 24z"/>
</g><g fill="url(#linear-gradient-2)" transform="translate(0.000000,500.000000) scale(0.100000,-0.100000)">
<path d="M1164 3779 c-268 -19 -510 -134 -705 -336 -207 -212 -310 -468 -310 -768 0 -300 103 -554 310 -769 215 -222 485 -337 796 -337 311 0 581 115 796 337 207 215 310 469 310 769 0 300 -103 556 -310 768 -238 246 -540 360 -887 336z"/>
</g><g fill="url(#linear-gradient-3)" transform="translate(0.000000,500.000000) scale(0.100000,-0.100000)">
<path d="M4496 4698 c-36 -112 -290 -900 -565 -1753 -276 -852 -497 -1552 -493 -1556 19 -19 1457 -1098 1459 -1095 4 4 -326 4599 -331 4603 -2 3 -34 -87 -70 -199z"/>
</g><g fill="url(#linear-gradient-4)" transform="translate(0.000000,500.000000) scale(0.100000,-0.100000)">
<path d="M3655 3848 c-405 -28 -780 -287 -961 -663 -154 -320 -155 -695 -4 -1014 118 -247 309 -439 555 -557 323 -155 697 -155 1020 0 246 118 437 310 555 557 215 452 117 998 -242 1345 -107 104 -191 162 -319 224 -186 88 -382 123 -604 108z"/>
</g><g fill="url(#linear-gradient-5)" transform="translate(0.000000,500.000000) scale(0.100000,-0.100000)">
<path d="M90 2795 l0 -1835 620 0 620 0 0 1835 0 1835 -620 0 -620 0 0 -1835z"/>
</g></svg>