<?xml version="1.0" standalone="no"?><!DOCTYPE svg PUBLIC "-//W3C//DTD SVG 20010904//EN" "http://www.w3.org/TR/2001/REC-SVG-20010904/DTD/svg10.dtd"><svg version="1.0" xmlns="http://www.w3.org/2000/svg" width="500.0pt" height="500.0pt" viewBox="0 0 500.0 500.0" preserveAspectRatio="xMidYMid meet"><defs><linearGradient id="linear-gradient-0" x1="0.00%" y1="100.00%" x2="99.11%" y2="-0.88%"><stop offset="0%" style="stop-color:rgb(128,0,0);stop-opacity:1.000" /><stop offset="100%" style="stop-color:rgb(0,127,127);stop-opacity:1.000" /></linearGradient><linearGradient id="linear-gradient-1" x1="0.00%" y1="100.00%" x2="86.70%" y2="-10.44%"><stop offset="0%" style="stop-color:rgb(117,32,32);stop-opacity:1.000" /><stop offset="100%" style="stop-color:rgb(75,58,58);stop-opacity:1.000" /></linearGradient><linearGradient id="linear-gradient-2" x1="0.00%" y1="100.00%" x2="66.17%" y2="-5.57%"><stop offset="0%" style="stop-color:rgb(131,104,104);stop-opacity:0.115" /><stop offset="100%" style="stop-color:rgb(14,255,255);stop-opacity:0.204" /></linearGradient><linearGradient id="linear-gradient-3" x1="0.00%" y1="100.00%" x2="72.21%" y2="-27.96%"><stop offset="0%" style="stop-color:rgb(36,69,9);stop-opacity:0.810" /><stop offset="100%" style="stop-color:rgb(115,208,0);stop-opacity:0.265" /></linearGradient><linearGradient id="linear-gradient-4" x1="0.00%" y1="100.00%" x2="48.48%" y2="-4.30%"><stop offset="0%" style="stop-color:rgb(223,11,16);stop-opacity:0.469" /><stop offset="100%" style="stop-color:rgb(173,0,91);stop-opacity:0.309" /></linearGradient><linearGradient id="linear-gradient-5" x1="0.00%" y1="100.00%" x2="38.61%" y2="-19.79%"><stop offset="0%" style="stop-color:rgb(150,255,0);stop-opacity:0.250" /><stop offset="100%" style="stop-color:rgb(248,255,0);stop-opacity:0.236" /></linearGradient></defs><g fill="url(#linear-gradient-0)" transform="translate(0.000000,500.000000) scale(0.100000,-0.100000)">
<path d="M0 2500 l0 -2500 2500 0 2500 0 0 2500 0 2500 -2500 0 -2500 0 0 -2500z"/>
</g><g fill="url(#linear-gradient-1)" transform="translate(0.000000,500.000000) scale(0.100000,-0.100000)">
<path d="M2420 4619 c-192 -16 -389 -121 -512 -273 -64 -80 -124 -199 -149 -293 -27 -107 -27 -269 0 -376 38 -145 137 -303 248 -393 28 -23 49 -44 46 -47 -7 -8 81 -57 101 -57 9 0 31 -7 47 -16 108 -55 336 -72 482 -35 149 39 304 138 399 255 113 141 169 299 169 481 0 135 -23 233 -81 344 -77 148 -183 254 -329 330 -132 68 -262 93 -421 80z"/>
</g><g fill="url(#linear-gradient-2)" transform="translate(0.000000,500.000000) scale(0.100000,-0.100000)">
<path d="M2974 3722 l-31 -3 -6 -352 c-4 -194 -7 -900 -7 -1569 l0 -1218 810 0 810 0 0 1576 0 1575 -772 -3 c-425 -1 -787 -4 -804 -6z"/>
</g><g fill="url(#linear-gradient-3)" transform="translate(0.000000,500.000000) scale(0.100000,-0.100000)">
<path d="M482 4069 c-210 -458 -380 -834 -379 -836 4 -4 2299 -64 2303 -60 3 2 -1474 1657 -1530 1715 -11 11 -84 -141 -394 -819z"/>
</g><g fill="url(#linear-gradient-4)" transform="translate(0.000000,500.000000) scale(0.100000,-0.100000)">
<path d="M4762 4823 c-17 -43 -323 -825 -681 -1737 -358 -913 -649 -1661 -647 -1663 3 -3 1457 484 1463 491 4 4 -96 2979 -101 2983 -2 3 -18 -31 -34 -74z"/>
</g><g fill="url(#linear-gradient-5)" transform="translate(0.000000,500.000000) scale(0.100000,-0.100000)">
<path d="M760 1759 c-103 -9 -191 -34 -283 -79 -281 -140 -448 -411 -448 -725 0 -452 354 -806 806 -806 452 0 806 354 806 806 0 314 -167 585 -448 724 -132 66 -277 93 -433 80z"/>
</g></svg>