<?xml version="1.0" standalone="no"?>
<!DOCTYPE svg PUBLIC "-//W3C//DTD SVG 20010904//EN"
 "http://www.w3.org/TR/2001/REC-SVG-20010904/DTD/svg10.dtd">
<svg version="1.0" xmlns="http://www.w3.org/2000/svg"
 width="600.000000pt" height="520.000000pt" viewBox="0 0 600.000000 520.000000"
 preserveAspectRatio="xMidYMid meet">
<defs>
<linearGradient id="grad_0" x1="0%" y1="100%" x2="100%" y2="100%">
<stop offset="0%" style="stop-color:rgb(254, 254, 253); stop-opacity:1"/>
<stop offset="100%" style="stop-color:rgb(254, 254, 253); stop-opacity:1"/>
</linearGradient>
<linearGradient id="grad_1" x1="35%" y1="100%" x2="17%" y2="15%">
<stop offset="0%" style="stop-color:rgb(77, 48, 31); stop-opacity:1"/>
<stop offset="100%" style="stop-color:rgb(92, 58, 40); stop-opacity:1"/>
</linearGradient>
<linearGradient id="grad_2" x1="0%" y1="99%" x2="100%" y2="99%">
<stop offset="0%" style="stop-color:rgb(246, 212, 144); stop-opacity:1"/>
<stop offset="100%" style="stop-color:rgb(246, 212, 144); stop-opacity:1"/>
</linearGradient>
<linearGradient id="grad_3" x1="90%" y1="100%" x2="99%" y2="28%">
<stop offset="0%" style="stop-color:rgb(121, 111, 107); stop-opacity:1"/>
<stop offset="100%" style="stop-color:rgb(235, 228, 225); stop-opacity:1"/>
</linearGradient>
<linearGradient id="grad_4" x1="0%" y1="64%" x2="100%" y2="64%">
<stop offset="0%" style="stop-color:rgb(176, 167, 166); stop-opacity:1"/>
<stop offset="100%" style="stop-color:rgb(176, 167, 166); stop-opacity:1"/>
</linearGradient>
<linearGradient id="grad_5" x1="0%" y1="28%" x2="104%" y2="46%">
<stop offset="0%" style="stop-color:rgb(26, 17, 9); stop-opacity:1"/>
<stop offset="100%" style="stop-color:rgb(57, 45, 38); stop-opacity:1"/>
</linearGradient>
<linearGradient id="grad_6" x1="0%" y1="32%" x2="100%" y2="32%">
<stop offset="0%" style="stop-color:rgb(227, 147, 83); stop-opacity:1"/>
<stop offset="100%" style="stop-color:rgb(227, 147, 83); stop-opacity:1"/>
</linearGradient>
<linearGradient id="grad_7" x1="89%" y1="0%" x2="101%" y2="13%">
<stop offset="0%" style="stop-color:rgb(241, 184, 107); stop-opacity:1"/>
<stop offset="100%" style="stop-color:rgb(245, 187, 108); stop-opacity:1"/>
</linearGradient>
<linearGradient id="grad_8" x1="0%" y1="50%" x2="99%" y2="51%">
<stop offset="0%" style="stop-color:rgb(127, 127, 127); stop-opacity:0.655938"/>
<stop offset="100%" style="stop-color:rgb(127, 127, 127); stop-opacity:0.690108"/>
</linearGradient>
<linearGradient id="grad_9" x1="0%" y1="91%" x2="100%" y2="91%">
<stop offset="0%" style="stop-color:rgb(0, 0, 0); stop-opacity:0.41468"/>
<stop offset="100%" style="stop-color:rgb(0, 0, 0); stop-opacity:0.41468"/>
</linearGradient>
<linearGradient id="grad_10" x1="8%" y1="52%" x2="44%" y2="100%">
<stop offset="0%" style="stop-color:rgb(255, 255, 255); stop-opacity:0.993223"/>
<stop offset="100%" style="stop-color:rgb(255, 255, 255); stop-opacity:0.995476"/>
</linearGradient>
<linearGradient id="grad_11" x1="0%" y1="88%" x2="96%" y2="98%">
<stop offset="0%" style="stop-color:rgb(255, 255, 255); stop-opacity:0.596194"/>
<stop offset="100%" style="stop-color:rgb(255, 255, 255); stop-opacity:0.657721"/>
</linearGradient>
<linearGradient id="grad_12" x1="100%" y1="91%" x2="-4%" y2="76%">
<stop offset="0%" style="stop-color:rgb(85, 85, 85); stop-opacity:0.186104"/>
<stop offset="100%" style="stop-color:rgb(85, 85, 85); stop-opacity:0.364931"/>
</linearGradient>
<linearGradient id="grad_13" x1="62%" y1="6%" x2="33%" y2="90%">
<stop offset="0%" style="stop-color:rgb(255, 255, 255); stop-opacity:0.225725"/>
<stop offset="100%" style="stop-color:rgb(255, 255, 255); stop-opacity:0.376921"/>
</linearGradient>
<linearGradient id="grad_14" x1="100%" y1="100%" x2="-3%" y2="97%">
<stop offset="0%" style="stop-color:rgb(255, 255, 255); stop-opacity:0.617733"/>
<stop offset="100%" style="stop-color:rgb(255, 255, 255); stop-opacity:0.639373"/>
</linearGradient>
<linearGradient id="grad_15" x1="96%" y1="0%" x2="98%" y2="75%">
<stop offset="0%" style="stop-color:rgb(127, 127, 127); stop-opacity:0.066784"/>
<stop offset="100%" style="stop-color:rgb(127, 127, 127); stop-opacity:0.624277"/>
</linearGradient>
<linearGradient id="grad_16" x1="100%" y1="40%" x2="1%" y2="25%">
<stop offset="0%" style="stop-color:rgb(85, 85, 85); stop-opacity:0.331419"/>
<stop offset="100%" style="stop-color:rgb(85, 85, 85); stop-opacity:0.489452"/>
</linearGradient>
</defs>
<g transform="translate(0.000000,520.000000) scale(0.100000,-0.100000)"
fill="url(#grad_0)" stroke="none">
<g>
<path d="M0 2600 l0 -2600 3000 0 3000 0 0 2600 0 2600 -3000 0 -3000 0 0
-2600z"/>
</g>
</g>
<g transform="translate(0.000000,520.000000) scale(0.100000,-0.100000)"
fill="url(#grad_1)" stroke="none">
<g>
<path d="M2025 5053 c-11 -3 -67 -20 -125 -40 -252 -84 -386 -162 -490 -284
-30 -35 -61 -71 -70 -80 -27 -28 -118 -133 -141 -164 -13 -16 -26 -32 -29 -35
-3 -3 -30 -34 -60 -70 -30 -35 -62 -71 -71 -80 -9 -8 -45 -49 -79 -90 -35 -41
-104 -119 -154 -174 -112 -121 -97 -104 -183 -208 -68 -80 -73 -90 -73 -133 0
-42 -2 -46 -20 -40 -49 16 -78 -4 -202 -141 -68 -74 -126 -148 -130 -163 -5
-16 -15 -34 -23 -41 -20 -17 -19 -49 7 -133 20 -69 25 -74 162 -212 122 -122
212 -201 321 -280 15 -11 63 -40 108 -64 77 -41 84 -43 149 -39 l69 4 73 74
c85 87 168 185 214 253 18 26 39 47 47 47 28 0 83 65 101 120 32 101 112 220
147 220 21 0 163 -69 209 -101 14 -11 28 -19 31 -19 3 0 38 -22 77 -49 39 -27
93 -55 120 -62 27 -7 51 -18 52 -24 4 -17 3158 -2939 3182 -2948 12 -5 64 -9
116 -10 85 -1 101 1 150 25 63 31 121 84 207 189 176 216 221 348 155 460 -41
71 -85 114 -284 280 -100 83 -199 166 -218 183 -20 17 -55 47 -79 66 -23 19
-52 44 -65 55 -12 11 -44 38 -70 60 -26 22 -58 49 -70 60 -12 11 -42 36 -66
55 -24 19 -76 62 -115 95 -58 50 -307 258 -394 330 -13 11 -34 29 -47 40 -12
12 -41 36 -64 55 -23 19 -55 46 -70 60 -15 14 -45 39 -66 57 -22 17 -130 107
-240 200 -111 92 -221 184 -244 203 -24 19 -57 47 -74 62 -94 82 -357 303
-536 452 -113 93 -237 197 -276 230 -39 34 -90 77 -113 96 -24 19 -53 44 -66
55 -82 73 -151 132 -169 145 -12 8 -25 19 -31 25 -5 6 -29 26 -53 45 -36 27
-42 37 -37 57 3 13 0 33 -6 44 -21 39 -161 217 -322 409 -67 79 -78 97 -73
120 7 38 60 114 126 183 52 55 59 58 120 67 87 12 390 -11 595 -45 160 -27
257 28 272 153 3 28 0 65 -6 85 -11 33 -16 36 -114 67 -56 17 -120 38 -142 45
-51 17 -225 72 -380 120 -66 20 -129 41 -140 46 -71 32 -254 50 -330 32z"/>
</g>
</g>
<g transform="translate(0.000000,520.000000) scale(0.100000,-0.100000)"
fill="url(#grad_2)" stroke="none">
<g>
<path d="M2245 3313 c-4 -13 5 -28 32 -52 21 -18 72 -65 113 -105 41 -39 136
-127 209 -196 74 -69 151 -141 171 -160 20 -19 101 -96 181 -170 79 -74 182
-172 229 -216 47 -45 110 -103 140 -128 30 -26 161 -154 290 -285 129 -131
262 -262 296 -292 90 -81 272 -248 329 -301 27 -27 52 -48 56 -48 3 0 24 -17
45 -37 74 -71 149 -134 259 -218 33 -25 73 -56 89 -68 16 -12 84 -68 153 -124
93 -78 125 -99 130 -88 9 25 -22 52 -352 315 -77 61 -163 132 -190 158 -28 26
-73 67 -100 91 -28 25 -106 97 -174 160 -68 64 -136 127 -151 141 -15 14 -60
54 -100 90 -82 73 -135 126 -331 326 -189 194 -403 401 -474 460 -33 27 -69
58 -81 69 -12 11 -39 36 -61 55 -153 135 -261 234 -483 446 -105 101 -208 194
-214 194 -2 0 -7 -8 -11 -17z"/>
</g>
</g>
<g transform="translate(0.000000,520.000000) scale(0.100000,-0.100000)"
fill="url(#grad_3)" stroke="none">
<g>
<path d="M3131 4742 c7 -19 9 -56 6 -84 -15 -125 -112 -180 -272 -153 -205 34
-508 57 -595 45 -61 -9 -68 -12 -120 -67 -66 -68 -119 -145 -126 -183 -5 -22
4 -39 47 -91 63 -77 90 -105 65 -69 -25 38 -20 68 25 137 53 82 129 150 182
164 53 14 160 8 462 -26 198 -22 250 -25 294 -16 91 18 134 76 135 176 0 70
-11 93 -71 155 l-43 45 11 -33z"/>
</g>
</g>
<g transform="translate(0.000000,520.000000) scale(0.100000,-0.100000)"
fill="url(#grad_4)" stroke="none">
<g>
<path d="M385 3417 c-58 -56 -65 -67 -65 -101 0 -33 8 -46 68 -108 56 -58 123
-108 147 -108 3 0 -29 32 -70 71 -80 76 -95 105 -76 145 11 24 55 85 94 128
23 27 22 36 -8 36 -16 0 -46 -20 -90 -63z"/>
</g>
</g>
<g transform="translate(0.000000,520.000000) scale(0.100000,-0.100000)"
fill="url(#grad_5)" stroke="none">
<g>
<path d="M1905 4929 c-158 -39 -329 -132 -415 -226 -80 -87 -163 -183 -179
-206 -9 -13 -25 -32 -36 -43 -11 -11 -90 -101 -175 -200 -85 -98 -163 -188
-175 -200 -11 -11 -35 -38 -54 -60 -30 -35 -78 -90 -178 -203 -30 -33 -32 -34
-33 -13 0 19 -3 21 -19 12 -32 -17 -64 -77 -56 -107 8 -32 80 -102 250 -244
51 -43 102 -88 129 -115 43 -42 142 -121 159 -127 35 -13 65 3 73 36 8 40 68
160 103 207 42 57 94 100 130 106 50 10 138 -19 269 -88 64 -33 119 -64 122
-68 3 -3 24 -17 48 -30 23 -13 42 -27 42 -31 0 -12 61 -32 69 -23 72 76 90
106 79 124 -10 16 -6 25 31 67 94 105 105 114 124 109 23 -6 72 38 87 79 11
28 7 38 -30 76 -8 9 -42 47 -75 84 -33 38 -73 83 -90 100 -16 18 -39 43 -50
56 -160 192 -175 217 -175 291 0 45 27 128 41 128 5 0 9 5 9 11 0 21 88 136
139 181 80 72 107 81 256 86 122 3 193 -2 510 -41 120 -15 159 -10 163 19 3
23 -2 25 -113 40 -27 3 -158 42 -290 84 -431 141 -398 132 -530 136 -66 2
-138 -1 -160 -7z"/>
</g>
</g>
<g transform="translate(0.000000,520.000000) scale(0.100000,-0.100000)"
fill="url(#grad_6)" stroke="none">
<g>
<path d="M2223 3532 c-105 -117 -163 -185 -163 -191 0 -3 28 -31 63 -62 l63
-57 23 40 23 40 -51 52 c-40 41 -49 54 -39 64 10 10 23 2 63 -37 l50 -49 75
79 c73 76 74 79 56 95 -11 9 -38 34 -61 55 l-42 38 -60 -67z"/>
</g>
</g>
<g transform="translate(0.000000,520.000000) scale(0.100000,-0.100000)"
fill="url(#grad_7)" stroke="none">
<g>
<path d="M2326 3409 c-36 -39 -66 -74 -65 -77 0 -4 26 -29 57 -56 31 -27 100
-90 152 -140 222 -212 330 -311 483 -446 22 -19 49 -44 61 -55 12 -11 48 -42
81 -69 71 -59 285 -266 474 -460 196 -200 249 -253 331 -326 40 -36 85 -76
100 -90 15 -14 83 -77 151 -141 68 -63 146 -135 174 -160 27 -24 72 -65 100
-91 27 -26 113 -97 190 -158 330 -263 361 -290 352 -315 -5 -11 -37 10 -130
88 -69 56 -137 112 -153 124 -16 12 -56 43 -89 68 -110 84 -185 147 -259 218
-21 20 -42 37 -45 37 -4 0 -29 21 -56 48 -57 53 -239 220 -329 301 -34 30
-167 161 -296 292 -129 131 -260 259 -290 285 -30 25 -93 83 -140 128 -47 44
-150 142 -229 216 -80 74 -161 151 -181 170 -20 19 -97 91 -171 160 -73 69
-168 157 -209 197 -41 39 -92 86 -113 103 -28 24 -36 38 -31 52 9 29 -83 123
-103 106 -11 -9 -4 -21 37 -63 l52 -53 -23 -39 -23 -40 46 -44 c41 -40 221
-207 287 -268 44 -40 271 -253 326 -306 121 -116 370 -351 500 -472 77 -72
215 -204 307 -294 92 -90 187 -182 210 -204 71 -64 267 -245 332 -306 34 -31
92 -85 130 -120 39 -35 86 -80 106 -99 58 -57 138 -128 255 -228 61 -52 117
-102 125 -111 9 -9 45 -41 80 -71 36 -30 70 -59 76 -65 6 -5 33 -28 58 -50 26
-21 58 -48 70 -60 191 -171 202 -175 295 -89 100 93 215 251 226 310 5 26 -4
39 -72 110 -76 79 -129 128 -248 229 -32 28 -69 60 -81 71 -12 12 -37 32 -56
45 -18 13 -40 31 -49 39 -8 8 -33 30 -55 48 -40 34 -144 127 -194 172 -15 14
-40 36 -56 49 -70 59 -149 126 -154 131 -3 3 -18 16 -35 29 -28 21 -107 89
-161 136 -12 11 -44 38 -70 60 -26 22 -80 67 -118 100 -39 33 -111 94 -161
135 -49 41 -92 77 -95 80 -7 8 -170 139 -206 165 -15 11 -75 58 -134 105 -59
47 -148 117 -199 155 -113 87 -108 83 -331 265 -236 193 -260 213 -274 225 -6
6 -51 43 -101 84 -49 41 -97 82 -106 90 -9 9 -38 34 -65 56 -26 22 -57 49 -69
60 -35 36 -112 95 -122 95 -6 0 -40 -32 -77 -71z"/>
</g>
</g>
<g transform="translate(0.000000,520.000000) scale(0.100000,-0.100000)"
fill="url(#grad_8)" stroke="none">
<g>
<path d="M439 3522 c-30 -33 -72 -80 -94 -107 -22 -26 -47 -55 -56 -64 -26
-25 -8 -55 100 -163 91 -91 101 -98 137 -98 21 0 62 11 91 24 51 24 144 107
177 158 16 25 16 28 1 52 -10 14 -20 26 -24 26 -3 0 -17 10 -31 23 -14 13 -56
50 -95 84 -38 33 -85 75 -104 92 -19 17 -38 31 -41 31 -4 0 -31 -26 -61 -58z
m61 -50 c0 -5 -8 -17 -17 -28 -39 -43 -83 -104 -94 -128 -19 -40 -4 -69 76
-145 41 -39 73 -71 70 -71 -24 0 -91 50 -147 108 -60 62 -68 75 -68 108 0 34
7 45 65 101 44 43 74 63 90 63 14 0 25 -4 25 -8z"/>
</g>
</g>
<g transform="translate(0.000000,520.000000) scale(0.100000,-0.100000)"
fill="url(#grad_9)" stroke="none">
<g>
<path d="M833 3315 c-4 -13 10 -31 53 -69 120 -105 136 -123 130 -142 -3 -11
-33 -48 -67 -84 -33 -36 -72 -80 -86 -98 -40 -51 -56 -56 -104 -31 -23 11 -47
25 -53 30 -6 5 -41 32 -78 59 -37 28 -87 68 -110 90 -24 22 -49 40 -56 40 -30
0 -74 34 -136 105 -36 42 -66 71 -66 66 0 -43 392 -401 438 -401 5 0 15 -7 22
-14 6 -8 32 -23 57 -32 l46 -18 49 55 c106 115 198 231 198 248 0 18 -38 56
-153 156 -69 59 -75 62 -84 40z"/>
</g>
</g>
<g transform="translate(0.000000,520.000000) scale(0.100000,-0.100000)"
fill="url(#grad_10)" stroke="none">
<g>
<path d="M1967 5036 c-73 -22 -126 -47 -62 -30 55 15 246 9 315 -10 134 -36
593 -184 655 -210 17 -7 52 -19 78 -26 59 -16 82 -45 73 -94 -13 -66 -11 -66
-341 -26 -218 26 -444 31 -495 11 -109 -44 -280 -263 -280 -358 0 -52 41 -121
129 -218 10 -11 51 -58 91 -105 40 -47 76 -87 80 -90 4 -3 34 -37 68 -77 53
-61 62 -78 62 -110 0 -40 13 -59 81 -117 19 -16 50 -43 70 -60 20 -17 67 -59
105 -92 38 -34 132 -114 209 -178 77 -65 154 -129 172 -144 17 -15 46 -39 65
-54 18 -15 103 -84 188 -153 85 -70 166 -135 180 -146 122 -94 225 -174 275
-211 17 -12 32 -25 35 -28 3 -3 21 -17 40 -30 19 -13 40 -29 46 -35 7 -5 29
-23 49 -40 50 -40 115 -93 140 -113 11 -10 36 -28 55 -42 19 -13 55 -43 80
-66 25 -23 65 -59 90 -79 25 -20 54 -44 65 -53 11 -10 65 -55 120 -101 110
-92 197 -165 230 -196 44 -39 137 -118 163 -139 37 -28 163 -135 183 -155 9
-9 38 -34 64 -56 27 -22 55 -47 64 -56 16 -17 61 -55 141 -119 24 -19 54 -44
66 -55 13 -11 53 -47 91 -79 121 -106 264 -255 279 -292 10 -23 13 -48 8 -67
-7 -33 -35 -98 -45 -107 -3 -3 -12 -16 -19 -30 -23 -44 -115 -153 -183 -217
-103 -97 -176 -107 -260 -35 -24 20 -63 53 -86 72 -24 19 -53 44 -65 55 -13
11 -49 43 -82 70 -32 28 -94 82 -138 120 -43 39 -112 98 -153 132 -78 65 -116
100 -246 223 -44 41 -85 80 -91 85 -6 6 -39 35 -72 65 -216 199 -291 268 -313
291 -14 14 -69 64 -121 110 -52 46 -99 90 -104 98 -5 9 -44 47 -85 86 -42 38
-139 131 -216 206 -174 168 -204 197 -301 284 -42 39 -105 97 -139 130 -64 63
-302 288 -438 415 -45 41 -117 109 -162 151 -90 85 -205 192 -279 259 -27 25
-58 53 -68 62 -12 12 -27 16 -47 12 -32 -7 -45 -1 -156 71 -114 73 -226 131
-306 156 -69 22 -70 22 -105 3 -36 -19 -82 -70 -116 -128 -33 -56 -68 -136
-68 -156 0 -25 -46 -60 -80 -60 -27 0 -34 -9 -61 -79 -7 -19 -22 -44 -33 -57
-12 -12 -48 -53 -81 -90 -142 -161 -147 -163 -237 -118 -129 66 -360 259 -463
389 -22 27 -46 56 -53 64 -7 7 -16 26 -19 42 l-5 29 -19 -24 c-24 -31 -24 -52
2 -138 17 -55 31 -79 69 -116 84 -84 163 -153 245 -216 120 -91 138 -103 206
-136 85 -41 148 -41 212 0 26 16 47 33 47 37 0 5 22 31 48 59 88 95 164 188
179 220 10 19 28 35 49 43 44 16 68 49 108 149 44 108 94 181 124 182 40 0
297 -135 358 -188 22 -19 70 -40 109 -48 22 -4 51 -15 63 -25 25 -19 247 -224
292 -269 14 -14 88 -84 165 -155 77 -71 174 -161 215 -200 198 -190 2159
-2003 2261 -2090 245 -210 281 -234 360 -235 120 -1 237 88 406 308 42 55 101
182 108 232 5 36 2 65 -10 102 -16 50 -26 61 -163 173 -80 66 -180 149 -222
185 -42 36 -96 81 -119 100 -23 19 -52 44 -65 55 -12 11 -44 38 -70 60 -26 22
-58 49 -70 60 -12 11 -42 36 -66 55 -24 19 -76 62 -115 95 -58 50 -307 258
-394 330 -13 11 -34 29 -47 40 -12 12 -41 36 -64 55 -23 19 -55 46 -70 60 -15
14 -45 39 -66 57 -22 17 -130 107 -240 200 -111 92 -221 184 -244 203 -24 19
-57 47 -74 62 -94 82 -357 303 -536 452 -113 93 -237 197 -276 230 -39 34 -90
77 -113 96 -24 19 -53 44 -66 55 -82 73 -151 132 -169 145 -12 8 -25 19 -31
25 -5 6 -29 26 -53 45 -36 27 -42 37 -37 57 3 13 0 33 -6 44 -21 39 -161 217
-322 409 -67 79 -78 97 -73 120 7 38 60 114 126 183 52 55 59 58 120 67 87 12
390 -11 595 -45 160 -27 257 28 272 153 3 28 0 65 -6 85 -11 33 -16 36 -114
67 -56 17 -120 38 -142 45 -51 17 -225 72 -380 120 -66 20 -129 41 -140 46
-98 44 -267 51 -388 15z"/>
</g>
</g>
<g transform="translate(0.000000,520.000000) scale(0.100000,-0.100000)"
fill="url(#grad_11)" stroke="none">
<g>
<path d="M1411 3349 c-19 -27 -49 -86 -67 -131 -40 -100 -64 -133 -108 -149
-21 -8 -39 -24 -49 -43 -15 -32 -91 -125 -179 -220 -26 -28 -48 -54 -48 -59 0
-4 -21 -21 -47 -37 -64 -41 -127 -41 -212 0 -35 17 -77 41 -94 53 -63 44 -202
151 -212 163 -5 6 -30 28 -55 49 -25 21 -2 -5 50 -56 83 -82 183 -167 275
-234 15 -11 63 -40 108 -64 77 -41 84 -43 149 -39 l69 4 73 74 c85 87 168 185
214 253 18 26 39 47 47 47 28 0 83 65 101 120 32 101 112 220 147 220 21 0
163 -69 209 -101 14 -11 28 -19 31 -19 3 0 38 -22 77 -49 39 -27 93 -55 120
-62 27 -7 51 -18 52 -24 4 -17 3158 -2939 3182 -2948 12 -5 64 -9 116 -10 85
-1 101 1 150 25 109 54 285 260 360 421 53 115 34 221 -56 308 l-33 31 16 -43
c21 -63 10 -132 -38 -225 -42 -81 -53 -97 -135 -197 -152 -182 -281 -248 -405
-203 -83 29 -254 182 -1439 1280 -569 527 -1069 991 -1110 1031 -41 39 -138
129 -215 200 -77 71 -151 141 -165 155 -45 45 -267 250 -292 269 -12 10 -41
21 -63 25 -39 8 -87 29 -109 48 -61 53 -318 188 -358 188 -16 0 -33 -15 -57
-51z"/>
</g>
</g>
<g transform="translate(0.000000,520.000000) scale(0.100000,-0.100000)"
fill="url(#grad_12)" stroke="none">
<g>
<path d="M2090 4800 c-154 -49 -296 -157 -367 -280 -15 -25 -32 -52 -39 -60
-19 -24 -64 -158 -64 -193 0 -18 13 -59 29 -92 24 -50 67 -97 263 -290 129
-126 246 -236 261 -244 24 -13 29 -12 48 5 50 45 46 61 -42 154 -37 39 -205
233 -259 299 -93 114 -108 208 -50 316 82 153 162 239 276 300 63 33 73 35
158 34 87 0 132 -4 291 -27 39 -6 106 -13 150 -15 l80 -5 -55 15 c-65 18 -301
70 -380 83 -65 12 -264 12 -300 0z"/>
</g>
</g>
<g transform="translate(0.000000,520.000000) scale(0.100000,-0.100000)"
fill="url(#grad_13)" stroke="none">
<g>
<path d="M1810 4882 c-53 -10 -113 -28 -135 -42 -96 -56 -143 -91 -185 -137
-80 -87 -163 -183 -179 -206 -9 -13 -25 -32 -36 -43 -11 -11 -90 -101 -175
-200 -85 -98 -163 -188 -175 -200 -11 -11 -35 -38 -54 -60 -30 -35 -78 -90
-178 -203 -30 -33 -32 -34 -33 -13 0 19 -3 21 -19 12 -32 -17 -64 -77 -56
-107 8 -32 80 -102 250 -244 51 -43 102 -88 129 -115 43 -42 142 -121 159
-127 35 -13 65 3 73 36 8 40 68 160 103 207 42 57 94 100 130 106 50 10 138
-19 269 -88 64 -33 119 -64 122 -68 3 -3 24 -17 48 -30 23 -13 42 -27 42 -31
0 -12 61 -32 69 -23 72 76 90 106 79 124 -12 19 -4 31 103 146 16 17 29 36 29
41 0 5 -19 25 -42 43 -24 19 -139 129 -257 245 -282 277 -300 313 -245 467 14
40 32 80 38 88 7 8 24 35 39 60 33 58 118 147 184 193 55 38 150 81 205 92 29
5 26 2 -22 -25 -64 -36 -110 -78 -151 -137 -63 -90 -24 -98 68 -14 45 42 87
69 138 90 99 42 177 42 450 3 39 -6 106 -13 150 -15 l80 -5 -55 15 c-30 8
-104 25 -165 39 -60 13 -132 29 -160 35 -27 7 -99 16 -160 20 l-110 8 140 -4
140 -3 -70 20 c-224 63 -416 80 -575 50z m-77 -187 c-60 -16 -119 -51 -176
-104 -22 -20 -161 -182 -310 -361 -395 -475 -397 -477 -397 -487 0 -4 16 -33
36 -62 l37 -54 -34 23 c-54 38 -107 95 -115 124 -5 23 2 36 52 89 33 34 91 98
129 141 39 44 81 91 95 106 31 33 159 175 230 255 30 33 56 62 59 65 8 7 65
72 120 138 73 87 176 141 271 141 l55 0 -52 -14z m-207 -935 c34 -6 75 -17 90
-25 16 -8 34 -15 39 -15 10 0 156 -82 179 -101 97 -77 196 -167 196 -180 0 -9
-16 -33 -36 -53 l-36 -37 -31 21 c-18 11 -45 28 -61 37 -15 10 -44 28 -63 41
-40 26 -146 81 -215 111 -61 27 -146 37 -191 22 -77 -26 -191 -179 -240 -323
-9 -24 -31 -22 -61 5 -71 65 -125 113 -251 222 -226 196 -228 198 -221 222 9
27 37 38 48 19 5 -8 14 -21 21 -28 6 -7 23 -29 36 -48 34 -50 108 -107 169
-130 l52 -20 53 24 c31 14 81 52 125 95 130 128 240 167 398 141z"/>
</g>
</g>
<g transform="translate(0.000000,520.000000) scale(0.100000,-0.100000)"
fill="url(#grad_14)" stroke="none">
<g>
<path d="M1640 4696 c-64 -24 -137 -76 -181 -128 -55 -66 -112 -131 -120 -138
-3 -3 -29 -32 -59 -65 -71 -80 -199 -222 -230 -255 -14 -15 -56 -62 -95 -106
-38 -43 -96 -107 -129 -141 -50 -53 -57 -66 -52 -89 8 -29 61 -86 115 -124
l34 -23 -37 54 c-20 29 -36 58 -36 62 0 10 2 12 397 487 149 179 288 341 310
361 57 53 116 88 176 104 l52 14 -55 0 c-30 0 -71 -6 -90 -13z"/>
</g>
</g>
<g transform="translate(0.000000,520.000000) scale(0.100000,-0.100000)"
fill="url(#grad_15)" stroke="none">
<g>
<path d="M1895 4926 c-62 -17 -169 -58 -135 -52 220 39 374 29 625 -42 l70
-20 -140 3 -140 4 110 -8 c61 -4 133 -13 160 -20 28 -6 100 -22 160 -35 61
-13 148 -33 195 -45 173 -44 106 -13 -165 76 -470 154 -436 145 -570 149 -80
2 -137 -1 -170 -10z"/>
</g>
</g>
<g transform="translate(0.000000,520.000000) scale(0.100000,-0.100000)"
fill="url(#grad_16)" stroke="none">
<g>
<path d="M1363 3759 c-75 -13 -152 -58 -235 -140 -44 -43 -94 -81 -125 -95
l-53 -24 -52 20 c-61 23 -135 80 -169 130 -13 19 -30 41 -36 48 -7 7 -16 20
-21 28 -11 19 -39 8 -48 -19 -7 -24 -5 -26 221 -222 126 -109 180 -157 251
-222 30 -27 52 -29 61 -5 30 90 107 216 164 272 89 86 174 80 380 -25 37 -19
83 -45 102 -57 19 -13 48 -31 63 -41 16 -9 43 -26 61 -37 l31 -21 36 37 c20
20 36 44 36 53 0 13 -99 103 -196 180 -23 19 -169 101 -179 101 -5 0 -23 7
-39 15 -30 16 -134 36 -176 34 -14 -1 -48 -5 -77 -10z"/>
</g>
</g>
</svg>
