<?xml version="1.0" encoding="utf-8"?>
<!-- Generator: Adobe Illustrator 27.0.0, SVG Export Plug-In . SVG Version: 6.00 Build 0)  -->
<svg version="1.1" id="图层_1" xmlns="http://www.w3.org/2000/svg" xmlns:xlink="http://www.w3.org/1999/xlink" x="0px" y="0px"
	 viewBox="0 0 1261.9 454.5" style="enable-background:new 0 0 1261.9 454.5;" xml:space="preserve">
<style type="text/css">
	.st0{fill:none;}
	.st1{fill:#D3D3D3;}
	.st2{clip-path:url(#SVGID_00000062879335743565373470000009988523336522650041_);}
	.st3{fill:url(#SVGID_00000151521738772036391210000016465323410139772092_);}
	.st4{fill:none;stroke:#000000;stroke-width:3;stroke-miterlimit:10;}
	.st5{fill:url(#region-1-1_00000052783969398421147960000017405732196403192992_);}
	.st6{fill:url(#region-1-2_00000001635481755365390900000004939909181515024031_);}
	.st7{fill:url(#region-1-3_00000087397841890130706390000011040979067032569226_);}
	.st8{fill:url(#region-1-4_00000022560651256221248950000006835033047242294207_);}
	.st9{fill:url(#region-1-5_00000179638322715676917210000014871878949924789940_);}
	.st10{fill:url(#region-1-6_00000173870287997732635320000012128661755594365075_);}
	.st11{fill:url(#region-1-7_00000147203357073435100550000000003195693878648761_);}
	.st12{fill:url(#region-1-8_00000110465305505873183550000008667620131628089732_);}
	.st13{fill:url(#region-1-9_00000118382985932818799420000008019909430008187278_);}
	.st14{fill:url(#region-1-10_00000057859759499914681930000009499590602188651919_);}
	.st15{fill:url(#region-1-11_00000106139888652414478460000002879719264034464177_);}
	.st16{fill:url(#region-1-12_00000165213897598304789870000017502003917360950711_);}
	.st17{fill:url(#region-2-1_00000160164990427478263210000005365661526395924923_);}
	.st18{fill:url(#region-2-2_00000181790796697295457820000014051711407471615402_);}
	.st19{fill:url(#region-2-3_00000105412245493551638850000000675895549104935829_);}
	.st20{fill:url(#region-2-4_00000029728006965178580420000000625899341856585915_);}
	.st21{fill:url(#region-2-5_00000006682000587179424540000008723142804091127436_);}
	.st22{fill:url(#region-2-6_00000051363383865111445390000006424668582075913642_);}
	.st23{fill:url(#region-2-7_00000071542297038532379750000018139207795519180677_);}
	.st24{fill:url(#region-2-8_00000151530765124516318080000012601478000135282613_);}
	.st25{fill:url(#region-2-9_00000013915691566239892690000000936978232334393994_);}
	.st26{fill:url(#region-2-10_00000137094981463239984530000000161979121170722233_);}
	.st27{fill:url(#region-2-11_00000159441487921916731240000004944182831564629649_);}
	.st28{fill:url(#region-2-12_00000070817967872237659800000012279412743240363923_);}
	.st29{fill:url(#region-2-13_00000167398034516701407250000001461608816462042039_);}
	.st30{fill:url(#region-2-14_00000139292722690527310690000015624763539365890224_);}
	.st31{fill:url(#region-2-15_00000103244690735706519000000001209533654437506233_);}
	.st32{fill:url(#region-2-16_00000080174876555231319830000004400538079473773958_);}
	.st33{fill:url(#region-2-17_00000039107184664363029580000000462068943821549453_);}
	.st34{fill:url(#region-2-18_00000132060945311844971990000003121420840109054139_);}
	.st35{fill:url(#region-3-1_00000019678930874402432560000018445295513745447828_);}
	.st36{fill:url(#region-3-2_00000105386079254323231040000007813454541583543983_);}
	.st37{fill:url(#region-3-3_00000098217374664516382670000008563750289816582834_);}
	.st38{fill:url(#region-3-4_00000018916104895501467040000000763005136155982001_);}
	.st39{fill:url(#region-3-5_00000172435847320555783250000010496057929064763317_);}
	.st40{fill:url(#region-3-6_00000075875481335951096550000015498981948449862017_);}
	.st41{fill:url(#region-3-7_00000021802666118305772050000017300679419853166471_);}
	.st42{fill:url(#region-3-8_00000158730542939962269160000006723691077418026369_);}
	.st43{fill:url(#region-3-9_00000032612081722507144060000007292295899334634912_);}
	.st44{fill:url(#region-4-1_00000064336275340605042430000011647527156353351048_);}
	.st45{fill:url(#region-4-2_00000054237501731344870120000009445022658540215172_);}
	.st46{fill:url(#region-4-3_00000121965369584215097520000008675672337519370893_);}
	.st47{fill:url(#region-4-4_00000103223381106145963640000000652917022342309309_);}
	.st48{fill:url(#region-1-7-2_00000142875838921649834410000015780123907259445173_);}
	.st49{fill:url(#region-2-8-2_00000005250874924574911920000002368957839086624645_);}
	.st50{fill:url(#region-3-3-2_00000139289272486190604640000010823357304124143277_);stroke:#000000;stroke-miterlimit:10;}
	.st51{fill:url(#region-4-1-2_00000094606446072551960890000001536974223693045136_);stroke:#000000;stroke-miterlimit:10;}
	.st52{fill:none;stroke:#0000FF;stroke-width:2;stroke-miterlimit:10;}
	.st53{fill:url(#region-2-14_00000075842501624021915660000001731922798258334140_);}
	.st54{fill:url(#region-3-5_00000003068041658071295690000010180451025302182795_);}
	.st55{fill:url(#region-3-6_00000067207681921853341100000001783543636653971132_);}
	.st56{fill:url(#region-3-7_00000031187739201695031040000017773997369147489683_);}
</style>
<pattern  y="454.5" width="40" height="40" patternUnits="userSpaceOnUse" id="SVGID_0000004992215559029419378" viewBox="0 -40 40 40" style="overflow:visible;">
	<g>
		<rect y="-40" class="st0" width="40" height="40"/>
		<g>
			<rect y="-40" class="st0" width="40" height="40"/>
			<g>
				<rect y="-40" class="st0" width="40" height="40"/>
				<g>
					<rect y="-40" class="st0" width="40" height="40"/>
					<g>
						<rect y="-40" class="st0" width="40" height="40"/>
						<g>
							<polygon class="st0" points="0,0 40,0 40,-40 0,-40 							"/>
							<polygon class="st1" points="0,-20 20,-20 20,-40 0,-40 							"/>
							<polygon class="st1" points="20,0 40,0 40,-20 20,-20 							"/>
						</g>
					</g>
				</g>
			</g>
		</g>
	</g>
</pattern>
<g>
	<defs>
		<rect id="SVGID_1_" x="0.2" width="1261.4" height="454.3"/>
	</defs>
	<clipPath id="SVGID_00000098199309789342924270000001954022141310090931_">
		<use xlink:href="#SVGID_1_"  style="overflow:visible;"/>
	</clipPath>
	<g style="clip-path:url(#SVGID_00000098199309789342924270000001954022141310090931_);">
		
			<pattern  id="SVGID_00000065040799908143010470000016839406174644876682_" xlink:href="#SVGID_0000004992215559029419378" patternTransform="matrix(1 0 0 1 31.44 1126.64)">
		</pattern>
		<rect x="0.2" style="fill:url(#SVGID_00000065040799908143010470000016839406174644876682_);" width="1260.6" height="454"/>
	</g>
</g>
<g>
	<line class="st4" x1="965.4" y1="304.3" x2="1022.9" y2="304.3"/>
	<path d="M1041,304.3c-8.5,3.2-19.1,8.5-25.6,14.3l5.2-14.3l-5.2-14.3C1021.9,295.7,1032.5,301.1,1041,304.3z"/>
</g>
<g id="layer-1">
	
		<linearGradient id="region-1-1_00000089562182144575748700000011689917994158092169_" gradientUnits="userSpaceOnUse" x1="-1002.8428" y1="-3.788" x2="-1001.8328" y2="-3.778" gradientTransform="matrix(201 0 0 -164 202156.7656 -536.2109)">
		<stop  offset="0" style="stop-color:#EA572D;stop-opacity:0.99"/>
		<stop  offset="1" style="stop-color:#CD1C1B"/>
	</linearGradient>
	<path id="region-1-1" style="fill:url(#region-1-1_00000089562182144575748700000011689917994158092169_);" d="M660.6,5.8
		c-22.1,2-40.4,3.9-40.6,4.1c-0.3,0.3-1.7,8.8-3.2,19c-7.7,53.1-17.6,98.7-27.9,128.9c-1.5,4.1-2.6,7.6-2.6,7.8s45.2,0.3,100.5,0.3
		s100.5-0.3,100.5-0.8c0-0.4-0.7-3-1.5-5.7c-6.2-20.3-13.5-69.8-17.5-118.5c-0.7-7.4-1.5-13.8-1.8-14.2c-0.4-0.3-12.1-6.1-26-12.7
		L715.1,1.9L708,2C704,2.1,682.7,3.8,660.6,5.8L660.6,5.8z"/>
	
		<linearGradient id="region-1-2_00000101064748009290015950000015037284434186154661_" gradientUnits="userSpaceOnUse" x1="-968.6302" y1="-5.9878" x2="-967.1702" y2="-6.9278" gradientTransform="matrix(34.98 0 0 -98 34687.6016 -567.9531)">
		<stop  offset="0" style="stop-color:#6B47A8;stop-opacity:0.99"/>
		<stop  offset="1" style="stop-color:#6C48A8"/>
	</linearGradient>
	<path id="region-1-2" style="fill:url(#region-1-2_00000101064748009290015950000015037284434186154661_);" d="M807.8,12.8
		c-3,13.1-2.4,14.5,10.9,28.1s12.6,11.1,12.6,42.2v19.8h10V77.1c0-14.1-0.4-27.4-0.9-29.4c-0.5-2.1-2.8-6.6-5.1-10
		c-6.6-9.7-24.1-32.8-25-32.8C810,4.9,808.8,8.5,807.8,12.8z"/>
	
		<linearGradient id="region-1-3_00000147924496897105654980000008643576349403461034_" gradientUnits="userSpaceOnUse" x1="-964.4079" y1="-8.1763" x2="-964.4079" y2="-9.1764" gradientTransform="matrix(32.19 0 0 -71.72 31883.5195 -484.3398)">
		<stop  offset="0" style="stop-color:#937CCE;stop-opacity:0.99"/>
		<stop  offset="1" style="stop-color:#9985D5;stop-opacity:0.99"/>
	</linearGradient>
	<path id="region-1-3" style="fill:url(#region-1-3_00000147924496897105654980000008643576349403461034_);" d="M828.8,104.1
		c-5.2,3.4-5,2.2-5.3,33l-0.4,28.8h3.6c2.3,0,3.6,0.5,3.6,1.3c0,1.2,20.3,7.7,24,7.7c1.1,0,1.2-5.7,0.7-31.5
		c-0.4-17.3-1.1-32.5-1.7-33.9c-0.5-1.4-2.4-3.2-4.1-4.2C845,103.2,831.5,102.4,828.8,104.1L828.8,104.1z"/>
	
		<linearGradient id="region-1-4_00000129205179564347127980000003788388987879225489_" gradientUnits="userSpaceOnUse" x1="-999.427" y1="-2.6052" x2="-999.427" y2="-3.6052" gradientTransform="matrix(143.46 0 0 -199.61 144265.0156 -352.0977)">
		<stop  offset="0" style="stop-color:#D01D1B;stop-opacity:0.99"/>
		<stop  offset="1" style="stop-color:#CA191B"/>
	</linearGradient>
	<path id="region-1-4" style="fill:url(#region-1-4_00000129205179564347127980000003788388987879225489_);" d="M830.3,190.1
		c0,45-4.4,96.7-12.7,147.6c-1.4,8.9-2.4,16.5-2.1,16.7c0.2,0.3,8.5,1.2,18.4,2.1c9.8,0.9,35,4,55.9,6.9c20.9,3,38.1,5.3,38.2,5.1
		c0.9-0.8,31.3-107.2,30.9-108.1c-0.2-0.7-2.3-1.5-4.6-1.8c-5.6-0.7-10.3-5.4-13.1-12.6c-3-7.9-2.3-22.5,1.4-29.7
		c2.8-5.4,7.4-10.3,11.3-11.9c2.2-0.9-0.9-1.9-22.9-8l-25.4-7l-2-4c-1-2.2-3.7-5.4-6-7.1c-5.1-3.9-10.9-4.7-32.6-4.3
		c-14,0.2-15.9,0-24.2-2.4c-4.9-1.5-9.3-2.7-9.7-2.7S830.3,178.5,830.3,190.1L830.3,190.1z"/>
	
		<linearGradient id="region-1-5_00000089571495049638291040000006878151318150888341_" gradientUnits="userSpaceOnUse" x1="-1005.1536" y1="-2.7007" x2="-1004.1136" y2="-3.6307" gradientTransform="matrix(302 0 0 -186.62 304115.1875 -356.8438)">
		<stop  offset="0" style="stop-color:#F95059;stop-opacity:0.99"/>
		<stop  offset="1" style="stop-color:#FA3D1C"/>
	</linearGradient>
	<path id="region-1-5" style="fill:url(#region-1-5_00000089571495049638291040000006878151318150888341_);" d="M528.3,181.9v15.9
		l3.3,0.5c8,1.3,10.2,1,16.4-2.2c10.8-5.6,20-7.5,33.3-7c9.2,0.4,12.8,1,18.2,3.1c17.1,6.6,30.2,18.9,40.3,38
		c4.3,8.1,10.5,25,10.5,28.8c0,1,0.4,1.9,0.9,1.9c1,0,1.9,5.2,2.7,17c0.7,9.9-1,33.4-3.1,43.4c-0.8,3.8-1.3,7.1-1.1,7.4
		c0.3,0.2,11.7,2,25.5,4l25.1,3.5l4.9-5.4c3.1-3.5,7.2-6.5,11.4-8.7c5.7-2.8,7.5-3.2,14.5-3.2c6.4,0,8.2-0.3,9.6-1.8
		c2.6-3,11.8-7.2,17.7-8.1c6.6-1.1,15.7,0.2,21.2,3c9.8,5.1,18.5,17.8,21.3,31.3c0.9,3.9,1.6,7.2,1.7,7.3c0.4,0.3,12.2,2.1,12.4,1.9
		c0.6-0.5,5.5-32.9,7.7-50.6c5.3-41.4,7.6-76.3,7.6-113.3v-22.7h-302V181.9L528.3,181.9z"/>
	
		<linearGradient id="region-1-6_00000111895676516911185840000010086239799599514551_" gradientUnits="userSpaceOnUse" x1="-997.1037" y1="-4.4675" x2="-995.9837" y2="-4.5275" gradientTransform="matrix(111.87 0 0 -137.41 112087.9766 -360.8906)">
		<stop  offset="0" style="stop-color:#540648;stop-opacity:0.99"/>
		<stop  offset="1" style="stop-color:#6D2552;stop-opacity:0.99"/>
	</linearGradient>
	<path id="region-1-6" style="fill:url(#region-1-6_00000111895676516911185840000010086239799599514551_);" d="M560.3,191.2
		c-4.1,1.3-10,3.6-13,5.2l-5.5,2.8l11,1.8c6.1,1,15.1,2.9,20.2,4.2c6.9,1.7,9.4,2,9.7,1.1c0.6-1.6,5-0.5,15.3,3.9
		c8.3,3.5,17.4,10,24.7,17.6c7.5,7.7,16.4,24.5,21,39.6c1.6,4.9,3.5,11.2,4.3,13.9c1.3,4.1,1.5,8.8,1.1,26.5
		c-0.6,22.7,0,24.3,2.8,7.2c2.7-16.6,2.2-54.1-0.7-54.1c-0.5,0-0.9-0.9-0.9-1.9c0-3.8-6.2-20.7-10.5-28.8
		c-10.1-19.1-23.2-31.4-40.3-38c-5.6-2.2-8.7-2.7-19.2-3C569.4,188.9,566.8,189.2,560.3,191.2L560.3,191.2z"/>
	
		<linearGradient id="region-1-7_00000182495861709475934490000005773173523500123286_" gradientUnits="userSpaceOnUse" x1="-1002.9661" y1="-2.5954" x2="-1001.6862" y2="-3.2754" gradientTransform="matrix(201.88 0 0 -212.45 202903.4219 -313.0117)">
		<stop  offset="0" style="stop-color:#B17FC2"/>
		<stop  offset="1" style="stop-color:#200034"/>
	</linearGradient>
	<path id="region-1-7" style="fill:url(#region-1-7_00000182495861709475934490000005773173523500123286_);" d="M504.3,199.5
		c-7.3,2-19.4,8.1-23.9,12.2c-2,1.8-4.7,4.3-6.1,5.6c-8.8,8.1-19.8,23.3-21.1,29.5c-0.5,2-2.2,7.6-3.9,12.5
		c-1.7,4.8-3.8,12.2-4.6,16.3c-1.6,8.4-1.8,36.7-0.4,44.8c0.5,2.7,1.4,8.2,1.9,12c2.2,15.4,12.8,37.2,24.5,50.5
		c7.4,8.3,22.5,18,28.1,18c1.1,0,4.9,0.9,8.4,2c16.4,5.2,50,9.1,60.4,7c26.1-5,51.1-26,65-54.5c4.5-9.4,9.4-25,11.3-36.4
		c2.4-15,1.5-37.1-2-50c-2.8-10-8.2-21.8-13.7-29.8c-8.6-12.4-22-23.7-32.9-27.5C565.3,201,520.9,195.1,504.3,199.5L504.3,199.5z"/>
	
		<linearGradient id="region-1-8_00000050655945974959187740000015020082036446785676_" gradientUnits="userSpaceOnUse" x1="-985.2402" y1="-10.5658" x2="-984.7302" y2="-11.7258" gradientTransform="matrix(58.97 0 0 -55.86 59053.0703 -393.2109)">
		<stop  offset="0" style="stop-color:#EE3A1E"/>
		<stop  offset="1" style="stop-color:#FF6245"/>
	</linearGradient>
	<path id="region-1-8" style="fill:url(#region-1-8_00000050655945974959187740000015020082036446785676_);" d="M953.3,204.6
		c-2.9,1.1-8.2,6.9-10.7,11.7c-3.7,7.2-4.4,21.8-1.4,29.7c4.1,10.9,11.8,14.7,27.7,13.7c8.9-0.6,14.6-3.2,21.8-10.2
		c6.5-6.3,7.6-9.6,7.6-22.1c-0.1-15.4-3.8-20.5-16.5-22.4C974.1,203.9,956,203.6,953.3,204.6L953.3,204.6z"/>
	
		<linearGradient id="region-1-9_00000169540642569515687910000001557048277704315815_" gradientUnits="userSpaceOnUse" x1="-986.3759" y1="-14.2915" x2="-986.3359" y2="-15.3315" gradientTransform="matrix(62.43 0 0 -42.11 62348.9297 -291.5898)">
		<stop  offset="0" style="stop-color:#621B4E"/>
		<stop  offset="1" style="stop-color:#7B3568"/>
	</linearGradient>
	<path id="region-1-9" style="fill:url(#region-1-9_00000169540642569515687910000001557048277704315815_);" d="M757.9,309
		c-5.3,0.9-14.7,5.2-17.2,8.1c-1.4,1.4-1.4,1.8-0.3,1.9c18,0.8,24.7,1.8,31.2,4.8c8.3,3.8,11.6,6.7,17.5,15.1c2.6,3.6,5,6.6,5.4,6.8
		c0.5,0.2,0.8,1.2,0.8,2.2c0,1.2,1,2,3.2,2.4c1.7,0.3,3.3,0.4,3.5,0.2s-0.3-3.5-1.1-7.3C796,319.7,778.3,305.6,757.9,309z"/>
	
		<linearGradient id="region-1-10_00000165945081404040345050000011835408174773622713_" gradientUnits="userSpaceOnUse" x1="-996.0172" y1="-4.7067" x2="-995.9472" y2="-5.7467" gradientTransform="matrix(106.92 0 0 -118.5 107233.2812 -243.1562)">
		<stop  offset="0" style="stop-color:#712467"/>
		<stop  offset="1" style="stop-color:#3B1456"/>
	</linearGradient>
	<path id="region-1-10" style="fill:url(#region-1-10_00000165945081404040345050000011835408174773622713_);" d="M716.8,322
		c-10.7,5.3-22.8,20.3-26,32.2c-1.4,5.2-1.6,9.5-1.3,24.3c0.4,17,0.6,18.3,3.3,24.9c6.2,15.1,13.7,24.4,22.7,28.4
		c6.7,3,22.3,5.6,33.3,5.6c9,0,10.6-0.3,15.3-2.7c20.1-10.4,32.2-33.4,32.2-61.2c0-17.8-4.9-31.2-15.3-41.3
		c-4.3-4.3-6.6-5.6-13.2-7.8c-11.2-3.6-23.1-5.5-34.9-5.5C723.7,318.9,722.3,319.2,716.8,322z"/>
	
		<linearGradient id="region-1-11_00000127026221409020373330000018336245144268140944_" gradientUnits="userSpaceOnUse" x1="-994.9611" y1="-5.0729" x2="-994.6511" y2="-6.1729" gradientTransform="matrix(98.34 0 0 -109.68 98734.3359 -221.6582)">
		<stop  offset="0" style="stop-color:#2C113F"/>
		<stop  offset="1" style="stop-color:#411552"/>
	</linearGradient>
	<path id="region-1-11" style="fill:url(#region-1-11_00000127026221409020373330000018336245144268140944_);" d="M935,345.6
		c-0.2,0.4-1.9,5.9-3.7,12.1c-3.2,11-3.3,11.3-5.9,10.8c-1.4-0.3-14.1-2.1-28.1-4.1c-14-1.9-26.4-3.7-27.5-4
		c-1.7-0.3-2.7,0.7-5.3,5.4c-3.5,6.5-3.9,8.6-1.7,9.5c0.8,0.3,1.5,1.4,1.5,2.5c0,1.4,0.9,2.1,3.3,2.6c6.3,1.3,6.8,1.6,6.5,3.8
		c-0.3,1.9-1,2.2-5.3,2.3c-6.3,0.1-12,2.6-12.9,5.6c-1.1,4.2-0.6,20.2,0.9,27.3c2,9.6,8.5,22.5,13.5,26.8c6.7,5.7,13.8,7.9,27.2,8.5
		c11.3,0.4,12,0.3,17.5-2.3c7.6-3.7,20.6-16.7,26.2-26.2c2.4-4,6.1-12.3,8.3-18.5c3.8-10.7,4-12,4.1-23.8c0.2-9.5-0.2-13.9-1.6-18.5
		c-2-6.5-9.1-18.1-11.6-18.8c-0.9-0.3-2.3-0.8-3.2-1.2C936.2,345.1,935.3,345.1,935,345.6L935,345.6z"/>
	
		<linearGradient id="region-1-12_00000067944242329255741330000012220107189791629979_" gradientUnits="userSpaceOnUse" x1="-991.1068" y1="-19.2111" x2="-990.6468" y2="-20.8111" gradientTransform="matrix(77.87 0 0 -31.49 77994.5234 -250.4595)">
		<stop  offset="0" style="stop-color:#4C165C"/>
		<stop  offset="1" style="stop-color:#3B144C"/>
	</linearGradient>
	<path id="region-1-12" style="fill:url(#region-1-12_00000067944242329255741330000012220107189791629979_);" d="M848.4,364.9
		l-1.3,7.2l-3.6-0.7c-2.9-0.5-3.9-0.3-5.2,1.5c-1.5,2-1.7,2.1-15,0.6c-7.4-0.8-16.5-1.7-20.2-2.1l-6.8-0.6v8.8l17.8,0.6
		c21.1,0.8,22.2,1,22.2,4.6c0,2.7,0,2.8,10.3,3.8c8.7,0.9,10.7,0.8,13.7-0.5c1.9-0.9,5.8-1.6,8.5-1.6c4.3-0.1,5-0.4,5.3-2.3
		c0.3-2.2-0.2-2.5-6.5-3.8c-2.3-0.5-3.3-1.2-3.3-2.5c0-2.1-2.8-4-5.9-4c-2.5,0-2.5-0.6-0.7-8.5c0.8-3.3,1.3-6.1,1.2-6.2
		c-0.1-0.2-2.3-0.6-4.7-0.9l-4.5-0.6L848.4,364.9z"/>
</g>
<linearGradient id="region-2-1_00000044863980975961828850000017891639934610585252_" gradientUnits="userSpaceOnUse" x1="-996.0906" y1="-3.405" x2="-996.0906" y2="-4.405" gradientTransform="matrix(107.8 0 0 -159 108029.0078 -534.8438)">
	<stop  offset="0" style="stop-color:#BFC2FF;stop-opacity:0.83"/>
	<stop  offset="1" style="stop-color:#F2FFFF;stop-opacity:0.86"/>
</linearGradient>
<path id="region-2-1" style="fill:url(#region-2-1_00000044863980975961828850000017891639934610585252_);" d="M662.4,10.5
	c-20.5,2.3-37.5,4.5-37.8,4.7c-0.2,0.3-1.3,8-2.3,17.1c-4.7,41-13.2,86.5-22.9,121.8l-2.9,10.8h107.8V5.9L702.1,6
	C700.8,6.1,683,8.1,662.4,10.5z"/>
<linearGradient id="region-2-2_00000153685640501782082880000015903233985874360746_" gradientUnits="userSpaceOnUse" x1="-988.4875" y1="-3.4728" x2="-988.4875" y2="-4.4728" gradientTransform="matrix(68.95 0 0 -156 68906.2734 -532.4219)">
	<stop  offset="0" style="stop-color:#6482FF;stop-opacity:0.64"/>
	<stop  offset="1" style="stop-color:#6E90FF;stop-opacity:0.65"/>
</linearGradient>
<path id="region-2-2" style="fill:url(#region-2-2_00000153685640501782082880000015903233985874360746_);" d="M715.8,42.6
	c-1.1,45.9,1.6,110.5,5.1,121.5c0.5,1.7,2.9,1.8,32.1,1.8h31.5l-0.6-2.3c-0.4-1.2-2.9-13.2-5.6-26.7c-5.4-27.2-9.8-55.2-13.4-85.9
	c-1.4-11.2-2.8-20.7-3.3-21.2c-0.7-0.7-43.9-19.9-44.7-19.9C716.7,9.9,716.2,24.6,715.8,42.6z"/>
<linearGradient id="region-2-3_00000092433660646515084910000004829649248548438709_" gradientUnits="userSpaceOnUse" x1="-1005.3571" y1="-125.1365" x2="-1004.3571" y2="-124.6765" gradientTransform="matrix(302 0 0 -5 304115.1875 -455.8899)">
	<stop  offset="0" style="stop-color:#F5805F;stop-opacity:0.82"/>
	<stop  offset="1" style="stop-color:#FEFFE5;stop-opacity:0.68"/>
</linearGradient>
<path id="region-2-3" style="fill:url(#region-2-3_00000092433660646515084910000004829649248548438709_);" d="M528.3,168.4v2.5h302
	v-5h-302V168.4z"/>
<linearGradient id="region-2-4_00000162314743047170295060000015229992433911830954_" gradientUnits="userSpaceOnUse" x1="-985.0066" y1="-3.5833" x2="-983.6066" y2="-4.5333" gradientTransform="matrix(57.79 0 0 -155.74 57572.8906 -367.8164)">
	<stop  offset="0" style="stop-color:#8F1783;stop-opacity:0.44"/>
	<stop  offset="1" style="stop-color:#3F002A;stop-opacity:0.8"/>
</linearGradient>
<path id="region-2-4" style="fill:url(#region-2-4_00000162314743047170295060000015229992433911830954_);" d="M707.3,175.6
	c-0.1,6.5-10.6,149.3-11.1,149.7c-0.2,0.2-10.2-1.2-22.2-3.1c-19.4-3.1-24.2-3.5-22.6-1.8c0.8,0.8,46,7.8,46.6,7.2
	c0.3-0.3,2.7-32.4,5.3-71.4c2.7-38.9,5.1-73.8,5.4-77.6c0.4-4.2,0.2-6.7-0.4-6.7C707.8,171.9,707.3,173.6,707.3,175.6L707.3,175.6z"
	/>
<linearGradient id="region-2-5_00000039098931583213546930000009992374161165954226_" gradientUnits="userSpaceOnUse" x1="-989.0044" y1="-8.9576" x2="-989.0044" y2="-9.9576" gradientTransform="matrix(70.69 0 0 -65.81 70784.5938 -415.082)">
	<stop  offset="0" style="stop-color:#FF6A4A;stop-opacity:0.82"/>
	<stop  offset="1" style="stop-color:#FF4524;stop-opacity:0.75"/>
</linearGradient>
<path id="region-2-5" style="fill:url(#region-2-5_00000039098931583213546930000009992374161165954226_);" d="M852.8,176.4
	c-9.8,5.9-15.3,16.1-16.2,30.1c-1.1,16.7,6,29.9,17.5,32.3c11,2.3,24.7,1,32.2-3.1c8.3-4.5,17.3-14.8,19.6-22.5
	c2.8-9.4,0.8-24.4-4.1-30.9c-1.4-1.8-4.1-4.2-6.2-5.5c-3.4-2.1-4.9-2.3-21.2-2.6C857.3,174,856.7,174,852.8,176.4L852.8,176.4z"/>
<linearGradient id="region-2-6_00000161592445685577667980000003951596481311155341_" gradientUnits="userSpaceOnUse" x1="-964.7833" y1="-62.6851" x2="-963.7433" y2="-62.225" gradientTransform="matrix(32 0 0 -10 31530.9805 -432.2598)">
	<stop  offset="0" style="stop-color:#A71F84;stop-opacity:0.77"/>
	<stop  offset="1" style="stop-color:#971581;stop-opacity:0.83"/>
</linearGradient>
<path id="region-2-6" style="fill:url(#region-2-6_00000161592445685577667980000003951596481311155341_);" d="M661.3,191.9v5h32
	v-10h-32V191.9z"/>
<linearGradient id="region-2-7_00000016770807630572442920000004625125979354514082_" gradientUnits="userSpaceOnUse" x1="-974.4216" y1="-207.5137" x2="-973.4516" y2="-209.5938" gradientTransform="matrix(41 0 0 -3 40710.5508 -424.95)">
	<stop  offset="0" style="stop-color:#5D021A;stop-opacity:0.2"/>
	<stop  offset="1" style="stop-color:#4D001D;stop-opacity:0.27"/>
</linearGradient>
<path id="region-2-7" style="fill:url(#region-2-7_00000016770807630572442920000004625125979354514082_);" d="M750.3,199.4
	c0,1.3,2.9,1.5,20.5,1.5c17.6,0,20.5-0.2,20.5-1.5s-2.9-1.5-20.5-1.5C753.2,197.9,750.3,198.1,750.3,199.4z"/>
<linearGradient id="region-2-8_00000119796254678580159950000000342770625706802851_" gradientUnits="userSpaceOnUse" x1="-999.4359" y1="-2.4706" x2="-999.0259" y2="-3.5506" gradientTransform="matrix(140.41 0 0 -200.99 140812.375 -322.4102)">
	<stop  offset="0" style="stop-color:#7B466A;stop-opacity:0.8"/>
	<stop  offset="1" style="stop-color:#6A1688;stop-opacity:0.8"/>
</linearGradient>
<path id="region-2-8" style="fill:url(#region-2-8_00000119796254678580159950000000342770625706802851_);" d="M505.6,200.4
	c-11.7,3.2-22.5,10-33,20.6c-12.8,13.1-21.1,28-26.5,47.9c-2.1,7.7-2.3,10.6-2.3,30.5c0.1,24.4,1,30,8.2,48.9c1.9,5,3.7,9.9,4,10.8
	c0.3,1,0.9,1.8,1.4,1.8s0.9,0.5,0.9,1c0,0.6,2.3,4.6,5.2,8.8c7.4,11.1,17.9,21.1,26.8,25.5c6.7,3.4,7.9,3.7,16,3.7
	c11.4,0,19.7-2.5,29.3-9c33.1-22.1,54.2-76.6,47.3-121.7c-5-33.1-23.2-59.7-46.4-67.9C528.6,198.5,514.2,198.1,505.6,200.4
	L505.6,200.4z"/>
<linearGradient id="region-2-9_00000054966731871234487660000003858288875709268361_" gradientUnits="userSpaceOnUse" x1="-974.1892" y1="-207.5759" x2="-973.7492" y2="-212.3759" gradientTransform="matrix(41 0 0 -3 40710.5508 -415.95)">
	<stop  offset="0" style="stop-color:#420031;stop-opacity:0.23"/>
	<stop  offset="1" style="stop-color:#3A0034;stop-opacity:0.29"/>
</linearGradient>
<path id="region-2-9" style="fill:url(#region-2-9_00000054966731871234487660000003858288875709268361_);" d="M750.3,208.4
	c0,1.3,2.9,1.5,20.5,1.5c17.6,0,20.5-0.2,20.5-1.5s-2.9-1.5-20.5-1.5C753.2,206.9,750.3,207.1,750.3,208.4z"/>
<linearGradient id="region-2-10_00000051358318499156103930000016345202923699525015_" gradientUnits="userSpaceOnUse" x1="-944.8256" y1="-12.1138" x2="-944.3556" y2="-13.1438" gradientTransform="matrix(22.33 0 0 -49.07 22075.5098 -391.9004)">
	<stop  offset="0" style="stop-color:#AE0F17;stop-opacity:0.73"/>
	<stop  offset="1" style="stop-color:#B20C11;stop-opacity:0.8"/>
</linearGradient>
<path id="region-2-10" style="fill:url(#region-2-10_00000051358318499156103930000016345202923699525015_);" d="M980.4,209.2
	c-4.2,0.8-4.3,0.9-2.1,2c1.3,0.7,3.5,3.4,4.9,6.2c2.3,4.3,2.6,6.2,2.6,14.5s-0.4,10.2-2.5,14.3c-1.3,2.7-4.1,6.4-6.2,8.3
	c-4.2,3.7-3.7,4.2,2,1.9c4.6-1.9,13.6-11.2,15.8-16.3c2.5-5.7,2.3-18.6-0.4-23.8C991.1,209.6,987.4,207.7,980.4,209.2L980.4,209.2z"
	/>
<linearGradient id="region-2-11_00000135682259582518669050000006615601578093145747_" gradientUnits="userSpaceOnUse" x1="-963.0033" y1="-12.504" x2="-962.1133" y2="-13.524" gradientTransform="matrix(30.88 0 0 -47.85 30693.4297 -388.1504)">
	<stop  offset="0" style="stop-color:#FFE989;stop-opacity:0.61"/>
	<stop  offset="1" style="stop-color:#FFFFA8;stop-opacity:0.74"/>
</linearGradient>
<path id="region-2-11" style="fill:url(#region-2-11_00000135682259582518669050000006615601578093145747_);" d="M972.3,212.4
	c-6.5,3.6-15.5,18.7-16.6,27.9c-1.5,12.6,1.5,17.6,11,18.4c4.8,0.4,5.4,0.1,9.6-3.6c6.4-5.6,9.3-11.9,9.8-21.3
	c0.5-8.4-0.6-13.3-4.4-19.2C979.1,210.6,976.6,210,972.3,212.4L972.3,212.4z"/>
<linearGradient id="region-2-12_00000124869861356098173530000006287195259369023677_" gradientUnits="userSpaceOnUse" x1="-974.7253" y1="-208.2465" x2="-973.7153" y2="-208.0265" gradientTransform="matrix(41 0 0 -3 40710.5508 -405.95)">
	<stop  offset="0" style="stop-color:#6F0524;stop-opacity:0.37"/>
	<stop  offset="1" style="stop-color:#5C002E;stop-opacity:0.45"/>
</linearGradient>
<path id="region-2-12" style="fill:url(#region-2-12_00000124869861356098173530000006287195259369023677_);" d="M750.3,218.4
	c0,1.3,2.9,1.5,20.5,1.5c17.6,0,20.5-0.2,20.5-1.5s-2.9-1.5-20.5-1.5C753.2,216.9,750.3,217.1,750.3,218.4z"/>
<linearGradient id="region-2-13_00000054966858891727057910000007996519076649279403_" gradientUnits="userSpaceOnUse" x1="-985.3518" y1="-10.1926" x2="-984.6218" y2="-11.3026" gradientTransform="matrix(58.92 0 0 -58.04 58646.3164 -342.4199)">
	<stop  offset="0" style="stop-color:#2F0046;stop-opacity:0.77"/>
	<stop  offset="1" style="stop-color:#501A65;stop-opacity:0.78"/>
</linearGradient>
<path id="region-2-13" style="fill:url(#region-2-13_00000054966858891727057910000007996519076649279403_);" d="M603.5,260.9
	l-18.2,11.9v11c0,6.3,0.4,11.2,1,11.6c0.6,0.3,9.6-4,20.1-9.6c10.4-5.6,19.1-10,19.3-9.8c0.2,0.2,4.1,7.7,8.7,16.7
	c9.4,18.3,9.7,18.4,9.8,3.5c0.1-9,0-9.4-4.2-17.5c-8.5-16.4-16.2-29.8-17.2-29.8C622.2,248.9,613.6,254.3,603.5,260.9L603.5,260.9z"
	/>
<linearGradient id="region-2-14_00000128461913097200354900000017874593227879697304_" gradientUnits="userSpaceOnUse" x1="-996.4058" y1="-6.7729" x2="-996.4058" y2="-7.7729" gradientTransform="matrix(110.18 0 0 -85.53 110677.7109 -318.7422)">
	<stop  offset="0" style="stop-color:#3B0036;stop-opacity:0.75"/>
	<stop  offset="1" style="stop-color:#451367;stop-opacity:0.81"/>
</linearGradient>
<path id="region-2-14" style="fill:url(#region-2-14_00000128461913097200354900000017874593227879697304_);" d="M855.4,260.1
	c-1.5,4.6-17.2,70.1-16.8,70.4c0.1,0.1,21.1,3.1,46.5,6.5c35.5,4.9,46.5,6.1,47.1,5.1c0.4-0.6,3.8-13.9,7.5-29.4
	c3.7-15.6,7.4-30.1,8.2-32.2c0.8-2.1,1.1-4.3,0.7-4.7c-1.1-1.1-16.9-5.2-34.3-8.9c-14.1-3-53.6-10-56.4-10
	C857.1,256.9,856,258.4,855.4,260.1L855.4,260.1z"/>
<linearGradient id="region-2-15_00000050640684809468416730000008886563781970761863_" gradientUnits="userSpaceOnUse" x1="-991.3368" y1="-4.9539" x2="-991.2368" y2="-5.9839" gradientTransform="matrix(79.42 0 0 -113.08 79457.0234 -247.1289)">
	<stop  offset="0" style="stop-color:#875D76;stop-opacity:0.6"/>
	<stop  offset="1" style="stop-color:#8A25A7;stop-opacity:0.54"/>
</linearGradient>
<path id="region-2-15" style="fill:url(#region-2-15_00000050640684809468416730000008886563781970761863_);" d="M717.8,323
	c-6.5,3.2-14.6,11.1-20,19.3c-5.6,8.4-7.8,16.4-8.3,30.2c-0.6,17.6,2.3,29,11,43.1c13,20.8,31.6,23.1,48.2,6
	c7.5-7.8,12-15.2,15.7-25.9c8.5-25.1,4.6-51.8-9.9-66.5c-7-7.2-12-9.3-22.3-9.3C724.9,319.9,723,320.3,717.8,323L717.8,323z"/>
<linearGradient id="region-2-16_00000016042389189026382780000016556523477538880396_" gradientUnits="userSpaceOnUse" x1="-990.9475" y1="-12.1762" x2="-990.3175" y2="-13.4662" gradientTransform="matrix(76.55 0 0 -48.9 76423.4688 -268.7871)">
	<stop  offset="0" style="stop-color:#210338;stop-opacity:0.77"/>
	<stop  offset="1" style="stop-color:#421A58;stop-opacity:0.81"/>
</linearGradient>
<path id="region-2-16" style="fill:url(#region-2-16_00000016042389189026382780000016556523477538880396_);" d="M597.3,338.6
	l-24.5,8.7l-4.5,8c-2.5,4.4-7.1,11.5-10.2,15.8l-5.7,7.7l4.6-2c8.9-3.8,53.8-21.8,55.2-22.1c0.8-0.2,2.2,2.1,3.7,6.2
	c1.4,3.6,2.9,7.6,3.4,8.9l1.1,2.3l2.7-3.5c1.5-1.9,3.6-5.3,4.6-7.5c1.8-4,1.8-4.2-0.9-15.9c-3.3-14.7-3.5-15.3-4.3-15.3
	C622.1,330,610.8,333.9,597.3,338.6L597.3,338.6z"/>
<linearGradient id="region-2-17_00000140711315576615715110000002896461074623465109_" gradientUnits="userSpaceOnUse" x1="-951.8059" y1="-16.9818" x2="-951.2859" y2="-18.0619" gradientTransform="matrix(25 0 0 -35.5 24569.5293 -259.8398)">
	<stop  offset="0" style="stop-color:#34094F;stop-opacity:0.79"/>
	<stop  offset="1" style="stop-color:#48145F;stop-opacity:0.81"/>
</linearGradient>
<path id="region-2-17" style="fill:url(#region-2-17_00000140711315576615715110000002896461074623465109_);" d="M777.6,351.2
	l-7.2,5.2l-0.1,7.2c0,4,0.3,7.3,0.6,7.3c0.4,0,4-2,8.1-4.5c7.3-4.5,7.4-4.5,8.2-2.2c0.5,1.2,2.5,5.6,4.5,9.7l3.5,7.5l0.1-8.2
	c0-7.9-0.2-8.7-4.7-17.8c-2.6-5.2-5-9.5-5.3-9.5C785,346,781.5,348.3,777.6,351.2z"/>
<linearGradient id="region-2-18_00000003806093608915650990000005527455822909580165_" gradientUnits="userSpaceOnUse" x1="-963.8242" y1="-24.4301" x2="-963.3043" y2="-25.6502" gradientTransform="matrix(31.6 0 0 -24.9 31217.8613 -220.8003)">
	<stop  offset="0" style="stop-color:#2B0A42;stop-opacity:0.79"/>
	<stop  offset="1" style="stop-color:#330F4A;stop-opacity:0.81"/>
</linearGradient>
<path id="region-2-18" style="fill:url(#region-2-18_00000003806093608915650990000005527455822909580165_);" d="M774.5,395.6
	c-9.2,3.6-9.4,3.7-12.2,9.2c-1.6,3.1-3.9,7.1-5.1,8.8c-1.1,1.8-1.9,3.3-1.6,3.3c0.2,0,5.2-2.3,11.1-5c5.9-2.8,11.3-5,12-5
	s1.9,2.1,2.7,4.7l1.5,4.7l2.3-4c2-3.3,2.2-4.8,1.7-9.7c-0.7-6.9-1.6-10.7-2.5-10.6C784.1,392,779.6,393.6,774.5,395.6z"/>
<g id="layer-3">
	
		<linearGradient id="region-3-1_00000178894140656660091800000016404485730166260406_" gradientUnits="userSpaceOnUse" x1="-959.0699" y1="-10.0264" x2="-958.3499" y2="-11.0565" gradientTransform="matrix(28.5 0 0 -59.04 28210.25 -414.5996)">
		<stop  offset="0" style="stop-color:#B0080F;stop-opacity:0.74"/>
		<stop  offset="1" style="stop-color:#B5171B;stop-opacity:0.8"/>
	</linearGradient>
	<path id="region-3-1" style="fill:url(#region-3-1_00000178894140656660091800000016404485730166260406_);" d="M884.4,180l-3.3,1
		l3.6,3.7c6.9,6.9,9.3,21.5,5.7,34.2c-1.7,5.7-7.3,14.2-11.1,16.8l-3.5,2.4l3-0.8c5.4-1.3,10.8-4.5,16-9.8
		c6.8-6.8,9.5-13.8,9.5-24.5c0-12.3-3.5-19.6-10.7-22.7C889.9,178.7,889.1,178.7,884.4,180L884.4,180z"/>
	
		<linearGradient id="region-3-2_00000130617268341247490730000017133131542618577341_" gradientUnits="userSpaceOnUse" x1="-970.5001" y1="-11.1835" x2="-968.9501" y2="-10.6135" gradientTransform="matrix(36.63 0 0 -57 36401.4297 -412.5312)">
		<stop  offset="0" style="stop-color:#F3D07B;stop-opacity:0.69"/>
		<stop  offset="1" style="stop-color:#FFF19B;stop-opacity:0.82"/>
	</linearGradient>
	<path id="region-3-2" style="fill:url(#region-3-2_00000130617268341247490730000017133131542618577341_);" d="M874.1,186.4
		c-3.2,2.5-5.8,4.9-5.8,5.3s-1.5,2.3-3.3,4.3c-9.4,10.3-12.6,29.5-6.4,38.8l2.7,4.1h6.8c5.7-0.1,7.3-0.5,10.7-2.8
		c10.7-7.4,16.1-26.2,11.7-40.8c-2-6.7-6.8-13.4-9.6-13.4C880.3,181.9,877.2,183.9,874.1,186.4L874.1,186.4z"/>
	
		<linearGradient id="region-3-3_00000065041777161566091510000013628669884877671313_" gradientUnits="userSpaceOnUse" x1="-986.2006" y1="-10.2524" x2="-986.2006" y2="-11.2525" gradientTransform="matrix(62.19 0 0 -57.94 61830.4609 -395.4912)">
		<stop  offset="0" style="stop-color:#D69CDE;stop-opacity:0.23"/>
		<stop  offset="1" style="stop-color:#E49CFC;stop-opacity:0.27"/>
	</linearGradient>
	<path id="region-3-3" style="fill:url(#region-3-3_00000065041777161566091510000013628669884877671313_);" d="M504.5,203.8
		c-15.4,4.5-30.6,15.1-35.3,24.7c-4.1,8.7-0.7,18,10.1,27.4c6.7,5.8,6.3,5.8,10.6-1c0.9-1.4,3.2-3.7,5.2-5c2.1-1.3,4.8-3.4,6.2-4.6
		c3.7-3.2,11.5-5.5,19.6-5.7l7.2-0.2l0.8-6c1.3-9.9,1-24.6-0.7-28c-1.4-2.9-1.6-3-9.4-3.2C513.5,202.1,508.7,202.6,504.5,203.8z"/>
	
		<linearGradient id="region-3-4_00000035501196339475229310000004002929312757450399_" gradientUnits="userSpaceOnUse" x1="-991.6501" y1="-4.9198" x2="-990.9302" y2="-5.9798" gradientTransform="matrix(79.36 0 0 -113.09 79184.7578 -324.0391)">
		<stop  offset="0" style="stop-color:#8882DA;stop-opacity:0.73"/>
		<stop  offset="1" style="stop-color:#D1CCFF;stop-opacity:0.84"/>
	</linearGradient>
	<path id="region-3-4" style="fill:url(#region-3-4_00000035501196339475229310000004002929312757450399_);" d="M514.9,240
		c-6.3,1-10.5,2.7-13.6,5.4c-1.4,1.1-4.1,3.1-6,4.4c-3.9,2.6-10.9,12.1-13.9,19.2c-10.1,23-4.3,56,13,73.9c6.3,6.5,12,9.3,19.1,9.3
		c16,0,32.3-16.7,40-41.3c2-6.5,2.3-9.5,2.3-22.5c-0.1-14.7-0.1-15.1-3.2-21.7c-5.8-12.4-14.3-22-22.5-25.7
		C525.2,238.8,522.8,238.6,514.9,240L514.9,240z"/>
	
		<linearGradient id="region-3-5_00000139266547343824360020000007781463319891584900_" gradientUnits="userSpaceOnUse" x1="-993.9297" y1="-24.0804" x2="-993.9297" y2="-25.0802" gradientTransform="matrix(92.9 0 0 -25.38 93235.1641 -342.7603)">
		<stop  offset="0" style="stop-color:#623E7C;stop-opacity:0.79"/>
		<stop  offset="1" style="stop-color:#633D7A;stop-opacity:0.8"/>
	</linearGradient>
	<path id="region-3-5" style="fill:url(#region-3-5_00000139266547343824360020000007781463319891584900_);" d="M853.6,270.3l-1,4.3
		l17.6,0.6c26.6,0.8,46.9,5,65,13.3c4.1,1.9,7.8,3.1,8.2,2.7c0.5-0.5,1.1-2.6,1.5-4.9l0.6-4.1l-3.8-0.6c-2.2-0.3-22.2-3.9-44.6-8.1
		c-22.3-4.2-41-7.6-41.5-7.6S854.2,267.9,853.6,270.3L853.6,270.3z"/>
	
		<linearGradient id="region-3-6_00000112590174999654037880000000056687998955404214_" gradientUnits="userSpaceOnUse" x1="-993.7404" y1="-25.4883" x2="-993.7303" y2="-26.5183" gradientTransform="matrix(91.68 0 0 -24 92001.1484 -328.8906)">
		<stop  offset="0" style="stop-color:#623D7B;stop-opacity:0.79"/>
		<stop  offset="1" style="stop-color:#633C78;stop-opacity:0.8"/>
	</linearGradient>
	<path id="region-3-6" style="fill:url(#region-3-6_00000112590174999654037880000000056687998955404214_);" d="M850.3,284.1
		c0,0.7-0.3,2.2-0.6,3.4c-0.5,2-0.1,2.1,13.3,2.7c15.7,0.8,30.7,2.8,43.2,5.7c9.4,2.3,24.8,7.3,29.2,9.6c1.6,0.8,3.2,1.4,3.7,1.4
		c0.9,0,2.7-6.8,2-7.5c-0.3-0.4-88.2-16.5-89.8-16.5C850.8,282.9,850.3,283.5,850.3,284.1L850.3,284.1z"/>
	
		<linearGradient id="region-3-7_00000032614395203201156780000001540584308113405368_" gradientUnits="userSpaceOnUse" x1="-993.7673" y1="-24.8252" x2="-993.7673" y2="-25.8452" gradientTransform="matrix(91.89 0 0 -24.63 92208.5625 -310.6802)">
		<stop  offset="0" style="stop-color:#623D79;stop-opacity:0.79"/>
		<stop  offset="1" style="stop-color:#633B76;stop-opacity:0.8"/>
	</linearGradient>
	<path id="region-3-7" style="fill:url(#region-3-7_00000032614395203201156780000001540584308113405368_);" d="M847,298.6
		c-0.2,0.5-0.7,2-1.1,3.5l-0.6,2.8h6.4c14.3,0,39.1,3.4,55.6,7.7c7.6,1.9,19.7,6.3,27.6,9.9c1.2,0.5,3-6.3,2-7.3
		c-0.3-0.3-86.9-17.1-89.3-17.3C847.5,297.9,847.2,298.2,847,298.6L847,298.6z"/>
	
		<linearGradient id="region-3-8_00000043419553720039365210000015098173074187789218_" gradientUnits="userSpaceOnUse" x1="-968.2116" y1="-18.5184" x2="-968.2116" y2="-19.5185" gradientTransform="matrix(35.07 0 0 -32.79 34675.9805 -288.9199)">
		<stop  offset="0" style="stop-color:#9D659A;stop-opacity:0.72"/>
		<stop  offset="1" style="stop-color:#9B5EAD;stop-opacity:0.79"/>
	</linearGradient>
	<path id="region-3-8" style="fill:url(#region-3-8_00000043419553720039365210000015098173074187789218_);" d="M721.5,322.9
		c-6.9,2.5-11.4,5.3-15.1,9.6c-5.2,5.9-3.9,13.8,3.1,19.3c3.4,2.7,3.9,2.6,6.9-0.5c5.1-5.5,10.9-8.4,16.6-8.4h5.3v-9.1
		c0-5-0.5-9.9-1-11C735.9,320.3,728.7,320.3,721.5,322.9z"/>
	
		<linearGradient id="region-3-9_00000086653837395205245770000012819328005214307718_" gradientUnits="userSpaceOnUse" x1="-977.5523" y1="-9.3089" x2="-977.0423" y2="-10.3889" gradientTransform="matrix(44.9 0 0 -63 44611.1602 -248.3711)">
		<stop  offset="0" style="stop-color:#908ADB;stop-opacity:0.7"/>
		<stop  offset="1" style="stop-color:#B8B2FF;stop-opacity:0.86"/>
	</linearGradient>
	<path id="region-3-9" style="fill:url(#region-3-9_00000086653837395205245770000012819328005214307718_);" d="M723.5,345.6
		c-11.9,8.1-15.2,14.2-15.2,28.3c0,9.2,1.9,16.2,6.3,22.6c4.3,6.5,8.8,9.4,14.4,9.4c5.6,0,8.9-1.7,13.6-6.9
		c7.5-8.3,11.3-19.6,10.5-31.5c-0.6-8.9-3-13.8-9.9-20c-4.7-4.2-5.5-4.6-10.4-4.6C728.8,342.9,726.7,343.5,723.5,345.6z"/>
</g>
<g id="layer-4">
	
		<linearGradient id="region-4-1_00000028282724146150874710000001619025813827322799_" gradientUnits="userSpaceOnUse" x1="-989.3267" y1="-17.284" x2="-989.3267" y2="-18.2841" gradientTransform="matrix(71.68 0 0 -35.05 71433.4375 -377.0713)">
		<stop  offset="0" style="stop-color:#1F003C;stop-opacity:0.44"/>
		<stop  offset="1" style="stop-color:#340F51;stop-opacity:0.36"/>
	</linearGradient>
	<path id="region-4-1" style="fill:url(#region-4-1_00000028282724146150874710000001619025813827322799_);" d="M509.7,233.5
		c-7.1,2.8-15.6,9.5-22.8,17.7c-4,4.6-4.8,6.2-4,7.4c1.8,2.8,2.8,2.4,5.9-2.1c1.6-2.4,4.6-5.4,6.5-6.7s4.6-3.3,6-4.5
		c6.1-5.4,24.5-7.9,31.7-4.4c6.2,3,14.3,12.4,19,22c3.4,6.7,2.9,1.7-0.6-6.8c-5.4-13.4-10.4-19.8-18.7-23.7
		C527.8,230.1,517,230.6,509.7,233.5L509.7,233.5z"/>
	
		<linearGradient id="region-4-2_00000104686556372003084350000012350005675182458006_" gradientUnits="userSpaceOnUse" x1="-971.9236" y1="-11.1948" x2="-970.4636" y2="-11.5548" gradientTransform="matrix(38 0 0 -54.8 37433.8594 -325.1592)">
		<stop  offset="0" style="stop-color:#6E48AA;stop-opacity:0.72"/>
		<stop  offset="1" style="stop-color:#5B3398;stop-opacity:0.82"/>
	</linearGradient>
	<path id="region-4-2" style="fill:url(#region-4-2_00000104686556372003084350000012350005675182458006_);" d="M513.6,272.2
		c-2.4,1.7-5.5,5-7,7.2c-2.5,3.7-2.7,4.7-2.8,15c0,9.5,0.3,11.7,2.4,16.2c2.6,5.8,8.6,11.9,12.7,12.9c4.4,1.1,11.3-2.5,15.4-7.9
		c5.2-6.8,7.4-13.7,7.5-22.8c0-6.5-0.5-8.4-3-13.5c-4-7.7-8-10.4-15.4-10.4C518.7,268.9,517.2,269.4,513.6,272.2L513.6,272.2z
		 M530.4,273.6c4.6,3.9,6.9,9.6,6.9,17.3c0,8.1-1.1,12.2-5,18.3c-7.4,11.7-17.9,11.5-24.5-0.4c-2.7-4.9-3-6.2-2.9-14.4
		c0-7.5,0.4-9.7,2.4-13.4C512.5,271.3,523.5,267.8,530.4,273.6z"/>
	
		<linearGradient id="region-4-3_00000033347444371686998560000014390370265256893580_" gradientUnits="userSpaceOnUse" x1="-973.2539" y1="-36.4383" x2="-973.2539" y2="-37.4385" gradientTransform="matrix(40 0 0 -16.89 39661.4922 -281.4805)">
		<stop  offset="0" style="stop-color:#160040;stop-opacity:0.41"/>
		<stop  offset="1" style="stop-color:#20054A;stop-opacity:0.38"/>
	</linearGradient>
	<path id="region-4-3" style="fill:url(#region-4-3_00000033347444371686998560000014390370265256893580_);" d="M724.5,339.5
		c-5.2,2.6-13.2,10.5-13.2,13c0,2.2,2.4,1.6,5-1.1c5.1-5.5,10-8,16.9-8.5l6.6-0.6l5.7,5.6c3.2,3.1,5.8,5.4,5.8,5.3
		c0-0.2-1.1-2.5-2.4-5.1C743.3,337.2,735,334.2,724.5,339.5L724.5,339.5z"/>
	
		<linearGradient id="region-4-4_00000037681164459578614410000013177385032728308869_" gradientUnits="userSpaceOnUse" x1="-943.4392" y1="-19.5278" x2="-942.6692" y2="-20.5878" gradientTransform="matrix(21.8 0 0 -31.13 21293.7207 -248.561)">
		<stop  offset="0" style="stop-color:#5F359C;stop-opacity:0.75"/>
		<stop  offset="1" style="stop-color:#5E3499;stop-opacity:0.81"/>
	</linearGradient>
	<path id="region-4-4" style="fill:url(#region-4-4_00000037681164459578614410000013177385032728308869_);" d="M727.6,362.3
		c-3.5,3.2-3.7,3.8-4.1,10.3c-0.3,5.6,0,7.8,1.7,11.1c3.7,7.2,9.4,8.3,14.5,2.8C752.4,373.1,740.9,350.1,727.6,362.3L727.6,362.3z
		 M738.2,363.4c4.3,5.6,3.4,14.4-2,18.9c-3.7,3.2-5.1,3.2-8.4,0.3c-4.6-4-4.6-14.1,0-19.1C731,360,735.4,360,738.2,363.4
		L738.2,363.4z"/>
</g>
<linearGradient id="region-1-7-2_00000065074196590751414180000003084908945228923583_" gradientUnits="userSpaceOnUse" x1="-1004.2921" y1="-2.7444" x2="-1003.0021" y2="-3.4243" gradientTransform="matrix(201.88 0 0 -212.45 202903.4219 -313.0117)">
	<stop  offset="0" style="stop-color:#B17FC2"/>
	<stop  offset="1" style="stop-color:#200034"/>
</linearGradient>
<path id="region-1-7-2" style="fill:url(#region-1-7-2_00000065074196590751414180000003084908945228923583_);" d="M237.6,231.2
	c-7.3,2-19.4,8.1-23.9,12.2c-2,1.8-4.7,4.3-6.1,5.6c-8.8,8.1-19.8,23.3-21.1,29.5c-0.5,2-2.2,7.6-3.9,12.5
	c-1.7,4.8-3.8,12.2-4.6,16.3c-1.6,8.4-1.8,36.7-0.4,44.8c0.5,2.7,1.4,8.2,1.9,12c2.2,15.4,12.8,37.2,24.5,50.5
	c7.4,8.3,22.5,18,28.1,18c1.1,0,4.9,0.9,8.4,2c16.4,5.2,50,9.1,60.4,7c26.1-5,51.1-26,65-54.5c4.5-9.4,9.4-25,11.3-36.4
	c2.4-15,1.5-37.1-2-50c-2.8-10-8.2-21.8-13.7-29.8c-8.6-12.4-22-23.7-32.9-27.5C298.6,232.7,254.2,226.8,237.6,231.2L237.6,231.2z"
	/>
<linearGradient id="region-2-8-2_00000091710740497090406780000005655805356798041270_" gradientUnits="userSpaceOnUse" x1="-1002.4055" y1="-2.6726" x2="-1001.9955" y2="-3.7426" gradientTransform="matrix(140.41 0 0 -200.99 140812.375 -322.4102)">
	<stop  offset="0" style="stop-color:#7B466A;stop-opacity:0.8"/>
	<stop  offset="1" style="stop-color:#6A1688;stop-opacity:0.8"/>
</linearGradient>
<path id="region-2-8-2" style="fill:url(#region-2-8-2_00000091710740497090406780000005655805356798041270_);" d="M88.6,239.8
	c-11.7,3.2-22.5,10-33,20.6c-12.8,13.1-21.1,28-26.5,47.9c-2.1,7.7-2.3,10.6-2.3,30.5c0.1,24.4,1,30,8.2,48.9c1.9,5,3.7,9.9,4,10.8
	c0.3,1,0.9,1.8,1.4,1.8s0.9,0.5,0.9,1c0,0.6,2.3,4.6,5.2,8.8c7.4,11.1,17.9,21.1,26.8,25.5c6.7,3.4,7.9,3.7,16,3.7
	c11.4,0,19.7-2.5,29.3-9c33.1-22.1,54.2-76.6,47.3-121.7c-5-33.1-23.2-59.7-46.4-67.9C111.6,237.9,97.2,237.5,88.6,239.8L88.6,239.8
	z"/>
<linearGradient id="region-3-3-2_00000011735638888838335580000015575708611431485083_" gradientUnits="userSpaceOnUse" x1="-993.4095" y1="-10.131" x2="-993.4095" y2="-11.1311" gradientTransform="matrix(62.19 0 0 -57.94 61830.4609 -395.4912)">
	<stop  offset="0" style="stop-color:#D69CDE;stop-opacity:0.23"/>
	<stop  offset="1" style="stop-color:#E49CFC;stop-opacity:0.27"/>
</linearGradient>
<path id="region-3-3-2" style="fill:url(#region-3-3-2_00000011735638888838335580000015575708611431485083_);stroke:#000000;stroke-miterlimit:10;" d="
	M56.2,196.9c-15.4,4.5-30.6,15.1-35.3,24.7c-4.1,8.7-0.7,18,10.1,27.4c6.7,5.8,6.3,5.8,10.6-1c0.9-1.4,3.2-3.7,5.2-5
	c2.1-1.3,4.8-3.4,6.2-4.6c3.7-3.2,11.5-5.5,19.6-5.7l7.2-0.2l0.8-6c1.3-9.9,1-24.6-0.7-28c-1.4-2.9-1.6-3-9.4-3.2
	C65.2,195.2,60.4,195.7,56.2,196.9L56.2,196.9z"/>
<linearGradient id="region-4-1-2_00000093862168679382070450000000964046951617101981_" gradientUnits="userSpaceOnUse" x1="-994.7064" y1="-16.2694" x2="-994.7064" y2="-17.2695" gradientTransform="matrix(71.68 0 0 -35.05 71433.4375 -377.0713)">
	<stop  offset="0" style="stop-color:#1F003C;stop-opacity:0.44"/>
	<stop  offset="1" style="stop-color:#340F51;stop-opacity:0.36"/>
</linearGradient>
<path id="region-4-1-2" style="fill:url(#region-4-1-2_00000093862168679382070450000000964046951617101981_);stroke:#000000;stroke-miterlimit:10;" d="
	M124.1,197.8c-7.1,2.8-15.6,9.5-22.8,17.7c-4,4.6-4.8,6.2-4,7.4c1.8,2.8,2.8,2.4,5.9-2.1c1.6-2.4,4.6-5.4,6.5-6.7s4.6-3.3,6-4.5
	c6.1-5.4,24.5-7.9,31.7-4.4c6.2,3,14.3,12.4,19,22c3.4,6.7,2.9,1.7-0.6-6.8c-5.4-13.4-10.4-19.8-18.7-23.7
	C142.2,194.4,131.4,194.9,124.1,197.8L124.1,197.8z"/>
<rect x="437.7" y="185.6" class="st52" width="107.4" height="83.1"/>
<rect x="831.7" y="253.4" class="st52" width="123.6" height="97.2"/>
<g>
	<line class="st4" x1="428.6" y1="229.7" x2="371.2" y2="229.7"/>
	<path d="M353.1,229.7c8.5-3.2,19.1-8.5,25.6-14.3l-5.2,14.3l5.2,14.3C372.1,238.2,361.6,232.8,353.1,229.7z"/>
</g>
<linearGradient id="region-2-14_00000158730024168090289150000014357259568144593823_" gradientUnits="userSpaceOnUse" x1="-994.6151" y1="-7.0096" x2="-994.6151" y2="-8.0095" gradientTransform="matrix(110.18 0 0 -85.53 110677.7109 -318.7422)">
	<stop  offset="0" style="stop-color:#3B0036;stop-opacity:0.75"/>
	<stop  offset="1" style="stop-color:#451367;stop-opacity:0.81"/>
</linearGradient>
<path id="region-2-14_00000049940565294231859500000007633964967338823045_" style="fill:url(#region-2-14_00000158730024168090289150000014357259568144593823_);" d="
	M1052.7,280.3c-1.5,4.6-17.2,70.1-16.8,70.4c0.1,0.1,21.1,3.1,46.5,6.5c35.5,4.9,46.5,6.1,47.1,5.1c0.4-0.6,3.8-13.9,7.5-29.4
	c3.7-15.6,7.4-30.1,8.2-32.2c0.8-2.1,1.1-4.3,0.7-4.7c-1.1-1.1-16.9-5.2-34.3-8.9c-14.1-3-53.6-10-56.4-10
	C1054.4,277.1,1053.3,278.6,1052.7,280.3L1052.7,280.3z"/>
<linearGradient id="region-3-5_00000047739191304469721470000011385903830061248900_" gradientUnits="userSpaceOnUse" x1="-990.6921" y1="-25.98" x2="-990.6921" y2="-26.9799" gradientTransform="matrix(92.9 0 0 -25.38 93235.1641 -342.7603)">
	<stop  offset="0" style="stop-color:#623E7C;stop-opacity:0.79"/>
	<stop  offset="1" style="stop-color:#633D7A;stop-opacity:0.8"/>
</linearGradient>
<path id="region-3-5_00000117651922928757939270000018354680258342583704_" style="fill:url(#region-3-5_00000047739191304469721470000011385903830061248900_);" d="
	M1154.4,318.5l-1,4.3l17.6,0.6c26.6,0.8,46.9,5,65,13.3c4.1,1.9,7.8,3.1,8.2,2.7c0.5-0.5,1.1-2.6,1.5-4.9l0.6-4.1l-3.8-0.6
	c-2.2-0.3-22.2-3.9-44.6-8.1c-22.3-4.2-41-7.6-41.5-7.6S1155,316.1,1154.4,318.5L1154.4,318.5z"/>
<linearGradient id="region-3-6_00000006685552145125871830000002876372610074137733_" gradientUnits="userSpaceOnUse" x1="-990.4597" y1="-27.4971" x2="-990.4496" y2="-28.5272" gradientTransform="matrix(91.68 0 0 -24 92001.1484 -328.8906)">
	<stop  offset="0" style="stop-color:#623D7B;stop-opacity:0.79"/>
	<stop  offset="1" style="stop-color:#633C78;stop-opacity:0.8"/>
</linearGradient>
<path id="region-3-6_00000170236746309190528940000009828008500193570487_" style="fill:url(#region-3-6_00000006685552145125871830000002876372610074137733_);" d="
	M1151.1,332.3c0,0.7-0.3,2.2-0.6,3.4c-0.5,2-0.1,2.1,13.3,2.7c15.7,0.8,30.7,2.8,43.2,5.7c9.4,2.3,24.8,7.3,29.2,9.6
	c1.6,0.8,3.2,1.4,3.7,1.4c0.9,0,2.7-6.8,2-7.5c-0.3-0.4-88.2-16.5-89.8-16.5C1151.6,331.1,1151.1,331.7,1151.1,332.3L1151.1,332.3z"
	/>
<linearGradient id="region-3-7_00000099659302764937986420000010700143595858261903_" gradientUnits="userSpaceOnUse" x1="-990.4941" y1="-26.7827" x2="-990.4941" y2="-27.8026" gradientTransform="matrix(91.89 0 0 -24.63 92208.5625 -310.6802)">
	<stop  offset="0" style="stop-color:#623D79;stop-opacity:0.79"/>
	<stop  offset="1" style="stop-color:#633B76;stop-opacity:0.8"/>
</linearGradient>
<path id="region-3-7_00000020367973325249526710000016911292519345848762_" style="fill:url(#region-3-7_00000099659302764937986420000010700143595858261903_);" d="
	M1147.8,346.8c-0.2,0.5-0.7,2-1.1,3.5l-0.6,2.8h6.4c14.3,0,39.1,3.4,55.6,7.7c7.6,1.9,19.7,6.3,27.6,9.9c1.2,0.5,3-6.3,2-7.3
	c-0.3-0.3-86.9-17.1-89.3-17.3C1148.3,346.1,1148,346.4,1147.8,346.8L1147.8,346.8z"/>
</svg>
