<?xml version="1.0" encoding="utf-8"?>
<!-- Generator: Adobe Illustrator 26.5.0, SVG Export Plug-In . SVG Version: 6.00 Build 0)  -->
<svg version="1.1" id="图层_1" xmlns="http://www.w3.org/2000/svg" xmlns:xlink="http://www.w3.org/1999/xlink" x="0px" y="0px"
	 viewBox="0 0 1250 455" style="enable-background:new 0 0 1250 455;" xml:space="preserve">
<style type="text/css">
	.st0{fill:none;}
	.st1{fill:#D3D3D3;}
	.st2{clip-path:url(#SVGID_00000076603137193316298540000009818541559811946114_);}
	.st3{fill:url(#SVGID_00000001639259451422754260000008741796680129511354_);}
	.st4{fill:none;stroke:#000000;stroke-width:3;stroke-miterlimit:10;}
	.st5{fill:url(#SVGID_00000104696304635097922740000018196562642528949682_);}
	.st6{fill:url(#SVGID_00000148658272984706846160000008826472416817200265_);}
	.st7{fill:url(#SVGID_00000041283213884731462360000015685412135138687115_);}
	.st8{fill:url(#SVGID_00000070797259800873508350000008969631532574623902_);}
	.st9{fill:url(#SVGID_00000113329022463891817230000016936495725814474167_);}
	.st10{fill:url(#SVGID_00000180361257605244397930000017620761440322566556_);}
	.st11{fill:url(#SVGID_00000062190103486613647300000004264303712862118303_);}
	.st12{fill:url(#SVGID_00000075163571476373982460000018403206428581839027_);}
	.st13{fill:url(#SVGID_00000054949594107387863940000009098555717828984995_);}
	.st14{fill:url(#SVGID_00000020373347163355486930000017806492769419777703_);}
	.st15{fill:url(#SVGID_00000071524291874779709970000009573046846152709287_);}
	.st16{fill:url(#SVGID_00000078761311489550382140000009815526599558419127_);}
	.st17{fill:url(#SVGID_00000080890721081066285050000002129244467867504052_);}
	.st18{fill:url(#SVGID_00000016034839810876111450000015221962758161277602_);}
	.st19{fill:url(#SVGID_00000066486034353458553210000012441081517628489108_);}
	.st20{fill:url(#SVGID_00000158727500010329309870000005410871546458756529_);}
	.st21{fill:url(#SVGID_00000165221171961062611880000010134112645715223464_);}
	.st22{fill:url(#SVGID_00000005243141850038379770000012079787151720147602_);}
	.st23{fill:url(#SVGID_00000180342598850911381240000017719272040567661224_);}
	.st24{fill:url(#SVGID_00000028293847791168055500000014569846819344779939_);}
	.st25{fill:url(#SVGID_00000021084549508427062430000002491764058996347530_);}
	.st26{fill:url(#SVGID_00000021095439555897830700000009426603334487347122_);}
	.st27{fill:url(#SVGID_00000062887797098085377240000002760925405867008697_);}
	.st28{fill:url(#SVGID_00000019679933625120223630000007033069886858006418_);}
	.st29{fill:url(#SVGID_00000075135115501507935170000013401279853405417374_);}
	.st30{fill:url(#SVGID_00000124843342086891452530000014221404231588982934_);}
	.st31{fill:url(#SVGID_00000132068696247634814400000009406717950260869007_);}
	.st32{fill:url(#SVGID_00000103241395425235314870000009377551213866780555_);}
	.st33{fill:url(#SVGID_00000062874686721460243980000014109595478630007963_);}
	.st34{fill:url(#SVGID_00000101801778582802921780000017776383683822842514_);}
	.st35{fill:url(#SVGID_00000139989329083741516780000017795801196418565808_);}
	.st36{fill:url(#SVGID_00000148633953657435921450000013893566687299467145_);}
	.st37{fill:url(#SVGID_00000062896478577300229080000015914449182925270173_);}
	.st38{fill:url(#SVGID_00000062880660520921967080000007292019404912305308_);}
	.st39{fill:url(#SVGID_00000163770373084325613480000009377252041058801056_);}
	.st40{fill:url(#SVGID_00000052106215215470037130000002109163729143499432_);}
	.st41{fill:url(#SVGID_00000044862770017248731170000013817238589842155158_);}
	.st42{fill:url(#SVGID_00000085962223632722856450000009999103334591731337_);}
	.st43{fill:url(#SVGID_00000007407249009874603390000015606794564409498790_);}
	.st44{fill:url(#SVGID_00000161594840643446030220000015485305399371731079_);}
	.st45{fill:url(#SVGID_00000005237611508769258070000017005959394664952715_);}
	.st46{fill:url(#SVGID_00000048476542529721848890000017942392540182146693_);}
	.st47{fill:url(#SVGID_00000147922863943465696930000002853212733046521245_);}
	.st48{fill:url(#SVGID_00000137814829338459435200000007127177857776678784_);}
	.st49{fill:url(#SVGID_00000042699318121097366180000002011397877386679966_);}
	.st50{fill:url(#SVGID_00000036942313525862771910000000687604684285293474_);}
	.st51{fill:url(#SVGID_00000011750551608991877390000008738844709639817857_);}
	.st52{fill:url(#SVGID_00000098200828753847973380000007668984174835776384_);}
	.st53{fill:url(#SVGID_00000145042323398271096370000012383456225238432145_);}
	.st54{fill:url(#SVGID_00000036238434787555252330000001569023596353610935_);}
	.st55{fill:url(#SVGID_00000098902759734712919250000000237514027417203132_);stroke:#000000;stroke-miterlimit:10;}
	.st56{fill:none;stroke:#FF0000;stroke-width:3;stroke-miterlimit:10;}
	.st57{fill:url(#SVGID_00000030455577049966173340000003612074645633490068_);}
	.st58{fill:url(#SVGID_00000137123336696499154260000007474486710161330564_);}
	.st59{fill:url(#SVGID_00000085965121536859493880000010408913591531826316_);}
	.st60{fill:url(#SVGID_00000096767922638968574350000006373268142960915861_);}
</style>
<pattern  y="455" width="40" height="40" patternUnits="userSpaceOnUse" id="SVGID_0000011549847747654830530" viewBox="0 -40 40 40" style="overflow:visible;">
	<g>
		<rect y="-40" class="st0" width="40" height="40"/>
		<g>
			<rect y="-40" class="st0" width="40" height="40"/>
			<g>
				<rect y="-40" class="st0" width="40" height="40"/>
				<g>
					<rect y="-40" class="st0" width="40" height="40"/>
					<g>
						<rect y="-40" class="st0" width="40" height="40"/>
						<g>
							<rect y="-40" class="st0" width="40" height="40"/>
							<g>
								<rect y="-40" class="st0" width="40" height="40"/>
								<g>
									<rect y="-40" class="st0" width="40" height="40"/>
									<g>
										<polygon class="st0" points="0,-40 40,-40 40,0 0,0 										"/>
										<polygon class="st1" points="0,-20 20,-20 20,0 0,0 										"/>
										<polygon class="st1" points="20,-40 40,-40 40,-20 20,-20 										"/>
									</g>
								</g>
							</g>
						</g>
					</g>
				</g>
			</g>
		</g>
	</g>
</pattern>
<g>
	<g>
		<g>
			<g>
				<defs>
					<rect id="SVGID_1_" width="1250" height="455"/>
				</defs>
				<clipPath id="SVGID_00000089570745981348808220000014290655302656960929_">
					<use xlink:href="#SVGID_1_"  style="overflow:visible;"/>
				</clipPath>
				<g style="clip-path:url(#SVGID_00000089570745981348808220000014290655302656960929_);">
					
						<pattern  id="SVGID_00000008865373462607878420000017358202111718031277_" xlink:href="#SVGID_0000011549847747654830530" patternTransform="matrix(1 0 0 -1 74.5 -34346.1094)">
					</pattern>
					<rect style="fill:url(#SVGID_00000008865373462607878420000017358202111718031277_);" width="1249.3" height="454.7"/>
				</g>
			</g>
		</g>
	</g>
</g>
<g>
	<line class="st4" x1="937" y1="313.4" x2="994.5" y2="313.4"/>
	<path d="M1012.6,313.4c-8.5,3.2-19.1,8.5-25.6,14.3l5.2-14.3l-5.2-14.3C993.5,304.9,1004.1,310.3,1012.6,313.4z"/>
</g>
<linearGradient id="SVGID_00000015315924673303616350000008835363682263825293_" gradientUnits="userSpaceOnUse" x1="-1896.2271" y1="777.4803" x2="-1897.4972" y2="777.6404" gradientTransform="matrix(68.95 0 0 156 131483.875 -121203)">
	<stop  offset="0" style="stop-color:#8157A5"/>
	<stop  offset="1" style="stop-color:#9E75C2"/>
</linearGradient>
<path style="fill:url(#SVGID_00000015315924673303616350000008835363682263825293_);" d="M690.9,42.4c-1.1,45.9,1.6,110.5,5.1,121.5
	c0.5,1.7,2.9,1.8,32.1,1.8h31.5l-0.6-2.3c-0.4-1.2-2.9-13.2-5.6-26.7c-5.4-27.2-9.8-55.2-13.4-85.9c-1.4-11.2-2.8-20.7-3.3-21.2
	C736,28.9,692.8,9.7,692,9.7C691.8,9.7,691.3,24.4,690.9,42.4z"/>
<linearGradient id="SVGID_00000103960928756293209950000001373923309350779809_" gradientUnits="userSpaceOnUse" x1="-1918.319" y1="777.0108" x2="-1919.3182" y2="777.0407" gradientTransform="matrix(200.86 0 0 164 386075.5625 -127347)">
	<stop  offset="0" style="stop-color:#C4251D"/>
	<stop  offset="1" style="stop-color:#FD592D"/>
</linearGradient>
<path style="fill:url(#SVGID_00000103960928756293209950000001373923309350779809_);" d="M635.7,5.6c-22.1,2-40.4,3.9-40.6,4.1
	c-0.3,0.3-1.7,8.8-3.2,19c-7.7,53.1-17.6,98.7-27.9,128.9c-1.5,4.1-2.6,7.6-2.6,7.8s30.4,0.3,67.6,0.3c63.9,0,67.5-0.1,67-1.8
	c-1.4-4.4-3.6-29.1-4.7-52.7c-1-22.2-0.6-100.2,0.5-101.3c0.4-0.4,43.9,18.7,44.9,19.7c0.5,0.5,1.9,10,3.3,21.2
	c3.1,26.9,7.7,57.2,12,79.4c5.4,27.6,7.4,35.5,9,35.5c1.7,0,1.7-0.3-0.1-6.5c-6.2-20.3-13.5-69.8-17.5-118.5
	c-0.7-7.4-1.5-13.8-1.8-14.2c-0.4-0.3-12.1-6.1-26-12.7L690.2,1.7l-7.1,0.1C679.1,1.9,657.8,3.6,635.7,5.6L635.7,5.6z"/>
<linearGradient id="SVGID_00000072993457825194282380000015072191900512337804_" gradientUnits="userSpaceOnUse" x1="-1909.0618" y1="777.2029" x2="-1907.7717" y2="777.623" gradientTransform="matrix(107.8 0 0 159 206385.0156 -123508)">
	<stop  offset="0" style="stop-color:#C4AEDA"/>
	<stop  offset="1" style="stop-color:#F4F2FF"/>
</linearGradient>
<path style="fill:url(#SVGID_00000072993457825194282380000015072191900512337804_);" d="M637.5,10.3C617,12.6,600,14.8,599.7,15
	c-0.2,0.3-1.3,8-2.3,17.1c-4.7,41-13.2,86.5-22.9,121.8l-2.9,10.8h107.8V5.7l-2.2,0.1C675.9,5.9,658.1,7.9,637.5,10.3L637.5,10.3z"
	/>
<linearGradient id="SVGID_00000163074211694592289430000012122316006523101875_" gradientUnits="userSpaceOnUse" x1="-1863.8639" y1="783.4255" x2="-1862.8639" y2="783.4255" gradientTransform="matrix(34.98 0 0 98 65981.0078 -76722)">
	<stop  offset="0" style="stop-color:#6D49A9"/>
	<stop  offset="1" style="stop-color:#6D49A9"/>
</linearGradient>
<path style="fill:url(#SVGID_00000163074211694592289430000012122316006523101875_);" d="M782.9,12.6c-3,13.1-2.4,14.5,10.9,28.1
	s12.6,11.1,12.6,42.2v19.8h10V76.9c0-14.1-0.4-27.4-0.9-29.4c-0.5-2.1-2.8-6.6-5.1-10c-6.6-9.7-24.1-32.8-25-32.8
	C785.1,4.7,783.9,8.3,782.9,12.6z"/>
<linearGradient id="SVGID_00000085946137259487537120000013503049839671357626_" gradientUnits="userSpaceOnUse" x1="-1857.0427" y1="789.2727" x2="-1858.0928" y2="789.2727" gradientTransform="matrix(32.19 0 0 71.72 60607.5195 -56467.8008)">
	<stop  offset="0" style="stop-color:#7D60B7"/>
	<stop  offset="1" style="stop-color:#B7AFF1"/>
</linearGradient>
<path style="fill:url(#SVGID_00000085946137259487537120000013503049839671357626_);" d="M803.9,103.9c-5.2,3.4-5,2.2-5.3,33
	l-0.4,28.8h3.6c2.3,0,3.6,0.5,3.6,1.3c0,1.2,20.3,7.7,24,7.7c1.1,0,1.2-5.7,0.7-31.5c-0.4-17.3-1.1-32.5-1.7-33.9
	c-0.5-1.4-2.4-3.2-4.1-4.2C820.1,103,806.6,102.2,803.9,103.9L803.9,103.9z"/>
<linearGradient id="SVGID_00000164496810039252940170000008969373595520413111_" gradientUnits="userSpaceOnUse" x1="-1922.7251" y1="1080.1453" x2="-1922.6951" y2="1067.7152" gradientTransform="matrix(302 0 0 5 581317 -5230)">
	<stop  offset="0" style="stop-color:#F47F6B"/>
	<stop  offset="1" style="stop-color:#F8DE90"/>
</linearGradient>
<path style="fill:url(#SVGID_00000164496810039252940170000008969373595520413111_);" d="M503.4,168.2v2.5h302v-5h-302L503.4,168.2
	L503.4,168.2z"/>
<linearGradient id="SVGID_00000047779393117081931470000018297963568355383170_" gradientUnits="userSpaceOnUse" x1="-1900.838" y1="817.0716" x2="-1899.838" y2="817.0716" gradientTransform="matrix(77.87 0 0 31.49 148786.8906 -25356.3398)">
	<stop  offset="0" style="stop-color:#431553"/>
	<stop  offset="1" style="stop-color:#431553"/>
</linearGradient>
<path style="fill:url(#SVGID_00000047779393117081931470000018297963568355383170_);" d="M823.5,364.7l-1.3,7.2l-3.6-0.7
	c-2.9-0.5-3.9-0.3-5.2,1.5c-1.5,2-1.7,2.1-15,0.6c-7.4-0.8-16.5-1.7-20.2-2.1l-6.8-0.6v8.8l17.8,0.6c21.1,0.8,22.2,1,22.2,4.6
	c0,2.7,0,2.8,10.3,3.8c8.7,0.9,10.7,0.8,13.7-0.5c1.9-0.9,5.8-1.6,8.5-1.6c4.3-0.1,5-0.4,5.3-2.3c0.3-2.2-0.2-2.5-6.5-3.8
	c-2.3-0.5-3.3-1.2-3.3-2.5c0-2.1-2.8-4-5.9-4c-2.5,0-2.5-0.6-0.7-8.5c0.8-3.3,1.3-6.1,1.2-6.2c-0.1-0.2-2.3-0.6-4.7-0.9l-4.5-0.6
	L823.5,364.7z"/>
<linearGradient id="SVGID_00000079480900120846850980000006831267527343836821_" gradientUnits="userSpaceOnUse" x1="-1825.8312" y1="799.3467" x2="-1824.8312" y2="799.3467" gradientTransform="matrix(22.33 0 0 49.07 41719.0781 -38990.8906)">
	<stop  offset="0" style="stop-color:#C41F1C"/>
	<stop  offset="1" style="stop-color:#C41F1C"/>
</linearGradient>
<path style="fill:url(#SVGID_00000079480900120846850980000006831267527343836821_);" d="M955.5,209c-4.2,0.8-4.3,0.9-2.1,2
	c1.3,0.7,3.5,3.4,4.9,6.2c2.3,4.3,2.6,6.2,2.6,14.5s-0.4,10.2-2.5,14.3c-1.3,2.7-4.1,6.4-6.2,8.3c-4.2,3.7-3.7,4.2,2,1.9
	c4.6-1.9,13.6-11.2,15.8-16.3c2.5-5.7,2.3-18.6-0.4-23.8C966.2,209.4,962.5,207.5,955.5,209L955.5,209z"/>
<linearGradient id="SVGID_00000114789712197464491190000001452382272548817844_" gradientUnits="userSpaceOnUse" x1="-1916.3098" y1="780.6528" x2="-1915.3098" y2="780.6528" gradientTransform="matrix(159.86 0 0 118.42 307005.0938 -92066.9062)">
	<stop  offset="0" style="stop-color:#582568"/>
	<stop  offset="1" style="stop-color:#582568"/>
</linearGradient>
<path style="fill:url(#SVGID_00000114789712197464491190000001452382272548817844_);" d="M691.9,321.8c-6.4,3.2-14.3,10.9-20.1,19.4
	c-3.7,5.3-7.5,15.9-7.3,20.4c0,1.6,0.6,0.5,1.4-2.9c2-8.1,4.7-13.8,9.8-20.5c6.3-8.4,10.2-11.8,17.3-15.4c5.4-2.7,7.2-3.1,14.5-3.1
	c10.1,0,15.2,2.1,22.1,9.3c14.5,14.7,18.4,41.4,9.9,66.5c-3.7,10.7-8.2,18.1-15.7,25.9c-13.1,13.5-27.5,15.1-39.8,4.3
	c-7.2-6.3-14.3-19-17.6-31.3c-1.8-6.4-1.9-6.7-1.4-2.2c0.7,5.9,4.5,15.8,9,23.6c3.9,6.7,10.8,13.2,16.6,15.8
	c6.7,3,22.3,5.6,33.3,5.6c9,0,10.6-0.3,15.3-2.7c14.9-7.7,25.5-22.5,30.2-41.9c1.1-4.6,2-11.5,2-15.2v-6.8l6.8,0.6
	c3.7,0.4,12.8,1.3,20.2,2.1c13.3,1.5,13.5,1.4,15-0.6c1.3-1.8,2.3-2,5.2-1.5l3.5,0.7l1.3-6.7c0.7-3.6,1.1-6.7,0.9-6.9
	s-7.8-1.1-16.8-2c-10.2-1.1-16.8-2.2-17.6-3c-0.8-0.7-4.2-1.6-7.7-2c-10.2-1.2-11.8-1.7-11.8-3.6c0-1-0.3-2-0.8-2.2
	c-0.4-0.2-2.8-3.2-5.4-6.8c-5.9-8.4-9.2-11.3-17.5-15.1c-5.8-2.6-8.6-3.2-18.3-3.9c-6.3-0.5-15.8-0.9-21-0.9
	C698.8,318.7,697.3,319,691.9,321.8L691.9,321.8z"/>
<linearGradient id="SVGID_00000053534860491875462120000010784796106973060772_" gradientUnits="userSpaceOnUse" x1="-1837.0658" y1="811.4634" x2="-1836.0658" y2="811.4634" gradientTransform="matrix(25 0 0 35.5 46672 -28443.5)">
	<stop  offset="0" style="stop-color:#431159"/>
	<stop  offset="1" style="stop-color:#431159"/>
</linearGradient>
<path style="fill:url(#SVGID_00000053534860491875462120000010784796106973060772_);" d="M752.7,351l-7.2,5.2l-0.1,7.2
	c0,4,0.3,7.3,0.6,7.3c0.4,0,4-2,8.1-4.5c7.3-4.5,7.4-4.5,8.2-2.2c0.5,1.2,2.5,5.6,4.5,9.7l3.5,7.5l0.1-8.2c0-7.9-0.2-8.7-4.7-17.8
	c-2.6-5.2-5-9.5-5.3-9.5C760.1,345.8,756.6,348.1,752.7,351z"/>
<linearGradient id="SVGID_00000156582461665052725410000002044774806350523281_" gradientUnits="userSpaceOnUse" x1="-1854.9553" y1="800.1141" x2="-1853.9553" y2="800.1141" gradientTransform="matrix(30.88 0 0 47.85 58210.9961 -38050.75)">
	<stop  offset="0" style="stop-color:#FEC57A"/>
	<stop  offset="1" style="stop-color:#FEC57A"/>
</linearGradient>
<path style="fill:url(#SVGID_00000156582461665052725410000002044774806350523281_);" d="M947.4,212.2c-6.5,3.6-15.5,18.7-16.6,27.9
	c-1.5,12.6,1.5,17.6,11,18.4c4.8,0.4,5.4,0.1,9.6-3.6c6.4-5.6,9.3-11.9,9.8-21.3c0.5-8.4-0.6-13.3-4.4-19.2
	C954.2,210.4,951.7,209.8,947.4,212.2L947.4,212.2z"/>
<linearGradient id="SVGID_00000156587339946707230590000005141340175754712728_" gradientUnits="userSpaceOnUse" x1="-1901.077" y1="780.8262" x2="-1900.787" y2="781.8162" gradientTransform="matrix(79.42 0 0 113.08 151676.8438 -87975.4766)">
	<stop  offset="0" style="stop-color:#844E7D"/>
	<stop  offset="1" style="stop-color:#65187E"/>
</linearGradient>
<path style="fill:url(#SVGID_00000156587339946707230590000005141340175754712728_);" d="M692.9,322.8c-6.5,3.2-14.6,11.1-20,19.3
	c-5.6,8.4-7.8,16.4-8.3,30.2c-0.6,17.6,2.3,29,11,43.1c13,20.8,31.6,23.1,48.2,6c7.5-7.8,12-15.2,15.7-25.9
	c8.5-25.1,4.6-51.8-9.9-66.5c-7-7.2-12-9.3-22.3-9.3C700,319.7,698.1,320.1,692.9,322.8L692.9,322.8z"/>
<linearGradient id="SVGID_00000050636489068079395930000013356868062332830620_" gradientUnits="userSpaceOnUse" x1="-1750.3618" y1="870.5438" x2="-1749.3618" y2="870.5438" gradientTransform="matrix(13 0 0 15.13 23468 -12825.9805)">
	<stop  offset="0" style="stop-color:#53225E"/>
	<stop  offset="1" style="stop-color:#53225E"/>
</linearGradient>
<path style="fill:url(#SVGID_00000050636489068079395930000013356868062332830620_);" d="M713.4,339.3c0,0.8,2.9,4.3,6.5,7.7
	c3.6,3.4,6.5,6.1,6.5,5.9c0-1.7-5.6-10.5-8-12.6C714.8,337.3,713.4,337,713.4,339.3z"/>
<linearGradient id="SVGID_00000124871571985654892390000004230501895842089865_" gradientUnits="userSpaceOnUse" x1="-1922.1575" y1="776.5071" x2="-1922.9974" y2="775.3571" gradientTransform="matrix(302 0 0 181.62 581317 -140689.0625)">
	<stop  offset="0" style="stop-color:#FE3E11"/>
	<stop  offset="1" style="stop-color:#F14F70"/>
</linearGradient>
<path style="fill:url(#SVGID_00000124871571985654892390000004230501895842089865_);" d="M503.4,184.2v13.4l3.3,0.5
	c8,1.3,10.2,1,16.4-2.2c10.8-5.6,20-7.5,33.3-7c9.2,0.4,12.8,1,18.2,3.1c17.1,6.6,30.2,18.9,40.3,38c4.3,8.1,10.5,25,10.5,28.8
	c0,1,0.4,1.9,0.9,1.9c2.6,0,3.5,37.1,1.2,50.9c-0.6,3.6-0.9,6.6-0.8,6.7c0.5,0.5,44.2,7.2,44.6,6.8c0.3-0.2,2.9-34.7,5.9-76.7
	c3-41.9,5.6-76.4,5.8-76.6c0.2-0.2,0.6-0.2,0.8,0c0.6,0.6-10.1,154.9-10.7,155.6c-0.3,0.3-10.8-1.1-23.3-3.1s-23.1-3.3-23.5-2.9
	c-0.4,0.5-1,2.2-1.3,3.9c-0.9,3.8-3,3.2,27.2,7.5l23.2,3.2l4.9-5.4c3.1-3.5,7.2-6.5,11.4-8.6c5.7-2.9,7.5-3.3,14.5-3.3
	c6.4,0,8.2-0.3,9.6-1.8c2.6-3,11.8-7.2,17.7-8.1c6.6-1.1,15.7,0.2,21.2,3c9.8,5.1,18.5,17.8,21.3,31.3c0.9,3.9,1.6,7.2,1.7,7.3
	c0.4,0.3,12.2,2.1,12.4,1.9c0.6-0.5,5.5-32.9,7.7-50.6c5.1-40.4,7.6-76.3,7.6-110.8v-20.2h-302L503.4,184.2L503.4,184.2z"/>
<linearGradient id="SVGID_00000098212546393191922790000002918709706960684180_" gradientUnits="userSpaceOnUse" x1="-1873.7219" y1="1287.7333" x2="-1872.7219" y2="1287.7333" gradientTransform="matrix(41 0 0 3 77548 -3655)">
	<stop  offset="0" style="stop-color:#C83134"/>
	<stop  offset="1" style="stop-color:#C83134"/>
</linearGradient>
<path style="fill:url(#SVGID_00000098212546393191922790000002918709706960684180_);" d="M725.4,208.2c0,1.3,2.9,1.5,20.5,1.5
	s20.5-0.2,20.5-1.5s-2.9-1.5-20.5-1.5C728.3,206.7,725.4,206.9,725.4,208.2z"/>
<linearGradient id="SVGID_00000122689768949509648660000003068117294374719382_" gradientUnits="userSpaceOnUse" x1="-1866.8911" y1="794.8807" x2="-1865.8911" y2="794.8807" gradientTransform="matrix(36.63 0 0 57 69214.3984 -45098)">
	<stop  offset="0" style="stop-color:#FEC67A"/>
	<stop  offset="1" style="stop-color:#FEC67A"/>
</linearGradient>
<path style="fill:url(#SVGID_00000122689768949509648660000003068117294374719382_);" d="M849.2,186.2c-3.2,2.5-5.8,4.9-5.8,5.3
	s-1.5,2.3-3.3,4.3c-9.4,10.3-12.6,29.5-6.4,38.8l2.7,4.1h6.8c5.7-0.1,7.3-0.5,10.7-2.8c10.7-7.4,16.1-26.2,11.7-40.8
	c-2-6.7-6.8-13.4-9.6-13.4C855.4,181.7,852.3,183.7,849.2,186.2L849.2,186.2z"/>
<linearGradient id="SVGID_00000145059612457695187010000010216766207564112272_" gradientUnits="userSpaceOnUse" x1="-1889.4269" y1="777.6652" x2="-1890.9669" y2="777.0751" gradientTransform="matrix(57.79 0 0 155.74 109872.8594 -120838.8438)">
	<stop  offset="0" style="stop-color:#660B2F"/>
	<stop  offset="1" style="stop-color:#C52E5E"/>
</linearGradient>
<path style="fill:url(#SVGID_00000145059612457695187010000010216766207564112272_);" d="M682.4,175.4
	c-0.1,6.5-10.6,149.3-11.1,149.7c-0.2,0.2-10.2-1.2-22.2-3.1c-19.4-3.1-24.2-3.5-22.6-1.8c0.8,0.8,46,7.8,46.6,7.2
	c0.3-0.3,2.7-32.4,5.3-71.4c2.7-38.9,5.1-73.8,5.4-77.6c0.4-4.2,0.2-6.7-0.4-6.7C682.9,171.7,682.4,173.4,682.4,175.4L682.4,175.4z"
	/>
<linearGradient id="SVGID_00000175287165230772511880000005170186074024742575_" gradientUnits="userSpaceOnUse" x1="-1873.7219" y1="1287.7333" x2="-1872.7219" y2="1287.7333" gradientTransform="matrix(41 0 0 3 77548 -3664)">
	<stop  offset="0" style="stop-color:#D2342F"/>
	<stop  offset="1" style="stop-color:#D2342F"/>
</linearGradient>
<path style="fill:url(#SVGID_00000175287165230772511880000005170186074024742575_);" d="M725.4,199.2c0,1.3,2.9,1.5,20.5,1.5
	s20.5-0.2,20.5-1.5s-2.9-1.5-20.5-1.5C728.3,197.7,725.4,197.9,725.4,199.2z"/>
<linearGradient id="SVGID_00000029012861474314101220000010885751015997968023_" gradientUnits="userSpaceOnUse" x1="-1897.7832" y1="791.2063" x2="-1896.7832" y2="791.2063" gradientTransform="matrix(70.69 0 0 65.81 134964.6406 -51862.4609)">
	<stop  offset="0" style="stop-color:#F9492E"/>
	<stop  offset="1" style="stop-color:#F9492E"/>
</linearGradient>
<path style="fill:url(#SVGID_00000029012861474314101220000010885751015997968023_);" d="M827.9,176.2c-9.8,5.9-15.3,16.1-16.2,30.1
	c-1.1,16.7,6,29.9,17.5,32.3c11,2.3,24.7,1,32.2-3.1c8.3-4.5,17.3-14.8,19.6-22.5c2.8-9.4,0.8-24.4-4.1-30.9
	c-1.4-1.8-4.1-4.2-6.2-5.5c-3.4-2.1-4.9-2.3-21.2-2.6C832.4,173.8,831.8,173.8,827.9,176.2L827.9,176.2z M868.7,180.1
	c7.2,3.1,10.7,10.4,10.7,22.7c0,5.4-0.6,9.5-2,13.2c-5,13.4-19.2,22.7-34.6,22.7c-6.3,0-6.4,0-9.1-4.1c-3.1-4.8-4-11.7-2.5-20
	c1.2-6.2,4.7-14.4,7.2-16.9c0.9-0.9,2.8-3.2,4.4-5.3c4.8-6.3,16-13.5,21.4-13.7C864.9,178.7,866.9,179.3,868.7,180.1L868.7,180.1z"
	/>
<linearGradient id="SVGID_00000167385101086123984890000016665470265513832340_" gradientUnits="userSpaceOnUse" x1="-1878.515" y1="791.998" x2="-1877.765" y2="792.808" gradientTransform="matrix(44.9 0 0 63 85040.2656 -49539)">
	<stop  offset="0" style="stop-color:#8064BA"/>
	<stop  offset="1" style="stop-color:#B7B0F1"/>
</linearGradient>
<path style="fill:url(#SVGID_00000167385101086123984890000016665470265513832340_);" d="M698.6,345.4
	c-11.9,8.1-15.2,14.2-15.2,28.3c0,9.2,1.9,16.2,6.3,22.6c4.3,6.5,8.8,9.4,14.4,9.4c5.6,0,8.9-1.7,13.6-6.9
	c7.5-8.3,11.3-19.6,10.5-31.5c-0.6-8.9-3-13.8-9.9-20c-4.7-4.2-5.5-4.6-10.4-4.6C703.9,342.7,701.8,343.3,698.6,345.4z"/>
<linearGradient id="SVGID_00000122717714871544509520000014186600181983561354_" gradientUnits="userSpaceOnUse" x1="-1823.2858" y1="817.6146" x2="-1822.2855" y2="817.6146" gradientTransform="matrix(21.8 0 0 31.13 40449.1875 -25078.1309)">
	<stop  offset="0" style="stop-color:#6E4AAA"/>
	<stop  offset="1" style="stop-color:#6E4AAA"/>
</linearGradient>
<path style="fill:url(#SVGID_00000122717714871544509520000014186600181983561354_);" d="M702.7,362.1c-3.5,3.2-3.7,3.8-4.1,10.3
	c-0.3,5.6,0,7.8,1.7,11.1c3.7,7.2,9.4,8.3,14.5,2.8C727.5,372.9,716,349.9,702.7,362.1L702.7,362.1z M713.3,363.2
	c4.3,5.6,3.4,14.4-2,18.9c-3.7,3.2-5.1,3.2-8.4,0.3c-4.6-4-4.6-14.1,0-19.1C706.1,359.8,710.5,359.8,713.3,363.2L713.3,363.2z"/>
<linearGradient id="SVGID_00000025439827293576587870000003485738827243163298_" gradientUnits="userSpaceOnUse" x1="-1711.522" y1="875.3802" x2="-1710.522" y2="875.3802" gradientTransform="matrix(10.7 0 0 14.49 19144.5703 -12317.8896)">
	<stop  offset="0" style="stop-color:#FFFFFF"/>
	<stop  offset="1" style="stop-color:#FFFFFF"/>
</linearGradient>
<path style="fill:url(#SVGID_00000025439827293576587870000003485738827243163298_);" d="M833.5,362.5c-0.5,2-1.3,5.4-1.7,7.4
	c-0.6,3.5-0.4,3.8,1.7,3.7c1.9,0,3.1-1.4,5.7-6.6c1.7-3.7,3.1-6.7,3-6.8c-0.2-0.1-2-0.5-4-0.8C834.6,358.8,834.4,358.9,833.5,362.5
	L833.5,362.5z"/>
<linearGradient id="SVGID_00000116950295009033721820000016072510181997973903_" gradientUnits="userSpaceOnUse" x1="-1843.6963" y1="860.4908" x2="-1842.6965" y2="860.4908" gradientTransform="matrix(26.9 0 0 16.77 50278.582 -14085.1797)">
	<stop  offset="0" style="stop-color:#66337B"/>
	<stop  offset="1" style="stop-color:#66337B"/>
</linearGradient>
<path style="fill:url(#SVGID_00000116950295009033721820000016072510181997973903_);" d="M699.7,339.2c-5.3,2.7-13.3,10.6-13.3,13.1
	c0,2.2,2.4,1.6,5.1-1.2c5.1-5.5,10.9-8.4,16.6-8.4c5.3,0,5.4-0.1,5.1-2.8c-0.3-2.4-0.8-2.7-4.3-3
	C706.1,336.7,703.3,337.4,699.7,339.2L699.7,339.2z"/>
<g>
	
		<linearGradient id="SVGID_00000094603287568344342350000014445263124587774393_" gradientUnits="userSpaceOnUse" x1="-1914.6277" y1="775.3269" x2="-1913.6277" y2="775.3269" gradientTransform="matrix(143.46 0 0 199.61 275461.5938 -154494.5)">
		<stop  offset="0" style="stop-color:#CB1B1C"/>
		<stop  offset="1" style="stop-color:#CB1B1C"/>
	</linearGradient>
	<path style="fill:url(#SVGID_00000094603287568344342350000014445263124587774393_);" d="M805.4,189.9c0,45-4.4,96.7-12.7,147.6
		c-1.4,8.9-2.4,16.5-2.1,16.7c0.2,0.3,8.5,1.2,18.4,2.1c9.8,0.9,35,4,55.9,6.9c20.9,3,38.1,5.3,38.2,5.1
		c0.9-0.8,31.3-107.2,30.9-108.1c-0.2-0.7-2.3-1.5-4.6-1.8c-5.6-0.7-10.3-5.4-13.1-12.6c-3-7.9-2.3-22.5,1.4-29.7
		c2.8-5.4,7.4-10.2,11.3-11.9c2.1-0.9-0.9-1.9-22.3-7.8c-13.6-3.7-25.1-6.8-25.4-6.7c-0.4,0-0.3,1.7,0.2,3.7
		c1.3,5.7,1.1,14.4-0.5,19.6c-1.5,5-9.9,16.3-14.3,19.3c-8.2,5.5-14.5,7.4-24.5,7.4c-12.4,0-17.6-1.5-22.5-6.6
		c-11.3-11.6-10.9-37.5,0.7-50.7c2.2-2.4,5.3-5,7.1-5.7c3.1-1.3,3-1.4-8.7-4.7c-6.6-1.8-12.2-3.3-12.6-3.3
		C805.7,168.7,805.4,178.3,805.4,189.9L805.4,189.9z"/>
	
		<linearGradient id="SVGID_00000164510753210935662590000002645807683260496023_" gradientUnits="userSpaceOnUse" x1="-1848.6063" y1="793.9398" x2="-1847.6063" y2="793.9398" gradientTransform="matrix(28.5 0 0 59.04 53536 -46665.8281)">
		<stop  offset="0" style="stop-color:#CB1B1C"/>
		<stop  offset="1" style="stop-color:#CB1B1C"/>
	</linearGradient>
	<path style="fill:url(#SVGID_00000164510753210935662590000002645807683260496023_);" d="M859.5,179.8l-3.3,1l3.6,3.7
		c6.9,6.9,9.3,21.5,5.7,34.2c-1.7,5.7-7.3,14.2-11.1,16.8l-3.5,2.4l3-0.8c5.4-1.3,10.8-4.5,16-9.8c6.8-6.8,9.5-13.8,9.5-24.5
		c0-12.3-3.5-19.6-10.7-22.7C865,178.5,864.2,178.5,859.5,179.8L859.5,179.8z"/>
</g>
<linearGradient id="SVGID_00000001659897696252545600000011854784289328656026_" gradientUnits="userSpaceOnUse" x1="-1909.149" y1="785.2955" x2="-1909.269" y2="786.1947" gradientTransform="matrix(110.18 0 0 85.53 211225.5312 -66901.7422)">
	<stop  offset="0" style="stop-color:#550837"/>
	<stop  offset="1" style="stop-color:#581B6C"/>
</linearGradient>
<path style="fill:url(#SVGID_00000001659897696252545600000011854784289328656026_);" d="M830.5,259.9c-1.5,4.6-17.2,70.1-16.8,70.4
	c0.1,0.1,21.1,3.1,46.5,6.5c35.5,4.9,46.5,6.1,47.1,5.1c0.4-0.6,3.8-13.9,7.5-29.4c3.7-15.6,7.4-30.1,8.2-32.2s1.1-4.3,0.7-4.7
	c-1.1-1.1-16.9-5.2-34.3-8.9c-14.1-3-53.6-10-56.4-10C832.2,256.7,831.1,258.2,830.5,259.9L830.5,259.9z M872.2,273.3
	c22.4,4.2,42.4,7.8,44.6,8.1l3.8,0.6l-0.6,4.1c-0.4,2.3-1,4.4-1.5,4.9c-0.4,0.4-4.1-0.8-8.2-2.7c-18.1-8.3-38.4-12.5-65-13.3
	l-17.6-0.6l1-4.3c0.6-2.4,1.5-4.4,2-4.4S849.9,269.1,872.2,273.3L872.2,273.3z M871.7,290.8c24.3,4.4,44.3,8.2,44.5,8.4
	c0.7,0.7-1.1,7.5-2,7.5c-0.5,0-2.1-0.6-3.7-1.4c-4.4-2.3-19.8-7.3-29.2-9.6c-12.5-2.9-27.5-4.9-43.2-5.7
	c-13.4-0.6-13.8-0.7-13.3-2.7c0.3-1.2,0.6-2.7,0.6-3.4c0-0.6,0.5-1.2,1-1.2C827,282.7,847.3,286.3,871.7,290.8L871.7,290.8z
	 M867.2,306.1c24.4,4.6,44.6,8.6,44.8,8.9c1,1-0.8,7.8-2,7.3c-7.9-3.6-20-8-27.6-9.9c-16.5-4.3-41.3-7.7-55.6-7.7h-6.4l0.6-2.8
	c0.6-2.6,1.3-4.2,1.7-4.2C822.8,297.7,842.8,301.5,867.2,306.1L867.2,306.1z"/>
<linearGradient id="SVGID_00000151520721207553701500000007699541371995146895_" gradientUnits="userSpaceOnUse" x1="-1905.4448" y1="830.7488" x2="-1904.4448" y2="830.7488" gradientTransform="matrix(91.89 0 0 24.63 175912.4531 -20151.3301)">
	<stop  offset="0" style="stop-color:#62336E"/>
	<stop  offset="1" style="stop-color:#62336E"/>
</linearGradient>
<path style="fill:url(#SVGID_00000151520721207553701500000007699541371995146895_);" d="M822.1,298.4c-0.2,0.5-0.7,2-1.1,3.5
	l-0.6,2.8h6.4c14.3,0,39.1,3.4,55.6,7.7c7.6,1.9,19.7,6.3,27.6,9.9c1.2,0.5,3-6.3,2-7.3c-0.3-0.3-86.9-17.1-89.3-17.3
	C822.6,297.7,822.3,298,822.1,298.4L822.1,298.4z"/>
<linearGradient id="SVGID_00000070111804246775507530000016404813372731015316_" gradientUnits="userSpaceOnUse" x1="-1893.3824" y1="804.5107" x2="-1892.3823" y2="804.5107" gradientTransform="matrix(62.43 0 0 42.11 118922.0234 -33548.5977)">
	<stop  offset="0" style="stop-color:#60144A"/>
	<stop  offset="1" style="stop-color:#60144A"/>
</linearGradient>
<path style="fill:url(#SVGID_00000070111804246775507530000016404813372731015316_);" d="M733,308.8c-5.3,0.9-14.7,5.2-17.2,8.1
	c-1.4,1.4-1.4,1.8-0.3,1.9c18,0.8,24.7,1.8,31.2,4.8c8.3,3.8,11.6,6.7,17.5,15.1c2.6,3.6,5,6.6,5.4,6.8c0.5,0.2,0.8,1.2,0.8,2.2
	c0,1.2,1,2,3.2,2.4c1.7,0.3,3.3,0.4,3.5,0.2s-0.3-3.5-1.1-7.3C771.1,319.5,753.4,305.4,733,308.8z"/>
<linearGradient id="SVGID_00000139995902134730889310000001030313908991293872_" gradientUnits="userSpaceOnUse" x1="-1906.6937" y1="781.2891" x2="-1906.5437" y2="782.259" gradientTransform="matrix(98.34 0 0 109.68 188378.2656 -85340.4219)">
	<stop  offset="0" style="stop-color:#2F1241"/>
	<stop  offset="1" style="stop-color:#401551"/>
</linearGradient>
<path style="fill:url(#SVGID_00000139995902134730889310000001030313908991293872_);" d="M910.1,345.4c-0.2,0.4-1.9,5.9-3.7,12.1
	c-3.2,11-3.3,11.3-5.9,10.8c-1.4-0.3-14.1-2.1-28.1-4.1c-14-1.9-26.4-3.7-27.5-4c-1.7-0.3-2.7,0.7-5.3,5.4c-3.5,6.5-3.9,8.6-1.7,9.5
	c0.8,0.3,1.5,1.4,1.5,2.5c0,1.4,0.9,2.1,3.3,2.6c6.3,1.3,6.8,1.6,6.5,3.8c-0.3,1.9-1,2.2-5.3,2.3c-6.3,0.1-12,2.6-12.9,5.6
	c-1.1,4.2-0.6,20.2,0.9,27.3c2,9.6,8.5,22.5,13.5,26.8c6.7,5.7,13.8,7.9,27.2,8.5c11.3,0.4,12,0.3,17.5-2.3
	c7.6-3.7,20.6-16.7,26.2-26.2c2.4-4,6.1-12.3,8.3-18.5c3.8-10.7,4-12,4.1-23.8c0.2-9.5-0.2-13.9-1.6-18.5c-2-6.5-9.1-18.1-11.6-18.8
	c-0.9-0.3-2.3-0.8-3.2-1.2C911.3,344.9,910.4,344.9,910.1,345.4L910.1,345.4z"/>
<linearGradient id="SVGID_00000007405127581387561130000017346188227153863613_" gradientUnits="userSpaceOnUse" x1="-1905.3834" y1="832.5292" x2="-1904.3833" y2="832.5292" gradientTransform="matrix(91.68 0 0 24 175511.6562 -19686)">
	<stop  offset="0" style="stop-color:#62336E"/>
	<stop  offset="1" style="stop-color:#62336E"/>
</linearGradient>
<path style="fill:url(#SVGID_00000007405127581387561130000017346188227153863613_);" d="M825.4,283.9c0,0.7-0.3,2.2-0.6,3.4
	c-0.5,2-0.1,2.1,13.3,2.7c15.7,0.8,30.7,2.8,43.2,5.7c9.4,2.3,24.8,7.3,29.2,9.6c1.6,0.8,3.2,1.4,3.7,1.4c0.9,0,2.7-6.8,2-7.5
	c-0.3-0.4-88.2-16.5-89.8-16.5C825.9,282.7,825.4,283.3,825.4,283.9L825.4,283.9z"/>
<linearGradient id="SVGID_00000143612991666406796140000010148186588077792910_" gradientUnits="userSpaceOnUse" x1="-1905.7211" y1="828.8987" x2="-1904.7211" y2="828.8987" gradientTransform="matrix(92.9 0 0 25.38 177869.1875 -20759.0605)">
	<stop  offset="0" style="stop-color:#62336E"/>
	<stop  offset="1" style="stop-color:#62336E"/>
</linearGradient>
<path style="fill:url(#SVGID_00000143612991666406796140000010148186588077792910_);" d="M828.7,270.1l-1,4.3l17.6,0.6
	c26.6,0.8,46.9,5,65,13.3c4.1,1.9,7.8,3.1,8.2,2.7c0.5-0.5,1.1-2.6,1.5-4.9l0.6-4.1l-3.8-0.6c-2.2-0.3-22.2-3.9-44.6-8.1
	c-22.3-4.2-41-7.6-41.5-7.6S829.3,267.7,828.7,270.1L828.7,270.1z"/>
<linearGradient id="SVGID_00000138550800910708761040000016845930119098682513_" gradientUnits="userSpaceOnUse" x1="-1857.615" y1="923.57" x2="-1856.615" y2="923.57" gradientTransform="matrix(32 0 0 10 60080 -9044)">
	<stop  offset="0" style="stop-color:#A82274"/>
	<stop  offset="1" style="stop-color:#A82274"/>
</linearGradient>
<path style="fill:url(#SVGID_00000138550800910708761040000016845930119098682513_);" d="M636.4,191.7v5h32v-10h-32V191.7z"/>
<linearGradient id="SVGID_00000133526611561643888450000015262425964828180355_" gradientUnits="userSpaceOnUse" x1="-1891.1924" y1="795.3147" x2="-1890.2024" y2="795.6546" gradientTransform="matrix(58.97 0 0 55.86 112439.7344 -44203.6992)">
	<stop  offset="0" style="stop-color:#E7381E"/>
	<stop  offset="1" style="stop-color:#E37358"/>
</linearGradient>
<path style="fill:url(#SVGID_00000133526611561643888450000015262425964828180355_);" d="M928.4,204.4c-2.9,1.1-8.2,6.9-10.7,11.7
	c-3.7,7.2-4.4,21.8-1.4,29.7c4.1,10.9,11.8,14.7,27.7,13.7c8.9-0.6,14.6-3.2,21.8-10.2c6.5-6.3,7.6-9.6,7.6-22.1
	c-0.1-15.4-3.8-20.5-16.5-22.4C949.2,203.7,931.1,203.4,928.4,204.4L928.4,204.4z M966.2,210.9c3.5,3,5.5,9.2,5.5,17.3
	c-0.1,10.1-1.7,14-9.2,21.5c-4.6,4.7-6.8,6.2-11.5,7.5c-11.2,3.3-19,0.5-20.2-7.3c-1.6-10.2,2.4-22.2,10.5-32
	C948.5,209.2,960.2,205.9,966.2,210.9z"/>
<linearGradient id="SVGID_00000157302863287383071280000011473645150737819583_" gradientUnits="userSpaceOnUse" x1="-1919.1951" y1="774.8389" x2="-1918.1951" y2="774.8389" gradientTransform="matrix(198.85 0 0 212.45 382049.8125 -164310.4531)">
	<stop  offset="0" style="stop-color:#532066"/>
	<stop  offset="1" style="stop-color:#532066"/>
</linearGradient>
<path style="fill:url(#SVGID_00000157302863287383071280000011473645150737819583_);" d="M479.4,199.3c-7.3,2-19.4,8.1-23.9,12.2
	c-2,1.8-4.7,4.3-6.1,5.6c-8,7.3-21,25-21,28.6c0,0.8,1.5-1,3.3-4c6.1-10,8.7-13.4,16-20.9c15.1-15.4,29.7-22.1,48.2-22.1
	c20.1,0.1,36.1,10.6,49.4,32.8c21.5,35.8,17.7,92.1-9,132.6c-10.8,16.3-26.2,29.5-39.5,33.6c-4.5,1.4-9.4,2-15.4,2
	c-8.1,0-9.3-0.3-16-3.7c-8.9-4.4-19.4-14.4-26.8-25.5c-2.9-4.2-5.2-8.2-5.2-8.8c0-0.5-0.4-1-0.8-1c-0.9,0-2.1-2.9-7.2-17.5
	c-2.2-6.1-3.9-10.1-3.9-9c-0.1,2.8,6,20,9,25.5c5,9.3,10.7,17.8,15.3,23c7.4,8.3,22.5,18,28.1,18c1.1,0,4.9,0.9,8.4,2
	c16.4,5.2,50,9.1,60.4,7c26.1-5,51.1-26,65-54.5c4.5-9.4,9.4-25,11.3-36.4c2.4-15,1.5-37.1-2-50c-2.8-10-8.2-21.8-13.7-29.8
	c-8.6-12.4-22-23.7-32.9-27.5C540.4,200.8,496,194.9,479.4,199.3L479.4,199.3z"/>
<linearGradient id="SVGID_00000017503433827223592290000014438254650861992616_" gradientUnits="userSpaceOnUse" x1="-1899.995" y1="799.0765" x2="-1899.785" y2="799.8364" gradientTransform="matrix(76.55 0 0 48.9 146000.2031 -38737.3008)">
	<stop  offset="0" style="stop-color:#320D48"/>
	<stop  offset="1" style="stop-color:#3D1652"/>
</linearGradient>
<path style="fill:url(#SVGID_00000017503433827223592290000014438254650861992616_);" d="M572.4,338.4l-24.5,8.7l-4.5,8
	c-2.5,4.4-7.1,11.5-10.2,15.8l-5.7,7.7l4.6-2c8.9-3.8,53.8-21.8,55.2-22.1c0.8-0.2,2.2,2.1,3.7,6.2c1.4,3.6,2.9,7.6,3.4,8.9l1.1,2.3
	l2.7-3.5c1.5-1.9,3.6-5.3,4.6-7.5c1.8-4,1.8-4.2-0.9-15.9c-3.3-14.7-3.5-15.3-4.3-15.3C597.2,329.8,585.9,333.7,572.4,338.4
	L572.4,338.4z"/>
<linearGradient id="SVGID_00000165210312220184366840000002636784275503550395_" gradientUnits="userSpaceOnUse" x1="-1856.6857" y1="830.2381" x2="-1855.6858" y2="830.2381" gradientTransform="matrix(31.6 0 0 24.9 59398.5078 -20268.6797)">
	<stop  offset="0" style="stop-color:#350F4B"/>
	<stop  offset="1" style="stop-color:#350F4B"/>
</linearGradient>
<path style="fill:url(#SVGID_00000165210312220184366840000002636784275503550395_);" d="M749.6,395.4c-9.2,3.6-9.4,3.7-12.2,9.2
	c-1.6,3.1-3.9,7.1-5.1,8.8c-1.1,1.8-1.9,3.3-1.6,3.3c0.2,0,5.2-2.3,11.1-5c5.9-2.8,11.3-5,12-5s1.9,2.1,2.7,4.7l1.5,4.7l2.3-4
	c2-3.3,2.2-4.8,1.7-9.7c-0.7-6.9-1.6-10.7-2.5-10.6C759.2,391.8,754.7,393.4,749.6,395.4z"/>
<linearGradient id="SVGID_00000149360612990785833880000010233780078426847646_" gradientUnits="userSpaceOnUse" x1="-1873.7219" y1="1287.7333" x2="-1872.7219" y2="1287.7333" gradientTransform="matrix(41 0 0 3 77548 -3645)">
	<stop  offset="0" style="stop-color:#BC292F"/>
	<stop  offset="1" style="stop-color:#BC292F"/>
</linearGradient>
<path style="fill:url(#SVGID_00000149360612990785833880000010233780078426847646_);" d="M725.4,218.2c0,1.3,2.9,1.5,20.5,1.5
	s20.5-0.2,20.5-1.5s-2.9-1.5-20.5-1.5C728.3,216.7,725.4,216.9,725.4,218.2z"/>
<linearGradient id="SVGID_00000124852301142312963360000001136667273299083938_" gradientUnits="userSpaceOnUse" x1="-1910.0056" y1="778.8425" x2="-1909.0056" y2="778.8425" gradientTransform="matrix(111.87 0 0 137.41 214192.1719 -106763.1484)">
	<stop  offset="0" style="stop-color:#611349"/>
	<stop  offset="1" style="stop-color:#611349"/>
</linearGradient>
<path style="fill:url(#SVGID_00000124852301142312963360000001136667273299083938_);" d="M535.4,191c-4.1,1.3-10,3.6-13,5.2
	l-5.5,2.8l11,1.8c6.1,1,15.1,2.9,20.2,4.2c6.9,1.7,9.4,2,9.7,1.1c0.6-1.6,5-0.5,15.3,3.9c8.3,3.5,17.4,10,24.7,17.6
	c7.5,7.7,16.4,24.5,21,39.6c1.6,4.9,3.5,11.2,4.3,13.9c1.3,4.1,1.5,8.8,1.1,26.5c-0.6,22.7,0,24.3,2.8,7.2
	c2.7-16.6,2.2-54.1-0.7-54.1c-0.5,0-0.9-0.9-0.9-1.9c0-3.8-6.2-20.7-10.5-28.8c-10.1-19.1-23.2-31.4-40.3-38
	c-5.6-2.2-8.7-2.7-19.2-3C544.5,188.7,541.9,189,535.4,191L535.4,191z"/>
<linearGradient id="SVGID_00000152957171568542250090000003803029851876560260_" gradientUnits="userSpaceOnUse" x1="-1890.8615" y1="794.0211" x2="-1890.4714" y2="795.0211" gradientTransform="matrix(58.92 0 0 58.04 111986.9531 -45826.1289)">
	<stop  offset="0" style="stop-color:#3E0E54"/>
	<stop  offset="1" style="stop-color:#4C1860"/>
</linearGradient>
<path style="fill:url(#SVGID_00000152957171568542250090000003803029851876560260_);" d="M578.6,260.7l-18.2,11.9v11
	c0,6.3,0.4,11.2,1,11.6c0.6,0.3,9.6-4,20.1-9.6c10.4-5.6,19.1-10,19.3-9.8s4.1,7.7,8.7,16.7c9.4,18.3,9.7,18.4,9.8,3.5
	c0.1-9,0-9.4-4.2-17.5c-8.5-16.4-16.2-29.8-17.2-29.8C597.3,248.7,588.7,254.1,578.6,260.7L578.6,260.7z"/>
<linearGradient id="SVGID_00000154408850588954904570000006720017652319761582_" gradientUnits="userSpaceOnUse" x1="-1913.9965" y1="774.8776" x2="-1913.4464" y2="775.7776" gradientTransform="matrix(140.41 0 0 200.99 269200.0938 -155524)">
	<stop  offset="0" style="stop-color:#84507E"/>
	<stop  offset="1" style="stop-color:#65197F"/>
</linearGradient>
<path style="fill:url(#SVGID_00000154408850588954904570000006720017652319761582_);" d="M480.7,200.2c-11.7,3.2-22.5,10-33,20.6
	c-12.8,13.1-21.1,28-26.5,47.9c-2.1,7.7-2.3,10.6-2.3,30.5c0.1,24.4,1,30,8.2,48.9c1.9,5,3.7,9.9,4,10.8c0.3,1,0.9,1.8,1.4,1.8
	s0.9,0.5,0.9,1c0,0.6,2.3,4.6,5.2,8.8c7.4,11.1,17.9,21.1,26.8,25.5c6.7,3.4,7.9,3.7,16,3.7c11.4,0,19.7-2.5,29.3-9
	c33.1-22.1,54.2-76.6,47.3-121.7c-5-33.1-23.2-59.7-46.4-67.9C503.7,198.3,489.3,197.9,480.7,200.2L480.7,200.2z"/>
<linearGradient id="SVGID_00000015356343612765343780000002957537577039592638_" gradientUnits="userSpaceOnUse" x1="-1901.2161" y1="780.9983" x2="-1900.4261" y2="781.7582" gradientTransform="matrix(79.36 0 0 113.09 151349.3125 -88060.0703)">
	<stop  offset="0" style="stop-color:#8569C0"/>
	<stop  offset="1" style="stop-color:#BBB3F5"/>
</linearGradient>
<path style="fill:url(#SVGID_00000015356343612765343780000002957537577039592638_);" d="M490,239.8c-6.3,1-10.5,2.7-13.6,5.4
	c-1.4,1.1-4.1,3.1-6,4.4c-3.9,2.6-10.9,12.1-13.9,19.2c-10.1,23-4.3,56,13,73.9c6.3,6.5,12,9.3,19.1,9.3c16,0,32.3-16.7,40-41.3
	c2-6.5,2.3-9.5,2.3-22.5c-0.1-14.7-0.1-15.1-3.2-21.7c-5.8-12.4-14.3-22-22.5-25.7C500.3,238.6,497.9,238.4,490,239.8L490,239.8z"/>
<linearGradient id="SVGID_00000106865372365176798290000014372569107086357683_" gradientUnits="userSpaceOnUse" x1="-1868.2191" y1="796.0129" x2="-1869.2491" y2="795.8828" gradientTransform="matrix(38 0 0 54.8 71508.5 -43322.0703)">
	<stop  offset="0" style="stop-color:#6A45A7"/>
	<stop  offset="1" style="stop-color:#7A5BB6"/>
</linearGradient>
<path style="fill:url(#SVGID_00000106865372365176798290000014372569107086357683_);" d="M488.7,272c-2.4,1.7-5.5,5-7,7.2
	c-2.5,3.7-2.7,4.7-2.8,15c0,9.5,0.3,11.7,2.4,16.2c2.6,5.8,8.6,11.9,12.7,12.9c4.4,1.1,11.3-2.5,15.4-7.9c5.2-6.8,7.4-13.7,7.5-22.8
	c0-6.5-0.5-8.4-3-13.5c-4-7.7-8-10.4-15.4-10.4C493.8,268.7,492.3,269.2,488.7,272L488.7,272z M505.5,273.4
	c4.6,3.9,6.9,9.6,6.9,17.3c0,8.1-1.1,12.2-5,18.3c-7.4,11.7-17.9,11.5-24.5-0.4c-2.7-4.9-3-6.2-2.9-14.4c0-7.5,0.4-9.7,2.4-13.4
	C487.6,271.1,498.6,267.6,505.5,273.4z"/>
<linearGradient id="SVGID_00000007426175909324127370000011551538541442757296_" gradientUnits="userSpaceOnUse" x1="-1840.5074" y1="812.6035" x2="-1839.5073" y2="812.6035" gradientTransform="matrix(25.95 0 0 34.66 48266.2734 -27916.5098)">
	<stop  offset="0" style="stop-color:#542260"/>
	<stop  offset="1" style="stop-color:#542260"/>
</linearGradient>
<path style="fill:url(#SVGID_00000007426175909324127370000011551538541442757296_);" d="M503.4,234.5c0,3.6,0.3,4.1,3.8,5.7
	c6.8,3.2,14.9,12.3,19.9,22.5c2.9,5.8,3,2.5,0.3-4.9c-2.8-7.2-5.7-12.9-8.6-16.8c-2.7-3.5-9.5-8.6-13.1-9.7
	C503.6,230.6,503.4,230.9,503.4,234.5z"/>
<linearGradient id="SVGID_00000104704611437709149600000011993745927615306625_" gradientUnits="userSpaceOnUse" x1="-1893.4893" y1="795.6491" x2="-1892.4891" y2="795.6491" gradientTransform="matrix(62.61 0 0 55.51 118997.0547 -43936.7383)">
	<stop  offset="0" style="stop-color:#FF92F9;stop-opacity:0.16"/>
	<stop  offset="1" style="stop-color:#FF92F9;stop-opacity:0.16"/>
</linearGradient>
<path style="fill:url(#SVGID_00000104704611437709149600000011993745927615306625_);" d="M479.6,203.6
	c-15.4,4.5-30.6,15.1-35.3,24.7c-3.8,8-0.6,18.2,8.2,25.7l4.1,3.5l5.2-6.1c11.4-13.5,24.1-20.7,36.3-20.7h6.2l0.7-4.6
	c0.9-6-0.1-17.6-1.8-21.1c-1.3-2.7-1.7-2.8-9.3-3C488.6,201.9,483.8,202.4,479.6,203.6L479.6,203.6z"/>
<linearGradient id="SVGID_00000114036294852232020490000012098512998212191888_" gradientUnits="userSpaceOnUse" x1="-1906.3934" y1="795.5733" x2="-1906.4435" y2="796.4834" gradientTransform="matrix(97.45 0 0 54.66 186555.4375 -43164.8789)">
	<stop  offset="0" style="stop-color:#FFFFFF;stop-opacity:0.96"/>
	<stop  offset="1" style="stop-color:#FFFFFF"/>
</linearGradient>
<path style="fill:url(#SVGID_00000114036294852232020490000012098512998212191888_);" d="M735.9,322.1c13,3.6,15.5,4.8,21.2,10.9
	c8.1,8.6,14.3,23,14.3,33.5v4.1l5.3,0.5c2.8,0.3,11.9,1.2,20.2,2.1c14.9,1.5,15,1.5,16.5-0.6c1.3-1.7,2.3-1.9,5.2-1.4l3.5,0.7
	l1.3-6.7c0.7-3.6,1.1-6.7,0.9-6.9s-7.8-1.1-16.8-2c-10.2-1.1-16.8-2.2-17.6-3c-0.8-0.7-4.2-1.6-7.7-2c-10.2-1.2-11.8-1.7-11.8-3.6
	c0-1-0.3-2-0.8-2.2c-0.4-0.2-2.8-3.2-5.4-6.8c-2.5-3.6-6-7.7-7.6-9.2c-5.2-4.6-15.9-8.9-23.2-9.4l-6.5-0.5L735.9,322.1z"/>
<linearGradient id="SVGID_00000100371505159212177380000009972499646460087432_" gradientUnits="userSpaceOnUse" x1="-1863.9011" y1="817.8491" x2="-1862.9011" y2="817.8491" gradientTransform="matrix(35 0 0 31.06 65915 -25066.1602)">
	<stop  offset="0" style="stop-color:#FF8FF8;stop-opacity:0.18"/>
	<stop  offset="1" style="stop-color:#FF8FF8;stop-opacity:0.18"/>
</linearGradient>
<path style="fill:url(#SVGID_00000100371505159212177380000009972499646460087432_);" d="M696.6,322.7
	c-11.5,4.1-18.2,10.5-18.2,17.3c0,4.3,2.2,8.6,5.5,11.1c1.7,1.2,2.2,1,4.7-2.5c5.4-7.4,14.6-12.5,21.4-11.7l3.4,0.4v-6.4
	c0-8.8-0.9-10.2-6.8-10.2C704,320.8,699.5,321.6,696.6,322.7L696.6,322.7z"/>
<linearGradient id="SVGID_00000106854491310533076000000005585942173271964049_" gradientUnits="userSpaceOnUse" x1="-1673.9312" y1="862.6058" x2="-1672.9312" y2="862.6058" gradientTransform="matrix(10.7 0 0 14.49 19144.5703 -12317.8896)">
	<stop  offset="0" style="stop-color:#FFFFFF"/>
	<stop  offset="1" style="stop-color:#FFFFFF"/>
</linearGradient>
<path style="fill:url(#SVGID_00000106854491310533076000000005585942173271964049_);" d="M1235.7,177.4c-0.5,2-1.3,5.4-1.7,7.4
	c-0.6,3.5-0.4,3.8,1.7,3.7c1.9,0,3.1-1.4,5.7-6.6c1.7-3.7,3.1-6.7,3-6.8c-0.2-0.1-2-0.5-4-0.8
	C1236.8,173.7,1236.6,173.8,1235.7,177.4L1235.7,177.4z"/>
<linearGradient id="SVGID_00000106831768711769151760000007751305704981105828_" gradientUnits="userSpaceOnUse" x1="-1920.5045" y1="774.8713" x2="-1919.5045" y2="774.8713" gradientTransform="matrix(198.85 0 0 212.45 382049.8125 -164310.4531)">
	<stop  offset="0" style="stop-color:#532066"/>
	<stop  offset="1" style="stop-color:#532066"/>
</linearGradient>
<path style="fill:url(#SVGID_00000106831768711769151760000007751305704981105828_);" d="M217.6,206.2c-7.3,2-19.4,8.1-23.9,12.2
	c-2,1.8-4.7,4.3-6.1,5.6c-8,7.3-21,25-21,28.6c0,0.8,1.5-1,3.3-4c6.1-10,8.7-13.4,16-20.9c15.1-15.4,29.7-22.1,48.2-22.1
	c20.1,0.1,36.1,10.6,49.4,32.8c21.5,35.8,17.7,92.1-9,132.6c-10.8,16.3-26.2,29.5-39.5,33.6c-4.5,1.4-9.4,2-15.4,2
	c-8.1,0-9.3-0.3-16-3.7c-8.9-4.4-19.4-14.4-26.8-25.5c-2.9-4.2-5.2-8.2-5.2-8.8c0-0.5-0.4-1-0.8-1c-0.9,0-2.1-2.9-7.2-17.5
	c-2.2-6.1-3.9-10.1-3.9-9c-0.1,2.8,6,20,9,25.5c5,9.3,10.7,17.8,15.3,23c7.4,8.3,22.5,18,28.1,18c1.1,0,4.9,0.9,8.4,2
	c16.4,5.2,50,9.1,60.4,7c26.1-5,51.1-26,65-54.5c4.5-9.4,9.4-25,11.3-36.4c2.4-15,1.5-37.1-2-50c-2.8-10-8.2-21.8-13.7-29.8
	c-8.6-12.4-22-23.7-32.9-27.5C278.6,207.7,234.2,201.8,217.6,206.2L217.6,206.2z"/>
<linearGradient id="SVGID_00000173873789397600021510000013924720767702223030_" gradientUnits="userSpaceOnUse" x1="-1916.8969" y1="774.9944" x2="-1916.3469" y2="775.8943" gradientTransform="matrix(140.41 0 0 200.99 269200.0938 -155524)">
	<stop  offset="0" style="stop-color:#84507E"/>
	<stop  offset="1" style="stop-color:#65197F"/>
</linearGradient>
<path style="fill:url(#SVGID_00000173873789397600021510000013924720767702223030_);" d="M73.6,224c-11.7,3.2-22.5,10-33,20.6
	c-12.8,13.1-21.1,28-26.5,47.9c-2.1,7.7-2.3,10.6-2.3,30.5c0.1,24.4,1,30,8.2,48.9c1.9,5,3.7,9.9,4,10.8c0.3,1,0.9,1.8,1.4,1.8
	s0.9,0.5,0.9,1c0,0.6,2.3,4.6,5.2,8.8c7.4,11.1,17.9,21.1,26.8,25.5c6.7,3.4,7.9,3.7,16,3.7c11.4,0,19.7-2.5,29.3-9
	c33.1-22.1,54.2-76.6,47.3-121.7c-5-33.1-23.2-59.7-46.4-67.9C96.6,222.1,82.2,221.7,73.6,224L73.6,224z"/>
<linearGradient id="SVGID_00000139998964940372358410000011741426581912888192_" gradientUnits="userSpaceOnUse" x1="-1856.3129" y1="811.5822" x2="-1855.3127" y2="811.5822" gradientTransform="matrix(25.95 0 0 34.66 48266.2734 -27916.5098)">
	<stop  offset="0" style="stop-color:#542260"/>
	<stop  offset="1" style="stop-color:#542260"/>
</linearGradient>
<path style="fill:url(#SVGID_00000139998964940372358410000011741426581912888192_);" d="M93.4,199.1c0,3.6,0.3,4.1,3.8,5.7
	c6.8,3.2,14.9,12.3,19.9,22.5c2.9,5.8,3,2.5,0.3-4.9c-2.8-7.2-5.7-12.9-8.6-16.8c-2.7-3.5-9.5-8.6-13.1-9.7
	C93.6,195.2,93.4,195.5,93.4,199.1L93.4,199.1z"/>
<linearGradient id="SVGID_00000062913094654894821600000010854013229367788222_" gradientUnits="userSpaceOnUse" x1="-1900.3085" y1="795.2564" x2="-1899.3083" y2="795.2564" gradientTransform="matrix(62.61 0 0 55.51 118997.0547 -43936.7383)">
	<stop  offset="0" style="stop-color:#FF92F9;stop-opacity:0.16"/>
	<stop  offset="1" style="stop-color:#FF92F9;stop-opacity:0.16"/>
</linearGradient>
<path style="fill:url(#SVGID_00000062913094654894821600000010854013229367788222_);stroke:#000000;stroke-miterlimit:10;" d="
	M53,181.8c-15.4,4.5-30.6,15.1-35.3,24.7c-3.8,8-0.6,18.2,8.2,25.7l4.1,3.5l5.2-6.1c11.4-13.5,24.1-20.7,36.3-20.7h6.2l0.7-4.6
	c0.9-6-0.1-17.6-1.8-21.1c-1.3-2.7-1.7-2.8-9.3-3C62,180.1,57.2,180.6,53,181.8L53,181.8z"/>
<rect x="423.6" y="188.6" class="st56" width="100.7" height="82.3"/>
<linearGradient id="SVGID_00000029743741977493623120000005275249665443866793_" gradientUnits="userSpaceOnUse" x1="-1907.3157" y1="785.5569" x2="-1907.4357" y2="786.4562" gradientTransform="matrix(110.18 0 0 85.53 211225.5312 -66901.7422)">
	<stop  offset="0" style="stop-color:#550837"/>
	<stop  offset="1" style="stop-color:#581B6C"/>
</linearGradient>
<path style="fill:url(#SVGID_00000029743741977493623120000005275249665443866793_);" d="M1032.5,282.3
	c-1.5,4.6-17.2,70.1-16.8,70.4c0.1,0.1,21.1,3.1,46.5,6.5c35.5,4.9,46.5,6.1,47.1,5.1c0.4-0.6,3.8-13.9,7.5-29.4
	c3.7-15.6,7.4-30.1,8.2-32.2s1.1-4.3,0.7-4.7c-1.1-1.1-16.9-5.2-34.3-8.9c-14.1-3-53.6-10-56.4-10
	C1034.2,279.1,1033.1,280.6,1032.5,282.3L1032.5,282.3z M1074.2,295.7c22.4,4.2,42.4,7.8,44.6,8.1l3.8,0.6l-0.6,4.1
	c-0.4,2.3-1,4.4-1.5,4.9c-0.4,0.4-4.1-0.8-8.2-2.7c-18.1-8.3-38.4-12.5-65-13.3l-17.6-0.6l1-4.3c0.6-2.4,1.5-4.4,2-4.4
	S1051.9,291.5,1074.2,295.7L1074.2,295.7z M1073.7,313.2c24.3,4.4,44.3,8.2,44.5,8.4c0.7,0.7-1.1,7.5-2,7.5c-0.5,0-2.1-0.6-3.7-1.4
	c-4.4-2.3-19.8-7.3-29.2-9.6c-12.5-2.9-27.5-4.9-43.2-5.7c-13.4-0.6-13.8-0.7-13.3-2.7c0.3-1.2,0.6-2.7,0.6-3.4c0-0.6,0.5-1.2,1-1.2
	C1029,305.1,1049.3,308.7,1073.7,313.2L1073.7,313.2z M1069.2,328.5c24.4,4.6,44.6,8.6,44.8,8.9c1,1-0.8,7.8-2,7.3
	c-7.9-3.6-20-8-27.6-9.9c-16.5-4.3-41.3-7.7-55.6-7.7h-6.4l0.6-2.8c0.6-2.6,1.3-4.2,1.7-4.2C1024.8,320.1,1044.8,323.9,1069.2,328.5
	L1069.2,328.5z"/>
<linearGradient id="SVGID_00000122703751809575636620000010853453952689862281_" gradientUnits="userSpaceOnUse" x1="-1902.0375" y1="832.6327" x2="-1901.0375" y2="832.6327" gradientTransform="matrix(91.89 0 0 24.63 175912.4531 -20151.3301)">
	<stop  offset="0" style="stop-color:#62336E"/>
	<stop  offset="1" style="stop-color:#62336E"/>
</linearGradient>
<path style="fill:url(#SVGID_00000122703751809575636620000010853453952689862281_);" d="M1135.2,344.8c-0.2,0.5-0.7,2-1.1,3.5
	l-0.6,2.8h6.4c14.3,0,39.1,3.4,55.6,7.7c7.6,1.9,19.7,6.3,27.6,9.9c1.2,0.5,3-6.3,2-7.3c-0.3-0.3-86.9-17.1-89.3-17.3
	C1135.7,344.1,1135.4,344.4,1135.2,344.8L1135.2,344.8z"/>
<linearGradient id="SVGID_00000057833817696177580830000007395603849012338833_" gradientUnits="userSpaceOnUse" x1="-1901.968" y1="834.4625" x2="-1900.968" y2="834.4625" gradientTransform="matrix(91.68 0 0 24 175511.6562 -19686)">
	<stop  offset="0" style="stop-color:#62336E"/>
	<stop  offset="1" style="stop-color:#62336E"/>
</linearGradient>
<path style="fill:url(#SVGID_00000057833817696177580830000007395603849012338833_);" d="M1138.5,330.3c0,0.7-0.3,2.2-0.6,3.4
	c-0.5,2-0.1,2.1,13.3,2.7c15.7,0.8,30.7,2.8,43.2,5.7c9.4,2.3,24.8,7.3,29.2,9.6c1.6,0.8,3.2,1.4,3.7,1.4c0.9,0,2.7-6.8,2-7.5
	c-0.3-0.4-88.2-16.5-89.8-16.5C1139,329.1,1138.5,329.7,1138.5,330.3L1138.5,330.3z"/>
<linearGradient id="SVGID_00000036955096220224304840000013517193462913485193_" gradientUnits="userSpaceOnUse" x1="-1902.3508" y1="830.7269" x2="-1901.3508" y2="830.7269" gradientTransform="matrix(92.9 0 0 25.38 177869.1875 -20759.0605)">
	<stop  offset="0" style="stop-color:#62336E"/>
	<stop  offset="1" style="stop-color:#62336E"/>
</linearGradient>
<path style="fill:url(#SVGID_00000036955096220224304840000013517193462913485193_);" d="M1141.8,316.5l-1,4.3l17.6,0.6
	c26.6,0.8,46.9,5,65,13.3c4.1,1.9,7.8,3.1,8.2,2.7c0.5-0.5,1.1-2.6,1.5-4.9l0.6-4.1l-3.8-0.6c-2.2-0.3-22.2-3.9-44.6-8.1
	c-22.3-4.2-41-7.6-41.5-7.6S1142.4,314.1,1141.8,316.5L1141.8,316.5z"/>
<g>
	<line class="st4" x1="418.9" y1="234.7" x2="361.4" y2="234.7"/>
	<path d="M343.3,234.7c8.5-3.2,19.1-8.5,25.6-14.3l-5.2,14.3L369,249C362.4,243.3,351.8,237.9,343.3,234.7z"/>
</g>
<rect x="809.5" y="251.2" class="st56" width="134.4" height="106.3"/>
<rect x="1016" y="266" transform="matrix(0.1892 -0.9819 0.9819 0.1892 549.2392 1312.0573)" class="st56" width="106.3" height="114.8"/>
</svg>
