<?xml version="1.0" standalone="no"?>
<!DOCTYPE svg PUBLIC "-//W3C//DTD SVG 20010904//EN"
 "http://www.w3.org/TR/2001/REC-SVG-20010904/DTD/svg10.dtd">
<svg version="1.0" xmlns="http://www.w3.org/2000/svg"
 width="557.000000pt" height="455.000000pt" viewBox="0 0 557.000000 455.000000"
 preserveAspectRatio="xMidYMid meet">
<defs>
<linearGradient id="grad_0" x1="0%" y1="100%" x2="100%" y2="100%">
<stop offset="0%" style="stop-color:rgb(254, 254, 254); stop-opacity:1"/>
<stop offset="100%" style="stop-color:rgb(254, 254, 254); stop-opacity:1"/>
</linearGradient>
<linearGradient id="grad_1" x1="67%" y1="87%" x2="-60%" y2="71%">
<stop offset="0%" style="stop-color:rgb(129, 87, 165); stop-opacity:1"/>
<stop offset="100%" style="stop-color:rgb(158, 117, 194); stop-opacity:1"/>
</linearGradient>
<linearGradient id="grad_2" x1="100%" y1="1%" x2="0%" y2="-2%">
<stop offset="0%" style="stop-color:rgb(196, 37, 29); stop-opacity:1"/>
<stop offset="100%" style="stop-color:rgb(253, 89, 45); stop-opacity:1"/>
</linearGradient>
<linearGradient id="grad_3" x1="26%" y1="94%" x2="155%" y2="52%">
<stop offset="0%" style="stop-color:rgb(196, 174, 218); stop-opacity:1"/>
<stop offset="100%" style="stop-color:rgb(244, 242, 255); stop-opacity:1"/>
</linearGradient>
<linearGradient id="grad_4" x1="0%" y1="87%" x2="100%" y2="87%">
<stop offset="0%" style="stop-color:rgb(109, 73, 169); stop-opacity:1"/>
<stop offset="100%" style="stop-color:rgb(109, 73, 169); stop-opacity:1"/>
</linearGradient>
<linearGradient id="grad_5" x1="100%" y1="0%" x2="-5%" y2="0%">
<stop offset="0%" style="stop-color:rgb(125, 96, 183); stop-opacity:1"/>
<stop offset="100%" style="stop-color:rgb(183, 175, 241); stop-opacity:1"/>
</linearGradient>
<linearGradient id="grad_6" x1="0%" y1="0%" x2="3%" y2="1243%">
<stop offset="0%" style="stop-color:rgb(244, 127, 107); stop-opacity:1"/>
<stop offset="100%" style="stop-color:rgb(248, 222, 144); stop-opacity:1"/>
</linearGradient>
<linearGradient id="grad_7" x1="0%" y1="58%" x2="100%" y2="58%">
<stop offset="0%" style="stop-color:rgb(67, 21, 83); stop-opacity:1"/>
<stop offset="100%" style="stop-color:rgb(67, 21, 83); stop-opacity:1"/>
</linearGradient>
<linearGradient id="grad_8" x1="0%" y1="0%" x2="100%" y2="0%">
<stop offset="0%" style="stop-color:rgb(196, 31, 28); stop-opacity:1"/>
<stop offset="100%" style="stop-color:rgb(196, 31, 28); stop-opacity:1"/>
</linearGradient>
<linearGradient id="grad_9" x1="0%" y1="66%" x2="100%" y2="66%">
<stop offset="0%" style="stop-color:rgb(88, 37, 104); stop-opacity:1"/>
<stop offset="100%" style="stop-color:rgb(88, 37, 104); stop-opacity:1"/>
</linearGradient>
<linearGradient id="grad_10" x1="0%" y1="70%" x2="100%" y2="70%">
<stop offset="0%" style="stop-color:rgb(67, 17, 89); stop-opacity:1"/>
<stop offset="100%" style="stop-color:rgb(67, 17, 89); stop-opacity:1"/>
</linearGradient>
<linearGradient id="grad_11" x1="0%" y1="40%" x2="100%" y2="40%">
<stop offset="0%" style="stop-color:rgb(254, 197, 122); stop-opacity:1"/>
<stop offset="100%" style="stop-color:rgb(254, 197, 122); stop-opacity:1"/>
</linearGradient>
<linearGradient id="grad_12" x1="43%" y1="100%" x2="72%" y2="1%">
<stop offset="0%" style="stop-color:rgb(132, 78, 125); stop-opacity:1"/>
<stop offset="100%" style="stop-color:rgb(101, 24, 126); stop-opacity:1"/>
</linearGradient>
<linearGradient id="grad_13" x1="0%" y1="100%" x2="100%" y2="100%">
<stop offset="0%" style="stop-color:rgb(83, 34, 94); stop-opacity:1"/>
<stop offset="100%" style="stop-color:rgb(83, 34, 94); stop-opacity:1"/>
</linearGradient>
<linearGradient id="grad_14" x1="95%" y1="0%" x2="11%" y2="115%">
<stop offset="0%" style="stop-color:rgb(254, 62, 17); stop-opacity:1"/>
<stop offset="100%" style="stop-color:rgb(241, 79, 112); stop-opacity:1"/>
</linearGradient>
<linearGradient id="grad_15" x1="0%" y1="100%" x2="100%" y2="100%">
<stop offset="0%" style="stop-color:rgb(200, 49, 52); stop-opacity:1"/>
<stop offset="100%" style="stop-color:rgb(200, 49, 52); stop-opacity:1"/>
</linearGradient>
<linearGradient id="grad_16" x1="0%" y1="37%" x2="100%" y2="37%">
<stop offset="0%" style="stop-color:rgb(254, 198, 122); stop-opacity:1"/>
<stop offset="100%" style="stop-color:rgb(254, 198, 122); stop-opacity:1"/>
</linearGradient>
<linearGradient id="grad_17" x1="80%" y1="0%" x2="-74%" y2="59%">
<stop offset="0%" style="stop-color:rgb(102, 11, 47); stop-opacity:1"/>
<stop offset="100%" style="stop-color:rgb(197, 46, 94); stop-opacity:1"/>
</linearGradient>
<linearGradient id="grad_18" x1="0%" y1="100%" x2="100%" y2="100%">
<stop offset="0%" style="stop-color:rgb(210, 52, 47); stop-opacity:1"/>
<stop offset="100%" style="stop-color:rgb(210, 52, 47); stop-opacity:1"/>
</linearGradient>
<linearGradient id="grad_19" x1="0%" y1="56%" x2="100%" y2="56%">
<stop offset="0%" style="stop-color:rgb(249, 73, 46); stop-opacity:1"/>
<stop offset="100%" style="stop-color:rgb(249, 73, 46); stop-opacity:1"/>
</linearGradient>
<linearGradient id="grad_20" x1="43%" y1="100%" x2="118%" y2="19%">
<stop offset="0%" style="stop-color:rgb(128, 100, 186); stop-opacity:1"/>
<stop offset="100%" style="stop-color:rgb(183, 176, 241); stop-opacity:1"/>
</linearGradient>
<linearGradient id="grad_21" x1="0%" y1="69%" x2="100%" y2="69%">
<stop offset="0%" style="stop-color:rgb(110, 74, 170); stop-opacity:1"/>
<stop offset="100%" style="stop-color:rgb(110, 74, 170); stop-opacity:1"/>
</linearGradient>
<linearGradient id="grad_22" x1="0%" y1="21%" x2="100%" y2="21%">
<stop offset="0%" style="stop-color:rgb(255, 255, 255); stop-opacity:1"/>
<stop offset="100%" style="stop-color:rgb(255, 255, 255); stop-opacity:1"/>
</linearGradient>
<linearGradient id="grad_23" x1="0%" y1="12%" x2="100%" y2="12%">
<stop offset="0%" style="stop-color:rgb(102, 51, 123); stop-opacity:1"/>
<stop offset="100%" style="stop-color:rgb(102, 51, 123); stop-opacity:1"/>
</linearGradient>
<linearGradient id="grad_24" x1="0%" y1="9%" x2="100%" y2="9%">
<stop offset="0%" style="stop-color:rgb(203, 27, 28); stop-opacity:1"/>
<stop offset="100%" style="stop-color:rgb(203, 27, 28); stop-opacity:1"/>
</linearGradient>
<linearGradient id="grad_25" x1="20%" y1="100%" x2="8%" y2="10%">
<stop offset="0%" style="stop-color:rgb(85, 8, 55); stop-opacity:1"/>
<stop offset="100%" style="stop-color:rgb(88, 27, 108); stop-opacity:1"/>
</linearGradient>
<linearGradient id="grad_26" x1="0%" y1="79%" x2="100%" y2="79%">
<stop offset="0%" style="stop-color:rgb(98, 51, 110); stop-opacity:1"/>
<stop offset="100%" style="stop-color:rgb(98, 51, 110); stop-opacity:1"/>
</linearGradient>
<linearGradient id="grad_27" x1="0%" y1="76%" x2="100%" y2="76%">
<stop offset="0%" style="stop-color:rgb(96, 20, 74); stop-opacity:1"/>
<stop offset="100%" style="stop-color:rgb(96, 20, 74); stop-opacity:1"/>
</linearGradient>
<linearGradient id="grad_28" x1="81%" y1="100%" x2="96%" y2="3%">
<stop offset="0%" style="stop-color:rgb(47, 18, 65); stop-opacity:1"/>
<stop offset="100%" style="stop-color:rgb(64, 21, 81); stop-opacity:1"/>
</linearGradient>
<linearGradient id="grad_29" x1="0%" y1="82%" x2="100%" y2="82%">
<stop offset="0%" style="stop-color:rgb(98, 51, 110); stop-opacity:1"/>
<stop offset="100%" style="stop-color:rgb(98, 51, 110); stop-opacity:1"/>
</linearGradient>
<linearGradient id="grad_30" x1="0%" y1="68%" x2="100%" y2="68%">
<stop offset="0%" style="stop-color:rgb(98, 51, 110); stop-opacity:1"/>
<stop offset="100%" style="stop-color:rgb(98, 51, 110); stop-opacity:1"/>
</linearGradient>
<linearGradient id="grad_31" x1="0%" y1="100%" x2="100%" y2="100%">
<stop offset="0%" style="stop-color:rgb(168, 34, 116); stop-opacity:1"/>
<stop offset="100%" style="stop-color:rgb(168, 34, 116); stop-opacity:1"/>
</linearGradient>
<linearGradient id="grad_32" x1="1%" y1="70%" x2="100%" y2="36%">
<stop offset="0%" style="stop-color:rgb(231, 56, 30); stop-opacity:1"/>
<stop offset="100%" style="stop-color:rgb(227, 115, 88); stop-opacity:1"/>
</linearGradient>
<linearGradient id="grad_33" x1="0%" y1="36%" x2="100%" y2="36%">
<stop offset="0%" style="stop-color:rgb(83, 32, 102); stop-opacity:1"/>
<stop offset="100%" style="stop-color:rgb(83, 32, 102); stop-opacity:1"/>
</linearGradient>
<linearGradient id="grad_34" x1="90%" y1="100%" x2="111%" y2="24%">
<stop offset="0%" style="stop-color:rgb(50, 13, 72); stop-opacity:1"/>
<stop offset="100%" style="stop-color:rgb(61, 22, 82); stop-opacity:1"/>
</linearGradient>
<linearGradient id="grad_35" x1="0%" y1="0%" x2="100%" y2="0%">
<stop offset="0%" style="stop-color:rgb(53, 15, 75); stop-opacity:1"/>
<stop offset="100%" style="stop-color:rgb(53, 15, 75); stop-opacity:1"/>
</linearGradient>
<linearGradient id="grad_36" x1="0%" y1="100%" x2="100%" y2="100%">
<stop offset="0%" style="stop-color:rgb(188, 41, 47); stop-opacity:1"/>
<stop offset="100%" style="stop-color:rgb(188, 41, 47); stop-opacity:1"/>
</linearGradient>
<linearGradient id="grad_37" x1="0%" y1="92%" x2="100%" y2="92%">
<stop offset="0%" style="stop-color:rgb(97, 19, 73); stop-opacity:1"/>
<stop offset="100%" style="stop-color:rgb(97, 19, 73); stop-opacity:1"/>
</linearGradient>
<linearGradient id="grad_38" x1="62%" y1="100%" x2="101%" y2="0%">
<stop offset="0%" style="stop-color:rgb(62, 14, 84); stop-opacity:1"/>
<stop offset="100%" style="stop-color:rgb(76, 24, 96); stop-opacity:1"/>
</linearGradient>
<linearGradient id="grad_39" x1="44%" y1="99%" x2="99%" y2="9%">
<stop offset="0%" style="stop-color:rgb(132, 80, 126); stop-opacity:1"/>
<stop offset="100%" style="stop-color:rgb(101, 25, 127); stop-opacity:1"/>
</linearGradient>
<linearGradient id="grad_40" x1="34%" y1="96%" x2="113%" y2="20%">
<stop offset="0%" style="stop-color:rgb(133, 105, 192); stop-opacity:1"/>
<stop offset="100%" style="stop-color:rgb(187, 179, 245); stop-opacity:1"/>
</linearGradient>
<linearGradient id="grad_41" x1="97%" y1="38%" x2="-6%" y2="51%">
<stop offset="0%" style="stop-color:rgb(106, 69, 167); stop-opacity:1"/>
<stop offset="100%" style="stop-color:rgb(122, 91, 182); stop-opacity:1"/>
</linearGradient>
<linearGradient id="grad_42" x1="0%" y1="100%" x2="100%" y2="100%">
<stop offset="0%" style="stop-color:rgb(84, 34, 96); stop-opacity:1"/>
<stop offset="100%" style="stop-color:rgb(84, 34, 96); stop-opacity:1"/>
</linearGradient>
<linearGradient id="grad_43" x1="0%" y1="45%" x2="100%" y2="45%">
<stop offset="0%" style="stop-color:rgb(255, 146, 249); stop-opacity:0.161219"/>
<stop offset="100%" style="stop-color:rgb(255, 146, 249); stop-opacity:0.161219"/>
</linearGradient>
<linearGradient id="grad_44" x1="9%" y1="100%" x2="4%" y2="9%">
<stop offset="0%" style="stop-color:rgb(255, 255, 255); stop-opacity:0.956504"/>
<stop offset="100%" style="stop-color:rgb(255, 255, 255); stop-opacity:0.995128"/>
</linearGradient>
<linearGradient id="grad_45" x1="0%" y1="51%" x2="100%" y2="51%">
<stop offset="0%" style="stop-color:rgb(255, 143, 248); stop-opacity:0.181413"/>
<stop offset="100%" style="stop-color:rgb(255, 143, 248); stop-opacity:0.181413"/>
</linearGradient>
</defs>
<g transform="translate(0.000000,455.000000) scale(0.100000,-0.100000)"
fill="url(#grad_0)" stroke="none">
<g>
<path d="M0 2275 l0 -2275 2785 0 2785 0 0 2275 0 2275 -2785 0 -2785 0 0
-2275z"/>
</g>
</g>
<g transform="translate(0.000000,455.000000) scale(0.100000,-0.100000)"
fill="url(#grad_1)" stroke="none">
<g>
<path d="M2735 4133 c-11 -459 16 -1105 51 -1215 5 -17 29 -18 321 -18 l315 0
-6 23 c-4 12 -29 132 -56 267 -54 272 -98 552 -134 859 -14 112 -28 207 -33
212 -7 7 -439 199 -447 199 -2 0 -7 -147 -11 -327z"/>
</g>
</g>
<g transform="translate(0.000000,455.000000) scale(0.100000,-0.100000)"
fill="url(#grad_2)" stroke="none">
<g>
<path d="M2183 4501 c-221 -20 -404 -39 -406 -41 -3 -3 -17 -88 -32 -190 -77
-531 -176 -987 -279 -1289 -15 -41 -26 -76 -26 -78 0 -2 304 -3 676 -3 639 0
675 1 670 18 -14 44 -36 291 -47 527 -10 222 -6 1002 5 1013 4 4 439 -187 449
-197 5 -5 19 -100 33 -212 31 -269 77 -572 120 -794 54 -276 74 -355 90 -355
17 0 17 3 -1 65 -62 203 -135 698 -175 1185 -7 74 -15 138 -18 142 -4 3 -121
61 -260 127 l-254 121 -71 -1 c-40 -1 -253 -18 -474 -38z"/>
</g>
</g>
<g transform="translate(0.000000,455.000000) scale(0.100000,-0.100000)"
fill="url(#grad_3)" stroke="none">
<g>
<path d="M2201 4454 c-205 -23 -375 -45 -378 -47 -2 -3 -13 -80 -23 -171 -47
-410 -132 -865 -229 -1218 l-29 -108 539 0 539 0 0 795 0 795 -22 -1 c-13 -1
-191 -21 -397 -45z"/>
</g>
</g>
<g transform="translate(0.000000,455.000000) scale(0.100000,-0.100000)"
fill="url(#grad_4)" stroke="none">
<g>
<path d="M3655 4431 c-30 -131 -24 -145 109 -281 133 -136 126 -111 126 -422
l0 -198 50 0 50 0 0 258 c0 141 -4 274 -9 294 -5 21 -28 66 -51 100 -66 97
-241 328 -250 328 -3 0 -15 -36 -25 -79z"/>
</g>
</g>
<g transform="translate(0.000000,455.000000) scale(0.100000,-0.100000)"
fill="url(#grad_5)" stroke="none">
<g>
<path d="M3865 3518 c-52 -34 -50 -22 -53 -330 l-4 -288 36 0 c23 0 36 -5 36
-13 0 -12 203 -77 240 -77 11 0 12 57 7 315 -4 173 -11 325 -17 339 -5 14 -24
32 -41 42 -42 21 -177 29 -204 12z"/>
</g>
</g>
<g transform="translate(0.000000,455.000000) scale(0.100000,-0.100000)"
fill="url(#grad_6)" stroke="none">
<g>
<path d="M860 2875 l0 -25 1510 0 1510 0 0 25 0 25 -1510 0 -1510 0 0 -25z"/>
</g>
</g>
<g transform="translate(0.000000,455.000000) scale(0.100000,-0.100000)"
fill="url(#grad_7)" stroke="none">
<g>
<path d="M4061 910 l-13 -72 -36 7 c-29 5 -39 3 -52 -15 -15 -20 -17 -21 -150
-6 -74 8 -165 17 -202 21 l-68 6 0 -44 0 -44 178 -6 c211 -8 222 -10 222 -46
0 -27 0 -28 103 -38 87 -9 107 -8 137 5 19 9 58 16 85 16 43 1 50 4 53 23 3
22 -2 25 -65 38 -23 5 -33 12 -33 25 0 21 -28 40 -59 40 -25 0 -25 6 -7 85 8
33 13 61 12 62 -1 2 -23 6 -47 9 l-45 6 -13 -72z"/>
</g>
</g>
<g transform="translate(0.000000,455.000000) scale(0.100000,-0.100000)"
fill="url(#grad_8)" stroke="none">
<g>
<path d="M5381 2467 c-42 -8 -43 -9 -21 -20 13 -7 35 -34 49 -62 23 -43 26
-62 26 -145 0 -81 -4 -102 -25 -143 -13 -27 -41 -64 -62 -83 -42 -37 -37 -42
20 -19 46 19 136 112 158 163 25 57 23 186 -4 238 -34 67 -71 86 -141 71z"/>
</g>
</g>
<g transform="translate(0.000000,455.000000) scale(0.100000,-0.100000)"
fill="url(#grad_9)" stroke="none">
<g>
<path d="M2745 1339 c-64 -32 -143 -109 -201 -194 -37 -53 -75 -159 -73 -204
0 -16 6 -5 14 29 20 81 47 138 98 205 63 84 102 118 173 154 54 27 72 31 145
31 101 0 152 -21 221 -93 145 -147 184 -414 99 -665 -37 -107 -82 -181 -157
-259 -131 -135 -275 -151 -398 -43 -72 63 -143 190 -176 313 -18 64 -19 67
-14 22 7 -59 45 -158 90 -236 39 -67 108 -132 166 -158 67 -30 223 -56 333
-56 90 0 106 3 153 27 149 77 255 225 302 419 11 46 20 115 20 152 l0 68 68
-6 c37 -4 128 -13 202 -21 133 -15 135 -14 150 6 13 18 23 20 52 15 l35 -7 13
67 c7 36 11 67 9 69 -2 2 -78 11 -168 20 -102 11 -168 22 -176 30 -8 7 -42 16
-77 20 -102 12 -118 17 -118 36 0 10 -3 20 -8 22 -4 2 -28 32 -54 68 -59 84
-92 113 -175 151 -58 26 -86 32 -183 39 -63 5 -158 9 -210 9 -86 1 -101 -2
-155 -30z"/>
</g>
</g>
<g transform="translate(0.000000,455.000000) scale(0.100000,-0.100000)"
fill="url(#grad_10)" stroke="none">
<g>
<path d="M3353 1047 l-72 -52 -1 -72 c0 -40 3 -73 6 -73 4 0 40 20 81 45 73
45 74 45 82 22 5 -12 25 -56 45 -97 l35 -75 1 82 c0 79 -2 87 -47 178 -26 52
-50 95 -53 95 -3 -1 -38 -24 -77 -53z"/>
</g>
</g>
<g transform="translate(0.000000,455.000000) scale(0.100000,-0.100000)"
fill="url(#grad_11)" stroke="none">
<g>
<path d="M5300 2435 c-65 -36 -155 -187 -166 -279 -15 -126 15 -176 110 -184
48 -4 54 -1 96 36 64 56 93 119 98 213 5 84 -6 133 -44 192 -26 40 -51 46 -94
22z"/>
</g>
</g>
<g transform="translate(0.000000,455.000000) scale(0.100000,-0.100000)"
fill="url(#grad_12)" stroke="none">
<g>
<path d="M2755 1329 c-65 -32 -146 -111 -200 -193 -56 -84 -78 -164 -83 -302
-6 -176 23 -290 110 -431 130 -208 316 -231 482 -60 75 78 120 152 157 259 85
251 46 518 -99 665 -70 72 -120 93 -223 93 -73 0 -92 -4 -144 -31z"/>
</g>
</g>
<g transform="translate(0.000000,455.000000) scale(0.100000,-0.100000)"
fill="url(#grad_13)" stroke="none">
<g>
<path d="M2960 1164 c0 -8 29 -43 65 -77 36 -34 65 -61 65 -59 0 17 -56 105
-80 126 -36 30 -50 33 -50 10z"/>
</g>
</g>
<g transform="translate(0.000000,455.000000) scale(0.100000,-0.100000)"
fill="url(#grad_14)" stroke="none">
<g>
<path d="M860 2715 l0 -134 33 -5 c80 -13 102 -10 164 22 108 56 200 75 333
70 92 -4 128 -10 182 -31 171 -66 302 -189 403 -380 43 -81 105 -250 105 -288
0 -10 4 -19 9 -19 26 0 35 -371 12 -509 -6 -36 -9 -66 -8 -67 5 -5 442 -72
446 -68 3 2 29 347 59 767 30 419 56 764 58 766 2 2 6 2 8 0 6 -6 -101 -1549
-107 -1556 -3 -3 -108 11 -233 31 -125 20 -231 33 -235 29 -4 -5 -10 -22 -13
-39 -9 -38 -30 -32 272 -75 l232 -32 49 54 c31 35 72 65 114 86 57 29 75 33
145 33 64 0 82 3 96 18 26 30 118 72 177 81 66 11 157 -2 212 -30 98 -51 185
-178 213 -313 9 -39 16 -72 17 -73 4 -3 122 -21 124 -19 6 5 55 329 77 506 51
404 76 763 76 1108 l0 202 -1510 0 -1510 0 0 -135z"/>
</g>
</g>
<g transform="translate(0.000000,455.000000) scale(0.100000,-0.100000)"
fill="url(#grad_15)" stroke="none">
<g>
<path d="M3080 2475 c0 -13 29 -15 205 -15 176 0 205 2 205 15 0 13 -29 15
-205 15 -176 0 -205 -2 -205 -15z"/>
</g>
</g>
<g transform="translate(0.000000,455.000000) scale(0.100000,-0.100000)"
fill="url(#grad_16)" stroke="none">
<g>
<path d="M4318 2695 c-32 -25 -58 -49 -58 -53 0 -4 -15 -23 -33 -43 -94 -103
-126 -295 -64 -388 l27 -41 68 0 c57 1 73 5 107 28 107 74 161 262 117 408
-20 67 -68 134 -96 134 -6 0 -37 -20 -68 -45z"/>
</g>
</g>
<g transform="translate(0.000000,455.000000) scale(0.100000,-0.100000)"
fill="url(#grad_17)" stroke="none">
<g>
<path d="M2650 2803 c-1 -65 -106 -1493 -111 -1497 -2 -2 -102 12 -222 31
-194 31 -242 35 -226 18 8 -8 460 -78 466 -72 3 3 27 324 53 714 27 389 51
738 54 776 4 42 2 67 -4 67 -5 0 -10 -17 -10 -37z"/>
</g>
</g>
<g transform="translate(0.000000,455.000000) scale(0.100000,-0.100000)"
fill="url(#grad_18)" stroke="none">
<g>
<path d="M3080 2565 c0 -13 29 -15 205 -15 176 0 205 2 205 15 0 13 -29 15
-205 15 -176 0 -205 -2 -205 -15z"/>
</g>
</g>
<g transform="translate(0.000000,455.000000) scale(0.100000,-0.100000)"
fill="url(#grad_19)" stroke="none">
<g>
<path d="M4105 2795 c-98 -59 -153 -161 -162 -301 -11 -167 60 -299 175 -323
110 -23 247 -10 322 31 83 45 173 148 196 225 28 94 8 244 -41 309 -14 18 -41
42 -62 55 -34 21 -49 23 -212 26 -171 2 -177 2 -216 -22z m408 -39 c72 -31
107 -104 107 -227 0 -54 -6 -95 -20 -132 -50 -134 -192 -227 -346 -227 -63 0
-64 0 -91 41 -31 48 -40 117 -25 200 12 62 47 144 72 169 9 9 28 32 44 53 48
63 160 135 214 137 7 0 27 -6 45 -14z"/>
</g>
</g>
<g transform="translate(0.000000,455.000000) scale(0.100000,-0.100000)"
fill="url(#grad_20)" stroke="none">
<g>
<path d="M2812 1103 c-119 -81 -152 -142 -152 -283 0 -92 19 -162 63 -226 43
-65 88 -94 144 -94 55 0 89 17 136 69 75 83 113 196 105 315 -6 89 -30 138
-99 200 -47 42 -55 46 -104 46 -40 0 -61 -6 -93 -27z"/>
</g>
</g>
<g transform="translate(0.000000,455.000000) scale(0.100000,-0.100000)"
fill="url(#grad_21)" stroke="none">
<g>
<path d="M2853 936 c-35 -32 -37 -38 -41 -103 -3 -56 0 -78 17 -111 37 -72 94
-83 145 -28 127 134 12 364 -121 242z m106 -11 c43 -56 34 -144 -20 -189 -37
-32 -51 -32 -84 -3 -46 40 -46 141 0 191 32 35 76 35 104 1z"/>
</g>
</g>
<g transform="translate(0.000000,455.000000) scale(0.100000,-0.100000)"
fill="url(#grad_22)" stroke="none">
<g>
<path d="M4161 932 c-5 -20 -13 -54 -17 -74 -6 -35 -4 -38 17 -37 19 0 31 14
57 66 17 37 31 67 30 68 -2 1 -20 5 -40 8 -36 6 -38 5 -47 -31z"/>
</g>
</g>
<g transform="translate(0.000000,455.000000) scale(0.100000,-0.100000)"
fill="url(#grad_23)" stroke="none">
<g>
<path d="M2823 1165 c-53 -27 -133 -106 -133 -131 0 -22 24 -16 51 12 51 55
109 84 166 84 53 0 54 1 51 28 -3 24 -8 27 -43 30 -28 2 -56 -5 -92 -23z"/>
</g>
</g>
<g transform="translate(0.000000,455.000000) scale(0.100000,-0.100000)"
fill="url(#grad_24)" stroke="none">
<g>
<path d="M3880 2658 c0 -450 -44 -967 -127 -1476 -14 -89 -24 -165 -21 -167 2
-3 85 -12 184 -21 98 -9 350 -40 559 -69 209 -30 381 -53 382 -51 9 8 313
1072 309 1081 -2 7 -23 15 -46 18 -56 7 -103 54 -131 126 -30 79 -23 225 14
297 28 54 74 102 113 119 21 9 -9 19 -223 78 -136 37 -251 68 -254 67 -4 0 -3
-17 2 -37 13 -57 11 -144 -5 -196 -15 -50 -99 -163 -143 -193 -82 -55 -145
-74 -245 -74 -124 0 -176 15 -225 66 -113 116 -109 375 7 507 22 24 53 50 71
57 31 13 30 14 -87 47 -66 18 -122 33 -126 33 -5 0 -8 -96 -8 -212z"/>
</g>
<g>
<path d="M4421 2759 l-33 -10 36 -37 c69 -69 93 -215 57 -342 -17 -57 -73
-142 -111 -168 l-35 -24 30 8 c54 13 108 45 160 98 68 68 95 138 95 245 0 123
-35 196 -107 227 -37 16 -45 16 -92 3z"/>
</g>
</g>
<g transform="translate(0.000000,455.000000) scale(0.100000,-0.100000)"
fill="url(#grad_25)" stroke="none">
<g>
<path d="M4131 1958 c-15 -46 -172 -701 -168 -704 1 -1 211 -31 465 -65 355
-49 465 -61 471 -51 4 6 38 139 75 294 37 156 74 301 82 322 8 21 11 43 7 47
-11 11 -169 52 -343 89 -141 30 -536 100 -564 100 -8 0 -19 -15 -25 -32z m417
-134 c224 -42 424 -78 446 -81 l38 -6 -6 -41 c-4 -23 -10 -44 -15 -49 -4 -4
-41 8 -82 27 -181 83 -384 125 -650 133 l-176 6 10 43 c6 24 15 44 20 44 5 0
192 -34 415 -76z m-5 -175 c243 -44 443 -82 445 -84 7 -7 -11 -75 -20 -75 -5
0 -21 6 -37 14 -44 23 -198 73 -292 96 -125 29 -275 49 -432 57 -134 6 -138 7
-133 27 3 12 6 27 6 34 0 6 5 12 10 12 6 0 209 -36 453 -81z m-45 -153 c244
-46 446 -86 448 -89 10 -10 -8 -78 -20 -73 -79 36 -200 80 -276 99 -165 43
-413 77 -556 77 l-64 0 6 28 c6 26 13 42 17 42 1 0 201 -38 445 -84z"/>
</g>
</g>
<g transform="translate(0.000000,455.000000) scale(0.100000,-0.100000)"
fill="url(#grad_26)" stroke="none">
<g>
<path d="M4047 1573 c-2 -5 -7 -20 -11 -35 l-6 -28 64 0 c143 0 391 -34 556
-77 76 -19 197 -63 276 -99 12 -5 30 63 20 73 -3 3 -869 171 -893 173 -1 0 -4
-3 -6 -7z"/>
</g>
</g>
<g transform="translate(0.000000,455.000000) scale(0.100000,-0.100000)"
fill="url(#grad_27)" stroke="none">
<g>
<path d="M3156 1469 c-53 -9 -147 -52 -172 -81 -14 -14 -14 -18 -3 -19 180 -8
247 -18 312 -48 83 -38 116 -67 175 -151 26 -36 50 -66 54 -68 5 -2 8 -12 8
-22 0 -12 10 -20 32 -24 17 -3 33 -4 35 -2 2 2 -3 35 -11 73 -49 235 -226 376
-430 342z"/>
</g>
</g>
<g transform="translate(0.000000,455.000000) scale(0.100000,-0.100000)"
fill="url(#grad_28)" stroke="none">
<g>
<path d="M4927 1103 c-2 -4 -19 -59 -37 -121 -32 -110 -33 -113 -59 -108 -14
3 -141 21 -281 41 -140 19 -264 37 -275 40 -17 3 -27 -7 -53 -54 -35 -65 -39
-86 -17 -95 8 -3 15 -14 15 -25 0 -14 9 -21 33 -26 63 -13 68 -16 65 -38 -3
-19 -10 -22 -53 -23 -63 -1 -120 -26 -129 -56 -11 -42 -6 -202 9 -273 20 -96
85 -225 135 -268 67 -57 138 -79 272 -85 113 -4 120 -3 175 23 76 37 206 167
262 262 24 40 61 123 83 185 38 107 40 120 41 238 2 95 -2 139 -16 185 -20 65
-91 181 -116 188 -9 3 -23 8 -32 12 -10 3 -19 3 -22 -2z"/>
</g>
</g>
<g transform="translate(0.000000,455.000000) scale(0.100000,-0.100000)"
fill="url(#grad_29)" stroke="none">
<g>
<path d="M4080 1718 c0 -7 -3 -22 -6 -34 -5 -20 -1 -21 133 -27 157 -8 307
-28 432 -57 94 -23 248 -73 292 -96 16 -8 32 -14 37 -14 9 0 27 68 20 75 -3 4
-882 165 -898 165 -5 0 -10 -6 -10 -12z"/>
</g>
</g>
<g transform="translate(0.000000,455.000000) scale(0.100000,-0.100000)"
fill="url(#grad_30)" stroke="none">
<g>
<path d="M4113 1856 l-10 -43 176 -6 c266 -8 469 -50 650 -133 41 -19 78 -31
82 -27 5 5 11 26 15 49 l6 41 -38 6 c-22 3 -222 39 -446 81 -223 42 -410 76
-415 76 -5 0 -14 -20 -20 -44z"/>
</g>
</g>
<g transform="translate(0.000000,455.000000) scale(0.100000,-0.100000)"
fill="url(#grad_31)" stroke="none">
<g>
<path d="M2190 2640 l0 -50 160 0 160 0 0 50 0 50 -160 0 -160 0 0 -50z"/>
</g>
</g>
<g transform="translate(0.000000,455.000000) scale(0.100000,-0.100000)"
fill="url(#grad_32)" stroke="none">
<g>
<path d="M5110 2513 c-29 -11 -82 -69 -107 -117 -37 -72 -44 -218 -14 -297 41
-109 118 -147 277 -137 89 6 146 32 218 102 65 63 76 96 76 221 -1 154 -38
205 -165 224 -77 11 -258 14 -285 4z m378 -65 c35 -30 55 -92 55 -173 -1 -101
-17 -140 -92 -215 -46 -47 -68 -62 -115 -75 -112 -33 -190 -5 -202 73 -16 102
24 222 105 320 72 87 189 120 249 70z"/>
</g>
</g>
<g transform="translate(0.000000,455.000000) scale(0.100000,-0.100000)"
fill="url(#grad_33)" stroke="none">
<g>
<path d="M620 2564 c-73 -20 -194 -81 -239 -122 -20 -18 -47 -43 -61 -56 -80
-73 -210 -250 -210 -286 0 -8 15 10 33 40 61 100 87 134 160 209 151 154 297
221 482 221 201 -1 361 -106 494 -328 215 -358 177 -921 -90 -1326 -108 -163
-262 -295 -395 -336 -45 -14 -94 -20 -154 -20 -81 0 -93 3 -160 37 -89 44
-194 144 -268 255 -29 42 -52 82 -52 88 0 5 -4 10 -8 10 -9 0 -21 29 -72 175
-22 61 -39 101 -39 90 -1 -28 60 -200 90 -255 50 -93 107 -178 153 -230 74
-83 225 -180 281 -180 11 0 49 -9 84 -20 164 -52 500 -91 604 -70 261 50 511
260 650 545 45 94 94 250 113 364 24 150 15 371 -20 500 -28 100 -82 218 -137
298 -86 124 -220 237 -329 275 -300 107 -744 166 -910 122z"/>
</g>
</g>
<g transform="translate(0.000000,455.000000) scale(0.100000,-0.100000)"
fill="url(#grad_34)" stroke="none">
<g>
<path d="M1550 1173 l-245 -87 -45 -80 c-25 -44 -71 -115 -102 -158 l-57 -77
46 20 c89 38 538 218 552 221 8 2 22 -21 37 -62 14 -36 29 -76 34 -89 l11 -23
27 35 c15 19 36 53 46 75 18 40 18 42 -9 159 -33 147 -35 153 -43 153 -4 -1
-117 -40 -252 -87z"/>
</g>
</g>
<g transform="translate(0.000000,455.000000) scale(0.100000,-0.100000)"
fill="url(#grad_35)" stroke="none">
<g>
<path d="M3322 603 c-92 -36 -94 -37 -122 -92 -16 -31 -39 -71 -51 -88 -11
-18 -19 -33 -16 -33 2 0 52 23 111 50 59 28 113 50 120 50 7 0 19 -21 27 -47
l15 -47 23 40 c20 33 22 48 17 97 -7 69 -16 107 -25 106 -3 0 -48 -16 -99 -36z"/>
</g>
</g>
<g transform="translate(0.000000,455.000000) scale(0.100000,-0.100000)"
fill="url(#grad_36)" stroke="none">
<g>
<path d="M3080 2375 c0 -13 29 -15 205 -15 176 0 205 2 205 15 0 13 -29 15
-205 15 -176 0 -205 -2 -205 -15z"/>
</g>
</g>
<g transform="translate(0.000000,455.000000) scale(0.100000,-0.100000)"
fill="url(#grad_37)" stroke="none">
<g>
<path d="M1180 2647 c-41 -13 -100 -36 -130 -52 l-55 -28 110 -18 c61 -10 151
-29 202 -42 69 -17 94 -20 97 -11 6 16 50 5 153 -39 83 -35 174 -100 247 -176
75 -77 164 -245 210 -396 16 -49 35 -112 43 -139 13 -41 15 -88 11 -265 -6
-227 0 -243 28 -72 27 166 22 541 -7 541 -5 0 -9 9 -9 19 0 38 -62 207 -105
288 -101 191 -232 314 -403 380 -56 22 -87 27 -192 30 -109 3 -135 0 -200 -20z"/>
</g>
</g>
<g transform="translate(0.000000,455.000000) scale(0.100000,-0.100000)"
fill="url(#grad_38)" stroke="none">
<g>
<path d="M1612 1950 l-182 -119 0 -110 c0 -63 4 -112 10 -116 6 -3 96 40 201
96 104 56 191 100 193 98 2 -2 41 -77 87 -167 94 -183 97 -184 98 -35 1 90 0
94 -42 175 -85 164 -162 298 -172 298 -6 0 -92 -54 -193 -120z"/>
</g>
</g>
<g transform="translate(0.000000,455.000000) scale(0.100000,-0.100000)"
fill="url(#grad_39)" stroke="none">
<g>
<path d="M633 2555 c-117 -32 -225 -100 -330 -206 -128 -131 -211 -280 -265
-479 -21 -77 -23 -106 -23 -305 1 -244 10 -300 82 -489 19 -50 37 -99 40 -108
3 -10 9 -18 14 -18 5 0 9 -5 9 -10 0 -6 23 -46 52 -88 74 -111 179 -211 268
-255 67 -34 79 -37 160 -37 114 0 197 25 293 90 331 221 542 766 473 1217 -50
331 -232 597 -464 679 -79 28 -223 32 -309 9z"/>
</g>
</g>
<g transform="translate(0.000000,455.000000) scale(0.100000,-0.100000)"
fill="url(#grad_40)" stroke="none">
<g>
<path d="M726 2159 c-63 -10 -105 -27 -136 -54 -14 -11 -41 -31 -60 -44 -39
-26 -109 -121 -139 -192 -101 -230 -43 -560 130 -739 63 -65 120 -93 191 -93
160 0 323 167 400 413 20 65 23 95 23 225 -1 147 -1 151 -32 217 -58 124 -143
220 -225 257 -49 22 -73 24 -152 10z"/>
</g>
</g>
<g transform="translate(0.000000,455.000000) scale(0.100000,-0.100000)"
fill="url(#grad_41)" stroke="none">
<g>
<path d="M713 1837 c-24 -17 -55 -50 -70 -72 -25 -37 -27 -47 -28 -150 0 -95
3 -117 24 -162 26 -58 86 -119 127 -129 44 -11 113 25 154 79 52 68 74 137 75
228 0 65 -5 84 -30 135 -40 77 -80 104 -154 104 -47 0 -62 -5 -98 -33z m168
-14 c46 -39 69 -96 69 -173 0 -81 -11 -122 -50 -183 -74 -117 -179 -115 -245
4 -27 49 -30 62 -29 144 0 75 4 97 24 134 52 97 162 132 231 74z"/>
</g>
</g>
<g transform="translate(0.000000,455.000000) scale(0.100000,-0.100000)"
fill="url(#grad_42)" stroke="none">
<g>
<path d="M860 2212 c0 -36 3 -41 38 -57 68 -32 149 -123 199 -225 29 -58 30
-25 3 49 -28 72 -57 129 -86 168 -27 35 -95 86 -131 97 -21 7 -23 4 -23 -32z"/>
</g>
</g>
<g transform="translate(0.000000,455.000000) scale(0.100000,-0.100000)"
fill="url(#grad_43)" stroke="none">
<g>
<path d="M622 2521 c-154 -45 -306 -151 -353 -247 -38 -80 -6 -182 82 -257
l41 -35 52 61 c114 135 241 207 363 207 l62 0 7 46 c9 60 -1 176 -18 211 -13
27 -17 28 -93 30 -53 1 -101 -4 -143 -16z"/>
</g>
</g>
<g transform="translate(0.000000,455.000000) scale(0.100000,-0.100000)"
fill="url(#grad_44)" stroke="none">
<g>
<path d="M3185 1336 c130 -36 155 -48 212 -109 81 -86 143 -230 143 -335 l0
-41 53 -5 c28 -3 119 -12 202 -21 149 -15 150 -15 165 6 13 17 23 19 52 14
l35 -7 13 67 c7 36 11 67 9 69 -2 2 -78 11 -168 20 -102 11 -168 22 -176 30
-8 7 -42 16 -77 20 -102 12 -118 17 -118 36 0 10 -3 20 -8 22 -4 2 -28 32 -54
68 -25 36 -60 77 -76 92 -52 46 -159 89 -232 94 l-65 5 90 -25z"/>
</g>
</g>
<g transform="translate(0.000000,455.000000) scale(0.100000,-0.100000)"
fill="url(#grad_45)" stroke="none">
<g>
<path d="M2792 1330 c-115 -41 -182 -105 -182 -173 0 -43 22 -86 55 -111 17
-12 22 -10 47 25 54 74 146 125 214 117 l34 -4 0 64 c0 88 -9 102 -68 102 -26
-1 -71 -9 -100 -20z"/>
</g>
</g>
</svg>
