<?xml version="1.0" encoding="utf-8"?>
<!-- Generator: Adobe Illustrator 26.5.0, SVG Export Plug-In . SVG Version: 6.00 Build 0)  -->
<svg version="1.1" id="图层_1" xmlns="http://www.w3.org/2000/svg" xmlns:xlink="http://www.w3.org/1999/xlink" x="0px" y="0px"
	 viewBox="0 0 800 737.1" style="enable-background:new 0 0 800 737.1;" xml:space="preserve">
<style type="text/css">
	.st0{fill:none;}
	.st1{fill:#D3D3D3;}
	.st2{fill:url(#SVGID_00000115498963139924565750000015836403817891737479_);}
	.st3{fill:url(#SVGID_00000025426432497123364300000012905162926618331800_);}
	.st4{fill:url(#SVGID_00000183240479696136544240000014964798090310828430_);}
	.st5{fill:url(#SVGID_00000085215535784111449800000003669846493476479162_);}
	.st6{fill:url(#SVGID_00000163044096152199284310000011244415552262698904_);}
	.st7{fill:url(#SVGID_00000145772471803253911080000000443348393079993752_);}
	.st8{fill:url(#SVGID_00000104668238559047993260000013622394024052425386_);}
	.st9{fill:url(#SVGID_00000007393166950939791390000012184204189267882419_);}
	.st10{fill:url(#SVGID_00000078745744623449797520000015774346396690691502_);}
	.st11{fill:url(#SVGID_00000094590043507220314030000001564529231602901129_);}
	.st12{fill:url(#SVGID_00000104678270190244186980000008940639263696137356_);}
	.st13{fill:url(#SVGID_00000092436091957146138150000014149070706595529404_);}
	.st14{fill:url(#SVGID_00000119094432962675952200000002107544446819813029_);}
	.st15{fill:url(#SVGID_00000080194338945111888960000003408073546935903423_);}
	.st16{fill:url(#SVGID_00000144328249678001568970000016063376874361843853_);}
	.st17{fill:url(#SVGID_00000003082562738774395080000001058458672672738977_);}
	.st18{fill:url(#SVGID_00000076561607750133487960000006062205681764228742_);}
	.st19{fill:url(#SVGID_00000070839252176059644960000010616856683204677047_);}
	.st20{fill:url(#SVGID_00000000924320326709724700000000055496186865324676_);}
	.st21{fill:url(#SVGID_00000153692208286935783670000003470809871277843885_);}
	.st22{fill:url(#SVGID_00000133502589789464675170000013569070923545368226_);}
	.st23{fill:url(#SVGID_00000038382730199547750130000006168059327214435227_);}
	.st24{fill:url(#SVGID_00000172421107768269092820000004788206497158895019_);}
	.st25{fill:url(#SVGID_00000145751713482908373400000006203715011575434933_);}
	.st26{fill:url(#SVGID_00000112591247667692786220000007785962050953407391_);}
	.st27{fill:url(#SVGID_00000119099993963877151730000015572432657415055523_);}
	.st28{fill:url(#SVGID_00000016755162070492215320000004039040166114675074_);}
	.st29{fill:url(#SVGID_00000057861250387121561310000000222401289328522625_);}
	.st30{fill:url(#SVGID_00000077290477029745929770000012746650543912696200_);}
	.st31{fill:url(#SVGID_00000159442474650379648230000006053101006319646099_);}
	.st32{fill:url(#SVGID_00000145045878983218504810000017382258370747801740_);}
	.st33{fill:url(#SVGID_00000090997512841835676020000004267057951671883154_);}
	.st34{fill:url(#SVGID_00000018238409730312503100000006953424023559738544_);}
	.st35{fill:url(#SVGID_00000011002698343996470470000015114899273252011962_);}
	.st36{fill:url(#SVGID_00000032616767931237075400000000706171368005873053_);stroke:#000000;stroke-miterlimit:10;}
	.st37{fill:url(#SVGID_00000134928802947097460430000009131911755261338755_);}
	.st38{fill:url(#SVGID_00000145760177494889443100000012945041346491900033_);}
	.st39{fill:url(#SVGID_00000052788991446924347280000000964055462896862396_);}
	.st40{fill:url(#SVGID_00000021814222887447049360000010452712997845855370_);}
	.st41{fill:url(#SVGID_00000167366504863013969830000013046638416951097001_);}
	.st42{fill:url(#SVGID_00000006681999168406610420000002014509967069692840_);stroke:#000000;stroke-miterlimit:10;}
	.st43{fill:url(#SVGID_00000148653009947376184350000012762515676801965461_);}
	.st44{fill:url(#SVGID_00000178889428078926943250000003195442401795322522_);}
	.st45{fill:url(#SVGID_00000144319798977382227960000002865054347239182010_);}
	.st46{fill:url(#SVGID_00000124149060439768425740000017705178275305109137_);}
	.st47{fill:url(#SVGID_00000160178265179376540320000001166653487536812722_);stroke:#000000;stroke-miterlimit:10;}
	.st48{fill:url(#SVGID_00000008866457562402391450000010973972049625514677_);}
	.st49{fill:url(#SVGID_00000084526985961796859040000013648286426631330996_);}
	.st50{fill:url(#SVGID_00000116949859992265822870000000076752870509049748_);}
	.st51{fill:url(#SVGID_00000059268252009510583120000011651006223827707037_);}
	.st52{fill:url(#SVGID_00000009590356659014283740000002412553509401957279_);}
	.st53{fill:url(#SVGID_00000054959188751423210160000011312695504497322156_);stroke:#000000;stroke-miterlimit:10;}
	.st54{fill:url(#SVGID_00000168086164805706243660000007101736492386332590_);}
	.st55{fill:url(#SVGID_00000097462636607793677260000006831828338537477279_);stroke:#000000;stroke-miterlimit:10;}
	.st56{fill:url(#SVGID_00000009550732165108931320000015452957895001205914_);}
	.st57{fill:url(#SVGID_00000008852553946936094220000002340373399695716794_);}
	.st58{fill:url(#SVGID_00000046333335766732692840000016927193819107129989_);}
	.st59{fill:url(#SVGID_00000106115284292570542920000001793268873793774762_);stroke:#000000;stroke-miterlimit:10;}
	.st60{fill:url(#SVGID_00000183952629203466248650000017845591815021485451_);stroke:#000000;stroke-miterlimit:10;}
	.st61{fill:url(#SVGID_00000140727938480851482020000000713990980629516163_);stroke:#000000;stroke-miterlimit:10;}
	.st62{fill:url(#SVGID_00000138565547323901034120000003817908722832726199_);}
	.st63{fill:none;stroke:#000000;stroke-miterlimit:10;}
</style>
<pattern  y="800" width="40" height="40" patternUnits="userSpaceOnUse" id="SVGID_1_" viewBox="0 -40 40 40" style="overflow:visible;">
	<g>
		<rect y="-40" class="st0" width="40" height="40"/>
		<g>
			<rect y="-40" class="st0" width="40" height="40"/>
			<rect y="-40" class="st0" width="40" height="40"/>
			<rect y="-20" class="st1" width="20" height="20"/>
			<rect x="20" y="-40" class="st1" width="20" height="20"/>
		</g>
	</g>
</pattern>
<pattern  id="SVGID_00000071536062305351720860000004545795396145045682_" xlink:href="#SVGID_1_" patternTransform="matrix(1 0 0 -1 29 -16248.8096)">
</pattern>
<rect y="0.9" style="fill:url(#SVGID_00000071536062305351720860000004545795396145045682_);" width="799.6" height="736.2"/>
<g transform="translate(0.000000,300.000000) scale(0.100000,-0.100000)">
	<g>
		
			<linearGradient id="SVGID_00000080903427462120797510000014827445264805450660_" gradientUnits="userSpaceOnUse" x1="-5338.5005" y1="-56589.4688" x2="-5337.7002" y2="-56589.4688" gradientTransform="matrix(50 0 0 30 268920 1696680)">
			<stop  offset="0" style="stop-color:#FEFBBE"/>
			<stop  offset="1" style="stop-color:#FEFBBE"/>
		</linearGradient>
		<path style="fill:url(#SVGID_00000080903427462120797510000014827445264805450660_);" d="M1995-1004v-1200.8h2001.4h2001.4V-1004
			V196.8H3996.4H1995V-1004z"/>
	</g>
</g>
<g transform="translate(0.000000,300.000000) scale(0.100000,-0.100000)">
	<g>
		
			<linearGradient id="SVGID_00000075126392548861148080000000695096502193273772_" gradientUnits="userSpaceOnUse" x1="-4811.4243" y1="-57419.543" x2="-4810.6235" y2="-57419.543" gradientTransform="matrix(10.6932 0 0 4.1266 54724.2969 236247.6094)">
			<stop  offset="0" style="stop-color:#AAA465"/>
			<stop  offset="1" style="stop-color:#AAA465"/>
		</linearGradient>
		<path style="fill:url(#SVGID_00000075126392548861148080000000695096502193273772_);" d="M3854.7-542.9
			c-132.9-25.6-201.7-59.2-414.7-203.3c-185.7-124.9-168.1-112.1-161.7-119.3c3.2-2.4,64.8,35.2,137.7,84.1
			c284.2,192.1,481.1,253,692.5,213c42.4-8,19.2,8.8-27.2,20C4018.8-533.3,3917.9-530.9,3854.7-542.9z"/>
	</g>
</g>
<g transform="translate(0.000000,300.000000) scale(0.100000,-0.100000)">
	<g>
		
			<linearGradient id="SVGID_00000099633514878299759490000009609394879339012029_" gradientUnits="userSpaceOnUse" x1="-3957.5378" y1="-58553.7891" x2="-3956.7371" y2="-58553.7891" gradientTransform="matrix(4.6666 0 0 1.8976 22163.4492 110462.8203)">
			<stop  offset="0" style="stop-color:#AAA465"/>
			<stop  offset="1" style="stop-color:#AAA465"/>
		</linearGradient>
		<path style="fill:url(#SVGID_00000099633514878299759490000009609394879339012029_);" d="M3943.5-591.7
			c-31.2-10.4-77.6-28.8-104.1-40c-53.6-23.2-149.7-84.1-144.1-90.5c2.4-2.4,41.6,14.4,86.5,36.8c45.6,22.4,127.3,56,182.5,74.5
			c55.2,18.4,101.7,34.4,103.3,36C4079.6-563.7,3990-575.7,3943.5-591.7z"/>
	</g>
</g>
<g transform="translate(0.000000,300.000000) scale(0.100000,-0.100000)">
	<g>
		
			<linearGradient id="SVGID_00000060010719391616804190000004320444269336638092_" gradientUnits="userSpaceOnUse" x1="-3324.876" y1="-58750.8125" x2="-3324.0754" y2="-58750.8125" gradientTransform="matrix(3.2111 0 0 1.7414 15170.5938 101726.5859)">
			<stop  offset="0" style="stop-color:#FFFFFF"/>
			<stop  offset="1" style="stop-color:#FFFFFF"/>
		</linearGradient>
		<path style="fill:url(#SVGID_00000060010719391616804190000004320444269336638092_);" d="M4709.7-521.3
			c-56.8-19.2-238.6-130.5-213-130.5c4,0,241.8,126.5,251.4,133.7C4759.3-509.3,4740.1-510.9,4709.7-521.3z"/>
	</g>
</g>
<g transform="translate(0.000000,300.000000) scale(0.100000,-0.100000)">
	<g>
		
			<linearGradient id="SVGID_00000154418068538200532470000005596276404916218041_" gradientUnits="userSpaceOnUse" x1="-5040.2153" y1="-56778.5195" x2="-5039.415" y2="-56778.5195" gradientTransform="matrix(16.7933 0 0 11.8959 86723.5234 674047.1875)">
			<stop  offset="0" style="stop-color:#AAA465"/>
			<stop  offset="1" style="stop-color:#AAA465"/>
		</linearGradient>
		<path style="fill:url(#SVGID_00000154418068538200532470000005596276404916218041_);" d="M3358.3-946.4
			c-63.2-44-381.9-284.2-481.1-362.7c-35.2-28-63.2-56-61.6-60.8c3.2-10.4-112.9-96.1-125.7-92.1c-15.2,4-144.1-72.8-315.4-187.3
			c-196.9-132.1-305.8-211.3-291.4-211.3c5.6,0,57.6,29.6,115.3,66.4c57.6,36.8,124.9,76.8,148.9,88.9
			c107.3,55.2,358.6,214.6,457.9,290.6c24.8,18.4,48.8,34.4,53.6,34.4c22.4,0,342.6,245.8,333,254.6c-5.6,6.4-63.2-34.4-201.7-140.9
			c-70.4-55.2-136.9-100.9-145.7-101.7c-9.6-0.8-16-0.8-14.4,0c99.3,72.8,582.8,439.5,590,448.3
			C3438.4-897.5,3415.2-908,3358.3-946.4z"/>
	</g>
</g>
<g transform="translate(0.000000,300.000000) scale(0.100000,-0.100000)">
	<g>
		
			<linearGradient id="SVGID_00000152227482126032513910000011064895676307168942_" gradientUnits="userSpaceOnUse" x1="-5109.0308" y1="-56972.7656" x2="-5108.2305" y2="-56972.7656" gradientTransform="matrix(19.3867 0 0 7.4036 101801.5781 420445.9688)">
			<stop  offset="0" style="stop-color:#AAA465"/>
			<stop  offset="1" style="stop-color:#AAA465"/>
		</linearGradient>
		<path style="fill:url(#SVGID_00000152227482126032513910000011064895676307168942_);" d="M4295.8-1066.5
			c-4-3.2-21.6-30.4-39.2-61.6c-45.6-84.1-141.7-176.1-228.2-217.8c-112.1-54.4-210.6-75.2-376.3-79.3l-140.1-3.2l72.1,24
			c53.6,18.4,91.3,24.8,148.1,27.2c171.3,7.2,365.8,79.3,442.7,164.1c34.4,38.4,72,101.7,68,114.5c-2.4,5.6-14.4-7.2-28.8-27.2
			c-74.5-108.1-224.2-192.1-401.9-225.8c-104.1-20-107.3-14.4-11.2,19.2c49.6,16.8,96.1,34.4,104.1,39.2
			c40.8,23.2-36.8,2.4-293-79.3c-151.3-48-276.2-86.5-277.8-84.9s24,14.4,57.6,28.8c32.8,14.4,60,29.6,60,33.6
			c0,4.8-6.4,5.6-13.6,2.4c-8-3.2-37.6-13.6-66.4-24c-99.3-35.2-610-229-615.6-233c-22.4-19.2,180.1,44,365.9,113.7
			c28,10.4,53.6,17.6,56.8,15.2c3.2-1.6,67.2,15.2,141.7,36.8l135.3,40l116.1-0.8c130.5-0.8,320.2,12,375.5,25.6
			c20,4.8,65.6,23.2,100.9,40.8c74.5,38.4,171.3,128.9,205.7,193.7c20,37.6,56.8,124.1,52,124.1
			C4305.4-1060.1,4300.6-1063.3,4295.8-1066.5z"/>
	</g>
	<g>
		
			<linearGradient id="SVGID_00000123406017511776953250000009373435184400069766_" gradientUnits="userSpaceOnUse" x1="-3983.564" y1="-58235.2695" x2="-3982.7637" y2="-58235.2695" gradientTransform="matrix(4.9621 0 0 2.0905 22162.8301 120046.2734)">
			<stop  offset="0" style="stop-color:#AAA465"/>
			<stop  offset="1" style="stop-color:#AAA465"/>
		</linearGradient>
		<path style="fill:url(#SVGID_00000123406017511776953250000009373435184400069766_);" d="M2702.7-1639.7
			c-39.2-14.4-123.3-48.8-186.5-76.8c-103.3-46.4-135.3-64-113.7-64c23.2,0,354.6,135.3,381.9,156.1
			C2809.1-1605.2,2782.7-1610.8,2702.7-1639.7z"/>
	</g>
</g>
<g transform="translate(0.000000,300.000000) scale(0.100000,-0.100000)">
	<g>
		
			<linearGradient id="SVGID_00000098919579116620797230000006758554462058352515_" gradientUnits="userSpaceOnUse" x1="-4155.9927" y1="-58636.9023" x2="-4155.1919" y2="-58636.9023" gradientTransform="matrix(5.3642 0 0 1.756 25970.8047 101712.6719)">
			<stop  offset="0" style="stop-color:#AAA465"/>
			<stop  offset="1" style="stop-color:#AAA465"/>
		</linearGradient>
		<path style="fill:url(#SVGID_00000098919579116620797230000006758554462058352515_);" d="M3972.4-1220.2
			c-148.1-51.2-212.9-72.1-228.2-72.1c-17.6,0-71.2-23.2-66.4-28.8c11.2-10.4,405.1,112.1,425.9,132.9
			C4118.9-1172.9,4081.2-1181.8,3972.4-1220.2z"/>
	</g>
</g>
<g transform="translate(0.000000,300.000000) scale(0.100000,-0.100000)">
	<g>
		
			<linearGradient id="SVGID_00000057131673707346326990000005698962788213454782_" gradientUnits="userSpaceOnUse" x1="-5188.5254" y1="-56726.9609" x2="-5187.7246" y2="-56726.9609" gradientTransform="matrix(24.8402 0 0 14.3799 131225.2656 814543.8125)">
			<stop  offset="0" style="stop-color:#DE2126"/>
			<stop  offset="1" style="stop-color:#DE2126"/>
		</linearGradient>
		<path style="fill:url(#SVGID_00000057131673707346326990000005698962788213454782_);" d="M3962.7-635.8
			c-38.4-12.8-108.9-42.4-156.1-65.7c-48-22.4-91.3-40.8-96.1-40c-16,3.2-56-20-154.5-88.9c-110.5-76.8-169.7-124.9-164.1-132.9
			c1.6-4-36-37.6-84.1-76.1c-86.5-68.8-115.3-102.5-59.2-69.7c53.6,32,19.2,2.4-85.7-72.1c-104.9-74.4-127.3-103.3-43.2-56
			c24,13.6,44,24,44,22.4s-125.7-84.9-280.2-186.5c-153.7-100.9-280.2-186.5-280.2-189.7c0-4,34.4,11.2,76.1,33.6
			c41.6,23.2,76.1,39.2,76.1,37.6c0-5.6-172.1-106.5-276.2-160.9c-106.5-56-141.7-76.8-137.7-80.9c4-4,146.5,48.8,401.9,148.9
			c226.6,88.9,417.1,160.1,425.9,160.1c4-0.8-16.8-12-45.6-25.6c-28.8-12.8-48-25.6-43.2-28c12-4,139.3,44,297.8,112.9
			c108.9,46.4,124.1,51.2,134.5,40.8c7.2-6.4,15.2-12,19.2-12c9.6,0,180.1,62.4,221.8,80.9c18.4,8,52.8,20,76.1,26.4
			c117.7,30.4,329.8,114.5,378.7,149.7c17.6,12,44.8,29.6,60,38.4c15.2,8,36.8,24.8,47.2,36c16,16.8,17.6,22.4,8.8,32.8
			s-16.8,5.6-60-35.2c-46.4-43.2-112.1-83.3-140.1-85.7c-6.4-0.8-29.6-9.6-52-19.2c-134.5-59.2-322.6-118.5-332.2-104.9
			c-2.4,3.2-79.3-18.4-172.1-48c-92.1-30.4-171.3-55.2-176.1-55.2c-4,0,0.8,8,12,16.8l20,16l-24-12c-32-15.2-116.1-36.8-116.1-29.6
			c0,3.2,12,12,26.4,19.2l25.6,12.8l-25.6-4.8c-27.2-4.8-33.6,3.2-16.8,20c8,8-154.5-49.6-227.4-81.7c-36.8-16-46.4-16-46.4-1.6
			c0,13.6,120.9,101.7,348.2,255.4c156.1,106.5,161.7,113.7,43.2,60.8c-73.6-32.8-95.3-37.6-95.3-20.8
			c0,9.6,198.5,144.1,254.6,172.9c15.2,8,16.8,12,8.8,21.6c-12,14.4-5.6,20,83.3,69.7c36,20.8,58.4,37.6,52,40
			c-14.4,6.4,24.8,38.4,74.4,61.6c21.6,10.4,36.8,20.8,35.2,24.8c-4.8,7.2,113.7,50.4,175.3,63.2c25.6,5.6,69.6,10.4,97.7,10.4
			c35.2,1.6,51.2,4.8,51.2,12C4148.5-601.3,4038.8-610.2,3962.7-635.8z"/>
	</g>
</g>
<g transform="translate(0.000000,300.000000) scale(0.100000,-0.100000)">
	<g>
		
			<linearGradient id="SVGID_00000179646509349675898900000004771864199025638060_" gradientUnits="userSpaceOnUse" x1="-3144.2815" y1="-57677.168" x2="-3143.481" y2="-57677.168" gradientTransform="matrix(2.9963 0 0 3.3195 13609.7422 191082.9844)">
			<stop  offset="0" style="stop-color:#F7FAFC"/>
			<stop  offset="1" style="stop-color:#F7FAFC"/>
		</linearGradient>
		<path style="fill:url(#SVGID_00000179646509349675898900000004771864199025638060_);" d="M4347.8-313.1
			c-81.7-84.9-159.3-180.1-159.3-195.3c0-13.6,175.3,159.3,213,209.8c27.2,36.8,33.6,55.2,20,55.2
			C4418.3-243.5,4384.6-274.7,4347.8-313.1z"/>
	</g>
</g>
<g transform="translate(0.000000,300.000000) scale(0.100000,-0.100000)">
	<g>
		
			<linearGradient id="SVGID_00000173878461946478817770000010947907730411801768_" gradientUnits="userSpaceOnUse" x1="-4315.1987" y1="-57353.043" x2="-4315.4629" y2="-57352.8906" gradientTransform="matrix(6.2877 0 0 4.579 31620.6484 262173.0938)">
			<stop  offset="0" style="stop-color:#00569B"/>
			<stop  offset="1" style="stop-color:#156FA9"/>
		</linearGradient>
		<path style="fill:url(#SVGID_00000173878461946478817770000010947907730411801768_);" d="M4448.7-224.3
			c-49.6-18.4-204.9-179.3-276.2-285c-54.4-81.7-43.2-87.3,81.7-37.6c68,26.4,88.1,38.4,112.9,67.2
			c32.8,37.6,155.3,139.3,232.2,191.3c24.8,17.6,45.6,34.4,45.6,37.6s-15.2,13.6-34.4,22.4C4569.6-208.3,4497.5-206.7,4448.7-224.3z
			 M4428.7-252.3c0-17.6-56.8-84.9-147.3-175.3c-51.2-50.4-92.9-86.5-92.9-80.9c0,15.2,77.6,110.5,159.3,195.3
			C4412.6-245.9,4428.7-233.9,4428.7-252.3z"/>
	</g>
</g>
<g transform="translate(0.000000,300.000000) scale(0.100000,-0.100000)">
	<g>
		
			<linearGradient id="SVGID_00000060016691200745248140000000975213516492321965_" gradientUnits="userSpaceOnUse" x1="-5075.4619" y1="-56766.6094" x2="-5074.6611" y2="-56766.6094" gradientTransform="matrix(16.98 0 0 13.08 90328.2031 742010.8125)">
			<stop  offset="0" style="stop-color:#A9ACAD"/>
			<stop  offset="1" style="stop-color:#A9ACAD"/>
		</linearGradient>
		<path style="fill:url(#SVGID_00000060016691200745248140000000975213516492321965_);" d="M5133.1-2.5
			c-110.5-39.2-228.2-96.1-355.5-172.1c-244.2-144.9-445.1-309.8-445.1-363.4c0-12.8-8-17.6-45.6-24c-25.6-4.8-67.2-16-93.7-25.6
			l-46.4-17.6l4-30.4c4.8-37.6,37.6-108.1,63.2-137.7l18.4-21.6l68,48c119.3,84.1,296.2,198.5,334.6,218.5
			c112.1,56.8,185.7,40.8,185.7-40c0-29.6-49.6-75.2-115.3-107.3c-47.2-22.4-281-101.7-389.1-131.3c-69.6-20-68.9-18.4-48.8-81.7
			c8.8-30.4,29.6-72,44.8-93.7l28-37.6l39.2,19.2c20.8,11.2,59.2,38.4,84.1,60.8c24.8,23.2,44.8,36.8,44.8,32
			c0-16.8,125.7-4,236.2,23.2c253,62.4,526.8,176.1,700.5,290.6l60.8,39.2l-29.6,31.2c-94.5,99.3-199.3,307.4-241.8,478.7
			l-17.6,72.1L5133.1-2.5z"/>
	</g>
</g>
<g transform="translate(0.000000,300.000000) scale(0.100000,-0.100000)">
	<g>
		
			<linearGradient id="SVGID_00000170261107513101235820000014639736360002414723_" gradientUnits="userSpaceOnUse" x1="-3580.2949" y1="-57566.0312" x2="-3579.4944" y2="-57566.0312" gradientTransform="matrix(3.5842 0 0 3.6433 17758.5645 209308.2969)">
			<stop  offset="0" style="stop-color:#E3AB2A"/>
			<stop  offset="1" style="stop-color:#E3AB2A"/>
		</linearGradient>
		<path style="fill:url(#SVGID_00000170261107513101235820000014639736360002414723_);" d="M4993.1-294.7
			c-48.8-29.6-70.5-74.4-66.5-136.9c2.4-38.4,8-56,24-77.6c28-36.8,72.9-57.6,122.5-56.8c49.6,0,84.1,17.6,113.7,55.2
			c31.2,41.6,35.2,120.9,8.8,167.3C5157.2-277.1,5061.1-253.9,4993.1-294.7z"/>
	</g>
</g>
<g transform="translate(0.000000,300.000000) scale(0.100000,-0.100000)">
	<g>
		
			<linearGradient id="SVGID_00000036949431597744318000000004561784098965766839_" gradientUnits="userSpaceOnUse" x1="-3020.3503" y1="-57943.9023" x2="-3019.7419" y2="-57943.2227" gradientTransform="matrix(2.7846 0 0 2.7701 13408.0186 160008.4375)">
			<stop  offset="0" style="stop-color:#040000"/>
			<stop  offset="1" style="stop-color:#186C90"/>
		</linearGradient>
		<path style="fill:url(#SVGID_00000036949431597744318000000004561784098965766839_);" d="M5013.9-322
			c-74.5-40.8-75.2-159.3-1.6-197.7c30.4-15.2,83.3-15.2,113.7,0c68,35.2,73.6,144.9,9.6,191.3
			C5105.1-305.9,5047.5-302.7,5013.9-322z"/>
	</g>
</g>
<g transform="translate(0.000000,300.000000) scale(0.100000,-0.100000)">
	<g>
		
			<linearGradient id="SVGID_00000039816106323865812600000014998495326496611229_" gradientUnits="userSpaceOnUse" x1="-4085.2581" y1="-62210.0469" x2="-4084.4575" y2="-62210.0469" gradientTransform="matrix(4.963 0 0 0.6746 24691.4668 40941.875)">
			<stop  offset="0" style="stop-color:#FFFFFF"/>
			<stop  offset="1" style="stop-color:#FFFFFF"/>
		</linearGradient>
		<path style="fill:url(#SVGID_00000039816106323865812600000014998495326496611229_);" d="M4584.8-1008
			c-30.4-6.4-68.9-14.4-84.1-19.2c-15.2-4.8-42.4-8.8-60-9.6c-29.6,0-30.4-0.8-12-8.8c43.2-17.6,336.2,13.6,383.5,41.6
			C4832.1-992,4648.8-996,4584.8-1008z"/>
	</g>
</g>
<g transform="translate(0.000000,300.000000) scale(0.100000,-0.100000)">
	<g>
		
			<linearGradient id="SVGID_00000085949717469243582480000011004968578143851180_" gradientUnits="userSpaceOnUse" x1="-4498.1846" y1="-57869.9141" x2="-4497.3843" y2="-57869.9141" gradientTransform="matrix(7.0412 0 0 2.7651 36041.4609 159067.7969)">
			<stop  offset="0" style="stop-color:#12376E"/>
			<stop  offset="1" style="stop-color:#12376E"/>
		</linearGradient>
		<path style="fill:url(#SVGID_00000085949717469243582480000011004968578143851180_);" d="M4873-848.7
			c-53.6-20-216.1-57.6-273.8-64c-48-4.8-64-11.2-142.5-58.4c-49.6-29.6-88.1-58.4-88.1-64.8c0-30.4,252.2-27.2,399.5,4
			c96.9,20.8,152.9,74.5,162.5,154.5C4936.2-830.3,4930.6-827.1,4873-848.7z M4812.1-1004c-47.2-28-340.2-59.2-383.5-41.6
			c-18.4,8-17.6,8.8,12,8.8c17.6,0.8,44.8,4.8,60,9.6c62.4,19.2,144.9,29.6,232.2,30.4C4792.1-996.8,4820.1-999.2,4812.1-1004z"/>
	</g>
</g>
<g transform="translate(0.000000,300.000000) scale(0.100000,-0.100000)">
	<g>
		
			<linearGradient id="SVGID_00000030451792825871579440000006907192129635173768_" gradientUnits="userSpaceOnUse" x1="-4119.2744" y1="-57933.7148" x2="-4118.4736" y2="-57933.7148" gradientTransform="matrix(5.094 0 0 2.7013 25356.7695 155877.6406)">
			<stop  offset="0" style="stop-color:#2485C0"/>
			<stop  offset="1" style="stop-color:#2485C0"/>
		</linearGradient>
		<path style="fill:url(#SVGID_00000030451792825871579440000006907192129635173768_);" d="M4652-538.9
			c-33.6-16.8-109.7-62.4-169.7-101.7c-152.1-99.3-148.1-104.9,29.6-43.2c199.3,68.8,269,108.1,269,148.9c0,20-21.6,35.2-31.2,21.6
			c-4.8-7.2-244.2-138.5-253-138.5c-24.8,0,154.5,110.5,213,131.3c19.2,6.4,28,12,19.2,12.8C4720.1-507.7,4684.8-521.3,4652-538.9z"
			/>
	</g>
</g>
<g transform="translate(0.000000,300.000000) scale(0.100000,-0.100000)">
	<g>
		
			<linearGradient id="SVGID_00000178923723725358162350000004672887726702800271_" gradientUnits="userSpaceOnUse" x1="-4502.7485" y1="-57465.2031" x2="-4501.9482" y2="-57465.2031" gradientTransform="matrix(7.1032 0 0 3.9516 36236.1016 226428)">
			<stop  offset="0" style="stop-color:#0B3870"/>
			<stop  offset="1" style="stop-color:#0B3870"/>
		</linearGradient>
		<path style="fill:url(#SVGID_00000178923723725358162350000004672887726702800271_);" d="M4692-503.7
			c-48.8-15.2-148.9-76.8-304.2-187.3c-118.5-84.1-144.1-106.5-133.7-117.7c6.4-5.6,221,48.8,316.2,80.9
			c113.7,37.6,180.1,70.5,218.5,107.3c35.2,33.6,40,57.6,20,96.1C4791.3-490.1,4756.9-484.5,4692-503.7z M4779.3-532.5
			c4.8-42.4-63.2-80.1-267.4-151.3c-177.7-61.6-181.7-56-29.6,43.2c152.1,98.5,222.5,133.7,262.6,131.3
			C4772.9-511.7,4776.9-514.1,4779.3-532.5z"/>
	</g>
</g>
<g transform="translate(0.000000,300.000000) scale(0.100000,-0.100000)">
	<g>
		
			<linearGradient id="SVGID_00000139286034031720942050000015063167554340819357_" gradientUnits="userSpaceOnUse" x1="-4630.7012" y1="-57021.2852" x2="-4629.9009" y2="-57021.2852" gradientTransform="matrix(7.8795 0 0 7.252 41710.2891 413259.9062)">
			<stop  offset="0" style="stop-color:#D02030"/>
			<stop  offset="1" style="stop-color:#D02030"/>
		</linearGradient>
		<path style="fill:url(#SVGID_00000139286034031720942050000015063167554340819357_);" d="M5238.8,31.9c-16.8-4-18.4-7.2-13.6-37.6
			c3.2-18.4,8-36,11.2-40c3.2-3.2,43.2-0.8,89.7,5.6c105.7,14.4,281.8,22.4,323.4,14.4c28.8-5.6,20.8-8-100.1-36.8
			c-72.9-16.8-167.3-41.6-209.8-55.2l-77.6-24l20-52c44-118.5,179.3-337,216.1-351.4c16-5.6,54.4,31.2,118.5,113.7
			c100.9,128.9,237,345.8,237,377.1c0,10.4-8,27.2-17.6,38.4c-16,17.6-30.4,22.4-110.5,32.8C5635.9,29.5,5277.2,39.9,5238.8,31.9z"
			/>
	</g>
</g>
<g transform="translate(0.000000,300.000000) scale(0.100000,-0.100000)">
	<g>
		
			<linearGradient id="SVGID_00000087377819039426178650000014970568410862954370_" gradientUnits="userSpaceOnUse" x1="-4956" y1="-56855.7617" x2="-4956.8325" y2="-56855.8555" gradientTransform="matrix(16.1183 0 0 9.6758 84189.6875 549158.3125)">
			<stop  offset="0" style="stop-color:#E4A433"/>
			<stop  offset="1" style="stop-color:#E39C34"/>
		</linearGradient>
		<path style="fill:url(#SVGID_00000087377819039426178650000014970568410862954370_);" d="M4068.4-632.6
			c-102.5-16-253-61.6-244.2-74.5c1.6-4-13.6-14.4-35.2-24.8c-49.6-23.2-88.9-55.2-74.4-61.6c6.4-2.4-16-19.2-52-40
			c-88.9-49.6-95.3-55.2-83.3-69.7c8-9.6,6.4-13.6-8.8-21.6c-56-28.8-254.6-163.3-254.6-172.9c0-16.8,21.6-12,95.3,20.8
			c118.5,52.8,112.9,45.6-43.2-60.8c-227.4-153.7-348.2-241.8-348.2-255.4c0-14.4,9.6-14.4,46.4,1.6c72.9,32,235.4,89.7,227.4,81.7
			c-16.8-16.8-10.4-24.8,16.8-20l25.6,4.8l-25.6-12.8c-14.4-7.2-26.4-16-26.4-19.2c0-7.2,84.1,14.4,116.1,29.6l24,12l-20-16
			c-11.2-8.8-16-16.8-12-16.8c4.8,0,84.1,24.8,176.1,55.2c92.9,29.6,169.7,51.2,172.1,48c9.6-13.6,197.7,45.6,332.2,104.9
			c22.4,9.6,45.6,18.4,52,19.2c28.8,2.4,93.7,42.4,140.9,86.5c44,41.6,49.6,49.6,41.6,62.4c-8.8,14.4-12,12.8-47.2-20
			c-60.8-56.8-231.4-132.9-297-132.1l-26.4,0.8l28,24c28,24.8,28,24.8,4,12.8c-35.2-16.8-291.4-100.1-321.8-103.3
			c-38.4-4.8-32,6.4,17.6,34.4c24,13.6,44,25.6,44,27.2c0,3.2-120.1-28.8-212.9-56.8c-79.3-23.2-101.7-24.8-97.7-5.6
			c3.2,16,148.9,123.3,238.6,175.3c68.1,40,68.9,44,3.2,15.2c-25.6-11.2-47.2-19.2-48.8-16.8c-4.8,4.8,68.9,67.2,133.7,112.9
			c69.6,48.8,145.7,88.9,208.1,108.9c60,19.2,21.6,19.2-60,0c-35.2-8.8-65.6-13.6-67.2-12c-12.8,12.8,129.7,82.5,184.9,89.7
			l42.4,5.6l-44,4l-44,4l46.4,18.4c32.8,12.8,63.2,17.6,105.7,17.6c60.8,0,69.6,4.8,47.2,27.2
			C4131.7-628.6,4112.4-626.2,4068.4-632.6z"/>
	</g>
</g>
<g transform="translate(0.000000,300.000000) scale(0.100000,-0.100000)">
	<g>
		
			<linearGradient id="SVGID_00000077282087731706865240000003631930455605504666_" gradientUnits="userSpaceOnUse" x1="-4213.8926" y1="-59358.2617" x2="-4213.0918" y2="-59358.2617" gradientTransform="matrix(5.3028 0 0 1.4196 27583.75 84189.9297)">
			<stop  offset="0" style="stop-color:#F09868"/>
			<stop  offset="1" style="stop-color:#F09868"/>
		</linearGradient>
		<path style="fill:url(#SVGID_00000077282087731706865240000003631930455605504666_);" d="M5437.4-28.1
			c-80.9-5.6-192.9-20.8-198.5-27.2c-4-3.2,15.2-70.4,23.2-78.4c2.4-4,39.2,4,80.1,16.8c41.6,12.8,134.5,37.6,207.3,54.4
			c119.3,28,128.1,31.2,100.1,36.8C5611.1-19.3,5548.6-19.3,5437.4-28.1z"/>
	</g>
</g>
<g transform="translate(0.000000,300.000000) scale(0.100000,-0.100000)">
	<g>
		
			<linearGradient id="SVGID_00000096781762151932204550000011365442314434090165_" gradientUnits="userSpaceOnUse" x1="-4927.9736" y1="-57042.6953" x2="-4927.1729" y2="-57042.6953" gradientTransform="matrix(12.8564 0 0 6.6952 66753.3047 380975.3125)">
			<stop  offset="0" style="stop-color:#FBE193"/>
			<stop  offset="1" style="stop-color:#FBE193"/>
		</linearGradient>
		<path style="fill:url(#SVGID_00000096781762151932204550000011365442314434090165_);" d="M3988.4-686.2l-44-17.6l44-4l44-4
			l-42.4-5.6c-55.2-7.2-197.7-76.8-184.9-89.7c1.6-1.6,32,3.2,67.2,12c81.7,19.2,120.1,19.2,60,0c-62.4-20-138.5-60-208.1-108.9
			c-64.8-45.6-138.5-108.1-133.7-112.9c1.6-2.4,23.2,5.6,48.8,16.8c65.6,28.8,64.8,24.8-3.2-15.2c-89.7-52-235.4-159.3-238.6-175.3
			c-4-19.2,18.4-17.6,97.7,5.6c92.9,28,212.9,60,212.9,56.8c0-1.6-20-13.6-44-27.2c-49.6-28-56-39.2-17.6-34.4
			c30.4,3.2,286.6,86.5,321.8,103.3c24,12,24,12-4-12.8l-28-24l26.4-0.8c65.6-0.8,248.2,80.9,300.2,134.5l29.6,30.4l-15.2,39.2
			c-8,22.4-17.6,51.2-20,64.8c-5.6,23.2-3.2,25.6,24.8,36.8c16.8,7.2,56.8,18.4,88.9,26.4c32,7.2,56.8,15.2,55.2,17.6
			c-2.4,1.6-40.8-6.4-85.7-17.6c-44.8-11.2-84.1-19.2-85.7-16.8c-10.4,9.6,8.8,30.4,64.8,68.8c33.6,23.2,60.8,43.2,60.8,45.6
			c0,4.8-23.2-9.6-89.7-56.8l-60.8-44l-21.6,28c-11.2,15.2-28,44-36.8,63.2l-16,36l-61.6-0.8C4050-668.6,4019.6-673.4,3988.4-686.2z
			"/>
	</g>
</g>
<g transform="translate(0.000000,300.000000) scale(0.100000,-0.100000)">
	<g>
		
			<linearGradient id="SVGID_00000170250964074683968510000018261886516306548159_" gradientUnits="userSpaceOnUse" x1="-4839.1875" y1="-57050.3633" x2="-4838.3872" y2="-57050.3633" gradientTransform="matrix(10.7177 0 0 6.8617 56267.3594 391125.6562)">
			<stop  offset="0" style="stop-color:#F9FDFF;stop-opacity:0.7346"/>
			<stop  offset="1" style="stop-color:#F9FDFF;stop-opacity:0.7346"/>
		</linearGradient>
		<path style="fill:url(#SVGID_00000170250964074683968510000018261886516306548159_);" d="M5177.2-73
			c-213-84.9-361-175.3-738.1-451.5c-40.8-30.4-40.8-30.4-32-59.2c5.6-20,12.8-28,20.8-25.6c7.2,1.6,99.3,56.8,204.9,123.3
			c105.7,65.6,231.4,142.5,279.4,169.7c96.9,56,323.4,168.9,339.4,168.9c12,0,12-3.2-2.4,46.4C5234.8-54.6,5229.2-52.2,5177.2-73z"
			/>
	</g>
</g>
<g transform="translate(0.000000,300.000000) scale(0.100000,-0.100000)">
	<g>
		
			<linearGradient id="SVGID_00000068670080521440155780000008460058958359378595_" gradientUnits="userSpaceOnUse" x1="-2537.1221" y1="-59754.0273" x2="-2536.3218" y2="-59754.0273" gradientTransform="matrix(2.3836 0 0 1.2091 10195.9648 71644.1094)">
			<stop  offset="0" style="stop-color:#000000;stop-opacity:0.5187"/>
			<stop  offset="1" style="stop-color:#000000;stop-opacity:0.5187"/>
		</linearGradient>
		<path style="fill:url(#SVGID_00000068670080521440155780000008460058958359378595_);" d="M4272.6-563.7c-17.6-4-52.8-14.4-77.6-24
			c-41.6-15.2-46.4-19.2-46.4-40c0-12.8,3.2-24.8,7.2-27.2s47.2,10.4,96.1,28.8c78.5,28.8,89.7,34.4,87.3,49.6
			C4336.6-557.3,4319.8-554.1,4272.6-563.7z"/>
	</g>
</g>
<g transform="translate(0.000000,300.000000) scale(0.100000,-0.100000)">
	<g>
		
			<linearGradient id="SVGID_00000062886168433599469550000005354216454791989641_" gradientUnits="userSpaceOnUse" x1="-2573.925" y1="-58459.7031" x2="-2573.1245" y2="-58459.7031" gradientTransform="matrix(2.4 0 0 1.95 10486 113054.4375)">
			<stop  offset="0" style="stop-color:#000000;stop-opacity:0.5694"/>
			<stop  offset="1" style="stop-color:#000000;stop-opacity:0.5694"/>
		</linearGradient>
		<path style="fill:url(#SVGID_00000062886168433599469550000005354216454791989641_);" d="M4465.5-867.1
			c-7.2-12-78.5-64-123.3-90.5l-33.6-20l16-20.8l16.8-21.6l38.4,19.2c36,18.4,120.9,88.9,120.9,99.3c0,3.2-7.2,14.4-15.2,24.8
			C4475.9-863.9,4469.5-860.7,4465.5-867.1z"/>
	</g>
</g>
<g transform="translate(0.000000,300.000000) scale(0.100000,-0.100000)">
	<g>
		
			<linearGradient id="SVGID_00000082327237105027122110000004549849570631754168_" gradientUnits="userSpaceOnUse" x1="-2966.0164" y1="-58056.8906" x2="-2965.2158" y2="-58056.8906" gradientTransform="matrix(2.7878 0 0 2.4803 12425.9736 143301.5469)">
			<stop  offset="0" style="stop-color:#000000;stop-opacity:0.4058"/>
			<stop  offset="1" style="stop-color:#000000;stop-opacity:0.4058"/>
		</linearGradient>
		<path style="fill:url(#SVGID_00000082327237105027122110000004549849570631754168_);" d="M4245.3-628.6
			c-46.4-16.8-84.9-32.8-87.3-34.4c-5.6-5.6,28-75.2,50.4-104.1l21.6-28l53.6,37.6c29.6,20.8,63.2,44.8,75.2,53.6l21.6,16
			l-17.6,46.4c-8.8,24.8-20.8,45.6-25.6,44.8C4332.6-596.5,4291-611,4245.3-628.6z"/>
	</g>
</g>
<g transform="translate(0.000000,300.000000) scale(0.100000,-0.100000)">
	<g>
		
			<linearGradient id="SVGID_00000133509639049073206890000014197420871159688341_" gradientUnits="userSpaceOnUse" x1="-3204.0186" y1="-57795.0938" x2="-3204.5469" y2="-57794.3711" gradientTransform="matrix(3.077 0 0 3.0892 14994.7617 178019.9531)">
			<stop  offset="0" style="stop-color:#FFFFFF;stop-opacity:0.6368"/>
			<stop  offset="1" style="stop-color:#FFFFFF;stop-opacity:0.6403"/>
		</linearGradient>
		<path style="fill:url(#SVGID_00000133509639049073206890000014197420871159688341_);" d="M4996.3-318
			c-39.2-25.6-56.8-64.9-52.8-114.5c5.6-74.4,59.2-120.9,133.7-113.7c69.6,7.2,112.1,55.2,112.1,128.1c0,68.9-52,118.5-124.9,118.5
			C5035.5-299.5,5015.5-304.3,4996.3-318z M5135.6-328.4c64-46.4,58.4-156.1-9.6-191.3c-30.4-15.2-83.3-15.2-113.7,0
			c-73.6,38.4-72.9,156.9,1.6,197.7C5047.5-302.7,5105.1-305.9,5135.6-328.4z"/>
	</g>
</g>
<g transform="translate(0.000000,300.000000) scale(0.100000,-0.100000)">
	<g>
		
			<linearGradient id="SVGID_00000093889644869937625780000001091844168496642456_" gradientUnits="userSpaceOnUse" x1="5813.9961" y1="-61533.0625" x2="5814.7969" y2="-61533.0625" gradientTransform="matrix(0.6045 0 0 0.7967 1458.5957 48653.1602)">
			<stop  offset="0" style="stop-color:#FFFFFF;stop-opacity:0.4465"/>
			<stop  offset="1" style="stop-color:#FFFFFF;stop-opacity:0.4465"/>
		</linearGradient>
		<path style="fill:url(#SVGID_00000093889644869937625780000001091844168496642456_);" d="M4989.9-360.4c-9.6-12-16.8-28-16.8-36
			c0-11.2,4.8-9.6,24,10.4c23.2,23.2,32,46.4,16.8,46.4C5009.9-339.6,4998.7-349.2,4989.9-360.4z"/>
	</g>
</g>
<g transform="translate(0.000000,300.000000) scale(0.100000,-0.100000)">
	<g>
		
			<linearGradient id="SVGID_00000134227492071038969040000017611218629636566689_" gradientUnits="userSpaceOnUse" x1="-1673.8126" y1="-58718.6602" x2="-1673.0121" y2="-58718.6602" gradientTransform="matrix(1.7868 0 0 1.7868 8020.9805 104526.3672)">
			<stop  offset="0" style="stop-color:#FFFFFF;stop-opacity:0.546"/>
			<stop  offset="1" style="stop-color:#FFFFFF;stop-opacity:0.546"/>
		</linearGradient>
		<path style="fill:url(#SVGID_00000134227492071038969040000017611218629636566689_);" d="M5030.7-337.2c1.6-9.6,12.8-16,34.4-19.2
			c17.6-2.4,40-9.6,50.4-15.2c20.8-13.6,41.6-53.6,41.6-81.7c0.8-16.8,0.8-17.6,8.8-3.2c16.8,27.2,3.2,78.5-28,106.5
			c-24.8,22.4-34.4,26.4-69.6,26.4C5033.9-323.5,5028.3-326,5030.7-337.2z"/>
	</g>
</g>
<g transform="translate(0.000000,300.000000) scale(0.100000,-0.100000)">
	<g>
		
			<linearGradient id="SVGID_00000134969463387321195750000008368786688427815810_" gradientUnits="userSpaceOnUse" x1="-2858.6233" y1="-58101.668" x2="-2857.8228" y2="-58101.668" gradientTransform="matrix(2.665 0 0 2.3854 11870.6855 137720.7344)">
			<stop  offset="0" style="stop-color:#000000;stop-opacity:0.4079"/>
			<stop  offset="1" style="stop-color:#000000;stop-opacity:0.4079"/>
		</linearGradient>
		<path style="fill:url(#SVGID_00000134969463387321195750000008368786688427815810_);" d="M4354.2-795.9
			c-65.6-17.6-101.7-32-101.7-40c0-16,33.6-109.7,44.8-124.1c12-16,12-16,45.6,3.2c47.2,27.2,117.7,80.1,122.5,92.1
			c4.8,12.8-35.2,84.9-47.2,84.1C4412.6-780.7,4383.8-787.9,4354.2-795.9z"/>
	</g>
</g>
<g id="图层_2_00000168803915805765775750000004658604314387957162_">
	<g>
		
			<linearGradient id="SVGID_00000088130496184377865630000002311676573044695428_" gradientUnits="userSpaceOnUse" x1="-556.867" y1="140.1153" x2="-556.0665" y2="140.1153" gradientTransform="matrix(500 0 0 -300 278442 42162)">
			<stop  offset="0" style="stop-color:#FEFBBE"/>
			<stop  offset="1" style="stop-color:#FEFBBE"/>
		</linearGradient>
		<path style="fill:url(#SVGID_00000088130496184377865630000002311676573044695428_);" d="M8.5,127.4v120.1h200.1h200.1V127.4V7.3
			H208.6H8.5V127.4z"/>
	</g>
	<g>
		
			<linearGradient id="SVGID_00000087400821069854759480000007547582116290802574_" gradientUnits="userSpaceOnUse" x1="-552.9443" y1="133.1825" x2="-552.1437" y2="133.1825" gradientTransform="matrix(106.9322 0 0 -41.2661 59270.0195 5771.9683)">
			<stop  offset="0" style="stop-color:#AAA465"/>
			<stop  offset="1" style="stop-color:#AAA465"/>
		</linearGradient>
		<path style="fill:url(#SVGID_00000087400821069854759480000007547582116290802574_);" d="M200.5,260.3
			c-13.3,2.6-20.2,5.9-41.5,20.3c-18.6,12.5-16.8,11.2-16.2,11.9c0.3,0.2,6.5-3.5,13.8-8.4c28.4-19.2,48.1-25.3,69.2-21.3
			c4.2,0.8,1.9-0.9-2.7-2C216.9,259.3,206.8,259.1,200.5,260.3z"/>
	</g>
	<g>
		
			<linearGradient id="SVGID_00000135664879637390635770000002816218988350323902_" gradientUnits="userSpaceOnUse" x1="-544.5826" y1="124.8849" x2="-543.782" y2="124.8849" gradientTransform="matrix(46.6662 0 0 -18.9756 25694.1094 2633.4128)">
			<stop  offset="0" style="stop-color:#AAA465"/>
			<stop  offset="1" style="stop-color:#AAA465"/>
		</linearGradient>
		<path style="fill:url(#SVGID_00000135664879637390635770000002816218988350323902_);" d="M305.4,258.2c-3.1,1-7.8,2.9-10.4,4
			c-5.4,2.3-15,8.4-14.4,9c0.2,0.2,4.2-1.4,8.6-3.7c4.6-2.2,12.7-5.6,18.2-7.5c5.5-1.8,10.2-3.4,10.3-3.6
			C319,255.4,310,256.6,305.4,258.2z"/>
	</g>
	<g>
		
			<linearGradient id="SVGID_00000009569550156207549150000001051215792229078926_" gradientUnits="userSpaceOnUse" x1="-535.7256" y1="107.0253" x2="-534.9252" y2="107.0253" gradientTransform="matrix(32.1105 0 0 -17.414 17671.8516 2405.9485)">
			<stop  offset="0" style="stop-color:#FFFFFF"/>
			<stop  offset="1" style="stop-color:#FFFFFF"/>
		</linearGradient>
		<path style="fill:url(#SVGID_00000009569550156207549150000001051215792229078926_);stroke:#000000;stroke-miterlimit:10;" d="
			M491,536.1c-5.7,1.9-23.9,13-21.3,13c0.4,0,24.2-12.7,25.1-13.4C495.9,534.9,494,535.1,491,536.1z"/>
	</g>
	<g>
		
			<linearGradient id="SVGID_00000136385929122526258210000014237550134428910216_" gradientUnits="userSpaceOnUse" x1="-554.7348" y1="138.3824" x2="-553.9343" y2="138.3824" gradientTransform="matrix(167.9328 0 0 -118.959 93159.3438 16773.2773)">
			<stop  offset="0" style="stop-color:#AAA465"/>
			<stop  offset="1" style="stop-color:#AAA465"/>
		</linearGradient>
		<path style="fill:url(#SVGID_00000136385929122526258210000014237550134428910216_);" d="M128.8,267.6
			c-6.3,4.4-38.2,28.4-48.1,36.3c-3.5,2.8-6.3,5.6-6.2,6.1c0.3,1-11.3,9.6-12.6,9.2c-1.5-0.4-14.4,7.3-31.5,18.7
			c-19.7,13.2-30.6,21.1-29.1,21.1c0.6,0,5.8-3,11.5-6.6s12.5-7.7,14.9-8.9c10.7-5.5,35.9-21.5,45.8-29.1c2.5-1.8,4.9-3.4,5.4-3.4
			c2.2,0,34.3-24.6,33.3-25.5c-0.6-0.6-6.3,3.4-20.2,14.1c-7,5.5-13.7,10.1-14.6,10.2c-1,0.1-1.6,0.1-1.4,0c9.9-7.3,58.3-44,59-44.8
			C136.8,262.8,134.5,263.8,128.8,267.6z"/>
	</g>
	<g>
		
			<linearGradient id="SVGID_00000123426445163661760450000000562450275005753488_" gradientUnits="userSpaceOnUse" x1="-554.6185" y1="133.1886" x2="-553.8179" y2="133.1886" gradientTransform="matrix(193.8665 0 0 -74.0358 107714.3906 10458.041)">
			<stop  offset="0" style="stop-color:#AAA465"/>
			<stop  offset="1" style="stop-color:#AAA465"/>
		</linearGradient>
		<path style="fill:url(#SVGID_00000123426445163661760450000000562450275005753488_);" d="M346.6,568.3c-0.4,0.3-2.2,3-3.9,6.2
			c-4.6,8.4-14.2,17.6-22.8,21.8c-11.2,5.4-21,7.5-37.6,7.9l-14,0.3l7.2-2.4c5.4-1.8,9.1-2.5,14.8-2.7c17.1-0.7,36.6-7.9,44.3-16.4
			c3.4-3.8,7.2-10.2,6.8-11.5c-0.2-0.6-1.4,0.7-2.9,2.7c-7.5,10.8-22.4,19.2-40.2,22.6c-10.4,2-10.7,1.4-1.1-1.9
			c5-1.7,9.6-3.4,10.4-3.9c4.1-2.3-3.7-0.2-29.3,7.9c-15.1,4.8-27.6,8.7-27.8,8.5c-0.2-0.2,2.4-1.4,5.8-2.9c3.3-1.4,6-3,6-3.4
			c0-0.5-0.6-0.6-1.4-0.2c-0.8,0.3-3.8,1.4-6.6,2.4c-9.9,3.5-61,22.9-61.6,23.3c-2.2,1.9,18-4.4,36.6-11.4c2.8-1,5.4-1.8,5.7-1.5
			c0.3,0.2,6.7-1.5,14.2-3.7l13.5-4l11.6,0.1c13,0.1,32-1.2,37.5-2.6c2-0.5,6.6-2.3,10.1-4.1c7.5-3.8,17.1-12.9,20.6-19.4
			c2-3.8,5.7-12.4,5.2-12.4C347.5,567.7,347.1,568,346.6,568.3z"/>
	</g>
	<g>
		
			<linearGradient id="SVGID_00000104674900288113709720000009208591033263816365_" gradientUnits="userSpaceOnUse" x1="-543.4394" y1="118.3947" x2="-542.6389" y2="118.3947" gradientTransform="matrix(49.6208 0 0 -20.9054 27180.5078 3035.7776)">
			<stop  offset="0" style="stop-color:#AAA465"/>
			<stop  offset="1" style="stop-color:#AAA465"/>
		</linearGradient>
		<path style="fill:url(#SVGID_00000104674900288113709720000009208591033263816365_);" d="M245.3,555c-3.9,1.4-12.3,4.9-18.6,7.7
			c-10.3,4.6-13.5,6.4-11.4,6.4c2.3,0,35.5-13.5,38.2-15.6C255.9,551.5,253.3,552.1,245.3,555z"/>
	</g>
	<g>
		
			<linearGradient id="SVGID_00000049197564233106947920000013762952126666287266_" gradientUnits="userSpaceOnUse" x1="-544.9396" y1="109.3911" x2="-544.1391" y2="109.3911" gradientTransform="matrix(53.6415 0 0 -17.5596 29584.1191 2509.9976)">
			<stop  offset="0" style="stop-color:#AAA465"/>
			<stop  offset="1" style="stop-color:#AAA465"/>
		</linearGradient>
		<path style="fill:url(#SVGID_00000049197564233106947920000013762952126666287266_);" d="M382.2,586c-14.8,5.1-21.3,7.2-22.8,7.2
			c-1.8,0-7.1,2.3-6.6,2.9c1.1,1,40.5-11.2,42.6-13.3C396.9,581.3,393.1,582.2,382.2,586z"/>
	</g>
	<g>
		
			<linearGradient id="SVGID_00000159462209393797111500000012210469147266202009_" gradientUnits="userSpaceOnUse" x1="-555.9393" y1="136.9471" x2="-555.1387" y2="136.9471" gradientTransform="matrix(248.4019 0 0 -143.7993 138093.5156 20238.4941)">
			<stop  offset="0" style="stop-color:#DE2126"/>
			<stop  offset="1" style="stop-color:#DE2126"/>
		</linearGradient>
		<path style="fill:url(#SVGID_00000159462209393797111500000012210469147266202009_);" d="M159.3,490.6c-3.8,1.3-10.9,4.2-15.6,6.6
			c-4.8,2.2-9.1,4.1-9.6,4c-1.6-0.3-5.6,2-15.4,8.9c-11.1,7.7-17,12.5-16.4,13.3c0.2,0.4-3.6,3.8-8.4,7.6c-8.7,6.9-11.5,10.2-5.9,7
			c5.4-3.2,1.9-0.2-8.6,7.2s-12.7,10.3-4.3,5.6c2.4-1.4,4.4-2.4,4.4-2.2s-12.6,8.5-28,18.7c-15.4,10.1-28,18.7-28,19
			c0,0.4,3.4-1.1,7.6-3.4c4.2-2.3,7.6-3.9,7.6-3.8c0,0.6-17.2,10.7-27.6,16.1c-10.6,5.6-14.2,7.7-13.8,8.1s14.6-4.9,40.2-14.9
			c22.7-8.9,41.7-16,42.6-16c0.4,0.1-1.7,1.2-4.6,2.6c-2.9,1.3-4.8,2.6-4.3,2.8c1.2,0.4,13.9-4.4,29.8-11.3
			c10.9-4.6,12.4-5.1,13.4-4.1c0.7,0.6,1.5,1.2,1.9,1.2c1,0,18-6.2,22.2-8.1c1.8-0.8,5.3-2,7.6-2.6c11.8-3,33-11.5,37.9-15
			c1.8-1.2,4.5-3,6-3.8c1.5-0.8,3.7-2.5,4.7-3.6c1.6-1.7,1.8-2.2,0.9-3.3s-1.7-0.6-6,3.5c-4.6,4.3-11.2,8.3-14,8.6
			c-0.6,0.1-3,1-5.2,1.9c-13.4,5.9-32.3,11.8-33.2,10.5c-0.2-0.3-7.9,1.8-17.2,4.8c-9.2,3-17.1,5.5-17.6,5.5c-0.4,0,0.1-0.8,1.2-1.7
			l2-1.6l-2.4,1.2c-3.2,1.5-11.6,3.7-11.6,3c0-0.3,1.2-1.2,2.6-1.9l2.6-1.3l-2.6,0.5c-2.7,0.5-3.4-0.3-1.7-2
			c0.8-0.8-15.4,5-22.7,8.2c-3.7,1.6-4.6,1.6-4.6,0.2c0-1.4,12.1-10.2,34.8-25.5c15.6-10.7,16.2-11.4,4.3-6.1
			c-7.4,3.3-9.5,3.8-9.5,2.1c0-1,19.8-14.4,25.5-17.3c1.5-0.8,1.7-1.2,0.9-2.2c-1.2-1.4-0.6-2,8.3-7c3.6-2.1,5.8-3.8,5.2-4
			c-1.4-0.6,2.5-3.8,7.4-6.2c2.2-1,3.7-2.1,3.5-2.5c-0.5-0.7,11.4-5,17.5-6.3c2.6-0.6,7-1,9.8-1c3.5-0.2,5.1-0.5,5.1-1.2
			C177.9,487.1,166.9,488,159.3,490.6z"/>
	</g>
	<g>
		
			<linearGradient id="SVGID_00000111149325370947432100000005969350121559641745_" gradientUnits="userSpaceOnUse" x1="-533.308" y1="133.2389" x2="-532.5076" y2="133.2389" gradientTransform="matrix(29.9631 0 0 -33.195 16435.4102 4597.4985)">
			<stop  offset="0" style="stop-color:#F7FAFC"/>
			<stop  offset="1" style="stop-color:#F7FAFC"/>
		</linearGradient>
		<path style="fill:url(#SVGID_00000111149325370947432100000005969350121559641745_);stroke:#000000;stroke-miterlimit:10;" d="
			M471.8,168.3c-8.2,8.5-15.9,18-15.9,19.5c0,1.4,17.5-15.9,21.3-21c2.7-3.7,3.4-5.5,2-5.5C478.8,161.4,475.5,164.5,471.8,168.3z"/>
	</g>
	<g>
		
			<linearGradient id="SVGID_00000005246024806021174850000003747254092206076805_" gradientUnits="userSpaceOnUse" x1="-545.1706" y1="134.7797" x2="-545.4348" y2="134.9318" gradientTransform="matrix(62.8769 0 0 -45.7904 34795.4336 6369.4902)">
			<stop  offset="0" style="stop-color:#00569B"/>
			<stop  offset="1" style="stop-color:#156FA9"/>
		</linearGradient>
		<path style="fill:url(#SVGID_00000005246024806021174850000003747254092206076805_);" d="M512.9,175.4c-5,1.8-20.5,17.9-27.6,28.5
			c-5.4,8.2-4.3,8.7,8.2,3.8c6.8-2.6,8.8-3.8,11.3-6.7c3.3-3.8,15.5-13.9,23.2-19.1c2.5-1.8,4.6-3.4,4.6-3.8s-1.5-1.4-3.4-2.2
			C525,173.8,517.8,173.7,512.9,175.4z M510.9,178.2c0,1.8-5.7,8.5-14.7,17.5c-5.1,5-9.3,8.6-9.3,8.1c0-1.5,7.8-11.1,15.9-19.5
			C509.3,177.6,510.9,176.4,510.9,178.2z"/>
	</g>
	<g>
		
			<linearGradient id="SVGID_00000141430386924948227820000007481071508752355977_" gradientUnits="userSpaceOnUse" x1="-552.4175" y1="138.4277" x2="-551.6171" y2="138.4277" gradientTransform="matrix(169.8 0 0 -130.8 94459.2031 18325.998)">
			<stop  offset="0" style="stop-color:#A9ACAD"/>
			<stop  offset="1" style="stop-color:#A9ACAD"/>
		</linearGradient>
		<path style="fill:url(#SVGID_00000141430386924948227820000007481071508752355977_);" d="M757.3,170.2c-11,3.9-22.8,9.6-35.5,17.2
			c-24.4,14.5-44.5,31-44.5,36.4c0,1.3-0.8,1.8-4.6,2.4c-2.6,0.5-6.7,1.6-9.4,2.6l-4.6,1.8l0.4,3c0.5,3.8,3.8,10.8,6.3,13.8l1.8,2.2
			l6.8-4.8c11.9-8.4,29.6-19.9,33.5-21.9c11.2-5.7,18.6-4.1,18.6,4c0,3-5,7.5-11.5,10.7c-4.7,2.2-28.1,10.2-38.9,13.1
			c-7,2-6.9,1.8-4.9,8.2c0.9,3,3,7.2,4.5,9.4l2.8,3.8l3.9-1.9c2.1-1.1,5.9-3.8,8.4-6.1c2.5-2.3,4.5-3.7,4.5-3.2
			c0,1.7,12.6,0.4,23.6-2.3c25.3-6.2,52.7-17.6,70-29.1l6.1-3.9l-3-3.1c-9.5-9.9-19.9-30.7-24.2-47.9l-1.8-7.2L757.3,170.2z"/>
	</g>
	<g>
		
			<linearGradient id="SVGID_00000039830118841712375090000000258506581842357124_" gradientUnits="userSpaceOnUse" x1="-533.2389" y1="125.5419" x2="-532.4384" y2="125.5419" gradientTransform="matrix(35.8418 0 0 -36.4327 19807.8672 5057.8594)">
			<stop  offset="0" style="stop-color:#E3AB2A"/>
			<stop  offset="1" style="stop-color:#E3AB2A"/>
		</linearGradient>
		<path style="fill:url(#SVGID_00000039830118841712375090000000258506581842357124_);" d="M702.3,471.5c-4.9,3-7,7.5-6.6,13.7
			c0.2,3.8,0.8,5.6,2.4,7.8c2.8,3.7,7.3,5.8,12.2,5.7c5,0,8.4-1.8,11.4-5.5c3.1-4.2,3.5-12.1,0.9-16.7
			C718.7,469.7,709.1,467.4,702.3,471.5z"/>
	</g>
	<g>
		
			<linearGradient id="SVGID_00000041260537274825406010000000569155600901949588_" gradientUnits="userSpaceOnUse" x1="-525.9913" y1="124.1686" x2="-525.3828" y2="124.849" gradientTransform="matrix(27.8431 0.3995 0.3974 -27.698 15293.5547 4051.3689)">
			<stop  offset="0" style="stop-color:#040000"/>
			<stop  offset="1" style="stop-color:#186C90"/>
		</linearGradient>
		<path style="fill:url(#SVGID_00000041260537274825406010000000569155600901949588_);" d="M699.5,384.1c-7.5,4-7.8,15.8-0.4,19.8
			c3,1.6,8.3,1.6,11.4,0.2c6.8-3.4,7.6-14.4,1.2-19.1C708.7,382.6,702.9,382.2,699.5,384.1z"/>
	</g>
	<g>
		
			<linearGradient id="SVGID_00000004531402919091489790000010662574899933021088_" gradientUnits="userSpaceOnUse" x1="-541.3734" y1="56.1708" x2="-540.5728" y2="56.1708" gradientTransform="matrix(49.63 0 0 -6.7458 27438 962.2905)">
			<stop  offset="0" style="stop-color:#FFFFFF"/>
			<stop  offset="1" style="stop-color:#FFFFFF"/>
		</linearGradient>
		<path style="fill:url(#SVGID_00000004531402919091489790000010662574899933021088_);stroke:#000000;stroke-miterlimit:10;" d="
			M586.5,581.8c-3,0.6-6.9,1.4-8.4,1.9c-1.5,0.5-4.2,0.9-6,1c-3,0-3,0.1-1.2,0.9c4.3,1.8,33.6-1.4,38.3-4.2
			C611.2,580.2,592.9,580.6,586.5,581.8z"/>
	</g>
	<g>
		
			<linearGradient id="SVGID_00000167354417003492690140000012725220259923852702_" gradientUnits="userSpaceOnUse" x1="-545.5397" y1="120.7228" x2="-544.7391" y2="120.7228" gradientTransform="matrix(70.4125 0 0 -27.6507 39028.6758 3889.7185)">
			<stop  offset="0" style="stop-color:#12376E"/>
			<stop  offset="1" style="stop-color:#12376E"/>
		</linearGradient>
		<path style="fill:url(#SVGID_00000167354417003492690140000012725220259923852702_);" d="M666.3,541.9c-5.4,2-21.6,5.8-27.4,6.4
			c-4.8,0.5-6.4,1.1-14.2,5.8c-5,3-8.8,5.8-8.8,6.5c0,3,25.2,2.7,40-0.4c9.7-2.1,15.3-7.5,16.2-15.5
			C672.6,540,672.1,539.7,666.3,541.9z M660.2,557.4c-4.7,2.8-34,5.9-38.3,4.2c-1.8-0.8-1.8-0.9,1.2-0.9c1.8-0.1,4.5-0.5,6-1
			c6.2-1.9,14.5-3,23.2-3C658.2,556.7,661,556.9,660.2,557.4z"/>
	</g>
	<g>
		
			<linearGradient id="SVGID_00000003097876823075794740000014457451341830475427_" gradientUnits="userSpaceOnUse" x1="-542.8597" y1="117.2109" x2="-542.0591" y2="117.2109" gradientTransform="matrix(50.9402 0 0 -27.0125 28163.6914 3758.7437)">
			<stop  offset="0" style="stop-color:#2485C0"/>
			<stop  offset="1" style="stop-color:#2485C0"/>
		</linearGradient>
		<path style="fill:url(#SVGID_00000003097876823075794740000014457451341830475427_);" d="M538.2,584.9c-3.4,1.7-11,6.2-17,10.2
			c-15.2,9.9-14.8,10.5,3,4.3c19.9-6.9,26.9-10.8,26.9-14.9c0-2-2.2-3.5-3.1-2.2c-0.5,0.7-24.4,13.8-25.3,13.8
			c-2.5,0,15.5-11,21.3-13.1c1.9-0.6,2.8-1.2,1.9-1.3C545,581.8,541.5,583.1,538.2,584.9z"/>
	</g>
	<g>
		
			<linearGradient id="SVGID_00000068675859288848454720000003351531430169312644_" gradientUnits="userSpaceOnUse" x1="-547.9445" y1="123.944" x2="-547.144" y2="123.944" gradientTransform="matrix(71.0323 0 0 -39.5159 39359.9609 5519.8501)">
			<stop  offset="0" style="stop-color:#0B3870"/>
			<stop  offset="1" style="stop-color:#0B3870"/>
		</linearGradient>
		<path style="fill:url(#SVGID_00000068675859288848454720000003351531430169312644_);" d="M482.2,607.4
			c-4.9,1.5-14.9,7.7-30.4,18.7c-11.9,8.4-14.4,10.7-13.4,11.8c0.6,0.6,22.1-4.9,31.6-8.1c11.4-3.8,18-7,21.9-10.7
			c3.5-3.4,4-5.8,2-9.6C492.1,606,488.7,605.5,482.2,607.4z M490.9,610.2c0.5,4.2-6.3,8-26.7,15.1c-17.8,6.2-18.2,5.6-3-4.3
			c15.2-9.8,22.3-13.4,26.3-13.1C490.3,608.2,490.7,608.4,490.9,610.2z"/>
	</g>
	<g>
		
			<linearGradient id="SVGID_00000072277634182487808810000008845596161899036607_" gradientUnits="userSpaceOnUse" x1="-547.1861" y1="138.2244" x2="-546.3856" y2="138.2244" gradientTransform="matrix(78.7946 0 0 -72.5195 43812.5938 10107.5146)">
			<stop  offset="0" style="stop-color:#D02030"/>
			<stop  offset="1" style="stop-color:#D02030"/>
		</linearGradient>
		<path style="fill:url(#SVGID_00000072277634182487808810000008845596161899036607_);" d="M698.9,54.8c-1.7,0.4-1.8,0.7-1.4,3.8
			c0.3,1.8,0.8,3.6,1.1,4c0.3,0.3,4.3,0.1,9-0.6c10.6-1.4,28.2-2.2,32.3-1.4c2.9,0.6,2.1,0.8-10,3.7c-7.3,1.7-16.7,4.2-21,5.5
			l-7.8,2.4l2,5.2c4.4,11.8,17.9,33.7,21.6,35.1c1.6,0.6,5.4-3.1,11.8-11.4c10.1-12.9,23.7-34.6,23.7-37.7c0-1-0.8-2.7-1.8-3.8
			c-1.6-1.8-3-2.2-11-3.3C738.6,55,702.7,54,698.9,54.8z"/>
	</g>
	<g>
		
			<linearGradient id="SVGID_00000163773319232057445070000000812268818580561342_" gradientUnits="userSpaceOnUse" x1="-554.4654" y1="136.2014" x2="-555.298" y2="136.1055" gradientTransform="matrix(161.1834 0 0 -96.7577 89510.3359 13608.041)">
			<stop  offset="0" style="stop-color:#E4A433"/>
			<stop  offset="1" style="stop-color:#E39C34"/>
		</linearGradient>
		<path style="fill:url(#SVGID_00000163773319232057445070000000812268818580561342_);" d="M115.8,396.3
			c-10.2,1.6-25.3,6.2-24.4,7.5c0.2,0.4-1.4,1.4-3.5,2.5c-5,2.3-8.9,5.5-7.4,6.2c0.6,0.2-1.6,1.9-5.2,4c-8.9,5-9.5,5.5-8.3,7
			c0.8,1,0.6,1.4-0.9,2.2c-5.6,2.9-25.5,16.3-25.5,17.3c0,1.7,2.2,1.2,9.5-2.1c11.8-5.3,11.3-4.6-4.3,6.1
			C23.1,462.1,11,470.9,11,472.3c0,1.4,1,1.4,4.6-0.2c7.3-3.2,23.5-9,22.7-8.2c-1.7,1.7-1,2.5,1.7,2l2.6-0.5l-2.6,1.3
			c-1.4,0.7-2.6,1.6-2.6,1.9c0,0.7,8.4-1.4,11.6-3l2.4-1.2l-2,1.6c-1.1,0.9-1.6,1.7-1.2,1.7c0.5,0,8.4-2.5,17.6-5.5
			c9.3-3,17-5.1,17.2-4.8c1,1.4,19.8-4.6,33.2-10.5c2.2-1,4.6-1.8,5.2-1.9c2.9-0.2,9.4-4.2,14.1-8.6c4.4-4.2,5-5,4.2-6.2
			c-0.9-1.4-1.2-1.3-4.7,2c-6.1,5.7-23.1,13.3-29.7,13.2l-2.6-0.1l2.8-2.4c2.8-2.5,2.8-2.5,0.4-1.3c-3.5,1.7-29.1,10-32.2,10.3
			c-3.8,0.5-3.2-0.6,1.8-3.4c2.4-1.4,4.4-2.6,4.4-2.7c0-0.3-12,2.9-21.3,5.7c-7.9,2.3-10.2,2.5-9.8,0.6c0.3-1.6,14.9-12.3,23.9-17.5
			c6.8-4,6.9-4.4,0.3-1.5c-2.6,1.1-4.7,1.9-4.9,1.7c-0.5-0.5,6.9-6.7,13.4-11.3c7-4.9,14.6-8.9,20.8-10.9c6-1.9,2.2-1.9-6,0
			c-3.5,0.9-6.6,1.4-6.7,1.2c-1.3-1.3,13-8.2,18.5-9l4.2-0.6l-4.4-0.4l-4.4-0.4l4.6-1.8c3.3-1.3,6.3-1.8,10.6-1.8
			c6.1,0,7-0.5,4.7-2.7C122.2,395.9,120.2,395.6,115.8,396.3z"/>
	</g>
	<g>
		
			<linearGradient id="SVGID_00000118361578220006081910000006786037103738890887_" gradientUnits="userSpaceOnUse" x1="-543.0135" y1="127.7195" x2="-542.213" y2="127.7195" gradientTransform="matrix(53.0281 0 0 -14.1965 29436.8125 1890.9708)">
			<stop  offset="0" style="stop-color:#F09868"/>
			<stop  offset="1" style="stop-color:#F09868"/>
		</linearGradient>
		<path style="fill:url(#SVGID_00000118361578220006081910000006786037103738890887_);stroke:#000000;stroke-miterlimit:10;" d="
			M661.7,72.8c-8.1,0.6-19.3,2.1-19.8,2.7c-0.4,0.3,1.5,7,2.3,7.8c0.2,0.4,3.9-0.4,8-1.7c4.2-1.3,13.5-3.8,20.7-5.4
			c11.9-2.8,12.8-3.1,10-3.7C679.1,71.9,672.9,71.9,661.7,72.8z"/>
	</g>
	<g>
		
			<linearGradient id="SVGID_00000085242810373922034150000013682579162838348731_" gradientUnits="userSpaceOnUse" x1="-554.7755" y1="135.0726" x2="-553.9749" y2="135.0726" gradientTransform="matrix(128.5644 0 0 -66.9518 71356.0859 9410.165)">
			<stop  offset="0" style="stop-color:#FBE193"/>
			<stop  offset="1" style="stop-color:#FBE193"/>
		</linearGradient>
		<path style="fill:url(#SVGID_00000085242810373922034150000013682579162838348731_);" d="M90.8,341.8l-4.4,1.8l4.4,0.4l4.4,0.4
			L91,345c-5.5,0.7-19.8,7.7-18.5,9c0.2,0.2,3.2-0.3,6.7-1.2c8.2-1.9,12-1.9,6,0c-6.2,2-13.8,6-20.8,10.9
			c-6.5,4.6-13.8,10.8-13.4,11.3c0.2,0.2,2.3-0.6,4.9-1.7c6.6-2.9,6.5-2.5-0.3,1.5c-9,5.2-23.5,15.9-23.9,17.5
			c-0.4,1.9,1.8,1.8,9.8-0.6c9.3-2.8,21.3-6,21.3-5.7c0,0.2-2,1.4-4.4,2.7c-5,2.8-5.6,3.9-1.8,3.4c3-0.3,28.7-8.6,32.2-10.3
			c2.4-1.2,2.4-1.2-0.4,1.3l-2.8,2.4l2.6,0.1c6.6,0.1,24.8-8.1,30-13.5l3-3l-1.5-3.9c-0.8-2.2-1.8-5.1-2-6.5
			c-0.6-2.3-0.3-2.6,2.5-3.7c1.7-0.7,5.7-1.8,8.9-2.6c3.2-0.7,5.7-1.5,5.5-1.8c-0.2-0.2-4.1,0.6-8.6,1.8c-4.5,1.1-8.4,1.9-8.6,1.7
			c-1-1,0.9-3,6.5-6.9c3.4-2.3,6.1-4.3,6.1-4.6c0-0.5-2.3,1-9,5.7l-6.1,4.4l-2.2-2.8c-1.1-1.5-2.8-4.4-3.7-6.3l-1.6-3.6l-6.2,0.1
			C97,340.1,94,340.6,90.8,341.8z"/>
	</g>
	<g>
		
			<linearGradient id="SVGID_00000062900571712178660220000013990738476766314125_" gradientUnits="userSpaceOnUse" x1="-550.7547" y1="138.3708" x2="-549.9543" y2="138.3708" gradientTransform="matrix(107.1771 0 0 -68.6167 59547.5352 9569.0596)">
			<stop  offset="0" style="stop-color:#F9FDFF;stop-opacity:0.7346"/>
			<stop  offset="1" style="stop-color:#F9FDFF;stop-opacity:0.7346"/>
		</linearGradient>
		<path style="fill:url(#SVGID_00000062900571712178660220000013990738476766314125_);stroke:#000000;stroke-miterlimit:10;" d="
			M596.7,48.3c-21.3,8.5-36.1,17.5-73.8,45.1c-4.1,3-4.1,3-3.2,5.9c0.6,2,1.3,2.8,2.1,2.6c0.7-0.2,9.9-5.7,20.5-12.3
			c10.6-6.6,23.1-14.2,27.9-17c9.7-5.6,32.3-16.9,33.9-16.9c1.2,0,1.2,0.3-0.2-4.6C602.5,46.5,601.9,46.2,596.7,48.3z"/>
	</g>
	<g>
		
			<linearGradient id="SVGID_00000039105261442855839130000002455045475080987782_" gradientUnits="userSpaceOnUse" x1="-529.2263" y1="115.8306" x2="-528.4255" y2="115.8306" gradientTransform="matrix(23.836 0 0 -12.0914 13011.4883 1661.2371)">
			<stop  offset="0" style="stop-color:#000000;stop-opacity:0.5187"/>
			<stop  offset="1" style="stop-color:#000000;stop-opacity:0.5187"/>
		</linearGradient>
		<path style="fill:url(#SVGID_00000039105261442855839130000002455045475080987782_);" d="M409.3,256.4c-1.8,0.4-5.3,1.4-7.8,2.4
			c-4.2,1.5-4.6,1.9-4.6,4c0,1.3,0.3,2.5,0.7,2.7s4.7-1,9.6-2.9c7.9-2.9,9-3.4,8.7-5C415.7,255.7,414,255.4,409.3,256.4z"/>
	</g>
	<g>
		
			<linearGradient id="SVGID_00000150081373230811170920000015215966079943777410_" gradientUnits="userSpaceOnUse" x1="-528.8809" y1="109.9392" x2="-528.0804" y2="109.9392" gradientTransform="matrix(24 0 0 -19.5 13123 2744.0098)">
			<stop  offset="0" style="stop-color:#000000;stop-opacity:0.5694"/>
			<stop  offset="1" style="stop-color:#000000;stop-opacity:0.5694"/>
		</linearGradient>
		<path style="fill:url(#SVGID_00000150081373230811170920000015215966079943777410_);" d="M445.5,592.7c-0.7,1.2-7.9,6.4-12.3,9
			l-3.4,2l1.6,2.1l1.7,2.2l3.8-1.9c3.6-1.8,12.1-8.9,12.1-9.9c0-0.3-0.7-1.4-1.5-2.5C446.6,592.4,446,592.1,445.5,592.7z"/>
	</g>
	<g>
		
			<linearGradient id="SVGID_00000124847883714409175870000017978727139818660499_" gradientUnits="userSpaceOnUse" x1="-532.5811" y1="129.4498" x2="-531.7808" y2="129.4498" gradientTransform="matrix(27.8775 0 0 -24.8028 15267.7676 3458.3052)">
			<stop  offset="0" style="stop-color:#000000;stop-opacity:0.4058"/>
			<stop  offset="1" style="stop-color:#000000;stop-opacity:0.4058"/>
		</linearGradient>
		<path style="fill:url(#SVGID_00000124847883714409175870000017978727139818660499_);" d="M429.5,240.9c-4.6,1.7-8.5,3.3-8.7,3.4
			c-0.6,0.6,2.8,7.5,5,10.4l2.2,2.8l5.4-3.8c3-2.1,6.3-4.5,7.5-5.4l2.2-1.6l-1.8-4.6c-0.9-2.5-2.1-4.6-2.6-4.5
			C438.3,237.6,434.1,239.1,429.5,240.9z"/>
	</g>
	<g>
		
			<linearGradient id="SVGID_00000154397596068906789290000010578264565304458171_" gradientUnits="userSpaceOnUse" x1="-528.6724" y1="124.0416" x2="-529.2009" y2="124.7622" gradientTransform="matrix(30.7695 0 0 -30.8917 16979.6113 4279.7505)">
			<stop  offset="0" style="stop-color:#FFFFFF;stop-opacity:0.6368"/>
			<stop  offset="1" style="stop-color:#FFFFFF;stop-opacity:0.6403"/>
		</linearGradient>
		<path style="fill:url(#SVGID_00000154397596068906789290000010578264565304458171_);stroke:#000000;stroke-miterlimit:10;" d="
			M698.6,427.8c-3.9,2.6-5.7,6.5-5.3,11.5c0.6,7.5,5.9,12.1,13.4,11.4c7-0.7,11.2-5.5,11.2-12.8c0-6.9-5.2-11.9-12.5-11.9
			C702.5,426,700.5,426.4,698.6,427.8z M712.6,428.8c6.4,4.6,5.8,15.6-1,19.1c-3,1.5-8.3,1.5-11.4,0c-7.4-3.8-7.3-15.7,0.2-19.8
			C703.8,426.3,709.5,426.6,712.6,428.8z"/>
	</g>
	<g>
		
			<linearGradient id="SVGID_00000028308806082543680600000012590739503971967416_" gradientUnits="userSpaceOnUse" x1="-411.8728" y1="88.5128" x2="-411.0728" y2="88.5128" gradientTransform="matrix(6.0448 0 0 -7.9672 3186.9983 1052.3459)">
			<stop  offset="0" style="stop-color:#FFFFFF;stop-opacity:0.4465"/>
			<stop  offset="1" style="stop-color:#FFFFFF;stop-opacity:0.4465"/>
		</linearGradient>
		<path style="fill:url(#SVGID_00000028308806082543680600000012590739503971967416_);stroke:#000000;stroke-miterlimit:10;" d="
			M699,346c-1,1.2-1.7,2.8-1.7,3.6c0,1.1,0.5,1,2.4-1c2.3-2.3,3.2-4.6,1.7-4.6C701,344,699.9,344.9,699,346z"/>
	</g>
	<g>
		
			<linearGradient id="SVGID_00000037688592362876207620000007889763346084859544_" gradientUnits="userSpaceOnUse" x1="-509.0926" y1="118.5842" x2="-508.2926" y2="118.5842" gradientTransform="matrix(17.8681 0 0 -17.8685 9791.5391 2446.4341)">
			<stop  offset="0" style="stop-color:#FFFFFF;stop-opacity:0.546"/>
			<stop  offset="1" style="stop-color:#FFFFFF;stop-opacity:0.546"/>
		</linearGradient>
		<path style="fill:url(#SVGID_00000037688592362876207620000007889763346084859544_);stroke:#000000;stroke-miterlimit:10;" d="
			M695.1,321.7c0.2,1,1.3,1.6,3.4,1.9c1.8,0.2,4,1,5,1.5c2.1,1.4,4.2,5.4,4.2,8.2c0.1,1.7,0.1,1.8,0.9,0.3c1.7-2.7,0.3-7.9-2.8-10.6
			c-2.5-2.2-3.4-2.6-7-2.6C695.4,320.4,694.8,320.6,695.1,321.7z"/>
	</g>
	<g>
		
			<linearGradient id="SVGID_00000021084291864880468260000008354665253231105932_" gradientUnits="userSpaceOnUse" x1="-532.6245" y1="115.2377" x2="-531.8241" y2="115.2377" gradientTransform="matrix(26.6497 0 0 -23.8542 14594.5322 3347.5134)">
			<stop  offset="0" style="stop-color:#000000;stop-opacity:0.4079"/>
			<stop  offset="1" style="stop-color:#000000;stop-opacity:0.4079"/>
		</linearGradient>
		<path style="fill:url(#SVGID_00000021084291864880468260000008354665253231105932_);" d="M410.4,590.6c-6.6,1.8-10.2,3.2-10.2,4
			c0,1.6,3.4,11,4.5,12.4c1.2,1.6,1.2,1.6,4.6-0.3c4.7-2.7,11.8-8,12.2-9.2c0.5-1.3-3.5-8.5-4.7-8.4
			C416.3,589.1,413.4,589.8,410.4,590.6z"/>
	</g>
	<line class="st63" x1="477.5" y1="400.5" x2="589.5" y2="580.5"/>
	<line class="st63" x1="483.5" y1="394.5" x2="646.5" y2="547.5"/>
	<line class="st63" x1="698.5" y1="323.5" x2="513.5" y2="334.5"/>
	<line class="st63" x1="697.5" y1="349.5" x2="500.5" y2="337.5"/>
	<line class="st63" x1="693.5" y1="394.5" x2="511.5" y2="343.5"/>
	<line class="st63" x1="693.5" y1="435.5" x2="516.5" y2="349.5"/>
	<line class="st63" x1="695.5" y1="478.5" x2="515.5" y2="353.5"/>
	<line class="st63" x1="714.5" y1="99.5" x2="578.5" y2="303.5"/>
	<line class="st63" x1="649.5" y1="83.5" x2="553.5" y2="304.5"/>
	<line class="st63" x1="563.5" y1="76.5" x2="519.5" y2="311.5"/>
	<line class="st63" x1="673.5" y1="266.5" x2="526.5" y2="327.5"/>
	<line class="st63" x1="119.5" y1="365.5" x2="348.5" y2="415.5"/>
	<line class="st63" x1="137.5" y1="434.5" x2="327.5" y2="425.5"/>
	<line class="st63" x1="177.5" y1="489.5" x2="290.5" y2="450.5"/>
	<line class="st63" x1="96.5" y1="298.5" x2="327.5" y2="401.5"/>
	<line class="st63" x1="188" y1="267" x2="358" y2="365"/>
	<line class="st63" x1="307.5" y1="262.5" x2="387.5" y2="360.5"/>
	<line class="st63" x1="262" y1="470" x2="241" y2="557"/>
	<line class="st63" x1="283.5" y1="597.5" x2="317.5" y2="450.5"/>
	<line class="st63" x1="382.5" y1="586.5" x2="395.5" y2="424.5"/>
	<line class="st63" x1="431" y1="394" x2="410" y2="591"/>
	<line class="st63" x1="439.5" y1="397.5" x2="439.5" y2="598.5"/>
	<line class="st63" x1="443" y1="375" x2="459" y2="621"/>
	<line class="st63" x1="451.5" y1="364.5" x2="474" y2="546"/>
	<line class="st63" x1="461.5" y1="368.5" x2="526.5" y2="591.5"/>
	<line class="st63" x1="408.5" y1="262.5" x2="424" y2="359"/>
	<line class="st63" x1="431.5" y1="255.5" x2="430.5" y2="366.5"/>
	<line class="st63" x1="467.5" y1="177.5" x2="438.5" y2="329.5"/>
	<line class="st63" x1="495.5" y1="206.5" x2="453.5" y2="327.5"/>
</g>
</svg>
