<?xml version="1.0" standalone="no"?>
<!DOCTYPE svg PUBLIC "-//W3C//DTD SVG 20010904//EN"
 "http://www.w3.org/TR/2001/REC-SVG-20010904/DTD/svg10.dtd">
<svg version="1.0" xmlns="http://www.w3.org/2000/svg"
 width="500.000000pt" height="300.000000pt" viewBox="0 0 500.000000 300.000000"
 preserveAspectRatio="xMidYMid meet">
<defs>
<linearGradient id="grad_0" x1="0%" y1="100%" x2="100%" y2="100%">
<stop offset="0%" style="stop-color:rgb(254, 251, 190); stop-opacity:1"/>
<stop offset="100%" style="stop-color:rgb(254, 251, 190); stop-opacity:1"/>
</linearGradient>
<linearGradient id="grad_1" x1="0%" y1="2%" x2="100%" y2="2%">
<stop offset="0%" style="stop-color:rgb(170, 164, 101); stop-opacity:1"/>
<stop offset="100%" style="stop-color:rgb(170, 164, 101); stop-opacity:1"/>
</linearGradient>
<linearGradient id="grad_2" x1="0%" y1="0%" x2="100%" y2="0%">
<stop offset="0%" style="stop-color:rgb(170, 164, 101); stop-opacity:1"/>
<stop offset="100%" style="stop-color:rgb(170, 164, 101); stop-opacity:1"/>
</linearGradient>
<linearGradient id="grad_3" x1="0%" y1="0%" x2="100%" y2="0%">
<stop offset="0%" style="stop-color:rgb(255, 255, 255); stop-opacity:1"/>
<stop offset="100%" style="stop-color:rgb(255, 255, 255); stop-opacity:1"/>
</linearGradient>
<linearGradient id="grad_4" x1="0%" y1="0%" x2="100%" y2="0%">
<stop offset="0%" style="stop-color:rgb(170, 164, 101); stop-opacity:1"/>
<stop offset="100%" style="stop-color:rgb(170, 164, 101); stop-opacity:1"/>
</linearGradient>
<linearGradient id="grad_5" x1="0%" y1="0%" x2="100%" y2="0%">
<stop offset="0%" style="stop-color:rgb(170, 164, 101); stop-opacity:1"/>
<stop offset="100%" style="stop-color:rgb(170, 164, 101); stop-opacity:1"/>
</linearGradient>
<linearGradient id="grad_6" x1="0%" y1="0%" x2="100%" y2="0%">
<stop offset="0%" style="stop-color:rgb(170, 164, 101); stop-opacity:1"/>
<stop offset="100%" style="stop-color:rgb(170, 164, 101); stop-opacity:1"/>
</linearGradient>
<linearGradient id="grad_7" x1="0%" y1="0%" x2="100%" y2="0%">
<stop offset="0%" style="stop-color:rgb(222, 33, 38); stop-opacity:1"/>
<stop offset="100%" style="stop-color:rgb(222, 33, 38); stop-opacity:1"/>
</linearGradient>
<linearGradient id="grad_8" x1="0%" y1="6%" x2="100%" y2="6%">
<stop offset="0%" style="stop-color:rgb(247, 250, 252); stop-opacity:1"/>
<stop offset="100%" style="stop-color:rgb(247, 250, 252); stop-opacity:1"/>
</linearGradient>
<linearGradient id="grad_9" x1="98%" y1="86%" x2="65%" y2="105%">
<stop offset="0%" style="stop-color:rgb(0, 86, 155); stop-opacity:1"/>
<stop offset="100%" style="stop-color:rgb(21, 111, 169); stop-opacity:1"/>
</linearGradient>
<linearGradient id="grad_10" x1="0%" y1="39%" x2="100%" y2="39%">
<stop offset="0%" style="stop-color:rgb(169, 172, 173); stop-opacity:1"/>
<stop offset="100%" style="stop-color:rgb(169, 172, 173); stop-opacity:1"/>
</linearGradient>
<linearGradient id="grad_11" x1="0%" y1="66%" x2="100%" y2="66%">
<stop offset="0%" style="stop-color:rgb(227, 171, 42); stop-opacity:1"/>
<stop offset="100%" style="stop-color:rgb(227, 171, 42); stop-opacity:1"/>
</linearGradient>
<linearGradient id="grad_12" x1="33%" y1="0%" x2="109%" y2="85%">
<stop offset="0%" style="stop-color:rgb(4, 0, 0); stop-opacity:1"/>
<stop offset="100%" style="stop-color:rgb(24, 108, 144); stop-opacity:1"/>
</linearGradient>
<linearGradient id="grad_13" x1="0%" y1="16%" x2="100%" y2="16%">
<stop offset="0%" style="stop-color:rgb(255, 255, 255); stop-opacity:1"/>
<stop offset="100%" style="stop-color:rgb(255, 255, 255); stop-opacity:1"/>
</linearGradient>
<linearGradient id="grad_14" x1="0%" y1="11%" x2="100%" y2="11%">
<stop offset="0%" style="stop-color:rgb(18, 55, 110); stop-opacity:1"/>
<stop offset="100%" style="stop-color:rgb(18, 55, 110); stop-opacity:1"/>
</linearGradient>
<linearGradient id="grad_15" x1="0%" y1="3%" x2="100%" y2="3%">
<stop offset="0%" style="stop-color:rgb(36, 133, 192); stop-opacity:1"/>
<stop offset="100%" style="stop-color:rgb(36, 133, 192); stop-opacity:1"/>
</linearGradient>
<linearGradient id="grad_16" x1="0%" y1="5%" x2="100%" y2="5%">
<stop offset="0%" style="stop-color:rgb(11, 56, 112); stop-opacity:1"/>
<stop offset="100%" style="stop-color:rgb(11, 56, 112); stop-opacity:1"/>
</linearGradient>
<linearGradient id="grad_17" x1="0%" y1="98%" x2="100%" y2="98%">
<stop offset="0%" style="stop-color:rgb(208, 32, 48); stop-opacity:1"/>
<stop offset="100%" style="stop-color:rgb(208, 32, 48); stop-opacity:1"/>
</linearGradient>
<linearGradient id="grad_18" x1="100%" y1="54%" x2="-4%" y2="42%">
<stop offset="0%" style="stop-color:rgb(228, 164, 51); stop-opacity:1"/>
<stop offset="100%" style="stop-color:rgb(227, 156, 52); stop-opacity:1"/>
</linearGradient>
<linearGradient id="grad_19" x1="0%" y1="71%" x2="100%" y2="71%">
<stop offset="0%" style="stop-color:rgb(240, 152, 104); stop-opacity:1"/>
<stop offset="100%" style="stop-color:rgb(240, 152, 104); stop-opacity:1"/>
</linearGradient>
<linearGradient id="grad_20" x1="0%" y1="3%" x2="100%" y2="3%">
<stop offset="0%" style="stop-color:rgb(251, 225, 147); stop-opacity:1"/>
<stop offset="100%" style="stop-color:rgb(251, 225, 147); stop-opacity:1"/>
</linearGradient>
<linearGradient id="grad_21" x1="0%" y1="8%" x2="100%" y2="8%">
<stop offset="0%" style="stop-color:rgb(249, 253, 255); stop-opacity:0.734589"/>
<stop offset="100%" style="stop-color:rgb(249, 253, 255); stop-opacity:0.734589"/>
</linearGradient>
<linearGradient id="grad_22" x1="0%" y1="49%" x2="100%" y2="49%">
<stop offset="0%" style="stop-color:rgb(0, 0, 0); stop-opacity:0.518687"/>
<stop offset="100%" style="stop-color:rgb(0, 0, 0); stop-opacity:0.518687"/>
</linearGradient>
<linearGradient id="grad_23" x1="0%" y1="26%" x2="100%" y2="26%">
<stop offset="0%" style="stop-color:rgb(0, 0, 0); stop-opacity:0.569372"/>
<stop offset="100%" style="stop-color:rgb(0, 0, 0); stop-opacity:0.569372"/>
</linearGradient>
<linearGradient id="grad_24" x1="0%" y1="66%" x2="100%" y2="66%">
<stop offset="0%" style="stop-color:rgb(0, 0, 0); stop-opacity:0.405786"/>
<stop offset="100%" style="stop-color:rgb(0, 0, 0); stop-opacity:0.405786"/>
</linearGradient>
<linearGradient id="grad_25" x1="63%" y1="0%" x2="-3%" y2="90%">
<stop offset="0%" style="stop-color:rgb(255, 255, 255); stop-opacity:0.636847"/>
<stop offset="100%" style="stop-color:rgb(255, 255, 255); stop-opacity:0.640282"/>
</linearGradient>
<linearGradient id="grad_26" x1="0%" y1="37%" x2="100%" y2="37%">
<stop offset="0%" style="stop-color:rgb(255, 255, 255); stop-opacity:0.446521"/>
<stop offset="100%" style="stop-color:rgb(255, 255, 255); stop-opacity:0.446521"/>
</linearGradient>
<linearGradient id="grad_27" x1="0%" y1="100%" x2="100%" y2="100%">
<stop offset="0%" style="stop-color:rgb(255, 255, 255); stop-opacity:0.545962"/>
<stop offset="100%" style="stop-color:rgb(255, 255, 255); stop-opacity:0.545962"/>
</linearGradient>
<linearGradient id="grad_28" x1="0%" y1="73%" x2="100%" y2="73%">
<stop offset="0%" style="stop-color:rgb(0, 0, 0); stop-opacity:0.407857"/>
<stop offset="100%" style="stop-color:rgb(0, 0, 0); stop-opacity:0.407857"/>
</linearGradient>
</defs>
<g transform="translate(0.000000,300.000000) scale(0.100000,-0.100000)"
fill="url(#grad_0)" stroke="none">
<g>
<path d="M0 1500 l0 -1500 2500 0 2500 0 0 1500 0 1500 -2500 0 -2500 0 0
-1500z"/>
</g>
</g>
<g transform="translate(0.000000,300.000000) scale(0.100000,-0.100000)"
fill="url(#grad_1)" stroke="none">
<g>
<path d="M2323 2076 c-166 -32 -252 -74 -518 -254 -232 -156 -210 -140 -202
-149 4 -3 81 44 172 105 355 240 601 316 865 266 53 -10 24 11 -34 25 -78 19
-204 22 -283 7z"/>
</g>
</g>
<g transform="translate(0.000000,300.000000) scale(0.100000,-0.100000)"
fill="url(#grad_2)" stroke="none">
<g>
<path d="M2434 2015 c-39 -13 -97 -36 -130 -50 -67 -29 -187 -105 -180 -113 3
-3 52 18 108 46 57 28 159 70 228 93 69 23 127 43 129 45 15 14 -97 -1 -155
-21z"/>
</g>
</g>
<g transform="translate(0.000000,300.000000) scale(0.100000,-0.100000)"
fill="url(#grad_3)" stroke="none">
<g>
<path d="M3391 2103 c-71 -24 -298 -163 -266 -163 5 0 302 158 314 167 14 11
-10 9 -48 -4z"/>
</g>
</g>
<g transform="translate(0.000000,300.000000) scale(0.100000,-0.100000)"
fill="url(#grad_4)" stroke="none">
<g>
<path d="M1703 1572 c-79 -55 -477 -355 -601 -453 -44 -35 -79 -70 -77 -76 4
-13 -141 -120 -157 -115 -19 5 -180 -91 -394 -234 -246 -165 -382 -264 -364
-264 7 0 72 37 144 83 72 46 156 96 186 111 134 69 448 268 572 363 31 23 61
43 67 43 28 0 428 307 416 318 -7 8 -79 -43 -252 -176 -88 -69 -171 -126 -182
-127 -12 -1 -20 -1 -18 0 124 91 728 549 737 560 23 28 -6 15 -77 -33z"/>
</g>
</g>
<g transform="translate(0.000000,300.000000) scale(0.100000,-0.100000)"
fill="url(#grad_5)" stroke="none">
<g>
<path d="M2874 1422 c-5 -4 -27 -38 -49 -77 -57 -105 -177 -220 -285 -272
-140 -68 -263 -94 -470 -99 l-175 -4 90 30 c67 23 114 31 185 34 214 9 457 99
553 205 43 48 90 127 85 143 -3 7 -18 -9 -36 -34 -93 -135 -280 -240 -502
-282 -130 -25 -134 -18 -14 24 62 21 120 43 130 49 51 29 -46 3 -366 -99 -189
-60 -345 -108 -347 -106 -2 2 30 18 72 36 41 18 75 37 75 42 0 6 -8 7 -17 3
-10 -4 -47 -17 -83 -30 -124 -44 -762 -286 -769 -291 -28 -24 225 55 457 142
35 13 67 22 71 19 4 -2 84 19 177 46 l169 50 145 -1 c163 -1 400 15 469 32 25
6 82 29 126 51 93 48 214 161 257 242 25 47 71 155 65 155 -1 0 -7 -4 -13 -8z"/>
</g>
<g>
<path d="M884 706 c-49 -18 -154 -61 -233 -96 -129 -58 -169 -80 -142 -80 29
0 443 169 477 195 31 24 -2 17 -102 -19z"/>
</g>
</g>
<g transform="translate(0.000000,300.000000) scale(0.100000,-0.100000)"
fill="url(#grad_6)" stroke="none">
<g>
<path d="M2470 1230 c-185 -64 -266 -90 -285 -90 -22 0 -89 -29 -83 -36 14
-13 506 140 532 166 19 19 -28 8 -164 -40z"/>
</g>
</g>
<g transform="translate(0.000000,300.000000) scale(0.100000,-0.100000)"
fill="url(#grad_7)" stroke="none">
<g>
<path d="M2458 1960 c-48 -16 -136 -53 -195 -82 -60 -28 -114 -51 -120 -50
-20 4 -70 -25 -193 -111 -138 -96 -212 -156 -205 -166 2 -5 -45 -47 -105 -95
-108 -86 -144 -128 -74 -87 67 40 24 3 -107 -90 -131 -93 -159 -129 -54 -70
30 17 55 30 55 28 0 -2 -157 -106 -350 -233 -192 -126 -350 -233 -350 -237 0
-5 43 14 95 42 52 29 95 49 95 47 0 -7 -215 -133 -345 -201 -133 -70 -177 -96
-172 -101 5 -5 183 61 502 186 283 111 521 200 532 200 5 -1 -21 -15 -57 -32
-36 -16 -60 -32 -54 -35 15 -5 174 55 372 141 136 58 155 64 168 51 9 -8 19
-15 24 -15 12 0 225 78 277 101 23 10 66 25 95 33 147 38 412 143 473 187 22
15 56 37 75 48 19 10 46 31 59 45 20 21 22 28 11 41 -11 13 -21 7 -75 -44 -58
-54 -140 -104 -175 -107 -8 -1 -37 -12 -65 -24 -168 -74 -403 -148 -415 -131
-3 4 -99 -23 -215 -60 -115 -38 -214 -69 -220 -69 -5 0 1 10 15 21 l25 20 -30
-15 c-40 -19 -145 -46 -145 -37 0 4 15 15 33 24 l32 16 -32 -6 c-34 -6 -42 4
-21 25 10 10 -193 -62 -284 -102 -46 -20 -58 -20 -58 -2 0 17 151 127 435 319
195 133 202 142 54 76 -92 -41 -119 -47 -119 -26 0 12 248 180 318 216 19 10
21 15 11 27 -15 18 -7 25 104 87 45 26 73 47 65 50 -18 8 31 48 93 77 27 13
46 26 44 31 -6 9 142 63 219 79 32 7 87 13 122 13 44 2 64 6 64 15 0 25 -137
14 -232 -18z"/>
</g>
</g>
<g transform="translate(0.000000,300.000000) scale(0.100000,-0.100000)"
fill="url(#grad_8)" stroke="none">
<g>
<path d="M2939 2363 c-102 -106 -199 -225 -199 -244 0 -17 219 199 266 262 34
46 42 69 25 69 -4 0 -46 -39 -92 -87z"/>
</g>
</g>
<g transform="translate(0.000000,300.000000) scale(0.100000,-0.100000)"
fill="url(#grad_9)" stroke="none">
<g>
<path d="M3065 2474 c-62 -23 -256 -224 -345 -356 -68 -102 -54 -109 102 -47
85 33 110 48 141 84 41 47 194 174 290 239 31 22 57 43 57 47 0 4 -19 17 -43
28 -51 25 -141 27 -202 5z m-25 -35 c0 -22 -71 -106 -184 -219 -64 -63 -116
-108 -116 -101 0 19 97 138 199 244 81 84 101 99 101 76z"/>
</g>
</g>
<g transform="translate(0.000000,300.000000) scale(0.100000,-0.100000)"
fill="url(#grad_10)" stroke="none">
<g>
<path d="M3920 2751 c-138 -49 -285 -120 -444 -215 -305 -181 -556 -387 -556
-454 0 -16 -10 -22 -57 -30 -32 -6 -84 -20 -117 -32 l-58 -22 5 -38 c6 -47 47
-135 79 -172 l23 -27 85 60 c149 105 370 248 418 273 140 71 232 51 232 -50 0
-37 -62 -94 -144 -134 -59 -28 -351 -127 -486 -164 -87 -25 -86 -23 -61 -102
11 -38 37 -90 56 -117 l35 -47 49 24 c26 14 74 48 105 76 31 29 56 46 56 40 0
-21 157 -5 295 29 316 78 658 220 875 363 l76 49 -37 39 c-118 124 -249 384
-302 598 l-22 90 -105 -37z"/>
</g>
</g>
<g transform="translate(0.000000,300.000000) scale(0.100000,-0.100000)"
fill="url(#grad_11)" stroke="none">
<g>
<path d="M3745 2386 c-61 -37 -88 -93 -83 -171 3 -48 10 -70 30 -97 35 -46 91
-72 153 -71 62 0 105 22 142 69 39 52 44 151 11 209 -48 83 -168 112 -253 61z"/>
</g>
</g>
<g transform="translate(0.000000,300.000000) scale(0.100000,-0.100000)"
fill="url(#grad_12)" stroke="none">
<g>
<path d="M3771 2352 c-93 -51 -94 -199 -2 -247 38 -19 104 -19 142 0 85 44 92
181 12 239 -38 28 -110 32 -152 8z"/>
</g>
</g>
<g transform="translate(0.000000,300.000000) scale(0.100000,-0.100000)"
fill="url(#grad_13)" stroke="none">
<g>
<path d="M3235 1495 c-38 -8 -86 -18 -105 -24 -19 -6 -53 -11 -75 -12 -37 0
-38 -1 -15 -11 54 -22 420 17 479 52 25 15 -204 10 -284 -5z"/>
</g>
</g>
<g transform="translate(0.000000,300.000000) scale(0.100000,-0.100000)"
fill="url(#grad_14)" stroke="none">
<g>
<path d="M3595 1694 c-67 -25 -270 -72 -342 -80 -60 -6 -80 -14 -178 -73 -62
-37 -110 -73 -110 -81 0 -38 315 -34 499 5 121 26 191 93 203 193 7 59 0 63
-72 36z m-76 -194 c-59 -35 -425 -74 -479 -52 -23 10 -22 11 15 11 22 1 56 6
75 12 78 24 181 37 290 38 74 0 109 -3 99 -9z"/>
</g>
</g>
<g transform="translate(0.000000,300.000000) scale(0.100000,-0.100000)"
fill="url(#grad_15)" stroke="none">
<g>
<path d="M3319 2081 c-42 -21 -137 -78 -212 -127 -190 -124 -185 -131 37 -54
249 86 336 135 336 186 0 25 -27 44 -39 27 -6 -9 -305 -173 -316 -173 -31 0
193 138 266 164 24 8 35 15 24 16 -11 0 -55 -17 -96 -39z"/>
</g>
</g>
<g transform="translate(0.000000,300.000000) scale(0.100000,-0.100000)"
fill="url(#grad_16)" stroke="none">
<g>
<path d="M3369 2125 c-61 -19 -186 -96 -380 -234 -148 -105 -180 -133 -167
-147 8 -7 276 61 395 101 142 47 225 88 273 134 44 42 50 72 25 120 -22 43
-65 50 -146 26z m109 -36 c6 -53 -79 -100 -334 -189 -222 -77 -227 -70 -37 54
190 123 278 167 328 164 35 -3 40 -6 43 -29z"/>
</g>
</g>
<g transform="translate(0.000000,300.000000) scale(0.100000,-0.100000)"
fill="url(#grad_17)" stroke="none">
<g>
<path d="M4052 2794 c-21 -5 -23 -9 -17 -47 4 -23 10 -45 14 -50 4 -4 54 -1
112 7 132 18 352 28 404 18 36 -7 26 -10 -125 -46 -91 -21 -209 -52 -262 -69
l-97 -30 25 -65 c55 -148 224 -421 270 -439 20 -7 68 39 148 142 126 161 296
432 296 471 0 13 -10 34 -22 48 -20 22 -38 28 -138 41 -112 16 -560 29 -608
19z"/>
</g>
</g>
<g transform="translate(0.000000,300.000000) scale(0.100000,-0.100000)"
fill="url(#grad_18)" stroke="none">
<g>
<path d="M2590 1964 c-128 -20 -316 -77 -305 -93 2 -5 -17 -18 -44 -31 -62
-29 -111 -69 -93 -77 8 -3 -20 -24 -65 -50 -111 -62 -119 -69 -104 -87 10 -12
8 -17 -11 -27 -70 -36 -318 -204 -318 -216 0 -21 27 -15 119 26 148 66 141 57
-54 -76 -284 -192 -435 -302 -435 -319 0 -18 12 -18 58 2 91 40 294 112 284
102 -21 -21 -13 -31 21 -25 l32 6 -32 -16 c-18 -9 -33 -20 -33 -24 0 -9 105
18 145 37 l30 15 -25 -20 c-14 -11 -20 -21 -15 -21 6 0 105 31 220 69 116 37
212 64 215 60 12 -17 247 57 415 131 28 12 57 23 65 24 36 3 117 53 176 108
55 52 62 62 52 78 -11 18 -15 16 -59 -25 -76 -71 -289 -166 -371 -165 l-33 1
35 30 c35 31 35 31 5 16 -44 -21 -364 -125 -402 -129 -48 -6 -40 8 22 43 30
17 55 32 55 34 0 4 -150 -36 -266 -71 -99 -29 -127 -31 -122 -7 4 20 186 154
298 219 85 50 86 55 4 19 -32 -14 -59 -24 -61 -21 -6 6 86 84 167 141 87 61
182 111 260 136 75 24 27 24 -75 0 -44 -11 -82 -17 -84 -15 -16 16 162 103
231 112 l53 7 -55 5 -55 5 58 23 c41 16 79 22 132 22 76 0 87 6 59 34 -15 15
-39 18 -94 10z"/>
</g>
</g>
<g transform="translate(0.000000,300.000000) scale(0.100000,-0.100000)"
fill="url(#grad_19)" stroke="none">
<g>
<path d="M4300 2719 c-101 -7 -241 -26 -248 -34 -5 -4 19 -88 29 -98 3 -5 49
5 100 21 52 16 168 47 259 68 149 35 160 39 125 46 -48 8 -126 8 -265 -3z"/>
</g>
</g>
<g transform="translate(0.000000,300.000000) scale(0.100000,-0.100000)"
fill="url(#grad_20)" stroke="none">
<g>
<path d="M2490 1897 l-55 -22 55 -5 55 -5 -53 -7 c-69 -9 -247 -96 -231 -112
2 -2 40 4 84 15 102 24 150 24 75 0 -78 -25 -173 -75 -260 -136 -81 -57 -173
-135 -167 -141 2 -3 29 7 61 21 82 36 81 31 -4 -19 -112 -65 -294 -199 -298
-219 -5 -24 23 -22 122 7 116 35 266 75 266 71 0 -2 -25 -17 -55 -34 -62 -35
-70 -49 -22 -43 38 4 358 108 402 129 30 15 30 15 -5 -16 l-35 -30 33 -1 c82
-1 310 101 375 168 l37 38 -19 49 c-10 28 -22 64 -25 81 -7 29 -4 32 31 46 21
9 71 23 111 33 40 9 71 19 69 22 -3 2 -51 -8 -107 -22 -56 -14 -105 -24 -107
-21 -13 12 11 38 81 86 42 29 76 54 76 57 0 6 -29 -12 -112 -71 l-76 -55 -27
35 c-14 19 -35 55 -46 79 l-20 45 -77 -1 c-55 0 -93 -6 -132 -22z"/>
</g>
</g>
<g transform="translate(0.000000,300.000000) scale(0.100000,-0.100000)"
fill="url(#grad_21)" stroke="none">
<g>
<path d="M3975 2663 c-266 -106 -451 -219 -922 -564 -51 -38 -51 -38 -40 -74
7 -25 16 -35 26 -32 9 2 124 71 256 154 132 82 289 178 349 212 121 70 404
211 424 211 15 0 15 -4 -3 58 -18 58 -25 61 -90 35z"/>
</g>
</g>
<g transform="translate(0.000000,300.000000) scale(0.100000,-0.100000)"
fill="url(#grad_22)" stroke="none">
<g>
<path d="M2845 2050 c-22 -5 -66 -18 -97 -30 -52 -19 -58 -24 -58 -50 0 -16 4
-31 9 -34 5 -3 59 13 120 36 98 36 112 43 109 62 -3 24 -24 28 -83 16z"/>
</g>
</g>
<g transform="translate(0.000000,300.000000) scale(0.100000,-0.100000)"
fill="url(#grad_23)" stroke="none">
<g>
<path d="M3086 1671 c-9 -15 -98 -80 -154 -113 l-42 -25 20 -26 21 -27 48 24
c45 23 151 111 151 124 0 4 -9 18 -19 31 -12 16 -20 20 -25 12z"/>
</g>
</g>
<g transform="translate(0.000000,300.000000) scale(0.100000,-0.100000)"
fill="url(#grad_24)" stroke="none">
<g>
<path d="M2811 1969 c-58 -21 -106 -41 -109 -43 -7 -7 35 -94 63 -130 l27 -35
67 47 c37 26 79 56 94 67 l27 20 -22 58 c-11 31 -26 57 -32 56 -6 0 -58 -18
-115 -40z"/>
</g>
</g>
<g transform="translate(0.000000,300.000000) scale(0.100000,-0.100000)"
fill="url(#grad_25)" stroke="none">
<g>
<path d="M3749 2357 c-49 -32 -71 -81 -66 -143 7 -93 74 -151 167 -142 87 9
140 69 140 160 0 86 -65 148 -156 148 -36 0 -61 -6 -85 -23z m174 -13 c80 -58
73 -195 -12 -239 -38 -19 -104 -19 -142 0 -92 48 -91 196 2 247 42 24 114 20
152 -8z"/>
</g>
</g>
<g transform="translate(0.000000,300.000000) scale(0.100000,-0.100000)"
fill="url(#grad_26)" stroke="none">
<g>
<path d="M3741 2304 c-12 -15 -21 -35 -21 -45 0 -14 6 -12 30 13 29 29 40 58
21 58 -5 0 -19 -12 -30 -26z"/>
</g>
</g>
<g transform="translate(0.000000,300.000000) scale(0.100000,-0.100000)"
fill="url(#grad_27)" stroke="none">
<g>
<path d="M3792 2333 c2 -12 16 -20 43 -24 22 -3 50 -12 63 -19 26 -17 52 -67
52 -102 1 -21 1 -22 11 -4 21 34 4 98 -35 133 -31 28 -43 33 -87 33 -43 0 -50
-3 -47 -17z"/>
</g>
</g>
<g transform="translate(0.000000,300.000000) scale(0.100000,-0.100000)"
fill="url(#grad_28)" stroke="none">
<g>
<path d="M2947 1760 c-82 -22 -127 -40 -127 -50 0 -20 42 -137 56 -155 15 -20
15 -20 57 4 59 34 147 100 153 115 6 16 -44 106 -59 105 -7 0 -43 -9 -80 -19z"/>
</g>
</g>
</svg>
