<?xml version="1.0" standalone="no"?><!DOCTYPE svg PUBLIC "-//W3C//DTD SVG 20010904//EN" "http://www.w3.org/TR/2001/REC-SVG-20010904/DTD/svg10.dtd"><svg version="1.0" xmlns="http://www.w3.org/2000/svg" width="285pt" height="430pt" viewBox="0 0 285 430" preserveAspectRatio="xMidYMid meet"><defs><linearGradient id="linear-gradient-1-1" x1="0.00%" y1="100.00%" x2="41.47%" y2="-12.12%"><stop offset="0%" style="stop-color:rgb(96,82,84);stop-opacity:1.000" /><stop offset="100%" style="stop-color:rgb(0,0,0);stop-opacity:1.000" /></linearGradient><linearGradient id="linear-gradient-2-1" x1="0.00%" y1="100.00%" x2="0.00%" y2="0.00%"><stop offset="0%" style="stop-color:rgb(98,73,247);stop-opacity:0.872" /><stop offset="100%" style="stop-color:rgb(250,16,227);stop-opacity:0.717" /></linearGradient><linearGradient id="linear-gradient-2-2" x1="0.00%" y1="100.00%" x2="26.45%" y2="-123.71%"><stop offset="0%" style="stop-color:rgb(68,69,70);stop-opacity:0.759" /><stop offset="100%" style="stop-color:rgb(72,73,74);stop-opacity:0.796" /></linearGradient><linearGradient id="linear-gradient-3-1" x1="0.00%" y1="100.00%" x2="152.04%" y2="23.59%"><stop offset="0%" style="stop-color:rgb(194,236,251);stop-opacity:0.381" /><stop offset="100%" style="stop-color:rgb(193,255,255);stop-opacity:0.180" /></linearGradient><linearGradient id="linear-gradient-4-1" x1="0.00%" y1="100.00%" x2="1.02%" y2="-71.41%"><stop offset="0%" style="stop-color:rgb(68,69,69);stop-opacity:0.810" /><stop offset="100%" style="stop-color:rgb(70,70,71);stop-opacity:0.827" /></linearGradient></defs><g id="layer-1"><path d="M689 3868 c-52 -39 -71 -60 -103 -113 l-24 -40 -3 -1585 c-2 -872 1 -1596 5 -1610 11 -30 64 -110 85 -127 9 -7 39 -26 67 -43 l51 -30 662 0 662 0 52 26 c68 34 93 58 125 119 l27 50 7 1200 c4 660 8 1237 8 1283 0 45 1 118 1 162 0 44 0 117 0 163 0 45 -3 155 -8 244 -8 158 -9 162 -38 205 -37 52 -117 114 -158 122 -16 3 -332 6 -701 6 l-672 0 -45 -32z" fill="url(#linear-gradient-1-1)" id="region-1-1" transform="translate(0.000000,430.000000) scale(0.100000,-0.100000)"/></g><g id="layer-2"><path d="M680 2115 l0 -1275 750 0 750 0 2 248 c2 136 2 709 0 1275 l-2 1027 -750 0 -750 0 0 -1275z" fill="url(#linear-gradient-2-1)" id="region-2-1" transform="translate(0.000000,430.000000) scale(0.100000,-0.100000)"/><path d="M1278 623 l-58 -4 0 -52 c0 -83 -3 -82 184 -85 107 -2 172 1 185 8 18 9 21 20 21 69 l0 58 -77 7 c-75 6 -143 6 -255 -1z" fill="url(#linear-gradient-2-2)" id="region-2-2" transform="translate(0.000000,430.000000) scale(0.100000,-0.100000)"/></g><g id="layer-3"><path d="M1400 3893 c0 -8 66 -235 81 -278 6 -16 24 -75 41 -130 99 -329 647 -2102 682 -2210 24 -71 54 -170 67 -218 l24 -88 7 973 c4 535 8 1010 8 1056 0 45 1 118 1 162 0 44 0 117 0 163 0 45 -3 155 -8 244 -8 158 -9 162 -38 205 -37 52 -117 114 -158 122 -41 8 -707 8 -707 -1z" fill="url(#linear-gradient-3-1)" id="region-3-1" transform="translate(0.000000,430.000000) scale(0.100000,-0.100000)"/></g><g id="layer-4"><path d="M1187 3653 c-15 -15 -6 -43 16 -48 12 -3 123 -4 247 -3 211 3 225 4 228 22 2 10 -2 22 -10 27 -15 10 -471 12 -481 2z" fill="url(#linear-gradient-4-1)" id="region-4-1" transform="translate(0.000000,430.000000) scale(0.100000,-0.100000)"/></g></svg>