<?xml version="1.0" standalone="no"?>
<!DOCTYPE svg PUBLIC "-//W3C//DTD SVG 20010904//EN"
 "http://www.w3.org/TR/2001/REC-SVG-20010904/DTD/svg10.dtd">
<svg version="1.0" xmlns="http://www.w3.org/2000/svg"
 width="285.000000pt" height="430.000000pt" viewBox="0 0 285.000000 430.000000"
 preserveAspectRatio="xMidYMid meet">
<defs>
<linearGradient id="grad_0" x1="100%" y1="100%" x2="29%" y2="-17%">
<stop offset="0%" style="stop-color:rgb(250, 250, 250); stop-opacity:1"/>
<stop offset="100%" style="stop-color:rgb(253, 253, 253); stop-opacity:1"/>
</linearGradient>
<linearGradient id="grad_1" x1="87%" y1="0%" x2="73%" y2="104%">
<stop offset="0%" style="stop-color:rgb(0, 0, 0); stop-opacity:1"/>
<stop offset="100%" style="stop-color:rgb(134, 133, 138); stop-opacity:1"/>
</linearGradient>
<linearGradient id="grad_2" x1="0%" y1="0%" x2="83%" y2="109%">
<stop offset="0%" style="stop-color:rgb(243, 11, 120); stop-opacity:1"/>
<stop offset="100%" style="stop-color:rgb(31, 73, 255); stop-opacity:1"/>
</linearGradient>
<linearGradient id="grad_3" x1="0%" y1="80%" x2="100%" y2="80%">
<stop offset="0%" style="stop-color:rgb(0, 0, 0); stop-opacity:0.35556"/>
<stop offset="100%" style="stop-color:rgb(0, 0, 0); stop-opacity:0.35556"/>
</linearGradient>
<linearGradient id="grad_4" x1="0%" y1="20%" x2="100%" y2="20%">
<stop offset="0%" style="stop-color:rgb(0, 0, 0); stop-opacity:0.91561"/>
<stop offset="100%" style="stop-color:rgb(0, 0, 0); stop-opacity:0.91561"/>
</linearGradient>
<linearGradient id="grad_5" x1="100%" y1="0%" x2="123%" y2="98%">
<stop offset="0%" style="stop-color:rgb(255, 255, 255); stop-opacity:0.0632983"/>
<stop offset="100%" style="stop-color:rgb(255, 255, 255); stop-opacity:0.435595"/>
</linearGradient>
<linearGradient id="grad_6" x1="100%" y1="92%" x2="91%" y2="-71%">
<stop offset="0%" style="stop-color:rgb(36, 36, 36); stop-opacity:1.28849"/>
<stop offset="100%" style="stop-color:rgb(36, 36, 36); stop-opacity:1.38628"/>
</linearGradient>
</defs>
<g transform="translate(0.000000,430.000000) scale(0.100000,-0.100000)"
fill="url(#grad_0)" stroke="none">
<g>
<path d="M0 2150 l0 -2150 1425 0 1425 0 0 2150 0 2150 -1425 0 -1425 0 0
-2150z"/>
</g>
</g>
<g transform="translate(0.000000,430.000000) scale(0.100000,-0.100000)"
fill="url(#grad_1)" stroke="none">
<g>
<path d="M689 3868 c-52 -39 -71 -60 -103 -113 l-24 -40 -3 -1585 c-2 -872 1
-1596 5 -1610 11 -30 64 -110 85 -127 9 -7 39 -26 67 -43 l51 -30 662 0 662 0
52 26 c68 34 93 58 125 119 l27 50 7 1200 c4 660 8 1237 8 1283 0 45 1 118 1
162 0 44 0 117 0 163 0 45 -3 155 -8 244 -8 158 -9 162 -38 205 -37 52 -117
114 -158 122 -16 3 -332 6 -701 6 l-672 0 -45 -32z"/>
</g>
</g>
<g transform="translate(0.000000,430.000000) scale(0.100000,-0.100000)"
fill="url(#grad_2)" stroke="none">
<g>
<path d="M680 2115 l0 -1275 750 0 750 0 2 248 c2 136 2 709 0 1275 l-2 1027
-750 0 -750 0 0 -1275z"/>
</g>
</g>
<g transform="translate(0.000000,430.000000) scale(0.100000,-0.100000)"
fill="url(#grad_3)" stroke="none">
<g>
<path d="M1187 3653 c-15 -15 -6 -43 16 -48 12 -3 123 -4 247 -3 211 3 225 4
228 22 2 10 -2 22 -10 27 -15 10 -471 12 -481 2z"/>
</g>
</g>
<g transform="translate(0.000000,430.000000) scale(0.100000,-0.100000)"
fill="url(#grad_4)" stroke="none">
<g>
<path d="M689 3868 c-52 -39 -71 -60 -103 -113 l-24 -40 -3 -1585 c-2 -872 1
-1596 5 -1610 11 -30 64 -110 85 -127 9 -7 39 -26 67 -43 l51 -30 662 0 662 0
57 29 c67 34 91 58 126 128 26 52 26 56 26 266 l0 214 -51 174 c-28 96 -55
181 -60 189 -5 9 -9 -85 -9 -232 l0 -248 -750 0 -750 0 0 1275 0 1275 436 0
c410 0 435 1 430 18 -2 9 -17 56 -32 105 l-26 87 -142 0 c-77 0 -147 4 -154 9
-8 5 -12 17 -10 27 3 17 16 19 144 24 l141 5 -35 118 -36 117 -331 0 -331 0
-45 -32z m844 -3244 l77 -7 0 -58 c0 -49 -3 -60 -21 -69 -13 -7 -78 -10 -185
-8 -187 3 -184 2 -184 85 l0 52 58 4 c112 7 180 7 255 1z"/>
</g>
</g>
<g transform="translate(0.000000,430.000000) scale(0.100000,-0.100000)"
fill="url(#grad_5)" stroke="none">
<g>
<path d="M1554 3373 c3 -10 143 -463 311 -1008 168 -545 307 -994 309 -1000 3
-5 5 448 5 1008 l1 1017 -316 0 c-296 0 -315 -1 -310 -17z"/>
</g>
</g>
<g transform="translate(0.000000,430.000000) scale(0.100000,-0.100000)"
fill="url(#grad_6)" stroke="none">
<g>
<path d="M1278 623 l-58 -4 0 -52 c0 -83 -3 -82 184 -85 107 -2 172 1 185 8
18 9 21 20 21 69 l0 58 -77 7 c-75 6 -143 6 -255 -1z"/>
</g>
</g>
</svg>
