<?xml version="1.0" encoding="utf-8"?>
<!-- Generator: Adobe Illustrator 26.5.0, SVG Export Plug-In . SVG Version: 6.00 Build 0)  -->
<svg version="1.1" xmlns="http://www.w3.org/2000/svg" xmlns:xlink="http://www.w3.org/1999/xlink" x="0px" y="0px"
	 viewBox="0 0 920 800" style="enable-background:new 0 0 920 800;" xml:space="preserve">
<style type="text/css">
	.st0{fill:none;}
	.st1{fill:#D3D3D3;}
	.st2{fill:url(#SVGID_1_);}
	.st3{fill:url(#region-1-1_00000125575016883564541950000005170513225051364020_);}
	.st4{fill:url(#region-1-2_00000171703461961785574330000008056760718226276795_);}
	.st5{fill:url(#region-2-1_00000118379654680080766650000007597385249394058652_);}
	.st6{fill:url(#region-2-2_00000134954608758725909300000016143056105983202237_);}
	.st7{fill:url(#region-2-3_00000049207364611887592290000011771684694836360864_);}
	.st8{fill:url(#region-2-4_00000026138589779708392240000013727274160196183222_);}
	.st9{fill:url(#region-2-5_00000093147942736572809740000004036661123726254254_);}
	.st10{fill:url(#region-2-6_00000148645627223379950540000009607282546717382836_);}
	.st11{fill:url(#region-2-7_00000047021995393968343480000009098554642399660184_);}
	.st12{fill:url(#region-2-8_00000090990399411528008170000002457668064042373055_);}
	.st13{fill:url(#region-2-9_00000134930630582406647080000006680465369242195864_);}
	.st14{fill:url(#region-2-10_00000059294943931394977500000010557997723997124245_);}
	.st15{fill:url(#region-2-11_00000178182282790520336750000001202445826153010052_);}
	.st16{fill:url(#region-2-12_00000129191196787555731900000011352181739577831592_);}
	.st17{fill:url(#region-2-13_00000128482276988173945850000000068861408041233846_);}
	.st18{fill:url(#region-2-14_00000151529422258498392460000003309769818906266509_);}
	.st19{fill:url(#region-2-15_00000021831921512340307390000009994773474428444568_);}
	.st20{fill:url(#region-2-16_00000018959529225171225620000015868517184843605667_);}
	.st21{fill:url(#region-2-17_00000180329506413591635450000002182119872851410850_);}
	.st22{fill:url(#region-2-18_00000129189512744899475530000017647568209860081287_);}
	.st23{fill:url(#region-2-19_00000147209162989889584330000016997021411910645391_);}
	.st24{fill:url(#region-2-20_00000112627730952641825230000005462616405954923151_);}
	.st25{fill:url(#region-2-21_00000049195719031484283450000008281098529893765007_);}
	.st26{fill:url(#region-2-22_00000005957148927248665580000012973875388054690985_);}
	.st27{fill:url(#region-3-1_00000075853124196757141400000006322704716839181232_);}
	.st28{fill:url(#region-3-2_00000064339654613354502050000016461305639188193688_);}
	.st29{fill:url(#region-3-3_00000183237647233719642030000018017682897116434592_);}
	.st30{fill:url(#region-3-4_00000097467033007661617810000012592453213649421470_);}
	.st31{fill:url(#region-3-5_00000000206756725799013570000002846878463663032449_);}
	.st32{fill:url(#region-3-6_00000016054851242940126460000000650296450380590252_);}
	.st33{fill:url(#region-3-7_00000090974277452554999200000010163719857057601669_);}
	.st34{fill:url(#region-3-8_00000129176903395009017480000007544820667781370016_);}
	.st35{fill:url(#region-1-1_00000071549484059243836530000000344604206180864664_);}
	.st36{fill:url(#region-1-2_00000172414971178806108920000013414408083783292585_);}
	.st37{fill:url(#region-2-1_00000163065506512822251820000009564180423205354674_);stroke:#000000;stroke-miterlimit:10;}
	.st38{fill:url(#region-2-2_00000143601453623913342110000011292571987709058705_);}
	.st39{fill:url(#region-2-3_00000016070274214086465010000001001998569321458349_);stroke:#000000;stroke-miterlimit:10;}
	.st40{fill:url(#region-2-4_00000155134440352245987950000008960792398562952331_);}
	.st41{fill:url(#region-2-5_00000075872723338422101910000007912434268751360923_);}
	.st42{fill:url(#region-2-6_00000047056033677295363470000003226596653596108464_);}
	.st43{fill:url(#region-2-7_00000049220669731187111780000005908488496168127375_);stroke:#000000;stroke-miterlimit:10;}
	.st44{fill:url(#region-2-8_00000000922391726033932080000014718167666235739520_);}
	.st45{fill:url(#region-2-9_00000052807318314572243550000010467601834082518419_);}
	.st46{fill:url(#region-2-10_00000163071613561045448840000004311987059942763675_);stroke:#000000;stroke-miterlimit:10;}
	.st47{fill:url(#region-2-11_00000049916169712854150700000009008774675018827676_);}
	.st48{fill:url(#region-2-12_00000125571290973673044770000009641128345393932689_);}
	.st49{fill:url(#region-2-13_00000066505819980357258590000002145321631119444396_);}
	.st50{fill:url(#region-2-14_00000170267875994130849720000015190509313763587750_);stroke:#000000;stroke-miterlimit:10;}
	.st51{fill:url(#region-2-15_00000075151050897233189740000001559298432267840133_);stroke:#000000;stroke-miterlimit:10;}
	.st52{fill:url(#region-2-16_00000179634633744930567570000004213115415960150925_);stroke:#000000;stroke-miterlimit:10;}
	.st53{fill:url(#region-2-17_00000063608147664722175640000012091723285571439250_);stroke:#000000;stroke-miterlimit:10;}
	.st54{fill:url(#region-2-18_00000093137942126707197400000007464832851934582677_);stroke:#000000;stroke-miterlimit:10;}
	.st55{fill:url(#region-2-19_00000174581812596450808440000001261033441829075120_);stroke:#000000;stroke-miterlimit:10;}
	.st56{fill:url(#region-2-20_00000169521719379207756600000007872691955639377545_);}
	.st57{fill:url(#region-2-21_00000070800342247201908580000000420084898729999507_);}
	.st58{fill:url(#region-2-22_00000031166102805702830400000007520008361909807253_);}
	.st59{fill:url(#region-3-1_00000070101907424243323100000005094598633935068604_);}
	.st60{fill:url(#region-3-2_00000016036407802478508400000017239602946625736889_);}
	.st61{fill:url(#region-3-3_00000096764312679312909580000012285069895673479068_);}
	.st62{fill:url(#region-3-4_00000139282475471373406470000009080824101558179241_);stroke:#000000;stroke-miterlimit:10;}
	.st63{fill:url(#region-3-5_00000163787379043591283050000004293126194204730528_);stroke:#000000;stroke-miterlimit:10;}
	.st64{fill:url(#region-3-6_00000183236890601111912820000006072567794474288292_);stroke:#000000;stroke-miterlimit:10;}
	.st65{fill:url(#region-3-7_00000145765255218568418370000011716546351911033226_);}
	.st66{fill:url(#region-3-8_00000003063610532377265380000009251141727558363314_);}
	.st67{fill:none;stroke:#000000;stroke-width:2;stroke-miterlimit:10;}
	.st68{fill:none;stroke:#000000;stroke-miterlimit:10;}
</style>
<pattern  width="40" height="40" patternUnits="userSpaceOnUse" id="a2ed1d96-aebd-4bf9-a4b3-645f1ac" viewBox="0 -40 40 40" style="overflow:visible;">
	<g>
		<rect y="-40" class="st0" width="40" height="40"/>
		<rect y="-40" class="st0" width="40" height="40"/>
		<rect y="-40" class="st1" width="20" height="20"/>
		<rect x="20" y="-20" class="st1" width="20" height="20"/>
	</g>
</pattern>
<g id="图层_1">
	<pattern  id="SVGID_1_" xlink:href="#a2ed1d96-aebd-4bf9-a4b3-645f1ac" patternTransform="matrix(1 0 0 1 -58 260.24)">
	</pattern>
	<rect class="st2" width="920" height="800"/>
</g>
<g id="图层_3">
	<g id="layer-1">
		
			<linearGradient id="region-1-1_00000148659485435045060050000011171393330546782606_" gradientUnits="userSpaceOnUse" x1="1.1476" y1="800.8168" x2="1.6917" y2="801.1608" gradientTransform="matrix(886 0 0 365.3 -885 -292239)">
			<stop  offset="0" style="stop-color:#98CDD7;stop-opacity:0.993"/>
			<stop  offset="1" style="stop-color:#B6FCFF;stop-opacity:0.993"/>
		</linearGradient>
		<path id="region-1-1" style="fill:url(#region-1-1_00000148659485435045060050000011171393330546782606_);" d="M158.6,364.1v82.2
			l2.1,0c1.1,0,2.4,0.1,2.9,0.2c12.8,3.6,55.1,13.8,68.2,16.5c9.4,1.9,8.4,2.1,8.8-2.1c0.5-5.5,2.1-6.6,4.9-3.4
			c0.8,0.9,1.6,1.8,1.7,1.8s0.4-2.1,0.5-4.6c0.4-7.3,2.2-11.2,4.9-10.7c1.2,0.2,1.4,0.1,1.9-1.8c1.1-4.5,3.7-11.8,5.1-14.6
			c2-4.1,3.6-6.1,5.7-7.1c1.6-0.8,1.9-0.8,3.5,0c0.9,0.5,2.4,1.8,3.3,3c3.9,5.3,9.1,17,11.5,25.2c0.6,2.1,1.3,4.2,1.5,4.6
			c0.2,0.5,0.9,3.2,1.5,6l1.2,5.2l4.8-0.1c2.6,0,10.7-0.3,18-0.5c7.3-0.3,19.5-0.7,27.2-1c12.9-0.4,19.1-0.6,51.2-2
			c6.4-0.2,18.8-0.7,27.2-1c8.5-0.2,21.6-0.8,29-1.1c42-1.6,110.8-3,135.1-2.8l21.1,0.2v-87.2v-87.2H380.1H158.6V364.1z"/>
		
			<linearGradient id="region-1-2_00000145059258544646350250000011233379034860629638_" gradientUnits="userSpaceOnUse" x1="1.4185" y1="800.5183" x2="1.4345" y2="801.0746" gradientTransform="matrix(886 0 0 271.8877 -885 -217233.0312)">
			<stop  offset="0" style="stop-color:#9AC345"/>
			<stop  offset="1" style="stop-color:#98BF49"/>
		</linearGradient>
		<path id="region-1-2" style="fill:url(#region-1-2_00000145059258544646350250000011233379034860629638_);" d="M264.7,420.9
			c-3.4,2-7.1,9.9-10.1,21.4c-0.5,1.9-0.7,2.1-1.9,1.8c-2.7-0.5-4.5,3.4-4.9,10.7c-0.1,2.5-0.4,4.6-0.5,4.6s-0.9-0.8-1.7-1.8
			c-2.9-3.2-4.4-2.1-4.9,3.4c-0.3,4.2,0.7,4-8.8,2.1c-12.5-2.5-26-5.7-49-11.6c-10.2-2.6-19.8-4.8-21.4-5l-2.9-0.3v54.8v54.8h221.5
			h221.5v-49.6v-49.7l-6.8-0.3c-17.6-0.9-96.1,0.5-149.6,2.6c-7.3,0.2-20.2,0.8-28.8,1c-8.5,0.3-20.8,0.8-27.2,1
			c-32.1,1.4-38.3,1.6-51.2,2c-7.7,0.3-20,0.7-27.2,1c-7.3,0.2-15.4,0.5-18,0.5l-4.8,0.1l-1.2-5.2c-0.6-2.8-1.4-5.5-1.5-6
			c-0.2-0.4-0.9-2.5-1.5-4.6c-3.2-11.4-10.4-25.5-14.1-27.9C267.4,419.6,266.7,419.6,264.7,420.9z"/>
	</g>
	<g id="layer-2">
		
			<linearGradient id="region-2-1_00000109015616117473181220000017832536478823958432_" gradientUnits="userSpaceOnUse" x1="-2.0235" y1="811.1927" x2="-1.8564" y2="811.9568" gradientTransform="matrix(76 0 0 24 721 -19176)">
			<stop  offset="0" style="stop-color:#FFFFFF;stop-opacity:0.817"/>
			<stop  offset="1" style="stop-color:#FFFFFF;stop-opacity:0.804"/>
		</linearGradient>
		<path id="region-2-1" style="fill:url(#region-2-1_00000109015616117473181220000017832536478823958432_);" d="M570.3,294.1
			c-1.1,0.4-2.8,1.6-3.8,2.6c-1.5,1.8-1.9,2-3.4,1.8c-3.3-0.5-6.6,2-6.6,5.1v1.7h19c16.8,0,19-0.1,19-0.8c0-1.4-2.3-3.2-3.9-3.2
			c-1.1,0-1.8-0.4-2.3-1.2c-1-1.6-3.7-2.8-6.1-2.8c-1.3,0-2.1-0.3-2.5-1c-0.8-1.1-4.5-3-6.2-3C572.9,293.4,571.4,293.7,570.3,294.1z
			"/>
		
			<linearGradient id="region-2-2_00000182503917757755594170000004963575191014470053_" gradientUnits="userSpaceOnUse" x1="2.0555" y1="801.5269" x2="2.0555" y2="802.0269" gradientTransform="matrix(158.7196 0 0 172.9672 -98.2196 -138339.2656)">
			<stop  offset="0" style="stop-color:#88A700;stop-opacity:0.629"/>
			<stop  offset="1" style="stop-color:#83990B;stop-opacity:0.824"/>
		</linearGradient>
		<path id="region-2-2" style="fill:url(#region-2-2_00000182503917757755594170000004963575191014470053_);" d="M217,298.9
			c-3.2,0.5-4.2,1.1-8.4,5.2c-4.1,3.9-6.4,5-9.4,4.5c-1.8-0.3-8.1-2.5-9.6-3.2c-1-0.5-1.2,1.6-1.2,12c0,10.9,2,18.2,6.8,25
			c3.8,5.4,3.9,5.6,3.9,8.1c0,1.3-0.4,3.8-0.8,5.8c-0.4,1.8-0.9,5.4-0.9,7.9c-0.1,3.9,0.2,4.9,1.2,7.4c2,4.3,5.4,7.6,10.1,9.8
			c6.1,2.9,10.1,3.8,17.1,3.8c5.3,0,6.2-0.1,8.4-1.2c3.6-1.8,6.6-5.1,10.8-12.1c5-8.4,7.5-10.9,13.5-13.8c4.5-2.1,9.9-6.3,9-6.9
			c-0.2-0.1-1.1-1.6-2.1-3.1c-2.5-4.4-7.2-9.9-10.6-12.5c-1.7-1.2-5.6-3.5-8.6-4.9c-8.5-4-10.4-6.7-13.5-19.4
			c-2-7.9-3.5-11-5.6-11.8C225.2,298.7,219.7,298.4,217,298.9z"/>
		
			<linearGradient id="region-2-3_00000047745411824586368820000017802978388738927291_" gradientUnits="userSpaceOnUse" x1="1.8846" y1="811.3635" x2="1.9107" y2="811.943" gradientTransform="matrix(77 0 0 23.162 138 -18493.7324)">
			<stop  offset="0" style="stop-color:#FFFFFF;stop-opacity:0.827"/>
			<stop  offset="1" style="stop-color:#FFFFFF;stop-opacity:0.815"/>
		</linearGradient>
		<path id="region-2-3" style="fill:url(#region-2-3_00000047745411824586368820000017802978388738927291_);" d="M280.2,299.5
			c-1.5,0.3-2.6,1-4.1,2.6c-1.9,2.1-2.2,2.2-4.8,2.2c-2.4,0-2.9,0.1-4.2,1.8c-1,1.1-1.5,2.3-1.5,3.2v1.5h19.2
			c10.6,0,19.2-0.2,19.2-0.5c0-1.1-2.2-3-3.9-3.4c-1-0.2-2.7-1-3.7-1.9c-1.8-1.6-5.3-2.7-6.4-2.1c-0.3,0.2-0.8-0.1-1-0.6
			C287.9,300.2,283.7,298.8,280.2,299.5z"/>
		
			<linearGradient id="region-2-4_00000131353568963588742170000015217667699771321248_" gradientUnits="userSpaceOnUse" x1="0.3284" y1="801.3115" x2="0.6456" y2="801.8613" gradientTransform="matrix(217.6419 0 0 195.6974 408.4573 -156517.625)">
			<stop  offset="0" style="stop-color:#829B00;stop-opacity:0.698"/>
			<stop  offset="1" style="stop-color:#839D0C;stop-opacity:0.825"/>
		</linearGradient>
		<path id="region-2-4" style="fill:url(#region-2-4_00000131353568963588742170000015217667699771321248_);" d="M511.7,302.1
			c-3.7,0.9-7.8,2.6-10.7,4.7c-2.2,1.6-7.6,6.4-6.5,5.8c0.5-0.2,0.5,0.1,0.2,1.9c-0.9,4.7-0.4,8.4,1.9,14.9c2,6,2.1,6.4,1.6,9
			c-0.7,3.3-3.8,8.1-8.5,13c-3.5,3.6-5,4.7-9.9,6.5c-5,1.9-7.1,4.5-8.2,10.3c-0.4,1.7-0.6,5.1-0.4,7.5c0.3,8,3.9,13.2,10,14.6
			c3.9,0.9,5.1,1.8,7.4,4.7c2.4,3.2,4.4,4.3,8.1,4.3c3.2,0,6.6-1.5,11.4-5c9.1-6.6,16.5-7.9,32.5-6c17.6,2.1,25.9,0.8,32.9-5.2
			c2.8-2.4,5.3-7.6,6.1-12.4c0.7-3.8,0.4-13.6-0.4-16.6c-0.7-2.4-4.8-3.8-12.5-4.2c-6.6-0.4-7.7-0.8-9.8-3.8
			c-0.9-1.1-1.1-2.4-1.4-8.9c-0.4-8.1-1.4-13.2-3.6-18.2c-3.6-7.8-9.6-13.1-17.9-15.9c-3.8-1.2-5-1.4-11.7-1.6
			C517.1,301.4,513.9,301.6,511.7,302.1z"/>
		
			<linearGradient id="region-2-5_00000060723023607456193000000008379141454402616711_" gradientUnits="userSpaceOnUse" x1="1.7126" y1="801.2415" x2="2.2152" y2="801.7407" gradientTransform="matrix(193.033 0 0 212.3769 -162.033 -169854.9688)">
			<stop  offset="0" style="stop-color:#7D9200;stop-opacity:0.626"/>
			<stop  offset="1" style="stop-color:#7F9918;stop-opacity:0.844"/>
		</linearGradient>
		<path id="region-2-5" style="fill:url(#region-2-5_00000060723023607456193000000008379141454402616711_);" d="M184.3,304.8
			c-7.4,1.8-10.7,9.5-10.7,24.7c0,13.5,3.1,24.3,9.3,32.4c1.4,1.8,2.8,3.8,3.1,4.4c0.9,1.5,0.8,4.3-0.4,9.4
			c-2.7,12.5-1.4,19,5.1,25.4c3.7,3.7,9.5,6.8,15.2,8.1c1.9,0.4,4.3,1,5.3,1.4c2.6,0.8,13.2,0.2,15.9-0.8c5.1-1.9,9.1-6.4,15.1-16.5
			c4.6-7.9,8.7-11.9,14.9-14.5c5.8-2.4,9-5.1,11.2-9.6c2.1-4.4,2.5-10,0.9-14.3c-0.6-1.6-1.2-2.9-1.5-2.9c-0.2,0-1.1,0.8-2.1,1.8
			c-1,1.1-3.8,2.8-6.7,4.2c-6.3,3-8.7,5.4-13.8,13.9c-4.2,7-7.2,10.3-10.8,12.1c-2.2,1.1-3.1,1.2-8.4,1.2c-7-0.1-10.9-0.9-17.1-3.8
			c-4.8-2.2-8.1-5.5-10.1-9.8c-1.1-2.5-1.3-3.5-1.2-7.4c0-2.5,0.4-6.1,0.9-7.9c0.4-1.9,0.8-4.5,0.8-5.8c0-2.5-0.1-2.7-3.9-8
			c-4.6-6.5-6.6-13.3-6.9-23.6c-0.2-3.7-0.1-8.1,0.2-9.9c0.2-1.7,0.3-3.4,0.1-3.6C188.2,304.7,186,304.4,184.3,304.8z"/>
		
			<linearGradient id="region-2-6_00000086667625763410836430000018358796802384817585_" gradientUnits="userSpaceOnUse" x1="0.7481" y1="801.1342" x2="0.7481" y2="801.6342" gradientTransform="matrix(270.8015 0 0 220.6125 317.1985 -176427.7344)">
			<stop  offset="0" style="stop-color:#798D00;stop-opacity:0.771"/>
			<stop  offset="1" style="stop-color:#7D9518;stop-opacity:0.806"/>
		</linearGradient>
		<path id="region-2-6" style="fill:url(#region-2-6_00000086667625763410836430000018358796802384817585_);" d="M493.5,313.8
			c-4.1,4.4-9.1,15.4-11.2,24.8c-1.4,6.6-1.9,7.7-3.8,10.3c-1.6,2.2-4.2,3.8-8.3,4.8c-4.1,1.1-7.2,3-10.4,6.2
			c-5,5.2-7.7,13.5-7.8,23.2c0,9.7,2.4,14.5,9.8,20c2,1.4,4.6,3.9,5.8,5.4c6.8,8.2,12.4,12,20.1,13.6c11.2,2.3,25.6-0.8,35-7.5
			c1.3-0.9,2.5-1.7,2.7-1.7c0.1,0,1.6-0.9,3.3-2.1c4-2.6,6.5-3,16.6-2.6c15.1,0.6,27.1-2,33.8-7.3c2.6-2.1,5.8-7,6.9-11
			c1.3-4.1,1.8-11.6,1.1-16.5c-0.3-2.1-0.8-5.6-1.1-7.7c-0.6-5-2-8.1-4.5-10.5c-1.1-1.1-2.1-1.9-2.2-1.7c-0.1,0.1,0,1.9,0.2,4
			c2.1,17.9-3.4,28-17.1,31.2c-4.3,1-12.1,0.9-21.9-0.2c-16-1.9-23.4-0.6-32.5,6c-4.8,3.5-8.2,5-11.4,5c-3.7,0-5.7-1.1-8.1-4.3
			c-2.2-2.9-3.5-3.8-7.4-4.7c-3.9-0.9-6.2-2.9-8.2-6.8c-1.4-2.8-1.7-4-1.8-7.8c-0.2-2.5,0-5.9,0.4-7.5c1.1-5.8,3.2-8.5,8.2-10.3
			c4.9-1.9,6.4-2.9,9.9-6.5c4.6-4.9,7.8-9.7,8.5-13c0.5-2.6,0.4-3-1.5-8.8c-2.5-7.1-2.9-10-2.2-14c0.3-1.6,0.5-3,0.4-3.1
			C494.8,312.5,494.2,313,493.5,313.8z"/>
		
			<linearGradient id="region-2-7_00000034774224407623339490000000048471421330691985_" gradientUnits="userSpaceOnUse" x1="1.4703" y1="806.2732" x2="1.4703" y2="806.7732" gradientTransform="matrix(124.7877 0 0 37.9087 136.4247 -30239.8965)">
			<stop  offset="0" style="stop-color:#FFFFFF;stop-opacity:0.816"/>
			<stop  offset="1" style="stop-color:#FFFFFF;stop-opacity:0.828"/>
		</linearGradient>
		<path id="region-2-7" style="fill:url(#region-2-7_00000034774224407623339490000000048471421330691985_);" d="M320.3,325.3
			c-2.7,0.7-5.2,2.1-7,4.1c-1.6,1.8-1.9,1.9-4.7,1.9c-3.7,0-7,1.5-9.2,4.2c-1.3,1.6-1.9,2-3.4,2c-2.4,0-5,1.4-6.4,3.5
			c-2.2,3.2-4.1,3,30.1,3h31.2v-1.6c-0.1-3.7-3.1-7.7-6.8-8.9c-1.8-0.6-5-0.5-6.8,0.2c-0.5,0.2-0.9,0-1.3-0.8
			c-1.9-4-7.9-7.9-12.1-7.8C322.8,325,321.2,325.1,320.3,325.3z"/>
		
			<linearGradient id="region-2-8_00000059994700522268280130000011655193904181465760_" gradientUnits="userSpaceOnUse" x1="0.9719" y1="801.5233" x2="0.9719" y2="802.0233" gradientTransform="matrix(105.1873 0 0 146.532 269.5128 -117109.2812)">
			<stop  offset="0" style="stop-color:#687400;stop-opacity:0.695"/>
			<stop  offset="1" style="stop-color:#666F00;stop-opacity:0.825"/>
		</linearGradient>
		<path id="region-2-8" style="fill:url(#region-2-8_00000059994700522268280130000011655193904181465760_);" d="M372.8,339.6
			c-0.2,0.1-1.1,0.3-1.9,0.4c-2.2,0.5-5.2,3.7-7.4,7.8c-1.5,2.8-2.6,4.2-4.4,5.6c-3,2.2-5.2,5.2-6.8,8.9c-1,2.6-1.1,3.6-1.2,12.4
			c0,5.2,0,9.9-0.1,10.4c-0.1,0.4-1.4,2.2-2.9,3.9l-2.8,3l0.3,4.1c0.5,5.6,1.6,9.2,3.4,11l1.5,1.5l5.1-0.3c2.8-0.1,8.3-0.4,12.2-0.6
			l7.1-0.3l3.9,2.9c3.8,2.8,3.9,2.8,6.6,2.6c1.5-0.2,3.7-0.7,4.8-1.2c3-1.6,5.9-5.2,6.9-8.5c1.3-4.6,0.8-7.2-2.8-13.8
			c-2.9-5.4-3-5.9-3-9.2c0-2.8,0.4-4.8,2-9.5c1.4-4.1,2-6.8,2-8.8c0-1.9,0.2-2.8,0.5-2.6c1,0.6-8.8-11.1-11.6-13.9
			C380.9,341.7,375.1,339,372.8,339.6z"/>
		
			<linearGradient id="region-2-9_00000086650727708804509050000004288976147220310402_" gradientUnits="userSpaceOnUse" x1="0.7572" y1="801.8069" x2="1.4559" y2="801.9998" gradientTransform="matrix(130.4372 0 0 123.2164 238.1256 -98418.1484)">
			<stop  offset="0" style="stop-color:#596903;stop-opacity:0.787"/>
			<stop  offset="1" style="stop-color:#515E00;stop-opacity:0.819"/>
		</linearGradient>
		<path id="region-2-9" style="fill:url(#region-2-9_00000086650727708804509050000004288976147220310402_);" d="M395.6,361.7
			c0,2-0.6,4.6-2,8.8c-1.6,4.7-2,6.7-2,9.5c0,3.3,0.1,3.8,3,9.2c3.5,6.6,4.1,9.2,2.8,13.8c-1,3.3-3.9,6.9-6.9,8.5
			c-1.1,0.5-3.3,1.1-4.8,1.2c-2.8,0.2-2.9,0.1-6.6-2.6l-3.9-2.9l-7.1,0.3c-4,0.2-9.5,0.5-12.2,0.6l-5.1,0.3l-1.5-1.5
			c-1.8-1.8-2.9-5.4-3.4-11l-0.3-4.2l-1.2,1.1c-1.9,1.8-2.4,5.2-1.4,9.2c1,4.3,2.5,6.9,5.4,9.6c5.9,5.4,17.8,8.7,31.6,8.8
			c5.7,0,7-0.1,10.5-1.2c11.2-3.7,17.2-10.5,17.2-19.5c0-5.4-0.6-7-4.3-10.9c-4.3-4.6-4.5-5.6-2.9-11.2c1.6-5.4,1.5-9.3-0.4-13.4
			c-1.1-2.3-3.5-5.4-4.1-5.4C395.7,358.9,395.6,360.2,395.6,361.7z"/>
		
			<linearGradient id="region-2-10_00000052810028121215501170000007228484551034193544_" gradientUnits="userSpaceOnUse" x1="0.2419" y1="801.5931" x2="0.3517" y2="802.2098" gradientTransform="matrix(197.5 0 0 93.9328 492 -74889.0625)">
			<stop  offset="0" style="stop-color:#90B12A;stop-opacity:0.569"/>
			<stop  offset="1" style="stop-color:#8CA400;stop-opacity:0.789"/>
		</linearGradient>
		<path id="region-2-10" style="fill:url(#region-2-10_00000052810028121215501170000007228484551034193544_);" d="M549.1,410.2
			c-1.3,0.4-3.5,2.8-4.5,4.6c-2.1,4.1-4,12.9-5,22.8c-0.3,3.3-0.6,7.2-0.8,8.7l-0.3,2.7l-1.5-1.5c-4.2-4-6.9-3.2-6.9,2.1v1.6l-1.3-2
			c-2.3-3.5-4.2-5.2-5.8-5.2c-1.1,0-1.5,0.3-1.8,1.4c-0.3,1.3,0.8,7.6,1.6,9.8c0.2,0.6-0.8,0.1-3.6-1.5c-4.8-2.9-11.5-5.2-14.4-5
			l-2,0.1l0,2.3c0,1.5,0.4,2.9,1.1,4.1l1.2,1.9l20.8-0.4c11.5-0.2,33.1-0.4,48.2-0.4h27.3v-14.9c0-13.5-0.1-15-0.8-14.7
			c-0.5,0.2-1.4,0.3-2.2,0.3c-1.2,0-1.6,0.4-3.1,3.4c-1,1.9-2.4,5.3-3.2,7.6l-1.4,4.2l-0.6-2.4c-0.3-1.4-0.8-3.1-1.1-3.8
			c-0.6-1.5-3-3.8-4.4-4.2c-1.8-0.5-4.2,1.5-5.4,4.4c-0.7,1.4-1.4,3.1-1.7,3.9c-0.5,1.2-0.5,1.2-0.5-0.6c-0.1-2.9-1.1-7.5-2.1-9.5
			c-1-2-2.4-2.8-3.8-2c-1.4,0.7-3.8,5.6-5.4,10.8l-1.4,4.4l-0.9-6c-2.1-14.8-6.2-24.4-11.3-26.5
			C550.5,409.8,550.2,409.8,549.1,410.2z"/>
		
			<linearGradient id="region-2-11_00000124144813771743210010000008050354023756561280_" gradientUnits="userSpaceOnUse" x1="2.2111" y1="801.5207" x2="2.2111" y2="802.0207" gradientTransform="matrix(160.6856 0 0 98.1757 -153.3713 -78276.4609)">
			<stop  offset="0" style="stop-color:#697500;stop-opacity:0.641"/>
			<stop  offset="1" style="stop-color:#697501;stop-opacity:0.822"/>
		</linearGradient>
		<path id="region-2-11" style="fill:url(#region-2-11_00000124144813771743210010000008050354023756561280_);" d="M176.4,414.3
			c-2.2,2.4-3.6,13.5-3.1,24.7c0.1,3.5,0.2,6.4,0.1,6.4c-0.1,0-0.9-1.2-1.9-2.6c-3.6-5.5-8.3-9.1-9.5-7.3c-0.9,1.3,0.7,9.6,2.1,10.9
			c0.6,0.6,8.6,2.8,23.3,6.4c20.5,5,25.4,6.2,37.3,8.9l3.9,0.9l2.1-1.4c7.4-4.9,11.4-9.1,11.4-12.3c0-1.6-0.2-2-1.2-2.5
			c-2-0.9-6.5,0.1-13,3l-5.7,2.5l-1.1-1.2c-1.3-1.4-2.9-1.5-5-0.4c-0.9,0.4-1.6,0.7-1.7,0.6c-0.1-0.1,0-1.2,0.3-2.6
			c0.5-2.5,0.2-4-0.6-5.1c-0.8-1-2.9,0.5-5.4,3.5c-1.2,1.6-2.2,2.8-2.4,2.8c-0.1,0-0.1-1.4,0.1-3c0.5-4-0.1-9-1.2-10.5
			c-2.1-2.8-4.8,0.1-7.4,7.8c-1.1,3.1-1.4,3.7-1.7,3c-0.2-0.6-1.4-3.7-2.8-7c-4.8-12.3-10.3-22.7-13.5-25.2
			C178.1,413.1,177.5,413.1,176.4,414.3z"/>
		
			<linearGradient id="region-2-12_00000136390742976935666480000009066416120456246407_" gradientUnits="userSpaceOnUse" x1="1.3049" y1="801.5078" x2="1.3395" y2="802.1844" gradientTransform="matrix(430.5432 0 0 96.3197 -177.3381 -76785.8047)">
			<stop  offset="0" style="stop-color:#667200;stop-opacity:0.642"/>
			<stop  offset="1" style="stop-color:#677100;stop-opacity:0.858"/>
		</linearGradient>
		<path id="region-2-12" style="fill:url(#region-2-12_00000136390742976935666480000009066416120456246407_);" d="M328.5,417.5
			c-4,2.6-6.8,12-7.3,24.6l-0.4,7l-1.4-3c-3.1-6.5-6.2-7.9-9.6-4.2c-1,1.1-2.2,3-2.7,4l-0.9,1.9l-2.2-2.2
			c-5.3-5.5-11.2-9.3-14.5-9.4c-3.8-0.1-5.2,3.1-4.8,10.7c0.5,6.4,0.7,8.1,2,13.2l1.1,4.4l4.7-0.1c2.6,0,10.7-0.3,18-0.5
			c7.3-0.3,19.5-0.7,27.2-1c13-0.5,19.9-0.7,51.2-2c6.4-0.2,18.9-0.7,27.5-1c8.6-0.3,21.2-0.8,28-1c6.8-0.3,21.4-0.8,32.5-1.1
			c14.2-0.3,20.4-0.7,20.9-1.1c1-1.1,2.3-7,1.9-9c-0.9-4.9-4.5-4.5-10.2,1l-2.4,2.4l-0.2-5.8c-0.5-8.8-2.2-13.9-5.6-16.9
			c-2.6-2.4-4-2.2-7.2,1.2c-3.3,3.4-6.6,9.8-10.2,19.9c-0.3,0.8-0.6,0.4-1.5-1.9c-0.6-1.6-1.4-3.2-1.8-3.6c-1.6-1.9-3.9,0-6.7,5.2
			l-1.7,3.2l-1.7-3.4c-0.9-1.9-2.6-4.4-3.8-5.6c-1.8-1.9-2.5-2.2-3.8-2c-1.9,0.2-3.4,2.1-4.6,6c-0.5,1.5-1,3-1.1,3.4
			c-0.1,0.4-0.8-1.1-1.5-3.5c-1.8-6-4-10.2-7.6-14.1c-6.3-6.8-11.8-7.2-17.5-1.3c-2.5,2.6-5.5,7.3-7.2,11.1
			c-0.6,1.5-1.3,2.8-1.5,2.8c-0.1,0-0.5-0.6-0.9-1.4c-0.9-2.1-4-6.1-5.1-6.7c-1.8-0.9-5.4,2.3-8.7,7.9c-0.6,0.9-1.1,1.6-1.4,1.6
			s-2.1,1.2-4.4,2.7l-3.9,2.7l-1.1-2.9c-2-5.5-4-5.8-7.9-1.1c-2.8,3.4-3.3,3.7-2.6,1.5c0.8-2.7,0.6-7.3-0.4-9
			c-0.9-1.4-3.4-2.9-4.8-2.9c-1,0-4.1,2.1-5.6,3.9c-0.6,0.8-2.1,2.9-3.1,4.9c-1,1.9-1.9,3.2-2,3c-0.1-0.3-0.6-2.8-1.2-5.6
			c-2.9-14.6-7.7-24.7-13.1-27.5C333.9,416,330.5,416.2,328.5,417.5z"/>
		
			<linearGradient id="region-2-13_00000007398079032108284590000008147730672950099089_" gradientUnits="userSpaceOnUse" x1="1.3867" y1="800.8191" x2="1.4917" y2="801.7686" gradientTransform="matrix(886 0 0 169.5567 -885 -135368.2344)">
			<stop  offset="0" style="stop-color:#757F24;stop-opacity:0.425"/>
			<stop  offset="1" style="stop-color:#72901F;stop-opacity:0.569"/>
		</linearGradient>
		<path id="region-2-13" style="fill:url(#region-2-13_00000007398079032108284590000008147730672950099089_);" d="M264.7,420.9
			c-3.4,2-7.1,9.9-10.1,21.4c-0.5,1.9-0.7,2.1-1.9,1.8c-2.7-0.5-4.5,3.4-4.9,10.7c-0.1,2.5-0.4,4.6-0.5,4.6s-0.9-0.8-1.7-1.8
			c-2.9-3.2-4.4-2.1-4.9,3.4c-0.3,4.2,0.7,4-8.8,2.1c-12.5-2.5-26-5.7-49-11.6c-10.2-2.6-19.8-4.8-21.4-5l-2.9-0.3V474v27.8l6.8,0.4
			c3.8,0.1,9.6,0.5,12.9,0.8c21.6,1.6,48.5,1.8,83.8,0.5c23.6-0.9,99.9-0.4,120.8,0.8c18.6,1,27.7,0.8,64-1.2
			c11.8-0.7,45-2.9,54.2-3.6c4-0.2,10.3-0.7,14-0.9c3.7-0.2,7.6-0.6,8.5-0.8c1-0.1,5.8-0.5,10.8-0.8c15.4-0.9,15-0.8,15.9-2.8
			c1.5-3,3.8-3.2,7.8-0.6l2.2,1.5l2.1-1c2.1-1,2.2-1.1,3-4.9c1.8-7.9,4.5-11.6,8.8-11.6c5.2,0,9.2,5,10.3,13.2l0.4,2.4l1.8-0.3
			c1-0.1,4.8-0.4,8.5-0.6l6.6-0.3v-17.6v-17.6l-6.8-0.3c-17.6-0.9-96.1,0.5-149.6,2.6c-7.3,0.2-20.2,0.8-28.8,1
			c-8.5,0.3-20.8,0.8-27.2,1c-32.1,1.4-38.3,1.6-51.2,2c-7.7,0.3-20,0.7-27.2,1c-7.3,0.2-15.4,0.5-18,0.5l-4.8,0.1l-1.2-5.2
			c-0.6-2.8-1.4-5.5-1.5-6c-0.2-0.4-0.9-2.5-1.5-4.6c-3.2-11.4-10.4-25.5-14.1-27.9C267.4,419.6,266.7,419.6,264.7,420.9z"/>
		
			<linearGradient id="region-2-14_00000090993079646393715430000017748583802254509232_" gradientUnits="userSpaceOnUse" x1="-0.1575" y1="800.9576" x2="-0.1057" y2="801.5066" gradientTransform="matrix(152 0 0 87.2805 583 -69432.4766)">
			<stop  offset="0" style="stop-color:#575F1E;stop-opacity:0.511"/>
			<stop  offset="1" style="stop-color:#5B6323;stop-opacity:0.578"/>
		</linearGradient>
		<path id="region-2-14" style="fill:url(#region-2-14_00000090993079646393715430000017748583802254509232_);" d="M570,478.7
			c-2,1.7-3.7,5.3-4.8,10.2c-0.8,3.8-0.8,3.9-3,4.9l-2.1,1l-2.2-1.5c-5.2-3.4-8-1.9-8.7,4.6c-0.3,2.7-0.3,2.8-1.8,2.5
			c-1.9-0.4-3.2,0.9-4,3.7l-0.5,2.1h-4.6c-6,0-9.2,0.9-11.2,3.2c-1.2,1.4-1.6,2.2-1.6,3.9c0,1.2,0.2,2.4,0.4,2.8
			c0.2,0.3,5.1,1.5,10.9,2.7l10.4,2l15-0.3c14.7-0.2,23.4-1,30.9-2.6c2-0.4,4.7-0.8,6-0.8h2.3v-12.8v-12.8l-6.6,0.3
			c-3.7,0.2-7.5,0.5-8.5,0.6l-1.8,0.3l-0.4-2.4c-0.8-5.6-3.3-10.3-6.4-12.2C575.5,476.9,572,477,570,478.7z"/>
		
			<linearGradient id="region-2-15_00000127724783651166623150000001489213315702980752_" gradientUnits="userSpaceOnUse" x1="5.8085" y1="804.2776" x2="6.379" y2="804.558" gradientTransform="matrix(29.3 0 0 13.8987 1.7 -10671.8535)">
			<stop  offset="0" style="stop-color:#DFC6D8;stop-opacity:0.739"/>
			<stop  offset="1" style="stop-color:#E6C9E1;stop-opacity:0.772"/>
		</linearGradient>
		<path id="region-2-15" style="fill:url(#region-2-15_00000127724783651166623150000001489213315702980752_);" d="M177.3,505.8
			c-1.9,0.9-3.7,3.3-3.7,5c0,0.5,7.1,1.1,12.2,1.1h2.4l-0.4-1.6c-0.4-2-2-3.8-4.1-4.7C181.6,504.6,179.7,504.7,177.3,505.8z"/>
		
			<linearGradient id="region-2-16_00000007419520360153621550000018240597495513851839_" gradientUnits="userSpaceOnUse" x1="10.8186" y1="809.5595" x2="10.8186" y2="810.0595" gradientTransform="matrix(12.1402 0 0 6 71.7195 -4352)">
			<stop  offset="0" style="stop-color:#DEC7D6;stop-opacity:0.782"/>
			<stop  offset="1" style="stop-color:#E1C8D9;stop-opacity:0.795"/>
		</linearGradient>
		<path id="region-2-16" style="fill:url(#region-2-16_00000007419520360153621550000018240597495513851839_);" d="M201.2,506.2
			c-2.1,1.5-1.4,2.2,1.9,2.2c2.3,0,3-0.1,3-0.7c0-0.9-1.9-2.3-3-2.3C202.6,505.4,201.8,505.7,201.2,506.2z"/>
		
			<linearGradient id="region-2-17_00000129182067839979477730000006654308286754595983_" gradientUnits="userSpaceOnUse" x1="2.194" y1="805.9594" x2="2.756" y2="806.2745" gradientTransform="matrix(21.9 0 0 9.7082 239.1 -7317.2759)">
			<stop  offset="0" style="stop-color:#D8C6CC;stop-opacity:0.774"/>
			<stop  offset="1" style="stop-color:#E0C9D4;stop-opacity:0.805"/>
		</linearGradient>
		<path id="region-2-17" style="fill:url(#region-2-17_00000129182067839979477730000006654308286754595983_);" d="M291.3,506.3
			c-1.3,0.6-2.7,2.5-2.7,3.7c0,0.8,0.5,0.9,5.4,0.9h5.5l-0.5-1.5c-0.3-0.8-0.9-1.9-1.4-2.3C296.5,506.1,292.8,505.7,291.3,506.3z"/>
		
			<linearGradient id="region-2-18_00000129168314150687218900000009248337059690056583_" gradientUnits="userSpaceOnUse" x1="-1.387" y1="801.6245" x2="-1.387" y2="802.1245" gradientTransform="matrix(47.935 0 0 35 521.0651 -27551)">
			<stop  offset="0" style="stop-color:#271804;stop-opacity:0.251"/>
			<stop  offset="1" style="stop-color:#241302;stop-opacity:0.314"/>
		</linearGradient>
		<path id="region-2-18" style="fill:url(#region-2-18_00000129168314150687218900000009248337059690056583_);" d="M448,506.9
			c-0.3,0.6-0.4,3.1-0.3,6.5c0,3,0.1,5.4,0.1,5.4c0,0-0.8-0.3-1.5-0.8c-0.8-0.4-1.9-0.8-2.5-0.8c-1,0-1.1,0.3-1.1,1.5
			c0,0.9,0.4,2.2,0.8,3l0.8,1.5h10h9.9l1.1-2.4c0.6-1.3,1.2-3.2,1.4-4.2c0.2-1.8,0.2-1.9-1.2-1.9c-0.9,0-2.2,0.6-3.4,1.6
			c-1.9,1.5-1.9,1.6-1.6,0.4c0.1-0.7,0.5-2.6,0.9-4.3c1.4-7.1-1.8-5.8-5.2,2.2c-0.5,1.2-1.1,2-1.3,1.8c-0.2-0.2-0.9-2-1.5-3.9
			c-1.1-3.3-3.1-6.7-4-6.7C448.8,505.9,448.4,506.3,448,506.9z"/>
		
			<linearGradient id="region-2-19_00000103242109113323166850000013470678520431054473_" gradientUnits="userSpaceOnUse" x1="3.1435" y1="801.6926" x2="3.1435" y2="802.1926" gradientTransform="matrix(43.3437 0 0 33 108.7031 -25949)">
			<stop  offset="0" style="stop-color:#281A04;stop-opacity:0.262"/>
			<stop  offset="1" style="stop-color:#261603;stop-opacity:0.324"/>
		</linearGradient>
		<path id="region-2-19" style="fill:url(#region-2-19_00000103242109113323166850000013470678520431054473_);" d="M243,508
			c-0.3,0.6-0.7,3.2-0.8,5.8c-0.1,2.5-0.3,4.6-0.6,4.5c-0.1-0.1-1.4-0.8-2.8-1.5c-1.4-0.8-3-1.5-3.6-1.6c-1.8-0.6-1.4,1,1.1,4.8
			l2.2,3.3h7.1c6.8,0,7.1,0,8.8-1.3c1.8-1.4,1.8-2.2-0.2-2.2c-1.1,0-1.2-0.1-0.9-1.4c0.2-0.8,0.4-2.4,0.4-3.6
			c0.1-3.4-1.2-3.2-3.9,0.5l-2.2,3.1v-2c0-4.6-1.7-9.6-3.2-9.6C243.9,506.9,243.3,507.4,243,508z"/>
		
			<linearGradient id="region-2-20_00000140707541358856521510000007556528079284157874_" gradientUnits="userSpaceOnUse" x1="0.7102" y1="804.1558" x2="1.0708" y2="804.7941" gradientTransform="matrix(29.1393 0 0 13.0247 305.8607 -9965.7803)">
			<stop  offset="0" style="stop-color:#0A1264;stop-opacity:0.569"/>
			<stop  offset="1" style="stop-color:#020868;stop-opacity:0.609"/>
		</linearGradient>
		<path id="region-2-20" style="fill:url(#region-2-20_00000140707541358856521510000007556528079284157874_);" d="M328.7,509.4
			c-1.6,0.9-3.1,3.3-3.1,4.7c0,0.7,1,0.8,7.2,0.8c8.1,0,8.2-0.1,6.2-3.4C337.2,508.5,331.9,507.4,328.7,509.4z"/>
		
			<linearGradient id="region-2-21_00000114786336939113044840000002015071232347894416_" gradientUnits="userSpaceOnUse" x1="9.6105" y1="807.142" x2="9.6105" y2="807.642" gradientTransform="matrix(14.9602 0 0 7.1299 51.0796 -5243.0801)">
			<stop  offset="0" style="stop-color:#384A5C;stop-opacity:0.802"/>
			<stop  offset="1" style="stop-color:#3B4E5B;stop-opacity:0.798"/>
		</linearGradient>
		<path id="region-2-21" style="fill:url(#region-2-21_00000114786336939113044840000002015071232347894416_);" d="M191.9,513
			c-1.4,2.1-1.1,2.4,3,2.4c3.3,0,3.8-0.1,3.8-0.9C198.6,511.9,193.4,510.8,191.9,513z"/>
		
			<linearGradient id="region-2-22_00000074428801677926368850000013841346494846289328_" gradientUnits="userSpaceOnUse" x1="-6.9012" y1="804.2938" x2="-6.4699" y2="804.8721" gradientTransform="matrix(22.8482 0 0 10.9128 654.1518 -8261.1572)">
			<stop  offset="0" style="stop-color:#020966;stop-opacity:0.545"/>
			<stop  offset="1" style="stop-color:#000468;stop-opacity:0.58"/>
		</linearGradient>
		<path id="region-2-22" style="fill:url(#region-2-22_00000074428801677926368850000013841346494846289328_);" d="M500.2,516.4
			c-1.8,0.5-3.6,2.6-3.6,4c0,0.8,0.4,0.9,5.8,0.9c6.3,0,6.4-0.1,4.8-2.8c-0.6-1-1.6-1.8-2.9-2.1c-1-0.3-2-0.6-2.1-0.5
			C501.9,515.9,501.1,516.2,500.2,516.4z"/>
	</g>
	<g id="layer-3">
		
			<linearGradient id="region-3-1_00000180355167734626703870000014723000185413471422_" gradientUnits="userSpaceOnUse" x1="-0.3075" y1="800.9463" x2="0.5634" y2="801.3813" gradientTransform="matrix(131.6813 0 0 276.5884 523.45 -221208.7969)">
			<stop  offset="0" style="stop-color:#633332;stop-opacity:0.75"/>
			<stop  offset="1" style="stop-color:#5B2A00;stop-opacity:0.852"/>
		</linearGradient>
		<path id="region-3-1" style="fill:url(#region-3-1_00000180355167734626703870000014723000185413471422_);" d="M545.8,313
			c-0.1,0.3-0.4,2.8-0.7,5.4c-0.5,4.3-2.5,15-2.8,15.4c0,0.1-0.5-0.9-0.9-2.2c-1-2.7-4.7-9.1-5.2-9.1c-0.2,0,0.3,1.8,1.3,4
			c2.2,5.1,3.5,11.8,2.6,14.4c-1,3-4.3,9-9.2,16.1c-2.5,3.7-5,7.5-5.4,8.4l-0.9,1.7l-3-5.5c-1.7-3-4.1-7.2-5.5-9.4
			c-2.5-4-3.9-8.8-4-12.6c0-0.8-0.1-2.3-0.3-3.2c-0.3-1.3-0.5-0.6-0.6,3l-0.2,4.7l-3-4.2c-1.6-2.4-3.4-4.7-3.9-5.2
			c-1.2-1-1.1-0.8,1.6,3.4c1.9,2.9,8,13.7,7.9,13.9c-0.1,0-1.5-0.2-3.3-0.6c-5.1-1-7-1.2-7-0.8c0,0.2,0.8,0.5,1.6,0.8
			c0.9,0.2,3.5,0.9,5.8,1.5l4.2,1.2l4,8.4c3.7,7.7,4,8.8,4.7,13.4c0.4,2.8,0.7,5.8,0.7,6.6v1.6l-1.8-0.8c-4-1.6-10-2.8-16.8-3
			c-7.4-0.4-7.5-0.4-10.4-4c-1.6-2.1-1.7-1.1,0,1.5l1.4,2.4l-2.3-0.3c-1.3-0.1-3.2-0.3-4.2-0.5c-1.8-0.2-2.6,0.5-1.2,1
			c0.3,0.1-0.2,0.4-1.2,0.6c-3.6,0.7-1.9,1,4.8,0.9c7-0.2,16.6,0.8,22,2.1c1.6,0.4,4.5,1.5,6.5,2.4l3.7,1.7l0.3,10.4
			c0.2,5.8,0.2,18.5,0.1,28.3c-0.2,17.4-0.2,17.8,0.8,18.8c0.5,0.5,1.8,2,2.7,3.4c1.7,2.5,1.7,2.5,1.7,0.9c0-5.3,2.6-6.1,6.8-2.1
			l1.5,1.4l0.3-1.9c0.6-3.5,0.3-5.8-1.2-10.5c-4.8-14.9-8.8-37.7-9-52.2c-0.1-4.5,0-5,1.3-7c3.5-5.2,11.6-12.2,16.7-14.4
			c1.5-0.6,2.2-1.5,1.2-1.5c-0.2,0-2.9,1.2-5.9,2.7c-3.6,1.8-6.8,3.9-9.4,6.1l-4,3.4l0.3-2.2c1.1-7,10.4-17.2,20.2-22.1
			c1.5-0.8,2.6-1.4,2.5-1.6c-0.4-0.3-5.4,1.6-9.2,3.5l-3.6,1.8l1.7-4c2.2-5.1,3.6-9.6,4.8-15.5C546.5,326.7,547.2,308.8,545.8,313z"
			/>
		
			<linearGradient id="region-3-2_00000029005372418906273340000009916353724300745878_" gradientUnits="userSpaceOnUse" x1="2.2314" y1="800.8658" x2="2.4888" y2="801.3736" gradientTransform="matrix(106.3798 0 0 270.1 -29.6708 -216014)">
			<stop  offset="0" style="stop-color:#61342A;stop-opacity:0.74"/>
			<stop  offset="1" style="stop-color:#5E2E00;stop-opacity:0.859"/>
		</linearGradient>
		<path id="region-3-2" style="fill:url(#region-3-2_00000029005372418906273340000009916353724300745878_);" d="M215.3,320.3v5.9
			l-3.3,10c-1.9,5.5-3.4,10.4-3.6,11c-0.1,0.7-1-0.6-2.8-4.2c-2.6-5.2-8-14.1-9.1-14.8c-0.4-0.2-0.1,0.6,0.7,1.8
			c2.7,4.3,7.7,15.1,8.9,19.1c0.9,3,1.4,5.7,1.6,10.1c0.1,3.3,0.6,9.1,0.9,13c0.4,3.9,0.7,13.5,0.7,21.5c0,12.6-0.2,16.2-1.5,27.5
			c-0.9,8-1.4,15.9-1.5,20.6l0,7.6l1.5-1.9c1.6-2,3.6-4.1,4.8-4.9c0.6-0.5,0.7-5.2,0.4-36.8c-0.2-20-0.4-36.9-0.7-37.6
			c-0.3-1.2-0.1-1.5,2.6-3.6c7.7-6,20.2-10.1,33.7-10.9c1.8-0.1,1.3-0.2-2-0.6l-4.1-0.4l1.8-1c2.7-1.6,2.1-2-0.8-0.6
			c-1.4,0.6-3.9,1.5-5.3,1.9c-2.4,0.7-2.6,0.7-2.1-0.1c0.8-1.6,1.5-4.6,1-4.6c-0.2,0-0.4,0.3-0.4,0.6s-0.7,1.7-1.5,3l-1.4,2.2
			l-5.6,1.4c-5.4,1.4-11.1,3.7-14.1,5.8c-0.9,0.6-1.6,0.9-1.9,0.6s-0.6-3.1-0.8-6.4l-0.3-6l2.8-11.5c1.6-6.3,2.9-12.6,3.1-14
			c0.3-2.6-0.6-9.8-1.2-9.8C215.5,314.4,215.3,317,215.3,320.3z"/>
		
			<linearGradient id="region-3-3_00000053530308367104378730000003817993383301516221_" gradientUnits="userSpaceOnUse" x1="9.756511e-02" y1="801.3268" x2="1.659" y2="801.5738" gradientTransform="matrix(52 0 0 171.1679 355 -136762.5)">
			<stop  offset="0" style="stop-color:#6D4B35;stop-opacity:0.742"/>
			<stop  offset="1" style="stop-color:#5B2800;stop-opacity:0.878"/>
		</linearGradient>
		<path id="region-3-3" style="fill:url(#region-3-3_00000053530308367104378730000003817993383301516221_);" d="M384.4,370
			c-0.2,1.4-0.6,3.8-0.9,5.3l-0.6,2.6l-1.4-2.9c-0.8-1.6-1.9-3.5-2.5-4.1c-0.8-1-0.6-0.5,0.5,2c1.1,2.1,1.6,4.2,1.9,6.2
			c0.2,3.6-0.1,4.6-5.4,12.5l-3.4,5.2l-2.7-4.6c-3.8-6.8-3.9-6.9-4.4-10.7l-0.4-3.4l-0.1,3l0,3l-1.6-2.4c-2.6-4-2.5-2.6,0.1,1.8
			c1.4,2.3,2.5,4.3,2.5,4.5c0,0.4-1.2,0.2-3.6-0.5c-0.5-0.1-0.9,0-0.9,0.2s1.2,0.8,2.6,1.1l2.6,0.8l2.6,5.3l2.7,5.2l0.6,16.2
			c0.4,8.9,0.8,19.1,0.8,22.5c0,5.6,0.1,6.4,1,7.2c0.5,0.5,1.5,2.2,2,3.8l1.1,3l1.4-1.1c0.8-0.5,1.5-1.4,1.5-1.9s-0.9-7.1-2-14.9
			c-1.1-7.6-2.4-17.6-2.9-22.2l-0.8-8.4l1.4-2.1c1.6-2.4,4.6-4.9,8-7c1.4-0.8,1.9-1.3,1.2-1.1c-2.5,0.6-6.1,2.8-8.4,4.9l-2.2,2.1
			l0.3-1.6c0.8-3.8,6.1-9.9,10.8-12c0.9-0.5,1.6-1,1.6-1.2c0-0.5-1.6,0.1-4.5,1.6c-1.1,0.5-2,0.9-2,0.9c0-0.1,0.5-1.6,1.2-3.3
			c1.6-4,2.6-8.2,3-13.7C385.7,367,384.9,365.5,384.4,370z"/>
		
			<linearGradient id="region-3-4_00000091731489309481488420000016500478645314790285_" gradientUnits="userSpaceOnUse" x1="2.0541" y1="801.5728" x2="2.0541" y2="802.0728" gradientTransform="matrix(94.3798 0 0 90.7974 70.0202 -72360.7891)">
			<stop  offset="0" style="stop-color:#AAE17F;stop-opacity:0.556"/>
			<stop  offset="1" style="stop-color:#ACDD54;stop-opacity:0.408"/>
		</linearGradient>
		<path id="region-3-4" style="fill:url(#region-3-4_00000091731489309481488420000016500478645314790285_);" d="M264.7,420.9
			c-3.4,2-7.1,9.9-10.1,21.4c-0.5,1.9-0.7,2.1-1.9,1.8c-2.7-0.5-4.5,3.4-4.9,10.7c-0.1,2.5-0.4,4.6-0.5,4.6s-0.9-0.8-1.7-1.8
			c-2.9-3.2-4.4-2.1-4.9,3.4l-0.3,3.8l3.8,0.4c4.3,0.4,42.9,0,43.4-0.5c0.3-0.4-1.7-10-2.4-11.4c-0.2-0.4-0.9-2.5-1.5-4.6
			c-3.2-11.4-10.4-25.5-14.1-27.9C267.4,419.6,266.7,419.6,264.7,420.9z"/>
		
			<linearGradient id="region-3-5_00000014624905751964932730000016930254567346188723_" gradientUnits="userSpaceOnUse" x1="1.3485" y1="801.9644" x2="1.3985" y2="802.5144" gradientTransform="matrix(83 0 0 45.7277 211 -36200.9141)">
			<stop  offset="0" style="stop-color:#200A29;stop-opacity:0.127"/>
			<stop  offset="1" style="stop-color:#1F062D;stop-opacity:0.167"/>
		</linearGradient>
		<path id="region-3-5" style="fill:url(#region-3-5_00000014624905751964932730000016930254567346188723_);" d="M327.8,473.1
			c-1.2,1.9-3.1,7.5-3.8,11.7c-0.3,2-0.8,3.6-0.9,3.6s-0.8-1.9-1.4-4.1c-1.4-5-4.1-10.6-5.2-10.8c-1.2-0.2-1.9,2-2.5,9l-0.6,6.6
			l-2.8-1.6c-3.4-2-5.5-2.2-5.5-0.5c0,0.6,0.9,2.6,1.9,4.4l2,3.2l17.2,0.1l17.2,0.1l1.5-1.8c0.9-1,1.6-2.1,1.6-2.5
			c0-1.2-1.9-1.9-4.8-1.5c-3,0.4-3.1,0.2-1.9-2.4c0.9-2.2,0.9-4.8,0.1-5.2c-1.2-0.4-3.4,0.8-6.2,3.4l-2.7,2.6v-6.5
			c0-6.3-0.5-8.6-1.9-9C328.9,471.9,328.3,472.4,327.8,473.1z"/>
		
			<linearGradient id="region-3-6_00000182523111604854324660000002501359228303276170_" gradientUnits="userSpaceOnUse" x1="2.1452" y1="801.3881" x2="2.3858" y2="802.06" gradientTransform="matrix(142 0 0 63.9777 -131 -50800.2773)">
			<stop  offset="0" style="stop-color:#474B2A;stop-opacity:0.236"/>
			<stop  offset="1" style="stop-color:#4D4E30;stop-opacity:0.297"/>
		</linearGradient>
		<path id="region-3-6" style="fill:url(#region-3-6_00000182523111604854324660000002501359228303276170_);" d="M184.4,473.8
			c-2.4,2.6-3.4,6.8-3.7,16c-0.2,7.8-0.2,8.1-1.1,7c-1.9-2.9-3.8-4.9-4.6-4.9c-1.1,0-2.2,1.8-2.6,4.1l-0.4,1.9l-2.2-2
			c-4.3-4-6.2-3.3-6.2,2.2v3.6l1.6,0.2c0.9,0.2,4.5,0.4,8.1,0.6c3.6,0.2,9.5,0.5,13.2,0.8c10.1,0.6,48,1.2,48,0.6
			c-0.1-0.8-1.8-2.6-3.5-3.5c-1.4-0.8-2.8-0.9-6.9-0.9l-5.1,0v-2.4c0-2.9-1.2-5.9-2.2-5.9c-1,0-3.5,2.5-4.7,4.7l-0.8,1.6l-0.6-3.8
			c-0.9-5.1-2-8-3.4-8.6c-1.1-0.5-1.4-0.4-2.7,0.8c-0.8,0.8-2,2.7-2.6,4.2c-2.6,6-2.4,5.5-2.4,3.8c-0.1-4.5-2.8-13.8-5-17.4
			C191.8,472.3,187.1,471,184.4,473.8z"/>
		
			<linearGradient id="region-3-7_00000129890021935540098760000018362039681065097100_" gradientUnits="userSpaceOnUse" x1="-1.7314" y1="805.9304" x2="-1.5936" y2="806.5669" gradientTransform="matrix(31.2 0 0 13.8877 464.6 -10713.0342)">
			<stop  offset="0" style="stop-color:#040E7A;stop-opacity:0.498"/>
			<stop  offset="1" style="stop-color:#00087F;stop-opacity:0.534"/>
		</linearGradient>
		<path id="region-3-7" style="fill:url(#region-3-7_00000129890021935540098760000018362039681065097100_);" d="M410.2,480.8
			c-2.2,1-3.4,2.4-3.9,4.7l-0.4,1.4h7.8c7.1,0,7.8-0.1,7.8-0.9c0-1.7-2-4.2-4.1-5.1C414.8,479.6,412.9,479.6,410.2,480.8z"/>
		
			<linearGradient id="region-3-8_00000140700854043260108180000016582414066298485165_" gradientUnits="userSpaceOnUse" x1="-6.9435" y1="803.2687" x2="-6.3769" y2="803.3404" gradientTransform="matrix(33.9041 0 0 23.1 819.1918 -18059)">
			<stop  offset="0" style="stop-color:#98C246;stop-opacity:0.757"/>
			<stop  offset="1" style="stop-color:#A3CE50;stop-opacity:0.802"/>
		</linearGradient>
		<path id="region-3-8" style="fill:url(#region-3-8_00000140700854043260108180000016582414066298485165_);" d="M589.4,492.4
			c-2.5,0.2-4.5,0.5-4.7,0.6c-0.1,0.1-0.2,1.6-0.1,3.4l0.1,3l1.8-2.6c3.4-5.1,6.2-5,6.2,0.2c0,1.5-0.2,3.5-0.4,4.5l-0.4,1.9l2.5-2.5
			c2.2-2.4,2.6-2.5,4.8-2.5h2.3v-3.2v-3.2l-3.8,0C595.6,492,591.8,492.2,589.4,492.4z"/>
	</g>
</g>
<g id="图层_2">
	
		<linearGradient id="region-1-1_00000127011076274052216940000006235594147914968461_" gradientUnits="userSpaceOnUse" x1="1.257" y1="800.1105" x2="1.8012" y2="800.4545" gradientTransform="matrix(886 0 0 365.3 -885 -292239)">
		<stop  offset="0" style="stop-color:#98CDD7;stop-opacity:0.993"/>
		<stop  offset="1" style="stop-color:#B6FCFF;stop-opacity:0.993"/>
	</linearGradient>
	
		<path id="region-1-1_00000016779026288841666920000001417224760520220088_" style="fill:url(#region-1-1_00000127011076274052216940000006235594147914968461_);" d="
		M255.6,106.1v82.3l2.1,0.1c1.1,0,2.5,0.1,2.9,0.2c12.8,3.6,55.1,13.8,68.2,16.4c9.4,1.8,8.4,2.1,8.8-2.2c0.5-5.4,2.1-6.5,4.9-3.3
		c0.9,0.9,1.6,1.8,1.7,1.8s0.4-2.1,0.5-4.7c0.5-7.3,2.2-11.2,5-10.6c1.2,0.2,1.4,0.1,1.9-1.9c1.1-4.5,3.7-11.8,5.1-14.6
		c2-4.1,3.6-6.2,5.7-7.1c1.6-0.8,1.9-0.8,3.5,0c0.9,0.4,2.4,1.8,3.3,2.9c3.9,5.4,9.1,17,11.5,25.2c0.6,2.1,1.3,4.2,1.5,4.6
		c0.2,0.4,0.9,3.1,1.5,6l1.2,5.2l4.8-0.1c2.6-0.1,10.7-0.3,18-0.6c7.3-0.3,19.5-0.7,27.2-1c12.9-0.4,19.1-0.7,51.2-2
		c6.4-0.2,18.8-0.7,27.2-1c8.6-0.2,21.6-0.8,29-1.1c42-1.6,110.8-3.1,135.2-2.8l21.1,0.2v-87.1V23.9H477.1H255.6V106.1z"/>
	
		<linearGradient id="region-1-2_00000005225237182622437370000017050875663993117824_" gradientUnits="userSpaceOnUse" x1="1.7587" y1="801.3905" x2="1.7747" y2="801.9468" gradientTransform="matrix(886 0 0 271.8877 -885 -217233.0312)">
		<stop  offset="0" style="stop-color:#9AC345"/>
		<stop  offset="1" style="stop-color:#98BF49"/>
	</linearGradient>
	
		<path id="region-1-2_00000026857880587084421750000014237488996299908017_" style="fill:url(#region-1-2_00000005225237182622437370000017050875663993117824_);" d="
		M566.1,658c-3.3,2-7.1,10-10.1,21.3c-0.5,2-0.7,2.1-1.9,1.9c-2.7-0.5-4.5,3.3-4.9,10.6c-0.2,2.6-0.4,4.7-0.5,4.7
		c-0.1,0-0.9-0.8-1.7-1.8c-2.9-3.2-4.4-2.1-4.9,3.3c-0.3,4.2,0.7,4-8.8,2.2c-12.5-2.5-26-5.7-49-11.5c-10.1-2.6-19.8-4.9-21.4-5
		l-2.9-0.3v54.8V793h221.5H903v-49.7v-49.7l-6.8-0.3c-17.6-0.8-96.2,0.5-149.7,2.7c-7.3,0.2-20.2,0.8-28.8,1
		c-8.5,0.3-20.8,0.8-27.2,1c-32.2,1.3-38.3,1.6-51.2,2c-7.7,0.3-20,0.7-27.2,1c-7.3,0.2-15.4,0.5-18,0.5l-4.8,0.1l-1.2-5.2
		c-0.6-2.9-1.3-5.5-1.5-6c-0.2-0.4-0.9-2.5-1.5-4.7c-3.2-11.3-10.4-25.5-14.2-27.8C568.8,656.8,568.2,656.8,566.1,658z"/>
	
		<linearGradient id="region-2-1_00000022531742171527414950000002587433768701491859_" gradientUnits="userSpaceOnUse" x1="-0.5379" y1="808.7403" x2="-0.3708" y2="809.5045" gradientTransform="matrix(76 0 0 24 721 -19176)">
		<stop  offset="0" style="stop-color:#FFFFFF;stop-opacity:0.817"/>
		<stop  offset="1" style="stop-color:#FFFFFF;stop-opacity:0.804"/>
	</linearGradient>
	
		<path id="region-2-1_00000011719707509770002980000008423500130319468174_" style="fill:url(#region-2-1_00000022531742171527414950000002587433768701491859_);stroke:#000000;stroke-miterlimit:10;" d="
		M683.2,235.2c-1.1,0.4-2.8,1.6-3.8,2.6c-1.5,1.8-2,2-3.4,1.8c-3.3-0.5-6.6,2.1-6.6,5.2v1.7h19c16.8,0,19-0.1,19-0.8
		c0-1.4-2.3-3.2-4-3.2c-1,0-1.8-0.4-2.3-1.2c-1-1.6-3.7-2.8-6.1-2.8c-1.4,0-2.1-0.3-2.5-0.9c-0.8-1.2-4.6-3.1-6.2-3.1
		C685.8,234.6,684.3,234.9,683.2,235.2z"/>
	
		<linearGradient id="region-2-2_00000038406625654438894210000011866400169481895839_" gradientUnits="userSpaceOnUse" x1="1.7909" y1="800.0526" x2="1.7909" y2="800.5526" gradientTransform="matrix(158.7196 0 0 172.9672 -98.2196 -138339.2656)">
		<stop  offset="0" style="stop-color:#88A700;stop-opacity:0.629"/>
		<stop  offset="1" style="stop-color:#83990B;stop-opacity:0.824"/>
	</linearGradient>
	
		<path id="region-2-2_00000147899910236339616670000010460224489108887217_" style="fill:url(#region-2-2_00000038406625654438894210000011866400169481895839_);" d="
		M175,43.9c-3.2,0.5-4.2,1.1-8.4,5.2c-4.1,4-6.4,5-9.4,4.5c-1.8-0.3-8.1-2.5-9.6-3.2c-1-0.5-1.2,1.6-1.2,12c0,10.9,2,18.2,6.8,25
		c3.8,5.4,3.9,5.6,3.9,8.1c0,1.3-0.4,3.8-0.8,5.8c-0.4,1.8-0.9,5.4-0.9,7.9c-0.1,3.9,0.2,4.9,1.2,7.4c2,4.3,5.4,7.6,10.1,9.8
		c6.1,2.9,10.1,3.8,17.1,3.8c5.3,0,6.2-0.2,8.4-1.2c3.6-1.8,6.6-5.2,10.8-12.1c5-8.5,7.5-11,13.5-13.8c4.5-2.2,9.9-6.3,9-6.9
		c-0.2-0.1-1.2-1.5-2.1-3c-2.5-4.4-7.2-9.9-10.6-12.5c-1.7-1.2-5.6-3.5-8.6-4.9c-8.5-4.1-10.4-6.7-13.5-19.3
		c-2-7.9-3.5-11.1-5.6-11.9C183.2,43.7,177.7,43.4,175,43.9z"/>
	
		<linearGradient id="region-2-3_00000074403347743706711070000014282743984658811267_" gradientUnits="userSpaceOnUse" x1="1.5067" y1="807.8941" x2="1.5328" y2="808.4736" gradientTransform="matrix(77 0 0 23.162 138 -18493.7324)">
		<stop  offset="0" style="stop-color:#FFFFFF;stop-opacity:0.827"/>
		<stop  offset="1" style="stop-color:#FFFFFF;stop-opacity:0.815"/>
	</linearGradient>
	
		<path id="region-2-3_00000025407157124930978770000011992353780758556829_" style="fill:url(#region-2-3_00000074403347743706711070000014282743984658811267_);stroke:#000000;stroke-miterlimit:10;" d="
		M251.1,219.1c-1.5,0.3-2.6,1-4.1,2.6c-1.9,2.1-2.2,2.2-4.8,2.2c-2.4,0-2.9,0.1-4.2,1.8c-1,1.1-1.6,2.3-1.6,3.2v1.5h19.2
		c10.6,0,19.2-0.2,19.2-0.4c0-1.2-2.2-3.1-3.9-3.4c-1-0.2-2.6-1.1-3.6-1.9c-1.8-1.6-5.3-2.7-6.4-2.1c-0.3,0.2-0.8-0.1-1-0.6
		C258.9,219.8,254.6,218.4,251.1,219.1z"/>
	
		<linearGradient id="region-2-4_00000068652032607019074420000002261941630363541392_" gradientUnits="userSpaceOnUse" x1="1.7941" y1="801.0253" x2="2.1113" y2="801.5751" gradientTransform="matrix(217.6419 0 0 195.6974 408.4573 -156517.625)">
		<stop  offset="0" style="stop-color:#829B00;stop-opacity:0.698"/>
		<stop  offset="1" style="stop-color:#839D0C;stop-opacity:0.825"/>
	</linearGradient>
	
		<path id="region-2-4_00000032633660240387280140000013901314389870161850_" style="fill:url(#region-2-4_00000068652032607019074420000002261941630363541392_);" d="
		M830.7,246.1c-3.7,0.8-7.8,2.6-10.7,4.7c-2.2,1.6-7.6,6.3-6.5,5.8c0.5-0.2,0.5,0.1,0.2,1.9c-0.8,4.7-0.4,8.4,1.8,14.9
		c2.1,6,2.2,6.4,1.6,9c-0.7,3.3-3.8,8.1-8.5,13c-3.5,3.6-5,4.7-9.9,6.5c-5,1.9-7.1,4.5-8.2,10.3c-0.3,1.7-0.5,5.1-0.4,7.5
		c0.3,8,3.9,13.2,10,14.6c3.8,0.9,5.1,1.8,7.3,4.7c2.5,3.2,4.5,4.3,8.1,4.3c3.2,0,6.6-1.5,11.4-5c9.1-6.6,16.5-7.9,32.5-6
		c17.6,2.1,25.9,0.8,32.9-5.2c2.8-2.4,5.3-7.6,6.1-12.4c0.7-3.8,0.4-13.6-0.4-16.6c-0.7-2.4-4.8-3.8-12.5-4.2
		c-6.6-0.4-7.7-0.8-9.8-3.8c-0.9-1.1-1.1-2.4-1.4-8.9c-0.4-8.1-1.4-13.2-3.6-18.2c-3.6-7.8-9.6-13.1-17.9-15.9
		c-3.8-1.2-5-1.4-11.7-1.6C836.1,245.4,832.9,245.6,830.7,246.1z"/>
	
		<linearGradient id="region-2-5_00000048468292588840156800000011174403985211627432_" gradientUnits="userSpaceOnUse" x1="1.1997" y1="800.2621" x2="1.7023" y2="800.7614" gradientTransform="matrix(193.033 0 0 212.3769 -162.033 -169854.9688)">
		<stop  offset="0" style="stop-color:#7D9200;stop-opacity:0.626"/>
		<stop  offset="1" style="stop-color:#7F9918;stop-opacity:0.844"/>
	</linearGradient>
	
		<path id="region-2-5_00000094601163794345150530000003489741010479670972_" style="fill:url(#region-2-5_00000048468292588840156800000011174403985211627432_);" d="
		M85.3,96.8c-7.4,1.8-10.7,9.5-10.7,24.7c0.1,13.5,3.2,24.3,9.3,32.4c1.3,1.8,2.8,3.8,3.1,4.3c0.8,1.6,0.8,4.3-0.3,9.4
		c-2.7,12.6-1.4,19,5,25.4c3.7,3.6,9.5,6.8,15.2,8.1c1.9,0.4,4.3,1.1,5.3,1.3c2.6,0.8,13.1,0.2,15.9-0.8c5.1-1.9,9.1-6.4,15.1-16.6
		c4.6-7.9,8.7-11.9,14.9-14.4c5.8-2.4,8.9-5.2,11.2-9.7c2.2-4.4,2.6-10,0.9-14.3c-0.6-1.5-1.2-2.8-1.5-2.8c-0.2,0-1.1,0.8-2.1,1.8
		c-1,1-3.8,2.8-6.7,4.2c-6.3,3.1-8.7,5.4-13.8,13.9c-4.2,6.9-7.2,10.3-10.8,12.1c-2.2,1-3.1,1.2-8.5,1.2c-7-0.1-10.9-0.9-17.1-3.8
		c-4.8-2.2-8.1-5.5-10.1-9.9c-1.1-2.4-1.3-3.5-1.2-7.3c0-2.5,0.4-6.1,0.8-7.9c0.5-1.9,0.8-4.4,0.8-5.8c0-2.4-0.1-2.6-3.8-8
		c-4.6-6.4-6.6-13.3-7-23.6c-0.1-3.7-0.1-8.1,0.2-9.8c0.2-1.7,0.3-3.3,0.2-3.6C89.2,96.7,87,96.4,85.3,96.8z"/>
	
		<linearGradient id="region-2-6_00000051385835389803864190000014550054249893658294_" gradientUnits="userSpaceOnUse" x1="1.8818" y1="801.2747" x2="1.8818" y2="801.7747" gradientTransform="matrix(270.8015 0 0 220.6125 317.1985 -176427.7344)">
		<stop  offset="0" style="stop-color:#798D00;stop-opacity:0.771"/>
		<stop  offset="1" style="stop-color:#7D9518;stop-opacity:0.806"/>
	</linearGradient>
	
		<path id="region-2-6_00000137116082037362099930000011823867648930742458_" style="fill:url(#region-2-6_00000051385835389803864190000014550054249893658294_);" d="
		M800.5,344.8c-4.2,4.4-9.2,15.4-11.2,24.8c-1.5,6.6-1.9,7.7-3.8,10.3c-1.6,2.2-4.2,3.8-8.3,4.8c-4,1.1-7.2,3-10.4,6.2
		c-4.9,5.2-7.7,13.5-7.8,23.2c0,9.7,2.4,14.5,9.8,20c2,1.4,4.6,3.9,5.8,5.4c6.8,8.2,12.4,12,20,13.6c11.2,2.3,25.6-0.8,35-7.5
		c1.3-0.9,2.5-1.7,2.7-1.7c0.1,0,1.6-0.9,3.3-2.1c4-2.6,6.5-3,16.6-2.6c15.1,0.6,27.1-2,33.8-7.3c2.6-2.1,5.8-7,6.9-11
		c1.3-4.1,1.8-11.6,1.1-16.5c-0.3-2.1-0.8-5.6-1.1-7.7c-0.6-5-2-8.1-4.5-10.5c-1.1-1.1-2.1-1.9-2.2-1.7c-0.1,0.1,0,1.9,0.2,4
		c2.1,17.9-3.4,28-17.1,31.2c-4.3,1-12.1,0.9-21.9-0.2c-16-1.9-23.4-0.6-32.5,6c-4.8,3.5-8.2,5-11.4,5c-3.7,0-5.7-1.1-8.1-4.3
		c-2.2-2.9-3.5-3.8-7.3-4.7c-3.9-0.9-6.2-2.9-8.2-6.8c-1.4-2.8-1.7-4-1.8-7.8c-0.2-2.5,0-5.9,0.4-7.5c1.2-5.8,3.2-8.5,8.2-10.3
		c4.9-1.9,6.5-2.9,9.9-6.5c4.7-4.9,7.8-9.7,8.5-13c0.5-2.6,0.5-3-1.5-8.8c-2.5-7.1-2.9-10-2.2-14c0.3-1.6,0.5-3,0.4-3.1
		C801.8,343.5,801.2,344,800.5,344.8z"/>
	
		<linearGradient id="region-2-7_00000054956499164506016880000006762436629989539253_" gradientUnits="userSpaceOnUse" x1="1.5216" y1="804.0479" x2="1.5216" y2="804.5479" gradientTransform="matrix(124.7877 0 0 37.9087 136.4247 -30239.8965)">
		<stop  offset="0" style="stop-color:#FFFFFF;stop-opacity:0.816"/>
		<stop  offset="1" style="stop-color:#FFFFFF;stop-opacity:0.828"/>
	</linearGradient>
	
		<path id="region-2-7_00000078026476362442746990000003479483467615313826_" style="fill:url(#region-2-7_00000054956499164506016880000006762436629989539253_);stroke:#000000;stroke-miterlimit:10;" d="
		M326.8,240.9c-2.7,0.7-5.2,2.1-7,4.1c-1.6,1.8-1.8,1.9-4.7,1.9c-3.7,0-7,1.5-9.2,4.2c-1.3,1.6-1.9,1.9-3.4,1.9
		c-2.3,0-5,1.4-6.4,3.5c-2.2,3.2-4.1,3,30.1,3h31.2v-1.6c0-3.7-3-7.7-6.8-8.9c-1.8-0.6-5.1-0.5-6.8,0.2c-0.5,0.2-1-0.1-1.3-0.8
		c-1.9-4-7.9-7.9-12.1-7.8C329.2,240.6,327.6,240.8,326.8,240.9z"/>
	
		<linearGradient id="region-2-8_00000106106667114431226520000003669749853243748500_" gradientUnits="userSpaceOnUse" x1="4.7461" y1="800.1583" x2="4.7461" y2="800.6583" gradientTransform="matrix(105.1873 0 0 146.532 269.5128 -117109.2812)">
		<stop  offset="0" style="stop-color:#687400;stop-opacity:0.695"/>
		<stop  offset="1" style="stop-color:#666F00;stop-opacity:0.825"/>
	</linearGradient>
	
		<path id="region-2-8_00000148656668771545321750000008145653216938904493_" style="fill:url(#region-2-8_00000106106667114431226520000003669749853243748500_);" d="
		M769.8,139.6c-0.2,0.1-1.1,0.3-1.9,0.4c-2.2,0.5-5.2,3.6-7.4,7.8c-1.4,2.8-2.6,4.2-4.3,5.6c-3,2.2-5.2,5.2-6.8,8.8
		c-1,2.7-1.2,3.7-1.2,12.4c0,5.2,0,9.9-0.1,10.3c0,0.5-1.4,2.2-2.9,3.9l-2.8,3l0.3,4.1c0.5,5.6,1.5,9.2,3.4,10.9l1.4,1.5l5.2-0.3
		c2.8-0.2,8.3-0.5,12.2-0.6l7.1-0.3l3.9,2.9c3.8,2.8,3.9,2.8,6.7,2.6c1.5-0.1,3.7-0.7,4.8-1.2c3-1.5,6-5.2,7-8.5
		c1.3-4.5,0.8-7.1-2.8-13.8c-2.9-5.4-3.1-5.9-3.1-9.2c0-2.8,0.4-4.8,2-9.4c1.4-4.1,2-6.8,2-8.8c0-1.8,0.2-2.8,0.5-2.6
		c1.1,0.6-8.8-11.1-11.6-13.9C777.9,141.7,772.1,139,769.8,139.6z"/>
	
		<linearGradient id="region-2-9_00000080200233436133405910000017469480185606555786_" gradientUnits="userSpaceOnUse" x1="3.4635" y1="800.8492" x2="4.1622" y2="801.0421" gradientTransform="matrix(130.4372 0 0 123.2164 238.1256 -98418.1484)">
		<stop  offset="0" style="stop-color:#596903;stop-opacity:0.787"/>
		<stop  offset="1" style="stop-color:#515E00;stop-opacity:0.819"/>
	</linearGradient>
	
		<path id="region-2-9_00000013875842158044795490000017463691239024595351_" style="fill:url(#region-2-9_00000080200233436133405910000017469480185606555786_);" d="
		M748.6,243.7c0,2.1-0.6,4.7-2,8.8c-1.6,4.7-2,6.7-2,9.5c0,3.3,0.2,3.8,3.1,9.2c3.5,6.6,4,9.2,2.8,13.8c-1,3.3-4,6.9-7,8.5
		c-1.1,0.5-3.3,1.1-4.8,1.2c-2.8,0.2-2.9,0.1-6.7-2.6l-3.9-2.9l-7.1,0.3c-4,0.2-9.5,0.5-12.2,0.6l-5.2,0.3l-1.4-1.5
		c-1.8-1.8-2.9-5.4-3.4-11l-0.3-4.2l-1.2,1.1c-1.9,1.8-2.4,5.2-1.5,9.2c1.1,4.3,2.6,6.9,5.4,9.6c5.8,5.4,17.8,8.7,31.6,8.8
		c5.7,0,7-0.1,10.5-1.2c11.2-3.7,17.2-10.5,17.2-19.5c0-5.4-0.6-7-4.3-10.9c-4.3-4.6-4.5-5.6-2.9-11.2c1.6-5.4,1.5-9.3-0.5-13.3
		c-1.1-2.4-3.5-5.4-4.1-5.4C748.7,240.9,748.6,242.2,748.6,243.7z"/>
	
		<linearGradient id="region-2-10_00000118355030055370328630000001214470214098470043_" gradientUnits="userSpaceOnUse" x1="1.5888" y1="802.9984" x2="1.6986" y2="803.6151" gradientTransform="matrix(197.5 0 0 93.9328 492 -74889.0625)">
		<stop  offset="0" style="stop-color:#90B12A;stop-opacity:0.569"/>
		<stop  offset="1" style="stop-color:#8CA400;stop-opacity:0.789"/>
	</linearGradient>
	
		<path id="region-2-10_00000122683638785455755170000010551392167311080107_" style="fill:url(#region-2-10_00000118355030055370328630000001214470214098470043_);stroke:#000000;stroke-miterlimit:10;" d="
		M815.1,542.2c-1.3,0.5-3.5,2.8-4.5,4.6c-2.1,4.2-4,13-5,22.8c-0.3,3.3-0.6,7.2-0.8,8.7l-0.3,2.7l-1.5-1.5c-4.2-4-6.9-3.2-6.9,2.1
		v1.5l-1.3-2c-2.3-3.4-4.2-5.2-5.8-5.2c-1.1,0-1.5,0.3-1.8,1.4c-0.3,1.3,0.8,7.6,1.6,9.8c0.2,0.6-0.8,0.2-3.6-1.5
		c-4.8-2.9-11.5-5.2-14.4-5l-2,0.1l0.1,2.3c0,1.4,0.4,2.9,1.1,4.1l1.2,1.9l20.8-0.4c11.5-0.2,33.1-0.4,48.2-0.4h27.3v-14.9
		c0-13.5-0.1-15-0.8-14.7c-0.5,0.2-1.4,0.3-2.2,0.3c-1.2,0-1.6,0.5-3.1,3.4c-1,1.9-2.4,5.3-3.2,7.6l-1.4,4.2l-0.6-2.5
		c-0.3-1.4-0.8-3-1.1-3.8c-0.6-1.5-3-3.8-4.4-4.2c-1.8-0.5-4.2,1.4-5.4,4.3c-0.7,1.4-1.4,3.2-1.7,3.8c-0.5,1.2-0.5,1.2-0.5-0.5
		c-0.1-2.9-1.1-7.5-2.1-9.5c-1-2-2.4-2.8-3.8-2c-1.4,0.7-3.8,5.6-5.4,10.8l-1.4,4.5l-0.9-6c-2.1-14.8-6.2-24.3-11.3-26.5
		C816.5,541.8,816.2,541.8,815.1,542.2z"/>
	
		<linearGradient id="region-2-11_00000013913576666305166930000000519547358439889804_" gradientUnits="userSpaceOnUse" x1="1.4705" y1="801.6226" x2="1.4705" y2="802.1226" gradientTransform="matrix(160.6856 0 0 98.1757 -153.3713 -78276.4609)">
		<stop  offset="0" style="stop-color:#697500;stop-opacity:0.641"/>
		<stop  offset="1" style="stop-color:#697501;stop-opacity:0.822"/>
	</linearGradient>
	
		<path id="region-2-11_00000058554208982773626020000000473716848172657585_" style="fill:url(#region-2-11_00000013913576666305166930000000519547358439889804_);" d="
		M57.4,424.3c-2.2,2.4-3.6,13.5-3.1,24.7c0.1,3.5,0.2,6.4,0.1,6.4c0,0-0.9-1.2-1.8-2.6c-3.7-5.5-8.3-9.1-9.5-7.3
		c-0.9,1.3,0.7,9.6,2,10.9c0.6,0.6,8.6,2.8,23.4,6.4c20.4,5,25.3,6.2,37.3,8.9l3.8,0.9l2.2-1.4c7.5-4.9,11.4-9.1,11.4-12.3
		c0-1.6-0.2-2-1.2-2.5c-1.9-0.9-6.4,0.1-13,3l-5.7,2.5l-1.1-1.2c-1.3-1.4-2.9-1.5-5-0.4c-0.8,0.4-1.6,0.7-1.7,0.6s0.1-1.2,0.3-2.6
		c0.4-2.5,0.2-4-0.7-5.1c-0.8-1-3,0.5-5.4,3.5c-1.2,1.6-2.2,2.8-2.3,2.8c-0.1,0-0.1-1.4,0.2-3c0.4-4-0.2-9-1.2-10.5
		c-2.1-2.8-4.9,0.1-7.4,7.8c-1.1,3.1-1.4,3.7-1.7,3c-0.2-0.6-1.4-3.7-2.8-7c-4.8-12.3-10.3-22.7-13.5-25.2
		C59.1,423.1,58.5,423.1,57.4,424.3z"/>
	
		<linearGradient id="region-2-12_00000150067109641013312890000004493097775510817185_" gradientUnits="userSpaceOnUse" x1="1.0889" y1="804.83" x2="1.1235" y2="805.5067" gradientTransform="matrix(430.5432 0 0 96.3197 -177.3381 -76785.8047)">
		<stop  offset="0" style="stop-color:#667200;stop-opacity:0.642"/>
		<stop  offset="1" style="stop-color:#677100;stop-opacity:0.858"/>
	</linearGradient>
	
		<path id="region-2-12_00000129197111480642011340000015251124382023111854_" style="fill:url(#region-2-12_00000150067109641013312890000004493097775510817185_);" d="
		M235.5,737.5c-4,2.7-6.8,12-7.4,24.6l-0.3,7l-1.4-3c-3.1-6.5-6.2-7.9-9.6-4.2c-1,1.1-2.2,2.9-2.7,4l-0.8,1.9l-2.2-2.2
		c-5.3-5.5-11.2-9.3-14.5-9.4c-3.9-0.1-5.2,3.1-4.8,10.7c0.4,6.4,0.7,8.1,2,13.2l1.1,4.4l4.7-0.1c2.6-0.1,10.7-0.3,18-0.6
		c7.3-0.3,19.5-0.7,27.2-1c13-0.4,19.9-0.7,51.2-2c6.4-0.2,18.9-0.7,27.5-1c8.6-0.3,21.2-0.8,28-1c6.8-0.3,21.4-0.8,32.5-1
		c14.2-0.3,20.4-0.7,20.9-1.1c1-1,2.3-7,1.9-9c-0.9-4.9-4.5-4.5-10.2,1l-2.4,2.4l-0.2-5.8c-0.5-8.8-2.2-13.9-5.6-16.9
		c-2.6-2.4-4-2.2-7.2,1.2c-3.3,3.5-6.6,9.8-10.2,19.9c-0.3,0.8-0.6,0.5-1.5-1.9c-0.6-1.6-1.4-3.2-1.8-3.6c-1.6-1.8-3.9,0-6.7,5.2
		l-1.7,3.2l-1.7-3.4c-0.9-1.8-2.6-4.3-3.8-5.6c-1.8-1.8-2.5-2.2-3.8-2c-1.9,0.2-3.4,2.1-4.6,6c-0.5,1.5-1,3-1.1,3.3
		c-0.1,0.4-0.8-1.1-1.5-3.4c-1.8-6.1-4-10.2-7.6-14.1c-6.3-6.8-11.8-7.2-17.5-1.3c-2.5,2.6-5.5,7.3-7.2,11.1
		c-0.6,1.5-1.3,2.8-1.5,2.8c-0.1,0-0.5-0.6-0.9-1.3c-0.9-2.1-4-6.1-5.1-6.7c-1.8-1-5.4,2.3-8.7,7.9c-0.6,0.9-1.1,1.6-1.4,1.6
		s-2.1,1.2-4.4,2.7l-3.9,2.7l-1.1-2.8c-2-5.5-4-5.8-7.9-1.2c-2.8,3.4-3.3,3.7-2.6,1.5c0.8-2.7,0.6-7.3-0.4-9c-0.9-1.4-3.4-3-4.8-3
		c-1,0-4.1,2.2-5.6,3.9c-0.6,0.8-2.1,2.9-3.1,4.8c-1,1.9-1.9,3.2-2,3c-0.1-0.3-0.6-2.8-1.2-5.5c-2.9-14.6-7.7-24.7-13.1-27.5
		C240.9,736,237.5,736.2,235.5,737.5z"/>
	
		<linearGradient id="region-2-13_00000035514628442501382070000008135891061907217314_" gradientUnits="userSpaceOnUse" x1="1.5802" y1="801.6979" x2="1.6851" y2="802.6474" gradientTransform="matrix(886 0 0 169.5567 -885 -135368.2344)">
		<stop  offset="0" style="stop-color:#757F24;stop-opacity:0.425"/>
		<stop  offset="1" style="stop-color:#72901F;stop-opacity:0.569"/>
	</linearGradient>
	
		<path id="region-2-13_00000042695929979052117860000011941520758908308651_" style="fill:url(#region-2-13_00000035514628442501382070000008135891061907217314_);" d="
		M436.1,569.9c-3.4,2.1-7.1,10-10.1,21.4c-0.5,2-0.6,2.1-1.9,1.8c-2.7-0.5-4.5,3.4-5,10.7c-0.1,2.5-0.4,4.6-0.5,4.6
		s-0.9-0.8-1.7-1.8c-2.9-3.2-4.4-2.1-4.9,3.4c-0.3,4.2,0.7,4-8.8,2.1c-12.5-2.5-26-5.7-49-11.5c-10.1-2.6-19.8-4.8-21.4-5l-2.9-0.3
		V623v27.8l6.9,0.3c3.8,0.2,9.6,0.5,12.9,0.8c21.6,1.7,48.5,1.8,83.8,0.5c23.6-0.8,99.8-0.4,120.8,0.8c18.6,1,27.7,0.8,64-1.2
		c11.8-0.7,45-2.8,54.2-3.5c4-0.2,10.3-0.7,14-1s7.5-0.6,8.5-0.8c1-0.1,5.8-0.4,10.8-0.8c15.3-0.8,15-0.8,15.9-2.8
		c1.4-3,3.8-3.2,7.8-0.6l2.1,1.4l2.2-1c2.1-1,2.1-1.1,3-4.9c1.8-7.9,4.5-11.6,8.8-11.6c5.2,0,9.1,5.1,10.3,13.2l0.4,2.4l1.8-0.3
		c1-0.2,4.8-0.4,8.5-0.6l6.6-0.3v-17.6v-17.6l-6.8-0.3c-17.6-0.9-96.2,0.5-149.7,2.6c-7.3,0.2-20.2,0.8-28.8,1
		c-8.5,0.3-20.8,0.8-27.2,1c-32.2,1.4-38.3,1.6-51.2,2c-7.7,0.3-20,0.7-27.2,1c-7.3,0.2-15.4,0.5-18,0.6l-4.8,0.1l-1.2-5.2
		c-0.6-2.8-1.3-5.5-1.5-6c-0.2-0.4-0.9-2.5-1.5-4.6c-3.2-11.4-10.4-25.6-14.1-27.9C438.9,568.6,438.1,568.6,436.1,569.9z"/>
	
		<linearGradient id="region-2-14_00000132064163656918713200000009565125161761562000_" gradientUnits="userSpaceOnUse" x1="0.4209" y1="801.8415" x2="0.4727" y2="802.3904" gradientTransform="matrix(152 0 0 87.2805 583 -69432.4766)">
		<stop  offset="0" style="stop-color:#575F1E;stop-opacity:0.511"/>
		<stop  offset="1" style="stop-color:#5B6323;stop-opacity:0.578"/>
	</linearGradient>
	
		<path id="region-2-14_00000174563333976918558970000007698015339543242624_" style="fill:url(#region-2-14_00000132064163656918713200000009565125161761562000_);stroke:#000000;stroke-miterlimit:10;" d="
		M658,555.8c-2,1.7-3.7,5.4-4.8,10.2c-0.8,3.8-0.9,3.9-3,4.9l-2.2,1l-2.1-1.5c-5.2-3.4-8-1.9-8.7,4.7c-0.4,2.7-0.4,2.8-1.8,2.5
		c-1.9-0.4-3.2,0.9-4,3.7l-0.5,2.2h-4.6c-6,0-9.2,1-11.2,3.2c-1.2,1.4-1.5,2.2-1.5,3.9c0,1.1,0.2,2.4,0.4,2.8
		c0.2,0.3,5.1,1.5,10.9,2.6l10.5,2l15-0.3c14.7-0.2,23.3-1,30.9-2.5c1.9-0.4,4.6-0.8,6-0.8h2.3v-12.8v-12.9l-6.6,0.4
		c-3.7,0.2-7.5,0.5-8.5,0.6l-1.8,0.3l-0.4-2.4c-0.8-5.7-3.3-10.3-6.5-12.2C663.4,554,660,554.2,658,555.8z"/>
	
		<linearGradient id="region-2-15_00000134246525431721145380000000485646175158996922_" gradientUnits="userSpaceOnUse" x1="1.6105" y1="809.9718" x2="2.181" y2="810.2523" gradientTransform="matrix(29.3 0 0 13.8987 1.7 -10671.8535)">
		<stop  offset="0" style="stop-color:#DFC6D8;stop-opacity:0.739"/>
		<stop  offset="1" style="stop-color:#E6C9E1;stop-opacity:0.772"/>
	</linearGradient>
	
		<path id="region-2-15_00000178913166010423222230000013376206583361987258_" style="fill:url(#region-2-15_00000134246525431721145380000000485646175158996922_);stroke:#000000;stroke-miterlimit:10;" d="
		M54.3,585c-1.9,0.8-3.7,3.3-3.7,5c0,0.4,7.2,1.1,12.2,1.1h2.5l-0.3-1.6c-0.4-2-2-3.8-4.2-4.7C58.6,583.8,56.7,583.8,54.3,585z"/>
	
		<linearGradient id="region-2-16_00000169534963757480765640000011544130610501713290_" gradientUnits="userSpaceOnUse" x1="2.1697" y1="827.2262" x2="2.1697" y2="827.7262" gradientTransform="matrix(12.1402 0 0 6 71.7195 -4352)">
		<stop  offset="0" style="stop-color:#DEC7D6;stop-opacity:0.782"/>
		<stop  offset="1" style="stop-color:#E1C8D9;stop-opacity:0.795"/>
	</linearGradient>
	
		<path id="region-2-16_00000119824498210960524660000012395654786324969119_" style="fill:url(#region-2-16_00000169534963757480765640000011544130610501713290_);stroke:#000000;stroke-miterlimit:10;" d="
		M96.2,612.2c-2,1.4-1.4,2.2,1.9,2.2c2.3,0,3-0.1,3-0.7c0-0.9-1.9-2.3-3-2.3C97.6,611.4,96.8,611.7,96.2,612.2z"/>
	
		<linearGradient id="region-2-17_00000107552943858428272450000004427087542715785655_" gradientUnits="userSpaceOnUse" x1="-7.3494" y1="827.3478" x2="-6.7874" y2="827.663" gradientTransform="matrix(21.9 0 0 9.7082 239.1 -7317.2759)">
		<stop  offset="0" style="stop-color:#D8C6CC;stop-opacity:0.774"/>
		<stop  offset="1" style="stop-color:#E0C9D4;stop-opacity:0.805"/>
	</linearGradient>
	
		<path id="region-2-17_00000030463530620178457180000001661766879369996163_" style="fill:url(#region-2-17_00000107552943858428272450000004427087542715785655_);stroke:#000000;stroke-miterlimit:10;" d="
		M82.3,714c-1.3,0.6-2.7,2.5-2.7,3.6c0,0.8,0.6,0.9,5.4,0.9h5.5L90,717c-0.3-0.8-0.9-1.8-1.4-2.3C87.5,713.8,83.8,713.3,82.3,714z"
		/>
	
		<linearGradient id="region-2-18_00000078038032263105334380000003007968530299870865_" gradientUnits="userSpaceOnUse" x1="-5.0378" y1="807.3714" x2="-5.0378" y2="807.8714" gradientTransform="matrix(47.935 0 0 35 521.0651 -27551)">
		<stop  offset="0" style="stop-color:#271804;stop-opacity:0.251"/>
		<stop  offset="1" style="stop-color:#241302;stop-opacity:0.314"/>
	</linearGradient>
	
		<path id="region-2-18_00000148663131599148792000000016343737480129927594_" style="fill:url(#region-2-18_00000078038032263105334380000003007968530299870865_);stroke:#000000;stroke-miterlimit:10;" d="
		M273,708c-0.3,0.7-0.4,3.1-0.3,6.5c0,3,0.1,5.5,0.1,5.5c0,0-0.8-0.3-1.5-0.8c-0.8-0.4-1.9-0.8-2.5-0.8c-1,0-1.1,0.3-1.1,1.5
		c0,0.8,0.4,2.2,0.8,3l0.8,1.5h10h9.9l1.1-2.4c0.6-1.3,1.2-3.2,1.4-4.2c0.2-1.8,0.2-1.8-1.2-1.8c-0.9,0-2.2,0.6-3.4,1.6
		c-1.9,1.6-1.9,1.6-1.6,0.4c0.1-0.7,0.5-2.7,0.9-4.3c1.4-7.1-1.8-5.8-5.2,2.2c-0.5,1.1-1.1,1.9-1.3,1.8c-0.2-0.2-0.9-2-1.5-3.9
		c-1.1-3.3-3.1-6.8-4-6.8C273.8,707,273.4,707.5,273,708z"/>
	
		<linearGradient id="region-2-19_00000151519240096546071530000018411503100677132941_" gradientUnits="userSpaceOnUse" x1="-1.15" y1="807.0303" x2="-1.15" y2="807.5303" gradientTransform="matrix(43.3437 0 0 33 108.7031 -25949)">
		<stop  offset="0" style="stop-color:#281A04;stop-opacity:0.262"/>
		<stop  offset="1" style="stop-color:#261603;stop-opacity:0.324"/>
	</linearGradient>
	
		<path id="region-2-19_00000024722255714155562170000004704959731819150523_" style="fill:url(#region-2-19_00000151519240096546071530000018411503100677132941_);stroke:#000000;stroke-miterlimit:10;" d="
		M56.9,684.1c-0.3,0.7-0.7,3.2-0.8,5.8c-0.1,2.5-0.3,4.6-0.5,4.5c-0.1-0.1-1.4-0.8-2.8-1.5c-1.3-0.8-3-1.5-3.6-1.7
		c-1.8-0.5-1.5,1,1.1,4.9l2.2,3.3h7.1c6.8,0,7.1,0,8.8-1.3c1.8-1.4,1.8-2.2-0.2-2.2c-1.2,0-1.2-0.2-0.8-1.4c0.2-0.8,0.4-2.3,0.4-3.6
		c0.1-3.4-1.1-3.2-3.9,0.5l-2.2,3.1v-2c0-4.6-1.7-9.6-3.2-9.6C57.8,683,57.2,683.5,56.9,684.1z"/>
	
		<linearGradient id="region-2-20_00000039110074135139955460000011269068218807279511_" gradientUnits="userSpaceOnUse" x1="-4.918" y1="821.277" x2="-4.5573" y2="821.9153" gradientTransform="matrix(29.1393 0 0 13.0247 305.8607 -9965.7803)">
		<stop  offset="0" style="stop-color:#0A1264;stop-opacity:0.569"/>
		<stop  offset="1" style="stop-color:#020868;stop-opacity:0.609"/>
	</linearGradient>
	
		<path id="region-2-20_00000021799269167824971310000006879340135477340295_" style="fill:url(#region-2-20_00000039110074135139955460000011269068218807279511_);" d="
		M164.7,732.4c-1.6,1-3.1,3.3-3.1,4.8c0,0.7,1,0.8,7.2,0.8c8.1,0,8.2-0.1,6.2-3.4C173.2,731.5,167.9,730.4,164.7,732.4z"/>
	
		<linearGradient id="region-2-21_00000057131954530036065180000010205168000550789787_" gradientUnits="userSpaceOnUse" x1="1.1882" y1="819.7648" x2="1.1882" y2="820.2648" gradientTransform="matrix(14.9602 0 0 7.1299 51.0796 -5243.0801)">
		<stop  offset="0" style="stop-color:#384A5C;stop-opacity:0.802"/>
		<stop  offset="1" style="stop-color:#3B4E5B;stop-opacity:0.798"/>
	</linearGradient>
	
		<path id="region-2-21_00000108279418162345626010000002307611894003683724_" style="fill:url(#region-2-21_00000057131954530036065180000010205168000550789787_);" d="
		M65.9,603c-1.5,2.1-1.1,2.4,2.9,2.4c3.3,0,3.8-0.1,3.8-0.9C72.6,601.9,67.4,600.8,65.9,603z"/>
	
		<linearGradient id="region-2-22_00000103253763284312596870000014205821979688020897_" gradientUnits="userSpaceOnUse" x1="-15.2607" y1="823.1707" x2="-14.8294" y2="823.749" gradientTransform="matrix(22.8482 0 0 10.9128 654.1518 -8261.1572)">
		<stop  offset="0" style="stop-color:#020966;stop-opacity:0.545"/>
		<stop  offset="1" style="stop-color:#000468;stop-opacity:0.58"/>
	</linearGradient>
	
		<path id="region-2-22_00000182509563148750358670000004119783973596794543_" style="fill:url(#region-2-22_00000103253763284312596870000014205821979688020897_);" d="
		M309.2,722.4c-1.8,0.5-3.6,2.6-3.6,4c0,0.8,0.4,0.9,5.8,0.9c6.3,0,6.4-0.1,4.8-2.8c-0.6-1-1.6-1.8-2.9-2.1c-1-0.3-2-0.6-2.1-0.5
		C310.9,721.9,310.1,722.2,309.2,722.4z"/>
	
		<linearGradient id="region-3-1_00000096061407858862566020000017373222204643438007_" gradientUnits="userSpaceOnUse" x1="2.3649" y1="801.4308" x2="3.2358" y2="801.8658" gradientTransform="matrix(131.6813 0 0 276.5884 523.45 -221208.7969)">
		<stop  offset="0" style="stop-color:#633332;stop-opacity:0.75"/>
		<stop  offset="1" style="stop-color:#5B2A00;stop-opacity:0.852"/>
	</linearGradient>
	
		<path id="region-3-1_00000039109955808993010870000004611036443947215750_" style="fill:url(#region-3-1_00000096061407858862566020000017373222204643438007_);" d="
		M897.8,447c-0.1,0.3-0.4,2.8-0.7,5.4c-0.5,4.3-2.5,15-2.8,15.4c0,0.1-0.5-0.9-1-2.2c-1-2.7-4.6-9.1-5.2-9.1c-0.2,0,0.4,1.8,1.3,4
		c2.2,5.1,3.5,11.8,2.7,14.4c-1,3-4.3,9-9.2,16.1c-2.5,3.7-5,7.5-5.5,8.4l-0.8,1.7l-3-5.5c-1.7-3-4.1-7.2-5.5-9.4
		c-2.5-4-3.9-8.8-4-12.6c0-0.8-0.2-2.3-0.3-3.2c-0.3-1.3-0.5-0.6-0.7,3l-0.2,4.7l-3-4.2c-1.6-2.4-3.4-4.7-4-5.2
		c-1.1-1-1-0.8,1.6,3.4c1.8,2.9,8,13.7,7.8,13.9c0,0-1.5-0.2-3.3-0.6c-5.2-1-7-1.2-7-0.8c0,0.2,0.8,0.5,1.7,0.8
		c0.8,0.2,3.5,0.9,5.8,1.5l4.1,1.2l4.1,8.4c3.7,7.7,4,8.8,4.6,13.4c0.4,2.7,0.7,5.7,0.7,6.6v1.6l-1.8-0.8c-4-1.6-10-2.8-16.8-3
		c-7.4-0.3-7.6-0.4-10.4-4c-1.6-2.1-1.7-1.1,0,1.5l1.5,2.3l-2.4-0.3c-1.3-0.1-3.2-0.3-4.2-0.5c-1.8-0.2-2.7,0.5-1.2,1
		c0.3,0.1-0.2,0.4-1.2,0.6c-3.6,0.7-1.9,1,4.8,0.9c7-0.2,16.5,0.8,22,2.1c1.6,0.4,4.5,1.5,6.5,2.5l3.7,1.7l0.3,10.4
		c0.2,5.8,0.2,18.5,0.1,28.3c-0.2,17.5-0.2,17.8,0.8,18.8c0.6,0.5,1.8,2,2.7,3.4c1.7,2.5,1.7,2.5,1.7,1c0-5.3,2.6-6.1,6.8-2.1
		l1.5,1.5l0.3-1.9c0.6-3.5,0.3-5.8-1.2-10.5c-4.8-14.9-8.8-37.7-9-52.2c-0.2-4.5,0-5,1.3-7c3.5-5.2,11.6-12.2,16.7-14.4
		c1.4-0.6,2.2-1.5,1.2-1.5c-0.2,0-2.8,1.2-5.8,2.7c-3.6,1.8-6.8,3.9-9.5,6.1l-4,3.4l0.4-2.2c1.1-7,10.3-17.2,20.2-22.1
		c1.5-0.8,2.6-1.4,2.5-1.6c-0.4-0.3-5.4,1.6-9.2,3.5l-3.6,1.8l1.7-4c2.2-5.1,3.5-9.6,4.8-15.5C898.5,460.7,899.1,442.8,897.8,447z"
		/>
	
		<linearGradient id="region-3-2_00000079457921946580934360000011007799167230526361_" gradientUnits="userSpaceOnUse" x1="0.9341" y1="800.5179" x2="1.1915" y2="801.0256" gradientTransform="matrix(106.3798 0 0 270.1 -29.6708 -216014)">
		<stop  offset="0" style="stop-color:#61342A;stop-opacity:0.74"/>
		<stop  offset="1" style="stop-color:#5E2E00;stop-opacity:0.859"/>
	</linearGradient>
	
		<path id="region-3-2_00000163053468267664708060000011189161661054737815_" style="fill:url(#region-3-2_00000079457921946580934360000011007799167230526361_);" d="
		M77.3,226.3v5.9l-3.3,10c-1.8,5.5-3.4,10.4-3.5,11c-0.2,0.7-1-0.7-2.8-4.2c-2.6-5.2-8-14.1-9.2-14.8c-0.3-0.2,0,0.6,0.7,1.8
		c2.7,4.3,7.7,15,9,19.1c0.9,3,1.3,5.7,1.5,10.1c0.2,3.3,0.6,9.1,0.9,13s0.7,13.5,0.7,21.5c0,12.6-0.2,16.2-1.4,27.5
		c-0.9,8-1.5,15.9-1.5,20.6l-0.1,7.6l1.5-1.9c1.6-2,3.6-4.1,4.8-4.9c0.7-0.5,0.7-5.2,0.4-36.8c-0.1-20-0.4-36.9-0.6-37.6
		c-0.4-1.2-0.1-1.5,2.5-3.6c7.7-6,20.2-10.1,33.7-10.9c1.8-0.1,1.3-0.2-1.9-0.6l-4.2-0.4l1.8-1c2.7-1.6,2.2-2-0.8-0.6
		c-1.5,0.6-3.8,1.5-5.3,1.9c-2.4,0.7-2.6,0.7-2.2-0.1c0.8-1.6,1.5-4.6,1-4.6c-0.2,0-0.4,0.3-0.4,0.6c0,0.4-0.7,1.7-1.4,3l-1.5,2.2
		l-5.5,1.4c-5.5,1.4-11.2,3.7-14.2,5.8c-0.8,0.6-1.7,0.9-1.9,0.6s-0.6-3.1-0.8-6.4l-0.3-6l2.8-11.4c1.6-6.3,3-12.6,3.1-14.1
		c0.3-2.6-0.6-9.8-1.2-9.8C77.5,220.4,77.3,223,77.3,226.3z"/>
	
		<linearGradient id="region-3-3_00000071562071342212429090000009332833037649981599_" gradientUnits="userSpaceOnUse" x1="5.4025" y1="801.8994" x2="6.9639" y2="802.1464" gradientTransform="matrix(52 0 0 171.1679 355 -136762.5)">
		<stop  offset="0" style="stop-color:#6D4B35;stop-opacity:0.742"/>
		<stop  offset="1" style="stop-color:#5B2800;stop-opacity:0.878"/>
	</linearGradient>
	
		<path id="region-3-3_00000148638691854507597370000009643195152731910570_" style="fill:url(#region-3-3_00000071562071342212429090000009332833037649981599_);" d="
		M660.3,468c-0.1,1.4-0.5,3.8-0.8,5.3l-0.6,2.6l-1.4-2.9c-0.8-1.6-1.9-3.5-2.5-4.1c-0.8-1-0.7-0.5,0.5,2c1,2.1,1.7,4.2,1.8,6.2
		c0.2,3.6-0.1,4.6-5.3,12.5l-3.5,5.2l-2.6-4.6c-3.9-6.8-3.9-6.9-4.4-10.7l-0.4-3.4l-0.1,3l0,3l-1.5-2.4c-2.7-4-2.6-2.6,0,1.8
		c1.4,2.3,2.5,4.3,2.5,4.5c0,0.4-1.2,0.2-3.6-0.5c-0.5-0.1-0.9,0-0.9,0.2s1.2,0.8,2.6,1.1l2.6,0.8l2.6,5.3l2.7,5.2l0.7,16.3
		c0.4,8.9,0.8,19,0.8,22.5c0,5.6,0.1,6.4,1,7.2c0.5,0.5,1.5,2.2,2,3.8l1.1,2.9l1.4-1c0.8-0.5,1.5-1.5,1.5-2s-0.9-7.1-2-14.8
		c-1.1-7.7-2.3-17.7-2.8-22.2l-0.9-8.4l1.5-2.1c1.7-2.4,4.5-4.9,8-7c1.4-0.8,1.9-1.3,1.2-1.1c-2.5,0.6-6.2,2.8-8.4,4.9l-2.2,2.1
		l0.3-1.6c0.8-3.8,6.1-9.9,10.8-12c0.9-0.5,1.6-1,1.6-1.2c0-0.5-1.6,0.1-4.5,1.6c-1.1,0.5-2,0.9-2,0.9c0-0.1,0.5-1.6,1.2-3.3
		c1.6-4,2.6-8.2,3-13.7C661.5,465,660.8,463.5,660.3,468z"/>
	
		<linearGradient id="region-3-4_00000146483566985377611180000006655761909533982885_" gradientUnits="userSpaceOnUse" x1="-0.2027" y1="803.7755" x2="-0.2027" y2="804.2755" gradientTransform="matrix(94.3798 0 0 90.7974 70.0202 -72360.7891)">
		<stop  offset="0" style="stop-color:#AAE17F;stop-opacity:0.556"/>
		<stop  offset="1" style="stop-color:#ACDD54;stop-opacity:0.408"/>
	</linearGradient>
	
		<path id="region-3-4_00000061439639820963570980000017829706904966274721_" style="fill:url(#region-3-4_00000146483566985377611180000006655761909533982885_);stroke:#000000;stroke-miterlimit:10;" d="
		M51.7,620.9c-3.3,2.1-7.1,10-10.1,21.4c-0.5,2-0.7,2.1-1.9,1.8c-2.7-0.5-4.5,3.4-4.9,10.7c-0.2,2.5-0.4,4.6-0.5,4.6
		c-0.1,0-0.9-0.8-1.7-1.8c-2.9-3.2-4.4-2.1-4.9,3.5l-0.4,3.8l3.8,0.4c4.3,0.4,42.9-0.1,43.3-0.5c0.3-0.4-1.7-10-2.3-11.4
		c-0.2-0.4-0.9-2.5-1.5-4.6c-3.2-11.4-10.4-25.6-14.2-27.9C54.4,619.6,53.7,619.6,51.7,620.9z"/>
	
		<linearGradient id="region-3-5_00000036953268062357781160000010587399868677652151_" gradientUnits="userSpaceOnUse" x1="-1.1455" y1="807.4971" x2="-1.0955" y2="808.0471" gradientTransform="matrix(83 0 0 45.7277 211 -36200.9141)">
		<stop  offset="0" style="stop-color:#200A29;stop-opacity:0.127"/>
		<stop  offset="1" style="stop-color:#1F062D;stop-opacity:0.167"/>
	</linearGradient>
	
		<path id="region-3-5_00000070824741265962340370000004405518383334426251_" style="fill:url(#region-3-5_00000036953268062357781160000010587399868677652151_);stroke:#000000;stroke-miterlimit:10;" d="
		M120.8,726.1c-1.2,1.9-3.1,7.5-3.8,11.7c-0.3,2-0.8,3.6-0.9,3.6s-0.8-1.8-1.4-4.1c-1.4-5-4-10.5-5.2-10.8c-1.2-0.2-1.9,2-2.5,9
		l-0.6,6.7l-2.8-1.7c-3.4-2-5.6-2.2-5.6-0.5c0,0.7,0.8,2.6,1.9,4.4l2,3.2l17.2,0.2l17.2,0.1l1.6-1.8c0.8-1,1.6-2.1,1.6-2.5
		c0-1.2-1.9-1.8-4.8-1.4c-3,0.3-3.1,0.2-1.9-2.5c0.9-2.2,0.9-4.8,0.1-5.2c-1.2-0.5-3.3,0.8-6.2,3.4l-2.7,2.6v-6.5
		c0-6.3-0.4-8.6-1.8-9C121.9,724.9,121.3,725.4,120.8,726.1z"/>
	
		<linearGradient id="region-3-6_00000158729918956358196810000011258525970151884184_" gradientUnits="userSpaceOnUse" x1="1.2015" y1="801.982" x2="1.4422" y2="802.6539" gradientTransform="matrix(142 0 0 63.9777 -131 -50800.2773)">
		<stop  offset="0" style="stop-color:#474B2A;stop-opacity:0.236"/>
		<stop  offset="1" style="stop-color:#4D4E30;stop-opacity:0.297"/>
	</linearGradient>
	
		<path id="region-3-6_00000063609402236023224370000004914599546715531694_" style="fill:url(#region-3-6_00000158729918956358196810000011258525970151884184_);stroke:#000000;stroke-miterlimit:10;" d="
		M50.4,511.8c-2.5,2.5-3.4,6.8-3.7,16c-0.2,7.8-0.2,8.2-1,7c-2-2.9-3.8-4.9-4.6-4.9c-1.1,0-2.2,1.8-2.7,4.2l-0.3,1.8l-2.2-1.9
		c-4.3-4-6.2-3.3-6.2,2.2v3.6l1.6,0.2c0.9,0.2,4.5,0.4,8.1,0.5c3.6,0.2,9.5,0.6,13.2,0.8c10.2,0.6,48,1.2,48,0.6
		c-0.1-0.8-1.8-2.6-3.5-3.5c-1.4-0.8-2.8-1-6.8-1l-5.2,0.1v-2.5c0-2.9-1.2-5.9-2.2-5.9c-1,0-3.5,2.6-4.7,4.7l-0.8,1.5l-0.7-3.8
		c-0.8-5.1-2-7.9-3.5-8.6c-1-0.5-1.4-0.4-2.6,0.8c-0.8,0.8-2,2.7-2.7,4.2c-2.6,6-2.3,5.5-2.3,3.8c-0.1-4.5-2.8-13.8-5.1-17.3
		C57.8,510.3,53.1,509,50.4,511.8z"/>
	
		<linearGradient id="region-3-7_00000101789510643867625600000004501503047000833690_" gradientUnits="userSpaceOnUse" x1="-8.4942" y1="824.0142" x2="-8.3564" y2="824.6508" gradientTransform="matrix(31.2 0 0 13.8877 464.6 -10713.0342)">
		<stop  offset="0" style="stop-color:#040E7A;stop-opacity:0.498"/>
		<stop  offset="1" style="stop-color:#00087F;stop-opacity:0.534"/>
	</linearGradient>
	
		<path id="region-3-7_00000109028025769189354110000006566146925487338382_" style="fill:url(#region-3-7_00000101789510643867625600000004501503047000833690_);" d="
		M199.2,732c-2.2,1-3.4,2.4-3.9,4.6L195,738h7.8c7.1,0,7.8-0.1,7.8-0.9c0-1.6-2-4.1-4.2-5.1C203.8,730.8,201.9,730.8,199.2,732z"/>
	
		<linearGradient id="region-3-8_00000169516888075142365510000014365055918022249385_" gradientUnits="userSpaceOnUse" x1="-5.6752" y1="805.0004" x2="-5.1086" y2="805.072" gradientTransform="matrix(33.9041 0 0 23.1 819.1918 -18059)">
		<stop  offset="0" style="stop-color:#98C246;stop-opacity:0.757"/>
		<stop  offset="1" style="stop-color:#A3CE50;stop-opacity:0.802"/>
	</linearGradient>
	
		<path id="region-3-8_00000047036988513080015200000013543319483442348455_" style="fill:url(#region-3-8_00000169516888075142365510000014365055918022249385_);" d="
		M632.4,532.4c-2.5,0.2-4.5,0.5-4.7,0.6c-0.1,0.2-0.2,1.7-0.1,3.3l0.1,3.1l1.8-2.7c3.4-5.2,6.2-5,6.2,0.2c0,1.5-0.2,3.5-0.4,4.5
		l-0.4,1.9l2.5-2.5c2.2-2.4,2.6-2.6,4.8-2.6h2.3v-3.2v-3.2l-3.8,0.1C638.6,532,634.8,532.2,632.4,532.4z"/>
	<line class="st67" x1="446" y1="299" x2="455" y2="210"/>
	<line class="st67" x1="320" y1="340" x2="326" y2="266"/>
	<line class="st67" x1="285" y1="305" x2="256" y2="238"/>
	<line class="st67" x1="218" y1="311" x2="206" y2="130"/>
	<line class="st67" x1="181" y1="321" x2="146" y2="195"/>
	<line class="st67" x1="209" y1="353" x2="79" y2="322"/>
	<line class="st67" x1="167" y1="444" x2="125" y2="463"/>
	<line class="st67" x1="167" y1="501" x2="102" y2="537"/>
	<line class="st67" x1="515" y1="483" x2="530" y2="602"/>
	<line class="st67" x1="577" y1="514" x2="630" y2="566"/>
	<line class="st67" x1="598" y1="495" x2="626" y2="530"/>
	<line class="st67" x1="375" y1="418" x2="645" y2="502"/>
	<line class="st67" x1="527" y1="397" x2="850" y2="506"/>
	<line class="st67" x1="580" y1="392" x2="729" y2="420"/>
	<line class="st67" x1="568" y1="368" x2="785" y2="331"/>
	<line class="st67" x1="375" y1="344" x2="733" y2="191"/>
	<line class="st67" x1="396" y1="376" x2="690" y2="305"/>
	<line class="st67" x1="579.5" y1="299.5" x2="663" y2="254"/>
	<line class="st67" x1="598" y1="433" x2="827" y2="538"/>
	<line class="st67" x1="250" y1="732" x2="461" y2="453"/>
	<line class="st67" x1="315" y1="713" x2="500" y2="519"/>
	<line class="st67" x1="283" y1="707" x2="452" y2="519"/>
	<line class="st67" x1="209" y1="727" x2="414" y2="492"/>
	<line class="st67" x1="81" y1="643" x2="264" y2="457"/>
	<line class="st67" x1="331" y1="512" x2="173" y2="725"/>
	<line class="st67" x1="240" y1="521" x2="73" y2="691"/>
	<line class="st67" x1="294" y1="508" x2="91" y2="712"/>
	<line class="st67" x1="327" y1="492" x2="137" y2="727"/>
	<line class="st68" x1="203.5" y1="507.5" x2="103.5" y2="609.5"/>
	<line class="st68" x1="193" y1="515" x2="74" y2="602"/>
	<line class="st68" x1="180.5" y1="510.5" x2="65.5" y2="584.5"/>
	<line class="st67" x1="500" y1="547" x2="510" y2="683"/>
</g>
</svg>
