<?xml version="1.0" standalone="no"?>
<!DOCTYPE svg PUBLIC "-//W3C//DTD SVG 20010904//EN"
 "http://www.w3.org/TR/2001/REC-SVG-20010904/DTD/svg10.dtd">
<svg version="1.0" xmlns="http://www.w3.org/2000/svg"
 width="886.000000pt" height="548.000000pt" viewBox="0 0 886.000000 548.000000"
 preserveAspectRatio="xMidYMid meet">
<defs>
<linearGradient id="grad_0" x1="0%" y1="100%" x2="100%" y2="100%">
<stop offset="0%" style="stop-color:rgb(167, 232, 243); stop-opacity:1"/>
<stop offset="100%" style="stop-color:rgb(167, 232, 243); stop-opacity:1"/>
</linearGradient>
<linearGradient id="grad_1" x1="100%" y1="0%" x2="98%" y2="103%">
<stop offset="0%" style="stop-color:rgb(244, 254, 255); stop-opacity:1"/>
<stop offset="100%" style="stop-color:rgb(255, 255, 255); stop-opacity:1"/>
</linearGradient>
<linearGradient id="grad_2" x1="0%" y1="5%" x2="100%" y2="5%">
<stop offset="0%" style="stop-color:rgb(251, 254, 254); stop-opacity:1"/>
<stop offset="100%" style="stop-color:rgb(251, 254, 254); stop-opacity:1"/>
</linearGradient>
<linearGradient id="grad_3" x1="100%" y1="0%" x2="95%" y2="109%">
<stop offset="0%" style="stop-color:rgb(244, 252, 254); stop-opacity:1"/>
<stop offset="100%" style="stop-color:rgb(255, 255, 255); stop-opacity:1"/>
</linearGradient>
<linearGradient id="grad_4" x1="89%" y1="8%" x2="-28%" y2="59%">
<stop offset="0%" style="stop-color:rgb(117, 138, 49); stop-opacity:1"/>
<stop offset="100%" style="stop-color:rgb(118, 140, 52); stop-opacity:1"/>
</linearGradient>
<linearGradient id="grad_5" x1="0%" y1="0%" x2="30%" y2="143%">
<stop offset="0%" style="stop-color:rgb(115, 134, 35); stop-opacity:1"/>
<stop offset="100%" style="stop-color:rgb(121, 147, 69); stop-opacity:1"/>
</linearGradient>
<linearGradient id="grad_6" x1="0%" y1="24%" x2="100%" y2="24%">
<stop offset="0%" style="stop-color:rgb(65, 85, 90); stop-opacity:1"/>
<stop offset="100%" style="stop-color:rgb(65, 85, 90); stop-opacity:1"/>
</linearGradient>
<linearGradient id="grad_7" x1="0%" y1="33%" x2="100%" y2="33%">
<stop offset="0%" style="stop-color:rgb(74, 96, 88); stop-opacity:1"/>
<stop offset="100%" style="stop-color:rgb(74, 96, 88); stop-opacity:1"/>
</linearGradient>
<linearGradient id="grad_8" x1="0%" y1="85%" x2="100%" y2="85%">
<stop offset="0%" style="stop-color:rgb(105, 75, 38); stop-opacity:1"/>
<stop offset="100%" style="stop-color:rgb(105, 75, 38); stop-opacity:1"/>
</linearGradient>
<linearGradient id="grad_9" x1="68%" y1="3%" x2="-34%" y2="21%">
<stop offset="0%" style="stop-color:rgb(104, 70, 32); stop-opacity:1"/>
<stop offset="100%" style="stop-color:rgb(108, 83, 36); stop-opacity:1"/>
</linearGradient>
<linearGradient id="grad_10" x1="98%" y1="25%" x2="0%" y2="39%">
<stop offset="0%" style="stop-color:rgb(133, 164, 60); stop-opacity:1"/>
<stop offset="100%" style="stop-color:rgb(134, 165, 62); stop-opacity:1"/>
</linearGradient>
<linearGradient id="grad_11" x1="0%" y1="33%" x2="100%" y2="33%">
<stop offset="0%" style="stop-color:rgb(208, 198, 183); stop-opacity:1"/>
<stop offset="100%" style="stop-color:rgb(208, 198, 183); stop-opacity:1"/>
</linearGradient>
<linearGradient id="grad_12" x1="0%" y1="23%" x2="100%" y2="23%">
<stop offset="0%" style="stop-color:rgb(209, 198, 185); stop-opacity:1"/>
<stop offset="100%" style="stop-color:rgb(209, 198, 185); stop-opacity:1"/>
</linearGradient>
<linearGradient id="grad_13" x1="0%" y1="36%" x2="100%" y2="36%">
<stop offset="0%" style="stop-color:rgb(104, 73, 35); stop-opacity:1"/>
<stop offset="100%" style="stop-color:rgb(104, 73, 35); stop-opacity:1"/>
</linearGradient>
<linearGradient id="grad_14" x1="0%" y1="30%" x2="100%" y2="30%">
<stop offset="0%" style="stop-color:rgb(65, 86, 90); stop-opacity:1"/>
<stop offset="100%" style="stop-color:rgb(65, 86, 90); stop-opacity:1"/>
</linearGradient>
<linearGradient id="grad_15" x1="0%" y1="40%" x2="100%" y2="40%">
<stop offset="0%" style="stop-color:rgb(209, 198, 186); stop-opacity:1"/>
<stop offset="100%" style="stop-color:rgb(209, 198, 186); stop-opacity:1"/>
</linearGradient>
<linearGradient id="grad_16" x1="100%" y1="47%" x2="5%" y2="41%">
<stop offset="0%" style="stop-color:rgb(131, 158, 50); stop-opacity:1"/>
<stop offset="100%" style="stop-color:rgb(134, 166, 63); stop-opacity:1"/>
</linearGradient>
<linearGradient id="grad_17" x1="100%" y1="71%" x2="-3%" y2="72%">
<stop offset="0%" style="stop-color:rgb(88, 23, 0); stop-opacity:1"/>
<stop offset="100%" style="stop-color:rgb(116, 98, 74); stop-opacity:1"/>
</linearGradient>
<linearGradient id="grad_18" x1="0%" y1="15%" x2="100%" y2="15%">
<stop offset="0%" style="stop-color:rgb(64, 84, 90); stop-opacity:1"/>
<stop offset="100%" style="stop-color:rgb(64, 84, 90); stop-opacity:1"/>
</linearGradient>
<linearGradient id="grad_19" x1="0%" y1="16%" x2="100%" y2="16%">
<stop offset="0%" style="stop-color:rgb(211, 255, 114); stop-opacity:0.371957"/>
<stop offset="100%" style="stop-color:rgb(211, 255, 114); stop-opacity:0.371957"/>
</linearGradient>
<linearGradient id="grad_20" x1="0%" y1="89%" x2="100%" y2="89%">
<stop offset="0%" style="stop-color:rgb(215, 255, 88); stop-opacity:0.428876"/>
<stop offset="100%" style="stop-color:rgb(215, 255, 88); stop-opacity:0.428876"/>
</linearGradient>
<linearGradient id="grad_21" x1="0%" y1="90%" x2="100%" y2="90%">
<stop offset="0%" style="stop-color:rgb(212, 255, 105); stop-opacity:0.376943"/>
<stop offset="100%" style="stop-color:rgb(212, 255, 105); stop-opacity:0.376943"/>
</linearGradient>
<linearGradient id="grad_22" x1="0%" y1="1%" x2="100%" y2="1%">
<stop offset="0%" style="stop-color:rgb(213, 255, 98); stop-opacity:0.413299"/>
<stop offset="100%" style="stop-color:rgb(213, 255, 98); stop-opacity:0.413299"/>
</linearGradient>
<linearGradient id="grad_23" x1="0%" y1="21%" x2="100%" y2="21%">
<stop offset="0%" style="stop-color:rgb(0, 0, 0); stop-opacity:0.136313"/>
<stop offset="100%" style="stop-color:rgb(0, 0, 0); stop-opacity:0.136313"/>
</linearGradient>
<linearGradient id="grad_24" x1="0%" y1="80%" x2="100%" y2="80%">
<stop offset="0%" style="stop-color:rgb(0, 0, 0); stop-opacity:0.136835"/>
<stop offset="100%" style="stop-color:rgb(0, 0, 0); stop-opacity:0.136835"/>
</linearGradient>
</defs>
<g transform="translate(0.000000,548.000000) scale(0.100000,-0.100000)"
fill="url(#grad_0)" stroke="none">
<g>
<path d="M0 2740 l0 -2740 4430 0 4430 0 0 2740 0 2740 -4430 0 -4430 0 0
-2740z"/>
</g>
</g>
<g transform="translate(0.000000,548.000000) scale(0.100000,-0.100000)"
fill="url(#grad_1)" stroke="none">
<g>
<path d="M8235 5235 c-22 -8 -56 -32 -75 -53 -30 -35 -39 -39 -68 -35 -66 11
-132 -41 -132 -103 l0 -34 380 0 c336 0 380 2 380 15 0 27 -47 65 -79 65 -21
0 -35 7 -46 24 -21 32 -74 56 -122 56 -27 0 -42 6 -50 19 -15 23 -91 61 -124
61 -13 -1 -42 -7 -64 -15z"/>
</g>
</g>
<g transform="translate(0.000000,548.000000) scale(0.100000,-0.100000)"
fill="url(#grad_2)" stroke="none">
<g>
<path d="M3235 4611 c-54 -13 -104 -42 -139 -81 -32 -36 -37 -38 -94 -37 -74
0 -140 -30 -184 -84 -26 -32 -38 -39 -67 -39 -47 0 -100 -29 -128 -70 -44 -64
-83 -60 602 -60 l625 0 0 33 c-1 74 -61 153 -136 177 -35 12 -101 10 -135 -4
-10 -5 -19 1 -26 17 -37 80 -158 158 -243 156 -25 -1 -58 -4 -75 -8z"/>
</g>
</g>
<g transform="translate(0.000000,548.000000) scale(0.100000,-0.100000)"
fill="url(#grad_3)" stroke="none">
<g>
<path d="M2433 5128 c-30 -7 -52 -21 -82 -53 -39 -43 -44 -45 -95 -45 -49 0
-57 -3 -85 -35 -20 -23 -31 -46 -31 -65 l0 -30 385 0 c212 0 385 4 385 9 0 23
-44 61 -78 67 -20 4 -53 21 -73 39 -36 32 -106 54 -128 41 -6 -4 -15 2 -20 12
-24 46 -108 74 -178 60z"/>
</g>
</g>
<g transform="translate(0.000000,548.000000) scale(0.100000,-0.100000)"
fill="url(#grad_4)" stroke="none">
<g>
<path d="M4285 4325 c-5 -2 -22 -6 -38 -9 -45 -10 -104 -73 -147 -155 -29 -56
-52 -85 -87 -111 -60 -44 -105 -104 -135 -177 -21 -53 -23 -73 -24 -248 0
-104 -1 -198 -2 -208 -1 -9 -38 -55 -81 -100 -99 -103 -111 -138 -86 -243 21
-87 51 -138 110 -193 50 -46 153 -98 245 -124 57 -17 241 -49 247 -44 1 2 -2
93 -7 203 l-9 199 -53 105 -53 105 -52 15 c-29 8 -53 18 -53 23 0 7 24 4 73
-10 25 -7 22 4 -33 95 -52 87 -54 115 -1 35 l31 -48 1 60 2 60 8 -69 c10 -76
11 -78 88 -213 l53 -92 69 104 c104 158 112 178 107 250 -4 40 -16 82 -37 125
-24 49 -27 59 -11 40 12 -14 34 -51 50 -83 l28 -58 12 53 c6 29 14 77 17 106
10 90 25 59 18 -35 -8 -109 -27 -193 -60 -274 -14 -35 -25 -64 -25 -66 0 -2
18 6 40 17 58 29 90 41 90 32 0 -5 -15 -15 -32 -24 -93 -44 -200 -165 -215
-241 l-6 -32 45 42 c45 41 119 84 168 97 14 4 4 -6 -24 -22 -69 -42 -127 -93
-160 -141 l-29 -42 17 -157 c9 -86 19 -159 22 -162 3 -3 47 -4 97 -3 219 4
437 131 496 288 23 62 28 174 10 238 -6 24 -34 63 -75 107 -86 91 -91 111 -58
224 46 155 21 259 -90 385 -31 34 -93 108 -138 163 -82 102 -172 179 -231 196
-45 14 -80 20 -92 17z"/>
</g>
</g>
<g transform="translate(0.000000,548.000000) scale(0.100000,-0.100000)"
fill="url(#grad_5)" stroke="none">
<g>
<path d="M7810 2913 c-26 -9 -71 -56 -90 -93 -43 -83 -81 -259 -100 -455 -6
-66 -13 -144 -16 -174 l-6 -53 -31 30 c-85 80 -137 64 -137 -42 l0 -31 -26 40
c-46 69 -85 105 -116 105 -22 0 -29 -6 -35 -27 -6 -26 15 -152 32 -196 5 -12
-17 -3 -73 31 -95 58 -230 105 -287 100 -38 -3 -40 -5 -43 -38 -2 -23 6 -52
22 -83 l25 -47 -68 0 -69 0 19 61 c22 69 24 105 8 146 -27 71 -94 56 -198 -44
l-49 -48 -5 115 c-9 176 -43 278 -112 338 -53 47 -79 43 -145 -25 -66 -69
-132 -197 -204 -398 -6 -16 -12 -9 -31 38 -12 32 -28 64 -35 72 -31 37 -78 0
-134 -104 l-34 -63 -33 67 c-18 37 -52 87 -76 112 -36 37 -49 44 -75 41 -38
-4 -68 -43 -93 -121 -9 -29 -19 -59 -22 -67 -2 -8 -16 23 -29 69 -36 121 -80
204 -152 282 -126 137 -235 145 -349 27 -50 -52 -111 -146 -144 -222 -13 -30
-27 -56 -30 -56 -3 0 -11 12 -18 27 -19 42 -81 122 -102 134 -37 19 -109 -46
-174 -158 -11 -18 -23 -33 -27 -33 -4 0 -43 -24 -87 -54 l-79 -54 -21 57 c-40
110 -81 116 -157 23 -55 -68 -66 -74 -53 -30 15 54 11 146 -8 179 -17 28 -67
59 -96 59 -19 0 -82 -43 -112 -78 -13 -15 -41 -58 -61 -97 -21 -38 -39 -65
-40 -60 -2 6 -12 55 -24 111 -58 293 -154 494 -261 550 -43 22 -110 18 -150
-9 -80 -53 -136 -241 -147 -492 l-7 -140 -28 60 c-61 130 -125 158 -192 84
-20 -23 -45 -59 -54 -80 l-17 -38 -45 45 c-148 153 -290 222 -348 170 -38 -35
-52 -148 -32 -268 12 -75 -4 -56 -28 32 -44 163 -152 400 -230 508 -18 23 -47
50 -66 59 -32 15 -38 15 -69 0 -41 -19 -74 -61 -114 -142 -28 -57 -79 -202
-102 -292 -10 -39 -13 -42 -38 -37 -54 11 -90 -67 -99 -213 -3 -51 -8 -93 -10
-93 -2 0 -17 16 -34 35 -55 62 -88 42 -96 -57 -2 -35 -6 -68 -8 -74 -2 -8 -32
-6 -102 7 -134 26 -133 25 -87 56 150 99 224 180 224 244 0 32 -4 41 -25 51
-39 18 -129 -3 -260 -60 l-114 -50 -22 24 c-26 28 -58 30 -100 8 -17 -8 -32
-14 -34 -12 -2 2 1 25 6 52 9 50 5 80 -13 103 -16 20 -59 -9 -108 -71 -23 -31
-44 -56 -47 -56 -2 0 -1 27 3 59 9 81 -3 181 -25 210 -42 55 -97 -2 -148 -155
-21 -62 -28 -74 -34 -59 -5 11 -29 74 -54 140 -62 160 -174 388 -222 450 -21
27 -50 56 -65 64 -24 14 -28 14 -47 -3 -12 -11 -28 -42 -36 -70 -23 -75 -38
-282 -32 -428 2 -71 3 -128 2 -128 -2 0 -13 16 -25 35 -55 89 -144 175 -182
175 -10 0 -20 -10 -24 -24 -5 -21 12 -123 31 -191 6 -18 2 -20 -44 -17 l-51 4
0 -1096 0 -1096 4430 0 4430 0 0 1296 c0 1178 -1 1296 -16 1290 -9 -3 -28 -6
-44 -6 -24 0 -32 -9 -63 -67 -19 -38 -47 -106 -63 -153 l-28 -84 -11 49 c-7
28 -17 61 -23 75 -12 30 -59 75 -87 84 -35 10 -84 -29 -109 -87 -13 -28 -28
-63 -34 -77 -10 -24 -11 -24 -11 11 -1 58 -22 151 -42 190 -21 41 -48 55 -77
40 -27 -14 -76 -112 -108 -216 l-28 -89 -17 121 c-43 295 -124 487 -226 529
-35 15 -40 15 -63 7z"/>
</g>
</g>
<g transform="translate(0.000000,548.000000) scale(0.100000,-0.100000)"
fill="url(#grad_6)" stroke="none">
<g>
<path d="M3403 930 c-32 -19 -63 -66 -63 -95 0 -13 21 -15 145 -15 162 0 165
2 125 68 -37 60 -143 82 -207 42z"/>
</g>
</g>
<g transform="translate(0.000000,548.000000) scale(0.100000,-0.100000)"
fill="url(#grad_7)" stroke="none">
<g>
<path d="M666 858 c-29 -42 -22 -48 59 -48 66 0 75 2 75 18 0 51 -104 74 -134
30z"/>
</g>
</g>
<g transform="translate(0.000000,548.000000) scale(0.100000,-0.100000)"
fill="url(#grad_8)" stroke="none">
<g>
<path d="M4517 3718 c-3 -29 -11 -77 -17 -106 l-12 -53 -28 58 c-16 32 -38 69
-50 83 -16 19 -13 9 11 -40 21 -43 33 -85 37 -125 5 -72 -3 -92 -107 -250
l-69 -104 -53 92 c-77 135 -78 137 -88 213 l-8 69 -2 -60 -1 -60 -31 48 c-53
80 -51 52 1 -35 28 -46 50 -86 50 -91 0 -7 -24 -4 -72 10 -10 2 -18 1 -18 -4
0 -5 24 -15 53 -23 l52 -15 53 -106 54 -105 13 -325 c8 -178 15 -381 15 -450
0 -113 2 -128 20 -144 11 -10 30 -44 41 -76 l22 -59 28 21 c16 11 29 29 29 39
0 10 -18 143 -39 297 -22 153 -47 353 -57 445 l-17 167 29 42 c33 48 91 99
160 141 28 16 38 26 24 22 -49 -13 -123 -56 -168 -97 l-45 -42 6 32 c15 76
122 197 215 241 17 9 32 19 32 24 0 9 -32 -3 -90 -32 -22 -11 -40 -19 -40 -17
0 2 11 31 25 66 33 81 52 165 60 274 7 94 -8 125 -18 35z"/>
</g>
</g>
<g transform="translate(0.000000,548.000000) scale(0.100000,-0.100000)"
fill="url(#grad_9)" stroke="none">
<g>
<path d="M7745 4858 c-2 -7 -8 -56 -14 -108 -10 -86 -49 -301 -56 -308 -1 -2
-10 18 -19 45 -19 54 -93 183 -105 183 -5 0 7 -36 26 -81 45 -103 69 -235 53
-287 -20 -61 -87 -179 -185 -322 -51 -74 -100 -150 -109 -168 l-17 -34 -61
109 c-33 59 -82 144 -109 188 -49 80 -78 175 -79 251 0 17 -3 47 -7 65 -6 27
-9 13 -13 -60 l-5 -93 -59 85 c-32 48 -68 94 -79 104 -23 20 -21 16 32 -67 37
-59 160 -274 157 -277 -1 -1 -30 4 -66 12 -103 20 -140 24 -140 15 0 -5 15
-11 33 -15 17 -4 70 -18 116 -31 l83 -25 81 -167 c74 -154 81 -175 93 -267 8
-55 14 -115 14 -133 l0 -32 -37 16 c-79 32 -200 55 -335 61 -148 7 -151 8
-207 79 -33 42 -34 23 -1 -29 l29 -47 -47 6 c-26 3 -64 7 -84 10 -36 4 -53 -9
-25 -19 6 -2 -5 -8 -25 -12 -72 -14 -37 -20 96 -17 140 4 331 -15 440 -43 32
-8 90 -30 130 -49 l73 -33 6 -153 c4 -84 7 -197 7 -252 0 -54 2 -98 5 -98 2 0
30 16 61 36 52 33 56 38 50 67 -16 92 -38 298 -45 417 -8 132 -7 136 17 179
55 98 234 256 340 300 29 12 44 31 24 31 -4 0 -57 -25 -117 -54 -72 -36 -137
-78 -189 -122 l-79 -67 7 44 c22 141 207 344 404 443 30 15 52 29 50 32 -8 7
-108 -31 -185 -70 l-72 -36 34 80 c43 102 71 191 96 310 28 133 41 492 14 408z"/>
</g>
</g>
<g transform="translate(0.000000,548.000000) scale(0.100000,-0.100000)"
fill="url(#grad_10)" stroke="none">
<g>
<path d="M7060 5075 c-181 -41 -346 -175 -456 -370 -50 -91 -109 -254 -134
-375 -41 -190 -88 -247 -238 -286 -81 -21 -145 -60 -207 -125 -99 -104 -154
-270 -155 -464 0 -194 47 -290 195 -400 40 -29 92 -77 116 -107 136 -165 248
-241 401 -272 225 -46 521 18 706 153 l42 31 0 98 c0 55 -3 168 -7 252 l-6
153 -73 33 c-40 19 -98 41 -130 49 -109 28 -300 47 -440 43 -133 -3 -168 3
-96 17 20 4 31 10 25 12 -7 3 -13 9 -13 14 0 8 28 7 132 -7 l38 -4 -30 47
c-33 52 -32 71 1 29 56 -71 59 -72 207 -79 135 -6 256 -29 335 -61 l37 -16 0
32 c0 18 -6 78 -14 133 -12 92 -19 113 -93 267 l-81 167 -83 25 c-46 13 -99
27 -116 31 -18 4 -33 10 -33 15 0 9 37 5 140 -15 36 -8 65 -13 66 -12 3 3
-120 218 -157 277 -53 83 -55 87 -32 67 11 -10 47 -56 79 -104 l59 -85 5 93
c4 73 7 87 13 60 4 -18 7 -48 7 -65 1 -76 30 -171 79 -251 27 -44 76 -129 109
-188 l61 -109 17 34 c9 18 58 94 109 168 98 143 165 261 185 322 16 52 -8 184
-53 287 -19 45 -31 81 -26 81 12 0 86 -129 105 -183 9 -27 18 -47 19 -45 7 8
45 215 56 308 19 168 32 148 26 -40 -8 -224 -42 -383 -122 -570 l-34 -80 72
36 c77 39 177 77 185 70 2 -3 -20 -17 -50 -32 -197 -99 -382 -302 -404 -443
l-7 -44 79 67 c52 44 117 86 189 122 60 29 113 54 117 54 20 0 5 -19 -24 -31
-106 -44 -285 -202 -340 -300 -24 -43 -25 -47 -17 -184 8 -133 42 -421 51
-430 2 -3 31 0 63 5 33 5 131 7 220 4 302 -12 541 40 676 146 53 43 115 139
139 219 26 83 36 233 21 331 -6 41 -16 111 -22 154 -14 107 -41 167 -101 221
-71 64 -138 86 -285 94 -132 7 -153 15 -197 75 -18 23 -22 48 -27 179 -8 162
-28 265 -73 363 -72 156 -191 263 -357 319 -75 25 -101 28 -234 31 -106 3
-169 -1 -215 -11z"/>
</g>
</g>
<g transform="translate(0.000000,548.000000) scale(0.100000,-0.100000)"
fill="url(#grad_11)" stroke="none">
<g>
<path d="M2654 991 c-26 -12 -54 -49 -54 -73 0 -16 11 -18 109 -18 l110 0 -10
29 c-6 16 -19 37 -29 46 -22 20 -95 29 -126 16z"/>
</g>
</g>
<g transform="translate(0.000000,548.000000) scale(0.100000,-0.100000)"
fill="url(#grad_12)" stroke="none">
<g>
<path d="M374 1001 c-37 -17 -74 -66 -74 -99 0 -9 143 -22 244 -22 l49 0 -7
32 c-8 39 -40 76 -83 94 -43 19 -80 17 -129 -5z"/>
</g>
</g>
<g transform="translate(0.000000,548.000000) scale(0.100000,-0.100000)"
fill="url(#grad_13)" stroke="none">
<g>
<path d="M7389 2892 l-56 -35 -6 -311 -6 -311 28 -30 c16 -16 40 -48 55 -70
l26 -40 0 31 c0 106 52 122 136 42 l31 -29 6 38 c12 71 7 116 -23 211 -40 124
-96 347 -111 442 -7 41 -15 80 -18 86 -4 7 -26 -1 -62 -24z"/>
</g>
</g>
<g transform="translate(0.000000,548.000000) scale(0.100000,-0.100000)"
fill="url(#grad_14)" stroke="none">
<g>
<path d="M6833 789 c-35 -10 -73 -52 -73 -80 0 -17 9 -19 115 -19 126 0 129 2
95 57 -13 21 -31 35 -57 42 -21 6 -40 11 -43 10 -3 0 -19 -5 -37 -10z"/>
</g>
</g>
<g transform="translate(0.000000,548.000000) scale(0.100000,-0.100000)"
fill="url(#grad_15)" stroke="none">
<g>
<path d="M852 994 c-41 -29 -28 -44 38 -44 46 0 60 3 60 14 0 17 -38 46 -60
46 -9 0 -26 -7 -38 -16z"/>
</g>
</g>
<g transform="translate(0.000000,548.000000) scale(0.100000,-0.100000)"
fill="url(#grad_16)" stroke="none">
<g>
<path d="M1169 5140 c-65 -11 -84 -23 -169 -105 -82 -79 -128 -101 -188 -90
-38 6 -158 47 -201 68 -66 33 -177 -9 -229 -86 -61 -89 -82 -195 -82 -400 1
-270 63 -486 187 -647 27 -36 55 -75 61 -87 17 -31 15 -86 -7 -188 -40 -185
-36 -283 13 -391 38 -84 133 -172 236 -222 87 -41 207 -78 219 -67 11 12 6
608 -7 750 -7 77 -15 194 -18 260 -4 88 -12 142 -31 202 -25 81 -125 296 -179
382 -15 24 -21 41 -14 36 23 -14 132 -190 183 -295 35 -72 52 -99 55 -85 3 11
34 110 71 220 l66 200 0 117 c0 65 3 118 7 118 12 0 30 -144 24 -195 -3 -29
-31 -155 -62 -281 l-56 -229 6 -120 c4 -66 11 -124 16 -129 5 -5 21 1 38 13
60 42 174 89 283 116 l111 28 29 45 c16 25 29 52 29 59 0 7 4 13 9 13 10 0 -4
-61 -20 -92 -9 -16 -6 -16 43 -2 29 9 77 26 106 39 59 27 70 19 16 -12 l-36
-20 83 -9 c66 -7 75 -9 39 -11 -134 -8 -246 -28 -360 -65 -144 -46 -231 -89
-313 -154 -48 -37 -58 -50 -53 -67 4 -12 9 -210 13 -441 l6 -418 116 5 c71 3
133 11 160 21 102 38 183 127 302 331 92 158 174 237 297 289 60 25 109 53
142 83 107 96 149 261 100 396 -12 34 -28 69 -34 77 -7 8 -27 40 -46 70 -52
87 -137 186 -204 236 -33 26 -110 70 -171 98 -170 81 -207 134 -270 387 -40
158 -69 221 -112 237 -40 15 -150 22 -204 12z"/>
</g>
</g>
<g transform="translate(0.000000,548.000000) scale(0.100000,-0.100000)"
fill="url(#grad_17)" stroke="none">
<g>
<path d="M1135 4712 l0 -117 -66 -200 c-37 -110 -68 -209 -71 -220 -3 -14 -20
13 -55 85 -51 105 -160 281 -183 295 -7 5 -1 -12 14 -36 54 -86 154 -301 179
-382 19 -60 27 -114 31 -202 3 -66 11 -183 18 -260 7 -77 13 -270 13 -430 0
-252 -4 -324 -29 -550 -18 -161 -29 -319 -30 -413 l-1 -153 30 38 c32 41 72
82 95 98 13 9 14 104 9 735 -3 399 -9 737 -13 752 -7 24 -2 31 51 72 154 121
405 203 673 219 36 2 27 4 -39 11 l-83 9 36 20 c54 31 43 39 -16 12 -29 -13
-77 -30 -106 -39 -49 -14 -52 -14 -43 2 16 31 30 92 20 92 -5 0 -9 -6 -9 -13
0 -7 -13 -34 -29 -59 l-29 -45 -111 -28 c-109 -27 -223 -74 -283 -116 -17 -12
-33 -18 -38 -13 -5 5 -12 63 -16 129 l-6 120 56 229 c31 126 59 252 62 281 6
51 -12 195 -24 195 -4 0 -7 -53 -7 -118z"/>
</g>
</g>
<g transform="translate(0.000000,548.000000) scale(0.100000,-0.100000)"
fill="url(#grad_18)" stroke="none">
<g>
<path d="M5033 1501 c-44 -20 -67 -48 -78 -93 l-7 -28 156 0 c142 0 156 2 156
18 0 33 -40 83 -83 102 -53 25 -91 25 -144 1z"/>
</g>
</g>
<g transform="translate(0.000000,548.000000) scale(0.100000,-0.100000)"
fill="url(#grad_19)" stroke="none">
<g>
<path d="M7810 2913 c-26 -9 -71 -56 -90 -93 -43 -83 -81 -259 -100 -455 -6
-66 -13 -144 -16 -174 l-6 -53 -31 30 c-85 80 -137 64 -137 -42 l0 -31 -26 40
c-46 69 -85 105 -116 105 -22 0 -29 -6 -35 -27 -6 -26 15 -152 32 -196 5 -12
-17 -3 -73 31 -95 58 -230 105 -287 100 l-40 -3 1 -46 c0 -29 8 -58 23 -83
l24 -37 416 8 c229 4 662 8 964 8 l547 0 0 298 c0 269 -2 299 -16 293 -9 -3
-28 -6 -44 -6 -24 0 -32 -9 -63 -67 -19 -38 -47 -106 -63 -153 l-28 -84 -11
49 c-7 28 -17 61 -23 75 -12 30 -59 75 -87 84 -35 10 -84 -29 -109 -87 -13
-28 -28 -63 -34 -77 -10 -24 -11 -24 -11 11 -1 58 -22 151 -42 190 -21 41 -48
55 -77 40 -27 -14 -76 -112 -108 -216 l-28 -89 -17 121 c-43 295 -124 487
-226 529 -35 15 -40 15 -63 7z"/>
</g>
</g>
<g transform="translate(0.000000,548.000000) scale(0.100000,-0.100000)"
fill="url(#grad_20)" stroke="none">
<g>
<path d="M7640 1189 c-69 -5 -188 -13 -265 -19 -77 -6 -194 -15 -260 -20 -66
-5 -185 -14 -265 -19 -184 -14 -848 -57 -1085 -71 -726 -41 -908 -45 -1280
-25 -418 23 -1942 32 -2415 15 -705 -26 -1243 -23 -1675 10 -66 5 -182 12
-257 15 l-138 7 0 -541 0 -541 4430 0 4430 0 0 385 0 385 -47 0 c-27 0 -81 -7
-120 -15 -151 -32 -324 -46 -618 -51 l-300 -6 -209 41 c-116 22 -213 46 -218
53 -4 7 -8 32 -8 55 0 33 7 50 31 78 41 46 106 65 225 65 l92 0 10 43 c15 57
42 81 82 74 27 -6 30 -4 30 21 0 15 3 37 6 50 7 25 24 24 -176 11z m-7137
-183 c43 -18 75 -55 83 -94 l7 -32 -49 0 c-101 0 -244 13 -244 22 0 6 8 26 17
45 28 61 117 89 186 59z m425 -12 c41 -29 28 -44 -38 -44 -46 0 -60 3 -60 14
0 17 38 46 60 46 9 0 26 -7 38 -16z m1852 -19 c10 -9 23 -30 29 -46 l10 -29
-110 0 c-98 0 -109 2 -109 18 0 24 28 61 54 73 31 13 104 4 126 -16z m3064 -7
c13 -18 35 -64 47 -103 12 -38 25 -74 29 -78 4 -4 15 12 26 35 70 161 132 187
105 45 -7 -34 -15 -73 -18 -87 -6 -24 -5 -23 33 8 24 20 50 32 68 32 27 0 28
-2 23 -37 -3 -21 -15 -59 -27 -85 l-21 -48 -199 0 -199 0 -16 30 c-8 16 -15
43 -15 60 0 24 4 30 23 30 12 0 35 -7 51 -15 15 -8 29 -15 30 -15 0 0 -1 49
-2 109 -5 148 13 182 62 119z m-4100 -10 c17 -28 36 -115 36 -170 l0 -40 45
62 c56 75 80 78 79 10 0 -25 -4 -57 -8 -72 -7 -25 -6 -28 17 -28 40 0 41 -16
4 -44 -33 -25 -39 -26 -175 -26 l-142 0 -45 67 c-51 77 -58 108 -22 97 12 -3
45 -18 72 -33 28 -14 53 -27 56 -29 4 -2 8 39 11 90 4 95 18 138 43 138 8 0
21 -10 29 -22z m1811 -22 c35 -15 75 -67 75 -98 0 -16 -14 -18 -145 -18 -160
0 -161 1 -130 61 33 62 123 87 200 55z m-2773 -73 c10 -9 18 -24 18 -35 0 -16
-9 -18 -75 -18 -81 0 -88 6 -59 48 19 27 88 31 116 5z m6131 -74 c26 -7 44
-21 57 -42 34 -55 31 -57 -95 -57 -106 0 -115 2 -115 19 0 39 50 80 110 90 3
1 22 -4 43 -10z"/>
</g>
</g>
<g transform="translate(0.000000,548.000000) scale(0.100000,-0.100000)"
fill="url(#grad_21)" stroke="none">
<g>
<path d="M8617 1269 c-49 -4 -91 -10 -93 -12 -3 -3 -4 -33 -2 -67 l3 -61 36
53 c69 103 124 101 124 -5 0 -29 -4 -69 -8 -90 l-8 -38 49 50 c45 47 52 51 95
51 l47 0 0 65 0 65 -77 -1 c-43 -1 -118 -5 -166 -10z"/>
</g>
</g>
<g transform="translate(0.000000,548.000000) scale(0.100000,-0.100000)"
fill="url(#grad_22)" stroke="none">
<g>
<path d="M2122 2700 c-67 -41 -142 -199 -202 -427 -10 -39 -13 -42 -38 -37
-54 11 -90 -67 -99 -213 -3 -51 -8 -93 -10 -93 -2 0 -17 16 -34 35 -57 64 -87
43 -98 -69 l-7 -75 76 -7 c86 -8 858 1 867 10 7 7 -34 200 -47 227 -4 8 -18
50 -30 93 -64 227 -208 511 -283 557 -40 24 -54 24 -95 -1z"/>
</g>
</g>
<g transform="translate(0.000000,548.000000) scale(0.100000,-0.100000)"
fill="url(#grad_23)" stroke="none">
<g>
<path d="M4740 3883 c0 -41 -12 -93 -40 -176 -32 -94 -40 -134 -40 -189 0 -67
3 -76 61 -184 70 -133 81 -185 55 -276 -20 -66 -79 -139 -139 -170 -22 -11
-66 -22 -96 -25 -55 -4 -57 -3 -131 51 -41 30 -75 54 -76 53 -3 -5 28 -252 33
-257 2 -3 46 -4 96 -3 219 4 437 131 496 288 23 62 28 174 10 238 -6 24 -34
63 -75 107 -86 91 -91 111 -58 224 32 109 30 186 -9 267 -22 47 -69 109 -82
109 -3 0 -5 -26 -5 -57z"/>
</g>
</g>
<g transform="translate(0.000000,548.000000) scale(0.100000,-0.100000)"
fill="url(#grad_24)" stroke="none">
<g>
<path d="M3713 3258 c-38 -40 -47 -104 -28 -184 21 -87 51 -138 110 -193 50
-46 153 -98 245 -124 57 -17 241 -49 247 -44 1 2 0 61 -4 131 l-6 128 -111 -6
c-61 -3 -157 -8 -213 -12 -87 -5 -107 -4 -129 11 -39 25 -64 94 -77 212 l-12
105 -22 -24z"/>
</g>
</g>
</svg>
